<svg xmlns="http://www.w3.org/2000/svg" width="34" height="22" viewBox="0 0 34 22">
    <g fill="none" fill-rule="evenodd" opacity=".55">
        <path d="M16.746 16.91a.363.363 0 0 1-.492 0L10.87 12 1 21h31l-9.87-9-5.384 4.91z"/>
        <path d="M32 1H1l15.5 15z"/>
        <path d="M1 1v19l10-9.5zM32 20V1l-10 9.5z"/>
        <path fill="#14486E" fill-rule="nonzero" d="M33.998.383a.407.407 0 0 0-.023-.132l-.003-.006C33.97.236 33.962.23 33.96.22a.395.395 0 0 0-.057-.09l-.03-.03a.355.355 0 0 0-.075-.053l-.037-.02A.345.345 0 0 0 33.63 0H.37a.348.348 0 0 0-.13.028C.227.033.216.04.204.047A.37.37 0 0 0 .129.1C.119.11.108.119.099.13A.379.379 0 0 0 .04.22C.037.229.031.236.028.245L.025.251a.416.416 0 0 0-.023.132L0 .393v21.208l.002.012c0 .046.007.092.023.136.055.151.192.251.344.251H33.63c.153 0 .29-.1.345-.25a.413.413 0 0 0 .023-.137l.002-.012V.393l-.002-.01zm-1.32.403L17 15.988 1.323.786h31.355zM.739 1.283L10.76 11 .74 20.718V1.283zm.59 19.925l9.979-9.676 5.443 5.278a.355.355 0 0 0 .498 0l5.443-5.278 9.979 9.677H1.329zm31.932-.49L23.241 11l10.02-9.717v19.435z"/>
    </g>
</svg>
