<svg xmlns="http://www.w3.org/2000/svg" width="30" height="30" viewBox="0 0 30 30">
    <g fill="#14486E" fill-rule="nonzero" opacity=".55">
        <path d="M29.29 23.525l-4.584-4.6a2.43 2.43 0 0 0-1.734-.692 2.628 2.628 0 0 0-1.85.755l-2.229 2.235-.36-.199a22.747 22.747 0 0 1-5.516-4.002 22.893 22.893 0 0 1-4.007-5.555l-.183-.338 2.232-2.235a2.563 2.563 0 0 0 .06-3.605L6.526.696A2.42 2.42 0 0 0 4.792 0 2.625 2.625 0 0 0 2.935.76L1.81 1.897a.477.477 0 0 0-.07.089l-.09.151A7.748 7.748 0 0 0 .576 4.034 7.998 7.998 0 0 0 .095 5.98c-.612 5.086 1.696 9.728 7.96 16.01 7.414 7.435 13.663 8.01 15.4 8.01.19.003.38-.005.57-.022a7.941 7.941 0 0 0 1.945-.493 7.52 7.52 0 0 0 1.907-1.087l.259-.203.038-.034 1.056-1.04a2.553 2.553 0 0 0 .06-3.595zm-.722 2.924l-1.034 1.018-.237.187a6.584 6.584 0 0 1-1.667.948 6.995 6.995 0 0 1-1.709.433c-.016 0-.176.02-.466.02-1.646 0-7.566-.557-14.732-7.734C2.69 15.267.461 10.857 1.034 6.09c.07-.584.211-1.158.423-1.707a6.79 6.79 0 0 1 .946-1.685l.031-.044.088-.124L3.61 1.432c.315-.31.74-.485 1.182-.483.397-.01.78.14 1.066.417L10.44 5.96c.6.643.574 1.65-.06 2.26l-2.5 2.495a.475.475 0 0 0-.078.569l.365.632a23.709 23.709 0 0 0 4.174 5.789 23.576 23.576 0 0 0 5.728 4.147l.672.374a.472.472 0 0 0 .56-.095l2.482-2.488c.317-.31.743-.481 1.185-.478.4-.004.785.153 1.069.436l4.58 4.597c.289.29.447.685.438 1.094-.006.435-.183.85-.491 1.157h.003zM16.458 2.917a9.637 9.637 0 0 1 9.625 9.625.458.458 0 0 0 .917 0C26.993 6.722 22.278 2.007 16.458 2a.458.458 0 0 0 0 .917zM16.42 8.08c3.169.004 5.737 3.306 5.74 7.38 0 .298.188.54.42.54.232 0 .42-.242.42-.54-.005-4.67-2.948-8.454-6.58-8.46-.232 0-.42.242-.42.54 0 .298.188.54.42.54z"/>
    </g>
</svg>
