<svg xmlns="http://www.w3.org/2000/svg" width="115" height="115" viewBox="0 0 115 115">
    <g fill="none" fill-rule="evenodd">
        <path d="M0 0h115v115H0z"/>
        <g fill-rule="nonzero">
            <path fill="#D5E2ED" d="M102.118 81.233A13 13 0 0 1 89.176 93H33.344a13 13 0 0 1-12.94-11.767L16.58 41.11A7 7 0 0 1 20 28h82a7 7 0 0 1 3.974 12.764l-3.856 40.47z"/>
            <path fill="#14486E" d="M94 26a3 3 0 0 0-3-3H9a3 3 0 1 0 0 6h.301l4.084 42.854A9 9 0 0 0 22.345 80h55.831a9 9 0 0 0 8.96-8.146l4.084-42.862A3 3 0 0 0 94 26zm-2.882 46.233A13 13 0 0 1 78.176 84H22.344a13 13 0 0 1-12.94-11.767L5.58 32.11A7 7 0 0 1 9 19h82a7 7 0 0 1 3.974 12.764l-3.856 40.47z"/>
        </g>
    </g>
</svg>
