<svg xmlns="http://www.w3.org/2000/svg" width="115" height="115" viewBox="0 0 115 115">
    <g fill="none" fill-rule="evenodd">
        <path fill="#D5E2ED" fill-rule="nonzero" d="M23.11 39.141A6.434 6.434 0 0 1 20 33.626c0-1.8.737-3.428 1.926-4.596A6.424 6.424 0 0 1 20 24.434C20 20.881 22.873 18 26.417 18h75.166c3.544 0 6.417 2.88 6.417 6.434 0 1.8-.737 3.428-1.926 4.596A6.424 6.424 0 0 1 108 33.626c0 2.34-1.246 4.39-3.11 5.515a6.434 6.434 0 0 1 3.11 5.516c0 2.34-1.246 4.389-3.11 5.515a6.434 6.434 0 0 1 3.11 5.515 6.436 6.436 0 0 1-2.774 5.298l-3.535 37.2c-.583 6.132-5.72 10.815-11.863 10.815H38.65c-6.143 0-11.28-4.683-11.863-10.816l-3.505-36.882A6.435 6.435 0 0 1 20 55.687c0-2.34 1.246-4.39 3.11-5.515A6.434 6.434 0 0 1 20 44.657c0-2.341 1.246-4.39 3.11-5.516z"/>
        <g stroke="#14486E" stroke-width="4" transform="translate(14 12)">
            <rect width="85" height="9.538" x="-2" y="18.308" rx="4.769"/>
            <rect width="85" height="9.538" x="-2" y="7.231" rx="4.769"/>
            <rect width="85" height="9.538" x="-2" y="-2" rx="4.769"/>
            <path d="M80.304 38.45l-3.572 37.59A11 11 0 0 1 65.782 86H15.697a11 11 0 0 1-10.95-9.96L1.195 38.658a4.771 4.771 0 0 1 1.574-9.272h75.462a4.77 4.77 0 0 1 2.073 9.065z"/>
        </g>
    </g>
</svg>
