<?xml version="1.0" encoding="UTF-8"?>
<svg width="75px" height="64px" viewBox="0 0 75 64" version="1.1" xmlns="http://www.w3.org/2000/svg" xmlns:xlink="http://www.w3.org/1999/xlink">
    <!-- Generator: Sketch 47 (45396) - http://www.bohemiancoding.com/sketch -->
    <title>Icon-GMS</title>
    <desc>Created with Sketch.</desc>
    <defs></defs>
    <g id="Web" stroke="none" stroke-width="1" fill="none" fill-rule="evenodd">
        <g id="Home" transform="translate(-954.000000, -1899.000000)">
            <g id="Clients" transform="translate(0.000000, 1637.000000)">
                <g transform="translate(340.000000, 258.000000)" id="3">
                    <g transform="translate(540.000000, 5.000000)">
                        <g id="Icon-GMS" transform="translate(75.000000, 0.000000)">
                            <g id="Place">
                                <polygon id="Path-4" fill="#2C6FA6" opacity="0.200000003" points="7.94628906 6.83105469 7.94628906 62.1637095 73.0644907 62.1637095 73.0644907 6.49894277"></polygon>
                                <path d="M68.6567406,56.3173626 L68.6567406,2.67949392 C69.3727678,2.6499453 69.9441621,2.06295465 69.9441621,1.34100435 C69.9441621,0.601031484 69.3423298,0 68.6011126,0 L1.3430495,0 C0.601832276,0 0,0.601031484 0,1.34100435 C0,2.08181547 0.601832276,2.68263739 1.3430495,2.68263739 L1.3430495,56.3182009 C0.614217384,56.3337087 0.027918972,56.9271958 0.027918972,57.6581574 C0.027918972,58.3989685 0.629751248,59 1.37096847,59 L68.6567406,59 C69.3990074,59 70,58.3989685 70,57.6581574 C70,56.9173463 69.3990074,56.3173626 68.6567406,56.3173626 Z M65.9698019,2.68263739 L65.9698019,56.3173626 L18.8047921,56.3173626 L18.8047921,40.2364174 C18.8047921,39.4956062 18.2037995,38.8947843 17.4617426,38.8947843 L8.12043243,38.8947843 C7.37816562,38.8947843 6.77633335,39.4956062 6.77633335,40.2364174 L6.77633335,56.3173626 L4.03019807,56.3173626 L4.03019807,2.68263739 L65.9698019,2.68263739 Z M9.46348192,49.5859357 C9.79557075,49.5702184 10.1161141,49.4319057 10.3514312,49.1969837 C10.6016523,48.9465539 10.744396,48.6009818 10.744396,48.2474462 C10.744396,47.8953775 10.6016523,47.5500149 10.3514312,47.3002138 C10.1161141,47.0652918 9.79557075,46.9269791 9.46348192,46.9114714 L9.46348192,41.5774217 L16.1176435,41.5774217 L16.1176435,56.3173626 L9.46348192,56.3173626 L9.46348192,49.5859357 Z M61.7763088,38.4186047 L52.1450471,38.4186047 C51.3932196,38.4186047 50.7843137,39.0010119 50.7843137,39.720121 L50.7843137,48.779879 C50.7843137,49.4981744 51.3932196,50.0813953 52.1450471,50.0813953 L61.7763088,50.0813953 C62.5281364,50.0813953 63.1372549,49.4981744 63.1372549,48.779879 L63.1372549,39.720121 C63.1372549,39.0010119 62.5281364,38.4186047 61.7763088,38.4186047 Z M53.5066313,47.4773455 L60.4147247,47.4773455 L60.4147247,41.0218408 L53.5066313,41.0218408 L53.5066313,47.4773455 Z M37.6750422,50.0813953 L46.7367225,50.0813953 C47.4564625,50.0813953 48.0392157,49.4982151 48.0392157,48.7791562 L48.0392157,39.7208438 C48.0392157,39.0017849 47.4564625,38.4186047 46.7367225,38.4186047 L37.6750422,38.4186047 C36.95632,38.4186047 36.372549,39.0017849 36.372549,39.7208438 L36.372549,48.7791562 C36.372549,49.4982151 36.95632,50.0813953 37.6750422,50.0813953 Z M38.978146,47.4775272 L45.4336187,47.4775272 L45.4336187,41.0224728 L38.978146,41.0224728 L38.978146,47.4775272 Z M31.6388641,38.4186047 L22.5776363,38.4186047 C21.8580874,38.4186047 21.2745098,39.0010119 21.2745098,39.720121 L21.2745098,48.779879 C21.2745098,49.4981744 21.8580874,50.0813953 22.5776363,50.0813953 L31.6388641,50.0813953 C32.3584131,50.0813953 32.9411765,49.4981744 32.9411765,48.779879 L32.9411765,39.720121 C32.9411765,39.0010119 32.3584131,38.4186047 31.6388641,38.4186047 Z M23.8801522,47.4773455 L30.3365518,47.4773455 L30.3365518,41.0218408 L23.8801522,41.0218408 L23.8801522,47.4773455 Z M37.7031013,34.9883721 L61.8060789,34.9883721 C62.5411159,34.9883721 63.1372549,34.3859629 63.1372549,33.6440352 L63.1372549,8.2056425 C63.1372549,7.46287429 62.5411159,6.86046512 61.8060789,6.86046512 L37.7031013,6.86046512 C36.9688959,6.86046512 36.372549,7.46287429 36.372549,8.2056425 L36.372549,33.6440352 C36.372549,34.3868034 36.9688959,34.9883721 37.7031013,34.9883721 Z M39.0342773,32.2986477 L44.4128356,32.2986477 L44.4128356,22.8712697 L39.0342773,22.8712697 L39.0342773,32.2986477 Z M47.0737321,32.2986477 L52.3418789,32.2986477 L52.3418789,22.8712697 L47.0737321,22.8712697 L47.0737321,32.2986477 Z M47.0745639,20.1823858 L52.3418789,20.1823858 L52.3418789,9.55018952 L47.0745639,9.55018952 L47.0745639,20.1823858 Z M55.0036072,32.2986477 L60.4755266,32.2986477 L60.4755266,22.8712697 L55.0036072,22.8712697 L55.0036072,32.2986477 Z M55.0036072,20.1823858 L60.4755266,20.1823858 L60.4755266,9.55018952 L55.0036072,9.55018952 L55.0036072,20.1823858 Z M39.0342773,20.1823858 L44.4128356,20.1823858 L44.4128356,9.55018952 L39.0342773,9.55018952 L39.0342773,20.1823858 Z M8.88040357,34.9883721 L32.9833812,34.9883721 C33.7175865,34.9883721 34.3137255,34.3859629 34.3137255,33.6440352 L34.3137255,8.2056425 C34.3137255,7.46287429 33.7175865,6.86046512 32.9833812,6.86046512 L8.88040357,6.86046512 C8.14515858,6.86046512 7.54901961,7.46287429 7.54901961,8.2056425 L7.54901961,33.6440352 C7.54901961,34.3868034 8.14515858,34.9883721 8.88040357,34.9883721 Z M10.2107479,32.2986477 L15.5893062,32.2986477 L15.5893062,22.8712697 L10.2107479,22.8712697 L10.2107479,32.2986477 Z M18.2510344,32.2986477 L23.5183495,32.2986477 L23.5183495,22.8712697 L18.2510344,22.8712697 L18.2510344,32.2986477 Z M18.2510344,20.1823858 L23.5191812,20.1823858 L23.5191812,9.55018952 L18.2510344,9.55018952 L18.2510344,20.1823858 Z M26.1800778,32.2986477 L31.6519972,32.2986477 L31.6519972,22.8712697 L26.1800778,22.8712697 L26.1800778,32.2986477 Z M26.1800778,20.1823858 L31.6519972,20.1823858 L31.6519972,9.55018952 L26.1800778,9.55018952 L26.1800778,20.1823858 Z M10.2107479,20.1823858 L15.5893062,20.1823858 L15.5893062,9.55018952 L10.2107479,9.55018952 L10.2107479,20.1823858 Z" id="Fill-1" stroke="#14486E" stroke-width="0.5" fill="#14486E"></path>
                            </g>
                        </g>
                    </g>
                </g>
            </g>
        </g>
    </g>
</svg>