<svg xmlns="http://www.w3.org/2000/svg" width="46" height="46" viewBox="0 0 46 46">
    <g fill="none" fill-rule="evenodd">
        <path d="M0 0h46v46H0z"/>
        <path fill="#007CC3" d="M41.41 25.639c-.2.065-.627.14-1.028.175 0 0-16.23 1.277-21.669 1.702-5.202.408-6.693-.207-6.697-.208l-7.735-3.771c-.175-.084-.56-.348-.566-.56.077-.14.665-.332 1.212-.398.437-.038 19.248-1.646 22.164-1.824 2.843-.175 4.677.397 4.68.397.3.127 7.347 3.117 8.55 3.424.812.207 1.04.584 1.09.686v.377zm-3.931 6.624l-1.892 1.246.459-6.631 3.489-.275-2.056 5.66zM22.58 27.936l.354 6.799c-1.44.132-2.764.25-3.808.34l-.228-6.85 3.682-.29zm4.099-.322l.297 6.746c-1.263.118-2.544.238-3.752.349l-.354-6.796 3.809-.299zm4.558-.358l.194 6.683c-1.257.12-2.691.256-4.164.393l-.298-6.74 4.268-.336zm4.051 6.314c-.579.056-1.889.182-3.567.341l-.194-6.678 4.224-.332-.463 6.67zm-18.345 1.67a5.773 5.773 0 0 1-1.157-.085v-6.782a42.401 42.401 0 0 0 2.822-.127l.227 6.853c-.939.08-1.62.131-1.892.14zm-3.567-.925l-.401-6.076c.505.066 1.187.12 2.091.134v6.62c-.733-.197-1.25-.44-1.252-.44l-.438-.238zm-4.899-7.93l.727 5.656-1.307-.712-1.159-5.792 1.739.848zm1.91.931l.568 5.679-1.436-.782-.729-5.676 1.598.78zm2.293.88l.393 5.954-1.81-.986-.568-5.698 1.011.493c.025.012.297.13.974.237zM5.3 24.835l1.111.541 1.154 5.771-1.08-.589-1.185-5.723zm36.82.276c-.023-.09-.263-.886-1.62-1.234-1.15-.293-8.373-3.357-8.475-3.399-.079-.026-1.967-.627-4.977-.443-2.944.18-21.995 1.81-22.187 1.826h-.012C4.292 21.929 3 22.168 3 22.95c0 .754.872 1.19.968 1.237l.512.25 1.332 6.432a.358.358 0 0 0 .18.243l7.493 4.083c.066.032 1.592.77 3.282.77.068 0 .135-.002.203-.004 1.691-.061 18.022-1.637 18.717-1.704a.356.356 0 0 0 .163-.058l2.124-1.4a.358.358 0 0 0 .141-.176l2.209-6.08.119-.01c1.557-.14 1.687-.447 1.687-.723v-.61c0-.03-.004-.06-.01-.088zm-2.77-.49c-.065-.026-6.555-2.5-7.897-3.04-1.407-.566-3.525-.562-3.645-.572-6.6.494-21.98 1.651-22.236 1.712a.356.356 0 0 0-.264.417c.035.19.22.313.41.288.457-.066 14.684-1.14 22.118-1.698.007 0 .324.002.782.033a.36.36 0 0 0-.248.294l-.528 4.156a.362.362 0 0 0 .359.406.361.361 0 0 0 .357-.315l.527-4.156a.359.359 0 0 0-.196-.364c.699.061 1.607.19 2.296.467 1.347.543 7.843 3.02 7.908 3.044a.362.362 0 0 0 .466-.208.36.36 0 0 0-.209-.465"/>
    </g>
</svg>
