<?xml version="1.0" encoding="utf-8"?>
<!-- Generator: Adobe Illustrator 22.0.1, SVG Export Plug-In . SVG Version: 6.00 Build 0)  -->
<svg version="1.1" id="Layer_1" xmlns="http://www.w3.org/2000/svg" xmlns:xlink="http://www.w3.org/1999/xlink" x="0px" y="0px"
	 viewBox="0 0 19 25" style="enable-background:new 0 0 19 25;" xml:space="preserve">
<style type="text/css">
	.st0{fill:#2C6FA6;}
</style>
<title>Icon-Devis</title>
<desc>Created with Sketch.</desc>
<g>
	<path class="st0" d="M10.9,19.5c-1.3,0-2.2-0.9-2.7-2.3h2.1l0.4-1H8.1c0-0.2,0-0.3,0-0.4c0-0.1,0-0.2,0-0.3h3l0.4-1H8.2
		c0.3-1.4,1.2-2.3,2.5-2.3c0.8,0,1.3,0.2,1.9,0.7l0.7-1.4c-0.9-0.6-1.7-0.9-2.7-0.9c-2.1,0-3.8,1.6-4.4,3.9H5.4l-0.4,1h1.2
		c0,0.2,0,0.3,0,0.5v0.3H5.3l-0.4,1h1.4c0.5,2.4,2.3,4,4.4,4c1,0,1.9-0.4,2.8-1l-0.6-1.3C12.3,19.3,11.6,19.5,10.9,19.5z"/>
	<path class="st0" d="M15.5,4V2.3h-3C12.2,1,10.9,0,9.5,0c-1.4,0-2.7,1-3,2.3h-3V4H0v21h19V4H15.5z M5.2,4h2.9V3.1
		c0-0.8,0.6-1.4,1.4-1.4s1.4,0.6,1.4,1.4V4h2.9v1.7H5.2V4z M17.3,23.3H1.7V5.7h1.7v1.7h12.1V5.7h1.7V23.3z"/>
</g>
</svg>
