<svg xmlns="http://www.w3.org/2000/svg" xmlns:xlink="http://www.w3.org/1999/xlink" width="31" height="23" viewBox="0 0 31 23">
    <defs>
        <path id="a" d="M15.322 23h15.321V.183H0V23z"/>
    </defs>
    <g fill="none" fill-rule="evenodd">
        <g>
            <mask id="b" fill="#fff">
                <use xlink:href="#a"/>
            </mask>
            <path fill="#007BC3" d="M.886 6.126L.653 6c-.002.003-.073.123-.146.272a2.677 2.677 0 0 0-.104.237c-.03.083-.057.158-.059.263h.09L.35 6.74l-.006.033h.09L.35 6.74l-.045.064c-.09.115-.305.345-.305.704l.003.074c.01.126.014.41.014.721 0 .623-.015 1.37-.015 1.372l.268.005-.267-.021v.029c-.004.102.045.387.37.694.323.31.904.65 1.98.946l.072-.248-.267.017.514 7.288.207 2.17.002.011c.002.01.09.452.292.94.102.245.233.502.405.725.173.222.392.42.685.507.871.256 1.165.263 1.207.263h20.184c.022-.001.625.001 1.275-.284.324-.143.662-.361.929-.695.267-.332.456-.779.492-1.344.138-2.09.48-9.873.48-9.875l-.268-.01.088.243c.012-.004.404-.134.828-.4.212-.133.433-.3.617-.51.183-.21.332-.467.375-.77V9.35v.004c.036-.263.063-.709.086-1.246.068-1.607.087-3.99.087-3.99l-.268-.002.268.01V4.09c0-.087-.007-.306-.085-.557-.08-.248-.238-.544-.568-.719l-.128.227h.268c0-.017 0-.436-.178-.921a2.22 2.22 0 0 0-.438-.734 1.842 1.842 0 0 0-.878-.531c-1.33-.366-3.153-.619-4.548-.656-.466-.012-2.294-.015-4.536-.015-4.48 0-10.593.015-10.593.015h-.01c-.006 0-1.184.046-2.472.237-.644.095-1.316.227-1.89.413-.286.093-.55.2-.775.326-.226.128-.418.276-.55.468a46.658 46.658 0 0 1-1.517 2.033 92.37 92.37 0 0 1-.66.839l-.274.342-.007.009-.006.01c-.024.033-.206.328-.205.889 0 .12.008.252.027.396l.266-.034L.653 6l.233.126.266-.033a2.411 2.411 0 0 1-.024-.33c0-.226.036-.386.069-.487a.756.756 0 0 1 .042-.105l.01-.02.001-.001-.13-.076.128.08.002-.004-.13-.076.128.08-.225-.14.211.158c.003-.003 1.677-2.081 2.475-3.246a1.11 1.11 0 0 1 .373-.306c.318-.18.79-.336 1.313-.458.784-.185 1.682-.298 2.38-.363A26.295 26.295 0 0 1 8.97.714L8.96.456v.258L9.985.712c1.93-.005 6.207-.014 9.567-.014 2.238 0 4.075.004 4.521.016 1.341.034 3.146.285 4.415.636.275.076.47.21.625.377.23.249.357.58.419.85.031.136.047.254.054.338l.007.096.001.024v.158l.14.073c.157.082.254.24.311.417.056.174.063.352.063.406V4.115c0 .002-.01 1.057-.035 2.234-.013.59-.03 1.208-.052 1.739-.022.529-.05.975-.082 1.197a.993.993 0 0 1-.254.508c-.205.235-.511.431-.765.56a3.87 3.87 0 0 1-.322.148l-.094.036-.03.01-.172.058-.008.176-.055 1.248c-.103 2.287-.32 7.06-.423 8.615-.032.475-.181.81-.382 1.063-.3.377-.742.576-1.119.677a3.12 3.12 0 0 1-.617.099l-.035.001H5.47v.148l.005-.148H5.47v.148l.005-.148s-.066-.002-.231-.033a8.674 8.674 0 0 1-.825-.207c-.135-.038-.279-.15-.411-.322-.199-.255-.356-.624-.456-.925a5.328 5.328 0 0 1-.11-.38c-.013-.048-.021-.086-.027-.111l-.008-.037-.263.048.267-.024-.206-2.15-.525-7.463-.182-.05c-1.02-.279-1.517-.592-1.747-.815A.794.794 0 0 1 .56 9.76l-.02-.061-.002-.013H.532h.006-.006.006-.172l.17.015.002-.014H.366l.17.014.002-.009v-.008c0-.001.015-.751.015-1.382 0-.317-.003-.598-.016-.76l-.001-.035c0-.12.046-.198.12-.298.037-.049.08-.098.125-.16a.484.484 0 0 0 .099-.277H.878.88.878.88a1.41 1.41 0 0 1 .123-.304c.03-.06.06-.114.081-.153l.035-.062.044-.075-.011-.085-.266.033z" mask="url(#b)"/>
        </g>
        <path fill="#007BC3" d="M3 11.536c.004 0 2.504.404 4.132.446.543.014 2.551.018 4.994.018 4.885 0 11.496-.018 11.496-.018h.015s.944-.102 1.957-.234c.506-.065 1.03-.14 1.464-.211.217-.037.411-.073.57-.108a2.16 2.16 0 0 0 .372-.107L27.878 11a2 2 0 0 1-.314.088c-.532.118-1.527.255-2.382.362-.856.108-1.575.185-1.577.185l.017.173v-.174c-.002 0-.414 0-1.11.003-2.088.005-6.723.015-10.386.015-2.441 0-4.454-.005-4.986-.018-.795-.02-1.821-.131-2.645-.237-.824-.106-1.446-.206-1.448-.206L3 11.536zM1.897 4.85l-.686 1.135.135.096-.11-.128c-.009.015-.228.217-.236.558a.71.71 0 0 0 .227.508c.158.156.398.29.76.406.726.23 1.793.37 2.687.458C5.566 7.969 6.28 8 6.282 8h16.585c.008-.001 2.48.003 4.167-.576.836-.289 1.277-.558 1.527-.823.254-.262.287-.544.3-.702l.001-.003V5.9c.036-.336.138-1.871.138-1.874L28.679 4l-.056.81c-.03.425-.065.894-.081 1.049-.02.166-.022.289-.206.493-.188.201-.587.46-1.399.739-.803.277-1.824.419-2.641.49-.409.035-.767.052-1.022.06-.255.01-.406.01-.407.01H6.288v.174l.007-.175s-.177-.007-.464-.025c-.861-.054-2.73-.21-3.754-.535-.333-.105-.529-.226-.632-.329-.103-.105-.12-.18-.123-.25 0-.072.03-.15.067-.211l.049-.07.015-.018.003-.003-.017-.02.017.02-.017-.02.017.02.014-.015.697-1.152-.27-.192zM2 8.291c.007.001 2.58.67 4.425.708.604.012 1.22.015 1.772.015 1.105 0 1.957-.015 1.957-.015l-.003-.151-.162.017c.001.007.062.516.294 1.04.116.261.275.527.501.736a1.3 1.3 0 0 0 .898.357H18.223v-.151l-.027.149.063.004c.123.002.408-.046.696-.335.287-.29.582-.808.785-1.753l-.16-.03v.152h4.457c.003 0 .971-.018 2.07-.12.55-.05 1.132-.122 1.646-.224.514-.103.956-.231 1.247-.421l-.19-.246c-.214.144-.632.275-1.126.371-.742.149-1.659.233-2.386.28a32.651 32.651 0 0 1-1.267.058l.003.15v-.15h-4.588l-.026.121c-.196.912-.476 1.377-.706 1.606-.23.229-.406.237-.455.239h-.012l-.004.042.008-.042h-.004l-.004.042.008-.042-.014-.002h-6.555a.956.956 0 0 1-.667-.27c-.273-.248-.457-.65-.562-.988a4.124 4.124 0 0 1-.133-.562l-.007-.045-.016-.137-.149.003c-.002 0-.85.015-1.95.015-.551 0-1.165-.004-1.766-.015-.886-.017-1.976-.19-2.84-.361A31.293 31.293 0 0 1 2.087 8L2 8.291zM5.088 1.662s.135-.027.376-.068c.723-.124 2.385-.37 4.053-.37h15.128v-.112l-.015.112s.245.016.618.05c.558.05 1.404.139 2.123.27.36.066.687.142.927.225.242.082.378.177.393.231L29 1.94c-.047-.114-.165-.198-.311-.27-.26-.126-.632-.223-1.054-.308-1.263-.25-2.97-.36-2.975-.362H9.517c-2.282 0-4.51.445-4.517.446l.088.216z"/>
        <path fill="#007BC3" d="M1 8.255c.019.02 1.2 1.214 3.897 1.5A47.604 47.604 0 0 0 10 9.998l-.005-.348s-.118.002-.33.002c-.75 0-2.674-.024-4.738-.244-1.31-.139-2.243-.496-2.846-.816a4.74 4.74 0 0 1-.662-.42 2.66 2.66 0 0 1-.157-.129l-.037-.034L1.215 8 1 8.255zM19.012 10l6.616-.246h.004c.005 0 .832-.073 1.788-.294.956-.226 2.037-.581 2.58-1.232L29.745 8c-.423.528-1.468.907-2.398 1.118a14.185 14.185 0 0 1-1.742.286l.014.175-.006-.176L19 9.65l.012.351z"/>
    </g>
</svg>
