<svg xmlns="http://www.w3.org/2000/svg" width="32" height="31" viewBox="0 0 32 31">
    <path fill="#0073BA" fill-rule="evenodd" d="M31.357 5.823a3.316 3.316 0 0 1-.738.75c-.56.428-1.337.833-2.293 1.196-1.434.544-3.266.994-5.365 1.306-2.098.313-4.463.489-6.964.489-2.178 0-4.253-.134-6.138-.375a34.017 34.017 0 0 1-3.887-.712C4.225 8.042 2.8 7.495 1.824 6.883c-.488-.306-.862-.627-1.11-.952a1.935 1.935 0 0 1-.278-.487 1.37 1.37 0 0 1-.092-.489c0-.29.096-.578.292-.867.17-.253.419-.505.738-.75.56-.428 1.338-.833 2.293-1.196 1.434-.544 3.266-.994 5.365-1.306 2.099-.313 4.463-.489 6.965-.489 2.178 0 4.252.134 6.138.374a34.02 34.02 0 0 1 3.886.713c1.747.435 3.173.982 4.148 1.594.488.306.863.627 1.11.952.124.162.217.325.278.487.062.162.093.324.093.488 0 .292-.097.579-.293.868m-2.403 2.924c-.056.466-.6 4.932-1.132 9.28l-1.045 8.559a3.082 3.082 0 0 1-.386.64c-.433.577-1.293 1.434-2.912 2.15-1.616.716-3.992 1.29-7.454 1.292-2.331-.001-4.17-.263-5.616-.652-2.173-.585-3.458-1.458-4.2-2.177a4.816 4.816 0 0 1-.75-.911 2.822 2.822 0 0 1-.18-.338l-.001-.004-1.045-8.56c-.53-4.347-1.076-8.813-1.131-9.279-.048-.4-.16-.718-.277-.954.228.101.468.2.72.295 1.465.557 3.319 1.01 5.436 1.325 2.117.316 4.498.493 7.016.493 2.192 0 4.28-.134 6.181-.377a34.354 34.354 0 0 0 3.926-.72c1.193-.297 2.242-.646 3.113-1.038a3.332 3.332 0 0 0-.263.976m2.688-4.85a3.654 3.654 0 0 0-.813-.83c-.598-.457-1.403-.873-2.38-1.244-1.466-.557-3.32-1.01-5.437-1.326-2.117-.315-4.498-.492-7.015-.492-2.192 0-4.28.134-6.182.377a34.364 34.364 0 0 0-3.926.72c-1.77.441-3.224.995-4.248 1.637-.512.321-.918.664-1.2 1.034a2.276 2.276 0 0 0-.327.573 1.712 1.712 0 0 0-.114.61c0 .368.125.725.35 1.058.199.292.473.568.815.83.304.233.663.455 1.071.666.009.009.115.114.232.321.12.211.25.527.302.956.112.934 2.18 17.86 2.18 17.86l.001.018.007.018c.004.013.106.29.407.7.45.613 1.346 1.52 3.016 2.271 1.667.75 4.102 1.343 7.634 1.346h.025c2.352-.002 4.217-.266 5.694-.663 2.222-.598 3.562-1.5 4.346-2.26.784-.76 1.01-1.375 1.018-1.394l.006-.018.002-.018 2.18-17.86c.053-.446.176-.771.285-.984a1.866 1.866 0 0 1 .182-.288c0-.002.002-.003.003-.004.212-.11.412-.223.597-.339.512-.321.918-.664 1.2-1.034.141-.184.251-.376.326-.573.075-.198.114-.402.114-.61 0-.368-.125-.725-.35-1.058m-2.044 1.438a1.457 1.457 0 0 1-.273.434c-.345-.29-1.393-1.093-3.25-1.896-2.315-1-5.886-1.998-10.914-1.998S6.77 2.91 4.66 3.95c-1.672.825-2.553 1.65-2.85 1.961a2.104 2.104 0 0 1-.215-.237 1.352 1.352 0 0 1-.194-.34A.935.935 0 0 1 1.338 5c0-.112.02-.222.063-.335.08-.21.237-.425.475-.639.415-.374 1.073-.738 1.924-1.064 1.277-.49 2.99-.899 4.989-1.184 1.999-.285 4.284-.447 6.711-.447 3.945 0 7.516.428 10.09 1.117 1.285.344 2.322.754 3.023 1.198.351.222.618.452.792.68.087.114.151.228.194.34a.937.937 0 0 1 .063.334.936.936 0 0 1-.063.335m-.614.755c-.325-.279-1.303-1.04-3.083-1.8-2.229-.952-5.713-1.901-10.74-1.901s-8.321.966-10.36 1.937c-1.6.76-2.427 1.524-2.713 1.822a3.394 3.394 0 0 1-.141-.112c.288-.302 1.166-1.125 2.846-1.946 2.085-1.018 5.405-2.032 10.368-2.032 5.003 0 8.546.993 10.837 1.983a15.36 15.36 0 0 1 2.525 1.36 8.937 8.937 0 0 1 .674.503 2.62 2.62 0 0 1-.213.186m-.323.233c-.3-.255-1.213-.952-2.929-1.648-2.145-.87-5.545-1.737-10.57-1.737-5.027 0-8.235.882-10.189 1.769C3.44 5.403 2.68 6.1 2.42 6.374l-.033-.02a4.634 4.634 0 0 1-.146-.096c.287-.296 1.101-1.037 2.666-1.778 2.014-.954 5.272-1.907 10.255-1.908 5.003 0 8.46.945 10.665 1.886 1.102.47 1.892.941 2.405 1.293a7.817 7.817 0 0 1 .602.454 4.41 4.41 0 0 1-.172.118m-6.45 1.9c-2 .284-4.285.447-6.712.446-3.945 0-7.516-.428-10.09-1.117-1.17-.313-2.134-.681-2.827-1.08.275-.282 1.043-.966 2.573-1.645 1.935-.858 5.09-1.705 10.006-1.705 5.004 0 8.378.863 10.5 1.723 1.06.43 1.807.86 2.289 1.18.24.16.414.294.528.386l.017.015c-.358.213-.793.419-1.296.612-1.277.49-2.99.899-4.989 1.184m7.141-4.439c-.465-.417-1.154-.792-2.029-1.128-1.312-.504-3.046-.916-5.063-1.204C20.243 1.163 17.942 1 15.5 1c-3.97 0-7.564.43-10.178 1.129-1.308.35-2.37.766-3.119 1.24-.374.237-.67.488-.878.76a1.679 1.679 0 0 0-.24.421A1.26 1.26 0 0 0 1 5c0 .153.03.304.085.45.104.273.297.528.563.767.465.417 1.154.792 2.029 1.128 1.312.504 3.046.916 5.063 1.204 2.017.288 4.318.451 6.76.451 3.97 0 7.564-.43 10.178-1.129 1.308-.35 2.37-.766 3.119-1.24.374-.236.67-.488.878-.76a1.68 1.68 0 0 0 .24-.421A1.26 1.26 0 0 0 30 5c0-.153-.03-.304-.085-.45-.104-.273-.297-.528-.563-.767"/>
</svg>
