<svg xmlns="http://www.w3.org/2000/svg" width="115" height="115" viewBox="0 0 115 115">
    <g fill="none" fill-rule="evenodd">
        <path d="M0 0h115v115H0z"/>
        <path fill="#D5E2ED" d="M19.818 19.414v88.759h85.843v-89.16z"/>
        <path fill="#14486E" stroke="#14486E" stroke-width=".3" d="M90.28 11.746H52.298a1.58 1.58 0 0 0-1.574 1.585v6.332c0 .882.702 1.585 1.574 1.585H90.28c.872 0 1.574-.703 1.574-1.585V13.33a1.58 1.58 0 0 0-1.574-1.585zm-36.398 6.341h34.813v-3.17H53.882v3.17zm33.23 15.834H17.494c-.874 0-1.584.702-1.584 1.575v55.417c0 .882.71 1.585 1.584 1.585h69.616c.872 0 1.584-.703 1.584-1.585V35.496a1.58 1.58 0 0 0-1.584-1.575zm-1.585 3.16v20.59h-3.159v-6.342c0-2.937-2.025-5.395-4.752-6.107v-3.385H79.2c.872 0 1.584-.712 1.584-1.585 0-.875-.712-1.585-1.584-1.585h-6.327a1.586 1.586 0 0 0 0 3.17h1.584v3.385c-2.727.712-4.752 3.17-4.752 6.107v6.342h-3.159v-6.342c0-2.937-2.025-5.395-4.752-6.107v-3.385h1.584c.872 0 1.584-.712 1.584-1.585 0-.875-.712-1.585-1.584-1.585H57.05a1.586 1.586 0 0 0 0 3.17h1.584v3.385c-2.727.712-4.753 3.17-4.753 6.107v6.342h-3.158v-6.342c0-2.937-2.025-5.395-4.753-6.107v-3.385h1.585c.872 0 1.584-.712 1.584-1.585 0-.875-.712-1.585-1.584-1.585h-6.327a1.586 1.586 0 0 0 0 3.17h1.584v3.385c-2.728.712-4.753 3.17-4.753 6.107v6.342h-3.158v-6.342c0-2.937-2.026-5.395-4.753-6.107v-3.385h1.584c.873 0 1.585-.712 1.585-1.585 0-.875-.712-1.585-1.585-1.585h-6.327a1.586 1.586 0 0 0 0 3.17h1.585v3.385c-2.728.712-4.753 3.17-4.753 6.107v6.342H19.08V37.08h66.447zM76.032 48.17a3.172 3.172 0 0 1 3.168 3.16v6.342h-6.327v-6.342a3.17 3.17 0 0 1 3.159-3.16zm-15.823 0a3.172 3.172 0 0 1 3.169 3.16v6.342H57.05v-6.342a3.17 3.17 0 0 1 3.158-3.16zm-15.822 0a3.172 3.172 0 0 1 3.169 3.16v6.342h-6.327v-6.342a3.17 3.17 0 0 1 3.158-3.16zm-15.822 0a3.172 3.172 0 0 1 3.168 3.16v6.342h-6.327v-6.342a3.17 3.17 0 0 1 3.159-3.16zm3.455 20.316c.2.077.386.17.58.255.284.133.577.271.856.418.162.085.316.17.479.263.356.202.704.41 1.044.633.07.048.138.085.208.133a17.638 17.638 0 0 1 4.086 3.919c.055.077.116.146.17.225.255.355.502.71.728 1.08l.176.28c.21.364.409.726.603 1.098l.17.355c.17.364.324.72.47 1.09.064.147.117.303.17.457.125.347.248.687.349 1.043.053.202.1.402.154.604.077.317.162.625.225.95v.016c.054.279.084.556.131.843.032.2.061.402.085.602l.024.225c.045.533.085 1.067.085 1.607 0 .705-.071 1.415-.162 2.12a6.857 6.857 0 0 1-.056.424 16.347 16.347 0 0 1-.455 2.064c-.015.047-.031.093-.047.148h-3.299c.542-1.524.85-3.13.85-4.756 0-7.855-6.388-14.248-14.238-14.248-2.24 0-4.38.519-6.326 1.5V68.37a17.18 17.18 0 0 1 12.94.115zm4.86-.982c-.048-.022-.08-.053-.117-.085.957-.17 1.916-.255 2.881-.255 2.342 0 4.573.473 6.614 1.322.2.077.386.17.58.255.284.133.58.271.856.418.162.085.316.17.479.263.356.202.704.41 1.044.633.07.048.138.085.208.133a17.574 17.574 0 0 1 4.088 3.919c.06.077.114.146.17.225.255.355.502.71.733 1.08l.17.28c.208.364.418.726.602 1.098l.17.355c.17.364.332.72.48 1.09.054.147.107.303.163.457.122.347.247.687.346 1.043.063.202.109.402.154.604.077.317.162.625.226.95v.016c.053.279.092.556.13.843.032.2.061.402.085.602l.024.225c.045.533.085 1.067.085 1.607 0 .705-.061 1.415-.154 2.12-.024.146-.04.285-.064.424a16.347 16.347 0 0 1-.455 2.064c-.007.047-.031.093-.045.148h-3.299c.54-1.524.848-3.13.848-4.756 0-7.653-6.055-13.891-13.626-14.216-.04-.04-.085-.077-.125-.117a15.631 15.631 0 0 0-.64-.617c-.31-.295-.62-.596-.952-.875a23.963 23.963 0 0 0-1.66-1.253zm14.238 0c-.04-.022-.078-.053-.117-.085.96-.17 1.916-.255 2.881-.255 2.35 0 4.575.473 6.622 1.322.194.077.386.17.572.255a16.407 16.407 0 0 1 1.337.68c.354.203.702.41 1.042.634.07.048.138.085.21.133a17.626 17.626 0 0 1 3.235 2.876c.303.34.588.688.85 1.043a16.221 16.221 0 0 1 .904 1.306l.17.279c.216.364.418.726.604 1.098.061.115.115.24.17.355.168.364.33.72.479 1.09.053.147.106.303.162.457.13.347.247.687.348 1.043.061.202.107.402.154.604.085.317.162.625.224.95v.016c.053.279.092.556.13.843.032.2.063.402.085.602.008.077.024.148.024.225.053.533.085 1.067.085 1.607 0 .705-.061 1.415-.154 2.12-.024.146-.04.285-.062.424a17.826 17.826 0 0 1-.449 2.064c-.015.047-.037.093-.045.148h-3.307c.54-1.524.848-3.13.848-4.756 0-7.653-6.055-13.891-13.626-14.216-.04-.04-.078-.077-.125-.117-.2-.216-.417-.417-.633-.617-.316-.295-.625-.596-.957-.875a24.484 24.484 0 0 0-1.661-1.253zM19.08 89.337v-13.84a10.86 10.86 0 0 1 6.326-1.993c6.104 0 11.07 4.97 11.07 11.077 0 1.647-.37 3.272-1.074 4.756H19.08zm26.304 0c.032-.116.04-.241.063-.356.13-.556.24-1.122.317-1.678.021-.2.053-.402.077-.596.077-.71.13-1.413.13-2.126 0-.617-.037-1.229-.093-1.838a9.489 9.489 0 0 0-.053-.527V82.2a3.9 3.9 0 0 1-.032-.316c-.053-.394-.122-.79-.2-1.184-.039-.192-.077-.386-.124-.58-.014-.085-.038-.17-.061-.263-.046-.216-.101-.44-.155-.657-.04-.123-.077-.247-.116-.378-.07-.247-.155-.495-.232-.742a11.292 11.292 0 0 0-.193-.548 14.31 14.31 0 0 0-.301-.79c-.101-.255-.224-.503-.34-.75-.115-.248-.224-.503-.348-.75-.192-.37-.402-.735-.61-1.089-.023-.04-.04-.077-.06-.117 4.441 1.44 7.671 5.621 7.671 10.545 0 1.647-.372 3.272-1.082 4.756h-4.258zm14.24 0c.03-.116.038-.241.07-.356.122-.556.23-1.122.308-1.678.031-.2.053-.402.077-.596.077-.71.13-1.413.13-2.126a21.036 21.036 0 0 0-.146-2.365V82.2c-.008-.1-.016-.207-.03-.316a22.408 22.408 0 0 0-.324-1.764c-.016-.085-.04-.17-.063-.263-.046-.216-.101-.44-.155-.657-.037-.123-.077-.247-.114-.378a15.28 15.28 0 0 0-.234-.742 13.85 13.85 0 0 0-.191-.548 16.137 16.137 0 0 0-.303-.79c-.099-.255-.224-.503-.338-.75-.117-.248-.226-.503-.348-.75-.194-.37-.396-.735-.612-1.089-.023-.04-.037-.077-.06-.117 4.441 1.44 7.671 5.621 7.671 10.545 0 1.647-.372 3.272-1.082 4.756h-4.256zm14.238 0c.03-.116.038-.241.07-.356.122-.556.23-1.122.308-1.678.031-.2.061-.402.077-.596.085-.71.14-1.413.14-2.126 0-.617-.04-1.229-.093-1.838-.023-.178-.04-.349-.055-.527l-.008-.016a3.703 3.703 0 0 0-.03-.316c-.055-.394-.124-.79-.201-1.184-.03-.192-.077-.386-.115-.58-.024-.085-.048-.17-.063-.263-.054-.216-.1-.44-.163-.657-.03-.123-.077-.247-.114-.378a13.34 13.34 0 0 0-.232-.742l-.186-.548c-.1-.264-.193-.527-.302-.79-.107-.255-.232-.503-.346-.75-.117-.248-.226-.503-.348-.75-.194-.37-.394-.735-.611-1.089-.022-.04-.038-.077-.062-.117 4.45 1.44 7.672 5.621 7.672 10.545 0 1.647-.372 3.272-1.082 4.756h-4.256zm10.97 0H81.51c.548-1.524.858-3.13.858-4.756 0-7.653-6.065-13.891-13.636-14.216-.038-.04-.078-.077-.117-.117a14.457 14.457 0 0 0-.64-.617c-.317-.295-.626-.596-.958-.875a22.656 22.656 0 0 0-1.661-1.253c-.04-.022-.078-.053-.117-.085.96-.17 1.924-.255 2.881-.255 9.605 0 17.407 7.817 17.407 17.418 0 1.57-.231 3.163-.694 4.756zM68.12 64.002c-2.379 0-4.758.455-7.068 1.314a20.407 20.407 0 0 0-7.17-1.314c-2.379 0-4.758.455-7.068 1.314a20.449 20.449 0 0 0-7.17-1.314c-2.387 0-4.758.455-7.068 1.314a20.482 20.482 0 0 0-7.17-1.314c-2.163 0-4.28.348-6.326 1.011v-4.182h66.447v12.835c-3.64-5.79-10.075-9.664-17.407-9.664zM22.238 11.746h-6.327c-.872 0-1.584.713-1.584 1.585v6.332c0 .882.712 1.585 1.584 1.585h6.327a1.58 1.58 0 0 0 1.584-1.585V13.33c0-.872-.71-1.585-1.584-1.585zm-4.743 6.341h3.159v-3.17h-3.159v3.17zm15.823-6.341H26.99c-.882 0-1.585.713-1.585 1.585v6.332c0 .882.703 1.585 1.585 1.585h6.327c.872 0 1.584-.703 1.584-1.585V13.33c0-.872-.712-1.585-1.584-1.585zm-4.753 6.341h3.168v-3.17h-3.168v3.17zM95.022 7H9.584C8.71 7 8 7.71 8 8.585V98.83c0 .883.71 1.586 1.584 1.586h85.438c.872 0 1.584-.703 1.584-1.586V8.585c0-.874-.712-1.585-1.584-1.585zM11.168 22.833h82.27V10.171h-82.27v12.662zm0 74.421h82.27v-71.25h-82.27v71.25z"/>
    </g>
</svg>
