<svg xmlns="http://www.w3.org/2000/svg" width="46" height="46" viewBox="0 0 46 46">
    <g fill="none" fill-rule="evenodd">
        <path d="M0 0h46v46H0z"/>
        <path fill="#007BC3" d="M39.682 22.705c0 .05-.04 5.058-.194 6.185-.101.744-1.119 1.29-1.6 1.479a.592.592 0 0 0-.374.068.918.918 0 0 0-.33.347c-.538.204-3.707.55-4.878.668-.171 0-17.122.04-18.952 0-1.82-.043-4.677-.466-4.706-.47l-.055.365c.03.005 2.91.432 4.753.475.612.014 2.913.019 5.713.019 5.58 0 13.14-.019 13.266-.02.395-.04 3.51-.352 4.668-.605-.123.386-.206.903-.248 1.56-.136 2.165-2.393 2.2-2.49 2.2H11.01c-.002 0-.316-.012-1.215-.286-.657-.2-1.072-1.637-1.165-2.117l-.261-1.559-.42-.245-.07-.03c-2.199-.626-2.259-1.363-2.259-1.372.002-.083.038-2.039 0-2.562-.016-.201.08-.327.191-.471.095-.124.203-.264.203-.446.006-.085.136-.377.276-.625l.05-.09-.014-.102c-.096-.735.1-1.102.098-1.102h-.001c.046-.06 1.955-2.524 2.85-3.883.597-.904 4.035-1.369 6.05-1.45.158 0 15.857-.042 17.41 0 1.606.044 3.65.35 5.084.761 1.253.359 1.275 1.954 1.275 2.022l.001.183.16.088c.451.246.43.998.43 1.015m.018-1.459c-.04-.517-.279-2.03-1.713-2.443-1.48-.423-3.585-.738-5.239-.783-1.563-.044-16.781-.002-17.44 0-.568.022-5.585.262-6.55 1.726-.89 1.349-2.805 3.82-2.84 3.867-.033.052-.313.518-.216 1.436-.12.22-.305.598-.3.794-.009.02-.05.075-.08.115-.132.17-.352.457-.318.893.036.495-.001 2.485 0 2.485-.017.199.035 1.226 2.667 1.985l.136.08.214 1.28c.044.23.462 2.255 1.593 2.6.98.298 1.33.313 1.39.313h23.252c1.014 0 2.967-.58 3.106-2.78.093-1.469.369-1.774.436-1.827l.074.042.131-.045c.079-.028 1.915-.68 2.097-2.01.157-1.167.198-6.057.2-6.254.001-.043.032-.995-.6-1.474M7.741 25.417c1.62.474 4.797.604 4.939.609h19.035c.117 0 2.888-.007 4.785-.61 1.834-.583 2.04-1.112 2.098-1.614.04-.344.154-1.917.16-1.983l-.37-.027c-.001.016-.119 1.631-.16 1.978-.032.292-.082.734-1.84 1.294-1.842.585-4.645.592-4.673.592H12.687c-.032-.001-3.266-.133-4.842-.594-.504-.147-.809-.341-.859-.548-.048-.196.145-.383.174-.418l.788-1.202-.31-.203-.76 1.168c-.013.014-.349.333-.252.74.084.351.459.627 1.115.818m30.11 1.604l-.214-.3c-1.083.773-5.37.866-5.41.866H27.03l-.029.15c-.462 2.32-1.321 2.261-1.356 2.253h-7.408c-1.275 0-1.548-2.258-1.55-2.28l-.02-.168-.168.003c-.021 0-2.188.043-4.21 0-2.001-.042-4.89-.844-4.919-.853l-.1.357c.12.033 2.963.823 5.012.866 1.707.034 3.517.011 4.061.002.096.58.51 2.443 1.893 2.444 1.455 0 7.379 0 7.379-.003a.515.515 0 0 0 .083.006c.287 0 1.16-.191 1.635-2.406h4.897c.182-.004 4.446-.097 5.622-.937m-21.743-7.65H33.55c1.845.172 4.52.685 4.686 1.282l.357-.1c-.296-1.056-4.225-1.477-5.026-1.552H16.109c-2.598 0-5.188.73-5.214.737l.102.356c.025-.007 2.567-.723 5.112-.723m-5.815 9.248c-3.003-.29-4.332-1.485-4.346-1.498l-.252.272c.057.053 1.423 1.291 4.562 1.595 2.441.234 4.736.26 5.605.26.23 0 .36-.002.367-.002l-.006-.37c-.028.001-2.863.038-5.93-.257m24.37 0l-7.29.26.013.369 7.299-.26c.151-.013 3.714-.322 4.816-1.61l-.282-.24c-1.003 1.172-4.53 1.478-4.556 1.48"/>
    </g>
</svg>
