<svg xmlns="http://www.w3.org/2000/svg" width="46" height="46" viewBox="0 0 46 46">
    <g fill="none" fill-rule="evenodd">
        <path d="M0 0h46v46H0z"/>
        <path fill="#007BC3" d="M39.682 20.705c0 .05-.04 5.058-.194 6.186-.107.793-1.254 1.358-1.686 1.51l-.17.058-.032.175c-.004.023-.4 2.152-.557 4.632-.137 2.166-2.396 2.2-2.491 2.2H11.306c-.003 0-.317-.011-1.215-.286-.657-.201-1.073-1.637-1.162-2.085L8.7 29.363c.527.075 2.999.42 4.646.458.613.014 2.913.02 5.713.02 5.58 0 13.14-.02 13.266-.02.446-.045 4.38-.44 5.017-.7l-.14-.343c-.496.203-3.715.555-4.896.673-.171 0-17.122.042-18.951 0-1.82-.042-4.678-.466-4.707-.47l-.005.035-.765-.277c-2.198-.626-2.259-1.364-2.259-1.373.002-.082.04-2.038 0-2.562-.016-.2.08-.326.192-.47.095-.124.202-.264.202-.446.007-.085.136-.377.275-.626l.051-.09-.013-.101c-.097-.735.1-1.103.096-1.103.047-.06 1.955-2.523 2.851-3.882.597-.905 4.034-1.37 6.049-1.45.158 0 15.856-.042 17.41 0 1.605.044 3.65.349 5.086.76 1.252.36 1.273 1.955 1.273 2.023l.002.183.16.087c.451.246.43.998.43 1.016m.018-1.459c-.04-.517-.279-2.031-1.713-2.443-1.482-.424-3.587-.74-5.24-.784-1.565-.042-16.781-.001-17.44.001-.568.022-5.584.262-6.55 1.726-.89 1.349-2.804 3.82-2.84 3.867-.033.052-.312.518-.216 1.435-.12.22-.305.599-.3.795a.975.975 0 0 1-.08.115c-.132.17-.352.457-.319.894.038.494 0 2.483 0 2.483-.016.2.036 1.237 2.685 1.99l.401.146.23 3.7c.043.23.46 2.253 1.592 2.6.979.298 1.33.314 1.39.314h23.251c1.014 0 2.968-.581 3.108-2.78.128-2.043.422-3.843.516-4.389.477-.198 1.774-.835 1.924-1.943.158-1.165.198-6.056.2-6.253.001-.043.033-.995-.6-1.474m-31.959 4.17c1.62.474 4.798.604 4.94.61h19.034c.117 0 2.888-.007 4.785-.61 1.832-.582 2.04-1.11 2.1-1.615.038-.344.152-1.916.157-1.983l-.37-.027a105.31 105.31 0 0 1-.157 1.979c-.034.293-.085.735-1.842 1.293-1.841.586-4.645.593-4.673.593H12.688c-.032-.002-3.267-.134-4.843-.594-.503-.147-.808-.342-.859-.548-.048-.196.145-.383.174-.418l.788-1.202-.309-.203-.76 1.169c-.014.013-.35.332-.253.738.084.352.46.627 1.115.819m30.112 1.605l-.215-.302c-1.084.774-5.37.867-5.41.868h-5.196l-.03.148c-.463 2.33-1.32 2.265-1.356 2.254h-7.408c-1.277 0-1.548-2.259-1.551-2.281l-.02-.168-.167.004c-.022 0-2.187.043-4.21 0-2.002-.042-4.89-.844-4.92-.852l-.1.356c.12.033 2.963.823 5.012.866 1.708.034 3.517.011 4.061.002.096.58.51 2.443 1.894 2.444l7.379-.003a.534.534 0 0 0 .083.006c.286 0 1.159-.192 1.635-2.406h4.897c.181-.004 4.446-.097 5.622-.936M16.109 17.37H33.55c1.845.173 4.52.685 4.686 1.281l.357-.099c-.297-1.056-4.225-1.477-5.026-1.552h-17.46c-2.596 0-5.186.73-5.212.737l.101.356c.025-.007 2.568-.723 5.112-.723m-5.815 9.248c-3.003-.29-4.332-1.486-4.346-1.497l-.251.27c.056.054 1.422 1.292 4.561 1.595 2.436.235 4.726.26 5.6.26l.372-.001-.006-.37c-.028 0-2.862.039-5.93-.257m24.37 0l-7.29.26.013.368 7.299-.26c.151-.012 3.715-.32 4.816-1.61l-.282-.24c-1.003 1.173-4.53 1.478-4.556 1.481"/>
    </g>
</svg>
