<svg xmlns="http://www.w3.org/2000/svg" width="46" height="46" viewBox="0 0 46 46">
    <g fill="none" fill-rule="evenodd">
        <path d="M0 0h46v46H0z"/>
        <path fill="#007BC3" d="M39.682 18.303c0 .05-.04 5.058-.194 6.185-.108.793-1.254 1.36-1.687 1.51l-.188.066-.018.199c-.003.044-.396 4.453-.552 6.92-.137 2.164-2.395 2.2-2.49 2.2H11.306c-.003 0-.317-.013-1.216-.286-.657-.201-1.073-1.638-1.162-2.096l-.239-2.594-.621-4.016-.19-.054c-2.2-.627-2.26-1.364-2.26-1.372.002-.083.04-2.04 0-2.562-.016-.202.08-.326.192-.471.095-.124.202-.264.202-.446.007-.085.136-.377.276-.626l.05-.09-.013-.101c-.096-.735.1-1.103.096-1.103.047-.06 1.955-2.524 2.851-3.882.596-.905 4.034-1.37 6.049-1.45.159 0 15.856-.042 17.41 0 1.606.044 3.65.35 5.085.76 1.253.36 1.275 1.955 1.275 2.023v.183l.161.087c.451.246.43.998.43 1.016m.018-1.459c-.04-.517-.28-2.031-1.714-2.443-1.48-.424-3.586-.74-5.239-.784-1.565-.043-16.78-.002-17.439.001-.569.022-5.585.262-6.55 1.726-.89 1.349-2.806 3.82-2.84 3.867-.033.052-.313.518-.217 1.435-.12.22-.305.599-.3.795a.975.975 0 0 1-.08.115c-.132.17-.351.457-.319.894.038.494 0 2.483 0 2.483-.016.195.033 1.186 2.516 1.941l.559 3.608.24 2.605c.044.23.462 2.254 1.593 2.6 1 .304 1.353.313 1.39.313h23.251c1.014 0 2.968-.58 3.107-2.779.136-2.166.457-5.84.534-6.714.49-.206 1.758-.84 1.907-1.936.158-1.165.198-6.056.2-6.253.001-.043.033-.995-.6-1.474M32.307 27.05c-.17.001-17.121.042-18.951 0-1.82-.042-4.677-.466-4.707-.47l-.053.366c.028.005 2.909.431 4.751.474.613.014 2.914.02 5.713.02 5.58 0 13.14-.02 13.266-.02.446-.044 4.38-.44 5.017-.7l-.14-.343c-.496.203-3.715.555-4.896.673M7.742 21.015c1.62.473 4.797.603 4.939.609h19.034c.117 0 2.888-.007 4.785-.61 1.831-.582 2.04-1.111 2.099-1.615.039-.344.152-1.916.158-1.983l-.37-.027c-.001.017-.117 1.632-.157 1.98-.034.292-.086.734-1.842 1.292-1.841.586-4.645.593-4.673.593H12.688c-.033-.002-3.267-.133-4.843-.594-.503-.148-.808-.342-.859-.548-.047-.196.145-.383.174-.418l.789-1.202-.31-.203-.76 1.168c-.014.014-.35.333-.253.739.084.352.459.627 1.116.819m19.289 2.17l-.03.15c-.461 2.318-1.322 2.258-1.355 2.253 0 0-5.95.002-7.409 0-1.275 0-1.548-2.258-1.55-2.281l-.02-.168-.167.004c-.022 0-2.188.043-4.21 0-2.002-.042-4.89-.844-4.92-.852l-.099.356c.12.034 2.962.823 5.011.866 1.708.036 3.517.01 4.061.002.096.58.51 2.442 1.894 2.443 1.455 0 7.378 0 7.378-.003a.518.518 0 0 0 .083.007c.287 0 1.16-.192 1.636-2.406h4.897c.18-.004 4.445-.097 5.62-.937l-.214-.3c-1.083.773-5.37.866-5.41.867h-5.196zM16.109 14.97H33.55c1.845.173 4.52.685 4.686 1.281l.356-.1c-.294-1.055-4.223-1.476-5.025-1.551H16.11c-2.597 0-5.187.73-5.213.737l.101.356c.026-.007 2.566-.723 5.112-.723m-.251 9.876c.234 0 .366-.002.372-.002l-.005-.37c-.028.004-2.863.04-5.93-.257-3.003-.29-4.333-1.484-4.346-1.497l-.252.272c.057.052 1.422 1.29 4.562 1.594 2.435.235 4.724.26 5.599.26m18.806-.63l-7.29.26.013.37 7.3-.26c.15-.012 3.714-.322 4.815-1.609l-.282-.24c-1.003 1.172-4.529 1.477-4.556 1.48"/>
    </g>
</svg>
