<svg xmlns="http://www.w3.org/2000/svg" width="46" height="46" viewBox="0 0 46 46">
    <g fill="none" fill-rule="evenodd">
        <path d="M0 0h46v46H0z"/>
        <path fill="#007BC3" d="M39.682 13.704c0 .05-.04 5.06-.194 6.186-.108.793-1.255 1.359-1.687 1.51l-.199.07-.008.209c-.004.093-.395 9.341-.552 11.8-.136 2.165-2.394 2.2-2.49 2.2H11.308c-.004 0-.317-.012-1.216-.287-.657-.2-1.073-1.637-1.162-2.094l-.236-2.57-.606-8.93-.209-.06c-2.198-.626-2.259-1.363-2.259-1.371.002-.083.039-2.039 0-2.563-.016-.2.08-.325.192-.47.095-.123.202-.264.202-.447.007-.084.135-.377.275-.624l.051-.09-.013-.102c-.096-.735.1-1.103.096-1.103.047-.06 1.955-2.524 2.85-3.882.597-.904 4.035-1.37 6.05-1.45.159 0 15.857-.043 17.409 0 1.606.043 3.65.349 5.085.76 1.253.36 1.274 1.955 1.274 2.023l.002.183.16.087c.451.247.43.999.43 1.015m.018-1.458c-.04-.518-.279-2.031-1.713-2.443-1.481-.424-3.586-.74-5.24-.784-1.562-.042-16.78-.001-17.438 0-.569.023-5.585.263-6.551 1.727-.89 1.348-2.805 3.82-2.84 3.867-.033.052-.312.518-.216 1.436-.119.22-.305.597-.3.794-.008.02-.05.075-.08.115-.132.17-.352.456-.319.893.038.495 0 2.484 0 2.485-.016.194.033 1.18 2.497 1.934l.577 8.508.241 2.606c.044.23.462 2.254 1.592 2.598.98.3 1.331.315 1.391.315h23.252c1.014 0 2.967-.581 3.105-2.78.144-2.261.485-10.241.544-11.612.496-.21 1.75-.845 1.898-1.932.157-1.165.198-6.057.2-6.254.001-.043.032-.994-.6-1.473m-7.394 10.205c-.17.002-17.122.042-18.951 0-1.82-.042-4.678-.466-4.707-.47l-.054.366c.029.004 2.91.432 4.752.475.613.013 2.912.018 5.712.018 5.579 0 13.14-.018 13.267-.02.446-.043 4.38-.44 5.016-.7l-.14-.342c-.496.203-3.714.556-4.895.673M7.742 16.417c1.62.473 4.796.604 4.939.609h19.035c.117 0 2.886-.007 4.784-.61 1.833-.583 2.041-1.112 2.098-1.614.04-.344.154-1.917.16-1.984l-.37-.027c-.001.017-.118 1.632-.159 1.979-.033.292-.083.734-1.841 1.293-1.842.586-4.644.593-4.672.593H12.688c-.033-.001-3.266-.134-4.842-.594-.504-.147-.809-.342-.86-.548-.047-.196.145-.383.175-.418l.788-1.202-.31-.203-.76 1.168c-.014.014-.35.333-.253.738.084.352.46.628 1.116.82m19.288 2.17l-.029.15c-.464 2.33-1.32 2.26-1.355 2.254h-7.41c-1.274-.002-1.547-2.26-1.549-2.282l-.02-.168-.167.004c-.022 0-2.188.042-4.21 0-2.002-.042-4.89-.844-4.92-.852l-.099.356c.12.034 2.962.823 5.011.866 1.708.035 3.517.01 4.061.002.096.58.51 2.442 1.894 2.444 1.454 0 7.378-.001 7.378-.003a.454.454 0 0 0 .083.006c.287 0 1.159-.191 1.635-2.407h4.898c.18-.003 4.445-.096 5.62-.936l-.214-.3c-1.084.773-5.37.866-5.41.866H27.03zM16.11 10.371H33.55c1.845.173 4.52.685 4.686 1.281l.357-.1c-.296-1.055-4.224-1.476-5.026-1.551H16.11c-2.597 0-5.187.73-5.213.737l.101.356c.025-.007 2.568-.723 5.112-.723m-.248 9.876l.369-.001-.006-.37c-.027 0-2.863.038-5.93-.257-3.002-.29-4.332-1.486-4.345-1.497l-.252.27c.057.053 1.422 1.292 4.561 1.595 2.44.235 4.732.26 5.603.26m18.802-.629l-7.29.26.014.37 7.298-.26c.151-.013 3.715-.323 4.816-1.61l-.281-.24c-1.003 1.172-4.53 1.478-4.557 1.48"/>
    </g>
</svg>
