<svg xmlns="http://www.w3.org/2000/svg" width="46" height="46" viewBox="0 0 46 46">
    <g fill="none" fill-rule="evenodd">
        <path d="M0 0h46v46H0z"/>
        <path fill="#007BC3" d="M39.682 6.705c0 .05-.04 5.058-.194 6.185-.107.794-1.254 1.36-1.686 1.51l-.202.071-.005.214c-.004.162-.397 16.24-.552 18.696-.137 2.165-2.396 2.2-2.491 2.2H11.306c-.003 0-.317-.012-1.215-.287-.657-.2-1.073-1.636-1.162-2.094l-.236-2.56-.6-15.84-.215-.061c-2.198-.627-2.259-1.363-2.259-1.372.002-.083.04-2.04 0-2.563-.016-.2.08-.326.192-.47.095-.124.202-.264.202-.446.007-.085.136-.377.275-.626l.051-.09-.013-.101c-.097-.735.1-1.103.096-1.103.047-.06 1.955-2.524 2.851-3.882.597-.905 4.034-1.37 6.049-1.45.158 0 15.855-.043 17.41 0 1.606.044 3.65.35 5.086.76 1.252.36 1.273 1.955 1.273 2.023l.002.183.16.087c.451.246.43.998.43 1.016m.018-1.459c-.04-.517-.279-2.031-1.713-2.443-1.481-.424-3.587-.74-5.24-.784-1.564-.042-16.781-.001-17.44 0-.568.023-5.584.263-6.55 1.727-.89 1.349-2.804 3.82-2.84 3.867-.033.052-.312.518-.216 1.435-.12.22-.305.598-.3.795a.975.975 0 0 1-.08.115c-.132.17-.352.457-.319.893.038.495 0 2.484 0 2.484-.015.195.033 1.18 2.49 1.933l.585 15.413.24 2.605c.044.23.461 2.254 1.593 2.598.979.3 1.33.315 1.39.315h23.251c1.014 0 2.968-.58 3.108-2.78.145-2.315.5-16.626.546-18.515.5-.212 1.747-.845 1.894-1.93.158-1.166.198-6.057.2-6.254.001-.043.033-.995-.6-1.474m-7.394 10.206c-.171 0-17.122.043-18.952 0-1.819-.043-4.677-.466-4.706-.47l-.054.365c.029.005 2.91.432 4.752.475.612.014 2.913.019 5.712.019 5.58 0 13.14-.02 13.267-.02.446-.044 4.38-.44 5.017-.7l-.14-.343c-.496.203-3.715.556-4.896.674M7.741 9.417c1.62.473 4.798.603 4.94.609h19.034c.117 0 2.888-.007 4.785-.61 1.832-.582 2.04-1.11 2.1-1.615.038-.344.151-1.916.157-1.983l-.37-.026c-.001.016-.117 1.631-.157 1.978-.034.293-.085.735-1.842 1.293-1.841.586-4.645.593-4.673.593H12.688c-.032-.001-3.267-.134-4.843-.594-.503-.147-.808-.342-.859-.548-.048-.196.145-.383.174-.418l.788-1.202-.309-.203-.76 1.169c-.014.013-.35.332-.253.738.084.352.46.627 1.115.819m19.29 2.17l-.029.15c-.464 2.33-1.323 2.258-1.355 2.254h-7.41c-1.275-.001-1.547-2.26-1.55-2.282l-.02-.168-.168.004c-.02 0-2.187.043-4.209 0-2.002-.042-4.89-.844-4.92-.852l-.099.356c.12.034 2.962.823 5.011.866 1.708.036 3.517.011 4.062.002.095.581.509 2.442 1.893 2.444l7.379-.003a.454.454 0 0 0 .083.006c.287 0 1.158-.191 1.636-2.406h4.896c.181-.004 4.446-.097 5.621-.937l-.214-.3c-1.083.773-5.371.866-5.41.867H27.03zM16.11 3.372H33.55c1.846.172 4.52.685 4.686 1.281l.357-.099c-.295-1.057-4.224-1.478-5.026-1.552H16.11c-2.597 0-5.188.73-5.213.737l.101.356c.025-.007 2.568-.723 5.112-.723m-.252 9.876l.373-.001-.006-.37c-.028 0-2.863.039-5.93-.257-3.003-.29-4.332-1.485-4.346-1.497l-.25.271c.056.052 1.421 1.29 4.56 1.594 2.436.235 4.725.26 5.599.26m18.807-.63l-7.29.26.013.37 7.299-.26c.151-.013 3.715-.321 4.816-1.609l-.282-.24c-1.003 1.172-4.53 1.477-4.556 1.48"/>
    </g>
</svg>
