<svg xmlns="http://www.w3.org/2000/svg" width="115" height="115" viewBox="0 0 115 115">
    <g fill="none" fill-rule="evenodd">
        <path d="M0 0h115v115H0z"/>
        <path fill="#D5E2ED" d="M26 17.363v78.583h2.216v11.644h67.539V96.407l2.567-.461V17z"/>
        <path fill="#14486E" stroke="#14486E" d="M19 86V10h27v76H19zm30 0V10h39v76H49zm-31 3.443h-.003V89H17.5a1.5 1.5 0 0 1-1.5-1.5v-79A1.5 1.5 0 0 1 17.5 7h72A1.5 1.5 0 0 1 91 8.5v79a1.5 1.5 0 0 1-1.5 1.5H89v10.5a1.5 1.5 0 0 1-1.5 1.5h-68a1.5 1.5 0 0 1-1.5-1.5V89.443zm3 0V98h65v-9H21.002v.443H21zM53.455 63c.828 0 1.498-.672 1.498-1.5v-41a1.499 1.499 0 1 0-2.996 0v41c0 .828.67 1.5 1.498 1.5zm27.967 32H25.489a1.499 1.499 0 0 1 0-3h55.933a1.499 1.499 0 0 1 0 3zM24.989 49V39h2.997v1.5a1.5 1.5 0 1 0 2.996 0V39h2.997v10h-8.99zm0-13h8.99v-3h-8.99v3zm10.488-6a1.5 1.5 0 0 1 1.498 1.5v19a1.5 1.5 0 0 1-1.498 1.5H23.49a1.5 1.5 0 0 1-1.498-1.5v-19c0-.828.67-1.5 1.498-1.5h11.986zm5.993-11a1.5 1.5 0 0 1 1.498 1.5v41a1.5 1.5 0 1 1-2.997 0v-41c0-.828.671-1.5 1.499-1.5zm35.956-3a1.499 1.499 0 0 1-1.498-1.5c0-.828.67-1.5 1.498-1.5h5.993a1.499 1.499 0 0 1 0 3h-5.993z"/>
    </g>
</svg>
