<svg xmlns="http://www.w3.org/2000/svg" xmlns:xlink="http://www.w3.org/1999/xlink" width="307" height="191" viewBox="0 0 307 191">
    <defs>
        <path id="a" d="M0 0h311v210H0z"/>
    </defs>
    <g fill="none" fill-rule="evenodd" transform="translate(-4 -12)">
        <mask id="b" fill="#fff">
            <use xlink:href="#a"/>
        </mask>
        <g mask="url(#b)">
            <path fill="#231F20" d="M276.19 201c-1.173-1.129-1.34-1.935-1.09-3.629.587-.484 1.174-.968 1.928-1.371 2.597 0 4.104 2.984 1.926 4.355-.083-1.049-.083-2.097-.083-3.065-.838 0-.838 0-1.425.645.084.565.587.968.587 1.533-.587.806-.587.806-.419 1.37-.586-.08-1.089 0-1.424.162M274.1 203c-.05-.852-.1-1.548-.1-2.323.7-.774.7-.774 1-.542-.25.078-.5.31-.65.465-.1.697-.15 1.548-.25 2.4M286.636 200l-.84-.79c-.838.071-1.601.143-2.44.359-1.83-1.726-.534-5.033 0-7.118-.458.503-.84 1.007-1.144 1.654-1.22 0-1.83-1.007-2.212-1.87.153-.431.458-.862.763-1.222.305-.072.61-.072.991-.072-.076.36-.152.791-.305 1.222.305 0 .534 0 .84.072 1.22-2.947 1.22-2.947 1.6-3.235.458 1.007.382 2.157.764 2.373-.992 4.241-.992 4.241-.84 4.529 1.22-.36 1.22-.36 2.289-.288.381.432.762.863 1.144 1.366a9.637 9.637 0 0 1 1.754-.719c0 1.15-1.983 1.223-1.602 2.373.077-.144.305-.288.458-.36.076.432.076.432-1.22 1.726"/>
            <path fill="#FFF" d="M284 200v-2.442c1.467-1.14 2-.489 2 1.547a1.666 1.666 0 0 0-.733.407c-.4-.814-.4-.814-.867-1.059-.133 1.466-.133 1.466-.4 1.547"/>
            <path fill="#231F20" d="M265.127 199c0-.462.06-.846.12-1.23.239.076.478.153.777.307 0-.615.06-1.308.12-1.846-.419-1-1.734-3.154-.838-4.231 1.256 3 3.169 5.846-.179 7"/>
            <path fill="#00833E" d="M220.038 197c.077-.762.306-1.371.46-1.981l-.383-.38c-.995.532-1.99 1.066-2.984 1.6-.306-.61 0-1.525-.153-1.906-.765.381-1.453.762-2.065 1.22-1.913-.763-3.596 1.295-4.514-.305-1.224.914-1.99.838-3.596.533-.076-.305-.153-.457-.306-.61-3.748-.152-3.748-.152-4.36-.533-.842.61-1.377.762-2.372.914-.306-.38-.535-.61-.765-.914 1.607-1.828 2.219-4.114 4.59-4.648v1.067h.46c.076-.38.152-.61.305-.914a8.734 8.734 0 0 1 1.454-.762c.153.076.382.152.612.38a9.383 9.383 0 0 1 1.76-.761c-2.296 3.886-2.296 3.886-2.22 4.419 1.913-1.371 3.137-2.438 5.662-1.98-.153.304-.306.609-.383.99.077.152.153.38.383.533.765-.533 1.454-1.067 2.295-1.524.077.762.077.762-.535 2.21.918-.61 1.912-1.296 2.907-1.829.535.152 1.07.381 1.76.61 2.447-1.829 2.447-1.829 3.212-1.905-.153.99-.153.99-1.606 3.2.841-.457 1.606-.914 2.524-1.372 1.148.458-.153 2.21-.535 2.896.153 0 .382.076.535.152.536-.457 1.148-.838 1.836-1.219 1.454.533.995.61 2.525.61.076.38.306.761.459 1.066-3.29-.076-3.29-.076-3.902-.457-1.76 1.371-1.76 1.371-3.06 1.6M104 197c.964-.915 1.526-1.678 2.89-1.907.08.076.161.305.322.458.803-.458.803-.915.963-1.526 1.526 0 2.89-.915 4.015-1.678.16-1.449.08-3.584 1.445-4.347.482 1.068.482 1.068.964 1.297.32-.305.562-.458.883-.61 1.445.305 2.489 0 3.934-.382 0 .381.08.84.16 1.297.402-.077.804-.153 1.285-.153-.08.382-.08.763-.08 1.068.803-.305 1.526-.534 2.328-.839 0 .305 0 .534.08.915.804-.381 1.526-.762 2.33-.991.08.61.32 1.373.481 2.059-1.445 0-5.058.839-6.102.381-.883 1.297-.883 1.297-.883 1.83h.562c.16.382.401.764.642 1.221-.482.153-.964.382-1.445.534-.08-.534-.16-.991-.16-1.449-.643.839-.643.839-2.088 1.525-.964-.839-10.198.916-12.526 1.297M171 198c0-2.943 3.443-1.934 5-1.345-.082.084-.082.336-.082.504-1.64.168-3.279.505-4.918.841"/>
            <path fill="#231F20" d="M271.24 197c-.555-1.02-1.11-2.04-1.666-2.98-.555-.157-1.111-.314-1.574-.393.093-1.568.185-3.058.463-4.627.74.863.74.863 2.778 5.882.555 0 1.11.079 1.759.157-.278.863-.833 1.49-1.76 1.961"/>
            <path fill="#00833E" d="M92 197v-.696c.375-.174.75-.347 1.188-.434 0-.348.062-.61.124-.87h1.063c.125.348.375.609.625.957-1.063.347-2 .695-3 1.043M180.77 196c-1.385-.462-1.385-.462-4.77-.615 2.077-1 3.154-1.923 5.308-2.231 0-1.616 1-2.77 1.846-4.077.308-.077.615-.077 1-.077 0 .154 0 .462.077.77.538-.155 1.077-.385 1.769-.462-.385 1.23-1.23 1.461-1.77 2.461a59.015 59.015 0 0 0-.768 3.923h-1.77a3.75 3.75 0 0 0-.307-.846c-.154.385-.385.77-.616 1.154"/>
            <path fill="#231F20" d="M189.61 197c-1.082-.544-1.082-.544-4.557-1.087-.077-.932-.154-1.863-.309-2.795 3.012-1.786 1.93-5.668 2.394-8.696 1.313-2.097 2.317-2.873 4.325-4.348 1.93-5.125.154-11.647-2.394-16.228.077-4.659.154-8.153-1.004-12.579-1.545-.388-1.545-.388-4.634-.155-.463 3.727-.309 6.678.386 10.405-1.621 5.435-3.475 11.413 1.236 15.45.927 2.796.463 4.582-.077 7.532h-.85c-.077.31-.077.544-.077.932h-1.236c-.463 1.553-1.467 5.668-2.78 6.522v1.475c-1.622 0-2.394.777-3.63 1.709-3.243.465-6.64-.622-9.962-1.01-1.312-3.96 1.468-6.289 2.858-9.938 1.544-2.33 3.398-4.27 4.633-6.522.155-2.33.386-4.581.618-6.756-1.313-3.804-1.313-3.804-3.012-7.609-.309-2.795-.463-5.59-.617-8.23-2.858-7.997-7.723-13.976-8.264-22.594-.54-2.873-1.853-3.029-4.402-4.349-.926 1.864-.154 5.358-.154 7.61-.386 3.416-.618 6.832-.927 10.404.618 3.183 2.858 4.193 4.093 6.988-.386 6.056-1.313 11.103-1.544 14.364.617 3.96.54 5.59-1.545 9.007-.154 2.407-.386 4.814-.463 7.22-.85.078-1.545.156-2.317.311-.077.466-.077.932-.077 1.476.154 0 .386.077.54.155-.54.078-.54.078-1.621-.621-3.012 1.087-15.137 1.708-10.117-5.125.386-3.028.618-6.211 2.548-8.774 5.87-4.969 4.711-6.211 4.866-14.286-4.248-2.33-4.248-2.33-5.329-3.339-.386.078-.772.155-1.004.31-1.236 3.262.85 5.203.077 8.309-2.703.077-2.703.077-3.707-.31-1.544-2.408-1.544-2.408-2.085-2.718-.309.077-.463.155-.618.388 0 4.891.541 5.202-3.86 6.367-1.932 2.407-2.472 5.59-3.862 8.23-.155-.078-.386-.078-.54-.078.617-2.484.617-2.484.926-6.289-1.236-1.242-1.236-1.786-1.545-3.416-3.32 1.01-9.807 6.211-9.807 9.86.154.078.463.156.772.311.077.31.154.544.309.854.463-.155 1.004-.388 1.544-.543.078.388.155.776.31 1.087 1.39-.621 2.857-1.01 4.324-.544l1.39-1.397c1.545 1.553.618 4.814.154 7.065-1.39 0-1.621 1.01-2.394 1.941-1.467.156-1.853.544-2.857 1.553-4.17.31-4.325 0-9.19.156.54-1.243.772-1.398 2.008-1.786-.386-.388-.772-.777-1.004-1.087 2.085-3.727 2.857-7.532 4.402-11.414 5.174-3.882 6.641-4.97 7.028-11.414-.155-.077-.387-.155-.541-.155-1.622 2.096-2.008 2.795-4.634 3.028-.926-1.863-.54-2.95-.077-5.124-.386-.777-.772-1.398-1.081-2.02-3.475-.62-7.105-.853-10.271-2.406-.85 1.786 1.39 7.764 1.853 9.705 0 4.193-1.004 7.377-.309 11.647 1.777 4.736 4.711 8.463-.309 12.113-.308 2.407-.54 4.814-.772 7.22-4.633 1.398-9.19 2.563-14.132 2.407-.618-1.32-.618-1.32-1.004-1.475-.155.078-.31.156-.386.388 0-1.397.077-2.018.54-3.416 2.549-2.562 2.085-6.134 2.935-9.473 4.942-4.658 4.71-5.28 3.784-12.578-1.39-2.717-1.39-2.717-2.24-3.727-.85-4.814-1.08-11.414-4.71-14.985-2.858.932.85 8.696 1.39 10.404-.54 4.193-2.935 10.87 1.235 13.976.078 1.63.927 4.97-1.313 5.435-1.544 3.65-3.166 7.765-5.714 10.793-.773 0-11.43 1.94-12.974.388 0-.31 0-.543.077-.854.154-.078.386-.155.618-.155.617-2.873 1.853-4.193 3.63-6.6-.31-.078-.541-.155-.773-.155 0-1.01.077-1.243.772-1.864 1.854-6.6 7.26-7.687 4.634-15.218-1.004-1.398-1.93-2.795-2.858-4.115-.077-3.96-.386-9.007-2.394-12.501-4.093-4.115-4.633-7.299-4.865-12.967-2.394-4.192-4.402-4.891-8.88-5.9-.85 1.397-1.7 2.795-2.472 4.27-.927 7.531 3.938 10.016-5.097 13.277-6.642 1.242-8.958 3.028-12.434-3.727-1.004-5.435-2.857-18.013-11.43-17.237-3.938-3.494-5.56-5.125-5.791-11.025-.927-.156-.927-.156-4.71.155-1.545-.388-3.013-.777-4.557-1.01-3.398-3.96-6.719-7.997-6.719-13.51 4.865-.388 9.576 1.786 14.441 2.485v-.466c-9.112-3.416-11.584-11.025-5.097-18.324.541-.31 1.236-.544 1.854-.854-.386 2.717-.85 14.908 5.637 10.56.927-2.097 2.394-3.417 3.476-5.436h1.004c1.312-1.785 1.544-2.329 3.475-2.717 0-.31.077-.544.154-.777 2.008-.62 2.008-.62 3.398-1.475 1.545-.155 3.244-.31 4.865-.388 3.63 1.553 9.808 3.183 5.097-2.407-3.86-2.718-3.86-2.718-6.178-3.882-.077-.388-.154-.621-.154-.932 1.39-.155 2.78-.388 4.17-.466 7.568.621 12.51 3.727 9.885 11.88-2.857 4.814-2.857 4.814-2.703 5.124 2.78-1.397 6.564-7.764 9.653-7.065 1.313 7.764 2.086 11.802-4.633 16.77 4.633 1.942 12.047 1.942 17.144 1.398 3.012-1.94 6.178-3.882 9.345-5.823 4.788-.078 9.19-.388 13.9-1.553 4.248 1.243 8.264 2.252 12.666 2.873v-.776c-7.028-.544-10.426-6.29-8.418-13.045 2.008-2.251 3.398-3.26 6.024-4.58 1.39 1.397-4.248 10.87 2.702 9.705 2.008-6.212 9.19-6.678 14.673-7.532 2.78.932 6.179 1.476 9.036 2.563 2.548-4.581-2.935-7.998-5.715-9.939 4.17-2.019 7.568-.31 11.43 2.407 2.78 5.202 1.93 9.162-.927 14.21.077.077.155.154.309.387 2.548-2.251 6.719-9.938 10.348-9.24.618 2.718 1.313 5.358 2.008 8.076-.309 2.407-.54 4.891-.772 7.453 3.784 1.786 9.576 1.553 13.824 1.786 2.085-1.397 4.324-2.717 6.564-3.96 6.255-.776 10.348-1.009 16.68 0 5.252-.31 11.121-1.475 16.141-3.26 3.166-3.883 3.166-3.883 5.251-7.144 5.406-2.096 7.183-1.475 11.816 1.941 1.081.31 2.24.621 3.398 1.01 6.178-3.261 8.881-7.532 15.368-3.96 1.081 2.251 1.081 2.251 2.78 4.27 2.394.155 4.788.388 7.26.544 4.71 2.717 7.413 5.124 10.348 9.628 2.008 4.736 3.166 9.084 3.166 14.286-.617 6.988-2.703 13.82 2.085 19.489 2.086.543 2.086.543 7.26.854 6.487 3.261 8.109 7.066 9.962 13.82-.463.156-.85.467-1.158.777.077 1.708.154 3.416.309 5.202-2.008 1.476-2.858 5.28-5.33 5.824 0-1.63.078-3.34.155-4.892-.154.621-.386 1.398-.463 2.096h-.927c-.85-4.736-.85-4.736-1.08-4.814-.387.932-.387.932-1.082 1.398-1.081-5.124-5.097-6.833-9.036-9.938-.85-2.407-1.621-4.814-2.47-7.144-6.179-7.454-4.326-17.858-3.94-26.942-1.776-8.23-5.405-14.52-14.672-13.666 0 3.727 3.63 9.085 5.096 12.423.927 3.494 1.854 7.066 2.78 10.56.078 7.764.078 7.764-.54 22.595 1.622 1.475 3.398 2.95 5.174 4.425 1.93 6.057-.926 12.89 1.93 18.713.773 4.27.387 7.298-1.93 10.87-.077 2.096-.154 4.348-.309 6.6-3.166 1.863-8.65 1.164-12.279 1.397-.54.155-4.71 1.553-5.251 1.32.077-1.475.309-2.95.463-4.348 2.78 0 2.935-5.746 2.935-7.61 1.622-1.863 3.784-3.416 5.251-5.279 1.313-5.202 2.394-11.647-2.008-15.374-1.467-.155-2.857-.31-4.247-.388-1.7 2.485.154 4.892-.54 7.532-3.013 3.649-4.325.62-6.179-2.485-.386.078-.618.31-.927.466-.308 1.941-.54 3.882-.849 5.9-1.081.933-2.703 0-3.784.312-1.545 3.882-1.236 8.618-3.32 12.034-.31 2.02-.464 4.038-.619 6.212-1.467.466-2.47 1.553-3.707 2.485-3.63.62-8.726 1.475-12.279.62 0-2.872-.154-4.58 2.24-6.133 1.622-4.193 2.24-7.998 6.487-10.482 1.467-3.96 2.935-6.988 2.935-11.414-2.24-1.087-3.476 4.193-6.72 3.494-1.39-2.019.31-4.97 1.005-7.066-1.467-.31-8.958.311-14.673.389-1.39-.544-2.78-1.087-4.17-1.553.308 2.484.308 2.484 1.467 6.211.077 5.668-.54 11.492-.309 17.16.772 1.475 1.467 3.028 2.24 4.658-.078 3.494-1.468 4.892-3.167 7.998-1.544 6.91-6.023 6.677-11.893 7.376"/>
            <path fill="#00833E" d="M82 195c.156-.375 2.11-.825 2.266-1.2l-.391-.375c1.953-.45 2.422-.6 4.453-.45-.078-.45-.078-.9-.078-1.275.469 0 .938.075 1.406.15.078-.3.156-.45.313-.6 3.203-1.05 4.14-2.25 5.156-5.25H97c0 1.575-.547 2.25-1.719 3.3-.469 1.35-.937 2.7-1.328 4.05-6.406.525-6.406.525-11.953 1.65"/>
            <path fill="#231F20" d="M273.593 196c-.649-1.36-.649-1.36-1.574-6.556-.37-.08-.649-.08-1.019-.08.556-1.919 2.963-3.038 5-1.919-.185 1.6-.648 2.799-1.852 3.998 0 1.599.278 3.118-.555 4.557"/>
            <path fill="#FFF" d="M115 195c.308-.69.538-1.31.846-1.862.154-.069.462-.138.77-.138.076.138.153.345.384.552-.308.827-1.154 1.103-2 1.448M191.99 195a3.501 3.501 0 0 1-.99-.329c.577-2.136 1.32-4.19 1.98-6.244 3.628-.493 3.628-.493 4.948-.329.33.986.66 1.972 1.072 3.04-1.402 2.383-4.454 3.205-7.01 3.862"/>
            <path fill="#E12184" d="M206 195.6c.2-.6.2-.6.7-.6-.2.1-.4.3-.7.6M208 195c.2-.364.5-.636.8-1 .1.455.1.455-.8 1"/>
            <path fill="#231F20" d="M275.167 195c-.084-.853-.167-1.64-.167-2.426 1.5-.656 1.5-.656 2-.46v2.427c-.667.393-.667.393-1.833.459"/>
            <path fill="#00833E" d="M157.42 195c-2.473-.17-5.024-.427-7.42-.512.464-.17 1.005-.427 1.546-.512.154-.513.386-.94.541-1.366 1.932.853 1.932.853 2.396.683-.077-.427-.154-.854-.154-1.11 1.082.427 2.318.854 3.478 1.195-.387-.683-.619-1.451-.928-2.049.619-.17 1.314-.427 2.01-.512v-1.451c.464 0 1.005 0 1.546.085v.598h.54c-.076-.598-.076-1.195-.076-1.708h.772c.155.513.387 1.11.619 1.708.154-.683.386-1.451.54-2.049.928.427 1.238 1.366 2.242 1.366.464 1.451.85 2.475.928 4.183-2.242-.086-4.406-.171-6.57-.171-.155.427-.387.854-.541 1.195-.464.256-1.005.342-1.469.427"/>
            <path fill="#E12184" d="M217 194.5c.2-.5.2-.5 1-.5-.5.2-.8.3-1 .5"/>
            <path fill="#231F20" d="M278 195v-.9h.55c-.079-.75-.157-1.425-.314-2.025.55-.075 1.099-.075 1.727-.075.078 1.125.078 1.125-.471 2.775-.628.075-1.02.15-1.492.225"/>
            <path fill="#FFF" d="M97 193h1v1h-1zM114 194h1v1h-1zM186 194c.345-.631 2.759-6.585 4.655-5.953.086.36.173.631.345 1.082-1.638 1.714-2.931 3.789-5 4.871M158 193.2"/>
            <path fill="#E12184" d="M202 194c.1-.364.2-.636.5-1 0 .182 0 .455.1.727-.3.091-.5.182-.6.273"/>
            <path fill="#231F20" d="M271 194c.1-.364.2-.636.4-1 .1.364.2.636.5 1h-.9"/>
            <path fill="#00833E" d="M74 193c1.875-1.75 2.41-1.75 5-2-.09.333-.179.667-.357 1.083-1.518.334-3.125.584-4.643.917"/>
            <path fill="#FFF" d="M171 193c.15-2.05.975-3.797 1.8-5.696 1.95.152 3.075.304 5.1-.304 0 1.215 0 1.215.3 1.215v-.911h.6v1.139c.3-.152.525-.38.9-.532.075.608.15 1.367.3 2.051-1.2.38-2.325.76-3.375 1.063-.075.152-.15.456-.15.76-1.875.38-3.675.76-5.475 1.215M100 193c2.29-6.777 1.263-5.97 7.342-5.97.08.403.158.887.316 1.371.158.081.474.162.79.323.157.645.394 1.452.552 2.178-3.079.888-5.842 1.614-9 2.098M116 192.7v-.7c.1 0 .4.1.6.2-.2.1-.5.3-.6.5"/>
            <path fill="#00833E" d="M63 192c.25-1.1 2.188-1.159 3-.811-1.063.232-2 .521-3 .811"/>
            <path fill="#FFF" d="M122 191.4c0-.1.1-.2.2-.4-.1.1-.2.3-.2.4M98 192c.12-2.273 1.207-4.364 2.294-6 2.173 1.636-1.268 5.455-2.294 6M167 192c.796-2.455.796-2.455 2.571-6 .123.09.307.182.429.364 0 2.363-1.47 5.09-3 5.636M115 191h1v1h-1z"/>
            <path fill="#00833E" d="M246.215 191c-1.273-2.083-1.497-2.667-.898-5 2.919-.417 5.689-.917 8.683-1-1.273 2.75-2.021 5.167-5.24 5-.15.167-.374.5-.45.833-.748 0-.748 0-1.272-.666-.3.25-.524.583-.823.833M241.556 190a10.324 10.324 0 0 0-1.334-.417c-.055-.333-.11-.5-.222-.666.222-.084.389-.167.667-.334V188c.277 0 .61.083.944.167.111.583.278 1.166.389 1.833h-.444M68.181 189c-.96-.418-.96-.418-1.181-.955.37 0 .812.06 1.255.12.074-.24.148-.418.295-.657.59.06 1.255.239 1.846.358.295-.358.295-.358.148-.776 1.771 0 3.1-.776 4.946-.597 0-.238.074-.358.148-.477.96 0 1.476-.12 2.362.298-.295.657-.443 1.313-.59 1.97-3.027.298-6.128.477-9.229.716M243.722 190c-.666-.4-.666-1.133-.722-2 .444.267.444.267 1 .133-.167.6-.222 1.267-.278 1.867M254.874 189c-.433-.391-.433-.391-.865-.326 0-1.5-.174-1.37 1.039-2.674H256v2.543c-.433.13-.78.327-1.126.457"/>
            <path fill="#FFF" d="M272.235 190c-.094-.74-.188-1.407-.235-2h.938c.094 1.037.094 1.037-.093 1.852-.235 0-.47.074-.61.148"/>
            <path fill="#00833E" d="M257.2 189c-.1-.385-.2-.77-.2-1h.8v.846c-.2 0-.5.077-.6.154"/>
            <path fill="#FFF" d="M84.443 189c-.148-.16-.37-.4-.443-.56.516-2.08.959-3.6 2.14-5.36 2.36.08 4.573.32 6.86-.08 0 4.88-5.385 4.64-8.557 6M180 188h1v1h-1zM195.188 188c-.385-.309-.771-.54-1.002-.85-2.006.387-3.317-.772-5.168.387-.54-1.39-.925-1.93-.462-3.398 8.637-4.787 4.241-15.598 1.85-22.856 0-6.486-1.233-11.351-3.239-17.528-.308-.078-.54-.155-.77-.155-.31.309-.463.618-.618 1.004 1.543 5.02 1.543 5.02 1.388 5.405-4.627 0-6.323-3.397-9.563-5.56-.925.464.849 3.398 1.003 4.325-2.468-1.236-5.399-3.32-7.944-4.17a1.456 1.456 0 0 0-.154.618c1.08 1.004 2.237 2.007 3.394 3.166 1.465.849 4.087 1.312 4.781 2.78.463-.464.926-.927 1.465-1.313 0 .154 0 .463.078.772-.463.463-.926.927-1.312 1.39.309 0 .54 0 .926.077-.848 2.317-.848 2.317-.926 3.475h.463c.463-1.081.926-2.24 1.388-3.32h.54c-.077 1.467-.154 2.934-.154 4.4.848 8.263-1.388 13.977 3.162 21.544.308 1.545.308 1.545-.077 3.32-1.62.927-3.162 1.468-3.78 3.244-2.467.386-4.626 2.085-6.709.85-.54.076-1.08.154-1.696.308-.155-1.004-.617-2.008-1.928-1.699.462-1.93 2.853-3.706 4.318-4.942 1.851-6.022.617-9.883-1.31-15.752-.54-4.092-.54-4.092-.54-6.95-2.237-6.794-6.787-13.28-7.867-20.307h.386c0 .926.154 1.39.77 1.93.926-1.853.926-4.247 1.08-6.255 1.003-.154 2.083-.309 3.24-.386-.54-.463-.54-.463-2.777-1.08-2.005-1.39-4.087-2.703-6.015-3.939.771-1.39.771-1.39 1.002-2.702-.077-.155-.154-.31-.308-.387-1.003.464-.926 1.545-1.08 2.703-.385-.154-.771-.309-1.08-.386.309-.927.618-1.853 1.003-2.703-.385-.772-.385-.772-1.002-.926-.617.386-1.312.85-1.851 1.312.308-.617.848-4.864-1.003-3.938a32.83 32.83 0 0 1-1.388-1.698c-.077-2.703-.154-10.888-3.394-11.892-.077-.54-.154-1.004-.308-1.467 3.008-2.085 3.702-2.548 6.71-.386-.078 1.004-.078 2.085-.078 3.243 1.003.927 1.003.927 2.854 1.776-.925 3.398-.925 3.398-.925 4.401 3.007 3.012.385 5.792 6.246 6.1.849-1.466 1.774-2.934 2.7-4.4 1.773 0 1.388 1.852.848 2.78 1.003 2.007 1.234 3.32 1.311 5.713 2.082 1.39 3.162 2.008 4.165 4.324.462 0 1.002 0 1.542.078a17.176 17.176 0 0 1 2.005-2.085c3.78-.927 4.627-1.776 5.399-5.251-1.388-3.938-1.851-4.247.617-7.722-1.311-2.702-2.314-2.085-4.628-3.397.386-2.085 2.006-2.78 3.702-4.093 0-3.166-3.008-2.548-5.244-2.548-5.321 1.235-8.406 1.467-7.172 1.235.154-.308.154-.308 1.542-.617-.077-.464-.154-.85-.154-1.236 7.25-4.092 16.658-5.868 23.676.155.463.772.926 1.467 1.465 2.316-2.082 1.39-.77 2.78.386 4.788-.386.617-.771 1.312-1.002 1.93-1.157.077-2.391.154-3.625.386-4.55 4.71-5.861 5.405-1.697 10.965 1.543 0 2.468-.463 4.242-.309 2.853-2.47 3.779-3.243 7.403-4.092 2.006 1.467 2.006 1.467 3.857 2.316.308 2.857 1.696 4.942 1.85 7.953.386 1.004.772 2.008 1.08 3.166 1.466.155 1.466.155 3.24-.309.076-.308.154-.54.308-.772 1.542 0 2.545 2.471 4.704 2.471 2.005-.772 2.545-1.08 4.782-.617 1.85-1.468 1.85-3.861 2.236-6.178 3.702-3.011 2.083-2.78 2.083-6.332 5.707-2.47 6.786-5.173 1.542-8.648-1.465-4.092-1.85-3.63-6.015-4.17.154-2.47 2.467-2.857 4.318-3.938 0-3.243-1.465-4.247-3.856-6.332a89.377 89.377 0 0 0-4.858 1.545c-3.78-3.012-5.63.85-9.564.154V97.27c1.774-1.004 3.471-2.008 5.245-2.934-.617-.078-1.234-.078-1.774-.078.925-6.486 8.715-7.49 11.954-2.084-1.003.077-1.003.077-1.62.54.617.618 2.237.463 3.24.386v1.313c4.858-.618 9.1-5.637 14.113-7.413 4.858 2.78 4.241 3.32 5.09 8.571-1.389.85-2.7 1.622-3.934 2.471-.385-1.93-.385-3.938.386-5.791-.308-.077-.54-.077-.771-.077-1.465 3.32-1.774 4.633-1.928 8.262-.309-.077-.54-.155-.771-.155-.463.31-.926.618-1.311 1.004 0 2.703 1.08 5.328 3.239 6.95 1.388-.078 2.776-.155 4.164-.31v4.402c1.543.772 3.24 1.545 4.859 2.394-.077.927-.154 1.93-.309 2.934-1.31.618-2.468 1.39-3.701 2.085.077 1.236.154 2.471.308 3.784-2.005 2.934-.925 4.71.386 7.721.385 5.097.154 5.792 5.167 5.792.617.926 1.002 1.312 2.005 1.621-.463 2.24.386 4.865 1.157 6.95 7.48 1.467 5.09 7.876 5.09 14.748 1.388 6.718 4.858 15.675-5.167 15.675-1.311.618-5.322.85-5.784-.617-.309-.078-.54-.078-.849-.078.077-.617.309-1.235.463-1.776 4.396-3.86 5.553-8.262 5.553-13.899-.926-5.25-.926-5.25-1.466-6.331-6.71-2.394-10.411-3.63-13.573-9.961-.077-1.776-.077-3.475-.077-5.174 2.93-8.108 4.319-14.13 2.468-22.78-1.234-2.933-2.777-5.559-3.008-6.64-.386.077-.617.31-.925.464 0 .926 0 .926 2.545 7.567 1.85 11.428-2.314 21.312-9.872 29.806-2.468 1.39-4.859 2.857-7.25 4.324-4.781 1.467-14.267 4.092-18.663 1.853a32.574 32.574 0 0 1 2.7-1.776c-1.466-1.004-2.391-.772-4.242-.85-.077-.385-.077-.617-.077-.926-.54-.154-1.08-.386-1.543-.54 0-1.468 0-2.935.077-4.402h.617c0 .155.077.463.154.772.54-.85.54-.85.617-2.47-.385-.078-.77-.155-1.002-.31-.54.541-.926-.077-1.543.155-.385 4.092-.617 8.108-.925 12.2.386 2.857.848 5.791 1.311 8.726-.771 4.478-.925 8.57-.925 13.204 2.699 4.556 2.699 4.556 3.701 7.104a16.594 16.594 0 0 0-1.08 2.007c-.462-.308-.925-.54-1.31-.772-1.851 1.313-3.702 2.626-6.016 3.089"/>
            <path fill="#00833E" d="M251 187h1v1h-1z"/>
            <path fill="#FFF" d="M82 188c0-1.583 1.846-4.583 3-5-.538 2.75-1 3.5-3 5"/>
            <path fill="#00833E" d="M207 188c.388-1.28 1.087-1.12 2.097-1.44.544-1.12.388-1.76.777-3.12.466.08.932.16 1.398.4 1.087-1.36 2.252-1.52 3.728-1.84-.31 1.52-.544 3.04-.854 4.56-1.398.16-2.097.4-2.796-.64a6.86 6.86 0 0 1-.311.96c-1.32.4-2.719.72-4.039 1.12"/>
            <path fill="#E12184" d="M232 187v-1 1z"/>
            <path fill="#00833E" d="M117 187c0-1.11 2.553-2.219 1.976-1.963v.854c2.883-.427 2.883-.427 5.024-.342-1.565.683-1.565.683-7 1.451M128.655 187v-.566h1.22v-.646c-1.068-.162-2.212-.323-3.204-.404l-.534.565c-.077-.161-.153-.404-.153-.484-.763 0-1.374.08-1.984.161 1.755-1.454 3.815-3.394 5.8-4.12 0-.567 0-1.051.076-1.536 1.373 0 1.983-.89 2.975-.97 0 .162.077.485.153.808.153-.162.458-.323.763-.404.153.323.458.647.763 1.05 1.221-.484 2.06-1.373 3.358-.646.076-.162.305-.323.457-.404.077.323.306.647.458 1.05.077-.161.305-.323.458-.403.84.404.84.808 1.068 1.616.84-.808.84-.808 1.603-1.05.076 1.615.152 3.474 1.068 4.848-1.602.161-6.18 1.373-7.478.484-1.831.97-4.73.89-6.867 1.051M230.173 189v-.483h1.082v-.563c-1.005-.16-1.932-.241-2.86-.322l-.463.483c-.077-.161-.155-.322-.155-.402-.618 0-1.236.08-1.777.16 1.545-1.287 3.4-2.976 5.177-3.62 0-.483 0-.966.078-1.368 1.236 0 1.777-.805 2.704-.885 0 .16.077.402.155.644.154-.161.386-.242.618-.322.154.241.386.563.618.965 1.082-.402 1.855-1.207 3.014-.563.077-.16.231-.241.386-.322.077.242.232.564.386.966.078-.161.232-.242.387-.322.772.322.772.644 1.004 1.448.773-.643.773-.643 1.468-.965.078 1.448.155 3.057 1.005 4.264-1.468.161-5.564 1.207-6.645.402-1.7.725-4.328.644-6.182.805M249 186h1v1h-1z"/>
            <path fill="#FFF" d="M106.344 187c-.078-.468-.155-.858-.31-1.248-.542.312-1.084.546-1.548.858-.155-.39-.31-.78-.387-1.092-.387.156-.62.39-.929.624-.774-.39-1.393-.624-2.012-.936-.387-3.665.077-3.353 2.864-5.458 2.09-6.083 1.006-9.67-1.935-15.05-.774-7.019-1.548-13.647-6.734-18.872 0 1.248 1.084 2.964.851 3.822-2.786-.546-5.34-1.638-7.972-2.886-.31.39-.31.39-.31 1.56-2.244.156-3.637-1.326-5.185-2.573 0 3.665 5.108 3.899 7.817 4.132v1.092c.465.156.929.39 1.393.624 0 1.092.465 4.913 1.239 5.459.155-.156.464-.312.774-.39 2.94 2.963 2.012 10.371 2.012 14.348.542 1.794 3.174 6.706.929 8.188-.077.39-.155.858-.155 1.326h-.851c-.078.312-.078.546-.078.935h-.851c-.077.156-.155.39-.31.624-1.315.078-2.476.156-3.715.312-.155.156-.387.39-.542.624-.619-.156-.619-.156-1.006-.858-1.47-.312-2.941 0-4.334-.156 0-3.82 2.477-4.99 4.721-7.798.465-4.679-.155-7.018-2.786-10.683-.774-6.238-.852-11.385-5.573-15.83-1.47-3.977-2.09-7.096-2.09-11.385 2.554-.39 2.554-.39 3.019-.858a173.112 173.112 0 0 0-6.192-3.509c1.548-1.014 2.554-.156 4.102-2.105-.387 0-.774 0-1.084.078-.154-.468-.387-.858-.541-1.248 3.715-5.693 5.418-8.032 1.548-13.959-3.716-3.353-5.34-3.275-9.52-.39-2.555-.39-5.186-.78-7.663-1.091 0-2.106.774-3.977 2.245-5.459 1.78 0 1.935.312 3.637.546-.077-.468-.077-.936-.077-1.404.155-.078.464-.078.774-.078.155.39.464.78.774 1.17.464-.39.464-.39.387-1.014 4.799 0 12.074 1.014 16.796-1.013-.62-.624-.93-.468-1.858-.546v-.78c1.316-.858 2.554-.624 4.257-.624.387 1.248.387 1.248.387 3.197-1.548.624-3.019 1.404-4.567 2.106-1.238 2.963-.464 4.21 1.858 5.848 2.09-.468 2.786-1.247 4.644-2.261 1.084 2.34 2.09 4.679 3.947 6.55-1.857 2.028-2.863 3.275-2.863 6.16-3.948 5.225 4.334 5.85 6.501 2.964 0-2.495.542-3.431 1.78-5.459-1.238-3.041-1.47-4.679-1.935-5.146-4.798 2.963-.077-1.326 1.161-2.262 2.941.156 4.257.858 6.347-1.481 4.334.39 7.895 2.105 11.533-.624 1.238.39 1.238.39 1.47.857-2.09 5.381-5.727 4.757-10.681 5.147-6.192 5.225-5.882 13.335 2.09 17 2.941.078 7.585.78 9.133-2.496 3.87-1.091 5.573-2.573 8.9-.155-.309 3.82-.309 3.82-1.547 9.747 2.864 3.743 6.192 2.573 9.907 4.211v.858c-4.721 1.871-11.997 5.302-17.183 3.977-.154-.78-.31-1.482-.387-2.106-1.78.312-1.78.312-3.018-.078-1.084-2.261-4.799-1.481-6.502-2.807 0-1.248-.077-1.95.542-2.885.155.156.387.468.542.78.31-.078.542-.156.851-.156-1.393-1.482-1.393-1.482-4.721-3.665.464 4.912 1.006 9.903 1.548 14.894 1.47 3.353 2.244 6.16 1.548 9.747-.465-.858-.465-.858-.852-.936-1.083 2.574-1.238 5.615-.541 8.266.387-.156.619-2.885 1.083-3.743.31 2.106.542 4.29.852 6.395 1.702 3.197 2.863 5.692-.387 8.344a7.283 7.283 0 0 1-.31 1.013c-1.393.156-1.935.39-3.173-.312-.542.468-1.084.936-1.548 1.482M139 185h1v1h-1zM140 184h1v1h-1z"/>
            <path fill="#00833E" d="M264.348 185c-1.439-1.308-1.439-1.308-2.348-1.538.076-1.231.152-2.308.303-3.385.606-.077 1.288-.077 1.894-.077.076.846.303 1.692.455 2.462.378-1.308.984-.385 1.893-1 .076.538.303 1.076.455 1.692.152-.616.455-1.23.758-1.77.606-.153 1.287-.384 1.894-.538.378.616.378.616.303 1.308.606-.154.606-.154 2.045-1.385v1c-2.348 2.231-4.545 2.308-7.652 3.231"/>
            <path fill="#FFF" d="M146.616 184c.755-3.766.755-3.766 1.662-6.61.83 0 .83 0 1.283.384 1.435-.769 2.266-.461 3.851-.538v-1.076c-.528-.154-1.057-.385-1.51-.538-.529.307-.982.538-1.435.922a9.982 9.982 0 0 0-.83-.922c-.982.46-1.737.46-2.794.384-1.737-3.613.528-5.842 3.549-6.61 1.208-3.152 1.208-3.152 2.039-7.15.075-6.302.075-6.302.377-6.763-4.757-2.306-6.343-3.92-9.892-8.225 0 1.614 0 3.305.076 4.92h.83c-.075 1.23-.075 1.23-1.51 4.227.83 1.46 1.36 2.46 1.737 4.15-2.416-.383-2.643-.768-3.398-3.228-1.812 0-1.812 0-3.171.539-.302.768-.302.768-.302 5.841h-1.284c-1.057-1.844-.982-3.843-1.057-5.841h-4.078c-.302 2.536-.302 2.536-.981 4.38-.302 0-.529.078-.831.155-.151-1.768-.378-3.46-.453-5.227-3.776-1.076-2.794.768-5.21 3.228-1.586-.845-.378-2.92 0-4.304-.453-.615-.906-1.23-1.284-1.768 1.737-.846 4.153-.846 6.116-1 4.833-2.075 8.382-5.303 13.517-6.072.755-1 .755-1 1.963-1.922.906-3.612.982-4.15 4.228-5.765-4.304 0-8.004-.615-9.816-5.226 1.888.614 1.888.614 2.643.538-.906-1.384-.604-3.152-.755-4.69.982 0 1.057 1.307 1.737 1.922 2.038.77 4.153 1.46 6.191 2.23.454 1.306.378 3.612.907 4.304 1.736-3.459.075-5.765-2.341-7.994-1.284-6.534 5.059-9.3 9.288-3.459.906 6.995.377 14.066 0 21.138 2.944 3.843 2.944 3.843 3.322 4.843-.378.153-.604.384-.906.615-.453 5.073 1.586 20.446-3.625 21.753-.15 1.768-.075 2.92.302 4.689-2.567 2.536-4.455 3.074-8.155 3.766"/>
            <path fill="#00833E" d="M159 183c.157-.941.393-1.824.55-2.765.394-.059.866-.117 1.338-.235 1.022 1.176 5.112-.588 5.112 2.118-2.596-.177-4.64.176-7 .882"/>
            <path fill="#FFF" d="M127 184h1v1h-1zM251 185c.16-2.593 1.12-4.667 2.08-7h3.04c1.04 1.123.8 3.37.88 4.926-.8.691-.8.691-6 2.074"/>
            <path fill="#00833E" d="M36 183v-.923c2.293 0 4.127-.385 6.42-.539.077-.307.153-.538.306-.846.764 0 1.452.077 2.217.154V180c.917.077 1.834.154 2.751.385.077.307.153.538.306.846-4.127.538-8.025 1.154-12 1.769"/>
            <path fill="#FFF" d="M155 184h1v1h-1zM222 184c.09-1.92.09-1.92 1.075-4.08h.716c0-1.04 1.075-1.36 1.791-1.92.717 1.44 1.612 2.96 2.418 4.48-1.97.48-4.03.96-6 1.52"/>
            <path fill="#00833E" d="M274.053 184c-.053-.667-.053-1.333-.053-1.917.105-.083.316-.083.526-.083 0 .333 0 .583.053.917.105 0 .263.083.421.166v.584c-.316.166-.632.25-.947.333M75.053 95C75 94.333 75 93.75 75 93.083c.105-.083.316-.083.526-.083 0 .333 0 .583.053.917.105 0 .263.083.421.166v.584c-.316.166-.632.25-.947.333M276.333 183a3.528 3.528 0 0 0-.333-1h1v1h-.667M78.333 96A3.529 3.529 0 0 0 78 95h1v1h-.667M82 95.7V95c.2 0 .6.1 1 .2-.4.2-.8.3-1 .5"/>
            <path fill="#FFF" d="M120.82 183a2.873 2.873 0 0 0-.82-.651c1.191-3.012 1.862-4.477 4.245-6.349.446 1.058.968 2.116 1.489 3.337.372-.081.82-.163 1.266-.163v1.628c-1.043.082-3.426 1.303-6.18 2.198M144.222 183c-.055-.179-.11-.446-.222-.536.611-2.143.667-3.839 2-4.464-.389 1.607-.722 3.214-1.056 4.821-.277 0-.555.09-.722.179M248 183c0-2.339.98-5 3-5-.306 2.177-1.592 3.629-3 5"/>
            <path fill="#00833E" d="M49.734 181c-1.875-1.317-1.875-1.317-2.734-2.341.313-.074.625-.074 1.016-.074.625.586 1.093 1.171 2.109 1.171-.39-.585-.781-1.17-1.016-1.683.313-.073.547-.073.938-.073.625.585 1.328 1.244 1.953 1.902-.39.366-1.328.366-2.266 1.098"/>
            <path fill="#FFF" d="M217 181c.808-1.02 1.684-1.98 2.56-3 .741.3.337 1.02.27 1.62-1.617 1.02-1.617 1.02-2.83 1.38M259 180h1v1h-1z"/>
            <path fill="#00833E" d="M54.641 182c-1.92-1.521-2.4-2.197-2.641-4.648.16-.084.4-.169.56-.338.32.507.56 1.099.96 1.69.4-.93.801-1.774 1.121-2.704.72 1.69.16 4.225 0 6M61.735 182c-.894-.675-.894-.675-1.936-.928a2.585 2.585 0 0 1-.372-.59c-.447.169-.82.422-1.192.59-.968-2.277 1.266-4.976 2.83-6.072.074.675.074.675-1.043 3.12.968-.59 1.266-1.18 2.234-1.518-.372.928-.745 1.771-.968 2.784 1.191-1.181 2.383-2.278 3.649-3.458 0 1.686-1.787 2.108-1.787 3.71 1.265-1.011 2.382-2.53 4.02-2.53.075.506.075.506-.893 1.94 1.042-.675 2.16-1.434 3.276-2.108.075.168.15.421.373.674-.298.422-.522.844-.82 1.35H70c-.298 1.096-1.787 2.277-2.83 2.024-.074-.422-.148-.843-.297-1.18-.894.505-1.787 1.096-2.681 1.686-.372-.337-.596-.59-.894-.843-.446.506-.968.927-1.563 1.349"/>
            <path fill="#FFF" d="M117 181c.805-1.917 1.683-3.417 3-5-.22 2.917-.878 4-3 5"/>
            <path fill="#00833E" d="M55 181c0-2.15.05-3.94.4-6h.6c-.25 1.97-.4 3.94-.6 6H55M57 180c.063-2.5.313-4.25 2-5a87.595 87.595 0 0 0-1.25 5H57M72.467 179c-.134-.5-.334-1-.467-1.5.333-.143.667-.357.933-.5 0 .571 0 1.214.067 1.786-.2 0-.4.071-.533.214M74.364 179c-.091-.333-.182-.5-.364-.667a4.698 4.698 0 0 0 1-.333c-.273.75-.273.75-.636 1"/>
            <path fill="#FFF" d="M97 179h1v1h-1z"/>
            <path fill="#00833E" d="M284.362 177c-.145-.544-.29-1.01-.362-1.476-.362.389-.942 1.01-1.522.855.073-.544.145-1.01.363-1.476a2.366 2.366 0 0 1-.363-.544c-1.377 1.709-1.377 1.709-1.666 1.476v-2.097c-.29.777-.942 2.02-1.812 1.786.58-2.02 1.667-5.825 3.623-6.524-.29.932-.507 1.864-.724 2.796.58-.388 1.304-1.476 2.246-2.02-.58 1.01-1.232 2.02-1.74 3.03.146.621.146.621.436.777.58-1.01 1.014-2.253 2.173-2.564.073.156.145.389.363.544-.435.854-.87 1.787-1.232 2.719.072 0 .29.077.435.155 1.377-1.631 2.536-2.796 4.42-3.495-.507.932-2.681 3.34-2.319 4.427-1.522 1.32-1.522 1.32-2.319 1.631M86.435 90c-.145-.544-.29-1.01-.363-1.476-.362.389-.942 1.01-1.594.855.073-.544.145-1.01.363-1.476a2.366 2.366 0 0 1-.363-.544c-1.377 1.631-1.377 1.631-1.666 1.476v-2.097c-.29.777-.942 2.02-1.812 1.786.58-2.02 1.667-5.825 3.623-6.524-.29.932-.507 1.864-.724 2.796.58-.388 1.304-1.476 2.246-2.02-.58 1.01-1.232 2.02-1.74 3.03.146.621.146.621.436.777.58-1.01 1.014-2.253 2.173-2.564.073.156.145.389.363.544-.435.854-.87 1.787-1.232 2.719.072 0 .29.077.435.155 1.377-1.709 2.536-2.796 4.42-3.495-.507.932-2.681 3.34-2.319 4.427-1.45 1.398-1.45 1.398-2.246 1.631M156.362 74c-.145-.544-.29-1.01-.362-1.476-.362.389-.942 1.01-1.522.855.073-.544.145-1.01.363-1.476a2.366 2.366 0 0 1-.363-.544c-1.377 1.709-1.377 1.709-1.666 1.476v-2.097c-.29.777-.942 2.02-1.812 1.786.58-2.02 1.667-5.825 3.623-6.524-.29.932-.507 1.864-.724 2.796.58-.388 1.304-1.476 2.246-2.02-.58 1.01-1.232 2.02-1.74 3.03.146.621.146.621.436.777.58-1.01 1.014-2.253 2.173-2.564.073.156.145.389.363.544-.435.854-.87 1.787-1.232 2.719.072 0 .29.077.435.155 1.377-1.631 2.536-2.796 4.42-3.495-.507.932-2.681 3.34-2.319 4.427-1.522 1.32-1.522 1.32-2.319 1.631"/>
            <path fill="#0C984C" d="M178.362 53c-.145-.544-.29-1.01-.362-1.476-.362.389-.942 1.01-1.522.855.073-.544.145-1.01.363-1.476a2.366 2.366 0 0 1-.363-.544c-1.377 1.631-1.377 1.631-1.666 1.476v-2.097c-.29.777-.942 2.02-1.812 1.786.58-2.02 1.667-5.825 3.623-6.524-.29.932-.507 1.864-.724 2.796.58-.388 1.304-1.476 2.246-2.02-.58 1.01-1.232 2.02-1.74 3.03.146.621.146.621.436.777.58-1.01 1.014-2.253 2.173-2.564.073.156.145.389.363.544-.435.854-.87 1.787-1.232 2.719.072 0 .29.077.435.155 1.377-1.709 2.536-2.796 4.42-3.495-.507.932-2.681 3.34-2.319 4.427-1.522 1.398-1.522 1.398-2.319 1.631"/>
            <path fill="#00833E" d="M26.118 78c-.331-.538-.58-1-.745-1.462-.414.385-1.243 1-2.154.847.083-.539.083-1 .248-1.462-.248-.154-.414-.385-.58-.538-1.74 1.692-1.74 1.692-2.153 1.538-.083-.77-.249-1.461-.332-2.154-.248.77-1.077 2.077-2.402 1.77.58-2.077 1.491-5.847 4.308-6.539-.249.923-.497 1.846-.58 2.77.828-.385 1.657-1.54 2.982-2.078-.746 1-1.491 2.077-2.07 3.077.33.616.33.616.745.77.745-1 1.16-2.231 2.816-2.616.166.154.332.385.58.539-.497.846-.994 1.769-1.408 2.692.165 0 .414.077.663.154 1.74-1.693 3.23-2.846 5.964-3.616-.58.923-3.396 3.385-2.734 4.462-1.988 1.615-1.988 1.615-3.148 1.846M292.581 179c-.477-1.818-2.305-1.09-3.578-.91 0-2.363-.159-3 1.67-4.09.08 1.545.08 1.545-.159 2.91.875-.455 1.431-.91 2.544-.637 0 1.09 2.147 1 2.942 2.272-1.193.091-2.306.182-3.419.455M94.54 90c-.47-1.818-2.279-1.09-3.537-.91 0-2.363-.157-3 1.73-4.09.078 1.545.078 1.545-.157 2.91.864-.455 1.415-.91 2.515-.637 0 1.09 2.123 1 2.909 2.272-1.258.182-2.358.273-3.46.455M184.42 61c.398 1.875 2.228 1.25 3.58 1.071-.16 2.322 0 2.947-1.91 3.929 0-1.518 0-1.518.32-2.857-.876.357-1.433.803-2.626.446.08-1.071-2.148-1.071-2.784-2.41 1.114 0 2.307 0 3.42-.179"/>
            <path fill="#0C984C" d="M186.581 54c-.477-1.818-2.305-1.09-3.578-.91 0-2.363-.159-3 1.67-4.09.08 1.545.08 1.545-.159 2.91.875-.455 1.431-.91 2.544-.637 0 1.09 2.147 1 2.942 2.272-1.113.182-2.226.273-3.419.455"/>
            <path fill="#00833E" d="M34.797 78c-.84-1.818-2.98-1.09-4.584-.818-.306-2.455-.611-3.091 1.604-4.182.306 1.545.306 1.545.153 3 .994-.455 1.681-.91 3.133-.727.153 1.09 2.827.909 3.897 2.272-1.452.091-2.827.182-4.203.455"/>
            <path fill="#FFF" d="M223.926 179c-.148-.579-.37-1.075-.519-1.571-.37.083-.74.33-1.037.496-.37-.91-.37-.91-.37-3.39.889-.91 1.778-1.653 2.667-2.48 1.333-2.977 2.148-7.442 5.926-7.028-.37 2.976-.593 3.72.444 6.532.074-.496.148-.993.296-1.489h.37c.075 2.15.149 4.383.297 6.615-2.37.661-4 1.075-6.519 1.075-.962 1.075-.962 1.075-1.555 1.24"/>
            <path fill="#00833E" d="M275.816 177c-1.286-1.167-.643-3.417-.735-5 .184 0 .551.083.919.167-.184 1.666-.184 3.25-.184 4.833M77.816 89c-1.286-1.167-.643-3.417-.735-5 .184 0 .551.083.919.167-.184 1.666-.184 3.25-.184 4.833M146.816 75c-1.286-1.167-.643-3.417-.735-5 .184 0 .551.083.919.167-.184 1.583-.184 3.25-.184 4.833"/>
            <path fill="#0C984C" d="M168.816 53c-1.286-1.167-.643-3.417-.735-5 .184 0 .551.083.919.167-.184 1.666-.184 3.25-.184 4.833"/>
            <path fill="#00833E" d="M12 77c-1.105-1.167-.79-3.417-1-5 .158 0 .421.083.684.167 0 1.583.158 3.166.316 4.833M41 78c-2.385-1.167-1.538-3.417-2-5 .385 0 .923.083 1.538.167 0 1.666.231 3.25.462 4.833M272.481 176c-.518-.778-1.259-1.111-1.481-2 1.037 0 1.926 1.278 2 2h-.519M74.481 89c-.518-.778-1.259-1.111-1.481-2 1.037 0 1.926 1.278 2 2h-.519M144.481 73c-.518-.778-1.259-1.111-1.481-2 1.037 0 1.926 1.278 2 2h-.519"/>
            <path fill="#0C984C" d="M166.481 51c-.518-.778-1.259-1.111-1.481-2 1.037 0 1.926 1.278 2 2h-.519"/>
            <path fill="#00833E" d="M9.268 76C8.463 75.222 7.44 74.889 7 74c1.317 0 2.707 1.278 3 2h-.732M38.77 76c-1.393-.778-3.032-1.111-3.77-2 2.377 0 4.59 1.222 5 2h-1.23M276.004 176c0-2.266-.118-3.516.996-5-.117 1.563-.293 3.203-.41 4.766-.235 0-.47.156-.586.234M78.004 89c0-2.266-.118-3.516.996-5-.117 1.563-.293 3.203-.41 4.766-.235 0-.47.078-.586.234M147.004 74c0-2.23-.118-3.462.996-5-.117 1.538-.293 3.154-.41 4.692-.235.154-.47.231-.586.308"/>
            <path fill="#0C984C" d="M169.004 52c0-2.266-.118-3.516.996-5-.117 1.563-.293 3.203-.41 4.766-.235.078-.47.156-.586.234"/>
            <path fill="#00833E" d="M13.245 78c-.252-2.636-.63-4.182.755-6v5.636a2.81 2.81 0 0 0-.755.364M277 176c.069-2.506.345-4.177 2-6-.483 1.747-.897 4.709-2 6M80 89c.069-2.506.345-4.177 2-6-.414 1.67-.828 4.709-2 6M149 73c.069-2.506.345-4.177 2-6-.483 1.747-.897 4.709-2 6"/>
            <path fill="#0C984C" d="M171 52c.069-2.506.345-4.177 2-6-.483 1.747-.897 4.785-2 6"/>
            <path fill="#00833E" d="M15.09 77c-.23-2.55-.154-4.2 1.91-6-.306 1.65-.459 4.65-1.91 6M168.438 176c-1.797-.625-1.797-.625-3.438-.714 0-.357.078-.625.156-.893.86-.09 1.797-.09 2.735-.09.937-2.142 1.953-1.517 3.828-1.785-.078-.357-.156-.536-.156-.714.39 0 .78 0 1.171.089.391-.982 1.407-.714 2.266-.893-.078 1.25-.156 2.679-.156 4.018-2.969.357-2.969.357-5.235-.09-.468.804-.468.804-1.172 1.072"/>
            <path fill="#E12184" d="M158 175.5c0-.2 0-.4.1-.5-.1.1-.1.3-.1.5"/>
            <path fill="#00833E" d="M184.408 176c-.857-1.754-1.102-2.807-1.408-4.912.306-.088.673-.088 1.04-.088 1.287 2.28 1.287 2.28 1.96 4.386-.367.175-1.224-.614-1.47-.439.062.176.123.439.307.702-.123.176-.306.263-.429.351M188.824 176c-1.589-1.771-2.206-3.71-2.824-6.072.882.168.882.168 1.588 1.18 0-.337.088-.59.177-.843 1.059 0 1.147.084 1.588.843.706-2.024.706-2.024 1.059-2.108.44.675.617 3.542 1.588 5.904-2.559.59-2.559.59-3.176 1.096M204.452 175c-1.504-1.48-1.504-3.35-1.425-5.455.316-.077.554-.155.87-.311 0 .078.08.156.159.39.396-.079.791-.156 1.108-.312 0 2.96 0 2.96.317 2.883.316-1.013.633-2.026 1.028-3.04.317-.077.555-.155.871-.155v1.792c.396-.467 1.03-1.792 1.9-1.402v1.09c.633-.39 1.345-.779 2.058-1.012-.08.467-.159.935-.159 1.402.555-.39 1.109-.78 1.663-1.013.158.468-.396 1.714-.317 2.572.08-.078.158-.078.396-.078 0 .155 0 .39.079.623-.633.545-.633.545-2.375 1.09-.158-.467-.316-.856-.395-1.246-.396.39-.792.857-1.03 1.325-.316-.078-.474-.078-.633-.078v-2.416c-.395 1.013-.633 2.026-.95 3.195-1.028 0-2.136.078-3.165.156"/>
            <path fill="#00833E" d="M191.957 174c-.957-3.136-.957-3.136-.957-4.576.087-.17.348-.34.522-.424.522 1.525.522 3.22.435 5M282.1 174.7c-.1-.2-.1-.5-.1-.7 0 .2 0 .4.1.7M83.1 87.7c-.1-.2-.1-.5-.1-.7 0 .3 0 .5.1.7M152.1 71.7c-.1-.2-.1-.5-.1-.7 0 .2 0 .4.1.7"/>
            <path fill="#0C984C" d="M175.1 49.7c-.1-.2-.1-.5-.1-.7 0 .2 0 .5.1.7"/>
            <path fill="#00833E" d="M20.3 73.7c-.2-.2-.2-.5-.3-.7.1.2.1.5.3.7M215.523 172c-.477-.8-.656-1.067-.418-2h.477c0 .867.358.8.418 1.533-.239.134-.358.334-.477.467"/>
            <path fill="#E12184" d="M209 171v-1 1z"/>
            <path fill="#00833E" d="M21.609 168l-.609-.389c.087-.222.348-.389.522-.611.435.222.956.389 1.478.667-.609.11-1.043.222-1.391.333M44 168c.845-3 1.183-4 3.296-6 .084.455.338 1 .507 1.545.676-.181 1.436-.454 2.197-.545-.085.455-.169 1-.169 1.545-1.352.637-1.352 2.455-3.127 3.455-.338-1.455-.338-1.455-.676-1.636-.93 1.09-.93 1.09-2.028 1.636M27.846 168c-.923-1.775-1.538-3.127-1.846-5.07.846.422 1.538.676 2.462.507.076.422.153.93.307 1.436.385-.084.846-.084 1.308-.084 0-.676.077-1.437.154-2.113.154 0 .461 0 .769.085.154.845.385 1.605.615 2.45.308-1.014.539-2.028.847-3.042.153-.084.384-.169.538-.169-.154 1.69-.385 3.465-.538 5.155a4.6 4.6 0 0 1-2.924-1.014c-.384.253-.307.76-1.692 1.859M37.867 168c-.15-1.366-.15-1.366-.746-1.963-.97 1.536-2.61.939-4.028.597-.299-2.475.149-3.33.97-5.634h.596v1.878c.075-.17.299-.427.448-.598.522.598.447 1.196.447 2.05.597-.684 1.269-1.452 1.865-2.05-.298.94-.522 1.964-.82 2.988 1.492 0 2.76-3.158 4.401-3.329-.224 2.049-1.865 4.61-3.133 6.061M23.818 168c-.34-.615-.545-1.308-.818-1.846.136-.077.41-.154.682-.308v-.77c.136-.076.34-.076.545-.076 1.296 1.538 1.296 1.538 1.773 2.923-1.09-.077-1.16-.461-2.182.077"/>
            <path fill="#00833E" d="M40 166c.142-.941.356-1.765.57-2.588.426-.118.924-.294 1.422-.412.071.647-.356 1.176-.356 1.706.071 0 .143.059.285.118-.142.058-.356.117-.498.235v.47A9.584 9.584 0 0 0 40 166M49.161 167c-.08-.4-.161-.8-.161-1.257.323-.286.565-.572.968-.743 1.048.743 2.58.8 4.032 1.086-.08.114-.161.343-.161.571a61.177 61.177 0 0 0-4.678.343M58.154 167c-.923-.3-.923-.3-3.154-.4v-.6c1.538 0 3.154.05 4.692.1.077.1.154.3.308.5-.692.1-1.308.2-1.846.4M44 166h1v1h-1zM46 166h1v1h-1z"/>
            <path fill="#FFF" d="M227.91 164c-.549-2.346-.47-4.3-.157-6.646l-2.82-1.407c-.47.781-3.053 5.473-4.933 4.613 0-2.893 2.271-4.144 1.88-7.194 2.975-1.642 5.951-3.362 9.006-4.926 3.837-3.284 3.837-3.284 4.62-3.44 0 .313 0 .547.078.86.314-.078.549-.078.862-.078.626.625.861.782 1.723 1.016v1.799c1.8-.626 1.8-.626 2.976-.782 0 .469 0 .938.078 1.485 1.566 0 3.524 2.033 4.777 2.893-.078 1.095-.783 1.955-1.566 2.502.391 1.955.783 3.91 1.253 5.943-.862.156-1.567.39-2.35.547 0-1.407-1.8-3.206-2.506-4.222-4.307-.47-2.897 3.675-2.976 6.411h-1.488c-1.253-3.753-1.644-6.411-5.638-4.77-.548 1.174-1.41 4.927-2.82 5.396M159 159h1v1h-1zM285.263 158a370.153 370.153 0 0 1-1.736-7.733c-.076-3.202.604-6.092-2.417-7.107-.377.78-.377.78-.83.859.906 2.265.906 2.265 2.038 4.14-2.038 0-6.645-3.671-8.683-4.843 0 .781.528 1.328.453 1.875-1.888-1.484-2.945-3.437-3.247-5.858-1.208-2.5-1.208-2.5-3.851-6.64-1.586-8.357-.604-17.417-.302-25.93-1.284-3.984-3.7-7.187-6.494-10.077-.151.078-.378.157-.453.313-.453-.781-.453-1.094-1.435-1.328-.377-.86-.83-.937-1.586-1.25-.15.313-.377.547-.528.86-.151-.547-.378-1.016-.453-1.485-1.812.47-2.794-.546-4.606-.859-.378.469-.755.938-.982 1.406-.075-.859-.151-1.562-.151-2.343 10.27 0 15.706 4.843 19.18 14.762-.378 15.543-.378 15.543-.076 24.447.378 2.5 2.794 3.75 4.606 5.234 6.343.468 9.892 1.484 13.29 7.342-.076.156-.076.468-.076.78-.906-.312-1.057-.156-1.812.157 0 2.265 1.208 3.28 1.812 5.311-.302.078-1.812-2.89-2.34-3.202-.076 3.593 3.775 7.889.68 11.169"/>
            <path fill="#00833E" d="M14.357 156c-.5-.889-1.5-.815-2.357-.815 0-.37.5-.444.5-1.185 1.286 0 1.857.815 2.5 1.926h-.643"/>
            <path fill="#00833E" d="M15.2 156c-.8-.9-1.2-1.35-1.2-2.625.467 0 .467 0 1.267.975 0-.45.066-.9.133-1.35.867.6 1.133 1.5 1.6 2.625-.6.075-1.2.225-1.8.375M21.16 157c-.82-.982-.969-.982-2.16-.714V152c.596.179.596.179 1.34 1.518.373-.179.745-.447 1.192-.625.074.446.298.893.447 1.428.819-1.25.819-1.25.968-2.232h.521c-.074.982-.074 1.965-.074 2.857.819-1.16.819-1.16 1.861-2.053.596.714.596 1.696.745 2.768-1.191.803-3.202.714-4.84 1.339M31 155v-.667c.583-.083 1.333-.166 2-.333v.667c-.75.083-1.417.25-2 .333M27.3 155c-.075-.452-.15-.903-.3-1.29l.825-.71c.15.387.375.774.525 1.161.375-.064.75-.129 1.05-.129.15.258.375.452.6.71-.9.064-1.8.129-2.7.258"/>
            <path fill="#FFF" d="M160 154h1v1h-1zM281.407 151c-.518-.733-.963-1.333-1.407-2 1.111.333 1.407 1 2 2h-.593"/>
            <path fill="#231F20" d="M240 150c.182-.375.455-.688.636-1 .091.063.182.25.364.375-.364.188-.636.438-1 .625"/>
            <path fill="#FFF" d="M278.429 150c-.5-.733-1-1.333-1.429-2 .571.133 1.214.333 1.857.467 0 .4.072.8.143 1.266-.214.134-.357.2-.571.267"/>
            <path fill="#231F20" d="M205.125 147a1.743 1.743 0 0 1-.125-.444c.875-1.037.938-.963 1.938-1.556 0 .148 0 .444.062.74-.625.371-1.25.816-1.875 1.26M215 147c.276-1 .966-1.444 2-2-.276.611-.276.611-2 2M203 147c0-1.167 1.12-1.5 1.92-2 0 .167 0 .5.08.833-.64.417-1.28.75-2 1.167M210 147c.4-.77.8-1.385 1.267-2 .266 0 .466 0 .733.077-.6.923-1.133 1.461-2 1.923M212 147c.679-.71 1.296-1.355 1.975-2 .247.968-1.42 1.677-1.975 2"/>
            <path fill="#231F20" d="M216 146c1.733-2.077 1.733-2.077 2-1.959-.133.89-1.133 1.78-2 1.959"/>
            <path fill="#FFF" d="M52.538 146c-3.058-2.692-3.058-4.538-3.92-8.692h.548c.393 2.461.393 2.461.941 3.692h.47c-.078-1.923-.783-3.615-.783-5.538-.628-.616-.628-.616-1.725-.924-1.255-3-2.98-5.538-5.175-7.923.47-.461.157-1 .078-1.615-1.333 0-1.882-.308-2.9-.923-.393.154-.785.385-1.02.615-.627-.384-1.255-1.23-2.039-.846-2.43-1.923-7.213-8.077-3.293-10.692 0 .615 0 1.308.079 2h.784c.078-.385.313-.77.47-1-.314 3.384-.314 3.384-.078 3.461 1.333-2.692 1.019-5.307.47-8.384-2.587 1.538-2.587 1.538-5.253 3.692-1.804.077-3.45.154-5.175.385-5.724-2.539-6.822-5.616-9.017-11.308 4.626-.385 14.82 5.846 18.504.923-.392-.154-.784-.308-1.097-.385 4.234-2.923 4.626-5.153-.157-7.692-.079-.461-.157-.923-.157-1.308.392-.076.784-.076 1.254-.076.157-.77.392-1.462.55-2.231.313-.077.627-.077 1.019-.077l1.41-2.77c2.51 0 7.058-2.538 9.331-3.384.157.308.157.308 2.353.538 0 .308 0 .539.078.847 1.333 0 2.588.077 3.92.153.157.847.157.847-.078 1.847.549 0 1.098.077 1.647.153-.55 1.385-.55 1.539.784 2.231-.784 0-1.49.077-2.274.154 1.02 1.77 1.02 1.77.94 2.385-1.646-.77-2.9-1.539-4.782-1.539 0 .154 0 .385.078.616 2.43.769 2.117 1.615 2.43 3.846h-.47c-.47-1.462-.784-1.846-2.117-2.385-.47.385-.94.846-1.332 1.308-1.02-.462-1.49-.616-2.745-.616.392.847.784 1.539.55 2.462-.628-.615-.628-.615-2.98-1.385v2.77c-.47-1-1.255-1.077-2.274-.923-.079.384-.157.769-.314 1.23-.627-.384-1.333-.615-1.882-.923-.078.308-.078.539-.078.846.549.308.549.308 1.803 2.231.784-.538.784-.538 1.333-1.923.079.077.314.154.47.308v2.923c.158-.385.393-.77.628-1.077.862-.077 1.647-.154 2.509-.154v-1.077c-.314-.077-.47-.154-.627-.308 0-.461 0-.923.078-1.307.549.077 1.098.307 1.804.461.156-.538.392-1.077.627-1.615.157-.077.47-.154.784-.154.078.385.157.846.392 1.308h1.02c.156-.616.391-1.308.548-1.923h.941c.627 2.307.627 2.307.627 3.307 1.412-.461 3.058-1.769 3.529-3.153 2.43 0 5.88 7 7.056 9.076.079 1.847.392 3.693 0 5.539-1.411 0-2.352-.615-2.9-1.77.548-.076 1.097-.076 1.803-.076 0-5.231-1.177-10.693-7.528-9.923-.94 3.846.157 6.923 2.745 9.923 2.274 1.692 2.274 1.692 2.9 2.538 4.156 1.308 4.156 1.308 9.802 2.462-.314.769-.314.769 0 1 7.292-5.077 11.526-3.154 12.545 5.538-1.803 5.231-5.88 5.385-11.212 5.846-2.039 1.462-3.45 2.923-4.783 5.077-9.017 6.539-21.562.462-16.387-10.769.47 0 .94 0 1.411.077.392-1.23.392-1.23.157-1.538h-2.43c-3.843 5.384-2.432 8.23 1.097 13.461 1.568 1.077 3.293 2.23 4.94 3.385 1.881 4.23 4.782 8.538 10.428 6.615.47-1.077.862-1.846.549-3-1.647-.846-1.804-4.077-.863-5.538.941 2.923 1.725 5.692 2.039 8.692-2.51 5.077-8.39 1.538-11.056-.846 0 .923 0 1.846.079 2.846-.863.692-.863.692-2.431.923"/>
            <path fill="#231F20" d="M208 147c.48-1.185.8-1.481 1.92-2 0 .296 0 .519.08.889-.64.592-.64.592-2 1.111M219 146c.16-.971 1.04-1.371 1.92-2 0 .229 0 .4.08.686-.64.4-1.28.8-2 1.314M222 145c.5-.722 1.061-1.722 1.998-2 .062.889-1.124 1.833-1.998 2M116 146c.063-1.214.063-1.214.375-1.857.125-.072.375-.143.625-.143-.5 1.5-.5 1.5-1 2M118.099 146c-.15-.929-.15-.929.15-1.857.15-.072.45-.143.751-.143 0 .714-.3 1.5-.901 2M120 145c.083-.606.167-1.152.333-1.758.167-.06.417-.12.667-.242-.083.667-.167 1.273-.333 1.94H120M114 145c.1-.333.4-.667.6-1v.905c-.3 0-.5.047-.6.095M122 146c.083-.593.167-1.26.333-1.852.167-.074.417-.148.667-.148-.083.593-.167 1.333-.333 2H122M124 145c0-.571.083-1.143.167-1.643.166-.143.5-.286.833-.357-.083.5-.167 1-.167 1.571-.333.143-.583.286-.833.429M113 145c.083-.353.167-.706.417-1H114v1h-1"/>
            <path fill="#FFF" d="M138.604 145c.074-1.045.147-2.09.369-3.054-.443 0-.443 0-3.911 2.17-5.387 0-5.608-3.134-4.575-8.116a53.997 53.997 0 0 0-.369 3.616c1.992 2.17 2.583 2.17 5.387 2.41.959-1.365 1.918-2.651 2.877-4.017 1.181.804 2.288 1.527 3.542 2.41.37 2.733-.59 4.018-3.32 4.581"/>
            <path fill="#231F20" d="M225 145c.593-1.256.889-2.302 2-3 0 .977-1.333 2.233-2 3M125 143.952V143c.167.048.5.095.833.19 0 .239.084.524.167.81h-1"/>
            <path fill="#FFF" d="M60.061 143c-.061-.2-.061-.35-.061-.5.98-.2 1.96-.35 3-.5-.367 1.05-1.898.95-2.939 1"/>
            <path fill="#231F20" d="M227 144c.571-1.067 1.086-2.067 1.657-3 .057 0 .229 0 .343.067-.457 1.2-1.086 2.2-2 2.933"/>
            <path fill="#1991D0" d="M202 143h1v1h-1z"/>
            <path fill="#FFF" d="M58.045 142c-1.431-.894-2.045-1.149-2.045-3 .477.383 1.227 1.468 1.977 1.149-.068-.32-.136-.575-.136-.83C58.93 140.34 59 140.34 59 141.81c-.41.063-.75.127-.955.191"/>
            <path fill="#231F20" d="M231 142c.286-.977.571-2.023.905-3 0 .14.047.349.095.488L231 142"/>
            <path fill="#FFF" d="M134 141c.405-1.08 1.622-2.313 3-1.928 0 1.311-2.027 1.697-3 1.928"/>
            <path fill="#231F20" d="M233 139c.182-.941.545-1.824.91-2.765.363-.059.635-.117 1.09-.235-.364 1-.91 2.294-2 3M235 138c.235-1.49.47-2.98.764-4.47.236-.079.412-.157.647-.157 0 .392.059.784.118 1.098.47-1.49 1-2.98 1.47-4.471.058 1.804-1.706 6.902-2.999 8"/>
            <path fill="#FFF" d="M131 136h1v1h-1zM112.733 134c-5.727-2.481-6.346-5.737-6.733-11.63 1.78-3.489 6.5-2.248 9.829-2.713 2.012-1.629 2.012-1.629 3.637-3.49 3.792-.852 9.364 2.017 11.067 1.474-1.239-1.318-2.4-2.559-3.483-3.8.542-1.007 2.09-2.868 1.78-4.108h-.542c0-3.722-.387-6.668-2.94-9.227-.078-.465-.155-.93-.155-1.318.851-.077 1.702-.077 2.554-.077 0-.465.077-.853.154-1.24 4.412.387.929 4.419 2.013 7.83 1.315 1.396 2.708 2.869 4.101 4.342 1.393-.31 2.786-.465 4.257-.62.31-.776 0-1.629-.078-7.676-2.09-2.791-3.637-4.652-7.12-3.49 0-.62 0-1.24.078-1.782.851-.078 1.625-.155 2.554-.155.077-.31.154-.543.31-.776 1.934 1.55 3.327 3.49 4.875 5.428.541 1.473.541 1.473.928 1.473.31-2.87.31-2.87 0-3.877-1.78-.853-2.09-2.248-2.553-4.187 5.107.155 5.107.155 6.346-.155.077.93.077.93-.542 2.249 5.804-.853 8.745-6.978 11.84-11.475C157 85 157 94.149 157 96.01c-1.548 5.66-5.34 5.272-10.912 5.737-.774-.465-.929-.62-1.935-.62-.155.31-.31.542-.387.93.62.62.852.93 1.858.93.077.466.31.93.464 1.396-.31 0-.542.077-.851.155 0 .31.077.543.155.93.85.078 1.702.31 2.476.466-.155.155-.387.465-.464.775 1.78 2.558 2.554 5.194 4.875 7.21-.31-4.419-.31-4.419 0-5.35-.619-.387-1.315-.62-1.935-.93 4.721 0 4.102 3.954 4.49 8.064-2.323 3.256-5.34 5.814-8.514 8.218-.619 1.938-1.315 3.876-1.857 5.892-1.006 0-1.084-.077-1.858-.542.31-1.318.465-3.18 2.013-3.334.387-2.249.774-4.42 1.083-6.59-1.316-2.87-3.328-3.955-3.87-6.823-.85.31-1.547.542-2.321.853-.542 1.938-.542 1.938-.464 2.946 2.476-3.722 4.798 4.186 5.185 5.35-1.548 5.582-3.25 6.28-8.59 7.598-3.715-.078-7.43-.078-10.99-.078-3.947 1.473-7.584 4.032-11.918 4.807"/>
            <path fill="#231F20" d="M201.813 134c-.994-1.007-2.216-1.936-2.445-3.33-.84-.386-1.68-.619-2.368-.928 0-4.259.993-6.35 5.347-6.35 3.667-.928 3.132-.309 5.195 2.943.458 1.78.458 1.78.458 4.103-3.896 2.4-3.896 2.4-6.188 3.562M81 131c.308-.368.538-.684.923-1 0 .21 0 .368.077.632-.308.105-.692.21-1 .368"/>
            <path fill="#231F20" d="M80 131c.667-.684.833-.684 2-1-.083.579-1.417.79-2 1M169 127h1v1h-1zM111.093 127c-.837-1.06-2.093-1.708-2.093-2.887 1.535-.294 1.674 0 3 .707v1.59c-.28.178-.628.354-.907.59"/>
            <path fill="#1991D0" d="M44 127.4c0-.1.1-.2.2-.4-.1.2-.2.3-.2.4"/>
            <path fill="#231F20" d="M167 127v-.81c.167-.047.417-.095.667-.19.083.286.166.619.333.952h-1M168 127v-1c.1.059.4.118.6.235-.3.765.6.765-.6.765M165.186 127c-.093-.522-.186-1.043-.186-1.565.093-.174.372-.348.558-.435.558.522.465 1.13.372 2h-.744M61.898 126c-.339-.813-1.695-1.438-2.712-1.875-.17.125-.423.313-.593.5A2.014 2.014 0 0 0 58 124.5c.17-.5.508-1.063.847-1.5 1.187 0 1.865.25 3.051.5.34.813.678 1.625 1.102 2.438h-1.102M164 126c.312-1.311 1.25-2.185.937-1.967.078.583.078.583-.468 1.821-.235 0-.39.073-.469.146M122.29 124.923c-.537-2.23-.336-3.77.67-5.77.468-.076.937-.153 1.54-.153.336 1.23.67 1.462.403 2.77-.805 0-.805 0-1.14.307-.067.923-.067 1.923-.067 2.923h-1.407"/>
            <path fill="#FFF" d="M159 125c.4-1 .4-1 .8-1v1h-.8"/>
            <path fill="#231F20" d="M38.745 123c-.745-1.698-.652-3.113-.745-5 .186 0 .466.094.745.189.186 1.98.466 2.924 0 4.811M40.09 121c-.454-.516-.726-1.032-1.09-1.484a3.697 3.697 0 0 1 1-.516c.364.387.636.774 1 1.161-.364.645-.364.645-.91.839M55 123c.482-5.385 6.509-8.65 9-3.178-5.464-.794-5.304-1.677-9 3.178M91.89 122c-1.28-1.62-2.286-3.15-1.737-5.4 3.292-1.62 4.847.18 4.847 3.69a34.165 34.165 0 0 0-3.11 1.71"/>
            <path fill="#00833E" d="M280 119c.286-1.05.571-2.1.914-3 .915.75.915 1.2 1.086 2.475-.743.15-1.429.3-2 .525M292 120c0-2.034.368-3.39 1-5 0 2.373-.158 2.966-1 5M294 120a48.406 48.406 0 0 1 1.111-5h.926c-.37 1.827-.37 1.827-.926 2.308 1.296.48 2.593.961 3.889 1.538-1.76.385-3.426.673-5 1.154"/>
            <path fill="#231F20" d="M73.661 121c-.7-1.95-1.02-2.797-.063-4.83.446-.085.892-.17 1.402-.17-.255 1.525-.446 3.05-.701 4.576-.255 0-.51.17-.638.424"/>
            <path fill="#00833E" d="M286.333 119c-.166-.79-.333-1.658-.333-2.447.167-.237.417-.395.75-.553 0 .79.167 1.658.25 2.605-.25.158-.583.316-.667.395M291 117.941c.118-.941.176-1.823.294-2.647.177-.118.412-.176.706-.294v3h-1M284.294 117c-.118-.686-.176-1.371-.294-2 .176 0 .412.114.706.229.118.571.176 1.2.294 1.771h-.706M288 119c.2-1.635.4-3.365.7-5-.1 5-.1 5-.7 5"/>
            <path fill="#231F20" d="M37 119c0-1.026.1-2.053.2-3 .3 1.737.3 1.737-.2 3M150.1 117c-.1-.777.1-2.008-.1-2.785.25-.26.25-.26.7-.13.05.454.2.907.3 1.36-.25 0-.4 0-.6.065 0 .454.05.907.1 1.49h-.4M45.862 116v-1.457c-5.444-2.427-6.098-8.092-3.049-12.543 5.88 0 6.243 7.04 7.187 12.058-3.121 1.133-3.121 1.133-4.138 1.942"/>
            <path fill="#FFF" d="M122.544 115v-.683h-.911c-.304-2.883-1.215-7.51-.076-10.317h.608c-.76 3.414-.152 5.614.835 8.8-.152 2.2-.152 2.2-.456 2.2"/>
            <path fill="#231F20" d="M54 115v-1c.2.083.5.167.7.333-.4.667-.4.667-.7.667"/>
            <path fill="#FFF" d="M46.588 114c-.412-.548-.588-.783-.588-1.722 2.765-2.739 0-3.756.412-6.887.235-.156.412-.313.647-.391 2.117 2.504 1.823 4.226 1.941 7.983-.412.47-.412.47-2.412 1.017"/>
            <path fill="#231F20" d="M54 114v-1h.8c-.5 1-.5 1-.8 1"/>
            <path fill="#FFF" d="M124.418 113c-.39-1.186-1.692-3.56-1.366-5 .846 1.102 1.692 1.356 2.928 1.356.13 2.034-.39 2.712-1.562 3.644M111.778 113c-2.956-1.472-9.879-6.972-7.156-11 3.033 0 6.222 2.479 9.489 3.021 1.322-.077 2.567-.077 3.889-.077-.078.31-.156.62-.156 1.007-4.122 2.091-6.689-1.317-10.422-.852-.078.077-.156.31-.311.464.855.465 2.022 1.24 2.022 2.324 3.267 1.317 4.9 2.014 8.323 2.247-.078.465-.078.93-.078 1.394-1.556.93-3.578 1.24-5.6 1.472"/>
            <path fill="#231F20" d="M27.792 112c-2.49-.846-6.113-3.308-6.792-6 2.189.308 3.623 1.308 5.434 2.385 1.66.077 5.434-.308 6.566.153-.528 2.385-3.245 2.924-5.208 3.462"/>
            <path fill="#FFF" d="M56.645 111c-.451-.691-.451-.691-.645-2.074 1.097-.95.387-3.543.129-4.926h.839c.903 1.21.838 4.407 1.032 6.05-.387.345-.839.604-1.355.95M134.25 109c-.333-.452-.333-.452-1.917-1.28-.833-2.032-1.333-3.236-1.333-5.419.333-.075.583-.15.917-.301.333 3.387 1.75 3.839 5.083 4.667v.602c-.917.602-1.833 1.204-2.75 1.731M45.467 109c-.4-.4-.4-.4-.467-1 .133 0 .333.05.533.1.134.3.334.6.467.9h-.533"/>
            <path fill="#231F20" d="M71.467 108a5.577 5.577 0 0 0-.467-.929c.267-.071.467-.071.733-.071.067.357.134.714.267 1h-.533M73 107.938c0-.376.083-.688.167-.938.166.063.5.125.833.25v.75h-1M75 108v-1h.636c.091.118.182.294.364.47-.364.177-.727.354-1 .53M78 108h1v1h-1z"/>
            <path fill="#FFF" d="M149 108h1v1h-1zM43 107c.154-.995.385-1.92.615-2.915.77-.142.77-.142 2.385.284-.538.64-2.154 2.418-3 2.631M123 106c.09-.714.182-1.357.364-1.929.545-.071 1.09-.071 1.636-.071v.786c-.727.357-1.364.785-2 1.214M55 105c0-1 0-1 .4-1 .1.167.2.417.4.667L55 105M112.2 102.7c-.05-.2-.1-.5-.2-.6.3-.1.65-.1 1-.1-.25.2-.55.4-.8.7M30 102h1v1h-1zM53.28 102c-.07-.357-.14-.625-.28-.893.698-1.428 1.326-1.25 2.581-.714.07.447.28.893.419 1.25-.837-.179-.837-.179-2.72.357"/>
            <path fill="#FFF" d="M31.813 103c.31-.464.543-.928.853-1.391-7.908 0-11.087-2.396-10.622-10.049.776-1.855 1.473-3.014 2.791-4.56 0 4.947-.387 7.42 3.412 10.59 3.644 0 6.512-.387 7.753 3.246-.543 1.16-2.869 2.087-4.187 2.164M61.588 103v-1.64c.31 0 .544 0 .933.083 1.4-2.46 2.177-5 2.877-7.705-.078-.164-.156-.328-.311-.41-2.333 2.95-4.355 4.344-8.087 4.59.078-.41.156-.656.311-.984 4.743-1.393 5.599-7.459 9.875-8.934 1.245 7.705 2.1 12.213-5.598 15M131 101c.071-.35.143-.7.286-1 .5 0 1.071 0 1.714.05-.071.2-.071.35-.071.6-.786.1-1.358.25-1.929.35"/>
            <path fill="#231F20" d="M168.046 101v-1.678c4.202-2.746 3.968-3.814 4.513-8.466-.856-2.364-1.634-4.653-2.49-6.94 0-7.094 5.913-7.17 11.36-5.569 1.4 2.441 3.735 8.085 7.236 8.085-.622-.839-.622-.839-.778-1.907 4.124 1.602 4.124 1.602 4.357 1.45-.545-.84-.545-.84-.467-1.373 1.634.381 1.634.381 2.88.305-.545-.534-1.09-1.068-1.557-1.602 1.79-.152 1.79-.152 2.879.153v-1.22c-1.556-1.297-2.879-2.289-4.669-3.28.934-.305 1.868-.534 2.88-.763-3.035-1.83-6.692-.992-10.038-.534-5.835-2.517-8.714-3.203-14.472-.381-3.268 5.11-1.634 7.627.078 13.576 0 3.737-2.023 8.313-5.758 9.763 0-.305.078-.534.156-.84 1.945-1.296 2.567-2.898 3.657-5.033 0-8.924-4.747-17.314 6.847-20.746 4.279 0 6.769.992 10.893 2.364 7.625-.38 9.414-.533 12.449 6.407.467.458 2.334 2.517 1.945 3.356-.856-.152-1.634-.305-2.412-.381-1.011 2.06-7.625 1.754-9.648 1.907-3.89-1.678-5.602-5.034-7.547-8.467-1.79-.38-3.502-.762-5.214-.991-6.691 3.432-3.19 7.703-1.4 13.576.078 4.576-1.478 7.551-5.68 9.229M146.019 100c-1.72-.726-1.72-.726-2.019-1.234 2.916-2.177 6.13-4.355 7.402-7.766.15 0 .374.073.598.145-.972 3.992-1.57 8.13-5.981 8.855"/>
            <path fill="#00833E" d="M276.207 98A56.442 56.442 0 0 1 274 96.684c.913-.614.913-.614 3.728-.877 0-.439 0-.877.152-1.316.533.176 1.066.439 1.674.702.38-.702.913-1.491 1.446-2.193v4.561c-1.674.088-3.272.264-4.793.439M282 97c.288-4.846 1.38-8.076.863-.449-.288.18-.575.27-.863.449M284 96c.214-3.385.714-3.923 3-6-2.429 5.692-2.429 5.692-3 6M286 97c.325-1.437.65-2.873 1.106-4.31.976 0 1.3-.676 1.886-1.69.13.845-1.43 4.31-1.626 5.577-.455.085-.91.254-1.366.423"/>
            <path fill="#FFF" d="M119.61 101c-.077-.64-.154-1.36-.307-1.92-.613-.16-1.226-.32-1.762-.4-1.839-4.32 1.379-7.2 4.137-10 1.226-.32 2.375-.48 3.677-.64.077-.4.153-.8.383-1.04 1.686.16 3.294.48 4.903.8.154-.32.383-.48.613-.64 1.915.64 3.83 1.36 5.746 2 0 2.16-1.379 4.08-2.452 6-.842 0-1.455-.64-1.915-1.36-1.379 1.12-2.988 1.6-4.213 2.88-.767 0-1.073-.56-2.299-.48-.383.64-.766 1.36-.996 2.08-.842 0-.842 0-1.762-.64-.613.88-.613.88-1.072 3.04-.613-.16-1.226-.4-1.762-.56-.23.56-.23.56-.92.88M53 98c.182-.733.545-1.333.91-2 .363.133.635.4 1.09.667-.09.333-.09.666-.09.933-.728.067-1.365.267-1.91.4M113.974 96v-.522c-2.606-.894-3.237-2.31-4.974-4.174.316-3.503-.079-5.664 3.395-7.304.079.075.316.15.473.373-1.815 6.41 2.132 5.962 2.132 11.18-.316.074-.71.298-1.026.447M139 93c.08-1.462.567-2.385 1.943-3 3.156-5.538 2.913-7.462-1.134-12 7.447 0 9.875 7.538 7.042 12.923v-2.461c-.324-.077-.485-.154-.647-.154l-.89.846c-.81 2.615-3.481 3.615-6.314 3.846M57.919 90c-.568-.775-1.054-1.394-1.54-2.014 1.053-2.711.891-3.486-.893-6.042C52 79.387 52 79.387 52 79c1.054.077 2.108.155 3.324.387 2.19.93 4.703 1.86 5.676 3.796-.486 2.247-.973 4.57-1.46 6.817H57.92"/>
            <path fill="#000" fill-rule="nonzero" d="M146 86c.1-.364.2-.636.4-1 0 .636 0 .636-.4 1"/>
            <path fill="#231F20" d="M161.553 86c-.616-3-1.007-4.75.447-7v7h-.447M109.642 69v-.708c-6.416-.471-6.416-.471-9.353-1.1 0-.315 0-.315 2.55-1.18.233-1.022.387-1.886.696-2.751-9.043-2.123-17.855-4.639-27.13-5.032-.078-.236-.233-.393-.31-.629-15.382-2.752-30.146-5.032-45.682-6.761-8.426 0-16.851-.393-25.199-1.651-.31-.236-.618-.394-.773-.472 0-5.66-2.628-18.87 4.947-20.127v.708c3.633 1.1 6.338 1.415 7.498-3.381 2.01-.236 4.328-1.18 5.179-3.302 6.956-1.651 4.483 1.18 8.657 4.874 1.778-.707 2.319-1.1 4.329-.786 1.468 2.201 1.777 3.145 2.55 3.931.619-1.18 1.16-1.494 2.32-2.123v-.707h.695v-.63h.696c.231-.864.231-.864 1.932-3.694 2.473-.079 4.174-.236 6.184-.708.386 1.966.695 4.088 1.855 5.66h1.468c.464-1.021.773-.785 1.856-1.021v-1.651c2.319-.787 3.478-1.258 5.951-.708.619 1.18 1.16 2.359 1.778 3.538 1.237 0 2.087.314 3.015 1.1v9.592c2.473 0 5.565-1.1 8.193-1.258.387 2.36.773 4.796 1.237 7.234.387 0 .85.078 1.391.235 1.469 3.067 6.957-4.56 9.353.472h1.005c.077 1.808.077 1.808 1.16 4.953 2.628 0 4.02-1.965 7.034-1.65 1.082 1.965 1.623 4.009 2.705 5.581 2.55-1.179 3.788-1.494 6.648-1.258.386 1.101.773 2.202 1.236 3.381.31-.079.696-.236 1.082-.314.078-.315.232-.472.31-.708h.618c.464-1.1 2.319-4.639 2.01-5.74-.85-.078-1.778-.235-2.628-.235-.31-.393-.464-.786-.696-1.1-1.778-.08-3.092 1.021-4.715-.237-.696-1.415-.696-1.415-1.16-4.796-.309-.078-.463-.235-.695-.314 0 .629.077 1.258.232 1.965-.232 0-.387.079-.619.236-1.855-1.887-2.473-1.258-5.256-.707-1.391-1.887-1.623-2.359-2.164-4.796h.695c-1.623-3.38-4.792-1.966-3.014-6.84 1.005-.865 1.005-.865 1.778-1.1-.078-.787-.232-1.573-.31-2.36-2.164-1.179-2.164-1.179-2.55-1.886.077-1.651-.078-3.46 1.468-4.01v-2.988c.464-.314 1.005-.629 1.469-.786 2.55-3.066 4.174-3.46 8.039-2.752 1.237-.393 1.546-1.65 2.241-2.751 2.551-.865 4.947-1.887 7.498-2.28V12h1.005c1.546 2.673 2.937 2.123 5.875 2.28 1.082 2.123 1.082 2.123 1.236 3.066.85-.236 1.778-.314 2.628-.393.078-.393.232-.786.31-1.18.618-.392 1.16-.707 1.778-1.021 6.029.707 7.188-2.752 9.97 3.852 3.015.472 5.489 1.651 8.194 3.066-.309 1.101-.232 2.91-.695 4.56 1.777-.078 1.777-.078 3.633.315 0-.236.077-.393.231-.63.232.08.464.237.773.315-.077 1.573-.232 3.145-.232 4.796-.772 2.516-2.86 5.818-2.86 8.413.31.314.696.629 1.083.864 0 1.101.077 2.28.232 3.46-2.629 2.123-5.952 3.145-7.42 6.29h-.62v.628c-3.478.708-7.729.472-11.44.787-1.236.707-1.236.707-4.096 1.415-.618-.472-.618-.472-.773-1.18-1.005-.078-1.932-.235-2.937-.314-.85 2.988-.85 2.988-.773 4.403.386.078.773.236 1.237.393 1.468-.708 2.241-.708 3.787-.786 1.546 3.302 3.247 3.773 6.57 4.088 6.03-1.1 22.185-1.966 26.281-8.334h.696v-.707c1.237-.472 1.855-1.101 3.324-1.101.773.786 2.01.472 3.092.078v-.707h.695v-.63h.696c.618-1.572.618-1.572 3.865-6.682h.618c1.16-3.38 4.174-1.022 6.416-1.258 0-2.987 8.193-8.963 10.667-8.334.618.865 1.16 1.809 1.778 2.674 1.082.078 1.082.078 3.323-.708v-.629c1.469-.786 1.469-.786 4.174-1.415 1.082 2.28 2.165 4.56 3.324 6.918h1.005c-.232-2.122-.31-4.166-.387-6.29 2.86-.628 4.947-.785 7.885-.628.386.865.386.865.463 4.01 3.324 0 4.406-1.966 7.19-3.067v-.629c1.545.63 1.777.708 2.55 2.28 4.406 0 8.503-6.132 11.749-.236.386-.471.386-.471 1.082-.471 1.546-3.145 3.092-4.796 6.338-5.19 9.43 1.809 19.015 3.539 28.6 5.347 1.392-.708 5.952-2.516 6.339-3.774h.695v-.472h.696c0-.314.077-.629.232-.786.773-.078 1.546-.236 2.319-.236 1.16 2.91 3.246 2.359 5.565 2.673.077-.471.232-1.022.31-1.415 1.39-.236 2.164-.707 3.632-.078.31 1.022.619 1.965.85 2.987.619 0 1.16 0 1.778.079 0 .236.078.393.232.629.387-.079.85-.236 1.392-.236.773 1.808 1.004 3.302 3.014 3.302 1.082-2.28 3.092-2.516 5.488-2.673v-.629c.464.079 1.082.236 1.7.314 2.706 7.076 2.629 3.931 8.426 2.674v-.708c1.005.472.696.865 1.546 1.887.31-.079.696-.236 1.082-.236 0 3.774 2.706 3.852 3.247 6.919h.695v2.594H311v1.022c-7.807-.472-20.716-2.987-28.213 0 1.082.63 4.947 2.123 5.333 3.38 1.005.237 1.933.394 2.937.63v.707c3.633.315 6.725 2.359 10.126 3.381.232.472.387 1.022.619 1.573-.464.078-.85.235-1.237.314v1.651c8.27.472 8.27.472 9.276.865-4.561.236-4.561.236-8.812-.079-1.16 1.573-1.005 2.91-.619 4.875.619.314 3.788 1.179 4.329 1.022.31.707.31.707 1.005 1.022-.077.393-.232.786-.31 1.18-5.565-.787-11.207-.394-16.85-1.102a27.31 27.31 0 0 0-3.633.236c1.778-3.538 4.792-.471 8.116-1.258v.63c2.164-.315 3.401-.865 5.566-.315.077-2.516.077-2.516-.31-3.931.232-.236.464-.315.773-.393-.386-.786-.695-.708-1.468-.865v-.708c.309-.078.618-.236 1.005-.314-.078-.393-.232-.786-.31-1.1.232-.237.387-.394.619-.473-3.788-1.493-8.967-1.022-12.986-.786v.708h-1.005c-.232-.393-.31-.786-.386-1.18-3.247-.393-6.416-.707-9.585-1.022-1.778.63-1.392 2.988-1.469 4.482.387.078.773.236 1.16.314-.387.236-.773.393-1.16.708.232 4.167.232 4.167.618 4.796 1.546-.079 3.092-.236 4.793-.236-.077.393-.232.865-.31 1.415-6.801.236-13.68.472-20.483.786-.31-.314-.618-.629-.773-.865 1.932-.314 3.942-.471 5.875-.707-5.875-2.988-14.532.629-20.948-1.808v-.708c.232.236.464.393.773.629.773-1.572-.696-3.145.31-4.796 0-1.415.077-2.752.231-4.088l-.618-.63c1.005-3.144.386-5.896-.31-8.962-7.343-9.749-7.343-9.749-7.42-10.3h-.696c-.772-1.257-2.241-3.459-4.019-3.065a488.558 488.558 0 0 0-9.43 15.016 247.524 247.524 0 0 0-.464 10.928c.232 0 .464.079.773.236-.31 1.258-.618 2.673-.773 4.089h1.005c0-.315.077-.63.232-.787 1.082-.078 1.855.315 3.4.079 0 .236.078.393.233.708h4.715c.31.707.31.707.773.864-3.015 1.494-8.503-.864-12.368.63-4.56.314-4.56.314-5.951 0a10.331 10.331 0 0 1 2.241-.472v-.708c1.005-.079 1.933-.236 2.937-.314 0 .235 0 .393.078.707.773-1.18.773-1.18.85-2.044-3.015 0-10.899.629-13.14-1.651 1.545-.472 3.246-.865 4.87-1.258-.078-3.145-.233-6.368-.233-9.513h-.618c-.387-.865-3.015-3.46-3.324-4.246h-.618c-3.71-4.166-3.71-4.166-3.942-4.953-.387-.078-.773-.078-1.082-.078-2.242 2.516-2.242 2.516-2.551 3.38h-.696c-2.242 3.46-4.715 5.74-4.174 10.221-.232.079-.386.236-.464.315.31 1.022.078 1.886-.386 2.909.232.786.386 1.572.618 2.515 3.092 0 6.184.079 9.198.865-4.947.63-10.048.472-14.995.393v-.629c2.241-.236 2.241-.236 3.633-.707v-1.1c-22.57 0-45.064 1.65-67.635 2.2-3.865.394-7.807.787-11.749 1.18 3.478 3.538 10.899 3.538 15.537 4.403v.628c-5.334-.786-10.822-1.965-16.233-1.65.078.471.232 1.1.31 1.65 1.545.158 3.014.63 4.328 1.494 1.392 0 2.86 0 4.329.079-3.788-.236-7.034.079-10.126.393"/>
            <path fill="#FFF" d="M105 67c1.556-6.007 4.175-11.46 6.713-17.151-.327-4.031-.327-4.031 0-5.454.328.87.655 1.818.901 2.687.246 0 .41.08.737.238 1.228-1.423 1.228-1.423 2.292-3.32h.9c.246.79.41 1.66.738 2.608 1.146-.395 1.146-.395 1.719-.316-1.72 2.292-3.52 4.584-5.158 6.876-.41 0-.737 0-1.064.08-.082.79-.246 1.58-.246 2.529-.491.079-1.064.237-1.474.316-.245.87-.409 1.818-.49 2.766.409-.079.818-.237 1.227-.237-.49 1.423-.9 2.924-1.31 4.426-.327-.079-.49-.237-.736-.316.49-2.055.49-2.055.49-3.715-1.064 2.292-1.964 4.584-2.865 6.956-.737.395-1.555.632-2.374 1.027M268.196 64.924c-2.194-.835-4.096-1.214-6.364-1.518-1.316-4.857-.658-10.321-.731-15.406 3.438 0 8.12 4.098 10.899 6.071 0 1.215-.658 3.871 0 4.858-.22.227-.293.379-.366.683.585 1.745-.073 3.567.293 5.388h-3.73M249.171 65c-.722-.457-.722-.457-4.171-1.22 0-5.26 0-10.596.08-15.78 1.845 0 3.61 0 5.455.076.08.229.32.381.481.61-.802 1.067-.802 1.067-1.123 2.516 2.166.076 5.294.838 7.22 0-.482-.839-1.043-1.754-1.445-2.592 2.407-.076 2.407-.076 3.61.305.24 1.83.401 3.659.642 5.565-.883 0-1.685.076-2.567.229.722.762 1.444 1.524 2.166 2.439-.321.076-.642.305-.802.457 0 .839 0 .839 1.042 2.669 0 1.22.08 2.515.241 3.811-2.246 0-6.898-1.067-8.503.458-1.203-.458-1.363 0-2.326.457"/>
            <path fill="#231F20" d="M293 61v-3c.3 0 .5.079.9.237 0 .71 0 1.42.1 2.21-.4.158-.7.395-1 .553M280.084 60C280 59 280 58 280 57c1.6 0 .842 2.133.673 2.867-.252 0-.42.066-.589.133"/>
            <path fill="#00833E" d="M113 59c.074-.83.223-1.596.298-2.362.372-.191.819-.255 1.34-.319v.83l2.01-.958c0 .192.075.32.224.511.373-.064.745-.191 1.192-.191.074-.192.223-.32.372-.511.075.383.224.83.373 1.277.297.063.595.191.819.255.074.255.223.574.372.894-2.383.127-4.766.319-7 .574M96.714 59c-.386-.23-.773-.383-1.082-.613-16.782-2.604-33.564-5.744-50.27-8.042-13.224-.996-26.293-1.915-39.44-2.911-1.547-1.915-.697-10.953-.62-13.94 1.393-1.303 2.94-2.375 3.48-4.213.31.383.62.842.851 1.379 1.315-.613 1.78.076 2.553 1.072 1.082-.23 2.165-.306 3.325-.383.31-1.762 2.63-2.91 2.397-4.672 1.006-.383 2.089-.766 3.171-1.15 1.856-2.144 2.088-2.297 5.027-2.527.077.23.232.383.31.613.231-.077.386-.23.696-.307.773 2.605 1.005 2.451 1.392 4.673.464-.077 1.082-.077 1.701-.077.232.23.387.383.696.613 1.701-.996 2.088-1.072 4.176-1.072v1.531c2.166 0 1.16 2.681 4.254 2.222a7.121 7.121 0 0 1 .773-1.532c.387-.077.773-.23 1.315-.23 0-.613.077-1.149.232-1.762.464-.076 1.005-.076 1.546-.076.31-.996.62-1.915.851-2.91 2.166-.307 2.63.076 4.95.382v1.149c.31-.077.618-.077.85-.077 0 1.915.31 2.528 1.16 4.06.696 0 4.177-.383 4.563-.69-.154-.23-.154-.382-.154-.459.85-.613.85-.613 1.701-.613.232-1.378.31-1.838 1.392-2.604l.773.766c.31-.306.62-.46.851-.69.232.077.387.23.619.307.077.69.232 1.455.387 2.221.077-.076.309-.23.464-.306.464.766 1.082 1.532 1.7 2.298h2.089c-.387.69-.696 1.379-1.005 2.144.232.077.464.23.773.307-.232 1.072-1.083 2.145-1.47 3.293h.465a18.986 18.986 0 0 0-.464 2.911c.386-.306.386-.306 1.314-.306.078.612.232 1.225.387 1.915 1.779-.23 2.63-.23 3.635-1.532 2.552.306 2.552.306 2.939.612.309-.383.696-.689 1.082-.995.232 1.455.232 1.455-.232 2.527.851.843.464 2.222.31 3.37.386 0 .773 0 1.314.077v1.15a65.93 65.93 0 0 1 4.795 1.378c0-1.226 1.934-1.685 2.862-2.145.077.077.309.23.464.383 1.16-.996 1.16-.996 1.933-1.072.232.69.387 1.379.619 2.068.386.076.773.23 1.16.383-.077.69-.232 1.455-.31 2.221.233 0 .387 0 .697.077v2.144c1.16 0 1.16 0 2.088.613 1.005-.613 1.546-.613 2.784-.613.464-.689 1.005-1.378 1.546-1.914.232.306.387.689.62 1.072.463-.23 1.005-.307 1.469-.383-.078.842-.078 1.762-.078 2.604.387 0 .774 0 1.315.077 0 .69 0 1.455.077 2.221 2.243.077 4.022.383 5.336-1.379.696 0 .696.383 1.083.996.31-.077.619-.23.928-.306v1.532c.232-.077.464-.23.774-.23 0 .69.077 1.379.232 2.144.386-.383.386-.383 1.546-.306.387.383.387.383.619 1.455H96.714"/>
            <path fill="#FFF" d="M212.716 59c-1.319-2.052-.412-6.403-.412-8.947 1.648 0 3.295-.329 4.696.656-1.071 6.978-1.071 6.978-1.565 7.798-.99.083-1.895.247-2.72.493M218.361 59v-.531c-.378-.2-.756-.332-1.134-.531-.076-.333-.227-.665-.227-.93 1.89-.133 2.647 1.46 1.361 1.992M137.236 59c-.079-.233-.236-.388-.236-.465 15.193-3.721 30.622-5.97 46.13-7.83 2.991-1.162 5.746-1.55 8.974-.852.078-.31.315-.62.472-.853.63 2.48.394 5.194.315 7.83-18.578-.078-37.077 1.472-55.655 2.17"/>
            <path fill="#231F20" d="M266.421 58c-.316-1.125-.316-1.125-.421-2.938.316-.062.684-.062 1-.062-.158.938-.21 1.875-.263 2.813-.105.062-.263.124-.316.187"/>
            <path fill="#000" fill-rule="nonzero" d="M252 58h1v1h-1zM255 58.8c.23-.5.23-.5 1-.8v.8h-1M233.1 58c-.1-.333-.1-.667-.1-1 0 .333 0 .667.1 1"/>
            <path fill="#231F20" d="M199 57v-7.683c1.484-.08 3.047-.238 4.61-.317.077 2.614.234 5.228.39 7.762-1.64 0-3.36.159-5 .238"/>
            <path fill="#000" fill-rule="nonzero" d="M235.194 57c-.269-.615-.269-.615.067-1 .336.077.336.077.739 1h-.806M240 56h1v1h-1zM253 55h1v1h-1z"/>
            <path fill="#E2231A" d="M289.021 56c-8.328-1.462-16.264-1.154-23.021-6.692 2.043 0 4.243 1.384 6.521 1.538v-.692c1.572.461 1.572.461 4.243.692 0 .23.079.385.236.692 1.257.308 3.143 1.231 4.479.847v-.616c-2.75-.769-5.579-1.538-8.329-2.307.079-.231.236-.385.314-.462 1.1 0 2.2.077 3.379.23v1c1.021-.076 1.964-.076 2.986-.076.078.154.235.461.314.77h1.964v-.386c-1.571-.307-1.571-.307-1.571-.615 4.871.385 7.543 1.615 11.943 3.23v.693c2.671.23 4.242.462 6.521 1.77-3.379 0-6.679.23-9.979.384"/>
            <path fill="#FFF" d="M200.25 55c-.333-3.62-.333-3.62 0-5 .25 0 .417 0 .75.086-.083 1.81-.25 3.276-.75 4.914"/>
            <path fill="#00833E" d="M151.31 54c-.077-.228-.232-.304-.31-.38.466-.077 1.009-.229 1.474-.305.854-3.728 4.5-2.206 7.138-2.587.31-1.445 1.164-1.75 2.328-2.587.232-.837.388-1.598.698-2.434 2.715 0 2.638-7.99 8.069-4.033 2.56-.685 2.56-2.054 3.414-4.337.62 0 1.163.076 1.862.228 0-.304 0-.608.077-.837.31-.076.621-.076.854-.076.077-.38.233-.685.31-.989 1.552-.38 2.948-1.826 4.423-2.663 1.086 1.065 1.784 1.217 1.784 3.043.466.229.466.229 1.009-.228.31.228.62.38.853.685.31-.457.698-.837 1.086-1.217.388 0 .776 0 1.164.076.62-1.37.62-1.37 1.241-1.75.233.228.466.38.776.684.466-.38 1.009-.76 1.474-1.065.078.685.31 1.37.466 2.055a3.7 3.7 0 0 1 1.164-.457c0 1.065 0 2.13.077 3.196.466 0 1.009 0 1.552.076 0 .76 0 1.522.078 2.282.465-.076 1.086-.228 1.629-.228-.466 3.044-3.724 5.555-5.664 7.913C157.284 52.86 157.284 52.86 151.31 54"/>
            <path fill="#000" fill-rule="nonzero" d="M255 54h1v1h-1z"/>
            <path fill="#231F20" d="M262 55c0-.545.077-1.182.23-1.727.232-.091.462-.273.77-.273a6.792 6.792 0 0 0-1 2"/>
            <path fill="#000" fill-rule="nonzero" d="M93 54.4c0-.1.1-.3.3-.4-.2.2-.3.3-.3.4"/>
            <path fill="#231F20" d="M285.276 53.6c-.07-.3-.207-.4-.276-.5.62-.1 1.31-.1 2-.1-.62.1-1.172.4-1.724.6M224 51c.237-.83.395-1.596.71-2.426h1.027V48c1.974.064 3.712.638 3.159 2.49-1.658.19-3.238.319-4.896.51M283 52h2v1h-2zM285 52h1v1h-1z"/>
            <path fill="#00833E" d="M120 51c0-.27 0-.487.065-.703 1.16-.324 1.16-.324 1.935-.27v.54c-.645.163-1.355.27-2 .433"/>
            <path fill="#231F20" d="M234 50c1.153-3.331 5.847-4.402 7-.535-2.47.178-4.776.297-7 .535"/>
            <path fill="#FFF" d="M225 50.9V50c.1 0 .4.1.6.3-.2.1-.5.4-.6.6"/>
            <path fill="#00833E" d="M117 50c0-.333.073-.722.22-1H120c-.073.167-.22.333-.22.556-1.463.11-1.463.11-2.78.444"/>
            <path fill="#FFF" d="M234 50c.048-.615.19-1.154.286-1.77.238-.076.476-.23.714-.23-.143.462-.19 1.077-.238 1.615-.286.231-.524.308-.762.385M254.286 50c-.072-.375-.215-.688-.286-1 .643.188.643.188 1 .813-.214.062-.5.124-.714.187"/>
            <path fill="#E2231A" d="M212.648 50c-.152-.367-.38-.587-.456-.807-.683-.44-9.415-8.8-9.188-10.193 5.999.66 11.922 1.32 17.996 2.127-.076.22-.152.586-.152.953-.683.147-1.367.367-2.05.587-.152.366-.228.733-.38 1.173-.759-.44-1.518-.807-2.278-1.173-.151.22-.38.513-.531.806.455.147.835.367 1.367.587l.227 1.54c.152 0 .38.073.608.147-.076 1.246-1.215 3.006-.532 4.106-1.518-.073-3.113 0-4.631.147"/>
            <path fill="#00833E" d="M123 50v-1h.9c-.4.308-.6.615-.9 1M125 49v-1c.333.056.667.167 1 .222-.067.167-.2.278-.2.5-.267.056-.533.111-.8.278"/>
            <path fill="#00833E" d="M128.259 49c-.078-.686-.233-1.22-.31-1.83 2.017-1.144 4.732-1.449 5.896-3.355.077-2.517.077-2.517-.62-5.948-.389.076-.7.229-1.01.381 0 2.212-1.086 3.432.078 5.414-2.172 1.068-5.896 3.813-7.526 1.373-1.008 0-1.008 0-1.551.381-.078-.686-.078-1.372-.078-2.059-2.017-.762-4.888-.381-7.216-1.067v-1.525c-1.551.61-2.715.457-4.577.61-.62 1.22-2.25 1.83-3.724 2.135-.078-.458-.233-.991-.31-1.373-.621 0-1.087.077-1.552.229-.233-.458-.31-.839-.388-1.22-.621.076-1.164.229-1.785.305-.077-.763-.233-1.449-.233-2.135-2.56-.305-4.344-.839-2.715-3.431-.078-.305-.233-.61-.233-.763-2.25 2.44-1.474 4.88-2.172 7.93-.233-.305-.388-.61-.62-.762-.466 1.067-2.561.839-3.647.762a.785.785 0 0 1 .387-.457c-.465-.229-1.008-.381-1.396-.61.233-1.45.465-2.898.776-4.347-.62-.38-1.164-.686-1.63-.99-1.008.762-1.862 0-2.637-.458-.233-2.44 1.396-2.517 2.25-4.118.077-1.373.232-2.669.387-4.041-.775.076-1.474.228-2.172.305-.078-.458-.078-.992-.078-1.45-.31-.076-.62-.228-.853-.228.466-1.144.698-1.906 1.862-2.288-.078-.762-.233-1.525-.31-2.211.232-.076.465-.076.776-.076.232-.458.388-.991.62-1.449 1.086 0 3.026-1.754 4.112-2.44.776.076 1.552.229 2.483.305.078.229.31.457.466.762.698-.305 1.474-.457 2.25-.686 0-.762.077-1.449.232-2.135 1.63-.762 3.725-1.144 4.966-2.44 1.63.305 1.63.305 3.414.229 1.008 1.982 2.715 1.83 4.577.991 1.242 1.601 2.25 2.44 4.035 3.279 3.026-2.211 3.026-2.211 4.345-2.593.62.305 1.163.61 1.784.992 2.25-.992 2.25-.992 2.948-1.602.233.382.388.763.621 1.144.31-.076.698-.229 1.086-.305.078.991.466 1.144 1.785 4.346.31-.61.31-.61 1.241-.61v.61c.698-.305.698-.305 2.87 0 1.165 2.44 3.415-.305 3.415 4.347-2.25 3.813 2.327 2.516 4.422 2.287 0 2.898-1.164 5.796-2.25 8.465-.31.076-.466.228-.698.305-.388 1.372-1.552 2.82-1.397 4.117.62 0 1.164.076 1.785.229.232.991.388 1.906.62 2.974-1.241 0-1.551.457-2.327 1.449a19.75 19.75 0 0 0-3.104.228c-1.474 3.28-1.474 3.28-2.172 3.965-.466-.38-.466-.38-1.397-.38 0-1.068 0-1.068-.388-1.907-.698.61-1.241 1.22-1.862 1.906-.232-.381-.388-.686-.62-.991-.31.457-.621.915-.931 1.525"/>
            <path fill="#231F20" d="M269 50c0-.364 0-.727.048-1 .285.09.619.273.952.455-.333.09-.714.272-1 .545"/>
            <path fill="#00833E" d="M103.698 48v-1.313c-.28-.062-.558-.187-.698-.25V45h1.047c.279.688.627 1.188 1.395 1.438 0-.563 0-.563.279-.563.07.375.21.875.279 1.313-.837.25-1.605.5-2.302.812M108 49c.077-.75.308-1.333.462-2 .461.083 1 .25 1.538.417-.077.333-.23.666-.23.916-.616.25-1.232.5-1.77.667"/>
            <path fill="#231F20" d="M263.5 48.8c-.5-.4-.5-.4-.5-.8h1v.8h-.5"/>
            <path fill="#E2231A" d="M277.946 48c-.94-.462-.94-.462-4.15-1.077-9.631-.538-19.106-1.077-28.659-1.538C241.065 40.538 236.993 35.769 233 31c12.137 0 25.214 3.385 37.116 6 3.367 3.615 10.18 9.846 10.884 11h-3.054"/>
            <path fill="#231F20" d="M212 46h1v1h-1zM271.5 47c-.188-.333-.313-.667-.5-1 .625.067 1.25.2 2 .333-.563.134-1.063.4-1.5.667M276 46h1v1h-1z"/>
            <path fill="#00833E" d="M306.938 45.848c-8.785-.534-17.646-.686-26.431-.762-3.667-3.2-7.028-6.781-10.924-9.676a52.558 52.558 0 0 0-4.507-.915c-.076-.38-.076-.685-.076-.914 2.063-1.067 3.59-2.514 5.5-3.581 1.604.457 1.833.838 2.52 2.286.23-.076.46-.076.765-.076 0 .304 0 .533.076.838h1.146c0-.305 0-.534.076-.838 2.216 0 3.361-.762 5.424-1.6.076.914.23 1.98.382 3.047.611-.076 1.222-.152 1.91-.152 0 .305 0 .685.076 1.066.382-.304.764-.457 1.222-.685.306 1.219.688 2.514 1.07 3.885 3.59-.152 4.354-1.142 7.104-2.819.84.077 1.757.153 2.673.305.612 1.981.459 2.743 1.91 4.114 2.903-1.142 2.903-1.142 6.646-1.904.993.762 1.222 1.066 1.451 2.285.84 0 1.223 1.524 1.528 2.134.611.152 1.146.457 1.834.762.229 1.142.381 2.285.687 3.352h-2.063"/>
            <path fill="#231F20" d="M210.333 46c-.5-.357-.916-.714-1.333-1h1.667c.083.286.25.643.333 1h-.667M216 46c.4-1 .4-1 .9-1v1h-.9M269 46c0-.444.09-.815.273-1.185A5.502 5.502 0 0 0 268 44.37c0-.222 0-.296.09-.37 2.183.296 3 1.333 4.91 1.778-1.364.074-2.727.148-4 .222M274.273 46c-.091-.344-.273-.689-.273-.964.91-.069.91-.069 1.91.275 0 .07 0 .276.09.414-.545.137-1.182.206-1.727.275M215 45.997c-.286-.799-.619-.799-1-1.038 0-.32.048-.64.143-.88.143-.079.238-.079.38-.079.048.24.43 2.077.477 1.997M265 44c-.167-.357-.417-.714-.5-1.071-1.083 0-1.667.071-2.5-.358 0-.428 0-.928.083-1.285.417-.072.834-.215 1.25-.286.667 1.071 1.917.929 3.25 1 0 .571 0 .571-.416 1l.833.714c-.667.072-1.333.143-2 .286M201 45v-2h1c-.05.48-.15 1.04-.15 1.52-.25 0-.6.24-.85.48M253.953 45c-.279-.333-1.604-.556-1.953-1 1.395 0 1.744.222 3 .778a7.03 7.03 0 0 0-1.047.222M207 43.9V43h1c0 .5 0 .5-1 .9M257.429 43.9c-.429-.4-.429-.4-.429-.9h1v.9h-.571M272.19 44c-.047-.4-.142-.8-.19-1h1v.8c-.238 0-.524.1-.81.2M270.03 43c-.985-1.077-3.403-2.154-4.03-3 2.866 0 4.657.692 6 3h-1.97M210.197 42c-.3-.545-.3-.545.3-1 .1.09.3.182.5.455-.3.09-.5.363-.8.545M249 41.9V41c.692.1 1.385.3 2 .4-.615.2-1.308.3-2 .5M253.207 42c-.07-.4-.207-.8-.207-1 .62 0 1.31.1 2 .3-.552.2-1.172.5-1.793.7M214 42c.083-.23.083-.385.333-1 .25.077.417.308.667.462-.333.153-.667.307-1 .538M242 42c.1-.4.3-.8.4-1 0 .3.1.5.3.8-.3-.1-.5 0-.7.2M208.34 41v-.6c-.51-.2-.957-.333-1.34-.4.064 0 2.553.2 3 .4v.6h-1.66M229.553 41c-1.026-2.375-.79-3 2.131-3 .08.5.237.938.316 1.5-1.658 1.313-1.658 1.313-2.447 1.5M242.203 41v-1.534h-1.072c-.357-.976-.357-.976-1.131-1.465 1.489 0 1.667-.07 2.978.768.06.627.06.627-.775 2.231M218 41h1v1h-1zM244 40.9V40c.1 0 .4.1.6.3-.2.1-.4.4-.6.6M250 41v-1c1.267.167 1.267.167 2 .556-.533.333-.533.333-2 .444M211 40.4V40h.9c0 .1-.3.6-.3.7-.3 0-.2-.3-.6-.3M260.286 40.5c-.072-.3-.215-.4-.286-.5h1c-.286.1-.5.2-.714.5"/>
            <path fill="#FFF" d="M197 39c.077-1.935.308-3.792.462-5.65 1.538-.387 1.538-.387 2.538-.31-.308 1.78-1.077 5.418-3 5.96"/>
            <path fill="#00833E" d="M219.48 38c-3.802-.608-7.679-1.063-11.48-1.519a8.2 8.2 0 0 1 .38-1.595c.38-.076.76-.076 1.217-.076.228-.456.456-.987.76-1.367.836.228 1.444 2.05 1.748 2.582.685-.38.685-.38 1.749-.303.076.227.304.38.456.683 1.597-1.14 2.585-2.202 4.485-2.582 0-.304.076-.456.152-.684 1.217-.228 1.749-.38 2.51-1.139.075.456.227.987.303 1.443.837-.076.837-.076 1.217-.456 0 3.95.532 4.633-3.497 5.013"/>
            <path fill="#231F20" d="M254 39c.063-.727.063-.727.5-1l.5.727c-.375 0-.688.182-1 .273M258 39v-1c.3.077.6.23 1 .308-.3.154-.7.384-1 .692M245 37h1v1h-1zM250 37.452c.15-.5.15-.5 1-.4-.35.2-.65.3-1 .4M240 37h1v1h-1zM244 37h1v1h-1zM255 37h1v1h-1zM242.882 37c-.294-.4-.588-.8-.882-1h2c-.294.7-.294.7-1.118 1M246.813 36c-.313-.381-.563-.714-.813-1 1.313 0 1.188.667 2 .762-.438.048-.813.095-1.188.238"/>
            <path fill="#FFF" d="M201.053 37c-.053-.714-.053-1.357-.053-2h.579c.158.643.263 1.286.421 2h-.947"/>
            <path fill="#231F20" d="M253 36.6c0-.3.071-.5.214-.6.286 0 .572 0 .786.1-.357.1-.714.2-1 .5M200.225 31v-2.898c.225-.077.375-.23.675-.305.075-.687.225-1.373.3-1.907h.675c-.45-.992-.825-1.068-1.875-1.526.3-.762.6-1.449.825-2.135a6.62 6.62 0 0 1 1.35-.153v-.686h.675v-.61c1.2-.61 1.2-.61 6.6-1.602.075-1.907.075-1.907.45-2.822-.675-.687-.825-1.068-.825-2.136.975-.61 1.5-1.22 2.625-1.22.075.229.225.381.3.686-.825.306-1.875 1.145-1.725 2.136.225-.076.375-.229.6-.229-.3 1.144-.6 2.288-.75 3.585-.45.229-.975.381-1.35.686v.992c-3.525.381-4.35 1.068-7.2 2.517v.686c.45.077.975.23 1.5.305 0 2.212-.375 3.356-2.175 4.805-.375 1.602-.375 1.602-.675 1.831M228 64l16 1"/>
            <path stroke="#231F20" d="M228 64l16 1"/>
            <path fill="#231F20" d="M277 66.7l11-.7"/>
            <path stroke="#231F20" d="M277 66.7l11-.7"/>
            <path fill="#231F20" d="M197 59l15 1"/>
            <path stroke="#231F20" d="M197 59l15 1"/>
        </g>
    </g>
</svg>
