<?xml version="1.0" encoding="utf-8"?>
<!-- Generator: Adobe Illustrator 22.0.1, SVG Export Plug-In . SVG Version: 6.00 Build 0)  -->
<svg version="1.1" id="Layer_1" xmlns="http://www.w3.org/2000/svg" xmlns:xlink="http://www.w3.org/1999/xlink" x="0px" y="0px"
	 viewBox="0 0 22 22" style="enable-background:new 0 0 22 22;" xml:space="preserve">
<style type="text/css">
	.st0{fill:#D8D8D8;fill-opacity:0;}
	.st1{fill:#2C6FA6;}
</style>
<title>Menu</title>
<desc>Created with Sketch.</desc>
<g id="Mobile">
	<g id="Mobile---Menu" transform="translate(-11.000000, -11.000000)">
		<g id="Menu" transform="translate(2.000000, 2.000000)">
			<rect id="Rectangle-2" x="8" y="8" class="st0" width="24" height="24"/>
			<path id="Fill-1" class="st1" d="M20.7,20.8l9.1-9.1c0.4-0.4,0.5-1.1,0.1-1.5c-0.4-0.4-1-0.3-1.5,0.1l-9.1,9.1L10.9,11
				c-0.4-0.4-1.1-0.5-1.5-0.1c-0.4,0.4-0.3,1,0.1,1.5l8.4,8.4l-7.7,7.7c-0.4,0.4-0.5,1.1-0.1,1.5c0.4,0.4,1,0.3,1.5-0.1l7.7-7.7
				l8.4,8.4c0.4,0.4,1.1,0.5,1.5,0.1c0.4-0.4,0.3-1-0.1-1.5L20.7,20.8z"/>
		</g>
	</g>
</g>
</svg>
