<?xml version="1.0" encoding="UTF-8"?>
<svg width="24px" height="24px" viewBox="0 0 24 24" version="1.1" xmlns="http://www.w3.org/2000/svg" xmlns:xlink="http://www.w3.org/1999/xlink">
    <!-- Generator: Sketch 47 (45396) - http://www.bohemiancoding.com/sketch -->
    <title>Flag/Fr Copy</title>
    <desc>Created with Sketch.</desc>
    <defs>
        <path d="M24,12 C24,18.6272137 18.6272137,24 12,24 C5.3724933,24 0,18.6272137 0,12 C0,5.3724933 5.3724933,0 12,0 C18.6272137,0 24,5.3724933 24,12 Z" id="path-1"></path>
        <polygon id="path-3" points="0.00351219512 0.0233576642 0.00351219512 23.9417226 23.9767024 23.9417226 23.9767024 0.0233576642"></polygon>
        <polygon id="path-5" points="0.00351219512 0.0233576642 0.00351219512 23.9417226 23.9767024 23.9417226 23.9767024 0.0233576642"></polygon>
    </defs>
    <g id="Symbols" stroke="none" stroke-width="1" fill="none" fill-rule="evenodd">
        <g id="Menu-Language/Dropdown" transform="translate(-20.000000, -50.000000)">
            <g id="Language">
                <g id="Flag/En" transform="translate(20.000000, 50.000000)">
                    <g id="Flag-EN">
                        <mask id="mask-2" fill="white">
                            <use xlink:href="#path-1"></use>
                        </mask>
                        <use id="Fill-1" fill="#F3F3F3" xlink:href="#path-1"></use>
                        <g id="united-kingdom" mask="url(#mask-2)">
                            <g id="Group-3">
                                <mask id="mask-4" fill="white">
                                    <use xlink:href="#path-3"></use>
                                </mask>
                                <g id="Clip-2"></g>
                                <path d="M23.9767024,11.9825401 C23.9767024,18.5872117 18.6091317,23.9417226 11.9883512,23.9417226 C5.36727805,23.9417226 0,18.5872117 0,11.9825401 C0,5.37757664 5.36727805,0.0233576642 11.9883512,0.0233576642 C18.6091317,0.0233576642 23.9767024,5.37757664 23.9767024,11.9825401 Z" id="Fill-1" fill="#F3F3F3" mask="url(#mask-4)"></path>
                            </g>
                            <path d="M2.47820488,4.70148905 C1.53658537,5.92367883 0.826360976,7.33243796 0.41297561,8.86277372 L6.64963902,8.86277372 L2.47820488,4.70148905 Z" id="Fill-4" fill="#0052B4"></path>
                            <path d="M23.5634927,8.86277372 C23.1500488,7.33243796 22.4401171,5.92367883 21.4984976,4.70148905 L17.3270634,8.86277372 L23.5634927,8.86277372 Z" id="Fill-5" fill="#0052B4"></path>
                            <path d="M0.41297561,15.1023066 C0.826595122,16.6326423 1.53658537,18.0414015 2.47820488,19.2635328 L6.64940488,15.1023066 L0.41297561,15.1023066 Z" id="Fill-6" fill="#0052B4"></path>
                            <path d="M19.2871024,2.49553285 C18.0617561,1.55620438 16.6497951,0.847941606 15.1157268,0.435328467 L15.1157268,6.65681752 L19.2871024,2.49553285 Z" id="Fill-7" fill="#0052B4"></path>
                            <path d="M4.68954146,21.4693139 C5.9147122,22.4088759 7.32690732,23.1170803 8.86097561,23.5295182 L8.86097561,17.3082628 L4.68954146,21.4693139 Z" id="Fill-8" fill="#0052B4"></path>
                            <path d="M8.86097561,0.435328467 C7.32690732,0.847941606 5.9147122,1.55620438 4.68954146,2.49553285 L8.86097561,6.65681752 L8.86097561,0.435328467 Z" id="Fill-9" fill="#0052B4"></path>
                            <path d="M15.1157268,23.5295182 C16.6497951,23.1170803 18.0619902,22.4088759 19.2871024,21.4695474 L15.1157268,17.3082628 L15.1157268,23.5295182 Z" id="Fill-10" fill="#0052B4"></path>
                            <g id="Group-14">
                                <mask id="mask-6" fill="white">
                                    <use xlink:href="#path-5"></use>
                                </mask>
                                <g id="Clip-12"></g>
                                <path d="M17.3270634,15.1023066 L21.4984976,19.2635328 C22.4401171,18.0414015 23.1500488,16.6326423 23.5634927,15.1023066 L17.3270634,15.1023066 Z" id="Fill-11" fill="#0052B4" mask="url(#mask-6)"></path>
                                <path d="M23.8751415,10.4225401 L13.551922,10.4225401 L13.551922,0.124613139 C13.0401951,0.0580437956 12.5183415,0.0233576642 11.9883512,0.0233576642 C11.4583024,0.0233576642 10.9365073,0.0580437956 10.4245463,0.124613139 L10.4245463,10.4225401 L0.101502439,10.4225401 C0.0347707317,10.9332555 0,11.453781 0,11.9825401 C0,12.5112409 0.0347707317,13.0318248 0.101502439,13.5423066 L10.4245463,13.5423066 L10.4245463,23.8404088 C10.9365073,23.9068029 11.4583024,23.9417226 11.9883512,23.9417226 C12.5183415,23.9417226 13.0401951,23.9068029 13.551922,23.8404088 L13.551922,13.5423066 L23.8751415,13.5423066 C23.9416976,13.0318248 23.9767024,12.5112409 23.9767024,11.9825401 C23.9767024,11.453781 23.9416976,10.9332555 23.8751415,10.4225401 Z" id="Fill-13" fill="#D80027" mask="url(#mask-6)"></path>
                            </g>
                            <path d="M15.1157268,15.1023066 L20.4651512,20.4389489 C20.7114146,20.1935182 20.9460293,19.9371095 21.1698732,19.6711825 L16.5898537,15.1023066 L15.1157268,15.1023066 Z" id="Fill-15" fill="#D80027"></path>
                            <path d="M8.86097561,15.1023066 L8.86074146,15.1023066 L3.51125854,20.4387153 C3.75734634,20.6843796 4.01432195,20.9184234 4.2809561,21.1417226 L8.86097561,16.5728467 L8.86097561,15.1023066 Z" id="Fill-16" fill="#D80027"></path>
                            <path d="M8.86097561,8.86277372 L3.51125854,3.52607299 C3.26522927,3.77150365 3.03061463,4.02791241 2.80653659,4.29389781 L7.38661463,8.86277372 L8.86097561,8.86277372 Z" id="Fill-17" fill="#D80027"></path>
                            <path d="M15.1157268,8.86277372 L20.4653854,3.52607299 C20.2193561,3.28064234 19.962322,3.04659854 19.6957463,2.82306569 L15.1157268,7.39217518 L15.1157268,8.86277372 Z" id="Fill-18" fill="#D80027"></path>
                        </g>
                    </g>
                </g>
            </g>
        </g>
    </g>
</svg>