<?xml version="1.0" encoding="UTF-8"?>
<svg width="22px" height="22px" viewBox="0 0 22 22" version="1.1" xmlns="http://www.w3.org/2000/svg" xmlns:xlink="http://www.w3.org/1999/xlink">
    <!-- Generator: Sketch 47 (45396) - http://www.bohemiancoding.com/sketch -->
    <title>Menu</title>
    <desc>Created with Sketch.</desc>
    <defs></defs>
    <g id="Mobile" stroke="none" stroke-width="1" fill="none" fill-rule="evenodd">
        <g id="Mobile---Menu" transform="translate(-11.000000, -11.000000)">
            <g id="Menu" transform="translate(2.000000, 2.000000)">
                <rect id="Rectangle-2" fill-opacity="0" fill="#D8D8D8" x="8" y="8" width="24" height="24"></rect>
                <path d="M20.029796,21.029796 L32.9292804,21.029796 C33.5539757,21.029796 34.0603273,20.5957335 34.0603273,20.0603273 C34.0603273,19.524921 33.5539757,19.0908585 32.9292804,19.0908585 L20.029796,19.0908585 L20.029796,7.19137413 C20.029796,6.5667335 19.5957335,6.06032725 19.0603273,6.06032725 C18.524921,6.06032725 18.0908585,6.5667335 18.0908585,7.19137413 L18.0908585,19.0908585 L7.19137413,19.0908585 C6.5667335,19.0908585 6.06032725,19.524921 6.06032725,20.0603273 C6.06032725,20.5957335 6.5667335,21.029796 7.19137413,21.029796 L18.0908585,21.029796 L18.0908585,32.9292804 C18.0908585,33.5539757 18.524921,34.0603273 19.0603273,34.0603273 C19.5957335,34.0603273 20.029796,33.5539757 20.029796,32.9292804 L20.029796,21.029796 Z" id="Fill-1" fill="#FFFFFF" transform="translate(20.060327, 20.060327) rotate(-45.000000) translate(-20.060327, -20.060327) "></path>
            </g>
        </g>
    </g>
</svg>