<svg xmlns="http://www.w3.org/2000/svg" xmlns:xlink="http://www.w3.org/1999/xlink" width="33" height="38" viewBox="0 0 33 38">
    <defs>
        <path id="a" d="M32.99 38H0V.006h32.99z"/>
    </defs>
    <g fill="none" fill-rule="evenodd">
        <g>
            <mask id="b" fill="#fff">
                <use xlink:href="#a"/>
            </mask>
            <path fill="#007BC3" d="M31.239 6.942l.025.258c.003 0 .273-.027.551-.074.14-.024.28-.052.4-.09a.831.831 0 0 0 .177-.074.39.39 0 0 0 .097-.08.297.297 0 0 0 .024-.365.37.37 0 0 0-.125-.114.715.715 0 0 0-.123-.055l-.085.246.027.259c.022-.004.192-.02.383-.142a.842.842 0 0 0 .272-.28.954.954 0 0 0 .126-.477l.001-.124c0-.365-.016-1.023-.033-1.594-.016-.57-.033-1.05-.033-1.05l-.005-.142-.548-.333-.133.223.118.23c.014-.007.093-.048.183-.135a.762.762 0 0 0 .133-.17.64.64 0 0 0 .084-.34c0-.08-.008-.159-.018-.237-.031-.233-.089-.456-.09-.462l-.015-.058-.038-.046h-.001a3.962 3.962 0 0 1-.272-.374 2.227 2.227 0 0 1-.165-.301.619.619 0 0 1-.061-.22V.81l.017-.204-.192-.065C31.884.531 31.485.4 29.92.268c-1.566-.131-4.296-.262-8.98-.262-.91 0-1.894.005-2.958.016-5.999.06-9.893.06-12.343.122C4.412.174 3.549.22 2.953.3c-.298.04-.53.089-.715.155a1.13 1.13 0 0 0-.249.121.61.61 0 0 0-.187.19l-.047.079.012.09.11-.014-.11.013v.002l.11-.015-.11.013a.661.661 0 0 1-.027.271.24.24 0 0 1-.037.07.131.131 0 0 1-.049.038l-.013.006.013-.006a.7.7 0 0 0-.258.203.886.886 0 0 0-.164.358 1.19 1.19 0 0 0-.026.305l.258-.018-.258-.004-.007.392-.218.319-.163 3.233.042.068c.02.033.12.178.365.32.247.144.635.286 1.23.333l.02-.26-.223-.128c-.005.008-.518.912-1.05 2.3-.53 1.39-1.081 3.262-1.15 5.217l.257.009-.255-.04c-.001.01-.054.353-.054.84 0 .29.019.631.08.984.092.53.278 1.09.662 1.535.192.221.434.41.73.542.296.131.643.203 1.042.203h.004v-.26l-.037.258.023-.156-.025.155h.002l.023-.155-.025.155h.003a.48.48 0 0 1 .144.055.162.162 0 0 1 .05.043c.007.012.01.015.01.04V18.202c0 .194.044.342.112.444.066.103.15.151.188.166l.097-.242-.259.011.683 16.5.01.03c.012.047.087.247.373.51.43.397 1.327.946 3.24 1.422 1.915.475 4.85.875 9.37.956h.008c.005 0 3.216-.05 6.487-.418 1.636-.185 3.286-.447 4.57-.83.643-.19 1.195-.41 1.616-.679.211-.134.39-.28.529-.45a1.19 1.19 0 0 0 .27-.572c.026-.169.054-.42.084-.748.113-1.23.258-3.55.414-6.343.466-8.38 1.019-21.006 1.019-21.007l-.258-.011.025.258-.025-.258-.259-.012-.012.288c-.062 1.407-.345 7.76-.658 14.056a963.831 963.831 0 0 1-.47 8.777 224.523 224.523 0 0 1-.207 3.182c-.032.424-.061.788-.089 1.082-.027.293-.053.518-.074.655a.67.67 0 0 1-.158.322 1.671 1.671 0 0 1-.374.32c-.304.2-.732.39-1.245.557-.898.293-2.052.526-3.272.705-1.831.269-3.814.42-5.336.505a81.626 81.626 0 0 1-2.585.1l.004.26.005-.26c-5.99-.106-9.151-.781-10.789-1.413-.819-.315-1.255-.618-1.48-.827a1.199 1.199 0 0 1-.203-.232.385.385 0 0 1-.026-.047l-.002-.004-.13.05.133-.04-.003-.01-.13.05.133-.04-.248.073.258-.01-.688-16.636-.155-.063-.062.155.102-.133a.164.164 0 0 0-.04-.022l-.062.155.102-.133-.035.046.045-.036-.01-.01-.035.046.045-.036-.003.002.004-.002-.004.002.004-.002s-.007-.008-.013-.032a.469.469 0 0 1-.014-.126v-.045a.587.587 0 0 0-.12-.36.674.674 0 0 0-.172-.156.928.928 0 0 0-.236-.107c-.065-.02-.11-.027-.119-.028l-.018-.003h-.024c-.45 0-.783-.106-1.043-.272a1.633 1.633 0 0 1-.476-.475 2.766 2.766 0 0 1-.384-.984 5.162 5.162 0 0 1-.094-1.013 6.211 6.211 0 0 1 .04-.709l.006-.04.001-.01v-.001l.003-.016v-.015c.066-1.868.599-3.694 1.117-5.048a20.28 20.28 0 0 1 .932-2.075 8.395 8.395 0 0 1 .08-.145l.003-.007.001-.002.203-.357-.407-.032c-.533-.042-.842-.164-1.012-.263a.797.797 0 0 1-.187-.148l-.002-.002-.116.082L1.3 5.9l-.005-.008-.116.082L1.3 5.9l-.22.135.258.014.152-3.005.224-.327.008-.561v-.011l-.116.008.116-.006v-.002l-.116.008.116-.006v-.017c-.001-.036.005-.124.03-.197a.315.315 0 0 1 .048-.091.18.18 0 0 1 .068-.054.65.65 0 0 0 .233-.18.807.807 0 0 0 .156-.329c.025-.105.03-.2.03-.271 0-.079-.007-.132-.008-.14l-.256.035.221.134h.001a.189.189 0 0 1 .052-.04c.065-.037.195-.084.389-.123.339-.07.867-.124 1.611-.16C6.533.598 10.72.615 17.986.541 19.048.53 20.031.526 20.94.526c4.673 0 7.392.13 8.936.26.772.065 1.25.13 1.532.177a4.577 4.577 0 0 1 .34.07l.01.003.052-.164-.055.163h.002l.053-.163-.055.163.083-.246-.258-.022a.653.653 0 0 0-.002.054c.002.16.05.304.11.441.091.205.218.398.322.544.104.146.187.244.19.247l.197-.168-.25.065v.003c.005.018.029.114.05.23a2.041 2.041 0 0 1 .04.37.116.116 0 0 1-.016.049.275.275 0 0 1-.099.098l-.006.004.076.143-.074-.145-.002.002.076.143-.074-.145-.41.214.823.5.134-.222-.258.01.01.31a101.703 101.703 0 0 1 .055 2.432.431.431 0 0 1-.054.22.314.314 0 0 1-.075.086.431.431 0 0 1-.183.082l-.01.001.02.157-.017-.157h-.003l.02.157-.017-.157-1.148.12 1.09.384.031.013.003.002.01-.018-.01.017.01-.017-.01.017.077-.124-.114.089c.02.025.033.033.036.035l.078-.124-.114.089.165-.13-.195.076a.21.21 0 0 0 .03.054l.165-.13-.195.076.21-.08h-.225c0 .028.006.057.015.08l.21-.08h-.225.224l-.205-.09a.227.227 0 0 0-.019.09h.224l-.205-.09.17.074-.117-.147c-.01.008-.032.025-.053.072l.17.075-.117-.147.053.067-.044-.073-.009.006.053.067-.044-.073.003.005-.003-.006.003.006-.003-.006a.397.397 0 0 1-.059.023c-.057.019-.144.04-.237.057a6.91 6.91 0 0 1-.605.087l-.014.002-.223.022-.01.225.259.012z" mask="url(#b)"/>
        </g>
        <path fill="#007BC3" d="M2.243 7.798l-.27.012.477 9.93.27-.012-.044-.253.018.105-.017-.105.017.105-.017-.105a2.307 2.307 0 0 1-.702-.035 1.691 1.691 0 0 1-.808-.4c-.247-.23-.461-.576-.558-1.137a5.833 5.833 0 0 1-.07-.957c0-1.088.216-2.465.568-3.757a15.29 15.29 0 0 1 .616-1.829c.232-.557.486-1.047.745-1.42l-.225-.142-.27.012.27-.012-.225-.14c-.289.415-.555.933-.797 1.514a16.906 16.906 0 0 0-.88 2.895C.126 13.077 0 14.084 0 14.946c0 .376.024.726.077 1.038.073.434.216.784.404 1.06a2.09 2.09 0 0 0 1.025.795c.362.133.704.16.94.161.186 0 .306-.018.317-.02L3 17.944 2.475 7l-.457.657.225.141zM4 19.275l5.727.676.025-.138-.069.128c.014.004.169.059.393.059a1.075 1.075 0 0 0 .924-.476l-.3-.136a.754.754 0 0 1-.318.272.755.755 0 0 1-.306.062.935.935 0 0 1-.242-.033l-.012-.003H9.82l-.026.049.027-.05H9.82l-.026.05.027-.05-.021-.007L4.05 19l-.05.275z"/>
        <path fill="#007BC3" d="M29.712 5l-.012.024c-.132.25-1.312 2.455-3.601 5.171-2.29 2.716-5.689 5.942-10.255 8.24l.072.147-.06-.152-.022.009c-.112.044-.636.247-1.293.439-.657.191-1.45.37-2.084.369a2.9 2.9 0 0 1-.269-.012l-.015.163.045-.157c-.01-.003-.181-.053-.419-.053-.22 0-.5.043-.75.226a1.247 1.247 0 0 1-.444.192 2.65 2.65 0 0 1-.619.066c-.285 0-.6-.035-.921-.101L9 19.892c.34.07.675.108.986.108.249 0 .483-.024.695-.075.211-.052.401-.13.558-.246a.94.94 0 0 1 .56-.163 1.407 1.407 0 0 1 .309.035l.016.004.004.001.015.004.015.002c.097.009.197.013.3.013.736 0 1.609-.212 2.305-.421.695-.21 1.21-.418 1.213-.42l.006-.002.006-.003c4.767-2.4 8.267-5.792 10.578-8.585 2.31-2.792 3.43-4.986 3.434-4.993L29.712 5z"/>
        <path fill="#007BC3" d="M4 18.295l5.261.62.02-.147-.05-.141c-.012.004-.188.058-.373.2a1.02 1.02 0 0 0-.26.285.855.855 0 0 0-.12.443c0 .135.03.284.095.445l.302-.103a.914.914 0 0 1-.074-.342c0-.123.033-.219.08-.3a.79.79 0 0 1 .284-.268 1.03 1.03 0 0 1 .16-.075l.007-.003h.002l-.02-.052.02.051-.02-.05.02.05.666-.206L4.041 18 4 18.295zM3 2.328c.019.007.102.038.411.087.927.145 3.893.445 13.029.557 1.586.02 2.988.028 4.227.028 4.14 0 6.463-.094 7.754-.19a15.83 15.83 0 0 0 1.264-.13c.23-.037.3-.061.315-.067l-.103-.329.022.07-.02-.07h-.002l.022.07-.02-.07a2.363 2.363 0 0 1-.326.062c-.725.107-2.897.306-8.906.306a344.9 344.9 0 0 1-4.224-.028c-6.086-.074-9.43-.233-11.25-.372a23.1 23.1 0 0 1-1.737-.182 3.968 3.968 0 0 1-.343-.068L3.106 2l-.029.097L3.11 2 3.106 2l-.029.097L3.11 2 3 2.328zM3 7.584l5.368.35.669-.557 16.333.104.71.519L28 7.84l-.024-.375-1.81.15-.7-.51L8.931 7l-.661.55-5.251-.342zM29.033 7.5L31 7.351 30.967 7 29 7.149M8 4.598S15.215 5 21.603 5c1.553 0 3.057-.024 4.397-.083l-.008-.598c-1.336.059-2.838.082-4.39.082-3.19 0-6.588-.1-9.189-.2a325.956 325.956 0 0 1-4.081-.184C8.122 4.007 8.01 4 8.01 4L8 4.598z"/>
    </g>
</svg>
