<svg xmlns="http://www.w3.org/2000/svg" width="294" height="288" viewBox="0 0 294 288">
    <g fill="none" fill-rule="evenodd">
        <g fill="#E0DCDC" fill-rule="nonzero" stroke="#FFF" stroke-width=".5">
            <path d="M292.214 74.894l-2.4-.76-.925-.828-1.683-.458-.957-1.034-.315.553-.702-.239-.495.519-1.618-1.1-1.32.758-.064-.44-1.317.41-.903-.342-.039-.624-2.319-.827-.764-2.439-1.309.147.204-.653-1.79.421-.054.961-.813-.01-.724.978-1.076-.513-1.084.503-.305-.516-.6.335-.708-.739-.48.096-.108-.568-.414.253.152.636-.804.534-.39-2.628-.491.11-.867-.764-.296.24-.48-.688-1.017.466-.732-.466-.498.346.538 1.092-.596.947-1.247-.53-.92.15-.608-.79.274-1.061-.637.082-.141-1.155-.643-.315.206-.724-1.254-.741-1.053-1.558.754-.642-1.368-1.259.387-.608-.33-.42-2.587-1.531-.753.43-.583-.224-.058.379-.677-.258-2.11-1.606-1.891.341.096.404-.74-.024-.604 1.363-.961-.454-.348.657-1.383-.138-.306-1.442-2.185-.186-.749-.779.045-.734-.444.19-.997-.897-.605.835-2.321-.386-.695 1.475-1.228-.782-1.88 1.105-.967-3.382-1.827-1.205-.761.68-.173-.632.565-.846-1.394-1.47-.592.388-1.718-.277-.092-.775-.782.08-.744-1.711-1.918-.669-.296-.623-2.006.495-1.219-.25.518-.925-.621-1.634.921-1.487-.916-1.345-1.264-.344-.032-.369 1.157-2.412-.473-.938.404-.076.29-1.2.469.474-.097-1.106.642-.593-1.558-1.107-2.982 2.907-.02 3.108-2.12.307-1.643 1.256-1.752.459-3.056-1.106-1.745.365-.324 1.565.852.344-.052 1.236-1.057 3.063.981.797-1.45 2.007-1.32.727-.25 1.555-1.661-.163-.392.546 1.219 1.757-.63.908.587.103.074.6-.849.61.018 1.35.59.764-.687.248-.03 2.689-1.73-.591-.8-1.008-1.53.912-.1 1.216-1.645-.395-2.971 1.47.46 1.533-.307.511.583.658-.543.754.634.54.372-.338.36 1.03.767-.146-.015.759-.975.568-.421-.404-1.436.127-.48 1.053.836 1.45-1.148.576-.04.796 1.468-.212.607.986-.815.341-.46 1.292-.692.209.293.585-.659.123-.076.841-.95.089-.957 2.034.038 1.298-1.873.177.85.19.046.432-.776.217-.325.866 1.656.685.188 1.347-.824 1.169.437.376-.188.589 1.866-.38-.318.458.88.552-1.299.395.278.505-1.102.652.36.977-1.669.463.706 1.263-1.223.364.506.894-.316.965.686.31-.168.863.311 1.067.86-.6.837.33.898 1.583.973.638-.218.559.93.514-.407 1.216.46.235-.945 1.377 1.152-.178.827 1.674 1.246-.54-.188-.608.761.286-.195 1.116 1.157.493.695 2.467 1.111.977-.027.418-.706-.05.282.699.635.143.327-.762.42.73-.418 1.683 2.048-.037.41-.407.9.58.348-.687.66.026.46.635 1-.972.28-.15.789.604.234-.681-.401-.187.706-.154-.095.762.506.638 1.076.17.486-1.216 5.384-.223-.418-1.29.957-.756 2.05.508.67-.335.84.64 1.246-.038.361.579-.55.875 1.365.06.442.675-.758 1.055.65.414.197-.714.757-.11.839 1.818h.293l.867 1.96-1.717 1.361.968.17.22 2.531 1.349-.81.015.604.712-.096-.163.897.584-.103.845.827 1.365-1.122-.11.933 1.451 1.189.467-.193-.47.856.355.66 1.52-1.194.736.71 1.452-2.861.948.162.461-.398.957.362.94-1.147.658 1.173 2.103-.418-.139-1.25.545-.812-.072-.698-.663-.38.333-1.385 1.134.027.43-1.317 1.502.244.45-1.741.814.146-.007-.834 1.102-1.744.61.311-.72 1.006.487.073.48-.711.71.023.83-1.57 2.138-.532.054.04.6 1.367-.353.364 1.317.638-.076.337v.174l1.864-.791 2.281-.164 1.036.631.96 1.872 1.462-.584.45-.988.975-.41.872 1.375 3.13 1.784.836 1.186.396-.166.556 1.242 3.347 1.318.737 2.024-.96 2.647.342.448.466-.392 1.002.253 1.277 2.26-.236.72 1.553.294-.712 1.66 1.395.153.244.595 1.914-.661 1.295.3 1.549-1.283-.776-.311.233-.49 1.284.427.507-.52-.305-.741.56.195.182-.437-.706-.385 1.887-1.196.186-.956-1.53-1.882-.26-1.203.815-1.206-.407-1.518.726-2.065-.124-1.26 1.472-3.105-1.182-2.083.163-2.894 2.01-3.394.596-2.695 1.157-.855-.276-2.262.804-3.231.843-.828-.132-2.345.873-1.93 2.797-2.744.177-1.194.982-.108.313-.866 1.338-.56 1.336-3.469 1.759-2.388zM80.205 173.487l.534.216.037 1.772 1.094 1.414.025.807-.482.311.284.68-.802.941-.852-2.61-2.64-2.344-.593-3.01.959.261 1.23 1.446 1.206.116zm-6.1-6.825l1.61-.003 3.123 1.828.981.052.612-.607-.493.103-.428-.907-1.645-.688-1.342.242-.318-.397.596-.537-1.01.072-.914.503-.482-.551 1.05-.11-.537-.783-1.403.397.099.42.502.966zm85.464-7.059l.158 1.242 1.044.299-.71.94 1.405 1.062.51-.683.76 1.567.226-.421 1.136.515.977 3 .897 1.03-.352 2.237.482 1.25.675.396-.195 1.411.414.618-1.053.493-.45.785.274.597-1.266.871-.17.726-.71-.096-.1.022-.585 1.018-.622-.132-.317.427 1.232 2.127.93.33.868 1.237-.043 2.177-.798.044-.558 1.43.628 1.125.636.214-.676 4.31.911.863-1.073.704-2.1-1.328-.858-.007.453.784-.2 1.613-.977.48-.605 1.06-.448-.093-.639 1.354-1.048.864.154 1.278.704.505-1.18.9-.149 1.744-.67-.136-.997.839.995 1.851-.746.623-.186-.047-.894.23-1.685.054-.852.692-.166-.657-.724-.142-2.372 1.735-1.154-.458-.016-.616-.97-.399-.524-1.103-1.16-.902-1.258-.275-.663.367-.229-.544-2.812 1.331.094.373.63 2.427-.645.19.625 1.007-1.752 1.126.094 1.024-1.518.476-.017.633.56.353-.15.768-.374-.107-.27.863-.384-.195-1.036 1.218-1.69.43.133.975-1.324 1.426.214.631-1.328.361-.666.778-.753-.22.794 1.167.01 1.919.848.563.128 1.91-2.454.124-.235.516-.471-1.214-.542.091-.605 2.217.54.444.506-.203.775.871-.5.237-.486 2.369-1.194.202.138.409.578-.128.195 1.157-.717.352-1.633-.53.197 1.013-.93.115-.395 1.423-1.71 1.16-1.586-1.743-.829.784-2.126-.028-.419.85-1.38.702-1.485-.093-.319.584-1.6-.618.04-.355-.877.218-.789 1.312-.665-.895-1.596 1.255.46 1.388-.384.639-1.792-1.021.623-.774-.964-.941-.208.721-1.078.407-.047.605-.683-.46-.744.479-.448-.354-1.345 1.295 1.194.906-.497.328.339 1.478-.743.057.178 1.79.538.405-1.237.932.172 1.623-.475.075.01.494-.426-.204.049.76.721.08.195 1.022 1.378-.423.372.49 1.434-.049.063 1.191.612-.145.584 1.098-.22.638.709.607-1.065.277-.118.86.457.502-.37.246.547.019.943-1.081-.064 2.246.746.803-.438.642-.824-.117-.44.854.649.95-.718 1.596-.533-.132.119 1.41-.859.32-.25-.412-.643 1.566-1.053.45-.133 1.448.424.463-1.81.446.029.694-.641.279.15 2.178-1.038.51.316 2.071-1.826 1.54-1.078.107-1.422-.973-1.026 1.506-2.833-3.262-1.203-.36.047-1.49-.542-.694-1.22.517-2.177-.385-.845.317-3.83-2.164-.624.49-.48-.836-1.456-.611-.756.357-1.041-.761.855-1.528-1.642.732-.217 2.022-1.93-.541-.741-1.289 1.317-1.204.726-1.884-.146-2.108-3.28-1.103-.619.172-.304 1.185-.717-.07-.359-1.69-1.008-.254-1.345.58-.184-1.047-1.107-.628.372-.443-.412-.273 2.483-.732.233.274 1.508-1.38 3.444-6.615 3.352-17.471.894-10.4 1.412-3.602.96-.131.23.663 2.34-.18.717.369-.306-1.346-1.157-.547.8-.013-2.989-2.496-.141.957-1.322 1.64-.316 2.458-.34-.56 2.226-21.047.117-5.649 1.398-2.579.75-.552.473 1.194-.3.189-.3.594 3.016 2.28 2.864 2.994 2.586 8.206 1.83 2.314.55-.038-1.871-3.451-1.101-6.446-1.51-4.23-2.95-2.826-1.242-.355-1.2-1.988-1.698-.556-2.38-1.808-.45.095.435.673-.334.015-.332-.65-.033-2.995 2.321-.542-1.012-1.618 1.425-.183.894-1.568-.049-.935-.027-.402-.119-.956-.255-.44.963-.32-1.097-2.974-.935-.37.316-.662-1.01-.35.53-.622-1.272.38-.699-.594.744-.704.092-.846 2.019-1.562-.516-1.375.406-.46.918-.023.477-1.056 1.77-.055 1.007-.632-.708 1.571.665.402 1.001-.538.818.304.424-.8.099.14.622-.143-.062.557 1.804.732.54-.754 1.126.275.197-.693.753-.227.097-.476.939.01.438-.824-1.492-.94-.331.726-.469-.204.083-1.116.652-.747-.878-2.128.979-.387-.525-1.398.291-1.504-.959-.476.484-.883-.956-.746.524-.453-1.428-1.802.052-1.215-.02-.134.448-.415-.59-.382h-.159l-.89-.598h-.093l-1.246-1.469.517-1.182-1.158-.439.257-.357-.679-.02.33-.53-.3.187-.429-.6.975.154.206-.655.778.081.472-.593 1.63.702.8-.122.19-.511 1.597.206 1.238-1.168-.285-1.037 1.38-.637.787.062-.486.926.513-.51 1.136.073.247-.805 1.261.141 1.672-.618 1.369.378.457-.463.928.161-.819 1.094 1.117.529.607-.335.356-1.196 1.123.466-.092-.9.746-1.523.594-.493.8.362.564.595.023.878 1.342-.194-.119.586.612.207.441-.467.41.776-.483 1.07.777.168.72-.574.49.131.025.817.78-.282.213 1.736-.477.262.721 1.963.932-.616 1.64.655 1.504-.963 2.075.055-.681-1.606 1.116-.046.365.705 1.29.403.287 2.31 1.074 1.426.98.327.425 1.978 2.187 2.034.325 1.07-.525.472.28.949-.542.687.405.918 1.188.973 1.136.137.124 1.002 1.636-.013 1.154.952.143 1.903.834.247-.108.413.648-.175-.348 1.035-.41.548.274.269.423-.438.209.788.9-.402 1.004.217.218-.759.914-.158 1.374 1.74 2.48-2.613.424 1.106 1.448-.934.428 1.08 1.277-.986.973.915.694-1.14-.28-.807.796-.201 1.255 1 1.026-.52 1.055.34 1.05-.382 2.456 1.07 2.42-.596 1.88.285z"/>
            <path d="M267.89 191.343l-.33-1.16-1.134-.084.12-.714-1.218-.332-.103-2.216-.415-.434.511-1.66-.757-.46-1.139.08-2.424-2.37.296-3.572 2.705-.324 1.243-.806.14-.9.932-.756-.148-1-.627-.502.345-.26-1.971-2.75-1.043.664-.385-.29.57-2.349-2.27-.419.154-2.135 1.36-2.477-2.103-2.413.784-.788.325-1.537-3.092-.892-3.656-.078-5.976 3.143-.72 1.561.614.272-.23.848.517.838 1.093-.152-.318 1-1.416.623-2.326 2.135-1.712-.39-.352.545-.95-.316-.815.526.83-1.714-.672-.488.348-.65 3.233-1.112-.5-1.104 1.52-2.652-2.36-1.596-4.376 4.899-3.23.126-.259-1.567-1.508-.482-.08-.665-1.058 1.58-.67.05-.602.834-1.461.136-.377-.327.217-1.599-.665.272-.284-1.053-.457 1.212-.02-.91-.933-1.027.354-.39-1.745-.998.553-.496-.206-.581-1.762-.377-.755-1.647-.762-.338-.027.491-.7-.15-1.763.797-1.626-.998-.753.455-.195-.582-3.632 11.094-1.212-.119.21-1.047-.355-.488.376-.188-1.269-.828.7-.637-.69-.89-.955.165-.426 1.149-.78-.123-.338-.796-.668.754-.775.097-1.015-.958-1.19.045-.399 2.672-.575.445.235.437-1.006.026-1.046.904-.702-.049.103-.937-.639.317-.405-.54-.661.666-1.015-.11-.672-.695-1.648.95-.894.003-.374-1.08-1.844-.377.426-1.038-.408-1.253 1.187-.498.05-.683.919.223.385-.411-.446-.046-.192-2.259.527-2.054-1.049-.51-.062-.5-1.813.159-.675-1.408-.753.41-1.42-.644-.125-2.066-.516-.218.186-.593-.542-1.043-1.334-1.571-.302-1.56-.811-.226-.29.412.473.806-1.107.052.296 1.103-.34.342-.341-.365-.986 1.219-.664.026-.096-1.252-.717-.786-.928.039-.724.94-.748-.18-.287-.864-.704-.033-1.555 1.324-1.588-1.664-1.589-.773-.595-1.428-1.518-.307-.959.373-1.595 1.541-.074.65-1.071-.294-.843.58-.614-.991-.4.068-.317.868-1.732.927.083 1.03-.513-.414-.784.407.578.642-.66.997.834.462.247 1.34-1.752 1.116-1.112-.44-2.825.518-.843 1.498-.556.003-.4 1.643.156 1.242 1.045.298-.71.94 1.405 1.062.51-.683.76 1.567.226-.42 1.136.514.977 3 .897 1.03-.352 2.237.482 1.25.674.397-.194 1.41.414.619-1.053.492-.45.785.274.597-1.267.871-.17.726-.708-.096-.101.023-.585 1.017-.623-.132-.316.427 1.232 2.127.93.33.868 1.237-.043 2.177-.798.045-.558 1.43.627 1.124.637.214-.677 4.31.912.863-1.073.704-2.1-1.328-.858-.007.452.784-.199 1.613-.977.48-.605 1.06-.448-.093-.64 1.354-1.047.864.154 1.279.704.504-1.181.9-.148 1.744-.67-.136-.997.84.995 1.85-.747.624-.185-.048-.895.23.346 1.309.584.439-.403.527.139.954 1.804 2.67-.942 2.897.657.028.286 1.848.81.629.38-.208-.213-.807 1.788-.604.71-.063.574.94 2.95-.32.349-1.202 1.36-.98-.229-1.047 1.132-1.219.094-1.693 2.967-3.017.838.922-.037 1.779.716-.587 1.225.003.643 2.684.722-.139.374.618-.574.4.527.539.038 2.024 1.006 1.116.796-2.174.488-.065-.28-.4.438-2.262.59-1.185.594.126.103-1.013h.128l-.133-.64.63-.553 1.351 1.297.993-.795-.285-.682.585-.224-.172-.603.562-.221.422.496 1.913-1.527.011.48.978.573.038 1.377 1.557 2.895.437-.56 1.441-.367.415.313.11-1.568 1.355-.006.462.687-.177.801 1.72-.293 1.482 2.317.557-.375.032.903.892.24-.327.91.517.456-.327.579.643 1.043.112 1.596.585.785.527-.047.798 3.09 1.809 2.091-.64.439.393.867-.48 1.05.258.344 1.833-.55.29.732.797-.15 1.766 1.655.703-.852-.017-.713.863-.725 1.472-.257.08 1.75.948.225.34-1.725 1.168-.166.15.473.824.102.218.723 2.035.99.027-1.859 3.092.522.681 2.68 1.365-1.043.948.031 3.085-1.493.37.74.72.2.95-1 .358-.169-.327 2.592 1.737.65.435-.625 1.096.758 1.279-.224.665.437-.04 1.406 1.174.109.44 1.013 1.084.112.853-.527.926-.776-.412-.412.228-.492.607-.15.847.733-.188.539 1.06.127.091-.532-.737-.34.048-.467.775-.213.005-2.21h-.883l-.236-1.052-.643-.175.478-.853-1.826.1-.595-.64-.629.409-1.407-1.16.287-.513-.54-1.061.43-.254.862.435.471-.557-.753-.329-.146-1.61 3.496.868.325-.896.793-.07-1.499-1.304 1.14-2.129-.109-1.253 1.93.402.454-.723.899.27.919-1.163-.706-.503.629-1.672 1.25.41 1.53-.441.655-.665-.69-.734 1.528-.971.87.618 1.736-1.523 2.541.391.988-.694 1.002.814.438-.215.056-2.667-.796-.459.025-1.42-1.62.074-1.058-.623.348-1.53.549-.196-.309-.99.336-.593.395-.19.69.583.88-.48.692.654.014 1.026 1.93.576.8-.099-.142-1.2.674-.52.701.305.814-.764 1.18.47 1.103-.97 1.387.079.574-.682 1.82 1.027.99-.304.004-1.006 1.177-.044 1.257-1.602 1.8.108 1.193-1.248-.557-2.273 1.185-1.057.267-1.56z"/>
            <path d="M247.503 109.66l.076-.338-1.317-.638.354-.364-.601-1.367-.054-.04-2.137.532-.832 1.57-.71-.023-.48.711-.485-.073.718-1.006-.609-.31-1.103 1.743.007.834-.813-.146-.45 1.74-1.502-.243-.43 1.317-1.134-.027-.333 1.385.663.38.072.699-.545.81.139 1.251-2.104.418-.656-1.172-.941 1.146-.957-.362-.461.399-.948-.163-1.452 2.861-.737-.71-1.519 1.195-.356-.66.47-.856-.466.192-1.451-1.189.11-.933-1.365 1.123-.845-.827-.584.102.163-.897-.712.096-.015-.604-1.35.81-.219-2.53-.968-.17 1.717-1.362-.868-1.96h-.293l-.838-1.818-.757.11-.197.714-.65-.414.757-1.055-.441-.674-1.365-.06.55-.876-.361-.578-1.246.036-.84-.638-.67.334-2.05-.508-.958.756.42 1.29-5.385.224-.486 1.215-1.076-.17-.506-.638.094-.761-.706.153.401.187-.233.682-.789-.605-.28.15-1 .972-.461-.635-.659-.026-.348.688-.9-.581-.41.407-2.048.037.418-1.683-.42-.73-.328.763-.634-.144-.282-.7.706.051.027-.418-1.111-.976-.695-2.468-1.157-.493.195-1.116-.762-.286.189.608-1.246.54-.827-1.674-1.152.178.946-1.376-.461-.235.407-1.217-.93-.514.218-.558-.973-.64-.899-1.581-.836-.33-.86.6-.312-1.068-.865-.33-.244.93-.647.087-1.2-.397-.627.573-2.552-.273-.832.799-1.257-.35-.717 1.827.72 1.862-.962 1.437-1.5.786-.008.684 2.073 1-.298.575.439-.03.311 1.464 1.683 1.453-.57.344.58.428.061 1.137-.744.872-.134.11-.866 1.085-.915.16.08 1.087-.383.21.824.58-.432.543.273 1.556-3.89.982-.09 1.35.688-.112.009.555 1.06.725-.164.441.773.777-.472.618.094.919.894.978-2.593.743v-.12l-.28.415 1.848 3.307-1.413 3.294.264.716 2.288 1.814-.076 1.094 1.174 3.528-.287 1.873 1.342 1.329-.314 1.607.354.626-.674 1.579.439 1.826-.845 1.86.596 1.427 1.589.774 1.588 1.663 1.555-1.324.704.033.286.864.75.18.723-.94.928-.038.716.785.097 1.252.663-.026.987-1.219.34.366.34-.343-.295-1.102 1.107-.053-.473-.806.29-.411.81.225.303 1.56 1.334 1.572.542 1.042-.186.593.515.218.125 2.067 1.421.643.753-.41.675 1.408 1.812-.159.063.5 1.048.51-.527 2.055.193 2.259.446.045-.386.412-.918-.224-.05.684-1.187.498.408 1.252-.426 1.038 1.844.378.374 1.08.894-.004 1.647-.95.672.695 1.015.11.662-.665.405.54.639-.317-.103.937.702.048 1.046-.904 1.006-.026-.236-.436.576-.446.399-2.672 1.19-.045 1.014.958.776-.097.668-.754.338.796.78.123.425-1.149.955-.165.69.89-.699.638 1.268.828-.376.187.356.488-.21 1.047 1.212.12 3.632-11.095.194.582.753-.455 1.627.998 1.762-.796.7.15.028-.491.762.338.755 1.646 1.761.377.206.581-.553.496 1.745 1-.353.388.932 1.027.02.91.458-1.211.284 1.053.665-.272-.217 1.598.376.327 1.461-.135.603-.835.67-.049 1.057-1.58.08.664 1.509.483.258 1.566 3.23-.126 4.376-4.898.473-.896-.296-.617 1.885-2.681-1.04-1.022 3.563-3.459 4.096-3.009-.477-1.212.746-2.512-.724-1.277 1.457-1.514 2.791-.613 2.194-1.9-.614-.535.246-.489 3.05-2.198.448-.52-.394-.23 2.554-2.335-.273-1.47 1.196-.25.307-.99 1.017-.301-.152-.944-.729-.347-3.078.66.777-1.698.535-.053.056-.896 1.387-.688-.423-1.337.914-.345 1.17.54 1.268-.493.236-.719-1.277-2.26-1.002-.253-.466.391-.343-.448.961-2.646-.737-2.025-3.347-1.318-.556-1.242-.396.167-.836-1.187-3.13-1.784-.872-1.375-.975.41-.45.988-1.462.585-.96-1.873-1.036-.63-2.281.163-1.864.791v-.177zM35.7 127.921l.663.304.07.166 1.293.303.394 1.153 1.75.498-.3.92-.395.281-1.7-.778-1.12.287-.442-.33.044-.825-.602-.808.345-1.171zm.52-49.626l.419.728-.305.48 3.007-1.22-.316 1.284.654-.098-.337.455 1.649-.102.172.795-.885.663.31.15.902.44.86-.302.505.547-.37 1.18 2.87 2.444-.107 1.81 2.425 1.336-.599 1.054.633-.267.868 1.513-.194-1.513 1.237.355-.139-.514 1.77-2.116 1.813-.775-.334-.762 1.15-.257.387.792 2.272-2.008.159.566.623.119-1.199 1.635.515.338 1.58-1.16-.054.974.789.965.323-.806.376 1.171.57-.338-.406-.345.48-.73.58.588-.616-1.11.89-.39.353.406 1.1-.2-.17.434.624.267-.213.623.394-.152.5.734-.404.369.946.94-.522.733.24.911.457-1.04.22.136.293-.487-.614.034.22-.49-.61-1.15.879.471-.303-.72-.876-.32.055-.496-.797-.653.056-.545 1.107-.786-.229-.325 1.244.003-.522-.186.547-.444.665.42 1.385-.77.175 1.112-.596.417-.138.982.582.778 1.443.373 4.612-1.03 1.868 4.916.854.067.652.885 1.51-.27.567-1.014 1.107-.357.569-1.162 4.121 1.205-.251 3.162.804 2.89-1.255 2.104.504 2.113.094.084.534 3.695.659.733-.27 1.235.377.963-.746.632-1.663-.073-.035.511-.659.21-.48 2.228-.441.257.202.757-.771.537-.56 2.501-2.61-.752-.557-.967-2.03-.24.13 1.077-3.338 1.311-.85 1.796-2.466.403-2.02-.373-2.124 1.24-.408-.745-.88.927-.621-.09-.269.658-.663-.037-.37.621.372.657-.43.571.06 2.032-1.329.375-.141 1.056-.574-.172.092-.586-1.342.6-.32-.646-.881-.073-.424 1.827-1.89.159-.485-.685-.771.956-.843-.066-.138-1.394 1.36-.205-1.537-.861-2.52.666-.192-.51-.592.043-.549.814-1-.41-2 .656-.773-.394-.536-1.153-.695-.056-.145-.613-1.038-.384-.121.38-.562-.417-.713-.043-.455-.378-1.86.308-.103 1.85 1.08 1.489-1.154-.146-.704-1.858.617-.514-.323-1.684-3.061-2.984-1.197-.34-.472.32-.12-.828-1.964.499-1.65-2.262-3.401-.412-1.092-.963-.773.486-2.08-.01-1.055-1.46.457-.802-.412-.056-.686-.37-.351-1.035-.962.638.325.96-1.494.386-1.44-.953-.915.494-1.006 2.012-3.949.007-.356-.583.83-.65-.26-1.82-1.41-2.49-2.01-1.43-.853-.215-.45.395-1.419-.963-1.454.09-.887-.438.672-.154-.173-.703 3.632-.392.37-.469 1.113.114 1.56-.677 1.21-.083 1.286.676.85-1.363-1.085-2.486-1.286-.064-.115-.433-1.913-.681-.787.228-.423 1.336-.921.741.148-1.325-.446-.83.645-.49-.374-.346-1.38.168-.15-.85 1.313-.085-.036-1.634.878-.347-.53 1.292.459.629.378-.39.359.497 1.14-.53.738.083.461.652 2.04-.776.8.056.239.539.293-.642-2.005-.532.773-.525-.645-.31.303-.764-1.101.59-.132.625-.989.058.442-.593-1.364.529 1.301-1.909-.528-.421-.287.478-.865-.111-1.051.67-1.916.896-1.65-.576-.595.805-1.463.07-.394-1.077.642-.71-.748-1.042.764-1.817-.356-1.627 1.05-1.375.577.175.011-.642 2.088-.22.103-.936.946.21-.12-.762.615-.122-.013-.437.966.534 1.315-.683.876.135-.79-.583 2.03-.768 1.12.427-.357.778.363.271.486-.531 1.768-.085-.61-.23.81-.959 1.938-.288.914.647.135-1.003.876-.247.144-.482.141.533.693-.53-.139.984.415.335-.315.484.901.386.175-.382h1.53l.005-.522.526-.85.18-.163.856.637 1.15-.24 1.21.729.806-.33-.329 1.261.796-.928.293.56.63-.021.329-.468-.383-.23.017-1.143.785-.702-.802-.41-.003-1.117-.054-.153.003-.397.463-.052.26.544.438-.354-.135-.706.457.102.37-.666.293.645.244-.584.477.744.697-.18-.287.775.955-.068.2-.526 1.549-.768 1.272.135.87-1.126z"/>
            <path d="M142.12 75.838l1.388 1.702-.39.684.87.354-.173.516.48.177-.426.296.047 2.37 1.017.486-1.118 1.492.79.478-.23.806.901.511.531 1.21 1.098-.01-.134 1.268 1.075.091.67.7-.256 1.365.579 1.573.768-.017.175.688.585.212.838.014.516-.577-.052 1.723 1.109.148-.262.708.504.572-.443.737.205.96-.443.09.329.733 1.533.125 1.43-.757 1.315.28-.263-.586.662.155.488-1.1.955.407-.012 1.127.49-.562.71.094.116-.222.538-.474.701.848 1.013-.266.439 1.883 1.044.171 1.047.964.01 1.97-.244.355-.524-.277-.888 1.367 1.746-.01.845-.56 3.276.587 1.093-.734-.4-.718.593.447.809-.514.051 1.244.406.06 1.05-.881 1.585-.232 2.073 1-.298.576.439-.03.312 1.464 1.683 1.452-.57.344.58.429.061 1.136-.744.872-.134.11-.865 1.086-.916.16.08 1.087-.383.21.825.58-.433.543.273 1.556-3.89.982-.09 1.35.688-.112.01.555 1.06.724-.164.442.772.777-.472.618.094.919.894.978-2.592.743v-.12l-.28.415 1.848 3.307-1.414 3.293.265.717 2.287 1.814-.075 1.094 1.174 3.527-.287 1.873 1.342 1.33-.314 1.606.354.627-.674 1.578.44 1.826-.846 1.86-1.517-.307-.959.373-1.595 1.541-.074.65-1.071-.294-.843.58-.613-.991-.402.068-.315.868-1.732.927.082 1.03-.513-.414-.784.407.578.642-.66.996.835.463.246 1.34-1.752 1.116-1.112-.44-2.825.518-.843 1.498-.555.003-.402 1.642-1.88-.282-2.42.597-2.455-1.07-1.051.382-1.056-.34-1.026.519-1.254-1-.796.201.28.809-.695 1.138-.972-.915-1.277.986-.428-1.08-1.448.934-.423-1.106-2.48 2.614-1.374-1.741-.915.159-.217.759-1.004-.218-.9.402-.209-.788-.423.438-.274-.269.41-.548.348-1.035-.657.107.023-.087-1.094-1.24.504.045-.63-1.537-.817-.627-1.636.013-.123-1.002-1.136-.137-1.188-.973-.405-.918.542-.687-.28-.949.524-.473-.325-1.07-2.187-2.034-.424-1.977-.98-.327-1.074-1.427-.287-2.31-1.29-.403-.366-.705-1.116.046.682 1.606-2.076-.055-1.503.963-1.64-.655-.932.615-.722-1.963.477-.262-.212-1.736-.78.282-.025-.817-.49-.131-.72.574-.777-.167.484-1.07-.41-.776-.442.466-.612-.207.12-.585-1.343.194-.022-.878-.565-.595.298-.83-.325-.21.58-.721-.042-2.11 1.553-2.15-.16-.486.96-.664-.66-.588 1.54-3.331.106-.901-.72-.39.892-1.904-.027-.282.536-.23 2.854 1.388.435-.279-.865-1.36.422-.797.918.907.558-.093.33-.857 2.962-.893.508-.705-.517.16-.224-.98.918-1.129 1.678-.502-.207-.542 1.705-1.626-.18-2.284.65-.374.48.785.091-1.46.751-.262-.679-1.538.526-1.457-1.005-.248-.081-1.118 1.105-.08.049-.744-.715-.157.625-.144.218-.988 1.454-.185-2.647-1.862.731-.647-.943-1.59.403-.947-1.138-.353.327-.767.394-.633 2.837-1.064 1.382-2.284-.8-.533-.093-.685.438-.2-.298-.597.545-.793-.946-.45.341-.43-.3-.36-1.672-.751-.096-.917-.627-.081.287-.738-.366-1.223 1.08-.603.285-.942 1.026.22 1.494-.552h.465l.566-.092.639-1.028 1.167.4.137-1.452 2.266 1.065.474-.41.299.43 1.687-.128.896-.68-.233-1.81 2.2-1.271.247-.851-.522-.909z"/>
            <path d="M146.652 65.897l.22-.316.589.573-.567.595.285.412.203-.007.406.667 1.098-.335.193.403.55-.109-.033.428.952-.38.121.428 2.08-.709.582.264 1.773-1.181.34.695.733-.127.164.503.262-.325.509.856 1.073-.541.372.455-.408.39.358.117 1.175-.291.634-.914.981 1.31.39-.396 1.457.448-.133.445.583-.254.98.787-.301.39.938.221.453-.844.695 1.524 1.11-.976 1.308 1.43.652-.314.302.502.968-.327-.194-.427.893-.468.977.901 1.087-.474.912.243.62-.496.422.7.48-.7 1.29.219.076-1.087 1.533.373.585.256-.254.55.834 1.106-.524 1.293 1.882 1.358.298 1.144.899-.337.538 1.383.866-.688.344 1.92 1.402.394.35.772.54-.5.038 1.299-1.873.176.851.19.045.432-.776.217-.324.866 1.655.685.19 1.346-.826 1.17.437.376-.188.589 1.866-.38-.317.458.88.551-1.3.396.278.504-1.102.653.36.977-1.669.463.706 1.263-1.223.364.506.894-.316.965.686.31-.168.863-.865-.33-.244.93-.648.086-1.199-.397-.628.573-2.55-.273-.831.798-1.257-.35-.717 1.827.72 1.862-.962 1.438-1.5.785-.008.684-1.584.232-1.05.882-.407-.06-.051-1.245-.809.514-.594-.447.401.718-1.093.734-3.276-.587-.845.56-1.746.01.888-1.367.524.277.245-.355-.011-1.97-1.047-.964-1.044-.171-.44-1.883-1.012.266-.701-.848-.538.474-.117.222-.71-.094-.489.562.012-1.127-.955-.408-.488 1.101-.662-.155.263.586-1.316-.28-1.43.757-1.532-.125-.329-.732.443-.091-.205-.96.443-.737-.504-.572.262-.708-1.11-.148.053-1.723-.516.577-.838-.014-.585-.212-.175-.688-.768.017-.579-1.573.256-1.366-.67-.699-1.075-.091.134-1.269-1.098.01-.53-1.209-.902-.51.23-.807-.79-.478 1.118-1.492-1.017-.485-.047-2.371.425-.296-.479-.177.173-.516-.87-.354.39-.684-1.387-1.702-.197-.914.598-.388-1.091.089.183-1.3-.68-1.347.324-.355.579.454.473-1.192.241.553.12-.004 2.159-.55.782-1.564.372-2.725zM212.655 227.993l.529 1.717.763.037.32.84-.369 2.477.346.822 1.476.492 1.3 2.382-.684.034.007.78-3.863 2.995.578.676-.547.437.19 1.512-.869 1.744.341 1.237-1.968-.668-1.223.306-1.336 2.262 1.026.358-.233.713-2.87 1.663-.229.236-1.837.893-.238 1.214-2.137-.795-.358-.721.45-.697-.72-.642-2.966.207-1.13.478.274.198-1.818 1.094-1.745 1.832-1.067.367-.118.524-1.809.523-2.07 1.912-1.009 1.656-1.763-.716-1.703.516-.233.178-3.6 2.93-1.298 1.964-1.871 5.138.5.678-.713 6.522.34.043-.295 2.766.354 2.125 2.113.767-.406.322.157.7.574.164.486 1.152-2.053.406-1.197-1.497-1.472.288-.446-.507-.656.782-1.076-.33-1.595 1.485-1.463-.18-1.356.616-.473.527.45 1.388-2.133-.535-.793.753-1.327-.202-1.1-1.61-3.948-1.35-1.24.675-1.03-.24-1.57 1.856-1.544.427-1.185-1.032-.66-2.14-1.198.111-1.295-1.149-2.113-.242.208-1.841 1.267-.786-1.551-.264.22-.811-3.06-.295-1.088-.884-1.27.076-.55 1.415-.712.113-1.06-2.544-.87-.508.122-.484-2.306.128-.509-.39-1.373.585-2.022-2.427-2.135.055-.53-.582-.765.503-1.57-1.137-3.317-1.076-1.105.683.247 1.04-.57.667.487.234-.55.622.803.864-.054 1.077-1.76-.44-3.918.453-1.398-1.01-1.473 1.54-.78-1.288-1.868-.642-2.6 1.184-1.023-.095-.37.497-1.228-.223-.264-.77-.975-.255-1.076-2.193-.616.335-2.801-1.905-.316-2.071 1.038-.51-.15-2.178.64-.28-.028-.693 1.81-.447-.424-.462.132-1.448 1.054-.45.642-1.566.251.411.859-.319-.12-1.41.534.131.717-1.596-.647-.949.438-.854.825.117.437-.643-.746-.802.065-2.247-.943 1.081-.547-.019.37-.245-.457-.503.118-.859 1.065-.277-.708-.607.22-.638-.585-1.098-.612.145-.063-1.191-1.434.05-.372-.491-1.378.423-.195-1.023-.721-.08-.05-.76.426.204-.009-.494.475-.074-.173-1.623 1.237-.932-.538-.406-.177-1.79.742-.056-.338-1.478.497-.329-1.194-.906 1.345-1.294.448.353.744-.478.683.46.047-.605 1.078-.407.208-.721.963.941-.622.774 1.792 1.02.383-.639-.46-1.388 1.596-1.255.666.895.788-1.311.879-.218-.04.354 1.599.62.318-.585 1.486.093 1.38-.703.419-.849 2.126.028.83-.784 1.586 1.743 1.709-1.16.395-1.423.93-.116-.197-1.012 1.633.53.717-.352-.195-1.157-.578.128-.139-.409 1.195-.203.486-2.368.5-.237-.776-.871-.506.203-.54-.444.605-2.217.543-.09.47 1.213.236-.516 2.454-.125-.128-1.909-.847-.564-.012-1.918-.793-1.166.753.22.665-.78 1.33-.36-.216-.63 1.325-1.427-.132-.975 1.69-.43 1.034-1.218.386.195.269-.863.374.107.15-.768-.56-.353.017-.633 1.517-.476-.094-1.025 1.753-1.125-.625-1.007.645-.19-.63-2.427-.094-.373 2.812-1.332.229.545.663-.367 1.257.275 1.16.901.525 1.104.97.398.016.617 1.154.457 2.372-1.734.724.142.166.657.851-.692 1.686-.054.345 1.308.585.44-.404.527.139.953 1.804 2.67-.941 2.897.656.028.286 1.849.81.628.38-.207-.213-.808 1.789-.603.71-.064.574.94 2.948-.32.35-1.202 1.36-.979-.229-1.048 1.132-1.218.095-1.693 2.966-3.018.838.923-.032 1.77.716-.587 1.225.003.643 2.684.722-.139.374.618-.574.4.527.539.038 2.024 1.006 1.116.796-2.174.488-.065-.28-.4.438-2.262.59-1.185.594.126.103-1.013h.128l-.133-.64.63-.553 1.351 1.297.993-.795-.285-.682.585-.224-.172-.603.562-.221.422.496 1.913-1.527.011.48.978.573.038 1.377 1.557 2.895.437-.56 1.441-.367.415.313.11-1.568 1.355-.006.462.687-.177.801 1.72-.293 1.482 2.317.557-.375.032.903.892.24-.327.91.517.456-.327.579.643 1.043.112 1.596.585.785.527-.047.798 3.09 1.809 2.091-.64.439.393.867-.48 1.05.258.344 1.833-.55.29.732.797-.15 1.766 1.655.703-.852-.017-.713.863-.725 1.472-.257.08 1.75.948.225.34-1.725 1.168-.166.15.473.824.102.218.723z"/>
            <path d="M202.493 40.856l-.065-.49-1.029-.21.366-.841-.583-.644.574-1.035 1.535-.7-.74-1.26.063-.963-1.609-.024.596-1.034-.096-1.74 1.577-1.396-.284-.675-1.035-.6-.281.498.39.584-.663.011-.464-1.593-.91-.259-1.16-1.687-2.747 1.123-1.163-.88-2.302.031-.887 1.616-1.115-2.262.371-1.168-.336-1.876-1.167-1.385-2.42.31.408-1.278-.989-.338-.613.94-1.598.538-1.893-1.168-.28-2.494-.89-2.212.582-.65-.103-.89-1.553-.83-.896-2.292-.874-.15-.545.752-1.624-.047-1.402.793-1.034 2.114-1.338-1.085-.65.247-.63-.385-1.486-2.965-1.217-.414-.746.34-.8-1.319.208-1.72-.417-.766.933-.984-.554-1.524-.748-.438L165.487 1l-3.652 1.506-.62-.448L157.89 3.2l-.786.21-.46.01-1.12.585-5.14 1.23-2.822.916-1.872 2.07-1.797.527.728 2.389-.442 2.526-.405.555-.205-.848-.09.52.308 5.53 1.315 1.975-1.084-.883-.724 4.844 1.57 1.176-1.543.19-.405 2.765.324.85.874.074.715 1.459 1.224.181.25.73-.654.476-1.064-.657-.531.227-.69-.765-.771.066-.88 1.164-.702 2.277-1.663 1.541.688.254.908-.456.078 1.063 5.817 5.311.495 2.492 1.16 1.82-.821-.035-.07.841-.735.156.03.952-.576.422.383.484.851-.74.166.256-1.213 1.75.536.724-.609.767.58.6-.43.046h-.099l.746.728-.105.607.531.193-.695 1.185.615.497.327-.765.692.272-.41 1.168-.215.14-.836.875-.25 1.135.577.062-.412.423.887.938.253 2.561.567.062.142.528-.335.977-.699-.901-1.09.264-.126 1.13.22-.315.589.573-.567.595.285.412.203-.007.406.667 1.098-.335.193.403.55-.109-.033.428.952-.38.121.428 2.08-.709.582.264 1.773-1.181.34.695.733-.127.164.503.262-.325.509.856 1.073-.541.372.455-.408.39.358.117 1.175-.291.634-.914.981 1.31.39-.396 1.457.448-.133.445.583-.254.98.787-.301.39.938.221.453-.844.695 1.524 1.11-.976 1.308 1.43.652-.314.302.502.968-.327-.194-.427.893-.468.977.901 1.087-.474.912.243.62-.496.422.7.48-.7 1.29.219.076-1.087 1.533.373.585.256-.254.55.834 1.106-.524 1.293 1.882 1.358.298 1.144.899-.337.538 1.383.866-.688.344 1.92 1.402.394.35.772.54-.5.957-2.035.95-.088.076-.84.659-.123-.294-.586.692-.208.46-1.293.815-.34-.607-.987-1.467.212.04-.795 1.147-.577-.836-1.45.48-1.053 1.436-.126.421.403.975-.568.016-.76-.767.148-.36-1.03-.372.339-.634-.541.542-.754-.583-.658.307-.51-.46-1.534 2.972-1.47 1.645.395.099-1.216 1.53-.911.8 1.007 1.73.591.03-2.689.686-.247-.588-.765-.019-1.35.85-.61-.074-.6-.587-.103.63-.907-1.22-1.757.393-.546 1.66.163.25-1.556 1.32-.726 1.45-2.008-.981-.796 1.057-3.063.052-1.237-.852-.344.323-1.564z"/>
            <path d="M148.19 57.702l.41-1.168-.693-.272-.327.765-.615-.496.695-1.186-.531-.193.105-.607-.746-.728h.1l.43-.045-.581-.6.61-.767-.536-.725 1.212-1.75-.165-.256-.852.74-.383-.483.576-.423-.03-.951.735-.156.07-.842.822.035-1.16-1.82-.496-2.491-5.817-5.312-.078-1.063-.908.456-.687-.254-4.105 3.321-2.48 1.21-1.462.661-1.322-.383-4.195 1.78-4.172.628-5.598 3.803-2.91 1.167-.962.92-.166.864-.087.567-1.958 4.576.571 1.047 1.654 1.02 2.39.492.532-.41-.253.737-1.35.045-2.161.911-2.875 2.628-1.91.947-3.049.566-.573-.247-.7-.161-2.576-1.39-8.094-.546-4.705-1.666-2.452.261-.976 1.024.054.553-.876-.645-1.054.962.783-2.495-3.2-4.842.258-1.193.576-.108.385-.952.585.203-.81-3.086-2.34-.366-2.324.339-.311.992-1.042.473-1.674-.09-1.687-.325-1.775-.397-1.36-.43-.594-.933-.786.412-1.255-.706-.132 1.768 1.615.55.598.964.18 2.082-1.058 1.272.892 1.041.858 4.518.5-.1 1.797 1.61.475 1.37 1.327 2.725.282-.302.497 2.814-.387 1.142.226 2.192.484 1.303.459-.9-.114 2.9.26.28-.25.262-.49 2.61-.677.463.897.451.136 2.649.906.454.65 1.58 1.073.42.06.549 1.374-.691-.567.556 1.302.907-1.613-.359-1.452.68-.457-.504-.025.592-1.335-.484 1.868 4.915.854.068.652.884 1.51-.27.567-1.013 1.107-.358.569-1.162 4.121 1.206 1.468.638.698-.172.386-.773 1.049.695 1.425-.09.708 1.488.784-.34.424.988 1.038-.469-.377-.793.93.176.567-.574.271 1.39 1.21-.924 1.037-.054.926-1.209 2.539-.034.977.868.717-1.29 1.115.506.673-.979-.484-.419.31-.527.938.023 1.39 1.204-.635.587.605 1.813 2.154.192-.007 2.582 1.123-.768.342.556.98.108.297-1.041 1.92-1.106-.277-.54.656.23-.031-.49 2.88-.526 1.227.729.594 1.16-.276.441.495 3.03 1.954.785.229-.39.076.857.952 1.206 1.98.094.335.433-.164-.772.495-.262.68.312 1.212 2.23.504.261.833-.463.73-.648-.943-1.588.404-.948-1.138-.353.327-.767.394-.633 2.837-1.064 1.383-2.285-.8-.533-.094-.685.439-.2-.298-.596.544-.794-.945-.449.34-.43-.3-.36-1.672-.751-.097-.917-.676-.176.336-.643-.502-1.006 1.216-.82.285-.942 1.026.22 1.494-.552h.464l.567-.092.638-1.028 1.168.4.136-1.452 2.266 1.066.475-.41.298.43 1.687-.129.896-.679-.233-1.81 2.2-1.272.247-.85-.522-.91 1.194-.565-.197-.913.598-.389-1.091.089.183-1.3-.68-1.347.324-.355.578.454.473-1.192.242.553.119-.004 2.16-.55.782-1.564.372-2.725.667-.698.126-1.132 1.09-.263.7.901.334-.977-.141-.529-.567-.061-.253-2.561-.888-.938.413-.424-.578-.061.25-1.135.836-.875z"/>
            <path d="M57.912 139.745l.883.62-.32 1.109 1.68.848.164 1.792-1.311-2.08-1.195-.049-.872-1.043.218-.665-.37-.433 1.123-.099zm26.584-49.263l1.468.639.699-.172.385-.774 1.049.696 1.425-.09.709 1.487.784-.34.423.988 1.038-.468-.376-.793.93.175.566-.574.271 1.39 1.21-.924 1.038-.054.925-1.208 2.54-.034.976.867.717-1.29 1.116.507.672-.98-.483-.418.309-.528.939.024 1.389 1.203-.634.588.605 1.812 2.153.193-.007 2.582 1.123-.768.343.556.979.107.298-1.04 1.92-1.106-.278-.54.656.229-.03-.49 2.879-.526 1.228.73.593 1.16-.276.44.495 3.031 1.954.784.23-.39.075.857.952 1.206 1.981.094.334.434-.163-.772.495-.263.679.313 1.212 2.23.504.261.833-.463 2.647 1.861-1.454.185-.218.988-.625.144.715.158-.05.743-1.104.08.08 1.118 1.007.248-.527 1.457.68 1.538-.752.263-.091 1.459-.48-.784-.65.373.18 2.285L124 114.8l.208.542-1.678.503-.918 1.127.224.98.517-.159-.508.705-2.962.893-.33.857-.558.093-.918-.907-.422.797.865 1.36-.434.279-2.855-1.387-.535.23.027.281-.892 1.903.72.391-.106.901-1.54 3.331.66.588-.96.664.16.486-1.553 2.15.042 2.11-.58.72.325.212-.298.829-.8-.362-.593.494-.746 1.522.091.9-1.122-.466-.356 1.196-.608.335-1.116-.529.818-1.094-.927-.16-.458.462-1.368-.377-1.672.617-1.261-.14-.247.804-1.136-.072-.513.509.486-.926-.787-.062-1.38.637.284 1.037-1.237 1.168-1.597-.206-.191.512-.8.12-1.629-.7-.473.593-.777-.082-.206.656-.975-.154.428.599.3-.187-.329.53.679.02-.257.358 1.158.438-.518 1.182 1.246 1.469h.094l.89.598h.16l.589.382-.449.415.02.135-.051 1.215 1.427 1.801-.524.453.957.746-.484.884.96.475-.292 1.504.524 1.399-.979.387.878 2.127-.652.747-.082 1.116.468.204.332-.726 1.492.94-.439.824-.938-.01-.097.476-.753.227-.197.693-1.127-.275-.54.754-1.803-.732.062-.557-.623.143-.098-.14-.424.8-.818-.304-1.001.538-.666-.402.709-1.57-1.007.63-1.77.056-.477 1.056-.919.023-1.92.055-.094 1.457-2.458-2.076-.618-.262-2.788-.003-1.047-1.994-3.013-.522-2.9-2.354-.788-.074-.987-3.762-2.042-2.852-.405.131-1.111-1.752-2.835-2.44-.22-2.208.929-.082-.198-.557 1.932-1.962-.289-.271.399-1.053 1.132-.653-.588-1.077-1.068-1.074-1.197-.394-.202-.016-2.957-.855.719-.901.833.129.26-.399-.114-3.151-.903-.195-1.963 1.232-1.707-1.499-.937.053-.322.607-2.534-1.049.81-.607.068-.976-1.205-1.189 2.259-1.63.009-.806.77-.956.487.684 1.89-.158.423-1.828.88.073.321.646 1.342-.6-.092.586.574.172.142-1.056 1.328-.374-.06-2.033.43-.57-.372-.658.37-.62.663.036.27-.657.62.09.88-.927.408.744 2.125-1.24 2.019.373 2.467-.402.849-1.796 3.339-1.312-.13-1.076 2.03.24.556.966 2.61.753.56-2.502.77-.536-.201-.758.441-.257.48-2.227.659-.21.035-.512 1.663.074.746-.632-.376-.963.269-1.235-.66-.734-.533-3.695-.093-.083-.505-2.113 1.255-2.105-.804-2.89.247-3.162zM228.163 260.684l.76-1.283-.664-.771.623-.412-.217-.522-.233.458-.083-.8.038-.328-.955-.84-1.806 1.006-4 .116-.717-.526.02-.83-1.093-1.729-1.116-.21-.318.08-.54.318-.09.264-1.104-.591.737.865-.612-.15-.24.277.668.246-.027.046-.363.366.959.619.863-.754-1.264 1.587-.54.04-1.385-.64-4.315-.363-.543-.624.843-.71-.112-.564-1.284-.927-6.787-.246.237-1.215 1.838-.893.228-.235 2.87-1.663.233-.713-1.026-.358 1.336-2.263 1.224-.306 1.968.668-.341-1.237.87-1.743-.192-1.512.547-.438-.578-.676 3.863-2.995-.007-.78.684-.034-1.3-2.382-1.476-.491-.345-.822.37-2.478-.321-.84-.764-.037-.528-1.716.027-1.86 3.092.523.681 2.68 1.365-1.043.948.031 3.085-1.493.37.74.72.2.95-1 .358-.169-.327 2.592 1.737.65.435-.625 1.096.758 1.279-.224.665.437-.04 1.406 1.174.109.44 1.013 1.083.112.854-.527.926-.776-.412-.412.228-.492.607-.15.847.733-.188.539 1.06.127.091-.532-.883-.25.193-.558.776-.212.004-2.21h-.883l-.235-1.052-.643-.175.477-.853-1.826.1-.594-.64-.63.409-1.407-1.16.287-.514-.54-1.06.43-.255.863.436.47-.557-.752-.329-.147-1.61 3.496.868.326-.897.793-.069-1.5-1.304 1.141-2.129-.11-1.253 1.93.402.455-.723.898.27.919-1.163-.706-.503.63-1.672 1.25.409 1.53-.44.654-.665-.69-.734 1.528-.971.87.618 1.736-1.523 2.541.391.989-.694 1 .814.44-.215.056-2.667-.796-.459.025-1.42-1.62.074-1.058-.623.347-1.53.55-.196-.31-.99.336-.593.395-.19.69.583.88-.48.693.654.013 1.026 1.931.576.798-.099-.14-1.2.673-.52.702.305.813-.764 1.181.47.948 2.864 1.586.178-.155.75.61.954-.47.677.165 1.06 2.524 1.74 1.048.2.567-.57 1.943 1.22-.506 1.082 1.708 3.327-1.84-.248-.712.44-.312.757.428 1.053-.406.034-.385 1.392-1.214.58-.511.819.506 1.514 1.576 1.576-1.246.26-.121 1.85.795.365.753 1.71.854.497.271 1.386 4.045 1.073 2.055 1.886 1.422-.168.326.959.79-.305.718.405.136-.567.68.152 2.263-.96 1.27.21.41-.851 1.06.062-.394 1.36 1.078 1.472-.207 1.298-.956.426-.237 1.694-1.912 1.003-.194 1.422-1.374.723.78 2.802-.863.443-.121.612-.563-.355-.533.29-.704.982-1.508.2.244.792-.371.334-.397-.94-.244.652-.439-.39-.954.273-.747 1.187-.186-.362-.981.287-.789 2.045.525 1.077-.538.312-.51-.898-1.34 1.104-.505-.493-1.194.277-.578.864.44.524-1.465 2.095-.659-.16-.161.677-1.463.105-.986-.44-.643 2.304-.798.21-.208.867-2.167 1.25 2.003.227.307-.442.435.387-.715.728.354 1.328-.881.4.114.585-.582.294-.478-.778-.858-.178-1.451 1.174-2.508.199-.511.622.052 1.158-2.015-1.063-1.95.187-.823 1.519.051.903.444.085-.383.192-1.345-.064-.037-.346.804-.125-.115-1.068-2.31.034-.443-.848-1.654.113-.11-.686-.748.18-.145.5.645.036.526.441.32.578-1.267-.336-.715.988-.697-.098-.795-.578.342-1.42-.934-.025.124-.699-1.725-.147-.207-1.11-1.447-.205-.397.816-1.535-1.671-.822.54z"/>
        </g>
        <path fill="#14486E" fill-rule="nonzero" d="M125.5 130c.414 0 .75-.328.75-.732v-8.587c2.865-.385 4.935-2.868 4.737-5.682-.198-2.815-2.595-4.999-5.487-4.999s-5.29 2.184-5.487 4.999c-.198 2.814 1.872 5.297 4.737 5.682v8.587c0 .404.336.732.75.732zm-1.075-14.633a.741.741 0 0 1-.75.731.741.741 0 0 1-.75-.731c.001-1.387 1.153-2.511 2.575-2.512.414 0 .75.327.75.731a.741.741 0 0 1-.75.732c-.594 0-1.075.47-1.075 1.049z"/>
        <text fill="#444" font-family="Nunito-ExtraBold, Nunito" font-size="10" font-weight="600" transform="translate(1 1)">
            <tspan x="146.04" y="83">PARIS</tspan>
        </text>
        <text fill="#444" font-family="Nunito-ExtraBold, Nunito" font-size="10" font-weight="600" transform="translate(1 1)">
            <tspan x="129.495" y="248">TOULOUSE</tspan>
        </text>
        <text fill="#444" font-family="Nunito-ExtraBold, Nunito" font-size="10" font-weight="600" transform="translate(1 1)">
            <tspan x="106.725" y="139">TOURS</tspan>
        </text>
        <text fill="#444" font-family="Nunito-ExtraBold, Nunito" font-size="10" font-weight="600" transform="translate(1 1)">
            <tspan x="198.135" y="192">LYON</tspan>
        </text>
    </g>
</svg>
