<svg xmlns="http://www.w3.org/2000/svg" width="46" height="46" viewBox="0 0 46 46">
    <g fill="none" fill-rule="evenodd">
        <path d="M0 0h46v46H0z"/>
        <path fill="#007BC3" d="M36.377 7.248c-.096.426-.995.853-1.54 1.022l-.156.048-.005.193c-12.884 2.017-22.11-.008-23.524-.352l-.004-.09-.14-.055c-1.527-.598-1.55-1.134-1.55-1.153V5.606c0-.626.884-.714.922-.718l.333-.031-.088-.175c.869-.332 4.552-1.504 12.73-1.228 9.425.319 11.394 1.303 11.413 1.312l.114-.212c-.077-.041-1.992-1.02-11.519-1.342-8.202-.278-11.842.86-12.79 1.228a.438.438 0 0 1 .057-.135c.343-.556 2.225-1.848 12.244-1.848 9.922 0 11.951 1.282 12.362 1.832.129.173.104.282.104.282h.001l-.101.236.246.073c.755.224.881.44.887.436.01.08.15 1.284.004 1.932zM34.034 33.9c-.004.016-.631 1.634-11.16 1.634-10.514 0-10.911-1.913-10.913-1.923L11.16 8.41c1.102.263 5.604 1.225 12.303 1.225a72.83 72.83 0 0 0 11.207-.88L34.034 33.9zm2.788-28.67c-.024-.101-.17-.441-1.027-.731a.872.872 0 0 0-.152-.425C35.019 3.128 32.296 2 22.874 2c-9.385 0-12.05 1.123-12.633 2.064a.863.863 0 0 0-.136.406C9.63 4.576 9 4.897 9 5.606l.002 1.228c-.017.137-.01.844 1.698 1.55l.803 25.233c0 .243.319 2.374 11.37 2.374 10.898 0 11.586-1.691 11.614-2.042l.642-25.295c.432-.153 1.537-.609 1.692-1.306.17-.744.011-2.038 0-2.118zm-2.699-.13l-.05-.237c-.032.007-3.352.69-11.618.69-8.25 0-11.058-.994-11.085-1.004l-.083.227c.112.042 2.861 1.018 11.168 1.018 8.298 0 11.635-.688 11.668-.694M22.874 8.187c1.752 0 2.07-1.015 2.126-1.371.997.009 7.764 0 10.207-1.39l-.119-.21c-2.526 1.436-10.116 1.358-10.194 1.358l-.122-.002v.122c-.001.051-.032 1.252-1.898 1.252-2.453 0-2.697-1.34-2.706-1.397l-.015-.103h-.104c-6.738-.017-9.044-1.219-9.067-1.23l-.115.211c.093.051 2.345 1.233 9.086 1.26.103.356.616 1.5 2.921 1.5m2.668-.807l-.122-.003-.001.123c-.001.053-.046 1.294-2.545 1.294-3.608 0-3.753-1.419-3.755-1.432l-.005-.109-.109-.005c-.062-.004-6.235-.312-9.094-1.188l-.071.23c2.69.825 8.257 1.15 9.057 1.193.093.373.652 1.552 3.977 1.552 2.32 0 2.709-1.044 2.773-1.411 7.601.19 10.562-1.279 10.685-1.342l-.109-.215c-.03.015-3.08 1.515-10.68 1.313"/>
    </g>
</svg>
