<svg xmlns="http://www.w3.org/2000/svg" width="46" height="46" viewBox="0 0 46 46">
    <g fill="none" fill-rule="evenodd">
        <path d="M0 0h46v46H0z"/>
        <path fill="#007BC3" d="M33.145 28.788c-.081.449-.844.834-1.13.945l-.106.04-.02.172c-9.446 1.832-16.208-.002-17.271-.322l-.012-.078-.089-.043c-1.141-.556-1.142-1.064-1.141-1.08v-1.148c0-.584.597-.67.665-.678l.227-.033-.048-.145c.626-.298 3.329-1.375 9.361-1.123 6.925.292 8.373 1.189 8.385 1.197l.11-.165c-.056-.037-1.468-.934-8.487-1.23-5.952-.25-8.648.76-9.394 1.112a.605.605 0 0 1 .114-.258c.426-.59 2.15-1.577 8.92-1.577 6.787 0 8.561.995 9.015 1.588.175.229.135.386.135.386l-.06.174.173.063c.546.2.646.415.651.415v-.001c.006.05.113 1.179.002 1.789zm-1.724 5.102c-.003.014-.39 1.5-8.192 1.5-7.779 0-8.01-1.763-8.014-1.802l-.565-3.75c.884.259 4.164 1.108 9.012 1.108 2.388 0 5.16-.213 8.202-.799l-.443 3.743zm2.093-6.947c-.013-.064-.106-.382-.757-.656a.923.923 0 0 0-.188-.517c-.576-.808-2.664-1.77-9.34-1.77-6.656 0-8.702.959-9.246 1.762a.915.915 0 0 0-.17.498c-.353.1-.812.39-.812 1.014v1.13c-.007.074-.03.73 1.263 1.39l.578 3.822c0 .22.236 2.149 8.387 2.149 8.209 0 8.552-1.651 8.563-1.83l.462-3.896c.313-.135 1.145-.552 1.26-1.184.122-.672.007-1.845 0-1.912zm-2.001-.144l-.05-.191c-.024.006-2.464.629-8.543.629-6.063 0-8.127-.905-8.146-.915l-.083.18c.084.038 2.11.933 8.23.933 6.11 0 8.568-.63 8.592-.636m-8.284 2.823c1.312 0 1.538-.94 1.576-1.253.773.002 5.719-.008 7.512-1.274l-.114-.162c-1.852 1.308-7.43 1.238-7.487 1.237l-.1-.001v.1c0 .047-.022 1.155-1.387 1.155-1.798 0-1.975-1.231-1.981-1.284l-.01-.086h-.088c-4.949-.016-6.643-1.11-6.659-1.122l-.11.164c.068.046 1.728 1.129 6.688 1.155.078.314.466 1.371 2.16 1.371m1.964-.715l-.102-.004v.103c0 .012-.022 1.193-1.862 1.193-2.651 0-2.75-1.265-2.753-1.32l-.004-.088-.089-.005c-.045-.003-4.584-.284-6.685-1.084l-.07.184c1.972.752 6.037 1.05 6.662 1.091.063.327.459 1.42 2.939 1.42 1.708 0 2-.969 2.05-1.29 5.59.17 7.775-1.172 7.865-1.23l-.105-.167c-.022.014-2.253 1.38-7.846 1.197"/>
    </g>
</svg>
