<svg xmlns="http://www.w3.org/2000/svg" width="46" height="46" viewBox="0 0 46 46">
    <g fill="none" fill-rule="evenodd">
        <path d="M0 0h46v46H0z"/>
        <path stroke="#007BC3" stroke-width=".557" d="M14.237 16.433l.588 17.352s0 1.943 8.124 1.943c8.194 0 8.302-1.648 8.302-1.648l.47-17.41s1.119-.43 1.237-1.078c.118-.648 0-1.825 0-1.825s-.06-.304-.765-.564c0 0 .758-2.203-9.244-2.203-10.008 0-9.125 2.203-9.125 2.203s-.824.089-.824.856v1.137s-.059.607 1.237 1.237zm0 0s7.086 2.397 17.484.336m-17.897-3.566s2.473-1.496 9.479-1.202c7.006.294 8.36 1.202 8.36 1.202m-.53.29s-2.377.627-8.49.627c-6.11 0-8.112-.915-8.112-.915m-.294.596s1.648 1.113 6.652 1.128c0 0 .165 1.359 2.06 1.359 1.472 0 1.472-1.243 1.472-1.243s5.593.087 7.477-1.244m-18.427.773c2.12.808 6.653 1.081 6.653 1.081s.058 1.4 2.825 1.4c1.943 0 1.943-1.28 1.943-1.28 5.636.186 7.83-1.2 7.83-1.2"/>
    </g>
</svg>
