<svg xmlns="http://www.w3.org/2000/svg" width="46" height="46" viewBox="0 0 46 46">
    <g fill="none" fill-rule="evenodd">
        <path d="M0 0h46v46H0z"/>
        <path fill="#007BC3" d="M36.377 20.247c-.097.426-.996.853-1.541 1.022l-.153.047-.01.194c-12.891 2.019-22.116-.01-23.524-.351l-.006-.092-.134-.053c-1.529-.599-1.551-1.134-1.55-1.153v-1.255c0-.627.883-.715.92-.719l.334-.03-.087-.176c.868-.333 4.551-1.505 12.728-1.228 9.426.32 11.394 1.304 11.413 1.313l.114-.212c-.077-.042-1.992-1.02-11.519-1.342-8.2-.277-11.84.86-12.79 1.228a.46.46 0 0 1 .057-.136c.344-.555 2.226-1.847 12.245-1.847 9.921 0 11.95 1.281 12.36 1.832.13.173.105.28.105.28h.001l-.102.237.247.073c.755.223.885.447.889.436.01.08.149 1.284.003 1.932zm-2.344 13.634c-.004.016-.631 1.634-11.16 1.634-10.512 0-10.91-1.913-10.912-1.932l-.795-12.172c1.112.265 5.609 1.224 12.296 1.224a72.9 72.9 0 0 0 11.199-.879l-.628 12.125zm2.789-15.652c-.024-.102-.17-.441-1.028-.731a.875.875 0 0 0-.152-.424C35.018 16.128 32.295 15 22.874 15c-9.385 0-12.05 1.122-12.632 2.063a.85.85 0 0 0-.137.406c-.474.106-1.104.428-1.104 1.137l.002 1.227c-.017.138-.01.846 1.703 1.552l.798 12.213c0 .243.32 2.374 11.37 2.374 10.897 0 11.585-1.692 11.613-2.037l.637-12.28c.429-.152 1.54-.607 1.699-1.307.168-.745.01-2.04-.001-2.12zm-2.7-.13l-.05-.236c-.032.006-3.352.689-11.618.689-8.249 0-11.056-.992-11.084-1.003l-.083.227c.113.042 2.86 1.017 11.167 1.017 8.298 0 11.635-.687 11.668-.694m-11.248 3.087c1.753 0 2.07-1.014 2.127-1.37.998.01 7.762-.001 10.204-1.39l-.119-.21c-2.525 1.436-10.113 1.36-10.192 1.358l-.122-.002v.122c0 .051-.021 1.251-1.898 1.251-2.454 0-2.697-1.34-2.706-1.397l-.015-.103h-.105c-6.737-.016-9.043-1.218-9.066-1.23l-.115.212c.093.051 2.346 1.233 9.086 1.26.104.355.614 1.5 2.92 1.5m2.668-.808l-.124-.003v.124c0 .013-.029 1.294-2.543 1.294-3.609 0-3.754-1.42-3.754-1.433l-.006-.11-.11-.004c-.061-.003-6.234-.312-9.094-1.188l-.07.23c2.69.826 8.257 1.151 9.057 1.194.094.372.652 1.552 3.977 1.552 2.319 0 2.707-1.044 2.772-1.412 7.59.192 10.561-1.278 10.684-1.341l-.109-.215c-.03.014-3.082 1.513-10.68 1.312"/>
    </g>
</svg>
