<svg xmlns="http://www.w3.org/2000/svg" width="46" height="46" viewBox="0 0 46 46">
    <g fill="none" fill-rule="evenodd">
        <path d="M0 0h46v46H0z"/>
        <path fill="#007BC3" d="M36.377 11.249c-.096.425-.995.852-1.54 1.02l-.155.049-.006.193c-12.888 2.017-22.112-.008-23.525-.35l-.003-.091-.14-.055c-1.527-.6-1.55-1.134-1.55-1.153V9.606c0-.626.884-.714.922-.718l.333-.031-.088-.175c.869-.332 4.55-1.504 12.73-1.228 9.425.32 11.394 1.304 11.413 1.313l.114-.213c-.077-.04-1.992-1.018-11.518-1.342-8.202-.276-11.843.862-12.792 1.23a.465.465 0 0 1 .058-.137c.343-.555 2.225-1.848 12.244-1.848 9.922 0 11.951 1.282 12.362 1.833.129.172.104.28.104.28h.001l-.101.237.246.073c.755.223.887.445.887.436.01.08.15 1.284.004 1.933zm-2.343 23.005c-.004.015-.631 1.634-11.16 1.634-10.514 0-10.911-1.913-10.913-1.926l-.8-21.552c1.103.264 5.604 1.226 12.302 1.226 3.26 0 7.046-.231 11.206-.88l-.635 21.498zM36.822 9.23c-.025-.102-.17-.441-1.027-.731a.867.867 0 0 0-.152-.425C35.019 7.128 32.297 6 22.874 6c-9.385 0-12.05 1.123-12.633 2.064a.866.866 0 0 0-.136.406C9.63 8.576 9 8.897 9 9.606l.002 1.228c-.017.138-.01.844 1.699 1.55l.802 21.587c0 .243.319 2.374 11.37 2.374 10.898 0 11.586-1.691 11.614-2.043l.641-21.648c.432-.152 1.538-.607 1.693-1.305.17-.745.011-2.04 0-2.119zm-2.699-.13l-.05-.236c-.032.006-3.352.689-11.618.689-8.25 0-11.057-.993-11.084-1.004l-.084.227c.113.042 2.861 1.018 11.168 1.018 8.298 0 11.635-.687 11.668-.694m-11.249 3.088c1.752 0 2.07-1.015 2.126-1.372.988.008 7.762.001 10.207-1.389l-.119-.21c-2.526 1.437-10.115 1.357-10.194 1.357l-.122-.001v.121c-.001.052-.032 1.252-1.898 1.252-2.453 0-2.696-1.34-2.706-1.397l-.014-.102h-.105c-6.738-.017-9.044-1.22-9.067-1.231l-.115.212c.093.05 2.345 1.232 9.086 1.26.104.356.616 1.5 2.921 1.5m2.668-.808l-.122-.002-.001.122c-.001.053-.046 1.294-2.545 1.294-3.608 0-3.753-1.418-3.755-1.432l-.005-.109-.109-.005c-.062-.003-6.235-.312-9.094-1.188l-.071.23c2.69.826 8.257 1.151 9.057 1.194.093.372.652 1.552 3.977 1.552 2.32 0 2.709-1.045 2.773-1.412 7.595.189 10.562-1.278 10.685-1.342l-.109-.215c-.03.015-3.067 1.516-10.68 1.313"/>
    </g>
</svg>
