<?xml version="1.0" encoding="UTF-8"?>
<svg width="190px" height="55px" viewBox="0 0 190 55" version="1.1" xmlns="http://www.w3.org/2000/svg" xmlns:xlink="http://www.w3.org/1999/xlink">
    <!-- Generator: Sketch 47 (45396) - http://www.bohemiancoding.com/sketch -->
    <title>Carty-Logo</title>
    <desc>Created with Sketch.</desc>
    <defs>
        <linearGradient x1="73.46575%" y1="73.0801866%" x2="24.6549187%" y2="25.8047552%" id="linearGradient-1">
            <stop stop-color="#80A8C1" stop-opacity="0" offset="0%"></stop>
            <stop stop-color="#80A8C1" offset="100%"></stop>
        </linearGradient>
    </defs>
    <g id="Symbols" stroke="none" stroke-width="1" fill="none" fill-rule="evenodd">
        <g id="Header" transform="translate(-133.000000, -63.000000)">
            <g id="Menu" transform="translate(133.000000, 0.000000)">
                <g id="Carty-Logo" transform="translate(0.000000, 63.000000)">
                    <g id="Page-1">
                        <g id="Logo">
                            <g id="Diamond">
                                <polygon id="Fill-1" fill="#8CD1E9" points="7.21289508 -7.17948718e-05 0.000145081967 11.3456718 13.4601246 10.8998256"></polygon>
                                <polygon id="Fill-2" fill="#8CD1E9" points="22.2190857 36.0766359 13.9109668 12.2378667 -0.000217622951 11.3454564"></polygon>
                                <polygon id="Fill-3" fill="#35A0CD" points="7.21289508 -7.17948718e-05 14.4902066 10.1352103 22.2832844 -7.17948718e-05"></polygon>
                                <polygon id="Fill-4" fill="#35A0CD" points="22.2830668 -7.17948718e-05 15.5853578 10.8998256 28.8523783 10.8998256"></polygon>
                                <polygon id="Fill-5" fill="#35A0CD" points="15.3278373 12.2381538 29.0453373 12.2381538 22.2192307 36.0769231"></polygon>
                                <polygon id="Fill-6" fill="#0073AF" points="22.2830668 -7.17948718e-05 29.7540627 10.1352103 37.2243332 -7.17948718e-05"></polygon>
                                <polygon id="Fill-7" fill="#0073AF" points="37.2246234 -7.17948718e-05 30.9135578 10.8359282 44.5019348 11.3456718"></polygon>
                                <polygon id="Fill-8" fill="#0073AF" points="30.5268418 12.3018359 44.5018623 11.3455282 22.218723 36.0767077"></polygon>
                                <polygon id="Fill-9" fill="url(#linearGradient-1)" opacity="0.200000003" points="22.2446926 36.0805846 44.442959 55.6583282 66.6434016 30.9659179 44.4444098 11.3881744"></polygon>
                            </g>
                        </g>
                        <g id="Letters" transform="translate(69.000000, 3.000000)">
                            <path d="M22.8362643,19.3757128 C22.6447561,20.0390974 22.380707,20.6263795 22.0433914,21.1382769 C21.9752029,21.2330462 21.8743709,21.2797128 21.7394447,21.2797128 C20.3212684,21.4699692 18.8972889,21.6264821 17.468957,21.7492513 C16.0391742,21.8727385 14.5934324,21.9337641 13.1302807,21.9337641 C11.2841127,21.9337641 9.580125,21.6832 8.01541598,21.1806359 C6.45070697,20.6780718 5.10652254,19.9680205 3.98141189,19.0483282 C2.85485041,18.1300718 1.97202664,17.0301744 1.33076434,15.7507897 C0.689502049,14.4714051 0.368145492,13.0548923 0.368145492,11.5005333 C0.368145492,9.83345641 0.745358607,8.22740513 1.49978484,6.68237949 C2.25348566,5.13807179 3.32781762,3.76894359 4.72350615,2.57499487 C5.24072336,2.11981538 5.89431762,1.74145641 6.6813873,1.4377641 C7.46918238,1.13478974 8.30267828,0.887815385 9.18042418,0.698276923 C10.0581701,0.50945641 10.9409939,0.375917949 11.8303463,0.300533333 C12.7196988,0.224430769 13.5234529,0.186379487 14.2445102,0.186379487 C15.0772807,0.186379487 15.8991701,0.22945641 16.7094529,0.314174359 C17.5190102,0.399610256 18.3176865,0.489353846 19.1054816,0.584123077 C19.6908873,0.66094359 20.276293,0.731302564 20.8609734,0.798071795 C21.4463791,0.864841026 22.0201783,0.916533333 22.5830963,0.954584615 C22.8079734,0.954584615 22.9211373,1.03930256 22.9211373,1.20945641 C22.8986496,2.0817641 22.8304611,2.94904615 22.718748,3.81058462 C22.605584,4.67355897 22.4590512,5.53078974 22.2791496,6.38371282 C22.2341742,6.53591795 22.0985225,6.61130256 21.8743709,6.61130256 C21.6719816,6.61130256 21.5479365,6.53591795 21.5029611,6.38371282 C21.3448217,5.56955897 21.040875,4.85304615 20.5911209,4.2377641 C20.1406414,3.62248205 19.5893299,3.10555897 18.9371865,2.68843077 C18.2843176,2.27202051 17.541498,1.95899487 16.7094529,1.75007179 C15.875957,1.54186667 14.9873299,1.4377641 14.0421209,1.4377641 C12.488293,1.4377641 11.088252,1.64668718 9.8383709,2.06309744 C8.58921516,2.48022564 7.51996107,3.06248205 6.63133402,3.81058462 C5.74198156,4.56012308 5.05501844,5.4697641 4.57189549,6.54022564 C4.08732172,7.61068718 3.84576025,8.80032821 3.84576025,10.1077128 C3.84576025,11.4725333 4.13302254,12.7899692 4.70682172,14.0593026 C5.2806209,15.3293538 6.08510041,16.4572513 7.12098566,17.4422769 C8.15614549,18.4280205 9.37701025,19.2141744 10.7843053,19.8021744 C12.1901496,20.3894564 13.7381742,20.6830974 15.4262029,20.6830974 C16.3931742,20.6830974 17.2208668,20.5976615 17.9071045,20.4275077 C18.5933422,20.2573538 19.1954324,19.9960205 19.713375,19.6456615 C20.2313176,19.2953026 20.686875,18.8544821 21.0807725,18.3232 C21.4746701,17.7933538 21.8743709,17.1766359 22.2791496,16.4759179 L23.0226947,16.5326359 C23.0901578,16.8549949 23.1235266,17.1866872 23.1235266,17.5277128 C23.1235266,18.0963282 23.0277725,18.7123282 22.8362643,19.3757128" id="Fill-11" fill="#2C6FA6"></path>
                            <path d="M22.8362643,19.3757128 C22.6447561,20.0390974 22.380707,20.6263795 22.0433914,21.1382769 C21.9752029,21.2330462 21.8743709,21.2797128 21.7394447,21.2797128 C20.3212684,21.4699692 18.8972889,21.6264821 17.468957,21.7492513 C16.0391742,21.8727385 14.5934324,21.9337641 13.1302807,21.9337641 C11.2841127,21.9337641 9.580125,21.6832 8.01541598,21.1806359 C6.45070697,20.6780718 5.10652254,19.9680205 3.98141189,19.0483282 C2.85485041,18.1300718 1.97202664,17.0301744 1.33076434,15.7507897 C0.689502049,14.4714051 0.368145492,13.0548923 0.368145492,11.5005333 C0.368145492,9.83345641 0.745358607,8.22740513 1.49978484,6.68237949 C2.25348566,5.13807179 3.32781762,3.76894359 4.72350615,2.57499487 C5.24072336,2.11981538 5.89431762,1.74145641 6.6813873,1.4377641 C7.46918238,1.13478974 8.30267828,0.887815385 9.18042418,0.698276923 C10.0581701,0.50945641 10.9409939,0.375917949 11.8303463,0.300533333 C12.7196988,0.224430769 13.5234529,0.186379487 14.2445102,0.186379487 C15.0772807,0.186379487 15.8991701,0.22945641 16.7094529,0.314174359 C17.5190102,0.399610256 18.3176865,0.489353846 19.1054816,0.584123077 C19.6908873,0.66094359 20.276293,0.731302564 20.8609734,0.798071795 C21.4463791,0.864841026 22.0201783,0.916533333 22.5830963,0.954584615 C22.8079734,0.954584615 22.9211373,1.03930256 22.9211373,1.20945641 C22.8986496,2.0817641 22.8304611,2.94904615 22.718748,3.81058462 C22.605584,4.67355897 22.4590512,5.53078974 22.2791496,6.38371282 C22.2341742,6.53591795 22.0985225,6.61130256 21.8743709,6.61130256 C21.6719816,6.61130256 21.5479365,6.53591795 21.5029611,6.38371282 C21.3448217,5.56955897 21.040875,4.85304615 20.5911209,4.2377641 C20.1406414,3.62248205 19.5893299,3.10555897 18.9371865,2.68843077 C18.2843176,2.27202051 17.541498,1.95899487 16.7094529,1.75007179 C15.875957,1.54186667 14.9873299,1.4377641 14.0421209,1.4377641 C12.488293,1.4377641 11.088252,1.64668718 9.8383709,2.06309744 C8.58921516,2.48022564 7.51996107,3.06248205 6.63133402,3.81058462 C5.74198156,4.56012308 5.05501844,5.4697641 4.57189549,6.54022564 C4.08732172,7.61068718 3.84576025,8.80032821 3.84576025,10.1077128 C3.84576025,11.4725333 4.13302254,12.7899692 4.70682172,14.0593026 C5.2806209,15.3293538 6.08510041,16.4572513 7.12098566,17.4422769 C8.15614549,18.4280205 9.37701025,19.2141744 10.7843053,19.8021744 C12.1901496,20.3894564 13.7381742,20.6830974 15.4262029,20.6830974 C16.3931742,20.6830974 17.2208668,20.5976615 17.9071045,20.4275077 C18.5933422,20.2573538 19.1954324,19.9960205 19.713375,19.6456615 C20.2313176,19.2953026 20.686875,18.8544821 21.0807725,18.3232 C21.4746701,17.7933538 21.8743709,17.1766359 22.2791496,16.4759179 L23.0226947,16.5326359 C23.0901578,16.8549949 23.1235266,17.1866872 23.1235266,17.5277128 C23.1235266,18.0963282 23.0277725,18.7123282 22.8362643,19.3757128 Z" id="Stroke-13" stroke="#2C6FA6"></path>
                            <path d="M36.9994561,5.30355897 C36.5489766,6.49750769 36.115907,7.6397641 35.6995217,8.72889231 C35.2831365,9.81945641 34.8275791,10.9609949 34.3321242,12.1549436 L39.7676201,12.1549436 L36.9994561,5.30355897 Z M48.3100463,21.7488923 C47.656452,21.739559 46.992702,21.7352513 46.3180709,21.7352513 C45.822616,21.7352513 45.2256037,21.7438667 44.5284848,21.7639692 C43.8306406,21.7819179 43.2452348,21.7725846 42.772993,21.7352513 C42.592366,21.7158667 42.4690463,21.6692 42.4015832,21.5923795 C42.3341201,21.5177128 42.3674889,21.4322769 42.5031406,21.3367897 L43.6848332,20.8256103 C43.1444029,19.6316615 42.5981693,18.4377128 42.0468578,17.2437641 C41.4948209,16.0498154 40.9609193,14.8558667 40.4429766,13.6619179 L33.7924193,13.6619179 C33.6117922,14.0022256 33.3818373,14.5004821 33.1003783,15.1538154 C32.8181939,15.8078667 32.5425381,16.4805846 32.2726857,17.1719692 C32.0028332,17.8640718 31.7721529,18.5181231 31.5806447,19.1341231 C31.3898619,19.7501231 31.2941078,20.1816103 31.2941078,20.4271487 C31.2941078,20.7502256 31.4682061,20.9634564 31.8171283,21.066841 C32.1660504,21.1716615 32.5098947,21.2420205 32.8464848,21.2800718 C33.0720873,21.318841 33.1787225,21.4085846 33.1678414,21.5500205 C33.1562348,21.6921744 33.037993,21.7639692 32.813116,21.7639692 L25.7911488,21.7352513 C25.701198,21.6591487 25.644616,21.6024308 25.6221283,21.5643795 C25.5771529,21.4889949 25.5996406,21.4128923 25.6895914,21.3367897 C25.7345668,21.2800718 25.8078332,21.2570974 25.9093906,21.2657128 C26.010948,21.2757641 26.0726078,21.2800718 26.0950955,21.2800718 C26.3867102,21.2800718 26.6739725,21.2089949 26.9554316,21.066841 C27.2368906,20.9246872 27.506743,20.7452 27.7657143,20.5269436 C28.0246857,20.3086872 28.2495627,20.0717641 28.4410709,19.8161744 C28.6325791,19.5598667 28.7841898,19.3186359 28.8966283,19.0910462 C29.482034,17.8403795 30.0391488,16.5566872 30.5679725,15.2392513 C31.0967963,13.9225333 31.6321488,12.6381231 32.1718537,11.3874564 C32.9596488,9.54878974 33.758325,7.72017436 34.5686078,5.90089231 C35.379616,4.08161026 36.2000545,2.25227692 37.0335504,0.413610256 C37.0778004,0.338225641 37.1568701,0.27145641 37.270034,0.214738462 C37.3817471,0.158020513 37.4833045,0.176687179 37.5732553,0.27145641 C37.9555463,0.631866667 38.3051939,1.15309744 38.6200217,1.83514872 C38.9348496,2.51791795 39.2163086,3.15330256 39.4636734,3.73986667 C39.5536242,3.85330256 39.6160094,3.96745641 39.6493783,4.08161026 C39.6834725,4.19504615 39.7226447,4.28981538 39.7676201,4.3652 C40.038198,4.97258462 40.3363414,5.58786667 40.6627758,6.21391795 C40.9884848,6.83925128 41.2989602,7.48325128 41.5913004,8.1466359 C41.9968045,9.05627692 42.4182676,10.0039692 42.8571406,10.9889949 C43.2967389,11.9747385 43.7522963,12.9698154 44.2245381,13.9742256 C44.6967799,14.9793538 45.1755504,15.9600718 45.6593988,16.9163795 C46.1425217,17.8741231 46.6220176,18.7787385 47.0942594,19.6316615 C47.4098127,20.1816103 47.8537635,20.5700205 48.4282881,20.7968923 C49.0020873,21.0237641 49.6150586,21.1573026 50.2679275,21.1953538 L50.2679275,21.7065333 C49.6150586,21.7438667 48.9621898,21.7589436 48.3100463,21.7488923 L48.3100463,21.7488923 Z" id="Fill-15" fill="#2C6FA6"></path>
                            <path d="M36.9994561,5.30355897 C36.5489766,6.49750769 36.115907,7.6397641 35.6995217,8.72889231 C35.2831365,9.81945641 34.8275791,10.9609949 34.3321242,12.1549436 L39.7676201,12.1549436 L36.9994561,5.30355897 Z M48.3100463,21.7488923 C47.656452,21.739559 46.992702,21.7352513 46.3180709,21.7352513 C45.822616,21.7352513 45.2256037,21.7438667 44.5284848,21.7639692 C43.8306406,21.7819179 43.2452348,21.7725846 42.772993,21.7352513 C42.592366,21.7158667 42.4690463,21.6692 42.4015832,21.5923795 C42.3341201,21.5177128 42.3674889,21.4322769 42.5031406,21.3367897 L43.6848332,20.8256103 C43.1444029,19.6316615 42.5981693,18.4377128 42.0468578,17.2437641 C41.4948209,16.0498154 40.9609193,14.8558667 40.4429766,13.6619179 L33.7924193,13.6619179 C33.6117922,14.0022256 33.3818373,14.5004821 33.1003783,15.1538154 C32.8181939,15.8078667 32.5425381,16.4805846 32.2726857,17.1719692 C32.0028332,17.8640718 31.7721529,18.5181231 31.5806447,19.1341231 C31.3898619,19.7501231 31.2941078,20.1816103 31.2941078,20.4271487 C31.2941078,20.7502256 31.4682061,20.9634564 31.8171283,21.066841 C32.1660504,21.1716615 32.5098947,21.2420205 32.8464848,21.2800718 C33.0720873,21.318841 33.1787225,21.4085846 33.1678414,21.5500205 C33.1562348,21.6921744 33.037993,21.7639692 32.813116,21.7639692 L25.7911488,21.7352513 C25.701198,21.6591487 25.644616,21.6024308 25.6221283,21.5643795 C25.5771529,21.4889949 25.5996406,21.4128923 25.6895914,21.3367897 C25.7345668,21.2800718 25.8078332,21.2570974 25.9093906,21.2657128 C26.010948,21.2757641 26.0726078,21.2800718 26.0950955,21.2800718 C26.3867102,21.2800718 26.6739725,21.2089949 26.9554316,21.066841 C27.2368906,20.9246872 27.506743,20.7452 27.7657143,20.5269436 C28.0246857,20.3086872 28.2495627,20.0717641 28.4410709,19.8161744 C28.6325791,19.5598667 28.7841898,19.3186359 28.8966283,19.0910462 C29.482034,17.8403795 30.0391488,16.5566872 30.5679725,15.2392513 C31.0967963,13.9225333 31.6321488,12.6381231 32.1718537,11.3874564 C32.9596488,9.54878974 33.758325,7.72017436 34.5686078,5.90089231 C35.379616,4.08161026 36.2000545,2.25227692 37.0335504,0.413610256 C37.0778004,0.338225641 37.1568701,0.27145641 37.270034,0.214738462 C37.3817471,0.158020513 37.4833045,0.176687179 37.5732553,0.27145641 C37.9555463,0.631866667 38.3051939,1.15309744 38.6200217,1.83514872 C38.9348496,2.51791795 39.2163086,3.15330256 39.4636734,3.73986667 C39.5536242,3.85330256 39.6160094,3.96745641 39.6493783,4.08161026 C39.6834725,4.19504615 39.7226447,4.28981538 39.7676201,4.3652 C40.038198,4.97258462 40.3363414,5.58786667 40.6627758,6.21391795 C40.9884848,6.83925128 41.2989602,7.48325128 41.5913004,8.1466359 C41.9968045,9.05627692 42.4182676,10.0039692 42.8571406,10.9889949 C43.2967389,11.9747385 43.7522963,12.9698154 44.2245381,13.9742256 C44.6967799,14.9793538 45.1755504,15.9600718 45.6593988,16.9163795 C46.1425217,17.8741231 46.6220176,18.7787385 47.0942594,19.6316615 C47.4098127,20.1816103 47.8537635,20.5700205 48.4282881,20.7968923 C49.0020873,21.0237641 49.6150586,21.1573026 50.2679275,21.1953538 L50.2679275,21.7065333 C49.6150586,21.7438667 48.9621898,21.7589436 48.3100463,21.7488923 Z" id="Stroke-17" stroke="#2C6FA6"></path>
                            <path d="M65.0715111,5.38906667 C64.8575152,4.72568205 64.536884,4.13337436 64.1096176,3.61214359 C63.6816258,3.09091282 63.1477242,2.66445128 62.5057365,2.33275897 C61.8644742,2.00106667 61.1158512,1.83522051 60.260593,1.83522051 C59.6077242,1.83522051 58.9780684,1.92065641 58.370175,2.09081026 L58.370175,11.4442462 C59.2704086,11.5576821 60.2040111,11.6144 61.1724332,11.6144 C61.5547242,11.6144 61.9935971,11.5964513 62.4883266,11.5576821 C62.9837816,11.5203487 63.3892857,11.3968615 63.7041135,11.1879385 C64.0196668,10.9797333 64.283716,10.7284513 64.4977119,10.4348103 C64.7117078,10.1411692 64.8858061,9.8238359 65.0214578,9.48209231 C65.1556586,9.14178462 65.2514127,8.79070769 65.3079947,8.43029744 C65.3638512,8.07060513 65.3921422,7.72024615 65.3921422,7.37850256 C65.3921422,6.7158359 65.285507,6.05245128 65.0715111,5.38906667 M75.4869455,22.1330667 C74.9240275,22.2465026 74.3502283,22.3039385 73.7648225,22.3039385 C72.8203389,22.3039385 71.9701586,22.156041 71.2164578,21.8624 C70.4620316,21.5694769 69.7649127,21.1803487 69.122925,20.6971692 C68.4816627,20.2139897 67.8846504,19.6697846 67.3333389,19.0631179 C66.781302,18.4564513 66.2474004,17.8404513 65.7301832,17.2151179 C65.2115152,16.6084513 64.7001012,16.0168615 64.1937652,15.4381949 C63.6874291,14.8602462 63.1644086,14.372041 62.6239783,13.9742974 C62.2184742,13.6713231 61.7179414,13.4810667 61.1216545,13.4056821 C60.5246422,13.3302974 59.9907406,13.2922462 59.5184988,13.2922462 L58.9106053,13.2922462 C58.708216,13.2922462 58.5159824,13.3015795 58.3360807,13.3202462 L58.3360807,18.6079385 C58.3360807,18.7027077 58.3527652,18.8642462 58.3868594,19.0911179 C58.4209537,19.3187077 58.471007,19.5599385 58.5384701,19.8162462 C58.6066586,20.0718359 58.6741217,20.3037333 58.7408594,20.5126564 C58.809048,20.7208615 58.8765111,20.8443487 58.9439742,20.8824 C59.0564127,20.9204513 59.2080234,20.9491692 59.400257,20.9671179 C59.5903143,20.9865026 59.7426504,21.0058872 59.8558143,21.0238359 C60.1024537,21.0439385 60.3563471,21.0719385 60.614593,21.1092718 C60.8735643,21.1473231 61.1042447,21.2420923 61.3073594,21.3935795 C61.4422857,21.4890667 61.4763799,21.5838359 61.4081914,21.6778872 C61.3407283,21.7726564 61.2174086,21.820759 61.0367816,21.820759 L56.9186299,21.820759 C55.5454291,21.820759 54.1722283,21.792041 52.7997529,21.7353231 C52.5741504,21.7159385 52.4559086,21.6355282 52.4450275,21.4933744 C52.4334209,21.3512205 52.5407816,21.2614769 52.7656586,21.2234256 C53.2603881,21.1473231 53.6434045,21.0626051 53.913257,20.9671179 C54.1838348,20.8723487 54.3804209,20.7402462 54.504466,20.5700923 C54.6285111,20.3985026 54.701052,20.1673231 54.7235398,19.8729641 C54.7460275,19.5793231 54.757634,19.2045538 54.757634,18.7500923 L54.757634,3.00116923 C54.757634,2.67952821 54.7126586,2.42322051 54.6227078,2.2329641 C54.532757,2.04414359 54.419593,1.90629744 54.2853922,1.82086154 C54.1497406,1.73614359 54.0032078,1.67870769 53.8457939,1.65070769 C53.6883799,1.62198974 53.530966,1.59901538 53.373552,1.57963077 C53.0572734,1.5609641 52.7874209,1.52219487 52.5632693,1.46547692 C52.3376668,1.40875897 52.1918594,1.28598974 52.1236709,1.09645128 C52.0569332,1.00168205 52.0569332,0.921271795 52.1236709,0.855220513 C52.1918594,0.788451282 52.3035725,0.755425641 52.4617119,0.755425641 L53.0696053,0.755425641 L55.2973389,0.755425641 C55.6803553,0.774092308 56.040884,0.779117949 56.3781996,0.769066667 C56.7155152,0.760451282 57.0644373,0.755425641 57.424966,0.755425641 C57.6273553,0.755425641 57.8239414,0.7504 58.0154496,0.740348718 C58.2062324,0.731733333 58.4042693,0.726707692 58.6066586,0.726707692 L60.3962447,0.726707692 C61.3407283,0.726707692 62.2699783,0.779117949 63.181093,0.883220513 C64.0922078,0.987323077 64.9365848,1.19552821 65.7134988,1.50855385 C66.4896873,1.82086154 67.1592406,2.26670769 67.7214332,2.84465641 C68.2843512,3.42332308 68.7007365,4.18578462 68.9713143,5.13347692 C69.0155643,5.22752821 69.0438553,5.35101538 69.0554619,5.50250256 C69.0670684,5.65470769 69.0728717,5.79614359 69.0728717,5.9289641 C69.0728717,6.51624615 68.9589824,7.09993846 68.7348307,7.67788718 C68.5092283,8.2558359 68.2168881,8.81942564 67.8570848,9.36865641 C67.4965561,9.91932308 67.0852488,10.4348103 66.6253389,10.9179897 C66.1632529,11.4011692 65.6852078,11.8419897 65.1897529,12.2397333 C65.5495561,12.5620923 65.9267693,12.9505026 66.3213922,13.4056821 C66.7145643,13.8608615 67.1142652,14.3153231 67.5190439,14.7697846 C68.1951258,15.5286564 68.8973225,16.3105026 69.6292611,17.1153231 C70.3604742,17.9208615 71.126507,18.6409641 71.9251832,19.2763487 C72.7238594,19.9117333 73.5399455,20.4135795 74.372716,20.7826051 C75.2054865,21.1523487 76.0498635,21.2801436 76.9043963,21.1667077 L77.1075111,21.6491692 C76.5895684,21.8573744 76.0498635,22.0189128 75.4869455,22.1330667" id="Fill-19" fill="#2C6FA6"></path>
                            <path d="M65.0715111,5.38906667 C64.8575152,4.72568205 64.536884,4.13337436 64.1096176,3.61214359 C63.6816258,3.09091282 63.1477242,2.66445128 62.5057365,2.33275897 C61.8644742,2.00106667 61.1158512,1.83522051 60.260593,1.83522051 C59.6077242,1.83522051 58.9780684,1.92065641 58.370175,2.09081026 L58.370175,11.4442462 C59.2704086,11.5576821 60.2040111,11.6144 61.1724332,11.6144 C61.5547242,11.6144 61.9935971,11.5964513 62.4883266,11.5576821 C62.9837816,11.5203487 63.3892857,11.3968615 63.7041135,11.1879385 C64.0196668,10.9797333 64.283716,10.7284513 64.4977119,10.4348103 C64.7117078,10.1411692 64.8858061,9.8238359 65.0214578,9.48209231 C65.1556586,9.14178462 65.2514127,8.79070769 65.3079947,8.43029744 C65.3638512,8.07060513 65.3921422,7.72024615 65.3921422,7.37850256 C65.3921422,6.7158359 65.285507,6.05245128 65.0715111,5.38906667 Z M75.4869455,22.1330667 C74.9240275,22.2465026 74.3502283,22.3039385 73.7648225,22.3039385 C72.8203389,22.3039385 71.9701586,22.156041 71.2164578,21.8624 C70.4620316,21.5694769 69.7649127,21.1803487 69.122925,20.6971692 C68.4816627,20.2139897 67.8846504,19.6697846 67.3333389,19.0631179 C66.781302,18.4564513 66.2474004,17.8404513 65.7301832,17.2151179 C65.2115152,16.6084513 64.7001012,16.0168615 64.1937652,15.4381949 C63.6874291,14.8602462 63.1644086,14.372041 62.6239783,13.9742974 C62.2184742,13.6713231 61.7179414,13.4810667 61.1216545,13.4056821 C60.5246422,13.3302974 59.9907406,13.2922462 59.5184988,13.2922462 L58.9106053,13.2922462 C58.708216,13.2922462 58.5159824,13.3015795 58.3360807,13.3202462 L58.3360807,18.6079385 C58.3360807,18.7027077 58.3527652,18.8642462 58.3868594,19.0911179 C58.4209537,19.3187077 58.471007,19.5599385 58.5384701,19.8162462 C58.6066586,20.0718359 58.6741217,20.3037333 58.7408594,20.5126564 C58.809048,20.7208615 58.8765111,20.8443487 58.9439742,20.8824 C59.0564127,20.9204513 59.2080234,20.9491692 59.400257,20.9671179 C59.5903143,20.9865026 59.7426504,21.0058872 59.8558143,21.0238359 C60.1024537,21.0439385 60.3563471,21.0719385 60.614593,21.1092718 C60.8735643,21.1473231 61.1042447,21.2420923 61.3073594,21.3935795 C61.4422857,21.4890667 61.4763799,21.5838359 61.4081914,21.6778872 C61.3407283,21.7726564 61.2174086,21.820759 61.0367816,21.820759 L56.9186299,21.820759 C55.5454291,21.820759 54.1722283,21.792041 52.7997529,21.7353231 C52.5741504,21.7159385 52.4559086,21.6355282 52.4450275,21.4933744 C52.4334209,21.3512205 52.5407816,21.2614769 52.7656586,21.2234256 C53.2603881,21.1473231 53.6434045,21.0626051 53.913257,20.9671179 C54.1838348,20.8723487 54.3804209,20.7402462 54.504466,20.5700923 C54.6285111,20.3985026 54.701052,20.1673231 54.7235398,19.8729641 C54.7460275,19.5793231 54.757634,19.2045538 54.757634,18.7500923 L54.757634,3.00116923 C54.757634,2.67952821 54.7126586,2.42322051 54.6227078,2.2329641 C54.532757,2.04414359 54.419593,1.90629744 54.2853922,1.82086154 C54.1497406,1.73614359 54.0032078,1.67870769 53.8457939,1.65070769 C53.6883799,1.62198974 53.530966,1.59901538 53.373552,1.57963077 C53.0572734,1.5609641 52.7874209,1.52219487 52.5632693,1.46547692 C52.3376668,1.40875897 52.1918594,1.28598974 52.1236709,1.09645128 C52.0569332,1.00168205 52.0569332,0.921271795 52.1236709,0.855220513 C52.1918594,0.788451282 52.3035725,0.755425641 52.4617119,0.755425641 L53.0696053,0.755425641 L55.2973389,0.755425641 C55.6803553,0.774092308 56.040884,0.779117949 56.3781996,0.769066667 C56.7155152,0.760451282 57.0644373,0.755425641 57.424966,0.755425641 C57.6273553,0.755425641 57.8239414,0.7504 58.0154496,0.740348718 C58.2062324,0.731733333 58.4042693,0.726707692 58.6066586,0.726707692 L60.3962447,0.726707692 C61.3407283,0.726707692 62.2699783,0.779117949 63.181093,0.883220513 C64.0922078,0.987323077 64.9365848,1.19552821 65.7134988,1.50855385 C66.4896873,1.82086154 67.1592406,2.26670769 67.7214332,2.84465641 C68.2843512,3.42332308 68.7007365,4.18578462 68.9713143,5.13347692 C69.0155643,5.22752821 69.0438553,5.35101538 69.0554619,5.50250256 C69.0670684,5.65470769 69.0728717,5.79614359 69.0728717,5.9289641 C69.0728717,6.51624615 68.9589824,7.09993846 68.7348307,7.67788718 C68.5092283,8.2558359 68.2168881,8.81942564 67.8570848,9.36865641 C67.4965561,9.91932308 67.0852488,10.4348103 66.6253389,10.9179897 C66.1632529,11.4011692 65.6852078,11.8419897 65.1897529,12.2397333 C65.5495561,12.5620923 65.9267693,12.9505026 66.3213922,13.4056821 C66.7145643,13.8608615 67.1142652,14.3153231 67.5190439,14.7697846 C68.1951258,15.5286564 68.8973225,16.3105026 69.6292611,17.1153231 C70.3604742,17.9208615 71.126507,18.6409641 71.9251832,19.2763487 C72.7238594,19.9117333 73.5399455,20.4135795 74.372716,20.7826051 C75.2054865,21.1523487 76.0498635,21.2801436 76.9043963,21.1667077 L77.1075111,21.6491692 C76.5895684,21.8573744 76.0498635,22.0189128 75.4869455,22.1330667 Z" id="Stroke-21" stroke="#2C6FA6"></path>
                            <path d="M95.2539283,2.92951795 C95.1973463,3.45146667 95.1015922,3.95833846 94.966666,4.45085128 C94.9209652,4.58367179 94.7860389,4.64972308 94.5618873,4.64972308 C94.359498,4.64972308 94.2354529,4.58367179 94.189752,4.45085128 C93.9873627,3.57926154 93.5535676,3.00131282 92.8898176,2.71628718 C92.2260676,2.43269744 91.4215881,2.28982564 90.4763791,2.28982564 C90.2282889,2.28982564 90.0041373,2.29485128 89.8010225,2.30418462 C89.5986332,2.3142359 89.3839119,2.32859487 89.1597602,2.34654359 C88.9566455,2.36664615 88.7259652,2.38028718 88.4677193,2.38962051 C88.208748,2.39967179 87.9889488,2.40397949 87.8090471,2.40397949 L87.235248,2.40397949 C87.0546209,2.40397949 86.8863258,2.39464615 86.7289119,2.37597949 L86.7289119,18.5226462 C86.7289119,18.5793641 86.7455963,18.7172103 86.7789652,18.9347487 C86.8130594,19.1530051 86.8471537,19.3755692 86.8805225,19.603159 C86.9146168,19.8300308 86.9537889,20.0389538 86.9987643,20.2284923 C87.0437398,20.4180308 87.077834,20.5221333 87.1003217,20.5408 C87.3244734,20.7310564 87.5500758,20.8444923 87.7749529,20.8825436 C88.0005553,20.9205949 88.2145512,20.9493128 88.4169406,20.9672615 C88.7317684,20.9859282 89.0023463,21.0146462 89.2272234,21.0526974 C89.4521004,21.0907487 89.6203955,21.2049026 89.7335594,21.3937231 C89.8010225,21.4892103 89.8010225,21.5696205 89.7335594,21.6356718 C89.6660963,21.7017231 89.5536578,21.7347487 89.3962439,21.7347487 C88.023043,21.7347487 86.6549201,21.7440821 85.2940512,21.7634667 C83.932457,21.7821333 82.5650594,21.7728 81.1918586,21.7347487 C80.9669816,21.7160821 80.8429365,21.6406974 80.8211742,21.5078769 C80.7979611,21.3750564 80.8995184,21.2896205 81.1243955,21.2522872 C81.5973627,21.1761846 81.9687725,21.0957744 82.238625,21.0103385 C82.5092029,20.9241846 82.7115922,20.7971077 82.8465184,20.6262359 C82.9814447,20.4553641 83.0655922,20.2378256 83.0996865,19.9721846 C83.1330553,19.7072615 83.1497398,19.3468513 83.1497398,18.8916718 L83.1497398,2.31854359 L77.9173586,2.31854359 C77.2637643,2.31854359 76.6899652,2.51310769 76.1959611,2.90151795 C75.6997807,3.28992821 75.3182152,3.73074872 75.0476373,4.22326154 C74.9801742,4.33741538 74.8503258,4.38910769 74.6588176,4.37977436 C74.4680348,4.37044103 74.349793,4.2993641 74.3048176,4.16654359 C74.2823299,4.09115897 74.2649201,4.02008205 74.2540389,3.95331282 C74.2424324,3.88726154 74.2366291,3.80685128 74.2366291,3.71208205 C74.2366291,3.37033846 74.3048176,2.99700513 74.4397439,2.58849231 C74.5746701,2.18141538 74.7204775,1.76931282 74.8786168,1.35218462 C74.9460799,1.18131282 74.9968586,1.02121026 75.0302275,0.869005128 C75.0643217,0.717517949 75.1034939,0.566030769 75.1484693,0.413825641 C75.1941701,0.31905641 75.2783176,0.257312821 75.4023627,0.229312821 C75.5256824,0.200594872 75.6439242,0.205620513 75.7563627,0.243671795 C75.8920143,0.31905641 76.0820717,0.390851282 76.3301619,0.456902564 C76.5775266,0.522953846 76.8423012,0.583979487 77.1237602,0.641415385 C77.4052193,0.698851282 77.6750717,0.740492308 77.934043,0.769210256 C78.1922889,0.797928205 78.3896004,0.812287179 78.5245266,0.812287179 L92.9746906,0.812287179 C93.1096168,0.812287179 93.2837152,0.788594872 93.4977111,0.740492308 C93.711707,0.693825641 93.9090184,0.650748718 94.0889201,0.612697436 C94.2013586,0.575364103 94.3304816,0.551671795 94.4770143,0.542338462 C94.6235471,0.532287179 94.7526701,0.518646154 94.8651086,0.499261538 C94.9775471,0.480594872 95.0849078,0.489928205 95.1857398,0.527261538 C95.2872971,0.566030769 95.3380758,0.632082051 95.3380758,0.726851282 L95.3380758,1.35218462 C95.3380758,1.88274872 95.3090594,2.40828718 95.2539283,2.92951795" id="Fill-23" fill="#2C6FA6"></path>
                            <path d="M95.2539283,2.92951795 C95.1973463,3.45146667 95.1015922,3.95833846 94.966666,4.45085128 C94.9209652,4.58367179 94.7860389,4.64972308 94.5618873,4.64972308 C94.359498,4.64972308 94.2354529,4.58367179 94.189752,4.45085128 C93.9873627,3.57926154 93.5535676,3.00131282 92.8898176,2.71628718 C92.2260676,2.43269744 91.4215881,2.28982564 90.4763791,2.28982564 C90.2282889,2.28982564 90.0041373,2.29485128 89.8010225,2.30418462 C89.5986332,2.3142359 89.3839119,2.32859487 89.1597602,2.34654359 C88.9566455,2.36664615 88.7259652,2.38028718 88.4677193,2.38962051 C88.208748,2.39967179 87.9889488,2.40397949 87.8090471,2.40397949 L87.235248,2.40397949 C87.0546209,2.40397949 86.8863258,2.39464615 86.7289119,2.37597949 L86.7289119,18.5226462 C86.7289119,18.5793641 86.7455963,18.7172103 86.7789652,18.9347487 C86.8130594,19.1530051 86.8471537,19.3755692 86.8805225,19.603159 C86.9146168,19.8300308 86.9537889,20.0389538 86.9987643,20.2284923 C87.0437398,20.4180308 87.077834,20.5221333 87.1003217,20.5408 C87.3244734,20.7310564 87.5500758,20.8444923 87.7749529,20.8825436 C88.0005553,20.9205949 88.2145512,20.9493128 88.4169406,20.9672615 C88.7317684,20.9859282 89.0023463,21.0146462 89.2272234,21.0526974 C89.4521004,21.0907487 89.6203955,21.2049026 89.7335594,21.3937231 C89.8010225,21.4892103 89.8010225,21.5696205 89.7335594,21.6356718 C89.6660963,21.7017231 89.5536578,21.7347487 89.3962439,21.7347487 C88.023043,21.7347487 86.6549201,21.7440821 85.2940512,21.7634667 C83.932457,21.7821333 82.5650594,21.7728 81.1918586,21.7347487 C80.9669816,21.7160821 80.8429365,21.6406974 80.8211742,21.5078769 C80.7979611,21.3750564 80.8995184,21.2896205 81.1243955,21.2522872 C81.5973627,21.1761846 81.9687725,21.0957744 82.238625,21.0103385 C82.5092029,20.9241846 82.7115922,20.7971077 82.8465184,20.6262359 C82.9814447,20.4553641 83.0655922,20.2378256 83.0996865,19.9721846 C83.1330553,19.7072615 83.1497398,19.3468513 83.1497398,18.8916718 L83.1497398,2.31854359 L77.9173586,2.31854359 C77.2637643,2.31854359 76.6899652,2.51310769 76.1959611,2.90151795 C75.6997807,3.28992821 75.3182152,3.73074872 75.0476373,4.22326154 C74.9801742,4.33741538 74.8503258,4.38910769 74.6588176,4.37977436 C74.4680348,4.37044103 74.349793,4.2993641 74.3048176,4.16654359 C74.2823299,4.09115897 74.2649201,4.02008205 74.2540389,3.95331282 C74.2424324,3.88726154 74.2366291,3.80685128 74.2366291,3.71208205 C74.2366291,3.37033846 74.3048176,2.99700513 74.4397439,2.58849231 C74.5746701,2.18141538 74.7204775,1.76931282 74.8786168,1.35218462 C74.9460799,1.18131282 74.9968586,1.02121026 75.0302275,0.869005128 C75.0643217,0.717517949 75.1034939,0.566030769 75.1484693,0.413825641 C75.1941701,0.31905641 75.2783176,0.257312821 75.4023627,0.229312821 C75.5256824,0.200594872 75.6439242,0.205620513 75.7563627,0.243671795 C75.8920143,0.31905641 76.0820717,0.390851282 76.3301619,0.456902564 C76.5775266,0.522953846 76.8423012,0.583979487 77.1237602,0.641415385 C77.4052193,0.698851282 77.6750717,0.740492308 77.934043,0.769210256 C78.1922889,0.797928205 78.3896004,0.812287179 78.5245266,0.812287179 L92.9746906,0.812287179 C93.1096168,0.812287179 93.2837152,0.788594872 93.4977111,0.740492308 C93.711707,0.693825641 93.9090184,0.650748718 94.0889201,0.612697436 C94.2013586,0.575364103 94.3304816,0.551671795 94.4770143,0.542338462 C94.6235471,0.532287179 94.7526701,0.518646154 94.8651086,0.499261538 C94.9775471,0.480594872 95.0849078,0.489928205 95.1857398,0.527261538 C95.2872971,0.566030769 95.3380758,0.632082051 95.3380758,0.726851282 L95.3380758,1.35218462 C95.3380758,1.88274872 95.3090594,2.40828718 95.2539283,2.92951795 Z" id="Stroke-25" stroke="#2C6FA6"></path>
                            <path d="M118.110722,2.19053333 C117.423759,2.71248205 116.704152,3.34212308 115.949726,4.08161026 C115.1953,4.82037949 114.45248,5.62591795 113.721267,6.49750769 C112.989328,7.36981538 112.325578,8.22202051 111.729291,9.05627692 C111.133005,9.89053333 110.654959,10.6580205 110.295156,11.3594564 C109.934627,12.0601744 109.754,12.6194564 109.754,13.0358667 L109.754,19.2612 C109.754,19.9820205 110.0195,20.4752513 110.547599,20.7401744 C111.077148,21.0058154 111.735095,21.1192513 112.52289,21.0812 C112.747767,21.0625333 112.871812,21.1336103 112.895025,21.2944308 C112.916787,21.4559692 112.81523,21.5457128 112.591078,21.5643795 C111.825045,21.6024308 111.048857,21.6404821 110.261062,21.6785333 C109.473267,21.7158667 108.685472,21.7352513 107.897677,21.7352513 C107.289783,21.7352513 106.676086,21.7208923 106.058037,21.6921744 C105.438537,21.6641744 104.848054,21.5923795 104.285136,21.4789436 L104.522345,20.9670462 C104.678308,21.0237641 104.825566,21.0524821 104.960492,21.0524821 C105.185369,21.0524821 105.376877,20.9914564 105.534291,20.8679692 C105.691705,20.7452 105.81575,20.5937128 105.905701,20.4135077 C105.995652,20.2333026 106.058037,20.0344308 106.092132,19.8161744 C106.1255,19.5986359 106.142185,19.4040718 106.142185,19.2332 L106.142185,13.4623282 C106.142185,13.1213026 105.944873,12.5907385 105.551701,11.8699179 C105.157804,11.1498154 104.650742,10.3543282 104.031968,9.48202051 C103.412468,8.61043077 102.72623,7.70581538 101.972529,6.76745641 C101.218103,5.82909744 100.464402,4.96755897 99.7107012,4.18068718 C98.956275,3.39453333 98.2591561,2.73114872 97.6171684,2.19053333 C96.9759061,1.6506359 96.4637668,1.33402051 96.0814758,1.23853333 C95.8790865,1.20048205 95.7833324,1.11073846 95.7942135,0.968584615 C95.8058201,0.826430769 95.9233365,0.745302564 96.1489389,0.726635897 C97.2740496,0.650533333 98.3940824,0.608892308 99.5075865,0.598841026 C100.622541,0.589507692 101.753455,0.584482051 102.901054,0.584482051 C103.080955,0.584482051 103.199197,0.631866667 103.255054,0.726635897 C103.311636,0.822123077 103.28407,0.916892308 103.170906,1.01094359 C103.104168,1.06837949 103.002611,1.13443077 102.866959,1.20981538 C102.754521,1.28591795 102.652964,1.36202051 102.563013,1.43740513 C102.473062,1.51350769 102.428812,1.60755897 102.428812,1.72171282 C102.428812,1.87391795 102.631201,2.27596923 103.036705,2.92930256 C103.440759,3.58335385 103.93041,4.3372 104.504935,5.19012308 C105.078734,6.04232821 105.674295,6.9146359 106.294521,7.80489231 C106.91257,8.69658462 107.447197,9.46407179 107.897677,10.1073538 C108.055091,10.3162769 108.145767,10.4397641 108.168255,10.4778154 C108.190017,10.5158667 108.246599,10.5819179 108.33655,10.6759692 C108.583914,10.2222256 108.860295,9.76273846 109.163517,9.29750769 C109.467464,8.83371282 109.765607,8.39289231 110.057947,7.9757641 C110.171111,7.82427692 110.311841,7.64478974 110.480136,7.43586667 C110.649156,7.22766154 110.823255,7.01945641 111.003882,6.81053333 C111.318709,6.43145641 111.65675,6.01432821 112.017279,5.55914872 C112.376357,5.10468718 112.70932,4.65525128 113.012541,4.20940513 C113.316488,3.76355897 113.563853,3.35145641 113.755361,2.97237949 C113.946869,2.59402051 114.042623,2.29032821 114.042623,2.06273846 C114.042623,1.85453333 113.969357,1.6786359 113.822824,1.5372 C113.676291,1.39504615 113.502193,1.28591795 113.299804,1.20981538 C113.097414,1.17248205 113.006738,1.08704615 113.029226,0.954225641 C113.051714,0.822123077 113.175759,0.745302564 113.401361,0.726635897 C113.918578,0.688584615 114.430718,0.660584615 114.937054,0.641917949 C115.44339,0.622533333 115.954804,0.6132 116.472746,0.6132 C117.035664,0.6132 117.592779,0.622533333 118.144091,0.641917949 C118.696127,0.660584615 119.230029,0.688584615 119.747972,0.726635897 L119.848804,1.20981538 C119.376562,1.3426359 118.796959,1.66930256 118.110722,2.19053333" id="Fill-27" fill="#2C6FA6"></path>
                            <path d="M118.110722,2.19053333 C117.423759,2.71248205 116.704152,3.34212308 115.949726,4.08161026 C115.1953,4.82037949 114.45248,5.62591795 113.721267,6.49750769 C112.989328,7.36981538 112.325578,8.22202051 111.729291,9.05627692 C111.133005,9.89053333 110.654959,10.6580205 110.295156,11.3594564 C109.934627,12.0601744 109.754,12.6194564 109.754,13.0358667 L109.754,19.2612 C109.754,19.9820205 110.0195,20.4752513 110.547599,20.7401744 C111.077148,21.0058154 111.735095,21.1192513 112.52289,21.0812 C112.747767,21.0625333 112.871812,21.1336103 112.895025,21.2944308 C112.916787,21.4559692 112.81523,21.5457128 112.591078,21.5643795 C111.825045,21.6024308 111.048857,21.6404821 110.261062,21.6785333 C109.473267,21.7158667 108.685472,21.7352513 107.897677,21.7352513 C107.289783,21.7352513 106.676086,21.7208923 106.058037,21.6921744 C105.438537,21.6641744 104.848054,21.5923795 104.285136,21.4789436 L104.522345,20.9670462 C104.678308,21.0237641 104.825566,21.0524821 104.960492,21.0524821 C105.185369,21.0524821 105.376877,20.9914564 105.534291,20.8679692 C105.691705,20.7452 105.81575,20.5937128 105.905701,20.4135077 C105.995652,20.2333026 106.058037,20.0344308 106.092132,19.8161744 C106.1255,19.5986359 106.142185,19.4040718 106.142185,19.2332 L106.142185,13.4623282 C106.142185,13.1213026 105.944873,12.5907385 105.551701,11.8699179 C105.157804,11.1498154 104.650742,10.3543282 104.031968,9.48202051 C103.412468,8.61043077 102.72623,7.70581538 101.972529,6.76745641 C101.218103,5.82909744 100.464402,4.96755897 99.7107012,4.18068718 C98.956275,3.39453333 98.2591561,2.73114872 97.6171684,2.19053333 C96.9759061,1.6506359 96.4637668,1.33402051 96.0814758,1.23853333 C95.8790865,1.20048205 95.7833324,1.11073846 95.7942135,0.968584615 C95.8058201,0.826430769 95.9233365,0.745302564 96.1489389,0.726635897 C97.2740496,0.650533333 98.3940824,0.608892308 99.5075865,0.598841026 C100.622541,0.589507692 101.753455,0.584482051 102.901054,0.584482051 C103.080955,0.584482051 103.199197,0.631866667 103.255054,0.726635897 C103.311636,0.822123077 103.28407,0.916892308 103.170906,1.01094359 C103.104168,1.06837949 103.002611,1.13443077 102.866959,1.20981538 C102.754521,1.28591795 102.652964,1.36202051 102.563013,1.43740513 C102.473062,1.51350769 102.428812,1.60755897 102.428812,1.72171282 C102.428812,1.87391795 102.631201,2.27596923 103.036705,2.92930256 C103.440759,3.58335385 103.93041,4.3372 104.504935,5.19012308 C105.078734,6.04232821 105.674295,6.9146359 106.294521,7.80489231 C106.91257,8.69658462 107.447197,9.46407179 107.897677,10.1073538 C108.055091,10.3162769 108.145767,10.4397641 108.168255,10.4778154 C108.190017,10.5158667 108.246599,10.5819179 108.33655,10.6759692 C108.583914,10.2222256 108.860295,9.76273846 109.163517,9.29750769 C109.467464,8.83371282 109.765607,8.39289231 110.057947,7.9757641 C110.171111,7.82427692 110.311841,7.64478974 110.480136,7.43586667 C110.649156,7.22766154 110.823255,7.01945641 111.003882,6.81053333 C111.318709,6.43145641 111.65675,6.01432821 112.017279,5.55914872 C112.376357,5.10468718 112.70932,4.65525128 113.012541,4.20940513 C113.316488,3.76355897 113.563853,3.35145641 113.755361,2.97237949 C113.946869,2.59402051 114.042623,2.29032821 114.042623,2.06273846 C114.042623,1.85453333 113.969357,1.6786359 113.822824,1.5372 C113.676291,1.39504615 113.502193,1.28591795 113.299804,1.20981538 C113.097414,1.17248205 113.006738,1.08704615 113.029226,0.954225641 C113.051714,0.822123077 113.175759,0.745302564 113.401361,0.726635897 C113.918578,0.688584615 114.430718,0.660584615 114.937054,0.641917949 C115.44339,0.622533333 115.954804,0.6132 116.472746,0.6132 C117.035664,0.6132 117.592779,0.622533333 118.144091,0.641917949 C118.696127,0.660584615 119.230029,0.688584615 119.747972,0.726635897 L119.848804,1.20981538 C119.376562,1.3426359 118.796959,1.66930256 118.110722,2.19053333 Z" id="Stroke-29" stroke="#2C6FA6"></path>
                        </g>
                    </g>
                </g>
            </g>
        </g>
    </g>
</svg>