<?xml version="1.0" encoding="UTF-8"?>
<svg width="76px" height="66px" viewBox="0 0 76 66" version="1.1" xmlns="http://www.w3.org/2000/svg" xmlns:xlink="http://www.w3.org/1999/xlink">
    <!-- Generator: Sketch 47 (45396) - http://www.bohemiancoding.com/sketch -->
    <title>Icon_Grossites</title>
    <desc>Created with Sketch.</desc>
    <defs></defs>
    <g id="Web" stroke="none" stroke-width="1" fill="none" fill-rule="evenodd">
        <g id="Home" transform="translate(-414.000000, -1898.000000)">
            <g id="Clients" transform="translate(0.000000, 1637.000000)">
                <g transform="translate(340.000000, 258.000000)" id="1">
                    <g transform="translate(0.000000, 3.000000)">
                        <g id="Icon_Grossites" transform="translate(74.000000, 0.000000)">
                            <g id="Place">
                                <path d="M17.9785156,6.54492188 L7.45507813,24.9863281 C7.45507813,29.6946615 9.20898438,32.9752604 12.7167969,34.828125 C13.0449219,34.9205729 13.0449219,44.9997086 12.7167969,65.065532 L69.4882568,65.065532 L69.4882568,34.3823428 C73.6145752,31.6040101 75.6354167,28.4720052 75.5507812,24.9863281 C75.4453125,24.9485677 71.9231771,18.8014323 64.984375,6.54492188 L17.9785156,6.54492188 Z" id="Path-8" fill="#2C6FA6" opacity="0.200000003"></path>
                                <path d="M72,20.313597 C72,20.008893 71.9266244,19.7185174 71.7642419,19.4577054 L61.0543523,0.88491107 C60.7454025,0.348595834 60.1571107,0 59.5243155,0 L12.4613404,0 C11.8283613,0 11.2400695,0.333723379 10.9311197,0.88491107 L0.235574172,19.4577054 C0.0882713527,19.7185174 0,20.008893 0,20.313597 C0,24.4780658 2.54515734,28.0474549 6.17936248,29.6286508 L6.17936248,60.2584718 C6.17936248,61.2164755 6.97380466,62 7.94423784,62 L64.0404986,62 C65.0118512,62 65.8062934,61.2164755 65.8062934,60.2584718 L65.8062934,29.8462965 C65.8062934,29.7739293 65.8062934,29.7158905 65.7919493,29.6578516 C69.4404986,28.0764744 72,24.4922127 72,20.313597 Z M13.4906212,3.497022 L58.4941152,3.497022 L66.8659174,18.0208811 L5.13481814,18.0208811 L13.4906212,3.497022 Z M51.2417041,21.4888837 C50.6828361,24.6233443 47.9019207,27.0023929 44.5623212,27.0023929 C41.2227217,27.0023929 38.4419902,24.6233443 37.8831222,21.4888837 L51.2417041,21.4888837 Z M34.1319575,21.4888837 C33.5723539,24.6233443 30.7921741,27.0023929 27.4525746,27.0023929 C24.1129751,27.0023929 21.3322436,24.6233443 20.7582959,21.4888837 L34.1319575,21.4888837 Z M3.64854924,21.4888837 L17.0214753,21.4888837 C16.4626073,24.6233443 13.6673478,27.0023929 10.3277483,27.0023929 C6.98814875,27.0172654 4.20741725,24.6233443 3.64854924,21.4888837 Z M29.6593584,58.5178505 L19.5076011,58.5178505 L19.5076011,39.7274105 C19.5076011,38.3636789 20.6260727,37.2462497 22.0240703,37.2462497 L27.1581528,37.2462497 C28.5408868,37.2462497 29.6737025,38.3493506 29.6737025,39.7274105 L29.6737025,58.5178505 L29.6593584,58.5178505 Z M62.2756232,58.5178505 L33.1900286,58.5178505 L33.1900286,39.7274105 C33.1900286,36.4485783 30.4834083,33.7641002 27.1438087,33.7641002 L22.0089906,33.7641002 C18.6844708,33.7641002 15.9625868,36.4337058 15.9625868,39.7274105 L15.9625868,58.5319974 L9.71003269,58.5319974 L9.71003269,30.4845425 C9.91618308,30.4994149 10.1215979,30.4994149 10.3277483,30.4994149 C13.8880262,30.4994149 17.036555,28.7147203 18.8898856,26.0012228 C20.7439518,28.7147203 23.8924806,30.4994149 27.4525746,30.4994149 C31.0128525,30.4994149 34.1463016,28.7147203 36.0147119,26.0012228 C37.8687781,28.7147203 41.0165713,30.4994149 44.5623212,30.4994149 C48.1225991,30.4994149 51.2560482,28.7147203 53.1101144,26.0012228 C54.963445,28.7147203 58.1119738,30.4994149 61.6720678,30.4994149 C61.8782182,30.4994149 62.0694728,30.4845425 62.2756232,30.4845425 L62.2756232,58.5178505 Z M61.6720678,27.0172654 C58.3324683,27.0172654 55.5517368,24.6374912 54.9928688,21.503212 L68.3665304,21.503212 C67.7925828,24.6233443 65.0118512,27.0172654 61.6720678,27.0172654 Z M51.6311459,33.5529412 L41.6755379,33.5529412 C38.9502326,33.5529412 36.7346939,35.7673132 36.7346939,38.4902052 L36.7346939,46.1208114 C36.7346939,48.8444515 38.9502326,51.0588235 41.6755379,51.0588235 L51.6311459,51.0588235 C54.3557027,51.0588235 56.5714286,48.8444515 56.5714286,46.1208114 L56.5714286,38.4902052 C56.5714286,35.7673132 54.3557027,33.5529412 51.6311459,33.5529412 Z M52.9783596,46.1208114 C52.9783596,46.86891 52.3643566,47.467389 51.6311459,47.467389 L41.6755379,47.467389 C40.9269819,47.467389 40.3283242,46.8543221 40.3283242,46.1208114 L40.3283242,38.4902052 C40.3283242,37.7421066 40.9415787,37.1436276 41.6755379,37.1436276 L51.6311459,37.1436276 C52.379702,37.1436276 52.9783596,37.7574426 52.9783596,38.4902052 L52.9783596,46.1208114 Z" id="Fill-3" fill="#14486E"></path>
                            </g>
                        </g>
                    </g>
                </g>
            </g>
        </g>
    </g>
</svg>