<?xml version="1.0" encoding="UTF-8"?>
<svg width="68px" height="68px" viewBox="0 0 68 68" version="1.1" xmlns="http://www.w3.org/2000/svg" xmlns:xlink="http://www.w3.org/1999/xlink">
    <!-- Generator: Sketch 47 (45396) - http://www.bohemiancoding.com/sketch -->
    <title>Icon_Industriel</title>
    <desc>Created with Sketch.</desc>
    <defs></defs>
    <g id="Web" stroke="none" stroke-width="1" fill="none" fill-rule="evenodd">
        <g id="Home" transform="translate(-688.000000, -1895.000000)">
            <g id="Clients" transform="translate(0.000000, 1637.000000)">
                <g transform="translate(340.000000, 258.000000)" id="2">
                    <g transform="translate(270.000000, 0.000000)">
                        <g id="Icon_Industriel" transform="translate(78.000000, 0.000000)">
                            <g id="Place">
                                <polygon id="Path-3" fill="#2C6FA6" opacity="0.200000003" points="7.65820313 7.57519531 7.65820312 15.038075 11.3878865 15.038075 7.65820312 67.7060547 67.8232422 67.7060547 67.8232422 27.3535156 43.453125 43.1425781 43.453125 27.3535156 25.7587891 37.640625 23.4511719 15.038075 27.21875 15.038075 27.21875 7.57519531"></polygon>
                                <path d="M60,60 L40,60 L40,39.072 L60,25.74 L60,60 Z M14,60 L4.16,60 L7.852,12 L16.152,12 L17.876,34.44 C17.876,34.444 17.876,34.452 17.876,34.456 L19.84,60 L14,60 Z M4,8 L20,8 L20,4 L4,4 L4,8 Z M24,48 L28,48 L28,44 L24,44 L24,48 Z M36,25.732 L36,60 L23.852,60 L23.236,52 L30,52 C31.104,52 32,51.104 32,50 L32,42 C32,40.896 31.104,40 30,40 L22.312,40 L21.936,35.092 L36,25.732 Z M62.944,20.24 C62.292,19.892 61.508,19.928 60.888,20.34 L40,34.264 L40,22 C40,21.264 39.592,20.584 38.944,20.236 C38.292,19.888 37.508,19.928 36.892,20.332 L21.584,30.516 L20.156,12 L22,12 C23.104,12 24,11.104 24,10 L24,2 C24,0.896 23.104,0 22,0 L2,0 C0.896,0 0,0.896 0,2 L0,10 C0,11.104 0.896,12 2,12 L3.844,12 L0.008,61.844 C-0.036,62.4 0.152,62.948 0.532,63.356 C0.912,63.768 1.44,64 2,64 L62,64 C63.104,64 64,63.104 64,62 L64,22.004 C64,21.264 63.592,20.588 62.944,20.24 L62.944,20.24 Z M47.6097561,47.6097561 L51.5121951,47.6097561 L51.5121951,43.7073171 L47.6097561,43.7073171 L47.6097561,47.6097561 Z M45.6585366,51.5121951 L53.4634146,51.5121951 C54.5404878,51.5121951 55.4146341,50.6380488 55.4146341,49.5609756 L55.4146341,41.7560976 C55.4146341,40.6790244 54.5404878,39.804878 53.4634146,39.804878 L45.6585366,39.804878 C44.5814634,39.804878 43.7073171,40.6790244 43.7073171,41.7560976 L43.7073171,49.5609756 C43.7073171,50.6380488 44.5814634,51.5121951 45.6585366,51.5121951 L45.6585366,51.5121951 Z" id="Fill-1" fill="#14486E"></path>
                            </g>
                        </g>
                    </g>
                </g>
            </g>
        </g>
    </g>
</svg>