<svg xmlns="http://www.w3.org/2000/svg" width="115" height="115" viewBox="0 0 115 115">
    <g fill="none" fill-rule="evenodd">
        <path d="M0 0h115v115H0z"/>
        <g fill-rule="nonzero">
            <path fill="#D5E2ED" d="M10 49.62c0-.896.733-1.62 1.633-1.62H54.69c.901 0 1.634.724 1.634 1.62 0 .84-.645 1.528-1.468 1.61l-.623 5.232h-.412l-2.155 33.255c-.094 1.443-1.303 2.564-2.76 2.564h-31.09c-1.458 0-2.667-1.12-2.76-2.564L12.9 56.462h-.81l-.622-5.232A1.625 1.625 0 0 1 10 49.62zm66 7.707c0-.734.6-1.327 1.338-1.327h35.278c.738 0 1.338.593 1.338 1.327 0 .688-.528 1.253-1.202 1.32l-.51 4.286h-.338l-1.766 27.248a2.257 2.257 0 0 1-2.262 2.1H82.404a2.257 2.257 0 0 1-2.262-2.1l-1.766-27.248h-.663l-.51-4.286A1.331 1.331 0 0 1 76 57.327zM32.033 33.22h-.402c-.901 0-1.631-.72-1.631-1.61 0-.89.73-1.611 1.63-1.611h61.96c.9 0 1.63.721 1.63 1.61 0 .89-.73 1.611-1.63 1.611h-.403l-.895 7.517h-.628l-3.145 48.527c-.11 1.696-1.534 3.016-3.254 3.016H40.528c-1.72 0-3.145-1.32-3.255-3.016L34.13 40.738h-1.201l-.895-7.517z"/>
            <path fill="#14486E" d="M39.748 79.985h4.03l-.112 1.732c-.094 1.443-1.303 2.564-2.76 2.564H9.815c-1.458 0-2.667-1.12-2.76-2.564L4.9 48.462h-.81l-.622-5.232A1.625 1.625 0 0 1 2 41.62c0-.896.733-1.62 1.633-1.62h27.323l.258 3.985H7.607l.059.492h1.006l2.321 35.819h28.735l.02-.31zM78.318 48h26.298c.738 0 1.338.593 1.338 1.327 0 .688-.528 1.253-1.202 1.32l-.51 4.286h-.338l-1.766 27.248a2.257 2.257 0 0 1-2.262 2.1H74.404a2.257 2.257 0 0 1-2.262-2.1L72 79.985h3.302l.066 1.03h23.544l1.902-29.347h.498l.048-.403H78.106L78.318 48zM24.033 25.221h-.402c-.901 0-1.631-.72-1.631-1.61 0-.89.73-1.611 1.63-1.611h61.96c.9 0 1.63.721 1.63 1.61 0 .89-.73 1.611-1.63 1.611h-.403l-.895 7.517h-.628l-3.145 48.527c-.11 1.696-1.534 3.016-3.254 3.016H32.528c-1.72 0-3.145-1.32-3.255-3.016L26.13 32.738h-1.201l-.895-7.517zm4.762 3.222h1.412l3.34 51.542h42.698l3.34-51.542h.84l.256-2.148H28.54l.256 2.148z"/>
        </g>
    </g>
</svg>
