<svg xmlns="http://www.w3.org/2000/svg" width="115" height="115" viewBox="0 0 115 115">
    <g fill="none" fill-rule="evenodd">
        <path d="M0 0h115v115H0z"/>
        <g fill-rule="nonzero">
            <path fill="#D5E2ED" d="M52.697 42.69h-.336A1.353 1.353 0 0 1 51 41.345c0-.743.61-1.345 1.361-1.345h51.732c.752 0 1.361.602 1.361 1.345s-.61 1.345-1.361 1.345h-.336l-.747 6.276h-.525l-2.626 40.516C99.768 90.898 98.58 92 97.142 92H59.79c-1.436 0-2.626-1.102-2.717-2.518l-2.626-40.516h-1.002l-.748-6.276zm-32.673-9.483h-.4A1.613 1.613 0 0 1 18 31.603c0-.885.727-1.603 1.623-1.603h61.68c.897 0 1.623.718 1.623 1.603 0 .886-.726 1.604-1.623 1.604h-.4l-.891 7.483h-.626l-3.13 48.308c-.11 1.688-1.528 3.002-3.24 3.002H28.48c-1.712 0-3.13-1.314-3.24-3.002L22.11 40.69h-1.195l-.891-7.483z"/>
            <path fill="#14486E" d="M66.093 33h29c.752 0 1.361.602 1.361 1.345s-.61 1.345-1.361 1.345h-.336l-.747 6.276h-.525l-2.626 40.516C90.768 83.898 89.58 85 88.142 85H50.79c-1.436 0-2.626-1.102-2.717-2.518l-.114-1.758h3.638l.044.69h35.65l2.789-43.035h.701l.214-1.793H65.86L66.093 33zm-55.07-6.793h-.4A1.613 1.613 0 0 1 9 24.603C9 23.718 9.727 23 10.623 23h61.68c.897 0 1.623.718 1.623 1.603 0 .886-.726 1.604-1.623 1.604h-.4l-.891 7.483h-.626l-3.13 48.308c-.11 1.688-1.528 3.002-3.24 3.002H19.48c-1.712 0-3.13-1.314-3.24-3.002L13.11 33.69h-1.195l-.891-7.483zm4.74 3.207h1.407l3.325 51.31h42.506l3.325-51.31h.837l.254-2.138H15.509l.255 2.138z"/>
        </g>
    </g>
</svg>
