<svg xmlns="http://www.w3.org/2000/svg" width="115" height="115" viewBox="0 0 115 115">
    <g fill="none" fill-rule="evenodd">
        <path d="M0 0h115v115H0z"/>
        <g fill-rule="nonzero">
            <path fill="#D5E2ED" d="M31.033 48.221h-.402c-.901 0-1.631-.72-1.631-1.61 0-.89.73-1.611 1.63-1.611h61.96c.9 0 1.63.721 1.63 1.61 0 .89-.73 1.611-1.63 1.611h-.403l-.895 7.517h-.628l-3.145 48.527c-.11 1.696-1.534 3.016-3.254 3.016H39.528c-1.72 0-3.145-1.32-3.255-3.016L33.13 55.738h-1.201l-.895-7.517zm8.353-14.859a4.906 4.906 0 0 1-.243-.745l-.044-.188a4.882 4.882 0 0 1 .14-2.48l.05-.16.063-.154c.03-.075.03-.075.096-.224.054-.12.112-.24.179-.361a6.569 6.569 0 0 1 .262-.441l.062-.1.067-.094c.154-.214.32-.424.504-.63.098-.122.19-.225.304-.339.231-.238.478-.473.701-.673.281-.263.581-.517.98-.838l3.156-2.544 2.519 3.212c.165.212.225.289.339.43.907 1.168 1.24 1.607 1.628 2.166l.711 1.028v.144c.033.06.034.063.038.072.284.55.483 1.12.575 1.657.083.442.116.889.047 1.482-.268 1.991-1.276 3.065-3.48 4.846L44.86 41l-2.5-3.238-.054-.069c-.144-.185-.225-.29-.276-.358-1.5-1.92-1.964-2.554-2.413-3.472a4.563 4.563 0 0 1-.231-.5zm27.118-4.844l3.792-1.272a22.965 22.965 0 0 1 .118.421c.227.926.246 1.866.048 2.787l-.036.169a7.774 7.774 0 0 1-.099.352l-.03.145-.151.355c-.372.878-.93 1.681-1.66 2.496l-.078.084-.074.078c-.141.149-.246.257-.33.34l-.29.294-.1.098c-.729.693-1.598 1.427-2.598 2.2l-3.128 2.417-2.454-3.1c-.239-.301-.947-1.219-.979-1.26-.11-.135-.197-.245-.374-.47l-.288-.374a31.732 31.732 0 0 1-.326-.42l-.23-.303a10.74 10.74 0 0 1-.158-.2l-.057-.074c-.16-.215-.304-.409-.439-.594a7.04 7.04 0 0 1-.133-.177l-.052-.073-.056-.076a23.536 23.536 0 0 1-.494-.704l-.135-.201a48.05 48.05 0 0 1-.357-.566 4.833 4.833 0 0 1-.183-.312 14.274 14.274 0 0 1-.372-.685 27.799 27.799 0 0 0-.04-.093c-.595-1.227-.882-2.468-.713-3.835.357-2.57 2.036-4.371 5.544-7.099l3.184-2.475 2.45 3.204c.173.227.756.98.956 1.24.053.064.09.113.184.234l.08.102c2.034 2.608 2.892 3.822 3.48 5.124.042.081.058.12.155.343.107.268.197.522.272.79.003.011-1.28.375-3.849 1.09zm6.9 4.785a5.354 5.354 0 0 1-.302-.947l-.033-.168c-.144-.833-.052-1.584.175-2.302l.068-.197a4.532 4.532 0 0 1 .39-.845l.118-.199.11-.186.115-.156c.165-.225.335-.437.525-.647a12.863 12.863 0 0 1 1.018-1.016c.265-.238.563-.489.927-.782l3.06-2.467 2.52 3.017c.06.072.118.143.178.22l.12.154.093.12.1.115.1.133c.107.142.516.67.647.845l-.04-.054c-.012-.017-.012-.017.041.052l.104.14c.267.344.494.654.698.96l.072.104c.246.368.461.72.643 1.056l.07.13.045.1c.251.51.435 1.029.533 1.594l.023.135.014.136.008.073c.04.39.047.732-.032 1.19-.29 1.92-1.302 2.985-3.463 4.733l-3.18 2.572-2.5-3.238.056.072-.057-.072-.054-.07-.274-.354c-1.565-2.001-2.008-2.61-2.473-3.581l-.09-.187-.017-.049a4.742 4.742 0 0 1-.057-.134z"/>
            <g fill="#14486E">
                <path d="M23.033 40.221h-.402c-.901 0-1.631-.72-1.631-1.61 0-.89.73-1.611 1.63-1.611h61.96c.9 0 1.63.721 1.63 1.61 0 .89-.73 1.611-1.63 1.611h-.403l-.895 7.517h-.628l-3.145 48.527c-.11 1.696-1.534 3.016-3.254 3.016H31.528c-1.72 0-3.145-1.32-3.255-3.016L25.13 47.738h-1.201l-.895-7.517zm4.762 3.222h1.412l3.34 51.542h42.698l3.34-51.542h.84l.256-2.148H27.54l.256 2.148zM37.526 27.318c1.039-.84 1.954-1.708 2.03-2.27a.746.746 0 0 0-.014-.212 1.96 1.96 0 0 0-.22-.6 7.453 7.453 0 0 0-.462-.753c-.392-.574-.914-1.244-1.498-1.996-.111-.137-.227-.287-.345-.438-.29.233-.543.445-.756.644-.22.198-.42.389-.598.574-.036.033-.057.068-.083.102-.123.13-.227.26-.31.376-.048.075-.09.136-.123.205-.043.075-.069.143-.097.211a.892.892 0 0 0-.034.459c.02.075.04.157.081.247.021.061.05.115.083.176.331.692 1.074 1.642 2.002 2.83.11.144.227.294.344.445zm-6.14-1.956a4.906 4.906 0 0 1-.243-.745l-.044-.188a4.882 4.882 0 0 1 .14-2.48l.05-.16.063-.154c.03-.075.03-.075.096-.224.054-.12.112-.24.179-.361a6.569 6.569 0 0 1 .262-.441l.062-.1.067-.094c.154-.214.32-.424.504-.63.098-.122.19-.225.304-.339.231-.238.478-.473.701-.673.281-.263.581-.517.98-.838l3.156-2.544 2.519 3.212c.165.212.225.289.339.43.907 1.168 1.24 1.607 1.628 2.166l.711 1.028v.144c.033.06.034.063.038.072.284.55.483 1.12.575 1.657.083.442.116.889.047 1.482-.268 1.991-1.276 3.065-3.48 4.846L36.86 33l-2.5-3.238-.054-.069c-.144-.185-.225-.29-.276-.358-1.5-1.92-1.964-2.554-2.413-3.472a4.563 4.563 0 0 1-.231-.5zM55.05 15.324c-.314-.41-.652-.841-1.003-1.3-2.338 1.818-3.872 3.302-4.037 4.492-.055.445.068.958.35 1.539.007.014.007.026.014.04.09.171.185.355.303.548a.715.715 0 0 0 .055.101c.11.179.227.362.35.555.042.054.076.115.118.17.123.185.26.376.398.568.056.076.11.156.172.231.145.2.296.405.455.616.047.062.095.123.151.191.178.233.358.473.557.725l.317.41c.102.13.199.253.31.39.322.41.653.848 1.01 1.3a30.104 30.104 0 0 0 2.291-1.936l.289-.294c.123-.122.24-.245.357-.37.448-.498.777-.963.956-1.387.008-.033.027-.075.034-.108.028-.062.035-.13.055-.193.07-.327.063-.668-.034-1.038-.007-.02-.007-.035-.014-.056a3.8 3.8 0 0 0-.137-.395c-.014-.035-.034-.068-.048-.096-.447-1.026-1.439-2.36-3.027-4.396-.083-.102-.151-.198-.241-.307zm7.204 7.86l.007-.018.008-.021c-.006.02-.01.028-.015.039zm.123-.442c-.071.271-.095.362-.108.403.022-.058.04-.115.058-.17l.05-.233zm-3.873-2.224l3.792-1.272a22.965 22.965 0 0 1 .118.421c.227.926.246 1.866.048 2.787l-.036.169a7.774 7.774 0 0 1-.099.352l-.03.145-.151.355c-.372.878-.93 1.681-1.66 2.496l-.078.084-.074.078c-.141.149-.246.257-.33.34l-.29.294-.1.098c-.729.693-1.598 1.427-2.598 2.2l-3.128 2.417-2.454-3.1c-.239-.301-.947-1.219-.979-1.26-.11-.135-.197-.245-.374-.47l-.288-.374a31.732 31.732 0 0 1-.326-.42l-.23-.303a10.74 10.74 0 0 1-.158-.2l-.057-.074c-.16-.215-.304-.409-.439-.594a7.04 7.04 0 0 1-.133-.177l-.052-.073-.056-.076a23.536 23.536 0 0 1-.494-.704l-.135-.201a48.05 48.05 0 0 1-.357-.566 4.833 4.833 0 0 1-.183-.312 14.274 14.274 0 0 1-.372-.685 27.799 27.799 0 0 0-.04-.093c-.595-1.227-.882-2.468-.713-3.835.357-2.57 2.036-4.371 5.544-7.099l3.184-2.475 2.45 3.204c.173.227.756.98.956 1.24.053.064.09.113.184.234l.08.102c2.034 2.608 2.892 3.822 3.48 5.124.042.081.058.12.155.343.107.268.197.522.272.79.003.011-1.28.375-3.849 1.09zM71.534 27.233c1.039-.84 1.955-1.708 2.03-2.27.013-.06 0-.136-.007-.204a2.002 2.002 0 0 0-.206-.56l-.02-.047a9.24 9.24 0 0 0-.448-.732l-.04-.056c-.18-.273-.393-.56-.635-.868-.033-.054-.075-.101-.116-.157-.186-.245-.392-.506-.598-.78a2.176 2.176 0 0 1-.124-.15c-.05-.06-.097-.122-.144-.183-.064-.083-.132-.172-.2-.254-.29.233-.543.444-.756.637-.22.198-.421.388-.599.58-.035.034-.056.062-.083.095-.123.13-.227.261-.317.384-.04.068-.082.136-.116.197-.05.076-.069.15-.097.226a.91.91 0 0 0-.047.417c.019.089.054.185.095.281.02.055.05.102.068.156.331.691 1.082 1.649 2.017 2.844.109.143.227.294.343.444zm-6.003-1.643l-.004-.007a4.053 4.053 0 0 1 .004.007zm9.045-6.573l-.042-.054.042.054zm-9.173 6.286a5.354 5.354 0 0 1-.301-.947l-.033-.168c-.144-.833-.052-1.584.175-2.302l.068-.197a4.532 4.532 0 0 1 .39-.845l.118-.199.11-.186.115-.156c.165-.225.335-.437.525-.647a12.863 12.863 0 0 1 1.018-1.016c.265-.238.563-.489.927-.782l3.06-2.467 2.52 3.017a9.33 9.33 0 0 1 .298.374l.093.12.1.115.1.133c.107.142.516.67.647.845l-.04-.054c-.012-.017-.012-.017.041.052l.104.14c.267.344.494.654.698.96l.072.104c.246.368.461.72.643 1.056l.07.13.045.1c.251.51.435 1.029.533 1.594l.023.135.014.136.008.073c.04.39.047.732-.032 1.19-.29 1.92-1.302 2.985-3.463 4.733l-3.18 2.572-2.5-3.238.056.072-.057-.072-.054-.07-.274-.354c-1.565-2.001-2.008-2.61-2.473-3.581l-.09-.187-.017-.049a4.742 4.742 0 0 1-.057-.134z"/>
            </g>
        </g>
    </g>
</svg>
