<?xml version="1.0" encoding="UTF-8"?>
<svg width="66px" height="52px" viewBox="0 0 66 52" version="1.1" xmlns="http://www.w3.org/2000/svg" xmlns:xlink="http://www.w3.org/1999/xlink">
    <!-- Generator: Sketch 47 (45396) - http://www.bohemiancoding.com/sketch -->
    <title>Icon-Diamant</title>
    <desc>Created with Sketch.</desc>
    <defs></defs>
    <g id="Web" stroke="none" stroke-width="1" fill="none" fill-rule="evenodd">
        <g id="Home" transform="translate(-688.000000, -296.000000)" fill="#FFFFFF">
            <g id="Header">
                <g id="Main">
                    <g id="Logo" transform="translate(688.000000, 296.000000)">
                        <path d="M11.1003221,-0.000182704877 L0.659138713,16.3531954 L20.1438171,15.7105676 L11.1003221,-0.000182704877 Z M32.823297,51.9995861 L20.7964567,17.6391755 L0.658613661,16.352885 L32.823297,51.9995861 Z M11.1003221,-0.000182704877 L21.6349647,14.6084764 L32.9162312,-0.000182704877 L11.1003221,-0.000182704877 Z M32.9159162,-0.000182704877 L23.2203066,15.7105676 L42.4256574,15.7105676 L32.9159162,-0.000182704877 Z M22.8475197,17.6395894 L42.704985,17.6395894 L32.823507,52 L22.8475197,17.6395894 Z M32.9159162,-0.000182704877 L43.7309366,14.6084764 L54.5449068,-0.000182704877 L32.9159162,-0.000182704877 Z M54.5453269,-0.000182704877 L45.4094227,15.618468 L65.0799695,16.3531954 L54.5453269,-0.000182704877 Z M44.8496123,17.7313786 L65.0798645,16.3529885 L32.822772,51.9996896 L44.8496123,17.7313786 Z" id="Icon-Diamant"></path>
                    </g>
                </g>
            </g>
        </g>
    </g>
</svg>