<svg xmlns="http://www.w3.org/2000/svg" width="115" height="115" viewBox="0 0 115 115">
    <g fill="none" fill-rule="evenodd">
        <path d="M0 0h115v115H0z"/>
        <path fill="#C8E2ED" fill-rule="nonzero" d="M38.04 22.96l.039-2.96H65.92l.04 2.96c.42 31.33-2.528 53.68-8.983 67.2v7.22l5.329.643a4 4 0 0 1 3.52 3.972v4.473H38v-4.473a4 4 0 0 1 3.52-3.972l5.329-.643v-7.585c-6.334-13.557-9.226-35.786-8.81-66.835zm27 0l.039-2.96H92.92l.04 2.96c.42 31.33-2.528 53.68-8.983 67.2v7.22l5.329.643a4 4 0 0 1 3.52 3.972v4.473H65v-4.473a4 4 0 0 1 3.52-3.972l5.329-.643v-7.585c-6.334-13.557-9.226-35.786-8.81-66.835z"/>
        <g fill="#14486E" fill-rule="nonzero">
            <path d="M42.849 94.04l-7.969.962a1 1 0 0 0-.88.993v1.473h21.827v-1.473a1 1 0 0 0-.88-.993l-7.969-.962V83.376c.1-.045.148-.11.144-.199 6.31-12.963 9.256-35.022 8.84-66.177H34.038c-.417 31.107 2.52 53.146 8.81 66.117V94.04zm-11.81-77.08l.04-2.96H58.92l.04 2.96c.42 31.33-2.528 53.68-8.983 67.2v7.22l5.329.643a4 4 0 0 1 3.52 3.972v4.473H31v-4.473a4 4 0 0 1 3.52-3.972l5.329-.643v-7.585c-6.334-13.557-9.226-35.786-8.81-66.835zM71.849 94.04l-7.969.962a1 1 0 0 0-.88.993v1.473h21.827v-1.473a1 1 0 0 0-.88-.993l-7.969-.962V83.376c.1-.045.148-.11.144-.199 6.31-12.963 9.256-35.022 8.84-66.177H63.038c-.417 31.107 2.52 53.146 8.81 66.117V94.04zm-11.81-77.08l.04-2.96H87.92l.04 2.96c.42 31.33-2.528 53.68-8.983 67.2v7.22l5.329.643a4 4 0 0 1 3.52 3.972v4.473H60v-4.473a4 4 0 0 1 3.52-3.972l5.329-.643v-7.585c-6.334-13.557-9.226-35.786-8.81-66.835z"/>
        </g>
    </g>
</svg>
