<?xml version="1.0" encoding="utf-8"?>
<!-- Generator: Adobe Illustrator 21.0.0, SVG Export Plug-In . SVG Version: 6.00 Build 0)  -->
<svg version="1.1" id="Camada_1" xmlns="http://www.w3.org/2000/svg" xmlns:xlink="http://www.w3.org/1999/xlink" x="0px" y="0px"
	 viewBox="0 0 190 55" style="enable-background:new 0 0 190 55;" xml:space="preserve">
<style type="text/css">
	.st0{fill:#8CD1E9;}
	.st1{fill:#35A0CD;}
	.st2{fill:#0073AF;}
	.st3{opacity:0.2;fill:url(#Fill-9_1_);enable-background:new    ;}
	.st4{fill:#FFFFFF;stroke:#FFFFFF;stroke-miterlimit:10;}
	.st5{fill:#FFFFFF;stroke:#FFFFFF;}
</style>
<title>Carty-Logo</title>
<desc>Created with Sketch.</desc>
<g id="Symbols">
	<g id="Header" transform="translate(-133.000000, -63.000000)">
		<g id="Menu" transform="translate(133.000000, 0.000000)">
			<g id="Carty-Logo" transform="translate(0.000000, 63.000000)">
				<g id="Page-1">
					<g id="Logo">
						<g id="Diamond">
							<polygon id="Fill-1" class="st0" points="7.2,0 0,11.3 13.5,10.9 							"/>
							<polygon id="Fill-2" class="st0" points="22.2,36.1 13.9,12.2 0,11.3 							"/>
							<polygon id="Fill-3" class="st1" points="7.2,0 14.5,10.1 22.3,0 							"/>
							<polygon id="Fill-4" class="st1" points="22.3,0 15.6,10.9 28.9,10.9 							"/>
							<polygon id="Fill-5" class="st1" points="15.3,12.2 29,12.2 22.2,36.1 							"/>
							<polygon id="Fill-6" class="st2" points="22.3,0 29.8,10.1 37.2,0 							"/>
							<polygon id="Fill-7" class="st2" points="37.2,0 30.9,10.8 44.5,11.3 							"/>
							<polygon id="Fill-8" class="st2" points="30.5,12.3 44.5,11.3 22.2,36.1 							"/>
							
								<linearGradient id="Fill-9_1_" gradientUnits="userSpaceOnUse" x1="-573.0425" y1="403.2295" x2="-573.5306" y2="403.7022" gradientTransform="matrix(44.3987 0 0 -44.2702 25497.2891 17894.6934)">
								<stop  offset="0" style="stop-color:#80A8C1;stop-opacity:0"/>
								<stop  offset="1" style="stop-color:#80A8C1"/>
							</linearGradient>
							<polygon id="Fill-9" class="st3" points="22.2,36.1 44.4,55.7 66.6,31 44.4,11.4 							"/>
						</g>
					</g>
					<g id="Letters" transform="translate(69.000000, 3.000000)">
						<path id="Fill-11" class="st4" d="M22.8,19.4c-0.2,0.7-0.5,1.3-0.8,1.8c-0.1,0.1-0.2,0.1-0.3,0.1c-1.4,0.2-2.8,0.3-4.3,0.5
							c-1.4,0.1-2.9,0.2-4.3,0.2c-1.8,0-3.6-0.3-5.1-0.8C6.5,20.7,5.1,20,4,19c-1.1-0.9-2-2-2.7-3.3s-1-2.7-1-4.3
							c0-1.7,0.4-3.3,1.1-4.8c0.8-1.5,1.8-2.9,3.2-4.1c0.5-0.5,1.2-0.8,2-1.1c0.8-0.3,1.6-0.5,2.5-0.7c0.9-0.2,1.8-0.3,2.6-0.4
							c0.9-0.1,1.7-0.1,2.4-0.1c0.8,0,1.7,0,2.5,0.1c0.8,0.1,1.6,0.2,2.4,0.3c0.6,0.1,1.2,0.1,1.8,0.2C21.4,0.9,22,0.9,22.6,1
							c0.2,0,0.3,0.1,0.3,0.3c0,0.9-0.1,1.7-0.2,2.6c-0.1,0.9-0.3,1.7-0.4,2.6c0,0.2-0.2,0.2-0.4,0.2c-0.2,0-0.3-0.1-0.4-0.2
							c-0.2-0.8-0.5-1.5-0.9-2.1c-0.5-0.6-1-1.1-1.7-1.5c-0.7-0.4-1.4-0.7-2.2-0.9C15.9,1.5,15,1.4,14,1.4c-1.6,0-3,0.2-4.2,0.6
							c-1.2,0.4-2.3,1-3.2,1.7C5.7,4.6,5.1,5.5,4.6,6.5c-0.5,1.1-0.7,2.3-0.7,3.6c0,1.4,0.3,2.7,0.9,4c0.6,1.3,1.4,2.4,2.4,3.4
							c1,1,2.3,1.8,3.7,2.4c1.4,0.6,3,0.9,4.6,0.9c1,0,1.8-0.1,2.5-0.3c0.7-0.2,1.3-0.4,1.8-0.8s1-0.8,1.4-1.3
							c0.4-0.5,0.8-1.1,1.2-1.8l0.7,0.1c0.1,0.3,0.1,0.7,0.1,1C23.1,18.1,23,18.7,22.8,19.4"/>
						<path id="Stroke-13" class="st5" d="M22.8,19.4c-0.2,0.7-0.5,1.3-0.8,1.8c-0.1,0.1-0.2,0.1-0.3,0.1c-1.4,0.2-2.8,0.3-4.3,0.5
							c-1.4,0.1-2.9,0.2-4.3,0.2c-1.8,0-3.6-0.3-5.1-0.8C6.5,20.7,5.1,20,4,19c-1.1-0.9-2-2-2.7-3.3s-1-2.7-1-4.3
							c0-1.7,0.4-3.3,1.1-4.8c0.8-1.5,1.8-2.9,3.2-4.1c0.5-0.5,1.2-0.8,2-1.1c0.8-0.3,1.6-0.5,2.5-0.7c0.9-0.2,1.8-0.3,2.6-0.4
							c0.9-0.1,1.7-0.1,2.4-0.1c0.8,0,1.7,0,2.5,0.1c0.8,0.1,1.6,0.2,2.4,0.3c0.6,0.1,1.2,0.1,1.8,0.2C21.4,0.9,22,0.9,22.6,1
							c0.2,0,0.3,0.1,0.3,0.3c0,0.9-0.1,1.7-0.2,2.6c-0.1,0.9-0.3,1.7-0.4,2.6c0,0.2-0.2,0.2-0.4,0.2c-0.2,0-0.3-0.1-0.4-0.2
							c-0.2-0.8-0.5-1.5-0.9-2.1c-0.5-0.6-1-1.1-1.7-1.5c-0.7-0.4-1.4-0.7-2.2-0.9C15.9,1.5,15,1.4,14,1.4c-1.6,0-3,0.2-4.2,0.6
							c-1.2,0.4-2.3,1-3.2,1.7C5.7,4.6,5.1,5.5,4.6,6.5c-0.5,1.1-0.7,2.3-0.7,3.6c0,1.4,0.3,2.7,0.9,4c0.6,1.3,1.4,2.4,2.4,3.4
							c1,1,2.3,1.8,3.7,2.4c1.4,0.6,3,0.9,4.6,0.9c1,0,1.8-0.1,2.5-0.3c0.7-0.2,1.3-0.4,1.8-0.8s1-0.8,1.4-1.3
							c0.4-0.5,0.8-1.1,1.2-1.8l0.7,0.1c0.1,0.3,0.1,0.7,0.1,1C23.1,18.1,23,18.7,22.8,19.4z"/>
						<path id="Fill-15" class="st4" d="M37,5.3c-0.5,1.2-0.9,2.3-1.3,3.4c-0.4,1.1-0.9,2.2-1.4,3.4h5.4L37,5.3z M48.3,21.7
							c-0.7,0-1.3,0-2,0c-0.5,0-1.1,0-1.8,0c-0.7,0-1.3,0-1.8,0c-0.2,0-0.3-0.1-0.4-0.1c-0.1-0.1,0-0.2,0.1-0.3l1.2-0.5
							c-0.5-1.2-1.1-2.4-1.6-3.6c-0.6-1.2-1.1-2.4-1.6-3.6h-6.7c-0.2,0.3-0.4,0.8-0.7,1.5c-0.3,0.7-0.6,1.3-0.8,2
							c-0.3,0.7-0.5,1.3-0.7,2c-0.2,0.6-0.3,1-0.3,1.3c0,0.3,0.2,0.5,0.5,0.6c0.3,0.1,0.7,0.2,1,0.2c0.2,0,0.3,0.1,0.3,0.3
							c0,0.1-0.1,0.2-0.4,0.2l-7,0c-0.1-0.1-0.1-0.1-0.2-0.2c0-0.1,0-0.2,0.1-0.2c0-0.1,0.1-0.1,0.2-0.1c0.1,0,0.2,0,0.2,0
							c0.3,0,0.6-0.1,0.9-0.2c0.3-0.1,0.6-0.3,0.8-0.5c0.3-0.2,0.5-0.5,0.7-0.7c0.2-0.3,0.3-0.5,0.5-0.7c0.6-1.3,1.1-2.5,1.7-3.9
							c0.5-1.3,1.1-2.6,1.6-3.9c0.8-1.8,1.6-3.7,2.4-5.5c0.8-1.8,1.6-3.6,2.5-5.5c0-0.1,0.1-0.1,0.2-0.2c0.1-0.1,0.2,0,0.3,0.1
							c0.4,0.4,0.7,0.9,1,1.6c0.3,0.7,0.6,1.3,0.8,1.9c0.1,0.1,0.2,0.2,0.2,0.3c0,0.1,0.1,0.2,0.1,0.3C40,5,40.3,5.6,40.7,6.2
							c0.3,0.6,0.6,1.3,0.9,1.9C42,9.1,42.4,10,42.9,11c0.4,1,0.9,2,1.4,3c0.5,1,1,2,1.4,2.9c0.5,1,1,1.9,1.4,2.7
							c0.3,0.5,0.8,0.9,1.3,1.2c0.6,0.2,1.2,0.4,1.8,0.4v0.5C49.6,21.7,49,21.8,48.3,21.7L48.3,21.7z"/>
						<path id="Stroke-17" class="st5" d="M37,5.3c-0.5,1.2-0.9,2.3-1.3,3.4c-0.4,1.1-0.9,2.2-1.4,3.4h5.4L37,5.3z M48.3,21.7
							c-0.7,0-1.3,0-2,0c-0.5,0-1.1,0-1.8,0c-0.7,0-1.3,0-1.8,0c-0.2,0-0.3-0.1-0.4-0.1c-0.1-0.1,0-0.2,0.1-0.3l1.2-0.5
							c-0.5-1.2-1.1-2.4-1.6-3.6c-0.6-1.2-1.1-2.4-1.6-3.6h-6.7c-0.2,0.3-0.4,0.8-0.7,1.5c-0.3,0.7-0.6,1.3-0.8,2
							c-0.3,0.7-0.5,1.3-0.7,2c-0.2,0.6-0.3,1-0.3,1.3c0,0.3,0.2,0.5,0.5,0.6c0.3,0.1,0.7,0.2,1,0.2c0.2,0,0.3,0.1,0.3,0.3
							c0,0.1-0.1,0.2-0.4,0.2l-7,0c-0.1-0.1-0.1-0.1-0.2-0.2c0-0.1,0-0.2,0.1-0.2c0-0.1,0.1-0.1,0.2-0.1c0.1,0,0.2,0,0.2,0
							c0.3,0,0.6-0.1,0.9-0.2c0.3-0.1,0.6-0.3,0.8-0.5c0.3-0.2,0.5-0.5,0.7-0.7c0.2-0.3,0.3-0.5,0.5-0.7c0.6-1.3,1.1-2.5,1.7-3.9
							c0.5-1.3,1.1-2.6,1.6-3.9c0.8-1.8,1.6-3.7,2.4-5.5c0.8-1.8,1.6-3.6,2.5-5.5c0-0.1,0.1-0.1,0.2-0.2c0.1-0.1,0.2,0,0.3,0.1
							c0.4,0.4,0.7,0.9,1,1.6c0.3,0.7,0.6,1.3,0.8,1.9c0.1,0.1,0.2,0.2,0.2,0.3c0,0.1,0.1,0.2,0.1,0.3C40,5,40.3,5.6,40.7,6.2
							c0.3,0.6,0.6,1.3,0.9,1.9C42,9.1,42.4,10,42.9,11c0.4,1,0.9,2,1.4,3c0.5,1,1,2,1.4,2.9c0.5,1,1,1.9,1.4,2.7
							c0.3,0.5,0.8,0.9,1.3,1.2c0.6,0.2,1.2,0.4,1.8,0.4v0.5C49.6,21.7,49,21.8,48.3,21.7z"/>
						<path id="Fill-19" class="st4" d="M65.1,5.4c-0.2-0.7-0.5-1.3-1-1.8c-0.4-0.5-1-0.9-1.6-1.3c-0.6-0.3-1.4-0.5-2.2-0.5
							c-0.7,0-1.3,0.1-1.9,0.3v9.4c0.9,0.1,1.8,0.2,2.8,0.2c0.4,0,0.8,0,1.3-0.1c0.5,0,0.9-0.2,1.2-0.4c0.3-0.2,0.6-0.5,0.8-0.8
							s0.4-0.6,0.5-1c0.1-0.3,0.2-0.7,0.3-1.1c0.1-0.4,0.1-0.7,0.1-1.1C65.4,6.7,65.3,6.1,65.1,5.4 M75.5,22.1
							c-0.6,0.1-1.1,0.2-1.7,0.2c-0.9,0-1.8-0.1-2.5-0.4c-0.8-0.3-1.5-0.7-2.1-1.2c-0.6-0.5-1.2-1-1.8-1.6c-0.6-0.6-1.1-1.2-1.6-1.8
							c-0.5-0.6-1-1.2-1.5-1.8c-0.5-0.6-1-1.1-1.6-1.5c-0.4-0.3-0.9-0.5-1.5-0.6c-0.6-0.1-1.1-0.1-1.6-0.1h-0.6c-0.2,0-0.4,0-0.6,0
							v5.3c0,0.1,0,0.3,0.1,0.5c0,0.2,0.1,0.5,0.2,0.7c0.1,0.3,0.1,0.5,0.2,0.7c0.1,0.2,0.1,0.3,0.2,0.4c0.1,0,0.3,0.1,0.5,0.1
							c0.2,0,0.3,0,0.5,0.1c0.2,0,0.5,0,0.8,0.1c0.3,0,0.5,0.1,0.7,0.3c0.1,0.1,0.2,0.2,0.1,0.3c-0.1,0.1-0.2,0.1-0.4,0.1h-4.1
							c-1.4,0-2.7,0-4.1-0.1c-0.2,0-0.3-0.1-0.4-0.2c0-0.1,0.1-0.2,0.3-0.3c0.5-0.1,0.9-0.2,1.1-0.3c0.3-0.1,0.5-0.2,0.6-0.4
							c0.1-0.2,0.2-0.4,0.2-0.7c0-0.3,0-0.7,0-1.1V3c0-0.3,0-0.6-0.1-0.8c-0.1-0.2-0.2-0.3-0.3-0.4c-0.1-0.1-0.3-0.1-0.4-0.2
							c-0.2,0-0.3-0.1-0.5-0.1c-0.3,0-0.6-0.1-0.8-0.1c-0.2-0.1-0.4-0.2-0.4-0.4c-0.1-0.1-0.1-0.2,0-0.2c0.1-0.1,0.2-0.1,0.3-0.1
							h0.6h2.2c0.4,0,0.7,0,1.1,0c0.3,0,0.7,0,1,0c0.2,0,0.4,0,0.6,0c0.2,0,0.4,0,0.6,0h1.8c0.9,0,1.9,0.1,2.8,0.2
							c0.9,0.1,1.8,0.3,2.5,0.6c0.8,0.3,1.4,0.8,2,1.3c0.6,0.6,1,1.3,1.2,2.3c0,0.1,0.1,0.2,0.1,0.4c0,0.2,0,0.3,0,0.4
							c0,0.6-0.1,1.2-0.3,1.7c-0.2,0.6-0.5,1.1-0.9,1.7c-0.4,0.6-0.8,1.1-1.2,1.5c-0.5,0.5-0.9,0.9-1.4,1.3c0.4,0.3,0.7,0.7,1.1,1.2
							c0.4,0.5,0.8,0.9,1.2,1.4c0.7,0.8,1.4,1.5,2.1,2.3c0.7,0.8,1.5,1.5,2.3,2.2c0.8,0.6,1.6,1.1,2.4,1.5c0.8,0.4,1.7,0.5,2.5,0.4
							l0.2,0.5C76.6,21.9,76,22,75.5,22.1"/>
						<path id="Stroke-21" class="st5" d="M65.1,5.4c-0.2-0.7-0.5-1.3-1-1.8c-0.4-0.5-1-0.9-1.6-1.3c-0.6-0.3-1.4-0.5-2.2-0.5
							c-0.7,0-1.3,0.1-1.9,0.3v9.4c0.9,0.1,1.8,0.2,2.8,0.2c0.4,0,0.8,0,1.3-0.1c0.5,0,0.9-0.2,1.2-0.4c0.3-0.2,0.6-0.5,0.8-0.8
							s0.4-0.6,0.5-1c0.1-0.3,0.2-0.7,0.3-1.1c0.1-0.4,0.1-0.7,0.1-1.1C65.4,6.7,65.3,6.1,65.1,5.4z M75.5,22.1
							c-0.6,0.1-1.1,0.2-1.7,0.2c-0.9,0-1.8-0.1-2.5-0.4c-0.8-0.3-1.5-0.7-2.1-1.2c-0.6-0.5-1.2-1-1.8-1.6c-0.6-0.6-1.1-1.2-1.6-1.8
							c-0.5-0.6-1-1.2-1.5-1.8c-0.5-0.6-1-1.1-1.6-1.5c-0.4-0.3-0.9-0.5-1.5-0.6c-0.6-0.1-1.1-0.1-1.6-0.1h-0.6c-0.2,0-0.4,0-0.6,0
							v5.3c0,0.1,0,0.3,0.1,0.5c0,0.2,0.1,0.5,0.2,0.7c0.1,0.3,0.1,0.5,0.2,0.7c0.1,0.2,0.1,0.3,0.2,0.4c0.1,0,0.3,0.1,0.5,0.1
							c0.2,0,0.3,0,0.5,0.1c0.2,0,0.5,0,0.8,0.1c0.3,0,0.5,0.1,0.7,0.3c0.1,0.1,0.2,0.2,0.1,0.3c-0.1,0.1-0.2,0.1-0.4,0.1h-4.1
							c-1.4,0-2.7,0-4.1-0.1c-0.2,0-0.3-0.1-0.4-0.2c0-0.1,0.1-0.2,0.3-0.3c0.5-0.1,0.9-0.2,1.1-0.3c0.3-0.1,0.5-0.2,0.6-0.4
							c0.1-0.2,0.2-0.4,0.2-0.7c0-0.3,0-0.7,0-1.1V3c0-0.3,0-0.6-0.1-0.8c-0.1-0.2-0.2-0.3-0.3-0.4c-0.1-0.1-0.3-0.1-0.4-0.2
							c-0.2,0-0.3-0.1-0.5-0.1c-0.3,0-0.6-0.1-0.8-0.1c-0.2-0.1-0.4-0.2-0.4-0.4c-0.1-0.1-0.1-0.2,0-0.2c0.1-0.1,0.2-0.1,0.3-0.1
							h0.6h2.2c0.4,0,0.7,0,1.1,0c0.3,0,0.7,0,1,0c0.2,0,0.4,0,0.6,0c0.2,0,0.4,0,0.6,0h1.8c0.9,0,1.9,0.1,2.8,0.2
							c0.9,0.1,1.8,0.3,2.5,0.6c0.8,0.3,1.4,0.8,2,1.3c0.6,0.6,1,1.3,1.2,2.3c0,0.1,0.1,0.2,0.1,0.4c0,0.2,0,0.3,0,0.4
							c0,0.6-0.1,1.2-0.3,1.7c-0.2,0.6-0.5,1.1-0.9,1.7c-0.4,0.6-0.8,1.1-1.2,1.5c-0.5,0.5-0.9,0.9-1.4,1.3c0.4,0.3,0.7,0.7,1.1,1.2
							c0.4,0.5,0.8,0.9,1.2,1.4c0.7,0.8,1.4,1.5,2.1,2.3c0.7,0.8,1.5,1.5,2.3,2.2c0.8,0.6,1.6,1.1,2.4,1.5c0.8,0.4,1.7,0.5,2.5,0.4
							l0.2,0.5C76.6,21.9,76,22,75.5,22.1z"/>
						<path id="Fill-23" class="st4" d="M95.3,2.9c-0.1,0.5-0.2,1-0.3,1.5c0,0.1-0.2,0.2-0.4,0.2c-0.2,0-0.3-0.1-0.4-0.2
							C94,3.6,93.6,3,92.9,2.7c-0.7-0.3-1.5-0.4-2.4-0.4c-0.2,0-0.5,0-0.7,0c-0.2,0-0.4,0-0.6,0c-0.2,0-0.4,0-0.7,0
							c-0.3,0-0.5,0-0.7,0h-0.6c-0.2,0-0.3,0-0.5,0v16.1c0,0.1,0,0.2,0.1,0.4c0,0.2,0.1,0.4,0.1,0.7c0,0.2,0.1,0.4,0.1,0.6
							s0.1,0.3,0.1,0.3c0.2,0.2,0.4,0.3,0.7,0.3c0.2,0,0.4,0.1,0.6,0.1c0.3,0,0.6,0,0.8,0.1c0.2,0,0.4,0.2,0.5,0.3
							c0.1,0.1,0.1,0.2,0,0.2c-0.1,0.1-0.2,0.1-0.3,0.1c-1.4,0-2.7,0-4.1,0c-1.4,0-2.7,0-4.1,0c-0.2,0-0.3-0.1-0.4-0.2
							c0-0.1,0.1-0.2,0.3-0.3c0.5-0.1,0.8-0.2,1.1-0.2c0.3-0.1,0.5-0.2,0.6-0.4s0.2-0.4,0.3-0.7c0-0.3,0.1-0.6,0.1-1.1V2.3h-5.2
							c-0.7,0-1.2,0.2-1.7,0.6c-0.5,0.4-0.9,0.8-1.1,1.3c-0.1,0.1-0.2,0.2-0.4,0.2c-0.2,0-0.3-0.1-0.4-0.2c0-0.1,0-0.1-0.1-0.2
							c0-0.1,0-0.1,0-0.2c0-0.3,0.1-0.7,0.2-1.1c0.1-0.4,0.3-0.8,0.4-1.2C74.9,1.2,75,1,75,0.9c0-0.2,0.1-0.3,0.1-0.5
							c0-0.1,0.1-0.2,0.3-0.2c0.1,0,0.2,0,0.4,0c0.1,0.1,0.3,0.1,0.6,0.2c0.2,0.1,0.5,0.1,0.8,0.2c0.3,0.1,0.6,0.1,0.8,0.1
							c0.3,0,0.5,0,0.6,0H93c0.1,0,0.3,0,0.5-0.1c0.2,0,0.4-0.1,0.6-0.1c0.1,0,0.2-0.1,0.4-0.1c0.1,0,0.3,0,0.4,0c0.1,0,0.2,0,0.3,0
							c0.1,0,0.2,0.1,0.2,0.2v0.6C95.3,1.9,95.3,2.4,95.3,2.9"/>
						<path id="Stroke-25" class="st5" d="M95.3,2.9c-0.1,0.5-0.2,1-0.3,1.5c0,0.1-0.2,0.2-0.4,0.2c-0.2,0-0.3-0.1-0.4-0.2
							C94,3.6,93.6,3,92.9,2.7c-0.7-0.3-1.5-0.4-2.4-0.4c-0.2,0-0.5,0-0.7,0c-0.2,0-0.4,0-0.6,0c-0.2,0-0.4,0-0.7,0
							c-0.3,0-0.5,0-0.7,0h-0.6c-0.2,0-0.3,0-0.5,0v16.1c0,0.1,0,0.2,0.1,0.4c0,0.2,0.1,0.4,0.1,0.7c0,0.2,0.1,0.4,0.1,0.6
							s0.1,0.3,0.1,0.3c0.2,0.2,0.4,0.3,0.7,0.3c0.2,0,0.4,0.1,0.6,0.1c0.3,0,0.6,0,0.8,0.1c0.2,0,0.4,0.2,0.5,0.3
							c0.1,0.1,0.1,0.2,0,0.2c-0.1,0.1-0.2,0.1-0.3,0.1c-1.4,0-2.7,0-4.1,0c-1.4,0-2.7,0-4.1,0c-0.2,0-0.3-0.1-0.4-0.2
							c0-0.1,0.1-0.2,0.3-0.3c0.5-0.1,0.8-0.2,1.1-0.2c0.3-0.1,0.5-0.2,0.6-0.4s0.2-0.4,0.3-0.7c0-0.3,0.1-0.6,0.1-1.1V2.3h-5.2
							c-0.7,0-1.2,0.2-1.7,0.6c-0.5,0.4-0.9,0.8-1.1,1.3c-0.1,0.1-0.2,0.2-0.4,0.2c-0.2,0-0.3-0.1-0.4-0.2c0-0.1,0-0.1-0.1-0.2
							c0-0.1,0-0.1,0-0.2c0-0.3,0.1-0.7,0.2-1.1c0.1-0.4,0.3-0.8,0.4-1.2C74.9,1.2,75,1,75,0.9c0-0.2,0.1-0.3,0.1-0.5
							c0-0.1,0.1-0.2,0.3-0.2c0.1,0,0.2,0,0.4,0c0.1,0.1,0.3,0.1,0.6,0.2c0.2,0.1,0.5,0.1,0.8,0.2c0.3,0.1,0.6,0.1,0.8,0.1
							c0.3,0,0.5,0,0.6,0H93c0.1,0,0.3,0,0.5-0.1c0.2,0,0.4-0.1,0.6-0.1c0.1,0,0.2-0.1,0.4-0.1c0.1,0,0.3,0,0.4,0c0.1,0,0.2,0,0.3,0
							c0.1,0,0.2,0.1,0.2,0.2v0.6C95.3,1.9,95.3,2.4,95.3,2.9z"/>
						<path id="Fill-27" class="st4" d="M118.1,2.2c-0.7,0.5-1.4,1.2-2.2,1.9c-0.8,0.7-1.5,1.5-2.2,2.4c-0.7,0.9-1.4,1.7-2,2.6
							c-0.6,0.8-1.1,1.6-1.4,2.3c-0.4,0.7-0.5,1.3-0.5,1.7v6.2c0,0.7,0.3,1.2,0.8,1.5c0.5,0.3,1.2,0.4,2,0.3c0.2,0,0.3,0.1,0.4,0.2
							c0,0.2-0.1,0.3-0.3,0.3c-0.8,0-1.5,0.1-2.3,0.1c-0.8,0-1.6,0.1-2.4,0.1c-0.6,0-1.2,0-1.8,0c-0.6,0-1.2-0.1-1.8-0.2l0.2-0.5
							c0.2,0.1,0.3,0.1,0.4,0.1c0.2,0,0.4-0.1,0.6-0.2c0.2-0.1,0.3-0.3,0.4-0.5s0.2-0.4,0.2-0.6c0-0.2,0.1-0.4,0.1-0.6v-5.8
							c0-0.3-0.2-0.9-0.6-1.6c-0.4-0.7-0.9-1.5-1.5-2.4c-0.6-0.9-1.3-1.8-2.1-2.7c-0.8-0.9-1.5-1.8-2.3-2.6c-0.8-0.8-1.5-1.4-2.1-2
							c-0.6-0.5-1.2-0.9-1.5-1c-0.2,0-0.3-0.1-0.3-0.3c0-0.1,0.1-0.2,0.4-0.2c1.1-0.1,2.2-0.1,3.4-0.1c1.1,0,2.2,0,3.4,0
							c0.2,0,0.3,0,0.4,0.1c0.1,0.1,0,0.2-0.1,0.3c-0.1,0.1-0.2,0.1-0.3,0.2c-0.1,0.1-0.2,0.2-0.3,0.2c-0.1,0.1-0.1,0.2-0.1,0.3
							c0,0.2,0.2,0.6,0.6,1.2c0.4,0.7,0.9,1.4,1.5,2.3c0.6,0.9,1.2,1.7,1.8,2.6c0.6,0.9,1.2,1.7,1.6,2.3c0.2,0.2,0.2,0.3,0.3,0.4
							c0,0,0.1,0.1,0.2,0.2c0.2-0.5,0.5-0.9,0.8-1.4c0.3-0.5,0.6-0.9,0.9-1.3c0.1-0.2,0.3-0.3,0.4-0.5c0.2-0.2,0.3-0.4,0.5-0.6
							c0.3-0.4,0.7-0.8,1-1.3c0.4-0.5,0.7-0.9,1-1.3c0.3-0.4,0.6-0.9,0.7-1.2c0.2-0.4,0.3-0.7,0.3-0.9c0-0.2-0.1-0.4-0.2-0.5
							c-0.1-0.1-0.3-0.3-0.5-0.3c-0.2,0-0.3-0.1-0.3-0.3c0-0.1,0.1-0.2,0.4-0.2c0.5,0,1-0.1,1.5-0.1c0.5,0,1,0,1.5,0
							c0.6,0,1.1,0,1.7,0c0.6,0,1.1,0,1.6,0.1l0.1,0.5C119.4,1.3,118.8,1.7,118.1,2.2"/>
						<path id="Stroke-29" class="st5" d="M118.1,2.2c-0.7,0.5-1.4,1.2-2.2,1.9c-0.8,0.7-1.5,1.5-2.2,2.4c-0.7,0.9-1.4,1.7-2,2.6
							c-0.6,0.8-1.1,1.6-1.4,2.3c-0.4,0.7-0.5,1.3-0.5,1.7v6.2c0,0.7,0.3,1.2,0.8,1.5c0.5,0.3,1.2,0.4,2,0.3c0.2,0,0.3,0.1,0.4,0.2
							c0,0.2-0.1,0.3-0.3,0.3c-0.8,0-1.5,0.1-2.3,0.1c-0.8,0-1.6,0.1-2.4,0.1c-0.6,0-1.2,0-1.8,0c-0.6,0-1.2-0.1-1.8-0.2l0.2-0.5
							c0.2,0.1,0.3,0.1,0.4,0.1c0.2,0,0.4-0.1,0.6-0.2c0.2-0.1,0.3-0.3,0.4-0.5s0.2-0.4,0.2-0.6c0-0.2,0.1-0.4,0.1-0.6v-5.8
							c0-0.3-0.2-0.9-0.6-1.6c-0.4-0.7-0.9-1.5-1.5-2.4c-0.6-0.9-1.3-1.8-2.1-2.7c-0.8-0.9-1.5-1.8-2.3-2.6c-0.8-0.8-1.5-1.4-2.1-2
							c-0.6-0.5-1.2-0.9-1.5-1c-0.2,0-0.3-0.1-0.3-0.3c0-0.1,0.1-0.2,0.4-0.2c1.1-0.1,2.2-0.1,3.4-0.1c1.1,0,2.2,0,3.4,0
							c0.2,0,0.3,0,0.4,0.1c0.1,0.1,0,0.2-0.1,0.3c-0.1,0.1-0.2,0.1-0.3,0.2c-0.1,0.1-0.2,0.2-0.3,0.2c-0.1,0.1-0.1,0.2-0.1,0.3
							c0,0.2,0.2,0.6,0.6,1.2c0.4,0.7,0.9,1.4,1.5,2.3c0.6,0.9,1.2,1.7,1.8,2.6c0.6,0.9,1.2,1.7,1.6,2.3c0.2,0.2,0.2,0.3,0.3,0.4
							c0,0,0.1,0.1,0.2,0.2c0.2-0.5,0.5-0.9,0.8-1.4c0.3-0.5,0.6-0.9,0.9-1.3c0.1-0.2,0.3-0.3,0.4-0.5c0.2-0.2,0.3-0.4,0.5-0.6
							c0.3-0.4,0.7-0.8,1-1.3c0.4-0.5,0.7-0.9,1-1.3c0.3-0.4,0.6-0.9,0.7-1.2c0.2-0.4,0.3-0.7,0.3-0.9c0-0.2-0.1-0.4-0.2-0.5
							c-0.1-0.1-0.3-0.3-0.5-0.3c-0.2,0-0.3-0.1-0.3-0.3c0-0.1,0.1-0.2,0.4-0.2c0.5,0,1-0.1,1.5-0.1c0.5,0,1,0,1.5,0
							c0.6,0,1.1,0,1.7,0c0.6,0,1.1,0,1.6,0.1l0.1,0.5C119.4,1.3,118.8,1.7,118.1,2.2z"/>
					</g>
				</g>
			</g>
		</g>
	</g>
</g>
</svg>
