<svg xmlns="http://www.w3.org/2000/svg" width="46" height="46" viewBox="0 0 46 46">
    <g fill="none" fill-rule="evenodd">
        <path d="M0 0h46v46H0z"/>
        <path fill="#007CC3" d="M41.851 22.517c-.183.079-.596.174-.965.22L29.07 23.99l.633-6.723c.651.086 1.452.255 2.067.59 1.329.722 7.732 4.017 7.797 4.05a.42.42 0 0 0 .384-.747c-.065-.032-6.46-3.323-7.78-4.04-1.42-.773-3.558-.78-3.677-.778-9.876.999-21.698 2.206-21.942 2.284-.22.072-.362.312-.29.533.07.22.283.347.508.276.537-.096 15.925-1.663 21.766-2.255.005 0 .13 0 .332.01l-.65 6.89-8.686.922c-5.05.535-6.507-.256-6.507-.257l-.953-.627-.001-.023-.031.002-6.638-4.371c-.156-.104-.563-.46-.563-.862 0-.203.625-.468 1.146-.555.53-.061 18.97-2.188 21.833-2.427 2.756-.226 4.524.514 4.53.514.297.17 7.249 4.151 8.446 4.564.87.301 1.045.902 1.057.902v-.001.655zm-3.89 8.823l-1.008.897.375-8.278c1.126-.12 2.056-.22 2.697-.286L37.96 31.34zm-1.903 1.693l-2.98.385-.171-8.99 4.08-.433-.387 8.556-.542.482zm-12.14-7.651l.311 9.159c-1.392.172-2.695.332-3.768.458l-.2-9.23 3.657-.387zm4.099-.435l.263 9.085c-1.236.156-2.502.317-3.713.467l-.31-9.153 3.76-.4zm4.55-.483l.172 8.997c-1.206.156-2.633.339-4.121.528l-.263-9.078 4.212-.447zm-14.77 10.814a3.86 3.86 0 0 1-.716-.044v-9.217a34.145 34.145 0 0 0 2.54-.18l.301-.031.201 9.232c-1.166.135-2.016.225-2.325.24zm-3.07-.944l-.364-8.416a15.72 15.72 0 0 0 1.879.11v9.015c-.831-.265-1.44-.654-1.441-.654l-.074-.055zm-2.089-1.536l-.497-7.629.43.284c.075.047.474.266 1.45.421l.355 8.203-1.738-1.279zm-2.713-9.087l.635 7.558-1.186-.873-1.01-7.714 1.561 1.029zm1.86 1.224l.497 7.6-1.36-1-.636-7.587 1.5.987zm-5.391-3.55l1.595 1.05 1.006 7.683-1.423-1.048-1.178-7.686zm36.289.397c-.008-.046-.227-1.135-1.616-1.614-.93-.322-6.309-3.357-8.342-4.52-.079-.035-1.971-.85-4.976-.6-2.903.24-21.68 2.407-21.87 2.43-.006 0-.012 0-.018.002C5.55 17.53 4 17.83 4 18.865c0 .946.908 1.542.942 1.564l.507.333 1.32 8.607c.016.11.076.208.166.274l7.386 5.434c.067.045 1.601 1.045 3.31 1.045.07 0 .138-.001.207-.005 1.673-.08 17.772-2.18 18.458-2.27a.413.413 0 0 0 .224-.101l2.093-1.86a.422.422 0 0 0 .127-.206l2.177-8.093.001-.01.063-.006c1.709-.207 1.709-.712 1.709-.903l-.007-.886z"/>
    </g>
</svg>
