<svg xmlns="http://www.w3.org/2000/svg" width="46" height="46" viewBox="0 0 46 46">
    <g fill="none" fill-rule="evenodd">
        <path d="M0 0h46v46H0z"/>
        <path fill="#007CC3" d="M39.294 22.856a3.846 3.846 0 0 1-.81.186l-10.34 1.136.55-6.043c.557.08 1.23.23 1.75.523 1.17.656 6.803 3.656 6.86 3.687a.413.413 0 0 0 .388-.73c-.056-.03-5.681-3.027-6.843-3.678-1.257-.708-3.126-.72-3.266-.715-12.639 1.324-19.137 2.024-19.311 2.082-.217.072-.355.312-.283.528.072.217.287.34.501.268.495-.091 14.012-1.514 19.136-2.053.004 0 .1.001.245.008l-.566 6.215-7.605.834c-4.405.482-5.686-.225-5.688-.225l-6.706-4.57c-.006-.003-.48-.337-.48-.76 0-.152.49-.391.972-.475.5-.06 16.687-1.991 19.202-2.207 2.396-.204 3.944.46 3.952.46.262.155 6.38 3.781 7.438 4.158.74.264.892.793.903.793v-.001.579zm-3.423 8.866l-.992.914.331-8.402c1.028-.114 1.883-.208 2.475-.272l-1.814 7.76zm-1.65 1.519l-2.758.37-.148-8.95c1.285-.141 2.5-.275 3.56-.39l-.344 8.683-.31.287zm-10.86-7.707l.27 9.105c-1.222.157-2.354.3-3.277.41l-.173-9.166 3.18-.349zm3.607-.396l.239 9.037c-1.084.142-2.19.286-3.243.421l-.27-9.097 3.274-.36zm4.013-.44l.149 8.957c-1.063.142-2.303.306-3.59.475l-.239-9.027 3.68-.405zM18.178 35.284a3.472 3.472 0 0 1-.892-.086v-9.103a28.1 28.1 0 0 0 2.505-.17c.017 0 .038-.003.057-.005l.173 9.17c-.923.11-1.588.181-1.843.194zm-2.908-1.032l-.312-8.28c.393.06.891.103 1.501.119v8.846c-.526-.216-.883-.452-.883-.452l-.306-.233zm-4.272-10.426l.555 7.595-1.024-.78-.882-7.735 1.35.92zm1.64 1.118l.434 7.634-1.164-.886-.558-7.626 1.288.878zm1.983.97l.305 8.075-1.504-1.144-.436-7.664.569.387c.06.04.368.209 1.066.347zm-6.43-4l1.092.743.877 7.705-.93-.708-1.038-7.74zm31.922.287c-.007-.043-.204-1.051-1.446-1.495-.814-.29-5.541-3.052-7.334-4.112-.07-.032-1.752-.78-4.403-.55-2.556.218-19.073 2.19-19.24 2.21l-.019.003c-.17.029-1.671.307-1.671 1.292 0 .874.813 1.426.843 1.446l.431.294 1.16 8.645a.412.412 0 0 0 .159.273l6.5 4.948c.059.04 1.422.96 2.943.96.061 0 .122-.002.183-.005 1.473-.074 15.638-1.985 16.24-2.067a.415.415 0 0 0 .225-.105l1.841-1.693a.426.426 0 0 0 .123-.211l1.91-8.168.022-.003c1.54-.193 1.54-.671 1.54-.852l-.007-.81z"/>
    </g>
</svg>
