<svg xmlns="http://www.w3.org/2000/svg" width="46" height="46" viewBox="0 0 46 46">
    <g fill="none" fill-rule="evenodd">
        <path d="M0 0h46v46H0z"/>
        <path fill="#007CC3" d="M42.825 24.994c-.212.068-.667.147-1.093.185 0 0-17.251 1.357-23.03 1.81-5.53.433-7.115-.22-7.119-.222L3.362 22.76c-.187-.089-.595-.37-.602-.595.082-.148.707-.352 1.288-.423.464-.04 20.458-1.75 23.557-1.939 3.022-.186 4.971.423 4.975.423.32.134 7.809 3.312 9.088 3.638.862.221 1.105.622 1.157.73v.4zm-4.178 7.04l-2.012 1.324.488-7.048 3.708-.291-2.184 6.015zm-15.835-4.6l.376 7.227a646.1 646.1 0 0 1-4.047.36l-.243-7.28a9761 9761 0 0 0 3.914-.306zm4.356-.341l.317 7.17c-1.343.126-2.705.252-3.988.37l-.376-7.223 4.047-.317zm4.845-.381l.206 7.103c-1.335.128-2.86.272-4.426.419l-.316-7.165c1.505-.12 3.046-.24 4.536-.357zm4.306 6.711c-.615.06-2.008.193-3.791.363l-.206-7.099 4.49-.353-.493 7.09zm-19.498 1.775a6.136 6.136 0 0 1-1.23-.09v-7.209a45.067 45.067 0 0 0 2.999-.135l.241 7.284c-.997.085-1.721.14-2.01.15zm-3.792-.983l-.426-6.458c.537.07 1.262.128 2.223.142v7.037c-.78-.21-1.33-.467-1.33-.467l-.467-.254zm-5.207-8.429l.773 6.012-1.389-.757-1.232-6.156 1.848.901zm2.031.99l.603 6.036-1.526-.831-.775-6.033 1.698.828zm2.437.936l.418 6.328-1.924-1.049-.605-6.056 1.076.525c.026.012.315.138 1.035.252zm-7.847-3.573l1.181.575 1.227 6.134-1.148-.626-1.26-6.083zm39.136.293c-.025-.095-.28-.942-1.722-1.31-1.223-.313-8.9-3.57-9.009-3.614-.083-.027-2.09-.666-5.29-.47-3.128.191-23.377 1.922-23.581 1.94l-.013.001c-.59.07-1.964.324-1.964 1.156 0 .8.927 1.265 1.03 1.314l.544.266 1.415 6.836a.38.38 0 0 0 .191.258l7.964 4.34c.07.034 1.692.818 3.489.818.071 0 .143-.002.215-.004 1.798-.065 19.156-1.74 19.894-1.811a.378.378 0 0 0 .173-.061l2.258-1.488a.381.381 0 0 0 .15-.188l2.347-6.463.127-.01c1.655-.147 1.793-.474 1.793-.768v-.647a.409.409 0 0 0-.011-.095zm-2.945-.521c-.069-.027-6.967-2.656-8.393-3.23-1.496-.603-3.747-.598-3.874-.609-7.015.525-23.363 1.755-23.634 1.82a.378.378 0 0 0-.281.443.39.39 0 0 0 .436.307c.485-.07 15.607-1.212 23.508-1.805.008 0 .345.002.831.035a.382.382 0 0 0-.263.312l-.561 4.418a.385.385 0 0 0 .38.43c.19 0 .355-.14.38-.334l.561-4.418a.381.381 0 0 0-.208-.386c.742.065 1.708.202 2.44.496 1.431.578 8.336 3.21 8.405 3.236a.385.385 0 0 0 .495-.221.383.383 0 0 0-.222-.494"/>
    </g>
</svg>
