<svg xmlns="http://www.w3.org/2000/svg" width="46" height="46" viewBox="0 0 46 46">
    <g fill="none" fill-rule="evenodd">
        <path d="M0 0h46v46H0z"/>
        <path fill="#007CC3" d="M42.642 21.873c-.192.082-.625.182-1.011.23l-12.376 1.314.663-7.041c.683.09 1.521.267 2.166.617 1.391.756 8.097 4.207 8.165 4.242a.44.44 0 0 0 .403-.782c-.068-.034-6.765-3.481-8.148-4.232-1.488-.809-3.727-.817-3.852-.814-10.342 1.046-22.724 2.31-22.98 2.391-.23.075-.378.328-.303.559.073.23.296.363.532.289.563-.101 16.678-1.742 22.796-2.362.005 0 .136 0 .347.011l-.68 7.216-9.097.965c-5.29.56-6.815-.268-6.816-.27l-.998-.656v-.024l-.033.002-6.952-4.578c-.163-.108-.589-.48-.589-.902 0-.213.654-.49 1.2-.582.556-.064 19.868-2.291 22.866-2.54 2.886-.238 4.737.537 4.745.537.31.178 7.59 4.348 8.844 4.78.912.315 1.095.944 1.107.944v.686zm-4.074 9.24l-1.056.939.392-8.67 2.824-.3-2.16 8.031zm-1.993 1.773l-3.122.403-.18-9.415 4.274-.454-.405 8.961-.567.505zM23.86 24.873l.325 9.592c-1.458.18-2.823.348-3.946.48l-.21-9.666 3.83-.406zm4.292-.456l.275 9.515c-1.294.164-2.62.332-3.888.49l-.325-9.586 3.938-.419zm4.766-.505l.18 9.423c-1.264.163-2.759.354-4.317.552l-.275-9.507 4.412-.468zM17.45 35.238a4.044 4.044 0 0 1-.75-.047V25.54a35.76 35.76 0 0 0 2.66-.189l.315-.033.21 9.668c-1.22.142-2.11.237-2.435.253zm-3.215-.99l-.381-8.813c.52.065 1.16.111 1.967.115v9.44c-.87-.276-1.508-.684-1.51-.684l-.076-.057zm-2.188-1.608l-.521-7.99.45.297c.08.05.497.28 1.52.441l.37 8.591-1.819-1.34zm-2.842-9.517l.665 7.915-1.241-.914-1.059-8.079 1.635 1.078zm1.949 1.282l.52 7.96-1.424-1.048-.667-7.946 1.57 1.034zm-5.647-3.719l1.671 1.101 1.054 8.046-1.49-1.098-1.235-8.049zm38.006.417c-.009-.048-.238-1.19-1.693-1.69-.975-.338-6.607-3.517-8.736-4.735-.083-.036-2.065-.89-5.211-.628-3.041.252-22.707 2.521-22.905 2.545a.07.07 0 0 0-.02.002C4.624 16.65 3 16.965 3 18.047c0 .991.95 1.615.987 1.639l.53.348L5.9 29.05c.018.115.08.218.174.286l7.736 5.692c.07.046 1.677 1.094 3.467 1.094.072 0 .144-.001.217-.005 1.752-.085 18.612-2.283 19.33-2.377a.433.433 0 0 0 .235-.107l2.192-1.948a.442.442 0 0 0 .133-.215l2.28-8.476.001-.01.066-.007c1.79-.217 1.79-.746 1.79-.945l-.007-.928z"/>
    </g>
</svg>
