<svg xmlns="http://www.w3.org/2000/svg" width="46" height="46" viewBox="0 0 46 46">
    <g fill="none" fill-rule="evenodd">
        <path d="M0 0h46v46H0z"/>
        <path fill="#007CC3" d="M36.665 25.714a3.33 3.33 0 0 1-.62.137l-8.52.936.445-4.885c.446.067.967.188 1.372.415.972.547 5.508 2.963 5.7 3.066a.403.403 0 0 0 .378-.712c-.047-.025-4.718-2.513-5.684-3.056-1.057-.595-2.624-.604-2.749-.6-15.834 1.657-16.004 1.714-16.06 1.733-.21.07-.347.304-.276.516.07.211.276.33.488.26.435-.078 11.649-1.258 15.891-1.705l.138.004-.46 5.054-6.271.687c-3.62.397-4.684-.177-4.686-.177l-5.574-3.797c-.078-.052-.37-.305-.372-.582.029-.095.388-.271.757-.336.446-.053 13.865-1.655 15.95-1.834 1.977-.17 3.244.375 3.252.375v-.001c.542.322 5.32 3.15 6.19 3.46.572.205.699.605.71.605v-.001.438zM33.832 32.4l-1.194 1.097.294-6.493 2.37-.26-1.47 5.656zm-10.78-4.31l.229 6.764c-1.024.13-1.955.247-2.678.332l-.15-6.813.071-.007 2.527-.277zm2.996-.33l.194 6.71c-.89.117-1.79.234-2.636.342l-.23-6.759c.83-.09 1.737-.19 2.672-.293zm6.256 5.905l-2.48.332-.125-6.638 2.905-.319-.3 6.625zm-2.93-6.27l.125 6.645c-.89.12-1.9.253-2.933.388l-.193-6.703 3.001-.33zm-10.198 7.94a2.648 2.648 0 0 1-.68-.057v-6.773c.476-.01 1.019-.042 1.633-.1l.149 6.819c-.543.063-.934.103-1.102.111zM16.39 34.18l-.253-5.842c.365.078.87.141 1.554.163v6.521c-.383-.167-.638-.339-.64-.339l-.66-.503zm-3.154-2.403l-.814-.62-.728-5.557 1.126.766-.039.003.455 5.408zm.915-4.504l.358 5.473-.924-.703-.46-5.469 1.026.699zm1.657.985l.245 5.665-1.201-.915-.36-5.503.813.553c.037.025.193.111.503.2zm-4.837-3.152l.38.26-.015.002.722 5.512-.262-.2-.825-5.574zm26.499.778l-.006-.683c-.006-.038-.175-.908-1.24-1.288-.674-.24-4.595-2.532-6.089-3.415-.058-.027-1.475-.65-3.69-.463-2.125.182-15.85 1.82-15.988 1.838l-.019.002c-.24.04-1.438.283-1.438 1.132 0 .744.655 1.204.726 1.251l.339.23.958 6.473c.016.105.071.198.154.262l5.404 4.114c.05.034 1.196.807 2.479.807.052 0 .104 0 .155-.003 1.227-.06 13-1.65 13.5-1.717a.4.4 0 0 0 .218-.103l1.531-1.408a.409.409 0 0 0 .119-.195l1.578-6.07c1.171-.152 1.309-.508 1.309-.764z"/>
    </g>
</svg>
