<svg xmlns="http://www.w3.org/2000/svg" width="46" height="46" viewBox="0 0 46 46">
    <g fill="none" fill-rule="evenodd">
        <path d="M0 0h46v46H0z"/>
        <path fill="#007CC3" d="M45.365 19.737c-.206.1-.74.224-1.221.281L29.888 21.49l.773-7.977c.803.098 1.815.296 2.586.704 1.593.842 9.265 4.683 9.343 4.722a.426.426 0 1 0 .382-.765c-.076-.038-7.74-3.875-9.324-4.713-1.685-.89-4.195-.893-4.357-.896-9.687.953-25.983 2.566-26.28 2.659-.226.07-.37.314-.3.54.071.227.296.356.518.286.584-.106 17.357-1.77 26.103-2.631.007 0 .19 0 .477.017l-.789 8.144-10.47 1.08c-6.106.626-7.853-.311-7.855-.312l-9.137-5.851c-.007-.005-.703-.459-.703-1.054 0-.274.757-.598 1.437-.708.578-.065 22.733-2.55 26.172-2.828 3.325-.267 5.472.608 5.479.608.353.197 8.68 4.835 10.108 5.315 1.092.367 1.302 1.107 1.314 1.107v-.001.801zm-4.671 11.139l-2.291 1.981.584-11.447c1.813-.186 3.295-.34 4.217-.435l-2.51 9.9zm-17.58-7.826l.448 11.66c-1.787.215-3.419.406-4.681.547l-.111-11.76 4.344-.447zm4.842-.5l.397 11.576c-1.496.184-3.015.37-4.447.542l-.447-11.654c1.4-.144 2.927-.301 4.497-.464zm10.097 10.365c-.713.09-2.21.279-4.11.516l-.246-11.474 4.943-.51-.587 11.468zm-4.7-10.923l.245 11.483c-1.476.185-3.166.395-4.9.609l-.397-11.57c1.677-.172 3.392-.35 5.052-.522zM16.466 35.495a4.947 4.947 0 0 1-1.359-.123V23.726c.935-.012 2.031-.07 3.318-.196l.11 11.766c-1.025.111-1.764.185-2.069.199zm-4.229-1.47l-.513-10.517c.607.107 1.43.195 2.528.217v11.392c-.839-.304-1.43-.675-1.43-.675l-.585-.417zm-4.877-3.49l-1.53-1.096.053-.007-1.496-10.109 2.043 1.31h-.01l.94 9.902zm1.673-8.236l1.21.774c.033.02.422.243 1.415.424l-.28.013.501 10.258-2.111-1.51-.735-9.959zm.37 9.697L7.731 30.8l-.943-9.94 1.881 1.205.732 9.93zm-6.72-13.763l1.358.869-.035.005 1.493 10.096-1.362-.975-1.453-9.995zm43.529.62c-.01-.052-.267-1.289-1.889-1.834-1.082-.363-6.99-3.594-10.004-5.272-.095-.04-2.344-.978-5.924-.693-3.48.28-25.981 2.807-26.208 2.832l-.019.003C1.806 13.946 0 14.286 0 15.443c0 1.074 1.059 1.75 1.1 1.776l.63.403 1.586 10.91c.017.115.08.218.174.285l8.851 6.333c.08.05 1.898 1.206 3.922 1.206.08 0 .162-.002.244-.006 2-.094 21.293-2.54 22.113-2.644a.433.433 0 0 0 .226-.102l2.51-2.17a.414.414 0 0 0 .134-.218l2.608-10.29c.004-.015 0-.03.002-.044l.137-.014c1.983-.233 1.983-.783 1.983-.99l-.008-1.025z"/>
    </g>
</svg>
