<?xml version="1.0" encoding="UTF-8"?>
<svg width="46px" height="46px" viewBox="0 0 46 46" version="1.1" xmlns="http://www.w3.org/2000/svg" xmlns:xlink="http://www.w3.org/1999/xlink">
    <!-- Generator: Sketch 47 (45396) - http://www.bohemiancoding.com/sketch -->
    <title>Simulateur/Icons/Pots/25</title>
    <desc>Created with Sketch.</desc>
    <defs></defs>
    <g id="Symbols" stroke="none" stroke-width="1" fill="none" fill-rule="evenodd">
        <g id="Simulateur/Icons/Pots/25">
            <rect id="Rectangle-2" x="0" y="0" width="46" height="46"></rect>
            <path d="M31.5368201,18.3183605 C29.2457253,19.0131254 26.1971611,19.3957302 22.9526436,19.3957302 C19.7081261,19.3957302 16.6595334,19.0131254 14.3684672,18.3183605 C12.1583768,17.6481526 10.8907942,16.7412546 10.8907942,15.8302162 C10.8907942,14.9191493 12.1583768,14.0122798 14.3684672,13.3420719 C16.6595334,12.647307 19.7081261,12.2646737 22.9526436,12.2646737 C26.1971611,12.2646737 29.2457253,12.647307 31.5368201,13.3420719 C33.7469105,14.0122798 35.0144358,14.9191493 35.0144358,15.8302162 C35.0144358,16.7412546 33.7469105,17.6481526 31.5368201,18.3183605 M32.9370954,18.7641568 C32.8532052,19.4668314 31.32278,32.050869 31.259948,32.5673668 C31.1510564,32.8486022 30.7151758,33.518753 29.7999837,34.13425 C29.1148039,34.5950947 28.2688441,34.9625083 27.2855912,35.2263254 C26.0549249,35.5565322 24.6051612,35.7242626 22.9765306,35.7249194 C21.3478715,35.7242626 19.8981363,35.5565322 18.6674701,35.2263254 C17.6842171,34.9625083 16.8382287,34.5950947 16.153049,34.13425 C15.237514,33.5185246 14.8016619,32.8480882 14.6931132,32.5673953 C14.6304813,32.0523824 13.099856,19.4668885 13.0159944,18.7641568 C12.9788781,18.4533672 12.8927592,18.2080251 12.8028115,18.0254462 C13.2382063,18.2201608 13.7354902,18.4029967 14.2915487,18.5716409 C16.6068734,19.2737444 19.6827819,19.6604324 22.9526436,19.6604324 C26.2225054,19.6604324 29.2984138,19.2737444 31.6137099,18.5716409 C32.185855,18.3981424 32.6955681,18.2095385 33.1398778,18.0085132 C33.0573305,18.1921772 32.9754118,18.4430019 32.9370954,18.7641568 M35.2792787,15.8302162 C35.2792787,14.7792026 33.9774943,13.8056008 31.6137099,13.0887916 C29.2984138,12.386688 26.2225054,12 22.9526436,12 C19.6827819,12 16.6068734,12.386688 14.2915487,13.0887916 C11.9277643,13.8056008 10.62598,14.7792026 10.62598,15.8302162 C10.62598,16.5432276 11.2252694,17.2205456 12.3486441,17.8062887 L12.3484727,17.80646 C12.3518157,17.8096581 12.6816906,18.1332117 12.7606378,18.7945962 C12.8458423,19.5086641 14.4237559,32.482702 14.439671,32.6136825 L14.4414425,32.6280456 L14.4463285,32.6416662 C14.458872,32.6765315 14.7673744,33.5043329 15.9867257,34.3321057 C16.6945924,34.8126531 17.5669822,35.1951151 18.5796082,35.4688407 C19.8342757,35.8079851 21.3103838,35.9805984 22.9669872,35.9819119 L22.9860454,35.9819119 C24.6426775,35.9805984 26.1187855,35.8079851 27.3734245,35.4688407 C28.386079,35.1951151 29.2584688,34.8126531 29.9663069,34.3321057 C31.1856869,33.5043329 31.4941892,32.6765315 31.5067041,32.6416662 L31.5116187,32.6280456 L31.5133616,32.6136825 C31.5292768,32.482702 33.1071903,19.5086926 33.192452,18.7945962 C33.2659417,18.1787565 33.5165552,17.8543177 33.5559573,17.8066313 C34.6797321,17.2208312 35.2792787,16.5433704 35.2792787,15.8302162 M33.4241814,16.4105197 C33.1613442,16.1832934 32.3661717,15.5566778 30.9358547,14.92283 C29.9080476,14.4673689 28.7651433,14.1045156 27.5389235,13.8443839 C26.0073474,13.5194497 24.3405199,13.3546919 22.5847497,13.3546919 C20.828549,13.3546919 19.1947376,13.5257311 17.7286196,13.8630841 C16.5543356,14.1332719 15.4842104,14.5101863 14.548016,14.983368 C13.260989,15.6338702 12.591967,16.2777165 12.3657633,16.521943 C12.128937,16.2879454 12.0051982,16.0473495 12.0051982,15.8068112 C12.0051982,15.0777046 13.141327,14.3478777 15.1222673,13.8044478 C17.182877,13.2391194 19.9248826,12.9277854 22.8431083,12.9277854 C25.761334,12.9277854 28.5033396,13.2391194 30.5639493,13.8044478 C32.5448896,14.3478777 33.6810471,15.0777046 33.6810471,15.8068112 C33.6810471,16.009344 33.5932528,16.2119056 33.4241814,16.4105197 M33.1637271,16.6622954 C32.9155605,16.4428201 32.1730703,15.8493405 30.8032733,15.2495794 C29.8138224,14.8163339 28.7014652,14.4712011 27.4971509,14.2237763 C25.9931074,13.9147762 24.3403476,13.7581151 22.584721,13.7581151 C20.8288361,13.7581151 19.2064799,13.9176864 17.7627841,14.2323917 C16.606214,14.4845132 15.5608366,14.8362731 14.6556486,15.2778459 C13.4240314,15.878673 12.7967532,16.4738526 12.5794783,16.7077349 C12.5414092,16.6782295 12.5050627,16.64858 12.4706685,16.6188153 C12.7649142,16.2984049 13.4874224,15.6792809 14.6226899,15.1069507 C15.5484053,14.6402522 16.6069892,14.2683514 17.7690141,14.0015924 C19.2224425,13.6679276 20.8426741,13.4987613 22.5847497,13.4987613 C26.5321893,13.4987613 29.2687975,14.3428353 30.8694492,15.0509077 C32.2670659,15.6691672 33.0647648,16.2936218 33.3258507,16.5166412 C33.2767571,16.5655096 33.2226107,16.614061 33.1637271,16.6622954 M32.915905,16.8445721 C32.6865719,16.6439698 31.9940654,16.1005111 30.6741945,15.5518371 C27.9650041,14.4256176 24.7797495,14.1891996 22.584721,14.1891996 C20.8291806,14.1891996 19.2209783,14.3348538 17.8048151,14.6220995 C16.6701218,14.8522648 15.6551479,15.1733955 14.7881151,15.5765882 C13.6067112,16.1259826 13.0297611,16.6710549 12.8325255,16.8849691 C12.7852694,16.8548586 12.7399655,16.8245464 12.6965851,16.7940613 C12.9163578,16.5624265 13.5368892,15.9838149 14.718408,15.4074219 C17.2686328,14.1633248 20.4037603,13.9021845 22.584721,13.9021845 C26.5314716,13.9021845 29.1960759,14.7044495 30.7364084,15.3774843 C32.0451399,15.9493246 32.7854481,16.5267837 33.0473093,16.7526558 C33.0054792,16.7834578 32.9616969,16.8141158 32.915905,16.8445721 M30.5639493,17.8092033 C28.5033396,18.3745029 25.761334,18.685837 22.8431083,18.685837 C19.9248826,18.685837 17.182877,18.3745029 15.1222673,17.8092033 C14.212859,17.5597327 13.4816804,17.2709311 12.9565514,16.961009 C13.21847,16.6824363 13.8430207,16.1730357 14.8620139,15.7010354 C17.3026251,14.5705514 20.4087558,14.3332691 22.584721,14.3332691 C24.7628108,14.3332691 27.922887,14.5669785 30.6083345,15.6804047 C31.8478469,16.1943291 32.5359896,16.7130079 32.7883191,16.9257696 C32.2595726,17.2490614 31.5077231,17.5502818 30.5639493,17.8092033 M33.0185134,14.5268119 C32.4549995,14.1613078 31.6521042,13.8340973 30.6320774,13.5542857 C28.5499067,12.9830504 25.7836989,12.6684604 22.8431083,12.6684604 C19.9025177,12.6684604 17.1363386,12.9830504 15.0541392,13.5542857 C14.0341411,13.8340973 13.2312458,14.1613078 12.6677319,14.5268119 C12.0566747,14.9231469 11.746811,15.3537993 11.746811,15.8068112 C11.746811,16.2598231 12.0566747,16.6904754 12.6677319,17.0868104 C13.2312458,17.4523145 14.0341411,17.779525 15.0541392,18.0593367 C17.1363386,18.6305719 19.9025177,18.9451619 22.8431083,18.9451619 C25.7836989,18.9451619 28.5499067,18.6305719 30.6320774,18.0593367 C31.6521042,17.779525 32.4549995,17.4523145 33.0185134,17.0868104 C33.6295993,16.6904754 33.9394343,16.2598231 33.9394343,15.8068112 C33.9394343,15.3537993 33.6295993,14.9231469 33.0185134,14.5268119" id="Pot" fill="#0073BA"></path>
        </g>
    </g>
</svg>