<?xml version="1.0" encoding="UTF-8"?>
<svg width="46px" height="46px" viewBox="0 0 46 46" version="1.1" xmlns="http://www.w3.org/2000/svg" xmlns:xlink="http://www.w3.org/1999/xlink">
    <!-- Generator: Sketch 47 (45396) - http://www.bohemiancoding.com/sketch -->
    <title>Simulateur/Icons/Pots/50</title>
    <desc>Created with Sketch.</desc>
    <defs></defs>
    <g id="Symbols" stroke="none" stroke-width="1" fill="none" fill-rule="evenodd">
        <g id="Simulateur/Icons/Pots/50">
            <rect id="Rectangle-2" x="0" y="0" width="46" height="46"></rect>
            <path d="M33.6844864,13.899142 C30.8201859,14.7677292 27.0089059,15.2460572 22.9526472,15.2460572 C18.8963885,15.2460572 15.0850728,14.7677292 12.220808,13.899142 C9.45777826,13.0612558 7.87306108,11.9274623 7.87306108,10.7884925 C7.87306108,9.649487 9.45777826,8.51572922 12.220808,7.67784299 C15.0850728,6.8092558 18.8963885,6.33089206 22.9526472,6.33089206 C27.0089059,6.33089206 30.8201859,6.8092558 33.6844864,7.67784299 C36.4475161,8.51572922 38.0321619,9.649487 38.0321619,10.7884925 C38.0321619,11.9274623 36.4475161,13.0612558 33.6844864,13.899142 M35.4350946,14.4564715 C35.330216,15.3349472 33.4168959,31.067367 33.3383441,31.7130866 C33.2022091,32.064684 32.6572761,32.9024988 31.5131134,33.6719862 C30.6565095,34.2481289 29.5989002,34.7074652 28.3696487,35.0372863 C26.8310838,35.4501071 25.0186057,35.6598017 22.9825104,35.6606228 C20.9463795,35.6598017 19.1339371,35.4501071 17.5953722,35.0372863 C16.3661207,34.7074652 15.3084756,34.2481289 14.4518717,33.6719862 C13.3072804,32.9022132 12.7623831,32.0640414 12.6266768,31.7131223 C12.548375,31.069259 10.6348049,15.3350186 10.529962,14.4564715 C10.4835596,14.0679259 10.3758947,13.7612019 10.2634431,13.5329439 C10.8077688,13.7763739 11.4294675,14.0049532 12.1246455,14.2157903 C15.0192379,15.093552 18.8647034,15.576985 22.9526472,15.576985 C27.0405909,15.576985 30.8860565,15.093552 33.7806132,14.2157903 C34.4959024,13.9988844 35.13314,13.7630939 35.6886108,13.5117745 C35.5854111,13.7413891 35.4829973,14.0549672 35.4350946,14.4564715 M38.3632653,10.7884925 C38.3632653,9.47452725 36.7357894,8.2573414 33.7806132,7.36119475 C30.8860565,6.48343297 27.0405909,6 22.9526472,6 C18.8647034,6 15.0192379,6.48343297 12.1246455,7.36119475 C9.16946925,8.2573414 7.54199332,9.47452725 7.54199332,10.7884925 C7.54199332,11.6798912 8.29121809,12.5266664 9.69564837,13.2589557 L9.69543404,13.2591699 C9.69961346,13.2631681 10.1120193,13.6676711 10.2107181,14.4945264 C10.3172399,15.3872459 12.2899293,31.6072397 12.3098262,31.7709901 L12.312041,31.7889466 L12.3181494,31.8059749 C12.3338311,31.8495631 12.7195172,32.8844709 14.2439363,33.9193431 C15.1289032,34.520118 16.2195549,34.9982675 17.4855283,35.3404761 C19.0540993,35.7644706 20.8995127,35.9802698 22.9705794,35.9819119 L22.9944057,35.9819119 C25.0655082,35.9802698 26.9109216,35.7644706 28.4794568,35.3404761 C29.7454659,34.9982675 30.8361177,34.520118 31.7210488,33.9193431 C33.2455037,32.8844709 33.6311897,31.8495631 33.6468358,31.8059749 L33.6529799,31.7889466 L33.6551589,31.7709901 C33.6750559,31.6072397 35.6477453,15.3872816 35.7543385,14.4945264 C35.8462145,13.7246106 36.1595286,13.319001 36.2087887,13.259384 C37.6137191,12.5270234 38.3632653,11.6800697 38.3632653,10.7884925 M36.044044,11.5139813 C35.7154478,11.2299055 34.7213323,10.4465179 32.9331664,9.6540886 C31.6482137,9.08467636 30.2193678,8.63104136 28.6863619,8.30582761 C26.7716029,7.89959861 24.6877542,7.6936203 22.4927105,7.6936203 C20.2971284,7.6936203 18.2545561,7.90745158 16.4216321,8.32920641 C14.9535557,8.66699211 13.6156975,9.13820622 12.4452778,9.72977248 C10.8362515,10.543023 9.99984779,11.3479522 9.71705053,11.6532814 C9.42097302,11.3607403 9.2662762,11.05995 9.2662762,10.7592318 C9.2662762,9.8477111 10.6866514,8.93528985 13.1632003,8.25590003 C15.7393509,7.54913289 19.167375,7.15990664 22.8157074,7.15990664 C26.4640398,7.15990664 29.8920638,7.54913289 32.4682145,8.25590003 C34.9447634,8.93528985 36.3651745,9.8477111 36.3651745,10.7592318 C36.3651745,11.012436 36.2554151,11.2656762 36.044044,11.5139813 M35.7184269,11.8287484 C35.4081719,11.5543628 34.4799192,10.8124014 32.7674146,10.062587 C31.5304144,9.52094837 30.1397582,9.08946739 28.6341382,8.78013969 C26.7538002,8.39383129 24.6875389,8.19797538 22.4926746,8.19797538 C20.2974873,8.19797538 18.2692361,8.39746959 16.4643442,8.79091051 C15.0184135,9.10610992 13.7114946,9.54587614 12.579839,10.0979254 C11.0400852,10.8490726 10.2558692,11.5931594 9.98423454,11.8855563 C9.93664104,11.848669 9.8912011,11.8116016 9.84820184,11.77439 C10.2160644,11.3738166 11.1193359,10.5997949 12.5386343,9.88427423 C13.6959532,9.3008131 15.0193826,8.83586695 16.4721329,8.50236796 C18.2891924,8.08522405 20.3147875,7.87373425 22.4927105,7.87373425 C27.4277543,7.87373425 30.8490305,8.92898586 32.8501469,9.8142099 C34.5974313,10.5871509 35.5947054,11.3678368 35.921112,11.6466532 C35.8597358,11.7077479 35.7920425,11.7684463 35.7184269,11.8287484 M35.4086026,12.0566286 C35.121893,11.8058379 34.2561292,11.1264121 32.6060418,10.4404661 C29.2190429,9.03247933 25.2368741,8.73691234 22.4926746,8.73691234 C20.297918,8.73691234 18.2873619,8.91900755 16.5168909,9.27811874 C15.0983103,9.56586879 13.8294016,9.96734278 12.7454471,10.4714097 C11.2684694,11.1582562 10.547173,11.8396993 10.3005913,12.1071325 C10.2415122,12.0694887 10.1848738,12.0315927 10.1306402,11.9934806 C10.4053975,11.7038934 11.1811787,10.9805198 12.6583,10.2599199 C15.8465619,8.70456388 19.7660624,8.37808933 22.4926746,8.37808933 C27.426857,8.37808933 30.7581148,9.38107187 32.6838209,10.2224922 C34.319982,10.9374005 35.2455069,11.6593332 35.5728827,11.9417159 C35.5205873,11.9802242 35.4658512,12.0185525 35.4086026,12.0566286 M32.4682145,13.2625995 C29.8920638,13.9693307 26.4640398,14.3585569 22.8157074,14.3585569 C19.167375,14.3585569 15.7393509,13.9693307 13.1632003,13.2625995 C12.0262684,12.9507142 11.1121574,12.5896578 10.4556471,12.2021967 C10.7830946,11.8539283 11.5639008,11.2170814 12.8378345,10.6269921 C15.8890587,9.21367397 19.7723077,8.91702629 22.4926746,8.91702629 C25.2156975,8.91702629 29.1663886,9.20920714 32.5237043,10.6011998 C34.0733286,11.2437023 34.9336367,11.8921485 35.2490962,12.1581408 C34.5880634,12.5623165 33.6481097,12.9388988 32.4682145,13.2625995 M35.5368825,9.15899137 C34.8323838,8.70204228 33.8286133,8.29296748 32.5533875,7.94315017 C29.9502815,7.22899835 26.4920001,6.83570153 22.8157074,6.83570153 C19.1394147,6.83570153 15.6811692,7.22899835 13.0780273,7.94315017 C11.8028374,8.29296748 10.7990668,8.70204228 10.0945682,9.15899137 C9.33063152,9.65448485 8.94324341,10.1928815 8.94324341,10.7592318 C8.94324341,11.3255821 9.33063152,11.8639787 10.0945682,12.3594722 C10.7990668,12.8164213 11.8028374,13.2254961 13.0780273,13.5753134 C15.6811692,14.2894652 19.1394147,14.682762 22.8157074,14.682762 C26.4920001,14.682762 29.9502815,14.2894652 32.5533875,13.5753134 C33.8286133,13.2254961 34.8323838,12.8164213 35.5368825,12.3594722 C36.300855,11.8639787 36.6882073,11.3255821 36.6882073,10.7592318 C36.6882073,10.1928815 36.300855,9.65448485 35.5368825,9.15899137" id="Pot" fill="#0073BA"></path>
        </g>
    </g>
</svg>