<?xml version="1.0" encoding="UTF-8"?>
<svg width="46px" height="46px" viewBox="0 0 46 46" version="1.1" xmlns="http://www.w3.org/2000/svg" xmlns:xlink="http://www.w3.org/1999/xlink">
    <!-- Generator: Sketch 47 (45396) - http://www.bohemiancoding.com/sketch -->
    <title>Simulateur/Icons/Pots/12-5</title>
    <desc>Created with Sketch.</desc>
    <defs></defs>
    <g id="Symbols" stroke="none" stroke-width="1" fill="none" fill-rule="evenodd">
        <g id="Simulateur/Icons/Pots/12-5">
            <rect id="Rectangle-2" x="0" y="0" width="46" height="46"></rect>
            <path d="M28.673265,24.2106518 C27.1464445,24.6736538 25.1148348,24.9286274 22.9526388,24.9286274 C20.7904429,24.9286274 18.7588142,24.6736538 17.2320127,24.2106518 C15.7591748,23.7640151 14.9144384,23.1596444 14.9144384,22.5525145 C14.9144384,21.9453656 15.7591748,21.341014 17.2320127,20.8943772 C18.7588142,20.4313753 20.7904429,20.1763826 22.9526388,20.1763826 C25.1148348,20.1763826 27.1464445,20.4313753 28.673265,20.8943772 C30.1461029,21.341014 30.9908012,21.9453656 30.9908012,22.5525145 C30.9908012,23.1596444 30.1461029,23.7640151 28.673265,24.2106518 M29.6064298,24.5077373 C29.5505241,24.9760104 28.5306254,33.3622049 28.4887532,33.7064069 C28.4161862,33.8938265 28.1257087,34.3404252 27.5158107,34.7506019 C27.0591965,35.0577158 26.495436,35.3025658 25.8401812,35.4783775 C25.0200464,35.6984324 24.0539017,35.8102105 22.9685575,35.8106482 C21.8831942,35.8102105 20.9170686,35.6984324 20.0969338,35.4783775 C19.4416791,35.3025658 18.8778995,35.0577158 18.4212853,34.7506019 C17.8111588,34.340273 17.5207003,33.893484 17.4483618,33.706426 C17.4066229,33.3632135 16.3865909,24.9760484 16.3307042,24.5077373 C16.3059694,24.3006224 16.2485784,24.1371226 16.1886359,24.0154492 C16.4787897,24.14521 16.8101872,24.2670547 17.1807531,24.3794417 C18.7237208,24.8473342 20.7735531,25.105029 22.9526388,25.105029 C25.1317246,25.105029 27.1815569,24.8473342 28.7245055,24.3794417 C29.1057918,24.2638197 29.4454724,24.1381311 29.7415671,24.0041649 C29.6865563,24.1265613 29.6319644,24.2937147 29.6064298,24.5077373 M31.1672965,22.5525145 C31.1672965,21.852103 30.2997675,21.2032799 28.7245055,20.7255873 C27.1815569,20.2576948 25.1317246,20 22.9526388,20 C20.7735531,20 18.7237208,20.2576948 17.1807531,20.7255873 C15.6054911,21.2032799 14.7379622,21.852103 14.7379622,22.5525145 C14.7379622,23.0276762 15.1373378,23.4790513 15.8859719,23.8693993 L15.8858576,23.8695135 C15.8880855,23.8716448 16.1079191,24.0872658 16.1605307,24.5280225 C16.2173123,25.0038883 17.268858,33.6499851 17.279464,33.7372725 L17.2806446,33.7468442 L17.2839007,33.7559212 C17.2922599,33.779156 17.4978506,34.3308154 18.3104449,34.8824559 C18.7821781,35.2027 19.363552,35.4575785 20.0383813,35.6399934 C20.8745109,35.8660044 21.8582118,35.9810366 22.9621977,35.9819119 L22.9748983,35.9819119 C24.0789032,35.9810366 25.0626041,35.8660044 25.8987146,35.6399934 C26.5735631,35.4575785 27.154937,35.2027 27.6266511,34.8824559 C28.4392645,34.3308154 28.6448551,33.779156 28.6531953,33.7559212 L28.6564704,33.7468442 L28.6576319,33.7372725 C28.668238,33.6499851 29.7197837,25.0039073 29.7766034,24.5280225 C29.825578,24.1176176 29.9925907,23.9014066 30.0188488,23.8696277 C30.7677495,23.4792415 31.1672965,23.0277713 31.1672965,22.5525145 M29.9310314,22.9392376 C29.7558726,22.7878105 29.2259576,22.3702244 28.2727725,21.9478185 C27.5878262,21.6442923 26.8261773,21.4024813 26.0090057,21.2291255 C24.98834,21.0125844 23.8775408,20.9027873 22.7074688,20.9027873 C21.5371098,20.9027873 20.448313,21.0167705 19.4712695,21.2415877 C18.6887088,21.4216449 17.975561,21.6728265 17.3516668,21.9881619 C16.4939724,22.4216666 16.0481259,22.8507355 15.8973803,23.0134918 C15.7395557,22.8575522 15.6570943,22.6972154 15.6570943,22.536917 C15.6570943,22.0510293 16.4142278,21.5646615 17.7343566,21.2025116 C19.1075784,20.8257681 20.9348927,20.6182903 22.8796428,20.6182903 C24.824393,20.6182903 26.6517073,20.8257681 28.0249291,21.2025116 C29.3450579,21.5646615 30.1022106,22.0510293 30.1022106,22.536917 C30.1022106,22.671888 30.0437031,22.8068781 29.9310314,22.9392376 M29.7574606,23.1070248 C29.5920786,22.9607631 29.0972718,22.5652592 28.1844182,22.1655693 C27.525033,21.8768478 26.7837413,21.6468461 25.9811678,21.4819584 C24.9788503,21.2760361 23.877426,21.1716347 22.7074496,21.1716347 C21.5373011,21.1716347 20.4561382,21.2779755 19.4940373,21.4876998 C18.7232814,21.6557175 18.0266259,21.8901356 17.4233948,22.1844065 C16.6026263,22.5848069 16.1845986,22.9814436 16.0398032,23.1373064 C16.0144334,23.1176435 15.9902116,23.0978846 15.9672908,23.078049 C16.1633806,22.8645226 16.644871,22.4519289 17.4014306,22.0705193 C18.0183415,21.7595043 18.7237979,21.511664 19.4981891,21.3338917 C20.4667759,21.1115324 21.546523,20.9987974 22.7074688,20.9987974 C25.3381027,20.9987974 27.1618202,21.5613012 28.2285188,22.0331714 C29.1599119,22.445189 29.6915106,22.861335 29.8655023,23.0099586 C29.8327856,23.0425252 29.7967015,23.0748806 29.7574606,23.1070248 M29.5923082,23.2284967 C29.4394772,23.0948123 28.9779802,22.7326431 28.0983982,22.3669984 C26.2929523,21.6164685 24.1702501,21.458916 22.7074496,21.458916 C21.5375307,21.458916 20.4658001,21.5559822 19.5220474,21.7474071 C18.7658705,21.9007928 18.0894764,22.1147992 17.5116725,22.3834929 C16.7243669,22.7496177 16.3398786,23.1128622 16.2084378,23.2554179 C16.1769456,23.2353518 16.1467543,23.2151513 16.117845,23.1948356 C16.2643049,23.0404706 16.6778365,22.654875 17.4652186,22.2707579 C19.1647274,21.4416726 21.2540241,21.2676448 22.7074496,21.2676448 C25.3376244,21.2676448 27.1133573,21.8022864 28.1398585,22.250807 C29.0120171,22.6318902 29.5053698,23.0167177 29.679878,23.1672423 C29.6520018,23.1877693 29.6228247,23.2082002 29.5923082,23.2284967 M28.0249291,23.8713417 C26.6517073,24.248066 24.824393,24.4555437 22.8796428,24.4555437 C20.9348927,24.4555437 19.1075784,24.248066 17.7343566,23.8713417 C17.1283131,23.7050907 16.6410445,23.5126289 16.2910905,23.3060921 C16.465637,23.120447 16.8818472,22.7809746 17.5609198,22.4664264 C19.1873803,21.7130547 21.2573532,21.5549261 22.7074496,21.5549261 C24.1589619,21.5549261 26.2648848,21.7106736 28.054508,22.4526778 C28.880538,22.7951649 29.3391268,23.1408203 29.507283,23.282608 C29.1549183,23.4980546 28.6538743,23.6987924 28.0249291,23.8713417 M29.660688,21.683906 C29.2851538,21.4403285 28.7500921,21.2222704 28.0703307,21.0357997 C26.6827404,20.6551198 24.8392973,20.4454722 22.8796428,20.4454722 C20.9199884,20.4454722 19.0765644,20.6551198 17.688955,21.0357997 C17.0092127,21.2222704 16.474151,21.4403285 16.0986168,21.683906 C15.691399,21.9480297 15.484901,22.235023 15.484901,22.536917 C15.484901,22.8388111 15.691399,23.1258044 16.0986168,23.389928 C16.474151,23.6335056 17.0092127,23.8515636 17.688955,24.0380344 C19.0765644,24.4187143 20.9199884,24.6283619 22.8796428,24.6283619 C24.8392973,24.6283619 26.6827404,24.4187143 28.0703307,24.0380344 C28.7500921,23.8515636 29.2851538,23.6335056 29.660688,23.389928 C30.067925,23.1258044 30.2744038,22.8388111 30.2744038,22.536917 C30.2744038,22.235023 30.067925,21.9480297 29.660688,21.683906" id="Pot" fill="#0073BA"></path>
        </g>
    </g>
</svg>