<?xml version="1.0" encoding="utf-8"?>
<!-- Generator: Adobe Illustrator 19.2.1, SVG Export Plug-In . SVG Version: 6.00 Build 0)  -->
<svg version="1.1" id="Layer_1" xmlns="http://www.w3.org/2000/svg" xmlns:xlink="http://www.w3.org/1999/xlink" x="0px" y="0px"
	 viewBox="0 0 400 262.7" style="enable-background:new 0 0 400 262.7;" xml:space="preserve">
<style type="text/css">
	.st0{fill-rule:evenodd;clip-rule:evenodd;fill:#231F20;}
	.st1{fill-rule:evenodd;clip-rule:evenodd;fill:#FFFFFF;}
	.st2{fill-rule:evenodd;clip-rule:evenodd;fill:#00833E;}
	.st3{fill-rule:evenodd;clip-rule:evenodd;fill:#E12184;}
	.st4{fill-rule:evenodd;clip-rule:evenodd;fill:#0C984C;}
	.st5{fill-rule:evenodd;clip-rule:evenodd;}
	.st6{fill-rule:evenodd;clip-rule:evenodd;fill:#1991D0;}
	.st7{fill-rule:evenodd;clip-rule:evenodd;fill:#E2231A;}
	.st8{fill:none;stroke:#231F20;stroke-miterlimit:10;}
</style>
<g>
	<path class="st0" d="M352.3,252.2c-1.4-1.4-1.6-2.4-1.3-4.5c0.7-0.6,1.4-1.2,2.3-1.7c3.1,0,4.9,3.7,2.3,5.4
		c-0.1-1.3-0.1-2.6-0.1-3.8c-1,0-1,0-1.7,0.8c0.1,0.7,0.7,1.2,0.7,1.9c-0.7,1-0.7,1-0.5,1.7C353.3,251.9,352.7,252,352.3,252.2"/>
	<path class="st0" d="M350.1,254.7c-0.1-1.1-0.2-2-0.2-3c1.4-1,1.4-1,2-0.7c-0.5,0.1-1,0.4-1.3,0.6
		C350.4,252.5,350.3,253.6,350.1,254.7"/>
	<path class="st0" d="M366.5,252.6c-0.4-0.4-0.7-0.7-1.1-1.1c-1.1,0.1-2.1,0.2-3.2,0.5c-2.4-2.4-0.7-7,0-9.9
		c-0.6,0.7-1.1,1.4-1.5,2.3c-1.6,0-2.4-1.4-2.9-2.6c0.2-0.6,0.6-1.2,1-1.7c0.4-0.1,0.8-0.1,1.3-0.1c-0.1,0.5-0.2,1.1-0.4,1.7
		c0.4,0,0.7,0,1.1,0.1c1.6-4.1,1.6-4.1,2.1-4.5c0.6,1.4,0.5,3,1,3.3c-1.3,5.9-1.3,5.9-1.1,6.3c1.6-0.5,1.6-0.5,3-0.4
		c0.5,0.6,1,1.2,1.5,1.9c0.7-0.4,1.4-0.7,2.3-1c0,1.6-2.6,1.7-2.1,3.3c0.1-0.2,0.4-0.4,0.6-0.5C368.2,250.8,368.2,250.8,366.5,252.6
		"/>
	<path class="st1" d="M362.4,251.4v-3c2.2-1.4,3-0.6,3,1.9c-0.4,0.1-0.7,0.2-1.1,0.5c-0.6-1-0.6-1-1.3-1.3
		C362.8,251.3,362.8,251.3,362.4,251.4"/>
	<path class="st0" d="M338.2,249.5c0-0.6,0.1-1.1,0.2-1.6c0.4,0.1,0.8,0.2,1.3,0.4c0-0.8,0.1-1.7,0.2-2.4c-0.7-1.3-2.9-4.1-1.4-5.5
		C340.6,244.3,343.8,248,338.2,249.5"/>
	<path class="st2" d="M280.5,248.3c0.1-1,0.4-1.8,0.6-2.6c-0.2-0.2-0.4-0.4-0.5-0.5c-1.3,0.7-2.6,1.4-3.9,2.1c-0.4-0.8,0-2-0.2-2.5
		c-1,0.5-1.9,1-2.7,1.6c-2.5-1-4.7,1.7-5.9-0.4c-1.6,1.2-2.6,1.1-4.7,0.7c-0.1-0.4-0.2-0.6-0.4-0.8c-4.9-0.2-4.9-0.2-5.7-0.7
		c-1.1,0.8-1.8,1-3.1,1.2c-0.4-0.5-0.7-0.8-1-1.2c2.1-2.4,2.9-5.4,6-6.1v1.4h0.6c0.1-0.5,0.2-0.8,0.4-1.2c0.6-0.4,1.2-0.7,1.9-1
		c0.2,0.1,0.5,0.2,0.8,0.5c0.7-0.4,1.4-0.7,2.3-1c-3,5.1-3,5.1-2.9,5.8c2.5-1.8,4.1-3.2,7.4-2.6c-0.2,0.4-0.4,0.8-0.5,1.3
		c0.1,0.2,0.2,0.5,0.5,0.7c1-0.7,1.9-1.4,3-2c0.1,1,0.1,1-0.7,2.9c1.2-0.8,2.5-1.7,3.8-2.4c0.7,0.2,1.4,0.5,2.3,0.8
		c3.2-2.4,3.2-2.4,4.2-2.5c-0.2,1.3-0.2,1.3-2.1,4.2c1.1-0.6,2.1-1.2,3.3-1.8c1.5,0.6-0.2,2.9-0.7,3.8c0.2,0,0.5,0.1,0.7,0.2
		c0.7-0.6,1.5-1.1,2.4-1.6c1.9,0.7,1.3,0.8,3.3,0.8c0.1,0.5,0.4,1,0.6,1.4c-4.3-0.1-4.3-0.1-5.1-0.6
		C282.2,248,282.2,248,280.5,248.3"/>
	<path class="st2" d="M129.8,247.9c1.2-1.2,1.9-2.2,3.6-2.5c0.1,0.1,0.2,0.4,0.4,0.6c1-0.6,1-1.2,1.2-2c1.9,0,3.6-1.2,5-2.2
		c0.2-1.9,0.1-4.7,1.8-5.7c0.6,1.4,0.6,1.4,1.2,1.7c0.4-0.4,0.7-0.6,1.1-0.8c1.8,0.4,3.1,0,4.9-0.5c0,0.5,0.1,1.1,0.2,1.7
		c0.5-0.1,1-0.2,1.6-0.2c-0.1,0.5-0.1,1-0.1,1.4c1-0.4,1.9-0.7,2.9-1.1c0,0.4,0,0.7,0.1,1.2c1-0.5,1.9-1,2.9-1.3
		c0.1,0.8,0.4,1.8,0.6,2.7c-1.8,0-6.3,1.1-7.6,0.5c-1.1,1.7-1.1,1.7-1.1,2.4h0.7c0.2,0.5,0.5,1,0.8,1.6c-0.6,0.2-1.2,0.5-1.8,0.7
		c-0.1-0.7-0.2-1.3-0.2-1.9c-0.8,1.1-0.8,1.1-2.6,2C144.2,245.1,132.7,247.4,129.8,247.9"/>
	<path class="st2" d="M216,247.9c0-3.5,4.2-2.3,6.1-1.6c-0.1,0.1-0.1,0.4-0.1,0.6C220,247.1,218,247.5,216,247.9"/>
	<path class="st0" d="M345,247.9c-0.6-1.3-1.2-2.6-1.8-3.8c-0.6-0.2-1.2-0.4-1.7-0.5c0.1-2,0.2-3.9,0.5-5.9c0.8,1.1,0.8,1.1,3,7.5
		c0.6,0,1.2,0.1,1.9,0.2C346.6,246.5,346,247.3,345,247.9"/>
	<path class="st2" d="M114.9,247.1v-0.8c0.6-0.2,1.2-0.4,1.9-0.5c0-0.4,0.1-0.7,0.2-1h1.7c0.2,0.4,0.6,0.7,1,1.1
		C118,246.3,116.5,246.7,114.9,247.1"/>
	<path class="st2" d="M229.5,246.7c-1.8-0.6-1.8-0.6-6.2-0.8c2.7-1.3,4.1-2.5,6.9-2.9c0-2.1,1.3-3.6,2.4-5.3
		c0.4-0.1,0.8-0.1,1.3-0.1c0,0.2,0,0.6,0.1,1c0.7-0.2,1.4-0.5,2.3-0.6c-0.5,1.6-1.6,1.9-2.3,3.2c-0.4,1.7-0.7,3.3-1,5.1h-2.3
		c-0.1-0.4-0.2-0.7-0.4-1.1C230.1,245.7,229.8,246.2,229.5,246.7"/>
	<path class="st0" d="M241.5,246.7c-1.4-0.7-1.4-0.7-5.9-1.4c-0.1-1.2-0.2-2.4-0.4-3.6c3.9-2.3,2.5-7.3,3.1-11.2
		c1.7-2.7,3-3.7,5.6-5.6c2.5-6.6,0.2-15-3.1-20.9c0.1-6,0.2-10.5-1.3-16.2c-2-0.5-2-0.5-6-0.2c-0.6,4.8-0.4,8.6,0.5,13.4
		c-2.1,7-4.5,14.7,1.6,19.9c1.2,3.6,0.6,5.9-0.1,9.7h-1.1c-0.1,0.4-0.1,0.7-0.1,1.2h-1.6c-0.6,2-1.9,7.3-3.6,8.4v1.9
		c-2.1,0-3.1,1-4.7,2.2c-4.2,0.6-8.6-0.8-12.9-1.3c-1.7-5.1,1.9-8.1,3.7-12.8c2-3,4.4-5.5,6-8.4c0.2-3,0.5-5.9,0.8-8.7
		c-1.7-4.9-1.7-4.9-3.9-9.8c-0.4-3.6-0.6-7.2-0.8-10.6c-3.7-10.3-10-18-10.7-29.1c-0.7-3.7-2.4-3.9-5.7-5.6
		c-1.2,2.4-0.2,6.9-0.2,9.8c-0.5,4.4-0.8,8.8-1.2,13.4c0.8,4.1,3.7,5.4,5.3,9c-0.5,7.8-1.7,14.3-2,18.5c0.8,5.1,0.7,7.2-2,11.6
		c-0.2,3.1-0.5,6.2-0.6,9.3c-1.1,0.1-2,0.2-3,0.4c-0.1,0.6-0.1,1.2-0.1,1.9c0.2,0,0.5,0.1,0.7,0.2c-0.7,0.1-0.7,0.1-2.1-0.8
		c-3.9,1.4-19.6,2.2-13.1-6.6c0.5-3.9,0.8-8,3.3-11.3c7.6-6.4,6.1-8,6.3-18.4c-5.5-3-5.5-3-6.9-4.3c-0.5,0.1-1,0.2-1.3,0.4
		c-1.6,4.2,1.1,6.7,0.1,10.7c-3.5,0.1-3.5,0.1-4.8-0.4c-2-3.1-2-3.1-2.7-3.5c-0.4,0.1-0.6,0.2-0.8,0.5c0,6.3,0.7,6.7-5,8.2
		c-2.5,3.1-3.2,7.2-5,10.6c-0.2-0.1-0.5-0.1-0.7-0.1c0.8-3.2,0.8-3.2,1.2-8.1c-1.6-1.6-1.6-2.3-2-4.4c-4.3,1.3-12.7,8-12.7,12.7
		c0.2,0.1,0.6,0.2,1,0.4c0.1,0.4,0.2,0.7,0.4,1.1c0.6-0.2,1.3-0.5,2-0.7c0.1,0.5,0.2,1,0.4,1.4c1.8-0.8,3.7-1.3,5.6-0.7
		c0.6-0.6,1.2-1.2,1.8-1.8c2,2,0.8,6.2,0.2,9.1c-1.8,0-2.1,1.3-3.1,2.5c-1.9,0.2-2.4,0.7-3.7,2c-5.4,0.4-5.6,0-11.9,0.2
		c0.7-1.6,1-1.8,2.6-2.3c-0.5-0.5-1-1-1.3-1.4c2.7-4.8,3.7-9.7,5.7-14.7c6.7-5,8.6-6.4,9.1-14.7c-0.2-0.1-0.5-0.2-0.7-0.2
		c-2.1,2.7-2.6,3.6-6,3.9c-1.2-2.4-0.7-3.8-0.1-6.6c-0.5-1-1-1.8-1.4-2.6c-4.5-0.8-9.2-1.1-13.3-3.1c-1.1,2.3,1.8,10,2.4,12.5
		c0,5.4-1.3,9.5-0.4,15c2.3,6.1,6.1,10.9-0.4,15.6c-0.4,3.1-0.7,6.2-1,9.3c-6,1.8-11.9,3.3-18.3,3.1c-0.8-1.7-0.8-1.7-1.3-1.9
		c-0.2,0.1-0.4,0.2-0.5,0.5c0-1.8,0.1-2.6,0.7-4.4c3.3-3.3,2.7-7.9,3.8-12.2c6.4-6,6.1-6.8,4.9-16.2c-1.8-3.5-1.8-3.5-2.9-4.8
		c-1.1-6.2-1.4-14.7-6.1-19.3c-3.7,1.2,1.1,11.2,1.8,13.4c-0.7,5.4-3.8,14,1.6,18c0.1,2.1,1.2,6.4-1.7,7c-2,4.7-4.1,10-7.4,13.9
		c-1,0-14.8,2.5-16.8,0.5c0-0.4,0-0.7,0.1-1.1c0.2-0.1,0.5-0.2,0.8-0.2c0.8-3.7,2.4-5.4,4.7-8.5c-0.4-0.1-0.7-0.2-1-0.2
		c0-1.3,0.1-1.6,1-2.4c2.4-8.5,9.4-9.9,6-19.6c-1.3-1.8-2.5-3.6-3.7-5.3c-0.1-5.1-0.5-11.6-3.1-16.1c-5.3-5.3-6-9.4-6.3-16.7
		c-3.1-5.4-5.7-6.3-11.5-7.6c-1.1,1.8-2.2,3.6-3.2,5.5c-1.2,9.7,5.1,12.9-6.6,17.1c-8.6,1.6-11.6,3.9-16.1-4.8
		c-1.3-7-3.7-23.2-14.8-22.2c-5.1-4.5-7.2-6.6-7.5-14.2c-1.2-0.2-1.2-0.2-6.1,0.2c-2-0.5-3.9-1-5.9-1.3c-4.4-5.1-8.7-10.3-8.7-17.4
		c6.3-0.5,12.4,2.3,18.7,3.2v-0.6c-11.8-4.4-15-14.2-6.6-23.6c0.7-0.4,1.6-0.7,2.4-1.1c-0.5,3.5-1.1,19.2,7.3,13.6
		c1.2-2.7,3.1-4.4,4.5-7H43c1.7-2.3,2-3,4.5-3.5c0-0.4,0.1-0.7,0.2-1c2.6-0.8,2.6-0.8,4.4-1.9c2-0.2,4.2-0.4,6.3-0.5
		c4.7,2,12.7,4.1,6.6-3.1C60,95.3,60,95.3,57,93.8c-0.1-0.5-0.2-0.8-0.2-1.2c1.8-0.2,3.6-0.5,5.4-0.6c9.8,0.8,16.2,4.8,12.8,15.3
		c-3.7,6.2-3.7,6.2-3.5,6.6c3.6-1.8,8.5-10,12.5-9.1c1.7,10,2.7,15.2-6,21.6c6,2.5,15.6,2.5,22.2,1.8c3.9-2.5,8-5,12.1-7.5
		c6.2-0.1,11.9-0.5,18-2c5.5,1.6,10.7,2.9,16.4,3.7v-1c-9.1-0.7-13.5-8.1-10.9-16.8c2.6-2.9,4.4-4.2,7.8-5.9
		c1.8,1.8-5.5,14,3.5,12.5c2.6-8,11.9-8.6,19-9.7c3.6,1.2,8,1.9,11.7,3.3c3.3-5.9-3.8-10.3-7.4-12.8c5.4-2.6,9.8-0.4,14.8,3.1
		c3.6,6.7,2.5,11.8-1.2,18.3c0.1,0.1,0.2,0.2,0.4,0.5c3.3-2.9,8.7-12.8,13.4-11.9c0.8,3.5,1.7,6.9,2.6,10.4c-0.4,3.1-0.7,6.3-1,9.6
		c4.9,2.3,12.4,2,17.9,2.3c2.7-1.8,5.6-3.5,8.5-5.1c8.1-1,13.4-1.3,21.6,0c6.8-0.4,14.4-1.9,20.9-4.2c4.1-5,4.1-5,6.8-9.2
		c7-2.7,9.3-1.9,15.3,2.5c1.4,0.4,2.9,0.8,4.4,1.3c8-4.2,11.5-9.7,19.9-5.1c1.4,2.9,1.4,2.9,3.6,5.5c3.1,0.2,6.2,0.5,9.4,0.7
		c6.1,3.5,9.6,6.6,13.4,12.4c2.6,6.1,4.1,11.7,4.1,18.4c-0.8,9-3.5,17.8,2.7,25.1c2.7,0.7,2.7,0.7,9.4,1.1
		c8.4,4.2,10.5,9.1,12.9,17.8c-0.6,0.2-1.1,0.6-1.5,1c0.1,2.2,0.2,4.4,0.4,6.7c-2.6,1.9-3.7,6.8-6.9,7.5c0-2.1,0.1-4.3,0.2-6.3
		c-0.2,0.8-0.5,1.8-0.6,2.7h-1.2c-1.1-6.1-1.1-6.1-1.4-6.2c-0.5,1.2-0.5,1.2-1.4,1.8c-1.4-6.6-6.6-8.8-11.7-12.8
		c-1.1-3.1-2.1-6.2-3.2-9.2c-8-9.6-5.6-23-5.1-34.7c-2.3-10.6-7-18.7-19-17.6c0,4.8,4.7,11.7,6.6,16c1.2,4.5,2.4,9.1,3.6,13.6
		c0.1,10,0.1,10-0.7,29.1c2.1,1.9,4.4,3.8,6.7,5.7c2.5,7.8-1.2,16.6,2.5,24.1c1,5.5,0.5,9.4-2.5,14c-0.1,2.7-0.2,5.6-0.4,8.5
		c-4.1,2.4-11.2,1.5-15.9,1.8c-0.7,0.2-6.1,2-6.8,1.7c0.1-1.9,0.4-3.8,0.6-5.6c3.6,0,3.8-7.4,3.8-9.8c2.1-2.4,4.9-4.4,6.8-6.8
		c1.7-6.7,3.1-15-2.6-19.8c-1.9-0.2-3.7-0.4-5.5-0.5c-2.2,3.2,0.2,6.3-0.7,9.7c-3.9,4.7-5.6,0.8-8-3.2c-0.5,0.1-0.8,0.4-1.2,0.6
		c-0.4,2.5-0.7,5-1.1,7.6c-1.4,1.2-3.5,0-4.9,0.4c-2,5-1.6,11.1-4.3,15.5c-0.4,2.6-0.6,5.2-0.8,8c-1.9,0.6-3.2,2-4.8,3.2
		c-4.7,0.8-11.3,1.9-15.9,0.8c0-3.7-0.2-5.9,2.9-7.9c2.1-5.4,2.9-10.3,8.4-13.5c1.9-5.1,3.8-9,3.8-14.7c-2.9-1.4-4.5,5.4-8.7,4.5
		c-1.8-2.6,0.4-6.4,1.3-9.1c-1.9-0.4-11.6,0.4-19,0.5c-1.8-0.7-3.6-1.4-5.4-2c0.4,3.2,0.4,3.2,1.9,8c0.1,7.3-0.7,14.8-0.4,22.1
		c1,1.9,1.9,3.9,2.9,6c-0.1,4.5-1.9,6.3-4.1,10.3C254.9,246.1,249.1,245.8,241.5,246.7"/>
	<path class="st2" d="M101.8,245.5c0.2-0.5,2.7-1.1,2.9-1.6c-0.2-0.2-0.4-0.4-0.5-0.5c2.5-0.6,3.1-0.8,5.7-0.6
		c-0.1-0.6-0.1-1.2-0.1-1.7c0.6,0,1.2,0.1,1.8,0.2c0.1-0.4,0.2-0.6,0.4-0.8c4.1-1.4,5.3-3,6.6-7h2.4c0,2.1-0.7,3-2.2,4.4
		c-0.6,1.8-1.2,3.6-1.7,5.4C108.9,244,108.9,244,101.8,245.5"/>
	<path class="st0" d="M348.9,245.5c-0.7-1.7-0.7-1.7-1.7-8.2c-0.4-0.1-0.7-0.1-1.1-0.1c0.6-2.4,3.2-3.8,5.4-2.4c-0.2,2-0.7,3.5-2,5
		C349.5,241.8,349.8,243.7,348.9,245.5"/>
	<path class="st1" d="M144.4,245.1c0.4-1,0.7-1.9,1.1-2.7c0.2-0.1,0.6-0.2,1-0.2c0.1,0.2,0.2,0.5,0.5,0.8
		C146.6,244.2,145.5,244.6,144.4,245.1"/>
	<path class="st1" d="M243.9,245.1c-0.5-0.1-0.8-0.2-1.2-0.4c0.7-2.6,1.6-5.1,2.4-7.6c4.4-0.6,4.4-0.6,6-0.4
		c0.4,1.2,0.8,2.4,1.3,3.7C250.7,243.3,247,244.3,243.9,245.1"/>
	<path class="st1" d="M281.5,245.1"/>
	<path class="st3" d="M260.9,244.8c0.2-0.6,0.2-0.6,0.7-0.6C261.4,244.3,261.2,244.5,260.9,244.8"/>
	<path class="st3" d="M277.1,244.8"/>
	<path class="st4" d="M279.3,244.8"/>
	<path class="st3" d="M264.2,244.3c0.2-0.4,0.5-0.7,0.8-1.1C265.1,243.7,265.1,243.7,264.2,244.3"/>
	<path class="st0" d="M351,244.3c-0.1-1.3-0.2-2.5-0.2-3.7c1.8-1,1.8-1,2.4-0.7v3.7C352.4,244.2,352.4,244.2,351,244.3"/>
	<path class="st2" d="M198.9,243.9c-3.2-0.2-6.5-0.5-9.6-0.6c0.6-0.2,1.3-0.5,2-0.6c0.2-0.6,0.5-1.1,0.7-1.6c2.5,1,2.5,1,3.1,0.8
		c-0.1-0.5-0.2-1-0.2-1.3c1.4,0.5,3,1,4.5,1.4c-0.5-0.8-0.8-1.7-1.2-2.4c0.8-0.2,1.7-0.5,2.6-0.6v-1.7c0.6,0,1.3,0,2,0.1v0.7h0.7
		c-0.1-0.7-0.1-1.4-0.1-2h1c0.2,0.6,0.5,1.3,0.8,2c0.2-0.8,0.5-1.7,0.7-2.4c1.2,0.5,1.6,1.6,2.9,1.6c0.6,1.7,1.1,2.9,1.2,4.9
		c-2.9-0.1-5.7-0.2-8.5-0.2c-0.2,0.5-0.5,1-0.7,1.4C200.2,243.7,199.5,243.8,198.9,243.9"/>
	<path class="st3" d="M275.8,243.9c0.2-0.5,0.2-0.5,1-0.5C276.3,243.6,276,243.7,275.8,243.9"/>
	<path class="st0" d="M354.6,243.9v-1.2h0.7c-0.1-1-0.2-1.9-0.4-2.7c0.7-0.1,1.4-0.1,2.2-0.1c0.1,1.5,0.1,1.5-0.6,3.7
		C355.7,243.7,355.2,243.8,354.6,243.9"/>
	<rect x="121.2" y="242.4" class="st1" width="0.5" height="1.2"/>
	<rect x="143.2" y="243.1" class="st1" width="0.4" height="0.5"/>
	<path class="st1" d="M236.7,243.1c0.4-0.7,3.2-7.3,5.4-6.6c0.1,0.4,0.2,0.7,0.4,1.2C240.6,239.6,239.1,241.9,236.7,243.1"/>
	<path class="st1" d="M199.7,242.7c0.2-0.1,0.5-0.2,0.8-0.2C200.2,242.5,199.9,242.6,199.7,242.7"/>
	<path class="st3" d="M257.4,242.7c0.1-0.4,0.2-0.7,0.5-1.1c0,0.2,0,0.5,0.1,0.8C257.7,242.5,257.5,242.6,257.4,242.7"/>
	<path class="st0" d="M345.7,242.7c0.1-0.4,0.2-0.7,0.4-1.1c0.1,0.4,0.2,0.7,0.5,1.1H345.7"/>
	<path class="st2" d="M91,241.9c2.1-2.1,2.7-2.1,5.6-2.4c-0.1,0.4-0.2,0.8-0.4,1.3C94.5,241.2,92.7,241.5,91,241.9"/>
	<path class="st1" d="M201.2,241.9"/>
	<path class="st1" d="M216.4,241.9c0.2-2.7,1.3-5,2.4-7.5c2.6,0.2,4.1,0.4,6.8-0.4c0,1.6,0,1.6,0.4,1.6v-1.2h0.8v1.5
		c0.4-0.2,0.7-0.5,1.2-0.7c0.1,0.8,0.2,1.8,0.4,2.7c-1.6,0.5-3.1,1-4.5,1.4c-0.1,0.2-0.2,0.6-0.2,1
		C221.2,240.8,218.8,241.3,216.4,241.9"/>
	<path class="st1" d="M126,241.5c2.9-8.4,1.6-7.4,9.3-7.4c0.1,0.5,0.2,1.1,0.4,1.7c0.2,0.1,0.6,0.2,1,0.4c0.2,0.8,0.5,1.8,0.7,2.7
		C133.5,240,130,240.9,126,241.5"/>
	<path class="st1" d="M146.3,240.7V240c0.1,0,0.4,0.1,0.6,0.2C146.7,240.3,146.4,240.5,146.3,240.7"/>
	<path class="st2" d="M77.5,240c0.4-1.9,3.5-2,4.8-1.4C80.6,239,79.1,239.5,77.5,240"/>
	<path class="st1" d="M153.5,240c0-0.1,0.1-0.2,0.2-0.4C153.6,239.7,153.5,239.9,153.5,240"/>
	<path class="st1" d="M122.1,239.5c0.2-2.5,2-4.8,3.8-6.6C129.5,234.7,123.8,238.9,122.1,239.5"/>
	<path class="st1" d="M212,239.5c1.3-2.7,1.3-2.7,4.2-6.6c0.2,0.1,0.5,0.2,0.7,0.4C216.9,235.9,214.5,238.9,212,239.5"/>
	<rect x="144.4" y="238.3" class="st1" width="0.4" height="0.8"/>
	<path class="st2" d="M314.3,239.1c-1.7-2.5-2-3.2-1.2-6c3.9-0.5,7.6-1.1,11.6-1.2c-1.7,3.3-2.7,6.2-7,6c-0.2,0.2-0.5,0.6-0.6,1
		c-1,0-1,0-1.7-0.8C315,238.4,314.7,238.8,314.3,239.1"/>
	<path class="st2" d="M308.7,238.8c-0.8-0.2-1.7-0.4-2.4-0.5c-0.1-0.4-0.2-0.6-0.4-0.8c0.4-0.1,0.7-0.2,1.2-0.4v-0.7
		c0.5,0,1.1,0.1,1.7,0.2c0.2,0.7,0.5,1.4,0.7,2.2H308.7"/>
	<path class="st2" d="M84.2,238.3c-1.3-0.7-1.3-0.7-1.6-1.6c0.5,0,1.1,0.1,1.7,0.2c0.1-0.4,0.2-0.7,0.4-1.1c0.8,0.1,1.7,0.4,2.5,0.6
		c0.4-0.6,0.4-0.6,0.2-1.3c2.4,0,4.2-1.3,6.7-1c0-0.4,0.1-0.6,0.2-0.8c1.3,0,2-0.2,3.2,0.5c-0.4,1.1-0.6,2.2-0.8,3.3
		C92.6,237.6,88.4,237.9,84.2,238.3"/>
	<path class="st2" d="M311.1,238.3c-1.2-0.6-1.2-1.7-1.3-3c0.8,0.4,0.8,0.4,1.8,0.2C311.3,236.4,311.2,237.4,311.1,238.3"/>
	<path class="st2" d="M324.7,238.3c-0.5-0.6-0.5-0.6-1-0.5c0-2.3-0.2-2.1,1.2-4.1h1.1v3.9C325.5,237.8,325.1,238.1,324.7,238.3"/>
	<path class="st1" d="M348.6,238.3c-0.2-1-0.4-1.9-0.5-2.7h2c0.2,1.4,0.2,1.4-0.2,2.5C349.4,238.1,348.9,238.2,348.6,238.3"/>
	<path class="st2" d="M327.8,237.1c-0.1-0.5-0.2-1-0.2-1.3h0.8v1.1C328.2,236.9,327.9,237,327.8,237.1"/>
	<path class="st1" d="M105.7,235.9c-0.2-0.2-0.5-0.5-0.6-0.7c0.7-2.6,1.3-4.5,2.9-6.7c3.2,0.1,6.2,0.4,9.3-0.1
		C117.3,234.5,110,234.2,105.7,235.9"/>
	<rect x="228.3" y="235.6" class="st1" width="0.8" height="0.4"/>
	<path class="st1" d="M249,235.2c-0.5-0.4-1-0.7-1.3-1.1c-2.6,0.5-4.3-1-6.7,0.5c-0.7-1.8-1.2-2.5-0.6-4.4
		c11.2-6.2,5.5-20.2,2.4-29.6c0-8.4-1.6-14.7-4.2-22.7c-0.4-0.1-0.7-0.2-1-0.2c-0.4,0.4-0.6,0.8-0.8,1.3c2,6.5,2,6.5,1.8,7
		c-6,0-8.2-4.4-12.4-7.2c-1.2,0.6,1.1,4.4,1.3,5.6c-3.2-1.6-7-4.3-10.3-5.4c-0.1,0.2-0.2,0.5-0.2,0.8c1.4,1.3,2.9,2.6,4.4,4.1
		c1.9,1.1,5.3,1.7,6.2,3.6c0.6-0.6,1.2-1.2,1.9-1.7c0,0.2,0,0.6,0.1,1c-0.6,0.6-1.2,1.2-1.7,1.8c0.4,0,0.7,0,1.2,0.1
		c-1.1,3-1.1,3-1.2,4.5h0.6c0.6-1.4,1.2-2.9,1.8-4.3h0.7c-0.1,1.9-0.2,3.8-0.2,5.7c1.1,10.7-1.8,18.1,4.1,27.9c0.4,2,0.4,2-0.1,4.3
		c-2.1,1.2-4.1,1.9-4.9,4.2c-3.2,0.5-6,2.7-8.7,1.1c-0.7,0.1-1.4,0.2-2.2,0.4c-0.2-1.3-0.8-2.6-2.5-2.2c0.6-2.5,3.7-4.8,5.6-6.4
		c2.4-7.8,0.8-12.8-1.7-20.4c-0.7-5.3-0.7-5.3-0.7-9c-2.9-8.8-8.8-17.2-10.2-26.3h0.5c0,1.2,0.2,1.8,1,2.5c1.2-2.4,1.2-5.5,1.4-8.1
		c1.3-0.2,2.7-0.4,4.2-0.5c-0.7-0.6-0.7-0.6-3.6-1.4c-2.6-1.8-5.3-3.5-7.8-5.1c1-1.8,1-1.8,1.3-3.5c-0.1-0.2-0.2-0.4-0.4-0.5
		c-1.3,0.6-1.2,2-1.4,3.5c-0.5-0.2-1-0.4-1.4-0.5c0.4-1.2,0.8-2.4,1.3-3.5c-0.5-1-0.5-1-1.3-1.2c-0.8,0.5-1.7,1.1-2.4,1.7
		c0.4-0.8,1.1-6.3-1.3-5.1c-0.6-0.7-1.2-1.4-1.8-2.2c-0.1-3.5-0.2-14.1-4.4-15.4c-0.1-0.7-0.2-1.3-0.4-1.9c3.9-2.7,4.8-3.3,8.7-0.5
		c-0.1,1.3-0.1,2.7-0.1,4.2c1.3,1.2,1.3,1.2,3.7,2.3c-1.2,4.4-1.2,4.4-1.2,5.7c3.9,3.9,0.5,7.5,8.1,7.9c1.1-1.9,2.3-3.8,3.5-5.7
		c2.3,0,1.8,2.4,1.1,3.6c1.3,2.6,1.6,4.3,1.7,7.4c2.7,1.8,4.1,2.6,5.4,5.6c0.6,0,1.3,0,2,0.1c0.8-1,1.7-1.9,2.6-2.7
		c4.9-1.2,6-2.3,7-6.8c-1.8-5.1-2.4-5.5,0.8-10c-1.7-3.5-3-2.7-6-4.4c0.5-2.7,2.6-3.6,4.8-5.3c0-4.1-3.9-3.3-6.8-3.3
		c-6.9,1.6-10.9,1.9-9.3,1.6c0.2-0.4,0.2-0.4,2-0.8c-0.1-0.6-0.2-1.1-0.2-1.6c9.4-5.3,21.6-7.6,30.7,0.2c0.6,1,1.2,1.9,1.9,3
		c-2.7,1.8-1,3.6,0.5,6.2c-0.5,0.8-1,1.7-1.3,2.5c-1.5,0.1-3.1,0.2-4.7,0.5c-5.9,6.1-7.6,7-2.2,14.2c2,0,3.2-0.6,5.5-0.4
		c3.7-3.2,4.9-4.2,9.6-5.3c2.6,1.9,2.6,1.9,5,3c0.4,3.7,2.2,6.4,2.4,10.3c0.5,1.3,1,2.6,1.4,4.1c1.9,0.2,1.9,0.2,4.2-0.4
		c0.1-0.4,0.2-0.7,0.4-1c2,0,3.3,3.2,6.1,3.2c2.6-1,3.3-1.4,6.2-0.8c2.4-1.9,2.4-5,2.9-8c4.8-3.9,2.7-3.6,2.7-8.2
		c7.4-3.2,8.8-6.7,2-11.2c-1.9-5.3-2.4-4.7-7.8-5.4c0.2-3.2,3.2-3.7,5.6-5.1c0-4.2-1.9-5.5-5-8.2c-2.1,0.6-4.3,1.3-6.3,2
		c-4.9-3.9-7.3,1.1-12.4,0.2v-2c2.3-1.3,4.5-2.6,6.8-3.8c-0.8-0.1-1.6-0.1-2.3-0.1c1.2-8.4,11.3-9.7,15.5-2.7
		c-1.3,0.1-1.3,0.1-2.1,0.7c0.8,0.8,2.9,0.6,4.2,0.5v1.7c6.3-0.8,11.8-7.3,18.3-9.6c6.3,3.6,5.5,4.3,6.6,11.1
		c-1.8,1.1-3.5,2.1-5.1,3.2c-0.5-2.5-0.5-5.1,0.5-7.5c-0.4-0.1-0.7-0.1-1-0.1c-1.9,4.3-2.3,6-2.5,10.7c-0.4-0.1-0.7-0.2-1-0.2
		c-0.6,0.4-1.2,0.8-1.7,1.3c0,3.5,1.4,6.9,4.2,9c1.8-0.1,3.6-0.2,5.4-0.4v5.7c2,1,4.2,2,6.3,3.1c-0.1,1.2-0.2,2.5-0.4,3.8
		c-1.7,0.8-3.2,1.8-4.8,2.7c0.1,1.6,0.2,3.2,0.4,4.9c-2.6,3.8-1.2,6.1,0.5,10c0.5,6.6,0.2,7.5,6.7,7.5c0.8,1.2,1.3,1.7,2.6,2.1
		c-0.6,2.9,0.5,6.3,1.5,9c9.7,1.9,6.6,10.2,6.6,19.1c1.8,8.7,6.3,20.3-6.7,20.3c-1.7,0.8-6.9,1.1-7.5-0.8c-0.4-0.1-0.7-0.1-1.1-0.1
		c0.1-0.8,0.4-1.6,0.6-2.3c5.7-5,7.2-10.7,7.2-18c-1.2-6.8-1.2-6.8-1.9-8.2c-8.7-3.1-13.5-4.7-17.6-12.9c-0.1-2.3-0.1-4.5-0.1-6.7
		c3.8-10.5,5.6-18.3,3.2-29.5c-1.6-3.8-3.6-7.2-3.9-8.6c-0.5,0.1-0.8,0.4-1.2,0.6c0,1.2,0,1.2,3.3,9.8c2.4,14.8-3,27.6-12.8,38.6
		c-3.2,1.8-6.3,3.7-9.4,5.6c-6.2,1.9-18.5,5.3-24.2,2.4c1.1-0.8,2.3-1.6,3.5-2.3c-1.9-1.3-3.1-1-5.5-1.1c-0.1-0.5-0.1-0.8-0.1-1.2
		c-0.7-0.2-1.4-0.5-2-0.7c0-1.9,0-3.8,0.1-5.7h0.8c0,0.2,0.1,0.6,0.2,1c0.7-1.1,0.7-1.1,0.8-3.2c-0.5-0.1-1-0.2-1.3-0.4
		c-0.7,0.7-1.2-0.1-2,0.2c-0.5,5.3-0.8,10.5-1.2,15.8c0.5,3.7,1.1,7.5,1.7,11.3c-1,5.8-1.2,11.1-1.2,17.1c3.5,5.9,3.5,5.9,4.8,9.2
		c-0.5,0.8-1,1.7-1.4,2.6c-0.6-0.4-1.2-0.7-1.7-1C254.4,232.9,252,234.6,249,235.2"/>
	<rect x="319.4" y="234.7" class="st2" width="0.5" height="0.5"/>
	<path class="st1" d="M101.4,234.7c0-1.9,2.4-5.5,3.9-6C104.6,232,104,232.9,101.4,234.7"/>
	<path class="st2" d="M262.6,234.7c0.5-1.6,1.4-1.4,2.7-1.8c0.7-1.4,0.5-2.2,1-3.9c0.6,0.1,1.2,0.2,1.8,0.5c1.4-1.7,2.9-1.9,4.8-2.3
		c-0.4,1.9-0.7,3.8-1.1,5.7c-1.8,0.2-2.7,0.5-3.6-0.8c-0.1,0.4-0.2,0.7-0.4,1.2C266.1,233.8,264.3,234.2,262.6,234.7"/>
	<path class="st3" d="M295.6,234.7v-1.1V234.7z"/>
	<path class="st2" d="M146.8,233.5c0-1.3,3.1-2.6,2.4-2.3v1c3.5-0.5,3.5-0.5,6.1-0.4C153.4,232.6,153.4,232.6,146.8,233.5"/>
	<path class="st2" d="M162.3,233.5v-0.7h1.6V232c-1.4-0.2-2.9-0.4-4.2-0.5c-0.2,0.2-0.5,0.5-0.7,0.7c-0.1-0.2-0.2-0.5-0.2-0.6
		c-1,0-1.8,0.1-2.6,0.2c2.3-1.8,5-4.2,7.6-5.1c0-0.7,0-1.3,0.1-1.9c1.8,0,2.6-1.1,3.9-1.2c0,0.2,0.1,0.6,0.2,1
		c0.2-0.2,0.6-0.4,1-0.5c0.2,0.4,0.6,0.8,1,1.3c1.6-0.6,2.7-1.7,4.4-0.8c0.1-0.2,0.4-0.4,0.6-0.5c0.1,0.4,0.4,0.8,0.6,1.3
		c0.1-0.2,0.4-0.4,0.6-0.5c1.1,0.5,1.1,1,1.4,2c1.1-1,1.1-1,2.1-1.3c0.1,2,0.2,4.3,1.4,6c-2.1,0.2-8.1,1.7-9.8,0.6
		C168.9,233.4,165.1,233.3,162.3,233.5"/>
	<path class="st2" d="M293.9,236.3v-0.6h1.4V235c-1.3-0.2-2.5-0.3-3.7-0.4c-0.2,0.2-0.4,0.4-0.6,0.6c-0.1-0.2-0.2-0.4-0.2-0.5
		c-0.8,0-1.6,0.1-2.3,0.2c2-1.6,4.4-3.7,6.7-4.5c0-0.6,0-1.2,0.1-1.7c1.6,0,2.3-1,3.5-1.1c0,0.2,0.1,0.5,0.2,0.8
		c0.2-0.2,0.5-0.3,0.8-0.4c0.2,0.3,0.5,0.7,0.8,1.2c1.4-0.5,2.4-1.5,3.9-0.7c0.1-0.2,0.3-0.3,0.5-0.4c0.1,0.3,0.3,0.7,0.5,1.2
		c0.1-0.2,0.3-0.3,0.5-0.4c1,0.4,1,0.8,1.3,1.8c1-0.8,1-0.8,1.9-1.2c0.1,1.8,0.2,3.8,1.3,5.3c-1.9,0.2-7.2,1.5-8.6,0.5
		C299.7,236.2,296.3,236.1,293.9,236.3"/>
	<rect x="317.1" y="233.2" class="st2" width="0.5" height="0.4"/>
	<path class="st1" d="M132.5,232.8c-0.1-0.6-0.2-1.1-0.4-1.6c-0.7,0.4-1.4,0.7-2,1.1c-0.2-0.5-0.4-1-0.5-1.4
		c-0.5,0.2-0.8,0.5-1.2,0.8c-1-0.5-1.8-0.8-2.6-1.2c-0.5-4.7,0.1-4.3,3.7-7c2.7-7.8,1.3-12.4-2.5-19.3c-1-9-2-17.5-8.7-24.2
		c0,1.6,1.4,3.8,1.1,4.9c-3.6-0.7-6.9-2.1-10.3-3.7c-0.4,0.5-0.4,0.5-0.4,2c-2.9,0.2-4.7-1.7-6.7-3.3c0,4.7,6.6,5,10.1,5.3v1.4
		c0.6,0.2,1.2,0.5,1.8,0.8c0,1.4,0.6,6.3,1.6,7c0.2-0.2,0.6-0.4,1-0.5c3.8,3.8,2.6,13.3,2.6,18.4c0.7,2.3,4.1,8.6,1.2,10.5
		c-0.1,0.5-0.2,1.1-0.2,1.7H119c-0.1,0.4-0.1,0.7-0.1,1.2h-1.1c-0.1,0.2-0.2,0.5-0.4,0.8c-1.7,0.1-3.2,0.2-4.8,0.4
		c-0.2,0.2-0.5,0.5-0.7,0.8c-0.8-0.2-0.8-0.2-1.3-1.1c-1.9-0.4-3.8,0-5.6-0.2c0-4.9,3.2-6.4,6.1-10c0.6-6-0.2-9-3.6-13.7
		c-1-8-1.1-14.6-7.2-20.3c-1.9-5.1-2.7-9.1-2.7-14.6c3.3-0.5,3.3-0.5,3.9-1.1c-2.7-1.6-5.4-3.1-8-4.5c2-1.3,3.3-0.2,5.3-2.7
		c-0.5,0-1,0-1.4,0.1c-0.2-0.6-0.5-1.1-0.7-1.6c4.8-7.3,7-10.3,2-17.9c-4.8-4.3-6.9-4.2-12.3-0.5c-3.3-0.5-6.7-1-9.9-1.4
		c0-2.7,1-5.1,2.9-7c2.3,0,2.5,0.4,4.7,0.7c-0.1-0.6-0.1-1.2-0.1-1.8c0.2-0.1,0.6-0.1,1-0.1c0.2,0.5,0.6,1,1,1.5
		c0.6-0.5,0.6-0.5,0.5-1.3c6.2,0,15.6,1.3,21.7-1.3c-0.8-0.8-1.2-0.6-2.4-0.7v-1c1.7-1.1,3.3-0.8,5.5-0.8c0.5,1.6,0.5,1.6,0.5,4.1
		c-2,0.8-3.9,1.8-5.9,2.7c-1.6,3.8-0.6,5.4,2.4,7.5c2.7-0.6,3.6-1.6,6-2.9c1.4,3,2.7,6,5.1,8.4c-2.4,2.6-3.7,4.2-3.7,7.9
		c-5.1,6.7,5.6,7.5,8.4,3.8c0-3.2,0.7-4.4,2.3-7c-1.6-3.9-1.9-6-2.5-6.6c-6.2,3.8-0.1-1.7,1.5-2.9c3.8,0.2,5.5,1.1,8.2-1.9
		c5.6,0.5,10.2,2.7,14.9-0.8c1.6,0.5,1.6,0.5,1.9,1.1c-2.7,6.9-7.4,6.1-13.8,6.6c-8,6.7-7.6,17.1,2.7,21.8c3.8,0.1,9.8,1,11.8-3.2
		c5-1.4,7.2-3.3,11.5-0.2c-0.4,4.9-0.4,4.9-2,12.5c3.7,4.8,8,3.3,12.8,5.4v1.1c-6.1,2.4-15.5,6.8-22.2,5.1c-0.2-1-0.4-1.9-0.5-2.7
		c-2.3,0.4-2.3,0.4-3.9-0.1c-1.4-2.9-6.2-1.9-8.4-3.6c0-1.6-0.1-2.5,0.7-3.7c0.2,0.2,0.5,0.6,0.7,1c0.4-0.1,0.7-0.2,1.1-0.2
		c-1.8-1.9-1.8-1.9-6.1-4.7c0.6,6.3,1.3,12.7,2,19.1c1.9,4.3,2.9,7.9,2,12.5c-0.6-1.1-0.6-1.1-1.1-1.2c-1.4,3.3-1.6,7.2-0.7,10.6
		c0.5-0.2,0.8-3.7,1.4-4.8c0.4,2.7,0.7,5.5,1.1,8.2c2.2,4.1,3.7,7.3-0.5,10.7c-0.1,0.4-0.2,0.8-0.4,1.3c-1.8,0.2-2.5,0.5-4.1-0.4
		C133.8,231.5,133.1,232.1,132.5,232.8"/>
	<rect x="175" y="231.1" class="st1" width="0.5" height="0.5"/>
	<rect x="177" y="230.8" class="st1" width="0.4" height="0.8"/>
	<path class="st2" d="M338.2,231.6c-1.9-1.7-1.9-1.7-3.1-2c0.1-1.6,0.2-3,0.4-4.4c0.8-0.1,1.7-0.1,2.5-0.1c0.1,1.1,0.4,2.2,0.6,3.2
		c0.5-1.7,1.3-0.5,2.5-1.3c0.1,0.7,0.4,1.4,0.6,2.2c0.2-0.8,0.6-1.6,1-2.3c0.8-0.2,1.7-0.5,2.5-0.7c0.5,0.8,0.5,0.8,0.4,1.7
		c0.8-0.2,0.8-0.2,2.7-1.8v1.3C345.2,230.3,342.3,230.4,338.2,231.6"/>
	<path class="st1" d="M186.2,230.8c1-4.9,1-4.9,2.2-8.6c1.1,0,1.1,0,1.7,0.5c1.9-1,3-0.6,5.1-0.7v-1.4c-0.7-0.2-1.4-0.5-2-0.7
		c-0.7,0.4-1.3,0.7-1.9,1.2c-0.4-0.5-0.7-0.8-1.1-1.2c-1.3,0.6-2.3,0.6-3.7,0.5c-2.3-4.7,0.7-7.6,4.7-8.6c1.6-4.1,1.6-4.1,2.7-9.3
		c0.1-8.2,0.1-8.2,0.5-8.8c-6.3-3-8.4-5.1-13.1-10.7c0,2.1,0,4.3,0.1,6.4h1.1c-0.1,1.6-0.1,1.6-2,5.5c1.1,1.9,1.8,3.2,2.3,5.4
		c-3.2-0.5-3.5-1-4.5-4.2c-2.4,0-2.4,0-4.2,0.7c-0.4,1-0.4,1-0.4,7.6H172c-1.4-2.4-1.3-5-1.4-7.6h-5.4c-0.4,3.3-0.4,3.3-1.3,5.7
		c-0.4,0-0.7,0.1-1.1,0.2c-0.2-2.3-0.5-4.5-0.6-6.8c-5-1.4-3.7,1-6.9,4.2c-2.1-1.1-0.5-3.8,0-5.6c-0.6-0.8-1.2-1.6-1.7-2.3
		c2.3-1.1,5.5-1.1,8.1-1.3c6.4-2.7,11.1-6.9,17.9-7.9c1-1.3,1-1.3,2.6-2.5c1.2-4.7,1.3-5.4,5.6-7.5c-5.7,0-10.6-0.8-13-6.8
		c2.5,0.8,2.5,0.8,3.5,0.7c-1.2-1.8-0.8-4.1-1-6.1c1.3,0,1.4,1.7,2.3,2.5c2.7,1,5.5,1.9,8.2,2.9c0.6,1.7,0.5,4.7,1.2,5.6
		c2.3-4.5,0.1-7.5-3.1-10.4c-1.7-8.5,6.7-12.1,12.3-4.5c1.2,9.1,0.5,18.3,0,27.5c3.9,5,3.9,5,4.4,6.3c-0.5,0.2-0.8,0.5-1.2,0.8
		c-0.6,6.6,2.1,26.6-4.8,28.3c-0.2,2.3-0.1,3.8,0.4,6.1C193.6,229.2,191.1,229.9,186.2,230.8"/>
	<path class="st2" d="M200.9,230.8c0.2-1.6,0.5-3.1,0.7-4.7c0.5-0.1,1.1-0.2,1.7-0.4c1.3,2,6.5-1,6.5,3.6
		C206.5,229,203.9,229.6,200.9,230.8"/>
	<rect x="160.3" y="229.9" class="st1" width="0.8" height="0.5"/>
	<path class="st1" d="M319.9,230.4c0.2-3,1.4-5.4,2.6-8.1h3.8c1.3,1.3,1,3.9,1.1,5.7C326.4,228.8,326.4,228.8,319.9,230.4"/>
	<path class="st2" d="M42.4,229.9v-1.2c3,0,5.4-0.5,8.4-0.7c0.1-0.4,0.2-0.7,0.4-1.1c1,0,1.9,0.1,2.9,0.2V226
		c1.2,0.1,2.4,0.2,3.6,0.5c0.1,0.4,0.2,0.7,0.4,1.1C52.7,228.3,47.6,229.1,42.4,229.9"/>
	<rect x="195.3" y="229.6" class="st1" width="0.5" height="0.4"/>
	<path class="st1" d="M282.1,229.9c0.1-2.4,0.1-2.4,1.2-5.1h0.8c0-1.3,1.2-1.7,2-2.4c0.8,1.8,1.8,3.7,2.7,5.6
		C286.6,228.6,284.3,229.2,282.1,229.9"/>
	<path class="st2" d="M349.3,229.2c-0.1-0.8-0.1-1.6-0.1-2.3c0.2-0.1,0.6-0.1,1-0.1c0,0.4,0,0.7,0.1,1.1c0.2,0,0.5,0.1,0.8,0.2v0.7
		C350.5,229,349.9,229.1,349.3,229.2"/>
	<path class="st2" d="M93.6,116.2c-0.1-0.8-0.1-1.5-0.1-2.3c0.2-0.1,0.6-0.1,1-0.1c0,0.4,0,0.7,0.1,1.1c0.2,0,0.5,0.1,0.8,0.2v0.7
		C94.8,116,94.2,116.1,93.6,116.2"/>
	<path class="st2" d="M352.5,228.8c-0.1-0.5-0.2-0.8-0.4-1.2h1.2v1.2H352.5"/>
	<path class="st2" d="M96.8,115.7c-0.1-0.5-0.2-0.8-0.4-1.2h1.2v1.2H96.8"/>
	<path class="st2" d="M101.3,115.7V115c0.2,0,0.6,0.1,1,0.2C101.9,115.4,101.5,115.5,101.3,115.7"/>
	<path class="st1" d="M151.6,228.4c-0.4-0.4-0.7-0.6-1.1-0.8c1.6-3.7,2.5-5.5,5.7-7.8c0.6,1.3,1.3,2.6,2,4.1
		c0.5-0.1,1.1-0.2,1.7-0.2v2C158.5,225.8,155.3,227.3,151.6,228.4"/>
	<path class="st1" d="M183,228.4c-0.1-0.2-0.2-0.5-0.4-0.6c1.1-2.4,1.2-4.3,3.6-5c-0.7,1.8-1.3,3.6-1.9,5.4
		C183.8,228.2,183.3,228.3,183,228.4"/>
	<path class="st1" d="M315.5,228.4c0-2.9,1.6-6.2,4.9-6.2C319.9,224.9,317.8,226.7,315.5,228.4"/>
	<path class="st2" d="M60,227.6c-2.4-1.8-2.4-1.8-3.5-3.2c0.4-0.1,0.8-0.1,1.3-0.1c0.8,0.8,1.4,1.6,2.7,1.6c-0.5-0.8-1-1.6-1.3-2.3
		c0.4-0.1,0.7-0.1,1.2-0.1c0.8,0.8,1.7,1.7,2.5,2.6C62.4,226.6,61.2,226.6,60,227.6"/>
	<path class="st1" d="M276.1,227.6c1.2-1.7,2.5-3.3,3.8-5c1.1,0.5,0.5,1.7,0.4,2.7C277.9,227,277.9,227,276.1,227.6"/>
	<rect x="329.5" y="225.7" class="st1" width="0.4" height="1.9"/>
	<path class="st2" d="M66,226.8c-2.4-1.8-3-2.6-3.3-5.5c0.2-0.1,0.5-0.2,0.7-0.4c0.4,0.6,0.7,1.3,1.2,2c0.5-1.1,1-2.1,1.4-3.2
		C66.9,221.7,66.2,224.7,66,226.8"/>
	<path class="st2" d="M76.3,226.4c-1.2-0.8-1.2-0.8-2.6-1.1c-0.2-0.2-0.4-0.5-0.5-0.7c-0.6,0.2-1.1,0.5-1.6,0.7
		c-1.3-2.7,1.7-5.9,3.8-7.2c0.1,0.8,0.1,0.8-1.4,3.7c1.3-0.7,1.7-1.4,3-1.8c-0.5,1.1-1,2.1-1.3,3.3c1.6-1.4,3.2-2.7,4.9-4.1
		c0,2-2.4,2.5-2.4,4.4c1.7-1.2,3.2-3,5.4-3c0.1,0.6,0.1,0.6-1.2,2.3c1.4-0.8,2.9-1.7,4.4-2.5c0.1,0.2,0.2,0.5,0.5,0.8
		c-0.4,0.5-0.7,1-1.1,1.6h1.2c-0.4,1.3-2.4,2.7-3.8,2.4c-0.1-0.5-0.2-1-0.4-1.4c-1.2,0.6-2.4,1.3-3.6,2c-0.5-0.4-0.8-0.7-1.2-1
		C77.8,225.4,77.1,225.9,76.3,226.4"/>
	<path class="st1" d="M147.2,226.4c1.1-2.3,2.3-4.1,4.1-6C151,223.9,150.1,225.2,147.2,226.4"/>
	<path class="st2" d="M67.2,225.2c0-2.4,0.1-4.4,0.8-6.7h1.2c-0.5,2.2-0.8,4.4-1.2,6.7H67.2"/>
	<path class="st2" d="M69.5,224.5c0.1-3,0.5-5.1,3.2-6c-0.7,1.9-1.4,3.9-2,6H69.5"/>
	<path class="st2" d="M89.5,224.5c-0.2-0.7-0.5-1.4-0.7-2.1c0.5-0.2,1-0.5,1.4-0.7c0,0.8,0,1.7,0.1,2.5
		C90,224.2,89.7,224.3,89.5,224.5"/>
	<path class="st2" d="M91.9,224c-0.1-0.4-0.2-0.6-0.4-0.8c0.4-0.1,0.7-0.2,1.1-0.4C92.3,223.7,92.3,223.7,91.9,224"/>
	<rect x="121.2" y="223.6" class="st1" width="0.5" height="0.4"/>
	<path class="st2" d="M81.8,223.6"/>
	<path class="st2" d="M363.6,222.1c-0.2-0.7-0.4-1.3-0.5-1.9c-0.5,0.5-1.3,1.3-2.1,1.1c0.1-0.7,0.2-1.3,0.5-1.9
		c-0.2-0.2-0.4-0.5-0.5-0.7c-1.9,2.2-1.9,2.2-2.3,1.9v-2.7c-0.4,1-1.3,2.6-2.5,2.3c0.8-2.6,2.3-7.5,5-8.4c-0.4,1.2-0.7,2.4-1,3.6
		c0.8-0.5,1.8-1.9,3.1-2.6c-0.8,1.3-1.7,2.6-2.4,3.9c0.2,0.8,0.2,0.8,0.6,1c0.8-1.3,1.4-2.9,3-3.3c0.1,0.2,0.2,0.5,0.5,0.7
		c-0.6,1.1-1.2,2.3-1.7,3.5c0.1,0,0.4,0.1,0.6,0.2c1.9-2.1,3.5-3.6,6.1-4.5c-0.7,1.2-3.7,4.3-3.2,5.7
		C364.7,221.7,364.7,221.7,363.6,222.1"/>
	<path class="st2" d="M107.9,109c-0.2-0.7-0.4-1.3-0.5-1.9c-0.5,0.5-1.3,1.3-2.2,1.1c0.1-0.7,0.2-1.3,0.5-1.9
		c-0.2-0.2-0.4-0.5-0.5-0.7c-1.9,2.1-1.9,2.1-2.3,1.9v-2.7c-0.4,1-1.3,2.6-2.5,2.3c0.8-2.6,2.3-7.5,5-8.4c-0.4,1.2-0.7,2.4-1,3.6
		c0.8-0.5,1.8-1.9,3.1-2.6c-0.8,1.3-1.7,2.6-2.4,3.9c0.2,0.8,0.2,0.8,0.6,1c0.8-1.3,1.4-2.9,3-3.3c0.1,0.2,0.2,0.5,0.5,0.7
		c-0.6,1.1-1.2,2.3-1.7,3.5c0.1,0,0.4,0.1,0.6,0.2c1.9-2.2,3.5-3.6,6.1-4.5c-0.7,1.2-3.7,4.3-3.2,5.7C109,108.7,109,108.7,107.9,109
		"/>
	<path class="st2" d="M198,89.1c-0.2-0.7-0.4-1.3-0.5-1.9c-0.5,0.5-1.3,1.3-2.1,1.1c0.1-0.7,0.2-1.3,0.5-1.9
		c-0.2-0.2-0.4-0.5-0.5-0.7c-1.9,2.2-1.9,2.2-2.3,1.9v-2.7c-0.4,1-1.3,2.6-2.5,2.3c0.8-2.6,2.3-7.5,5-8.4c-0.4,1.2-0.7,2.4-1,3.6
		c0.8-0.5,1.8-1.9,3.1-2.6c-0.8,1.3-1.7,2.6-2.4,3.9c0.2,0.8,0.2,0.8,0.6,1c0.8-1.3,1.4-2.9,3-3.3c0.1,0.2,0.2,0.5,0.5,0.7
		c-0.6,1.1-1.2,2.3-1.7,3.5c0.1,0,0.4,0.1,0.6,0.2c1.9-2.1,3.5-3.6,6.1-4.5c-0.7,1.2-3.7,4.3-3.2,5.7
		C199.1,88.7,199.1,88.7,198,89.1"/>
	<path class="st4" d="M226.1,61c-0.2-0.7-0.4-1.3-0.5-1.9c-0.5,0.5-1.3,1.3-2.1,1.1c0.1-0.7,0.2-1.3,0.5-1.9
		c-0.2-0.2-0.4-0.5-0.5-0.7c-1.9,2.1-1.9,2.1-2.3,1.9v-2.7c-0.4,1-1.3,2.6-2.5,2.3c0.8-2.6,2.3-7.5,5-8.4c-0.4,1.2-0.7,2.4-1,3.6
		c0.8-0.5,1.8-1.9,3.1-2.6c-0.8,1.3-1.7,2.6-2.4,3.9c0.2,0.8,0.2,0.8,0.6,1c0.8-1.3,1.4-2.9,3-3.3c0.1,0.2,0.2,0.5,0.5,0.7
		c-0.6,1.1-1.2,2.3-1.7,3.5c0.1,0,0.4,0.1,0.6,0.2c1.9-2.2,3.5-3.6,6.1-4.5c-0.7,1.2-3.7,4.3-3.2,5.7
		C227.2,60.7,227.2,60.7,226.1,61"/>
	<path class="st2" d="M28,92.5c-0.4-0.7-0.7-1.3-0.9-1.9c-0.5,0.5-1.5,1.3-2.6,1.1c0.1-0.7,0.1-1.3,0.3-1.9
		c-0.3-0.2-0.5-0.5-0.7-0.7c-2.1,2.2-2.1,2.2-2.6,2c-0.1-1-0.3-1.9-0.4-2.8c-0.3,1-1.3,2.7-2.9,2.3c0.7-2.7,1.8-7.6,5.2-8.5
		c-0.3,1.2-0.6,2.4-0.7,3.6c1-0.5,2-2,3.6-2.7c-0.9,1.3-1.8,2.7-2.5,4c0.4,0.8,0.4,0.8,0.9,1c0.9-1.3,1.4-2.9,3.4-3.4
		c0.2,0.2,0.4,0.5,0.7,0.7c-0.6,1.1-1.2,2.3-1.7,3.5c0.2,0,0.5,0.1,0.8,0.2c2.1-2.2,3.9-3.7,7.2-4.7c-0.7,1.2-4.1,4.4-3.3,5.8
		C29.4,92.2,29.4,92.2,28,92.5"/>
	<path class="st2" d="M373.7,222.1c-0.6-2-2.9-1.2-4.5-1c0-2.6-0.2-3.3,2.1-4.5c0.1,1.7,0.1,1.7-0.2,3.2c1.1-0.5,1.8-1,3.2-0.7
		c0,1.2,2.7,1.1,3.7,2.5C376.5,221.7,375.1,221.8,373.7,222.1"/>
	<path class="st2" d="M118,109c-0.6-2-2.9-1.2-4.5-1c0-2.6-0.2-3.3,2.2-4.5c0.1,1.7,0.1,1.7-0.2,3.2c1.1-0.5,1.8-1,3.2-0.7
		c0,1.2,2.7,1.1,3.7,2.5C120.8,108.7,119.4,108.8,118,109"/>
	<path class="st2" d="M233.5,70.5c0.5,2.1,2.8,1.4,4.5,1.2c-0.2,2.6,0,3.3-2.4,4.4c0-1.7,0-1.7,0.4-3.2c-1.1,0.4-1.8,0.9-3.3,0.5
		c0.1-1.2-2.7-1.2-3.5-2.7C230.6,70.7,232.1,70.7,233.5,70.5"/>
	<path class="st4" d="M236.1,61c-0.6-2-2.9-1.2-4.5-1c0-2.6-0.2-3.3,2.1-4.5c0.1,1.7,0.1,1.7-0.2,3.2c1.1-0.5,1.8-1,3.2-0.7
		c0,1.2,2.7,1.1,3.7,2.5C239,60.7,237.6,60.8,236.1,61"/>
	<path class="st2" d="M41,92.4c-1.1-2-3.9-1.2-6-0.9c-0.4-2.7-0.8-3.4,2.1-4.6c0.4,1.7,0.4,1.7,0.2,3.3c1.3-0.5,2.2-1,4.1-0.8
		c0.2,1.2,3.7,1,5.1,2.5C44.6,92,42.8,92.1,41,92.4"/>
	<path class="st1" d="M284.5,221.6c-0.2-0.7-0.5-1.3-0.7-1.9c-0.5,0.1-1,0.4-1.4,0.6c-0.5-1.1-0.5-1.1-0.5-4.1c1.2-1.1,2.4-2,3.6-3
		c1.8-3.6,2.9-9,8-8.5c-0.5,3.6-0.8,4.5,0.6,7.9c0.1-0.6,0.2-1.2,0.4-1.8h0.5c0.1,2.6,0.2,5.3,0.4,8c-3.2,0.8-5.4,1.3-8.8,1.3
		C285.3,221.4,285.3,221.4,284.5,221.6"/>
	<path class="st2" d="M351,221.2c-1.4-1.4-0.7-4.1-0.8-6c0.2,0,0.6,0.1,1,0.2C351,217.4,351,219.3,351,221.2"/>
	<path class="st2" d="M95.3,108.2c-1.4-1.4-0.7-4.1-0.8-6c0.2,0,0.6,0.1,1,0.2C95.3,104.4,95.3,106.3,95.3,108.2"/>
	<path class="st2" d="M185.4,88.3c-1.4-1.4-0.7-4.1-0.8-6c0.2,0,0.6,0.1,1,0.2C185.4,84.4,185.4,86.4,185.4,88.3"/>
	<path class="st4" d="M213.5,60.2c-1.4-1.4-0.7-4.1-0.8-6c0.2,0,0.6,0.1,1,0.2C213.5,56.4,213.5,58.3,213.5,60.2"/>
	<path class="st2" d="M11.6,91.9c-2.1-1.4-1.5-4.1-1.9-6c0.3,0,0.8,0.1,1.3,0.2C11,88,11.3,89.9,11.6,91.9"/>
	<path class="st2" d="M49.5,92.3c-3.1-1.4-2-4.1-2.6-6c0.5,0,1.2,0.1,2,0.2C48.9,88.5,49.2,90.4,49.5,92.3"/>
	<path class="st2" d="M348.6,220.9c-0.7-1.4-1.7-2-2-3.6c1.4,0,2.6,2.3,2.7,3.6H348.6"/>
	<path class="st2" d="M92.9,107.9c-0.7-1.4-1.7-2-2-3.6c1.4,0,2.6,2.3,2.7,3.6H92.9"/>
	<path class="st2" d="M183,87.9c-0.7-1.4-1.7-2-2-3.6c1.4,0,2.6,2.3,2.7,3.6H183"/>
	<path class="st4" d="M211.1,59.8c-0.7-1.4-1.7-2-2-3.6c1.4,0,2.6,2.3,2.7,3.6H211.1"/>
	<path class="st2" d="M8.4,91.5c-1.1-1.4-2.5-2-3.1-3.6c1.8,0,3.7,2.3,4.1,3.6C9.1,91.5,8.8,91.5,8.4,91.5"/>
	<path class="st2" d="M44.6,92c-1.7-1.4-3.7-2-4.6-3.6c2.9,0,5.6,2.2,6.1,3.6C45.6,92,45.1,92,44.6,92"/>
	<path class="st2" d="M351.7,220.9c0-2.9-0.2-4.5,1.7-6.4c-0.2,2-0.5,4.1-0.7,6.1C352.3,220.6,351.9,220.8,351.7,220.9"/>
	<path class="st2" d="M96,107.9c0-2.9-0.2-4.5,1.7-6.4c-0.2,2-0.5,4.1-0.7,6.1C96.6,107.6,96.2,107.7,96,107.9"/>
	<path class="st2" d="M186.1,87.9c0-2.9-0.2-4.5,1.7-6.5c-0.2,2-0.5,4.1-0.7,6.1C186.7,87.7,186.3,87.8,186.1,87.9"/>
	<path class="st4" d="M214.2,59.8c0-2.9-0.2-4.5,1.7-6.4c-0.2,2-0.5,4.1-0.7,6.1C214.8,59.6,214.4,59.7,214.2,59.8"/>
	<path class="st2" d="M12.5,91.5c-0.4-2.9-1-4.6,1.2-6.6c0,2.1,0,4.1,0,6.2C13.2,91.2,12.7,91.4,12.5,91.5"/>
	<path class="st2" d="M354.1,220.9c0.1-3.3,0.5-5.5,2.9-7.9C356.3,215.3,355.7,219.2,354.1,220.9"/>
	<path class="st2" d="M98.4,107.9c0.1-3.3,0.5-5.5,2.9-7.9C100.7,102.2,100.1,106.2,98.4,107.9"/>
	<path class="st2" d="M188.5,87.9c0.1-3.3,0.5-5.5,2.9-7.9C190.7,82.3,190.1,86.2,188.5,87.9"/>
	<path class="st4" d="M216.6,59.8c0.1-3.3,0.5-5.5,2.9-7.9C218.8,54.2,218.2,58.2,216.6,59.8"/>
	<path class="st2" d="M15.5,91.5c-0.3-3.4-0.2-5.6,2.5-8C17.6,85.7,17.4,89.7,15.5,91.5"/>
	<path class="st2" d="M212.8,219.7c-2.3-0.7-2.3-0.7-4.4-0.8c0-0.4,0.1-0.7,0.2-1c1.1-0.1,2.3-0.1,3.5-0.1c1.2-2.4,2.5-1.7,4.9-2
		c-0.1-0.4-0.2-0.6-0.2-0.8c0.5,0,1,0,1.5,0.1c0.5-1.1,1.8-0.8,2.9-1c-0.1,1.4-0.2,3-0.2,4.5c-3.8,0.4-3.8,0.4-6.7-0.1
		C213.7,219.4,213.7,219.4,212.8,219.7"/>
	<path class="st3" d="M200.5,219.2c0-0.2,0-0.4,0.1-0.5C200.5,218.8,200.5,219,200.5,219.2"/>
	<path class="st2" d="M234.7,219.2c-1.4-2-1.8-3.2-2.3-5.6c0.5-0.1,1.1-0.1,1.7-0.1c2.1,2.6,2.1,2.6,3.2,5c-0.6,0.2-2-0.7-2.4-0.5
		c0.1,0.2,0.2,0.5,0.5,0.8C235.2,219,234.9,219.1,234.7,219.2"/>
	<path class="st2" d="M239.1,219.2c-1.8-2.1-2.5-4.4-3.2-7.2c1,0.2,1,0.2,1.8,1.4c0-0.4,0.1-0.7,0.2-1c1.2,0,1.3,0.1,1.8,1
		c0.8-2.4,0.8-2.4,1.2-2.5c0.5,0.8,0.7,4.2,1.8,7C239.8,218.6,239.8,218.6,239.1,219.2"/>
	<path class="st2" d="M260.2,218.8c-1.9-1.9-1.9-4.3-1.8-7c0.4-0.1,0.7-0.2,1.1-0.4c0,0.1,0.1,0.2,0.2,0.5c0.5-0.1,1-0.2,1.4-0.4
		c0,3.8,0,3.8,0.4,3.7c0.4-1.3,0.8-2.6,1.3-3.9c0.4-0.1,0.7-0.2,1.1-0.2v2.3c0.5-0.6,1.3-2.3,2.4-1.8v1.4c0.8-0.5,1.7-1,2.6-1.3
		c-0.1,0.6-0.2,1.2-0.2,1.8c0.7-0.5,1.4-1,2.1-1.3c0.2,0.6-0.5,2.2-0.4,3.3c0.1-0.1,0.2-0.1,0.5-0.1c0,0.2,0,0.5,0.1,0.8
		c-0.8,0.7-0.8,0.7-3,1.4c-0.2-0.6-0.4-1.1-0.5-1.6c-0.5,0.5-1,1.1-1.3,1.7c-0.4-0.1-0.6-0.1-0.8-0.1v-3.1c-0.5,1.3-0.8,2.6-1.2,4.1
		C262.9,218.6,261.5,218.7,260.2,218.8"/>
	<path class="st2" d="M361.5,218.5"/>
	<path class="st2" d="M105.8,105.5"/>
	<path class="st2" d="M195.9,85.5"/>
	<path class="st4" d="M224,57.4"/>
	<path class="st2" d="M24.7,88.9"/>
	<path class="st2" d="M243.5,217.7c-1.1-3.7-1.1-3.7-1.1-5.4c0.1-0.2,0.4-0.4,0.6-0.5C243.6,213.6,243.6,215.6,243.5,217.7"/>
	<path class="st2" d="M359.1,217.7c-0.1-0.2-0.1-0.5-0.1-0.7C359,217.2,359,217.4,359.1,217.7"/>
	<path class="st2" d="M103.4,104.6c-0.1-0.2-0.1-0.5-0.1-0.7C103.3,104.2,103.3,104.4,103.4,104.6"/>
	<path class="st2" d="M193.5,84.7c-0.1-0.2-0.1-0.5-0.1-0.7C193.4,84.2,193.4,84.4,193.5,84.7"/>
	<path class="st4" d="M221.6,56.6c-0.1-0.2-0.1-0.5-0.1-0.7C221.5,56.1,221.5,56.4,221.6,56.6"/>
	<path class="st2" d="M21.5,88.1c-0.2-0.2-0.2-0.5-0.3-0.7C21.3,87.6,21.3,87.9,21.5,88.1"/>
	<path class="st3" d="M269.8,216.1"/>
	<path class="st2" d="M274.6,216.1c-0.8-1.2-1.1-1.6-0.7-3h0.8c0,1.3,0.6,1.2,0.7,2.3C275,215.6,274.8,215.9,274.6,216.1"/>
	<path class="st3" d="M266,214.4v-1.2V214.4z"/>
	<path class="st3" d="M263.3,214.1"/>
	<path class="st2" d="M24.2,209.6c-0.2-0.2-0.5-0.5-0.7-0.7c0.1-0.4,0.4-0.7,0.6-1.1c0.5,0.4,1.1,0.7,1.7,1.2
		C25.1,209.2,24.6,209.4,24.2,209.6"/>
	<path class="st2" d="M52.8,209.6c1-3.3,1.4-4.4,3.9-6.6c0.1,0.5,0.4,1.1,0.6,1.7c0.8-0.2,1.7-0.5,2.6-0.6c-0.1,0.5-0.2,1.1-0.2,1.7
		c-1.6,0.7-1.6,2.7-3.7,3.8c-0.4-1.6-0.4-1.6-0.8-1.8C54.1,209,54.1,209,52.8,209.6"/>
	<path class="st2" d="M31,209.3c-1.2-2.1-2-3.7-2.4-6c1.1,0.5,2,0.8,3.2,0.6c0.1,0.5,0.2,1.1,0.4,1.7c0.5-0.1,1.1-0.1,1.7-0.1
		c0-0.8,0.1-1.7,0.2-2.5c0.2,0,0.6,0,1,0.1c0.2,1,0.5,1.9,0.8,2.9c0.4-1.2,0.7-2.4,1.1-3.6c0.2-0.1,0.5-0.2,0.7-0.2
		c-0.2,2-0.5,4.1-0.7,6.1c-1.4,0-2.7-0.4-3.8-1.2C32.7,207.4,32.8,208,31,209.3"/>
	<path class="st2" d="M45.3,209.3c-0.2-1.6-0.2-1.6-1-2.3c-1.3,1.8-3.5,1.1-5.4,0.7c-0.4-2.9,0.2-3.9,1.3-6.6h0.8v2.2
		c0.1-0.2,0.4-0.5,0.6-0.7c0.7,0.7,0.6,1.4,0.6,2.4c0.8-0.8,1.7-1.7,2.5-2.4c-0.4,1.1-0.7,2.3-1.1,3.5c2,0,3.7-3.7,5.9-3.9
		C49.2,204.6,47,207.6,45.3,209.3"/>
	<path class="st2" d="M26.6,208.9c-0.5-0.8-0.8-1.7-1.2-2.4c0.2-0.1,0.6-0.2,1-0.4v-1c0.2-0.1,0.5-0.1,0.8-0.1c1.9,2,1.9,2,2.6,3.8
		C28.2,208.7,28.1,208.2,26.6,208.9"/>
	<path class="st2" d="M48.4,208.9c0.2-1.6,0.5-3,0.8-4.4c0.6-0.2,1.3-0.5,2-0.7c0.1,1.1-0.5,2-0.5,2.9c0.1,0,0.2,0.1,0.4,0.2
		c-0.2,0.1-0.5,0.2-0.7,0.4v0.8C49.7,208.3,49,208.6,48.4,208.9"/>
	<path class="st2" d="M60.4,208.5c-0.1-0.7-0.2-1.4-0.2-2.2c0.4-0.5,0.7-1,1.2-1.3c1.3,1.3,3.2,1.4,5,1.9c-0.1,0.2-0.2,0.6-0.2,1
		C64.2,208,62.3,208.2,60.4,208.5"/>
	<path class="st2" d="M71.6,208.1c-1.2-0.6-1.2-0.6-4.1-0.8v-1.2c2,0,4.1,0.1,6.1,0.2c0.1,0.2,0.2,0.6,0.4,1
		C73.1,207.5,72.3,207.7,71.6,208.1"/>
	<rect x="52" y="206.1" class="st2" width="0.5" height="0.5"/>
	<rect x="55.6" y="206.1" class="st2" width="0.5" height="0.5"/>
	<path class="st2" d="M40.5,204.2"/>
	<path class="st1" d="M290.4,204.2c-0.7-3-0.6-5.5-0.2-8.5c-1.2-0.6-2.4-1.2-3.6-1.8c-0.6,1-3.9,7-6.3,5.9c0-3.7,2.9-5.3,2.4-9.2
		c3.8-2.1,7.6-4.3,11.5-6.3c4.9-4.2,4.9-4.2,5.9-4.4c0,0.4,0,0.7,0.1,1.1c0.4-0.1,0.7-0.1,1.1-0.1c0.8,0.8,1.1,1,2.2,1.3v2.3
		c2.3-0.8,2.3-0.8,3.8-1c0,0.6,0,1.2,0.1,1.9c2,0,4.5,2.6,6.1,3.7c-0.1,1.4-1,2.5-2,3.2c0.5,2.5,1,5,1.6,7.6c-1.1,0.2-2,0.5-3,0.7
		c0-1.8-2.3-4.1-3.2-5.4c-5.5-0.6-3.7,4.7-3.8,8.2h-1.9c-1.6-4.8-2.1-8.2-7.2-6.1C293.3,198.8,292.2,203.6,290.4,204.2"/>
	<rect x="201.2" y="197.4" class="st1" width="0.5" height="0.4"/>
	<path class="st1" d="M364.5,196.5c-0.8-3.3-1.6-6.7-2.3-9.9c-0.1-4.1,0.8-7.8-3.2-9.1c-0.5,1-0.5,1-1.1,1.1
		c1.2,2.9,1.2,2.9,2.7,5.3c-2.7,0-8.8-4.7-11.5-6.2c0,1,0.7,1.7,0.6,2.4c-2.5-1.9-3.9-4.4-4.3-7.5c-1.6-3.2-1.6-3.2-5.1-8.5
		c-2.1-10.7-0.8-22.3-0.4-33.2c-1.7-5.1-4.9-9.2-8.6-12.9c-0.2,0.1-0.5,0.2-0.6,0.4c-0.6-1-0.6-1.4-1.9-1.7
		c-0.5-1.1-1.1-1.2-2.1-1.6c-0.2,0.4-0.5,0.7-0.7,1.1c-0.2-0.7-0.5-1.3-0.6-1.9c-2.4,0.6-3.7-0.7-6.1-1.1c-0.5,0.6-1,1.2-1.3,1.8
		c-0.1-1.1-0.2-2-0.2-3c13.6,0,20.8,6.2,25.4,18.9c-0.5,19.9-0.5,19.9-0.1,31.3c0.5,3.2,3.7,4.8,6.1,6.7c8.4,0.6,13.1,1.9,17.6,9.4
		c-0.1,0.2-0.1,0.6-0.1,1c-1.2-0.4-1.4-0.2-2.4,0.2c0,2.9,1.6,4.2,2.4,6.8c-0.4,0.1-2.4-3.7-3.1-4.1
		C363.5,186.8,368.6,192.3,364.5,196.5"/>
	<path class="st2" d="M14.6,194.6c-0.7-1.2-2.1-1.1-3.3-1.1c0-0.5,0.7-0.6,0.7-1.6c1.8,0,2.6,1.1,3.5,2.6H14.6"/>
	<path class="st2" d="M16.6,194.6c-1.2-1.2-1.8-1.8-1.8-3.5c0.7,0,0.7,0,1.9,1.3c0-0.6,0.1-1.2,0.2-1.8c1.3,0.8,1.7,2,2.4,3.5
		C18.4,194.2,17.5,194.4,16.6,194.6"/>
	<path class="st2" d="M22.6,194.6c-1.1-1.1-1.3-1.1-2.9-0.8V189c0.8,0.2,0.8,0.2,1.8,1.7c0.5-0.2,1-0.5,1.6-0.7
		c0.1,0.5,0.4,1,0.6,1.6c1.1-1.4,1.1-1.4,1.3-2.5h0.7c-0.1,1.1-0.1,2.2-0.1,3.2c1.1-1.3,1.1-1.3,2.5-2.3c0.8,0.8,0.8,1.9,1,3.1
		C27.5,194,24.8,193.9,22.6,194.6"/>
	<path class="st2" d="M36.5,193.8v-0.8c0.7-0.1,1.6-0.2,2.4-0.4v0.8C38,193.5,37.2,193.7,36.5,193.8"/>
	<path class="st2" d="M31,193.4c-0.1-0.7-0.2-1.4-0.4-2c0.4-0.4,0.7-0.7,1.1-1.1c0.2,0.6,0.5,1.2,0.7,1.8c0.5-0.1,1-0.2,1.4-0.2
		c0.2,0.4,0.5,0.7,0.8,1.1C33.4,193.1,32.2,193.2,31,193.4"/>
	<rect x="202.4" y="192.6" class="st1" width="0.5" height="0.4"/>
	<path class="st5" d="M227.5,189.4"/>
	<path class="st5" d="M154.9,188.6"/>
	<path class="st1" d="M360,188.2c-0.7-1.1-1.3-2-1.9-3c1.5,0.5,1.9,1.5,2.7,3H360"/>
	<path class="st0" d="M305.1,186.2c0.2-0.6,0.5-1.1,0.7-1.6c0.1,0.1,0.2,0.4,0.4,0.6C305.8,185.5,305.5,185.9,305.1,186.2"/>
	<path class="st1" d="M355.7,186.2c-0.7-1.1-1.4-2-2-3c0.8,0.2,1.7,0.5,2.6,0.7c0,0.6,0.1,1.2,0.2,1.9
		C356.2,186,356,186.1,355.7,186.2"/>
	<path class="st0" d="M260.9,183.4c-0.1-0.2-0.2-0.5-0.2-0.6c1.4-1.4,1.5-1.3,3.1-2.1c0,0.2,0,0.6,0.1,1
		C262.9,182.2,261.9,182.8,260.9,183.4"/>
	<path class="st0" d="M272.9,183.4c0.4-1.8,1.4-2.6,2.9-3.6C275.4,180.9,275.4,180.9,272.9,183.4"/>
	<path class="st0" d="M258.5,183c0-1.4,1.4-1.8,2.4-2.4c0,0.2,0,0.6,0.1,1C260.2,182.1,259.4,182.5,258.5,183"/>
	<path class="st0" d="M266.9,183c0.6-1,1.2-1.8,1.9-2.6c0.4,0,0.7,0,1.1,0.1C269,181.7,268.2,182.4,266.9,183"/>
	<path class="st0" d="M269.6,183c1.1-1.1,2.1-2.1,3.2-3.1C273.2,181.4,270.5,182.5,269.6,183"/>
	<path class="st0" d="M275.3,183c2.6-3.5,2.6-3.5,3-3.3C278.1,181.2,276.6,182.7,275.3,183"/>
	<path class="st1" d="M63.6,182.7c-3.9-3.5-3.9-5.9-5-11.3h0.7c0.5,3.2,0.5,3.2,1.2,4.8h0.6c-0.1-2.5-1-4.7-1-7.2
		c-0.8-0.8-0.8-0.8-2.2-1.2c-1.6-3.9-3.8-7.2-6.6-10.3c0.6-0.6,0.2-1.3,0.1-2.1c-1.7,0-2.4-0.4-3.7-1.2c-0.5,0.2-1,0.5-1.3,0.8
		c-0.8-0.5-1.6-1.6-2.6-1.1c-3.1-2.5-9.2-10.5-4.2-13.9c0,0.8,0,1.7,0.1,2.6h1c0.1-0.5,0.4-1,0.6-1.3c-0.4,4.4-0.4,4.4-0.1,4.5
		c1.7-3.5,1.3-6.9,0.6-10.9c-3.3,2-3.3,2-6.7,4.8c-2.3,0.1-4.4,0.2-6.6,0.5c-7.3-3.3-8.7-7.3-11.5-14.7c5.9-0.5,18.9,7.6,23.6,1.2
		c-0.5-0.2-1-0.4-1.4-0.5c5.4-3.8,5.9-6.7-0.2-10c-0.1-0.6-0.2-1.2-0.2-1.7c0.5-0.1,1-0.1,1.6-0.1c0.2-1,0.5-1.9,0.7-2.9
		c0.4-0.1,0.8-0.1,1.3-0.1c0.6-1.2,1.2-2.4,1.8-3.6c3.2,0,9-3.3,11.9-4.4c0.2,0.4,0.2,0.4,3,0.7c0,0.4,0,0.7,0.1,1.1
		c1.7,0,3.3,0.1,5,0.2c0.2,1.1,0.2,1.1-0.1,2.4c0.7,0,1.4,0.1,2.1,0.2c-0.7,1.8-0.7,2,1,2.9c-1,0-1.9,0.1-2.9,0.2
		c1.3,2.3,1.3,2.3,1.2,3.1c-2.1-1-3.7-2-6.1-2c0,0.2,0,0.5,0.1,0.8c3.1,1,2.7,2.1,3.1,5H62c-0.6-1.9-1-2.4-2.7-3.1
		c-0.6,0.5-1.2,1.1-1.7,1.7c-1.3-0.6-1.9-0.8-3.5-0.8c0.5,1.1,1,2,0.7,3.2c-0.8-0.8-0.8-0.8-3.8-1.8v3.6c-0.6-1.3-1.6-1.4-2.9-1.2
		c-0.1,0.5-0.2,1-0.4,1.6c-0.8-0.5-1.7-0.8-2.4-1.2c-0.1,0.4-0.1,0.7-0.1,1.1c0.7,0.4,0.7,0.4,2.3,2.9c1-0.7,1-0.7,1.7-2.5
		c0.1,0.1,0.4,0.2,0.6,0.4v3.8c0.2-0.5,0.5-1,0.8-1.4c1.1-0.1,2.1-0.2,3.2-0.2v-1.4c-0.4-0.1-0.6-0.2-0.8-0.4c0-0.6,0-1.2,0.1-1.7
		c0.7,0.1,1.4,0.4,2.3,0.6c0.2-0.7,0.5-1.4,0.8-2.1c0.2-0.1,0.6-0.2,1-0.2c0.1,0.5,0.2,1.1,0.5,1.7H59c0.2-0.8,0.5-1.7,0.7-2.5h1.2
		c0.8,3,0.8,3,0.8,4.3c1.8-0.6,3.9-2.3,4.5-4.1c3.1,0,7.5,9.1,9,11.8c0.1,2.4,0.5,4.8,0,7.2c-1.8,0-3-0.8-3.7-2.3
		c0.7-0.1,1.4-0.1,2.3-0.1c0-6.8-1.5-13.9-9.6-12.9c-1.2,5,0.2,9,3.5,12.9c2.9,2.2,2.9,2.2,3.7,3.3c5.3,1.7,5.3,1.7,12.5,3.2
		c-0.4,1-0.4,1,0,1.3c9.3-6.6,14.7-4.1,16,7.2c-2.3,6.8-7.5,7-14.3,7.6c-2.6,1.9-4.4,3.8-6.1,6.6c-11.5,8.5-27.5,0.6-20.9-14
		c0.6,0,1.2,0,1.8,0.1c0.5-1.6,0.5-1.6,0.2-2h-3.1c-4.9,7-3.1,10.7,1.4,17.5c2,1.4,4.2,2.9,6.3,4.4c2.4,5.5,6.1,11.1,13.3,8.6
		c0.6-1.4,1.1-2.4,0.7-3.9c-2.1-1.1-2.3-5.3-1.1-7.2c1.2,3.8,2.2,7.4,2.6,11.3c-3.2,6.6-10.7,2-14.1-1.1c0,1.2,0,2.4,0.1,3.7
		C65.6,182.4,65.6,182.4,63.6,182.7"/>
	<path class="st0" d="M264.9,182.7c0.6-1.6,1-2,2.4-2.7c0,0.4,0,0.7,0.1,1.2C266.6,182,266.6,182,264.9,182.7"/>
	<path class="st0" d="M279.3,182.7c0.2-1.7,1.3-2.4,2.4-3.5c0,0.4,0,0.7,0.1,1.2C281,181.1,280.2,181.8,279.3,182.7"/>
	<path class="st0" d="M282.4,181.8c0.8-1.3,1.7-3.1,3.2-3.6C285.7,179.8,283.8,181.5,282.4,181.8"/>
	<path class="st0" d="M145.6,181.5c0.1-1.7,0.1-1.7,0.6-2.6c0.2-0.1,0.6-0.2,1-0.2C146.4,180.8,146.4,180.8,145.6,181.5"/>
	<path class="st0" d="M148.3,181.5c-0.2-1.3-0.2-1.3,0.2-2.6c0.2-0.1,0.6-0.2,1-0.2C149.5,179.7,149.1,180.8,148.3,181.5"/>
	<path class="st0" d="M150.7,181.5c0.1-1,0.2-1.9,0.4-2.9c0.2-0.1,0.5-0.2,0.8-0.4c-0.1,1.1-0.2,2.1-0.4,3.2H150.7"/>
	<path class="st0" d="M143.6,181c0.1-0.7,0.4-1.4,0.6-2.1v1.9C143.9,180.8,143.7,180.9,143.6,181"/>
	<path class="st0" d="M153.1,181c0.1-0.8,0.2-1.7,0.4-2.5c0.2-0.1,0.5-0.2,0.8-0.2c-0.1,0.8-0.2,1.8-0.4,2.7H153.1"/>
	<path class="st0" d="M155.5,180.6c0-0.8,0.1-1.6,0.2-2.3c0.2-0.2,0.6-0.4,1-0.5c-0.1,0.7-0.2,1.4-0.2,2.2
		C156.1,180.2,155.8,180.4,155.5,180.6"/>
	<path class="st0" d="M141.5,180.3c0.1-0.6,0.2-1.2,0.5-1.7h0.7v1.7H141.5"/>
	<path class="st1" d="M175.5,180.3c0.1-1.3,0.2-2.6,0.5-3.8c-0.6,0-0.6,0-5.3,2.7c-7.3,0-7.6-3.9-6.2-10.1c-0.2,1.4-0.4,3-0.5,4.5
		c2.7,2.7,3.5,2.7,7.3,3c1.3-1.7,2.6-3.3,3.9-5c1.6,1,3.1,1.9,4.8,3C180.5,178,179.2,179.6,175.5,180.3"/>
	<path class="st0" d="M286.9,180.3c0.8-1.8,1.2-3.3,2.7-4.3C289.6,177.4,287.8,179.2,286.9,180.3"/>
	<path class="st0" d="M157.9,179.4v-2c0.2,0.1,0.6,0.2,1,0.4c0,0.5,0.1,1.1,0.2,1.7H157.9"/>
	<path class="st1" d="M73.5,178.6c-0.1-0.4-0.1-0.7-0.1-1c1.6-0.4,3.2-0.7,4.9-1C77.7,178.7,75.2,178.5,73.5,178.6"/>
	<path class="st0" d="M289.6,178.6c1-1.6,1.9-3.1,2.9-4.5c0.1,0,0.4,0,0.6,0.1C292.3,176,291.2,177.5,289.6,178.6"/>
	<rect x="257.4" y="177.9" class="st6" width="0.5" height="0.4"/>
	<path class="st1" d="M71.6,176.2c-2.1-1.4-3-1.8-3-4.7c0.7,0.6,1.8,2.3,2.9,1.8c-0.1-0.5-0.2-0.9-0.2-1.3c1.6,1.6,1.7,1.6,1.7,3.9
		C72.4,176,71.9,176.1,71.6,176.2"/>
	<path class="st0" d="M293.7,175.9c0.6-1.4,1.2-2.9,1.9-4.3c0,0.2,0.1,0.5,0.2,0.7C295.1,173.5,294.4,174.7,293.7,175.9"/>
	<path class="st5" d="M71.6,174.3"/>
	<path class="st1" d="M169.8,173.8c0.5-1.4,2-3,3.7-2.5C173.5,173,171,173.5,169.8,173.8"/>
	<path class="st0" d="M296.4,173.5c0.2-1.6,0.6-3.1,1-4.7c0.4-0.1,0.7-0.2,1.2-0.4C298.2,170.1,297.6,172.3,296.4,173.5"/>
	<path class="st0" d="M299.6,169.9c0.4-1.9,0.8-3.8,1.3-5.7c0.4-0.1,0.7-0.2,1.1-0.2c0,0.5,0.1,1,0.2,1.4c0.8-1.9,1.7-3.8,2.5-5.7
		C304.8,162,301.8,168.5,299.6,169.9"/>
	<rect x="164.2" y="168.3" class="st1" width="0.5" height="0.4"/>
	<path class="st1" d="M141.2,166.7c-7.4-3.2-8.2-7.4-8.7-15c2.3-4.5,8.4-2.9,12.7-3.5c2.6-2.1,2.6-2.1,4.7-4.5
		c4.9-1.1,12.1,2.6,14.3,1.9c-1.6-1.7-3.1-3.3-4.5-4.9c0.7-1.3,2.7-3.7,2.3-5.3h-0.7c0-4.8-0.5-8.6-3.8-11.9
		c-0.1-0.6-0.2-1.2-0.2-1.7c1.1-0.1,2.2-0.1,3.3-0.1c0-0.6,0.1-1.1,0.2-1.6c5.7,0.5,1.2,5.7,2.6,10.1c1.7,1.8,3.5,3.7,5.3,5.6
		c1.8-0.4,3.6-0.6,5.5-0.8c0.4-1,0-2.1-0.1-9.9c-2.7-3.6-4.7-6-9.2-4.5c0-0.8,0-1.6,0.1-2.3c1.1-0.1,2.1-0.2,3.3-0.2
		c0.1-0.4,0.2-0.7,0.4-1c2.5,2,4.3,4.5,6.3,7c0.7,1.9,0.7,1.9,1.2,1.9c0.4-3.7,0.4-3.7,0-5c-2.3-1.1-2.7-2.9-3.3-5.4
		c6.6,0.2,6.6,0.2,8.2-0.2c0.1,1.2,0.1,1.2-0.7,2.9c7.5-1.1,11.3-9,15.3-14.8c2.7,0,2.7,11.8,2.7,14.2c-2,7.3-6.9,6.8-14.1,7.4
		c-1-0.6-1.2-0.8-2.5-0.8c-0.2,0.4-0.4,0.7-0.5,1.2c0.8,0.8,1.1,1.2,2.4,1.2c0.1,0.6,0.4,1.2,0.6,1.8c-0.4,0-0.7,0.1-1.1,0.2
		c0,0.4,0.1,0.7,0.2,1.2c1.1,0.1,2.2,0.4,3.2,0.6c-0.2,0.2-0.5,0.6-0.6,1c2.3,3.3,3.3,6.7,6.3,9.3c-0.4-5.7-0.4-5.7,0-6.9
		c-0.8-0.5-1.7-0.8-2.5-1.2c6.1,0,5.3,5.1,5.8,10.4c-3,4.2-6.9,7.5-11,10.6c-0.8,2.5-1.7,5-2.4,7.6c-1.3,0-1.4-0.1-2.4-0.7
		c0.4-1.7,0.6-4.1,2.6-4.3c0.5-2.9,1-5.7,1.4-8.5c-1.7-3.7-4.3-5.1-5-8.8c-1.1,0.4-2,0.7-3,1.1c-0.7,2.5-0.7,2.5-0.6,3.8
		c3.2-4.8,6.2,5.4,6.7,6.9c-2,7.2-4.2,8.1-11.1,9.8c-4.8-0.1-9.6-0.1-14.2-0.1C151.5,162.4,146.8,165.7,141.2,166.7"/>
	<path class="st0" d="M256.2,165.5c-1.3-1.3-2.9-2.5-3.2-4.3c-1.1-0.5-2.2-0.8-3.1-1.2c0-5.5,1.3-8.2,7-8.2c4.8-1.2,4.1-0.4,6.8,3.8
		c0.6,2.3,0.6,2.3,0.6,5.3C259.2,164,259.2,164,256.2,165.5"/>
	<path class="st0" d="M100.9,162.4c0.4-0.7,0.7-1.3,1.2-1.9c0,0.4,0,0.7,0.1,1.2C101.8,161.9,101.3,162.1,100.9,162.4"/>
	<path class="st0" d="M98.6,161.9c0.8-1.3,1-1.3,2.4-1.9C100.9,161.1,99.3,161.5,98.6,161.9"/>
	<rect x="215.2" y="157.1" class="st0" width="0.8" height="1.7"/>
	<path class="st0" d="M139.6,158.3c-1.2-1.8-3-2.9-3-4.9c2.2-0.5,2.4,0,4.3,1.2v2.7C140.5,157.6,140,157.9,139.6,158.3"/>
	<path class="st6" d="M52,157.6c0-0.1,0.1-0.2,0.2-0.4C52.1,157.4,52,157.5,52,157.6"/>
	<path class="st0" d="M211.6,157.6v-1.7c0.2-0.1,0.5-0.2,0.8-0.4c0.1,0.6,0.2,1.3,0.4,2H211.6"/>
	<path class="st0" d="M213.7,157.6v-1.7c0.1,0.1,0.4,0.2,0.6,0.4C214,157.6,214.9,157.6,213.7,157.6"/>
	<path class="st0" d="M209.2,157.1c-0.1-0.6-0.2-1.2-0.2-1.8c0.1-0.2,0.4-0.4,0.6-0.5c0.6,0.6,0.5,1.3,0.4,2.3H209.2"/>
	<path class="st0" d="M75.9,155.9c-0.4-1.3-2-2.3-3.2-3c-0.2,0.2-0.5,0.5-0.7,0.8c-0.2-0.1-0.5-0.2-0.7-0.2c0.2-0.8,0.6-1.7,1-2.4
		c1.4,0,2.2,0.4,3.6,0.8c0.4,1.3,0.8,2.6,1.3,3.9H75.9"/>
	<path class="st0" d="M206.9,155.9c0.4-1.8,1.6-3,1.2-2.7c0.1,0.8,0.1,0.8-0.6,2.5C207.2,155.7,207,155.8,206.9,155.9"/>
	<path class="st0" d="M153.1,154.7c-0.8-2.9-0.5-4.9,1-7.5c0.7-0.1,1.4-0.2,2.3-0.2c0.5,1.6,1,1.9,0.6,3.6c-1.2,0-1.2,0-1.7,0.4
		c-0.1,1.2-0.1,2.5-0.1,3.8H153.1"/>
	<path class="st1" d="M202.1,153.5c0.4-1.2,0.4-1.2,0.8-1.2v1.2H202.1"/>
	<path class="st0" d="M45.3,150.4c-0.8-1.8-0.7-3.3-0.8-5.3c0.2,0,0.5,0.1,0.8,0.2C45.5,147.4,45.8,148.4,45.3,150.4"/>
	<path class="st0" d="M47.7,150.4c-0.5-0.8-0.8-1.6-1.2-2.3c0.4-0.4,0.7-0.6,1.1-0.8c0.4,0.6,0.7,1.2,1.1,1.8
		C48.3,150.1,48.3,150.1,47.7,150.4"/>
	<path class="st0" d="M66.3,150c0.6-6.1,8.1-9.8,11.2-3.6C70.7,145.5,70.9,144.5,66.3,150"/>
	<path class="st0" d="M113.7,149.6c-1.4-1.8-2.5-3.5-1.9-6c3.6-1.8,5.3,0.2,5.3,4.1C115.9,148.3,114.8,148.9,113.7,149.6"/>
	<path class="st2" d="M357.6,146.3c0.5-1.4,1-2.8,1.6-4c1.6,1,1.6,1.6,1.9,3.3C359.8,145.8,358.6,146,357.6,146.3"/>
	<path class="st2" d="M373.3,146.3c0-2.4,0.7-4,1.9-5.9C375.2,143.2,374.9,143.9,373.3,146.3"/>
	<path class="st2" d="M376.3,146.3c0.3-1.7,0.7-3.5,1.2-5.2h1c-0.4,1.9-0.4,1.9-1,2.4c1.4,0.5,2.8,1,4.2,1.6
		C379.8,145.5,378,145.8,376.3,146.3"/>
	<path class="st0" d="M91.4,148.8c-1.1-2.3-1.6-3.3-0.1-5.7c0.7-0.1,1.4-0.2,2.2-0.2c-0.4,1.8-0.7,3.6-1.1,5.4
		C92,148.3,91.6,148.5,91.4,148.8"/>
	<path class="st2" d="M365.8,145.6c-0.2-1-0.4-2.1-0.4-3.1c0.2-0.3,0.5-0.5,0.9-0.7c0,1,0.2,2.1,0.3,3.3
		C366.3,145.3,365.9,145.5,365.8,145.6"/>
	<path class="st2" d="M370.5,145.6c0.2-1.6,0.3-3.1,0.5-4.5c0.3-0.2,0.7-0.3,1.2-0.5v5.1H370.5"/>
	<path class="st2" d="M362.8,145.1c-0.2-1.2-0.3-2.4-0.5-3.5c0.3,0,0.7,0.2,1.2,0.4c0.2,1,0.3,2.1,0.5,3.1H362.8"/>
	<path class="st2" d="M368.7,145.1c0.2-1.7,0.4-3.5,0.7-5.2C369.3,145.1,369.3,145.1,368.7,145.1"/>
	<path class="st0" d="M42.9,146.8c0-1.3,0.1-2.6,0.2-3.8C43.4,145.2,43.4,145.2,42.9,146.8"/>
	<path class="st0" d="M189.3,144.8c-0.2-1.2,0.2-3.1-0.2-4.3c0.5-0.4,0.5-0.4,1.4-0.2c0.1,0.7,0.4,1.4,0.6,2.1c-0.5,0-0.8,0-1.2,0.1
		c0,0.7,0.1,1.4,0.2,2.3H189.3"/>
	<path class="st0" d="M56.4,142.8V141c-7.5-3-8.4-10-4.2-15.5c8.1,0,8.6,8.7,9.9,14.9C57.8,141.8,57.8,141.8,56.4,142.8"/>
	<path class="st1" d="M153.1,140.9V140h-1.2c-0.4-3.8-1.6-9.9-0.1-13.6h0.8c-1,4.5-0.2,7.4,1.1,11.6
		C153.5,140.9,153.5,140.9,153.1,140.9"/>
	<path class="st0" d="M66,140.4v-1.2c0.2,0.1,0.5,0.2,0.7,0.4C66.3,140.4,66.3,140.4,66,140.4"/>
	<path class="st1" d="M55.6,140c-0.7-0.7-1-1-1-2.2c4.7-3.5,0-4.8,0.7-8.8c0.4-0.2,0.7-0.4,1.1-0.5c3.6,3.2,3.1,5.4,3.3,10.2
		C59,139.3,59,139.3,55.6,140"/>
	<path class="st0" d="M64.8,139.7v-2h0.8C65.1,139.7,65.1,139.7,64.8,139.7"/>
	<path class="st1" d="M156.3,138.8c-0.6-1.4-2.6-4.2-2.1-5.9c1.3,1.3,2.6,1.6,4.5,1.6C158.9,136.9,158.1,137.7,156.3,138.8"/>
	<path class="st1" d="M140.3,138.5c-3.8-1.9-12.7-9-9.2-14.2c3.9,0,8,3.2,12.2,3.9c1.7-0.1,3.3-0.1,5-0.1c-0.1,0.4-0.2,0.8-0.2,1.3
		c-5.3,2.7-8.6-1.7-13.4-1.1c-0.1,0.1-0.2,0.4-0.4,0.6c1.1,0.6,2.6,1.6,2.6,3c4.2,1.7,6.3,2.6,10.7,2.9c-0.1,0.6-0.1,1.2-0.1,1.8
		C145.5,137.8,142.9,138.2,140.3,138.5"/>
	<path class="st0" d="M32.2,136.8c-3.3-1.1-8.1-4.3-9-7.8c2.9,0.4,4.8,1.7,7.2,3.1c2.2,0.1,7.2-0.4,8.7,0.2
		C38.4,135.4,34.8,136.1,32.2,136.8"/>
	<path class="st1" d="M69.5,134.1c-0.7-0.8-0.7-0.8-1-2.4c1.7-1.1,0.6-4.1,0.2-5.7h1.3c1.4,1.4,1.3,5.1,1.6,7
		C71,133.4,70.3,133.7,69.5,134.1"/>
	<path class="st1" d="M169,134.1c-0.4-0.6-0.4-0.6-2.3-1.7c-1-2.7-1.6-4.3-1.6-7.2c0.4-0.1,0.7-0.2,1.1-0.4c0.4,4.5,2.1,5.1,6.1,6.2
		v0.8C171.2,132.6,170.1,133.4,169,134.1"/>
	<path class="st1" d="M54.4,133.7c-0.6-0.8-0.6-0.8-0.7-2c0.2,0,0.5,0.1,0.8,0.2c0.2,0.6,0.5,1.2,0.7,1.8H54.4"/>
	<path class="st0" d="M88.3,132.5c-0.2-0.5-0.5-1-0.7-1.3c0.4-0.1,0.7-0.1,1.1-0.1c0.1,0.5,0.2,1,0.4,1.4H88.3"/>
	<path class="st0" d="M90.7,132.5c0-0.6,0.1-1.1,0.2-1.5c0.2,0.1,0.6,0.2,1,0.4v1.2H90.7"/>
	<path class="st0" d="M93.1,132.5v-1.7h0.7c0.1,0.2,0.2,0.5,0.4,0.8C93.8,131.9,93.4,132.2,93.1,132.5"/>
	<rect x="95.5" y="131.7" class="st0" width="0.4" height="0.8"/>
	<rect x="187.7" y="132" class="st1" width="0.8" height="0.5"/>
	<path class="st1" d="M50.8,131.3c0.2-1.4,0.5-2.7,0.8-4.1c1-0.2,1-0.2,3.1,0.4C54,128.5,51.9,131,50.8,131.3"/>
	<path class="st1" d="M154,128.5c0.1-1,0.2-1.9,0.4-2.7c0.6-0.1,1.2-0.1,1.8-0.1v1.1C155.4,127.3,154.7,127.9,154,128.5"/>
	<path class="st1" d="M67.2,128.1c0-1.2,0-1.2,0.4-1.2c0.1,0.2,0.2,0.5,0.4,0.8C67.6,127.9,67.4,128,67.2,128.1"/>
	<path class="st1" d="M140.3,125.4c-0.1-0.2-0.2-0.5-0.4-0.6c0.6-0.1,1.3-0.1,2-0.1C141.4,124.9,140.8,125.1,140.3,125.4"/>
	<rect x="35.3" y="124.2" class="st1" width="1.2" height="0.7"/>
	<path class="st1" d="M64.8,124.9c-0.1-0.4-0.2-0.7-0.4-1c1-1.6,1.9-1.4,3.7-0.8c0.1,0.5,0.4,1,0.6,1.4
		C67.5,124.3,67.5,124.3,64.8,124.9"/>
	<path class="st1" d="M36.9,124.5c0.4-0.6,0.7-1.2,1.1-1.8c-10.2,0-14.3-3.1-13.7-13c1-2.4,1.9-3.9,3.6-5.9c0,6.4-0.5,9.6,4.4,13.7
		c4.7,0,8.4-0.5,10,4.2C41.6,123.2,38.6,124.4,36.9,124.5"/>
	<path class="st1" d="M75.2,124.5v-2c0.4,0,0.7,0,1.2,0.1c1.8-3,2.8-6.1,3.7-9.4c-0.1-0.2-0.2-0.4-0.4-0.5c-3,3.6-5.6,5.3-10.4,5.6
		c0.1-0.5,0.2-0.8,0.4-1.2c6.1-1.7,7.2-9.1,12.7-10.9C84,115.6,85.1,121.1,75.2,124.5"/>
	<path class="st1" d="M165.1,123.3c0.1-0.7,0.2-1.4,0.4-2c0.7,0,1.5,0,2.4,0.1c-0.1,0.4-0.1,0.7-0.1,1.2
		C166.7,122.8,165.9,123.1,165.1,123.3"/>
	<path class="st0" d="M212,123.3v-2.2c5.4-3.6,5.1-5,5.8-11.1c-1.1-3.1-2.1-6.1-3.2-9.1c0-9.3,7.6-9.4,14.6-7.3
		c1.8,3.2,4.8,10.6,9.3,10.6c-0.8-1.1-0.8-1.1-1-2.5c5.3,2.1,5.3,2.1,5.6,1.9c-0.7-1.1-0.7-1.1-0.6-1.8c2.1,0.5,2.1,0.5,3.7,0.4
		c-0.7-0.7-1.4-1.4-2-2.1c2.3-0.2,2.3-0.2,3.7,0.2v-1.6c-2-1.7-3.7-3-6-4.3c1.2-0.4,2.4-0.7,3.7-1c-3.9-2.4-8.6-1.3-12.9-0.7
		c-7.5-3.3-11.2-4.2-18.6-0.5c-4.2,6.7-2.1,10,0.1,17.8c0,4.9-2.6,10.9-7.4,12.8c0-0.4,0.1-0.7,0.2-1.1c2.5-1.7,3.3-3.8,4.7-6.6
		c0-11.7-6.1-22.7,8.8-27.2c5.5,0,8.7,1.3,14,3.1c9.8-0.5,12.1-0.7,16,8.4c0.6,0.6,3,3.3,2.5,4.4c-1.1-0.2-2.1-0.4-3.1-0.5
		c-1.3,2.7-9.8,2.3-12.4,2.5c-5-2.2-7.2-6.6-9.7-11.1c-2.3-0.5-4.5-1-6.7-1.3c-8.6,4.5-4.1,10.1-1.8,17.8
		C219.4,117.2,217.4,121.1,212,123.3"/>
	<path class="st0" d="M185,123c-2.3-1-2.3-1-2.7-1.7c3.9-3,8.2-6,9.9-10.7c0.2,0,0.5,0.1,0.8,0.2C191.7,116.3,190.9,122,185,123"/>
	<path class="st2" d="M351.8,118.5c-1-0.5-2-1-2.9-1.5c1.2-0.7,1.2-0.7,4.9-1c0-0.5,0-1,0.2-1.5c0.7,0.2,1.4,0.5,2.2,0.8
		c0.5-0.8,1.2-1.7,1.9-2.5v5.2C355.9,118.1,353.8,118.3,351.8,118.5"/>
	<path class="st2" d="M359.6,117.8c0.5-5.4,2.4-9,1.5-0.5C360.6,117.5,360.1,117.6,359.6,117.8"/>
	<path class="st2" d="M363,117.3c0.3-4.4,1-5.1,4.2-7.8C363.8,116.9,363.8,116.9,363,117.3"/>
	<path class="st2" d="M365.8,117.3c0.5-1.7,1-3.4,1.7-5.1c1.5,0,2-0.8,2.9-2c0.2,1-2.2,5.1-2.5,6.6
		C367.2,116.9,366.5,117.1,365.8,117.3"/>
	<path class="st1" d="M151.1,121.8c-0.1-0.8-0.2-1.7-0.4-2.4c-0.8-0.2-1.6-0.4-2.3-0.5c-2.4-5.4,1.8-9,5.4-12.5
		c1.6-0.4,3.1-0.6,4.8-0.8c0.1-0.5,0.2-1,0.5-1.3c2.2,0.2,4.3,0.6,6.4,1c0.2-0.4,0.5-0.6,0.8-0.8c2.5,0.8,5,1.7,7.5,2.5
		c0,2.7-1.8,5.1-3.2,7.5c-1.1,0-1.9-0.8-2.5-1.7c-1.8,1.4-3.9,2-5.5,3.6c-1,0-1.4-0.7-3-0.6c-0.5,0.8-1,1.7-1.3,2.6
		c-1.1,0-1.1,0-2.3-0.8c-0.8,1.1-0.8,1.1-1.4,3.8c-0.8-0.2-1.6-0.5-2.3-0.7C152,121.4,152,121.4,151.1,121.8"/>
	<path class="st1" d="M63.2,118.9c0.2-1.1,0.6-2,1-3c0.4,0.2,0.7,0.6,1.2,1c-0.1,0.5-0.1,1-0.1,1.4
		C64.5,118.4,63.8,118.7,63.2,118.9"/>
	<path class="st1" d="M143.2,117.7V117c-3.3-1.2-4.1-3.1-6.3-5.6c0.4-4.7-0.1-7.6,4.3-9.8c0.1,0.1,0.4,0.2,0.6,0.5
		c-2.3,8.6,2.7,8,2.7,15C144.1,117.2,143.6,117.5,143.2,117.7"/>
	<path class="st1" d="M174.6,112.9c0.1-1.9,0.7-3.1,2.4-3.9c3.9-7.2,3.6-9.7-1.4-15.6c9.2,0,12.2,9.8,8.7,16.8V107
		c-0.4-0.1-0.6-0.2-0.8-0.2c-0.4,0.4-0.7,0.7-1.1,1.1C181.4,111.3,178.1,112.6,174.6,112.9"/>
	<path class="st1" d="M69.9,108.2c-0.7-1-1.3-1.8-1.9-2.6c1.3-3.5,1.1-4.5-1.1-7.8c-4.3-3.3-4.3-3.3-4.3-3.8
		c1.3,0.1,2.6,0.2,4.1,0.5c2.7,1.2,5.8,2.4,7,4.9c-0.6,2.9-1.2,5.9-1.8,8.8H69.9"/>
	<path class="st5" d="M184.2,103.9c0.1-0.4,0.2-0.7,0.4-1.1C184.6,103.5,184.6,103.5,184.2,103.9"/>
	<path class="st0" d="M205.7,103c-1.1-3.6-1.8-5.7,0.8-8.4v8.4H205.7"/>
	<path class="st0" d="M138,81.2v-0.9c-8.3-0.6-8.3-0.6-12.1-1.4c0-0.4,0-0.4,3.3-1.5c0.3-1.3,0.5-2.4,0.9-3.5
		C118.4,71.2,107,68,95,67.5c-0.1-0.3-0.3-0.5-0.4-0.8c-19.9-3.5-39-6.4-59.1-8.6C24.6,58.1,13.7,57.6,2.9,56
		c-0.4-0.3-0.8-0.5-1-0.6c0-7.2-3.4-24,6.4-25.6v0.9c4.7,1.4,8.2,1.8,9.7-4.3c2.6-0.3,5.6-1.5,6.7-4.2c9-2.1,5.8,1.5,11.2,6.2
		c2.3-0.9,3-1.4,5.6-1c1.9,2.8,2.3,4,3.3,5c0.8-1.5,1.5-1.9,3-2.7v-0.9h0.9v-0.8h0.9c0.3-1.1,0.3-1.1,2.5-4.7c3.2-0.1,5.4-0.3,8-0.9
		c0.5,2.5,0.9,5.2,2.4,7.2h1.9c0.6-1.3,1-1,2.4-1.3v-2.1c3-1,4.5-1.6,7.7-0.9c0.8,1.5,1.5,3,2.3,4.5c1.6,0,2.7,0.4,3.9,1.4v12.2
		c3.2,0,7.2-1.4,10.6-1.6c0.5,3,1,6.1,1.6,9.2c0.5,0,1.1,0.1,1.8,0.3c1.9,3.9,9-5.8,12.1,0.6h1.3c0.1,2.3,0.1,2.3,1.5,6.3
		c3.4,0,5.2-2.5,9.1-2.1c1.4,2.5,2.1,5.1,3.5,7.1c3.3-1.5,4.9-1.9,8.6-1.6c0.5,1.4,1,2.8,1.6,4.3c0.4-0.1,0.9-0.3,1.4-0.4
		c0.1-0.4,0.3-0.6,0.4-0.9h0.8c0.6-1.4,3-5.9,2.6-7.3c-1.1-0.1-2.3-0.3-3.4-0.3c-0.4-0.5-0.6-1-0.9-1.4c-2.3-0.1-4,1.3-6.1-0.3
		c-0.9-1.8-0.9-1.8-1.5-6.1c-0.4-0.1-0.6-0.3-0.9-0.4c0,0.8,0.1,1.6,0.3,2.5c-0.3,0-0.5,0.1-0.8,0.3c-2.4-2.4-3.2-1.6-6.8-0.9
		c-1.8-2.4-2.1-3-2.8-6.1h0.9c-2.1-4.3-6.2-2.5-3.9-8.7c1.3-1.1,1.3-1.1,2.3-1.4c-0.1-1-0.3-2-0.4-3c-2.8-1.5-2.8-1.5-3.3-2.4
		c0.1-2.1-0.1-4.4,1.9-5.1v-3.8c0.6-0.4,1.3-0.8,1.9-1c3.3-3.9,5.4-4.4,10.4-3.5c1.6-0.5,2-2.1,2.9-3.5c3.3-1.1,6.4-2.4,9.7-2.9V8.7
		h1.3c2,3.4,3.8,2.7,7.6,2.9c1.4,2.7,1.4,2.7,1.6,3.9c1.1-0.3,2.3-0.4,3.4-0.5c0.1-0.5,0.3-1,0.4-1.5c0.8-0.5,1.5-0.9,2.3-1.3
		c7.8,0.9,9.3-3.5,12.9,4.9c3.9,0.6,7.1,2.1,10.6,3.9c-0.4,1.4-0.3,3.7-0.9,5.8c2.3-0.1,2.3-0.1,4.7,0.4c0-0.3,0.1-0.5,0.3-0.8
		c0.3,0.1,0.6,0.3,1,0.4c-0.1,2-0.3,4-0.3,6.1c-1,3.2-3.7,7.4-3.7,10.7c0.4,0.4,0.9,0.8,1.4,1.1c0,1.4,0.1,2.9,0.3,4.4
		c-3.4,2.7-7.7,4-9.6,8h-0.8v0.8c-4.5,0.9-10,0.6-14.8,1c-1.6,0.9-1.6,0.9-5.3,1.8c-0.8-0.6-0.8-0.6-1-1.5c-1.3-0.1-2.5-0.3-3.8-0.4
		c-1.1,3.8-1.1,3.8-1,5.6c0.5,0.1,1,0.3,1.6,0.5c1.9-0.9,2.9-0.9,4.9-1c2,4.2,4.2,4.8,8.5,5.2c7.8-1.4,28.7-2.5,34-10.6h0.9v-0.9
		c1.6-0.6,2.4-1.4,4.3-1.4c1,1,2.6,0.6,4,0.1v-0.9h0.9v-0.8h0.9c0.8-2,0.8-2,5-8.5h0.8c1.5-4.3,5.4-1.3,8.3-1.6
		c0-3.8,10.6-11.4,13.8-10.6c0.8,1.1,1.5,2.3,2.3,3.4c1.4,0.1,1.4,0.1,4.3-0.9v-0.8c1.9-1,1.9-1,5.4-1.8c1.4,2.9,2.8,5.8,4.3,8.8
		h1.3c-0.3-2.7-0.4-5.3-0.5-8c3.7-0.8,6.4-1,10.2-0.8c0.5,1.1,0.5,1.1,0.6,5.1c4.3,0,5.7-2.5,9.3-3.9v-0.8c2,0.8,2.3,0.9,3.3,2.9
		c5.7,0,11-7.8,15.2-0.3c0.5-0.6,0.5-0.6,1.4-0.6c2-4,4-6.1,8.2-6.6c12.2,2.3,24.6,4.5,37,6.8c1.8-0.9,7.7-3.2,8.2-4.8h0.9V31h0.9
		c0-0.4,0.1-0.8,0.3-1c1-0.1,2-0.3,3-0.3c1.5,3.7,4.2,3,7.2,3.4c0.1-0.6,0.3-1.3,0.4-1.8c1.8-0.3,2.8-0.9,4.7-0.1
		c0.4,1.3,0.8,2.5,1.1,3.8c0.8,0,1.5,0,2.3,0.1c0,0.3,0.1,0.5,0.3,0.8c0.5-0.1,1.1-0.3,1.8-0.3c1,2.3,1.3,4.2,3.9,4.2
		c1.4-2.9,4-3.2,7.1-3.4v-0.8c0.6,0.1,1.4,0.3,2.2,0.4c3.5,9,3.4,5,10.9,3.4v-0.9c1.3,0.6,0.9,1.1,2,2.4c0.4-0.1,0.9-0.3,1.4-0.3
		c0,4.8,3.5,4.9,4.2,8.8h0.9v3.3h0.9v1.3c-10.1-0.6-26.8-3.8-36.5,0c1.4,0.8,6.4,2.7,6.9,4.3c1.3,0.3,2.5,0.5,3.8,0.8v0.9
		c4.7,0.4,8.7,3,13.1,4.3c0.3,0.6,0.5,1.3,0.8,2c-0.6,0.1-1.1,0.3-1.6,0.4v2.1c10.7,0.6,10.7,0.6,12,1.1c-5.9,0.3-5.9,0.3-11.4-0.1
		c-1.5,2-1.3,3.7-0.8,6.2c0.8,0.4,4.9,1.5,5.6,1.3c0.4,0.9,0.4,0.9,1.3,1.3c-0.1,0.5-0.3,1-0.4,1.5c-7.2-1-14.5-0.5-21.8-1.4
		c-1.6,0-3.2,0.1-4.7,0.3c2.3-4.5,6.2-0.6,10.5-1.6v0.8c2.8-0.4,4.4-1.1,7.2-0.4c0.1-3.2,0.1-3.2-0.4-5c0.3-0.3,0.6-0.4,1-0.5
		c-0.5-1-0.9-0.9-1.9-1.1v-0.9c0.4-0.1,0.8-0.3,1.3-0.4c-0.1-0.5-0.3-1-0.4-1.4c0.3-0.3,0.5-0.5,0.8-0.6c-4.9-1.9-11.6-1.3-16.8-1
		v0.9h-1.3c-0.3-0.5-0.4-1-0.5-1.5c-4.2-0.5-8.3-0.9-12.4-1.3c-2.3,0.8-1.8,3.8-1.9,5.7c0.5,0.1,1,0.3,1.5,0.4
		c-0.5,0.3-1,0.5-1.5,0.9c0.3,5.3,0.3,5.3,0.8,6.1c2-0.1,4-0.3,6.2-0.3c-0.1,0.5-0.3,1.1-0.4,1.8c-8.8,0.3-17.7,0.6-26.5,1
		c-0.4-0.4-0.8-0.8-1-1.1c2.5-0.4,5.1-0.6,7.6-0.9c-7.6-3.8-18.8,0.8-27.1-2.3v-0.9c0.3,0.3,0.6,0.5,1,0.8c1-2-0.9-4,0.4-6.1
		c0-1.8,0.1-3.5,0.3-5.2c-0.3-0.3-0.5-0.5-0.8-0.8c1.3-4,0.5-7.5-0.4-11.4c-9.5-12.4-9.5-12.4-9.6-13.1h-0.9c-1-1.6-2.9-4.4-5.2-3.9
		c-4.2,6.3-8.2,12.6-12.2,19.1c-0.3,4.5-0.5,9.2-0.6,13.9c0.3,0,0.6,0.1,1,0.3c-0.4,1.6-0.8,3.4-1,5.2h1.3c0-0.4,0.1-0.8,0.3-1
		c1.4-0.1,2.4,0.4,4.4,0.1c0,0.3,0.1,0.5,0.3,0.9h6.1c0.4,0.9,0.4,0.9,1,1.1c-3.9,1.9-11-1.1-16,0.8c-5.9,0.4-5.9,0.4-7.7,0
		c0.9-0.3,1.9-0.5,2.9-0.6v-0.9c1.3-0.1,2.5-0.3,3.8-0.4c0,0.3,0,0.5,0.1,0.9c1-1.5,1-1.5,1.1-2.6c-3.9,0-14.1,0.8-17-2.1
		c2-0.6,4.2-1.1,6.3-1.6c-0.1-4-0.3-8.1-0.3-12.1h-0.8c-0.5-1.1-3.9-4.4-4.3-5.4h-0.8c-4.8-5.3-4.8-5.3-5.1-6.3
		c-0.5-0.1-1-0.1-1.4-0.1c-2.9,3.2-2.9,3.2-3.3,4.3h-0.9c-2.9,4.4-6.1,7.3-5.4,13c-0.3,0.1-0.5,0.3-0.6,0.4c0.4,1.3,0.1,2.4-0.5,3.7
		c0.3,1,0.5,2,0.8,3.2c4,0,8,0.1,11.9,1.1c-6.4,0.8-13,0.6-19.4,0.5v-0.8c2.9-0.3,2.9-0.3,4.7-0.9v-1.4c-29.2,0-58.3,2.1-87.5,2.8
		c-5,0.5-10.1,1-15.2,1.5c4.5,4.5,14.1,4.5,20.1,5.6v0.8c-6.9-1-14-2.5-21-2.1c0.1,0.6,0.3,1.4,0.4,2.1c2,0.2,3.9,0.8,5.6,1.9
		c1.8,0,3.7,0,5.6,0.1C146.2,80.4,142,80.8,138,81.2"/>
	<path class="st1" d="M131.2,78.6c1.9-7.6,5.1-14.5,8.2-21.7c-0.4-5.1-0.4-5.1,0-6.9c0.4,1.1,0.8,2.3,1.1,3.4c0.3,0,0.5,0.1,0.9,0.3
		c1.5-1.8,1.5-1.8,2.8-4.2h1.1c0.3,1,0.5,2.1,0.9,3.3c1.4-0.5,1.4-0.5,2.1-0.4c-2.1,2.9-4.3,5.8-6.3,8.7c-0.5,0-0.9,0-1.3,0.1
		c-0.1,1-0.3,2-0.3,3.2c-0.6,0.1-1.3,0.3-1.8,0.4c-0.3,1.1-0.5,2.3-0.6,3.5c0.5-0.1,1-0.3,1.5-0.3c-0.6,1.8-1.1,3.7-1.6,5.6
		c-0.4-0.1-0.6-0.3-0.9-0.4c0.6-2.6,0.6-2.6,0.6-4.7c-1.3,2.9-2.4,5.8-3.5,8.8C133.2,77.8,132.2,78.1,131.2,78.6"/>
	<path class="st1" d="M342.5,77.7c-3-1.1-5.6-1.6-8.7-2c-1.8-6.4-0.9-13.6-1-20.3c4.7,0,11.1,5.4,14.9,8c0,1.6-0.9,5.1,0,6.4
		c-0.3,0.3-0.4,0.5-0.5,0.9c0.8,2.3-0.1,4.7,0.4,7.1H342.5"/>
	<path class="st1" d="M318,76.5c-0.9-0.6-0.9-0.6-5.2-1.6c0-6.9,0-13.9,0.1-20.7c2.3,0,4.5,0,6.8,0.1c0.1,0.3,0.4,0.5,0.6,0.8
		c-1,1.4-1,1.4-1.4,3.3c2.7,0.1,6.6,1.1,9,0c-0.6-1.1-1.3-2.3-1.8-3.4c3-0.1,3-0.1,4.5,0.4c0.3,2.4,0.5,4.8,0.8,7.3
		c-1.1,0-2.1,0.1-3.2,0.3c0.9,1,1.8,2,2.7,3.2c-0.4,0.1-0.8,0.4-1,0.6c0,1.1,0,1.1,1.3,3.5c0,1.6,0.1,3.3,0.3,5
		c-2.8,0-8.6-1.4-10.6,0.6C319.4,75.3,319.2,75.9,318,76.5"/>
	<path class="st0" d="M374.1,71.8V68c0.3,0,0.5,0.1,0.9,0.3c0,0.9,0,1.8,0.1,2.8C374.7,71.3,374.4,71.6,374.1,71.8"/>
	<path class="st0" d="M358.4,71.4c-0.1-1.5-0.1-3-0.1-4.5c1.9,0,1,3.2,0.8,4.3C358.8,71.2,358.6,71.3,358.4,71.4"/>
	<path class="st2" d="M141.3,70.2c0.1-1.3,0.3-2.5,0.4-3.7c0.5-0.3,1.1-0.4,1.8-0.5v1.3c0.9-0.5,1.8-1,2.7-1.5
		c0,0.3,0.1,0.5,0.3,0.8c0.5-0.1,1-0.3,1.6-0.3c0.1-0.3,0.3-0.5,0.5-0.8c0.1,0.6,0.3,1.3,0.5,2c0.4,0.1,0.8,0.3,1.1,0.4
		c0.1,0.4,0.3,0.9,0.5,1.4C147.5,69.5,144.3,69.8,141.3,70.2"/>
	<path class="st2" d="M121.4,69.6c-0.5-0.3-1-0.5-1.4-0.8c-21.7-3.4-43.4-7.5-65-10.5c-17.1-1.3-34-2.5-51-3.8
		c-2-2.5-0.9-14.3-0.8-18.2C5,34.6,7,33.2,7.7,30.8c0.4,0.5,0.8,1.1,1.1,1.8c1.7-0.8,2.3,0.1,3.3,1.4c1.4-0.3,2.8-0.4,4.3-0.5
		c0.4-2.3,3.4-3.8,3.1-6.1c1.3-0.5,2.7-1,4.1-1.5c2.4-2.8,2.7-3,6.5-3.3c0.1,0.3,0.3,0.5,0.4,0.8c0.3-0.1,0.5-0.3,0.9-0.4
		c1,3.4,1.3,3.2,1.8,6.1c0.6-0.1,1.4-0.1,2.2-0.1c0.3,0.3,0.5,0.5,0.9,0.8c2.2-1.3,2.7-1.4,5.4-1.4v2c2.8,0,1.5,3.5,5.5,2.9
		c0.3-0.8,0.6-1.4,1-2c0.5-0.1,1-0.3,1.7-0.3c0-0.8,0.1-1.5,0.3-2.3c0.6-0.1,1.3-0.1,2-0.1c0.4-1.3,0.8-2.5,1.1-3.8
		c2.8-0.4,3.4,0.1,6.4,0.5v1.5c0.4-0.1,0.8-0.1,1.1-0.1c0,2.5,0.4,3.3,1.5,5.3c0.9,0,5.4-0.5,5.9-0.9C68,30.8,68,30.6,68,30.5
		c1.1-0.8,1.1-0.8,2.2-0.8c0.3-1.8,0.4-2.4,1.8-3.4c0.3,0.3,0.6,0.6,1,1c0.4-0.4,0.8-0.6,1.1-0.9c0.3,0.1,0.5,0.3,0.8,0.4
		c0.1,0.9,0.3,1.9,0.5,2.9c0.1-0.1,0.4-0.3,0.6-0.4c0.6,1,1.4,2,2.2,3h2.7c-0.5,0.9-0.9,1.8-1.3,2.8c0.3,0.1,0.6,0.3,1,0.4
		c-0.3,1.4-1.4,2.8-1.9,4.3h0.6c-0.3,1.3-0.5,2.5-0.6,3.8c0.5-0.4,0.5-0.4,1.7-0.4c0.1,0.8,0.3,1.6,0.5,2.5c2.3-0.3,3.4-0.3,4.7-2
		c3.3,0.4,3.3,0.4,3.8,0.8c0.4-0.5,0.9-0.9,1.4-1.3c0.3,1.9,0.3,1.9-0.3,3.3c1.1,1.1,0.6,2.9,0.4,4.4c0.5,0,1,0,1.7,0.1v1.5
		c2,0.5,4.1,1.1,6.2,1.8c0-1.6,2.5-2.2,3.7-2.8c0.1,0.1,0.4,0.3,0.6,0.5c1.5-1.3,1.5-1.3,2.5-1.4c0.3,0.9,0.5,1.8,0.8,2.7
		c0.5,0.1,1,0.3,1.5,0.5c-0.1,0.9-0.3,1.9-0.4,2.9c0.3,0,0.5,0,0.9,0.1v2.8c1.5,0,1.5,0,2.7,0.8c1.3-0.8,2-0.8,3.6-0.8
		c0.6-0.9,1.3-1.8,2-2.5c0.3,0.4,0.5,0.9,0.8,1.4c0.6-0.3,1.3-0.4,1.9-0.5c-0.1,1.1-0.1,2.3-0.1,3.4c0.5,0,1,0,1.7,0.1
		c0,0.9,0,1.9,0.1,2.9c2.9,0.1,5.2,0.5,6.9-1.8c0.9,0,0.9,0.5,1.4,1.3c0.4-0.1,0.8-0.3,1.2-0.4v2c0.3-0.1,0.6-0.3,1-0.3
		c0,0.9,0.1,1.8,0.3,2.8c0.5-0.5,0.5-0.5,2-0.4c0.5,0.5,0.5,0.5,0.8,1.9H121.4"/>
	<path class="st1" d="M270.6,69.3c-1.6-2.5-0.5-7.8-0.5-10.9c2,0,4-0.4,5.7,0.8c-1.3,8.5-1.3,8.5-1.9,9.5
		C272.7,68.8,271.6,69,270.6,69.3"/>
	<path class="st1" d="M278.1,69.3v-0.8c-0.5-0.3-1-0.5-1.5-0.8c-0.1-0.5-0.3-1-0.3-1.4C278.8,66.1,279.8,68.5,278.1,69.3"/>
	<path class="st1" d="M172.5,68.9c-0.1-0.3-0.3-0.5-0.3-0.6c19.3-4.8,38.9-7.7,58.6-10.1c3.8-1.5,7.3-2,11.4-1.1
		c0.1-0.4,0.4-0.8,0.6-1.1c0.8,3.2,0.5,6.7,0.4,10.1C219.6,66,196.1,68,172.5,68.9"/>
	<path class="st0" d="M339.5,68.9c-0.6-1.8-0.6-1.8-0.8-4.7c0.6-0.1,1.3-0.1,1.9-0.1c-0.3,1.5-0.4,3-0.5,4.5
		C339.9,68.7,339.6,68.8,339.5,68.9"/>
	<rect x="321.1" y="67.3" class="st5" width="0.4" height="0.8"/>
	<path class="st5" d="M326.1,68c0.3-0.5,0.3-0.5,1.3-0.8V68H326.1"/>
	<path class="st5" d="M297.1,67.6c-0.1-0.5-0.1-1-0.1-1.5C297,66.6,297,67.1,297.1,67.6"/>
	<path class="st0" d="M253.3,66.4v-9.7c1.9-0.1,3.9-0.3,5.9-0.4c0.1,3.3,0.3,6.6,0.5,9.8C257.6,66.1,255.4,66.3,253.3,66.4"/>
	<path class="st5" d="M300,66c-0.4-0.8-0.4-0.8,0.1-1.3c0.5,0.1,0.5,0.1,1.1,1.3H300"/>
	<rect x="305.9" y="65.5" class="st5" width="0.8" height="0.5"/>
	<rect x="323.6" y="64.2" class="st5" width="0.8" height="0.9"/>
	<path class="st7" d="M368.5,65.1c-10.6-1.9-20.7-1.5-29.3-8.7c2.6,0,5.4,1.8,8.3,2v-0.9c2,0.6,2,0.6,5.4,0.9c0,0.3,0.1,0.5,0.3,0.9
		c1.6,0.4,4,1.6,5.7,1.1v-0.8c-3.5-1-7.1-2-10.6-3c0.1-0.3,0.3-0.5,0.4-0.6c1.4,0,2.8,0.1,4.3,0.3v1.3c1.3-0.1,2.5-0.1,3.8-0.1
		c0.1,0.2,0.3,0.6,0.4,1h2.5v-0.5c-2-0.4-2-0.4-2-0.8c6.2,0.5,9.6,2.1,15.2,4.2v0.9c3.4,0.3,5.4,0.6,8.3,2.3
		C376.9,64.6,372.7,64.9,368.5,65.1"/>
	<path class="st1" d="M254.2,64.2c-0.4-4.2-0.4-4.2,0-5.8c0.3,0,0.5,0,0.9,0.1C255,60.6,254.8,62.3,254.2,64.2"/>
	<path class="st2" d="M191,63c-0.1-0.3-0.3-0.4-0.4-0.5c0.6-0.1,1.3-0.3,1.9-0.4c1.1-4.9,5.8-2.9,9.2-3.4c0.4-1.9,1.5-2.3,3-3.4
		c0.3-1.1,0.5-2.1,0.9-3.2c3.5,0,3.4-10.5,10.4-5.3c3.3-0.9,3.3-2.7,4.4-5.7c0.8,0,1.5,0.1,2.4,0.3c0-0.4,0-0.8,0.1-1.1
		c0.4-0.1,0.8-0.1,1.1-0.1c0.1-0.5,0.3-0.9,0.4-1.3c2-0.5,3.8-2.4,5.7-3.5c1.4,1.4,2.3,1.6,2.3,4c0.6,0.3,0.6,0.3,1.3-0.3
		c0.4,0.3,0.8,0.5,1.1,0.9c0.4-0.6,0.9-1.1,1.4-1.6c0.5,0,1,0,1.5,0.1c0.8-1.8,0.8-1.8,1.6-2.3c0.3,0.3,0.6,0.5,1,0.9
		c0.6-0.5,1.3-1,1.9-1.4c0.1,0.9,0.4,1.8,0.6,2.7c0.5-0.3,1-0.5,1.5-0.6c0,1.4,0,2.8,0.1,4.2c0.6,0,1.3,0,2,0.1c0,1,0,2,0.1,3
		c0.6-0.1,1.4-0.3,2.1-0.3c-0.6,4-4.8,7.3-7.3,10.4C198.7,61.5,198.7,61.5,191,63"/>
	<rect x="325.6" y="62.6" class="st5" width="0.5" height="0.4"/>
	<path class="st0" d="M334.5,62.6c0-0.6,0.1-1.3,0.3-1.9c0.3-0.1,0.6-0.3,1-0.3C335.2,61.1,334.8,61.8,334.5,62.6"/>
	<path class="st5" d="M117.3,62.2c0-0.1,0.1-0.3,0.3-0.4C117.4,62,117.3,62.1,117.3,62.2"/>
	<path class="st0" d="M364,61.3c-0.1-0.3-0.3-0.4-0.4-0.5c0.9-0.1,1.9-0.1,2.9-0.1C365.6,60.8,364.8,61.1,364,61.3"/>
	<path class="st0" d="M284.8,59.7c0.3-1.3,0.5-2.5,0.9-3.8h1.3V55c2.5,0.1,4.7,1,4,3.9C288.9,59.2,286.9,59.4,284.8,59.7"/>
	<rect x="360.6" y="58.8" class="st0" width="2.5" height="0.9"/>
	<rect x="363.5" y="59.2" class="st0" width="0.5" height="0.5"/>
	<path class="st2" d="M150.6,59.2c0-0.5,0-0.9,0.1-1.3c1.8-0.6,1.8-0.6,3-0.5v1C152.7,58.7,151.6,58.9,150.6,59.2"/>
	<path class="st0" d="M297.5,58.8c1.4-5.6,7.1-7.4,8.5-0.9C303,58.2,300.2,58.4,297.5,58.8"/>
	<path class="st1" d="M286.5,58.4v-0.9c0.1,0,0.4,0.1,0.6,0.3C286.9,57.9,286.6,58.2,286.5,58.4"/>
	<path class="st2" d="M146.8,57.9c0-0.6,0.1-1.3,0.3-1.8h3.8c-0.1,0.3-0.3,0.6-0.3,1C148.6,57.3,148.6,57.3,146.8,57.9"/>
	<path class="st1" d="M298.7,57.9c0.1-0.8,0.4-1.5,0.6-2.3c0.5-0.1,1-0.3,1.5-0.3c-0.3,0.6-0.4,1.4-0.5,2.1
		C299.7,57.7,299.2,57.8,298.7,57.9"/>
	<path class="st1" d="M325.2,57.9c-0.1-0.6-0.3-1.1-0.4-1.6c0.9,0.3,0.9,0.3,1.4,1.3C325.9,57.7,325.5,57.8,325.2,57.9"/>
	<path class="st7" d="M271.3,57.6c-0.2-0.5-0.5-0.8-0.6-1.1c-0.9-0.6-12.4-12-12.1-13.9c7.9,0.9,15.7,1.8,23.7,2.9
		c-0.1,0.3-0.2,0.8-0.2,1.3c-0.9,0.2-1.8,0.5-2.7,0.8c-0.2,0.5-0.3,1-0.5,1.6c-1-0.6-2-1.1-3-1.6c-0.2,0.3-0.5,0.7-0.7,1.1
		c0.6,0.2,1.1,0.5,1.8,0.8c0.1,0.7,0.2,1.4,0.3,2.1c0.2,0,0.5,0.1,0.8,0.2c-0.1,1.7-1.6,4.1-0.7,5.6
		C275.4,57.3,273.3,57.4,271.3,57.6"/>
	<path class="st2" d="M154.8,57.2v-1.3h0.9C155.3,56.3,155.1,56.7,154.8,57.2"/>
	<path class="st2" d="M157.3,57.2v-1.8c0.5,0.1,1,0.3,1.5,0.4c-0.1,0.3-0.3,0.5-0.3,0.9C158.1,56.8,157.7,56.9,157.3,57.2"/>
	<path class="st2" d="M162,57.2c-0.1-0.9-0.3-1.6-0.4-2.4c2.6-1.5,6.1-1.9,7.6-4.4c0.1-3.3,0.1-3.3-0.8-7.8
		c-0.5,0.1-0.9,0.3-1.3,0.5c0,2.9-1.4,4.5,0.1,7.1c-2.8,1.4-7.6,5-9.7,1.8c-1.3,0-1.3,0-2,0.5c-0.1-0.9-0.1-1.8-0.1-2.7
		c-2.6-1-6.3-0.5-9.3-1.4v-2c-2,0.8-3.5,0.6-5.9,0.8c-0.8,1.6-2.9,2.4-4.8,2.8c-0.1-0.6-0.3-1.3-0.4-1.8c-0.8,0-1.4,0.1-2,0.3
		c-0.3-0.6-0.4-1.1-0.5-1.6c-0.8,0.1-1.5,0.3-2.3,0.4c-0.1-1-0.3-1.9-0.3-2.8c-3.3-0.4-5.6-1.1-3.5-4.5c-0.1-0.4-0.3-0.8-0.3-1
		c-2.9,3.2-1.9,6.4-2.8,10.4c-0.3-0.4-0.5-0.8-0.8-1c-0.6,1.4-3.3,1.1-4.7,1c0.1-0.3,0.3-0.5,0.5-0.6c-0.6-0.3-1.3-0.5-1.8-0.8
		c0.3-1.9,0.6-3.8,1-5.7c-0.8-0.5-1.5-0.9-2.1-1.3c-1.3,1-2.4,0-3.4-0.6c-0.3-3.2,1.8-3.3,2.9-5.4c0.1-1.8,0.3-3.5,0.5-5.3
		c-1,0.1-1.9,0.3-2.8,0.4c-0.1-0.6-0.1-1.3-0.1-1.9c-0.4-0.1-0.8-0.3-1.1-0.3c0.6-1.5,0.9-2.5,2.4-3c-0.1-1-0.3-2-0.4-2.9
		c0.3-0.1,0.6-0.1,1-0.1c0.3-0.6,0.5-1.3,0.8-1.9c1.4,0,3.9-2.3,5.3-3.2c1,0.1,2,0.3,3.2,0.4c0.1,0.3,0.4,0.6,0.6,1
		c0.9-0.4,1.9-0.6,2.9-0.9c0-1,0.1-1.9,0.3-2.8c2.1-1,4.8-1.5,6.4-3.2c2.1,0.4,2.1,0.4,4.4,0.3c1.3,2.6,3.5,2.4,5.9,1.3
		c1.6,2.1,2.9,3.2,5.2,4.3c3.9-2.9,3.9-2.9,5.6-3.4c0.8,0.4,1.5,0.8,2.3,1.3c2.9-1.3,2.9-1.3,3.8-2.1c0.3,0.5,0.5,1,0.8,1.5
		c0.4-0.1,0.9-0.3,1.4-0.4c0.1,1.3,0.6,1.5,2.3,5.7C166,19,166,19,167.2,19v0.8c0.9-0.4,0.9-0.4,3.7,0c1.5,3.2,4.4-0.4,4.4,5.7
		c-2.9,5,3,3.3,5.7,3c0,3.8-1.5,7.6-2.9,11.1c-0.4,0.1-0.6,0.3-0.9,0.4c-0.5,1.8-2,3.7-1.8,5.4c0.8,0,1.5,0.1,2.3,0.3
		c0.3,1.3,0.5,2.5,0.8,3.9c-1.6,0-2,0.6-3,1.9c-1.4,0-2.8,0.1-4,0.3c-1.9,4.3-1.9,4.3-2.8,5.2c-0.6-0.5-0.6-0.5-1.8-0.5
		c0-1.4,0-1.4-0.5-2.5c-0.9,0.8-1.6,1.6-2.4,2.5c-0.3-0.5-0.5-0.9-0.8-1.3C162.8,55.8,162.4,56.4,162,57.2"/>
	<path class="st0" d="M342.9,56.7c0-0.4,0-0.8,0.1-1.1c0.6,0.1,1.3,0.3,2,0.5C344.3,56.2,343.5,56.4,342.9,56.7"/>
	<path class="st2" d="M129.6,55.9v-2.1c-0.4-0.1-0.8-0.3-1-0.4v-2.3h1.5c0.4,1.1,0.9,1.9,2,2.3c0-0.9,0-0.9,0.4-0.9
		c0.1,0.6,0.3,1.4,0.4,2.1C131.7,55,130.6,55.4,129.6,55.9"/>
	<path class="st2" d="M135,55.9c0.1-0.9,0.4-1.6,0.6-2.4c0.6,0.1,1.3,0.3,2,0.5c-0.1,0.4-0.3,0.8-0.3,1.1
		C136.5,55.4,135.7,55.7,135,55.9"/>
	<path class="st0" d="M336.6,55.4c-0.9-0.4-0.9-0.4-0.9-0.8h1.8v0.8H336.6"/>
	<path class="st7" d="M354.6,55.4c-1.2-0.6-1.2-0.6-5.3-1.4c-12.3-0.7-24.4-1.4-36.6-2c-5.2-6.3-10.4-12.5-15.5-18.7
		c15.5,0,32.2,4.4,47.4,7.8c4.3,4.7,13,12.8,13.9,14.3H354.6"/>
	<rect x="270.6" y="52.5" class="st0" width="0.8" height="1.3"/>
	<path class="st0" d="M347.1,53.4c-0.3-0.5-0.5-1-0.8-1.5c1,0.1,2,0.3,3.2,0.5C348.6,52.6,347.8,53,347.1,53.4"/>
	<rect x="352.1" y="52.1" class="st0" width="0.9" height="0.8"/>
	<path class="st2" d="M393,52.4c-11.5-0.7-23.1-0.9-34.6-1c-4.8-4.2-9.2-8.9-14.3-12.7c-2-0.5-4-0.9-5.9-1.2
		c-0.1-0.5-0.1-0.9-0.1-1.2c2.7-1.4,4.7-3.3,7.2-4.7c2.1,0.6,2.4,1.1,3.3,3c0.3-0.1,0.6-0.1,1-0.1c0,0.4,0,0.7,0.1,1.1h1.5
		c0-0.4,0-0.7,0.1-1.1c2.9,0,4.4-1,7.1-2.1c0.1,1.2,0.3,2.6,0.5,4c0.8-0.1,1.6-0.2,2.5-0.2c0,0.4,0,0.9,0.1,1.4
		c0.5-0.4,1-0.6,1.6-0.9c0.4,1.6,0.9,3.3,1.4,5.1c4.7-0.2,5.7-1.5,9.3-3.7c1.1,0.1,2.3,0.2,3.5,0.4c0.8,2.6,0.6,3.6,2.5,5.4
		c3.8-1.5,3.8-1.5,8.7-2.5c1.3,1,1.6,1.4,1.9,3c1.1,0,1.6,2,2,2.8c0.8,0.2,1.5,0.6,2.4,1c0.3,1.5,0.5,3,0.9,4.4H393"/>
	<path class="st0" d="M267.7,51.9c-0.6-0.5-1.1-1-1.6-1.4h2c0.1,0.4,0.3,0.9,0.4,1.4H267.7"/>
	<path class="st0" d="M274.7,51.2c0.4-1.3,0.4-1.3,0.9-1.3v1.3H274.7"/>
	<path class="st0" d="M342.5,51.2c0-0.6,0.1-1.1,0.3-1.6c-0.5-0.3-1-0.5-1.4-0.6c0-0.3,0-0.4,0.1-0.5c2.4,0.4,3.3,1.8,5.4,2.4
		C345.4,51,343.9,51.1,342.5,51.2"/>
	<path class="st0" d="M349.6,51.2c-0.1-0.5-0.3-1-0.3-1.4c1-0.1,1-0.1,2.1,0.4c0,0.1,0,0.4,0.1,0.6C350.9,51,350.2,51.1,349.6,51.2"
		/>
	<path class="st0" d="M273.1,50.9c-0.6-1-1.3-1-2.1-1.3c0-0.4,0.1-0.8,0.3-1.1c0.3-0.1,0.5-0.1,0.8-0.1
		C272.2,48.7,273,51,273.1,50.9"/>
	<path class="st0" d="M338.2,50.9c-0.2-0.5-0.5-1-0.6-1.5c-1.3,0-2,0.1-3-0.5c0-0.6,0-1.3,0.1-1.8c0.5-0.1,1-0.3,1.5-0.4
		c0.8,1.5,2.3,1.3,3.9,1.4c0,0.8,0,0.8-0.5,1.4c0.3,0.3,0.6,0.6,1,1C339.8,50.6,339,50.7,338.2,50.9"/>
	<path class="st0" d="M255.4,50.4v-2.5h2c-0.1,0.6-0.3,1.3-0.3,1.9C256.6,49.8,255.9,50.1,255.4,50.4"/>
	<path class="st0" d="M324,50.4c-0.4-0.6-2.3-1-2.8-1.8c2,0,2.5,0.4,4.3,1.4C325,50.1,324.5,50.2,324,50.4"/>
	<path class="st0" d="M263,48.7v-0.9h1.6C264.6,48.3,264.6,48.3,263,48.7"/>
	<path class="st0" d="M328.6,48.7c-0.9-0.4-0.9-0.4-0.9-0.9h2.1v0.9H328.6"/>
	<path class="st0" d="M348.8,48.7c-0.1-0.4-0.3-0.8-0.4-1h2.1v0.8C350,48.5,349.4,48.6,348.8,48.7"/>
	<path class="st0" d="M342.9,47.8c-1.1-1.4-3.8-2.8-4.5-3.9c3.2,0,5.2,0.9,6.7,3.9H342.9"/>
	<path class="st0" d="M267.5,47.4c-0.3-0.6-0.3-0.6,0.3-1.1c0.1,0.1,0.3,0.2,0.5,0.5C268,46.9,267.8,47.2,267.5,47.4"/>
	<path class="st0" d="M316.4,47.4v-0.9c0.9,0.1,1.8,0.3,2.6,0.4C318.2,47.1,317.3,47.2,316.4,47.4"/>
	<path class="st0" d="M323.6,47.4c-0.1-0.4-0.3-0.8-0.3-1c0.9,0,1.9,0.1,2.9,0.3C325.4,46.9,324.5,47.2,323.6,47.4"/>
	<path class="st0" d="M271.3,47.1c0.1-0.3,0.1-0.5,0.4-1.3c0.3,0.1,0.5,0.4,0.8,0.6C272.1,46.6,271.7,46.8,271.3,47.1"/>
	<path class="st0" d="M307.9,46.6c0.1-0.4,0.3-0.8,0.4-1c0,0.3,0.1,0.5,0.3,0.8C308.3,46.3,308.1,46.4,307.9,46.6"/>
	<path class="st0" d="M264.3,46.2v-0.9c-0.8-0.3-1.5-0.5-2.1-0.6c0.1,0,4,0.3,4.7,0.6v0.9H264.3"/>
	<path class="st0" d="M293.3,46.2c-1.3-3.8-1-4.8,2.7-4.8c0.1,0.8,0.3,1.5,0.4,2.4C294.3,45.9,294.3,45.9,293.3,46.2"/>
	<path class="st0" d="M309.7,46.2V44h-1.8c-0.6-1.4-0.6-1.4-1.9-2.1c2.5,0,2.8-0.1,5,1.1C311.1,43.9,311.1,43.9,309.7,46.2"/>
	<rect x="277.6" y="45.3" class="st0" width="0.9" height="0.5"/>
	<path class="st0" d="M311.7,45.8v-0.9c0.1,0,0.4,0.1,0.6,0.3C312.1,45.3,311.9,45.6,311.7,45.8"/>
	<path class="st0" d="M318,45.8V44c1.9,0.3,1.9,0.3,3,1C320.2,45.6,320.2,45.6,318,45.8"/>
	<path class="st0" d="M268.8,45.3v-0.4h0.9c0,0.1-0.3,0.6-0.3,0.7C269.1,45.6,269.2,45.3,268.8,45.3"/>
	<path class="st0" d="M332.8,45.3c-0.1-0.3-0.3-0.4-0.4-0.5h1.4C333.4,44.9,333.1,45,332.8,45.3"/>
	<path class="st5" d="M130.6,44.5"/>
	<path class="st1" d="M250.4,44c0.1-2.5,0.4-4.9,0.6-7.3c2-0.5,2-0.5,3.3-0.4C253.9,38.6,252.9,43.3,250.4,44"/>
	<path class="st2" d="M280.2,42.8c-5-0.8-10.1-1.4-15.1-2c0.1-0.8,0.3-1.5,0.5-2.1c0.5-0.1,1-0.1,1.6-0.1c0.3-0.6,0.6-1.3,1-1.8
		c1.1,0.3,1.9,2.7,2.3,3.4c0.9-0.5,0.9-0.5,2.3-0.4c0.1,0.3,0.4,0.5,0.6,0.9c2.1-1.5,3.4-2.9,5.9-3.4c0-0.4,0.1-0.6,0.2-0.9
		c1.6-0.3,2.3-0.5,3.3-1.5c0.1,0.6,0.3,1.3,0.4,1.9c1.1-0.1,1.1-0.1,1.6-0.6C284.8,41.4,285.5,42.3,280.2,42.8"/>
	<path class="st0" d="M324,42.8c0.1-0.8,0.1-0.8,0.8-1.1c0.3,0.3,0.5,0.5,0.8,0.8C325,42.5,324.5,42.7,324,42.8"/>
	<path class="st0" d="M329,42.8v-1.3c0.3,0.1,0.6,0.3,1,0.4C329.7,42.1,329.3,42.4,329,42.8"/>
	<rect x="313" y="40.3" class="st0" width="0.5" height="0.9"/>
	<path class="st0" d="M318.9,41.1c0.3-0.5,0.3-0.5,2-0.4C320.2,40.9,319.6,41,318.9,41.1"/>
	<rect x="304.7" y="39.9" class="st0" width="0.8" height="0.9"/>
	<rect x="311.7" y="40.3" class="st0" width="0.9" height="0.5"/>
	<rect x="326.1" y="40.3" class="st0" width="0.4" height="0.5"/>
	<path class="st0" d="M310.1,39.9c-0.5-0.4-1-0.8-1.5-1h3.4C311.5,39.6,311.5,39.6,310.1,39.9"/>
	<path class="st0" d="M314.8,39.9c-0.5-0.8-0.9-1.5-1.3-2.1c2.1,0,1.9,1.4,3.2,1.6C316,39.5,315.4,39.6,314.8,39.9"/>
	<path class="st1" d="M256.2,39.5c-0.1-1-0.1-1.9-0.1-2.8h1.1c0.3,0.9,0.5,1.8,0.8,2.8H256.2"/>
	<path class="st0" d="M323.6,39c0-0.3,0.1-0.5,0.3-0.6c0.4,0,0.8,0,1.1,0.1C324.5,38.6,324,38.7,323.6,39"/>
	<path class="st0" d="M254.9,32.7v-3.8c0.3-0.1,0.5-0.3,0.9-0.4c0.1-0.9,0.3-1.8,0.4-2.5h0.9c-0.6-1.3-1.1-1.4-2.5-2
		c0.4-1,0.8-1.9,1.1-2.8c0.5-0.1,1.1-0.2,1.8-0.2v-0.9h0.9v-0.8c1.6-0.8,1.6-0.8,8.8-2.1c0.1-2.5,0.1-2.5,0.6-3.7
		c-0.9-0.9-1.1-1.4-1.1-2.8c1.3-0.8,2-1.6,3.5-1.6c0.1,0.3,0.3,0.5,0.4,0.9c-1.1,0.4-2.5,1.5-2.3,2.8c0.3-0.1,0.5-0.3,0.8-0.3
		c-0.4,1.5-0.8,3-1,4.7c-0.6,0.3-1.3,0.5-1.8,0.9v1.3c-4.7,0.5-5.8,1.4-9.6,3.3v0.9c0.6,0.1,1.3,0.3,2,0.4c0,2.9-0.5,4.4-2.9,6.3
		C255.3,32.4,255.3,32.4,254.9,32.7"/>
	<line class="st0" x1="291.1" y1="74.8" x2="312" y2="76.5"/>
	<line class="st8" x1="291.1" y1="74.8" x2="312" y2="76.5"/>
	<line class="st0" x1="353.5" y1="78.4" x2="368.1" y2="77.7"/>
	<line class="st8" x1="353.5" y1="78.4" x2="368.1" y2="77.7"/>
	<line class="st0" x1="249.8" y1="69.7" x2="268.5" y2="70.9"/>
	<line class="st8" x1="249.8" y1="69.7" x2="268.5" y2="70.9"/>
</g>
</svg>
