<?xml version="1.0" encoding="utf-8"?>
<!-- Generator: Adobe Illustrator 19.2.1, SVG Export Plug-In . SVG Version: 6.00 Build 0)  -->
<svg version="1.1" id="Layer_1" xmlns="http://www.w3.org/2000/svg" xmlns:xlink="http://www.w3.org/1999/xlink" x="0px" y="0px"
	 viewBox="0 0 400 262.7" style="enable-background:new 0 0 400 262.7;" xml:space="preserve">
<style type="text/css">
	.st0{fill-rule:evenodd;clip-rule:evenodd;fill:#C26B11;}
	.st1{fill-rule:evenodd;clip-rule:evenodd;fill:#FFFFFF;}
	.st2{fill-rule:evenodd;clip-rule:evenodd;}
</style>
<g>
	<path class="st0" d="M351.4,254.8c-1.4-1.4-1.4-1.4-1.4-4.2c1.4-1.4,1.4-2.8,2.8-2.8c2.8,1.4,2.8,4.2,1.4,5.6l0,0
		c0-1.4,0-1.4,0-2.8c0,0,0,0-1.4-1.4c0,1.4,0,1.4,0,1.4c0,1.4,0,1.4,0,2.8l0,0l0,0c0,0,0,0,0,1.4
		C352.8,254.8,352.8,254.8,351.4,254.8L351.4,254.8z"/>
	<path class="st1" d="M351.4,253.4c-1.4-1.4-1.4-1.4-1.4-2.8c1.4-1.4,1.4-1.4,2.8-1.4c0,0,0,0,0,1.4c-1.4,0-1.4,0-1.4,0
		C351.4,252,350,252,351.4,253.4L351.4,253.4z"/>
	<path class="st0" d="M366.9,252c0-1.4-1.4-1.4-1.4-1.4c-1.4,0-1.4,0-2.8,0c-2.8-2.8,0-7,0-9.8c-1.4,0-1.4,1.4-2.8,2.8
		c0,0,0,0,0-1.4h-1.4c0-1.4,0-1.4,0-2.8c1.4,0,1.4,0,2.8-1.4c-1.4,1.4-1.4,1.4-1.4,2.8l0,0c1.4-1.4,2.8-4.2,4.2-4.2
		c0,1.4,0,1.4-1.4,1.4c1.4,1.4,1.4,1.4,1.4,1.4c0,2.8-1.4,5.6-1.4,7c2.8-1.4,2.8-1.4,2.8-1.4c1.4,1.4,1.4,1.4,2.8,2.8v-1.4
		c1.4,0,1.4,0,1.4,0v1.4c0,0,0,0-1.4,0c0,0,0,1.4-1.4,1.4c0,0,0,0,1.4,1.4c0-1.4,0-1.4,0-1.4C368.3,250.5,368.3,250.5,366.9,252
		L366.9,252z"/>
	<path class="st1" d="M362.7,250.5c0-1.4,0-1.4,0-1.4c0-1.4,0-1.4,0-2.8c1.4,0,2.8,0,2.8,0c0,1.4,0,1.4,0,2.8c0,0,0,0-1.4,1.4
		c0-1.4,0-1.4,0-2.8c0,0,0,0-1.4,0c0,1.4,0,1.4,1.4,1.4C364.1,249.1,362.7,249.1,362.7,250.5L362.7,250.5z"/>
	<path class="st0" d="M340.2,247.7c-1.4,0-1.4,0-1.4,0c0-1.4,0-1.4,0-1.4S340.2,246.3,340.2,247.7c1.4-4.2-1.4-5.6-1.4-8.4
		C341.6,239.3,344.4,247.7,340.2,247.7L340.2,247.7z"/>
	<path class="st0" d="M132.4,247.7c0-2.8,2.8-2.8,4.2-2.8c1.4-1.4,1.4-1.4,1.4-2.8c1.4-2.8,4.2-7,7-7c0,1.4,0,1.4,0,2.8
		c1.4-1.4,4.2-1.4,7-2.8c0,1.4,0,1.4,0,1.4h1.4c0,1.4,0,1.4,0,2.8c0-1.4,1.4-1.4,2.8-1.4c0,0,0,0,0,1.4c0-1.4,1.4-1.4,2.8-2.8
		c1.4,2.8,1.4,2.8,0,4.2c0,0,0-1.4-1.4-1.4c0,1.4,0,1.4-1.4,1.4v-1.4c-1.4,1.4-1.4,1.4-2.8,2.8c-1.4-1.4-1.4-1.4-1.4-1.4
		c-1.4,1.4-2.8,4.2-2.8,5.6c-2.8-1.4-5.6,0-7-1.4c-2.8,1.4-5.6,0-7,2.8l-1.4-1.4L132.4,247.7L132.4,247.7z"/>
	<path class="st0" d="M281.2,247.7c0-1.4,0-1.4,0-2.8c1.4-1.4,1.4-1.4,1.4-1.4c-1.4,1.4-2.8,2.8-5.6,2.8c0-1.4,0-1.4,1.4-2.8
		c-2.8,1.4-2.8,1.4-4.2,2.8c0-1.4-1.4-1.4-1.4-1.4s-1.4,1.4-2.8,1.4c0,0,0-1.4-1.4-1.4c-1.4,1.4-1.4,1.4-4.2,1.4c0-1.4,0-1.4,0-1.4
		c-1.4,1.4-4.2-1.4-5.6,0v-1.4c-1.4,1.4-1.4,1.4-2.8,2.8c0-1.4-1.4-1.4-1.4-1.4c1.4-2.8,2.8-5.6,5.6-7c0,1.4,0,1.4,0,1.4
		c1.4-1.4,1.4-1.4,2.8-2.8c0,1.4,0,1.4,0,1.4c1.4,0,2.8-1.4,2.8-1.4l0,0c-1.4,4.2-1.4,4.2-4.2,7c2.8,0,4.2-2.8,5.6-4.2
		c1.4,0,1.4,0,1.4,1.4c0,0,1.4,0,2.8,0c-1.4,0-1.4,1.4-1.4,1.4c1.4-1.4,2.8-1.4,4.2-1.4c0,0-1.4,1.4-2.8,2.8
		c2.8,1.4,4.2-4.2,5.6-2.8v1.4c1.4-1.4,4.2-2.8,5.6-2.8c0,1.4-2.8,4.2-2.8,4.2c1.4-1.4,2.8-1.4,5.6-2.8c0,2.8-2.8,2.8-2.8,5.6
		c2.8-1.4,4.2-2.8,4.2-2.8c0,1.4,0,1.4,0,1.4c1.4,0,2.8,0,4.2,0c0,0,0,0,0,1.4c-1.4-1.4-2.8,0-4.2,0c0,0,0,0-1.4-1.4
		C282.6,247.7,282.6,247.7,281.2,247.7L281.2,247.7z"/>
	<path class="st0" d="M218,246.3L218,246.3c0-1.4,0-1.4,1.4-1.4c0,0,0,0,0-1.4c1.4,1.4,2.8,1.4,4.2,1.4v1.4
		C222.2,246.3,219.4,246.3,218,246.3L218,246.3z"/>
	<path class="st0" d="M345.8,246.3c-1.4-1.4-1.4-2.8-2.8-4.2c0,0,0,0,0,1.4c0,0,0,0-1.4,0c1.4-2.8,1.4-4.2,0-7
		c4.2,1.4,1.4,9.8,5.6,7C347.2,244.9,347.2,246.3,345.8,246.3L345.8,246.3z"/>
	<path class="st0" d="M116.9,246.3c0,0,0,0,0-1.4h1.4h1.4c0,0,1.4,0,2.8,0l0,0C119.7,244.9,118.3,246.3,116.9,246.3L116.9,246.3z"/>
	<path class="st0" d="M232.1,246.3c0-1.4,0-1.4,0-1.4l0,0l0,0c-1.4,0-2.8,0-2.8,0l0,0c-2.8,0-7,0-7-1.4c5.6-2.8,5.6-2.8,5.6-2.8
		c-1.4,1.4-1.4,1.4-1.4,2.8c2.8-1.4,2.8-4.2,5.6-5.6c0,0,0,0,1.4,0c-1.4,0-1.4,1.4-1.4,1.4s0,0-1.4,0c0,1.4,0,1.4,0,1.4
		c1.4,0,1.4,0,1.4,0c0-1.4,5.6-4.2,5.6-4.2C236.3,240.7,236.3,243.5,232.1,246.3L232.1,246.3z"/>
	<path class="st0" d="M244.7,246.3c-2.8-1.4-5.6-1.4-9.8-1.4c2.8-2.8,4.2-7,5.6-11.2c-2.8-2.8,2.8-8.4,5.6-9.8
		c2.8-8.4-2.8-15.4-4.2-23.8c1.4-4.2,1.4-9.8-1.4-12.6c-1.4,0-4.2,0-5.6,0c-1.4,4.2,0,8.4,0,12.6c0,1.4-1.4,4.2-1.4,5.6
		c0,4.2,0,7,1.4,11.2c5.6,7,2.8,9.8-1.4,15.4c-2.8,7-8.4,9.8-15.4,9.8c-1.4,0-2.8,0-4.2,0c-4.2-4.2,0-7,2.8-9.8c0-5.6,1.4-7,5.6-9.8
		c2.8-7,0-14-2.8-21c0-2.8,0-5.6,0-8.4c-2.8-8.4-7-14-11.2-21c0-11.2,0-11.2-1.4-12.6c-1.4,0-4.2-2.8-5.6-1.4c2.8,8.4,0,16.8,0,25.2
		c0,1.4,2.8,2.8,4.2,4.2c1.4,7-4.2,16.8,0,23.8c0,2.8-1.4,7-2.8,8.4c0,2.8-1.4,5.6-1.4,9.8c-1.4,0-1.4,0-2.8,1.4
		c-1.4-1.4-4.2,1.4-5.6,0c0,0,0,0-1.4,1.4c-1.4-1.4-5.6,0-7-2.8l-1.4-1.4c0-2.8,0-2.8,1.4-5.6c0-2.8,1.4-7,2.8-9.8
		c7-5.6,7-9.8,7-18.2c-2.8-1.4-5.6-2.8-8.4-4.2c-2.8,4.2,0,5.6,0,9.8c0,1.4-4.2,1.4-5.6,1.4c0-1.4-1.4-2.8-1.4-4.2l0,0
		c-1.4,2.8-1.4,4.2-1.4,7c-1.4,1.4-2.8,1.4-4.2,1.4c-1.4,1.4-2.8,2.8-2.8,4.2c-1.4,5.6-4.2,11.2-7,15.4c-2.8,1.4-2.8,1.4-5.6,2.8
		c-2.8,1.4-9.8,2.8-12.6,1.4c2.8-2.8,4.2-7,7-9.8c-2.8-5.6,1.4-9.8,5.6-11.2c1.4-1.4,8.4-11.2,2.8-11.2c0,1.4-4.2,7-5.6,1.4
		c0-1.4,0-1.4,1.4-4.2c-1.4-1.4-2.8-1.4-2.8-2.8c-2.8-1.4-7-1.4-9.8-1.4c-1.4-1.4-1.4-1.4-4.2-1.4c0,7,7,11.2,2.8,18.2
		c0,4.2,0,8.4,1.4,12.6c2.8,2.8,2.8,4.2,2.8,8.4c-1.4,0-1.4,0-1.4,0v1.4c-1.4,0-1.4,1.4-2.8,1.4c0,4.2-4.2,12.6-8.4,11.2
		c-1.4,1.4-9.8,2.8-11.2,0c-1.4,0-1.4,0-1.4,0c0-1.4,0-2.8,1.4-2.8c0-2.8,0-4.2,2.8-5.6c0-2.8,0-5.6,0-8.4c5.6-4.2,5.6-4.2,5.6-4.2
		c0-5.6,1.4-9.8-1.4-14c-5.6-7-1.4-15.4-7-21c-1.4,0-1.4,0-1.4,0c0,2.8,0,4.2,0,7c1.4,4.2,2.8,7,1.4,12.6c0,4.2,0,4.2,0,7
		c1.4,4.2,2.8,5.6,2.8,9.8c-1.4,0,0,1.4-1.4,1.4l0,0c-1.4,1.4-1.4,1.4-1.4,1.4c0,2.8-1.4,4.2-2.8,7c1.4,0,1.4,1.4,2.8,0
		c0,1.4,0,1.4,0,2.8c-1.4,1.4-4.2,9.8-7,7c0,1.4-7,2.8-8.4,1.4c0-1.4,0-1.4,0-1.4h1.4c0,0,0,0,1.4,0c2.8,0,2.8,0,2.8,0
		c-1.4,0-1.4,0-1.4-1.4c1.4,0,2.8-1.4,4.2,0c0-1.4,0-1.4,1.4-1.4v-1.4c-1.4,0-2.8,0-4.2,0c0,0,0,0,0-1.4c4.2-1.4,4.2-1.4,5.6-1.4
		c0-1.4,0-1.4,0-1.4c-4.2,1.4-16.9,9.8-18.3,1.4c1.4-2.8,4.2-4.2,4.2-7l0,0c0-1.4,1.4-4.2,1.4-7c2.8-1.4,4.2-2.8,5.6-4.2
		c2.8-7,0-11.2-4.2-15.4c0-1.4,0-1.4,0-8.4c-1.4-5.6-4.2-7-7-11.2c-2.8-5.6-1.4-11.2-4.2-16.8c-2.8-1.4-5.6-2.8-8.4-4.2
		c-7,4.2-5.6,8.4-2.8,14c-1.4,7-5.6,11.2-11.2,8.4c-7,4.2-11.2,0-14-5.6c0-4.2-1.4-7-1.4-11.2c-2.8-4.2-7-9.8-12.6-9.8
		c-5.6-4.2-8.4-7-7-14c-1.4-1.4-7,1.4-9.8,0c-7-1.4-11.2-12.6-11.2-16.8c2.8-4.2,14,2.8,18.3,2.8v-1.4c-7-2.8-12.6-7-11.2-16.8
		c1.4-1.4,4.2-7,7-7c0,5.6-1.4,9.8,2.8,14c1.4,0,2.8,0,4.2,0c1.4-4.2,4.2-5.6,5.6-8.4c0,0,0,0,1.4,0c0,0,0,0,2.8-2.8h1.4
		c0-2.8,1.4-1.4,4.2-1.4c1.4-2.8,1.4-1.4,2.8-1.4c2.8-1.4,2.8-1.4,4.2-1.4c1.4,2.8,5.6,2.8,8.4,2.8c4.2-4.2-8.4-9.8-11.2-9.8
		c0,0,0,0,0-1.4c7-1.4,14,0,19.7,4.2c0,4.2,0,7,0,9.8c-4.2,7-4.2,7-4.2,7c4.2-2.8,7-8.4,12.6-9.8c0,2.8,0,4.2,1.4,5.6
		c0,5.6,0,11.2-4.2,15.4c-4.2,1.4-4.2,1.4-4.2,1.4c7,1.4,15.4,1.4,22.5,1.4c2.8-1.4,15.4-11.2,19.7-7c4.2,0,8.4-1.4,12.6-1.4
		c1.4,0,12.6,4.2,14,2.8c0,0,0,0,0-1.4c-7,0-9.8-4.2-11.2-9.8c0-5.6,2.8-11.2,9.8-11.2c-1.4,5.6-4.2,7,0,12.6
		c1.4-1.4,1.4-1.4,2.8-1.4c0-7,14-9.8,19.7-9.8c2.8,2.8,2.8,1.4,5.6,1.4c1.4,1.4,2.8,1.4,4.2,2.8c2.8-7-1.4-9.8-7-12.6v-1.4
		c1.4,0,1.4,0,4.2,0c11.2,1.4,15.4,7,12.6,18.2c-1.4,1.4-2.8,2.8-2.8,4.2c0,0,0,0,1.4,0c0-1.4,2.8-4.2,4.2-5.6c1.4-4.2,4.2-5.6,7-7
		c2.8,7,4.2,11.2,2.8,18.2c-1.4,1.4-1.4,1.4-1.4,2.8c2.8,0,2.8,0,7,1.4c1.4-1.4,1.4-1.4,4.2-2.8c2.8-4.2,2.8-8.4,2.8-12.6
		c-4.2-9.8-2.8-12.6,4.2-19.6c5.6-2.8,11.2,0,16.9,2.8c2.8,0,7-1.4,9.8-1.4c4.2,4.2,4.2,4.2,5.6,9.8c2.8,1.4,4.2,1.4,4.2,4.2
		c-1.4,0-1.4,0-2.8-1.4c0,1.4,0,1.4-1.4,1.4l0,0c-1.4,2.8-8.4,1.4-12.6,1.4c-4.2-1.4-5.6-5.6-8.4-9.8c-5.6-4.2-12.6-1.4-12.6,5.6
		c5.6,8.4,4.2,12.6,0,21c-1.4,0-1.4,1.4-1.4,1.4c2.8,1.4,8.4-1.4,9.8-4.2c1.4,0,4.2-1.4,5.6-1.4c2.8,0,5.6,0,8.4-1.4
		c9.8,2.8,16.9,1.4,26.7,0c4.2-2.8,8.4-7,9.8-11.2h1.4c5.6-2.8,8.4-1.4,14,2.8c0,0,0,0,1.4,0l0,0c2.8,1.4,2.8,1.4,4.2,1.4
		c5.6-5.6,11.2-9.8,18.3-5.6c4.2,7,5.6,5.6,14,7c7,2.8,11.2,8.4,15.4,16.8c0,2.8,0,5.6,1.4,8.4c0,8.4-5.6,25.2,4.2,29.4
		c9.8,0,14,2.8,18.3,12.6c1.4,4.2,1.4,5.6,1.4,7l0,0c0,1.4,0,4.2,0,7c-1.4,0-1.4,0-1.4,0c-1.4,2.8-2.8,5.6-5.6,7c0-2.8,0-4.2,0-7
		c0,1.4-1.4,1.4-1.4,2.8l0,0c0-1.4-1.4-4.2-1.4-5.6c-1.4,0-1.4,1.4-1.4,1.4l0,0c-2.8-7-7-8.4-12.6-12.6c0-1.4,0-1.4-1.4-7
		c-4.2-7-7-9.8-7-16.8c0-9.8,2.8-16.8,0-25.2c-4.2-8.4-9.8-11.2-18.3-11.2c0,1.4,4.2,8.4,7,15.4c1.4,5.6,2.8,11.2,4.2,16.8
		c-1.4,15.4-2.8,22.4-1.4,25.2c0,0,0,1.4,1.4,2.8c9.8,4.2,5.6,14,5.6,23.8c2.8,5.6,4.2,11.2-1.4,16.8c0,2.8,0,2.8,0,4.2
		c-1.4,2.8-4.2,8.4-8.4,5.6c-4.2,4.2-7-1.4-9.8,1.4c-1.4,0-2.8,0-2.8,0c0-1.4,0-2.8,0-4.2c1.4-1.4,1.4-1.4,4.2-5.6
		c-1.4-7,0-7,5.6-9.8c2.8-4.2,2.8-16.8-1.4-21c-1.4,0-4.2,0-5.6-1.4c-1.4,1.4-1.4,2.8-2.8,4.2c1.4,4.2,2.8,8.4-2.8,8.4
		c-2.8-2.8-2.8-2.8-4.2-5.6c0,0,0,1.4-1.4,1.4c0,2.8,1.4,11.2-4.2,7c-2.8,0-1.4,12.6-5.6,15.4c0,5.6-1.4,7-2.8,11.2H291l0,0
		c-1.4,0-1.4,0-1.4,0l-1.4,1.4v-1.4l-1.4,1.4c-4.2,0-8.4,0-12.6,0l-1.4-1.4c1.4-1.4,1.4-2.8,1.4-4.2c2.8-2.8,4.2-4.2,4.2-8.4
		c1.4-2.8,4.2-5.6,7-8.4c1.4-1.4,2.8-4.2,2.8-5.6c0-2.8,0-5.6,1.4-8.4c-1.4,0-1.4,0-2.8,0c-1.4,2.8-2.8,5.6-7,5.6c0-1.4,0-1.4,0-4.2
		c0-1.4,1.4-2.8,1.4-5.6c-1.4-1.4-4.2,0-5.6,1.4c-5.6-1.4-14,1.4-18.3-2.8c-1.4,2.8,1.4,7,2.8,9.8c0,5.6-2.8,11.2-2.8,18.2
		c2.8,4.2,8.4,11.2,1.4,15.4c0,4.2-2.8,8.4-5.6,11.2C248.9,244.9,248.9,244.9,244.7,246.3L244.7,246.3z"/>
	<path class="st0" d="M104.3,244.9L104.3,244.9c1.4-1.4,1.4-1.4,2.8-1.4C105.7,244.9,105.7,244.9,104.3,244.9L104.3,244.9z"/>
	<path class="st0" d="M150.6,244.9c0-1.4,0-1.4,1.4-1.4v1.4H150.6L150.6,244.9z"/>
	<path class="st1" d="M146.4,244.9c0-1.4,0-2.8,1.4-4.2C149.2,243.5,147.8,243.5,146.4,244.9L146.4,244.9z"/>
	<path class="st1" d="M244.7,243.5h-1.4c1.4-2.8,2.8-5.6,2.8-7c1.4,0,1.4,0,5.6-1.4c2.8,4.2,2.8,5.6-2.8,8.4
		C247.5,243.5,247.5,243.5,244.7,243.5L244.7,243.5z"/>
	<path class="st0" d="M348.6,243.5c0-2.8-1.4-5.6-1.4-8.4c1.4-1.4,1.4-1.4,4.2-1.4c1.4,1.4,0,4.2-1.4,5.6c0,1.4,0,2.8,0,4.2
		C350,243.5,350,243.5,348.6,243.5L348.6,243.5z"/>
	<path class="st1" d="M145,243.5c0-1.4,0-1.4,1.4-1.4C145,242.1,145,243.5,145,243.5L145,243.5z"/>
	<path class="st0" d="M202.6,243.5c-1.4-1.4-7-1.4-9.8-1.4c0-1.4,0-1.4,1.4-1.4c1.4,0,1.4,0,2.8,0l0,0c1.4,0,4.2,0,5.6,1.4l0,0
		c-1.4-1.4-1.4-1.4-2.8-2.8c0,0,0,0,0-1.4c1.4,1.4,2.8,0,2.8-1.4h1.4l1.4,1.4c0-1.4,0-1.4,0-2.8l0,0c1.4,0,1.4,1.4,1.4,1.4
		c1.4,0,1.4,0,1.4-1.4c0,1.4,1.4,1.4,1.4,1.4s0,0,1.4,0c0,1.4,0,2.8,1.4,5.6c-2.8,0-7-1.4-9.8-1.4
		C202.6,242.1,202.6,243.5,202.6,243.5L202.6,243.5z"/>
	<path class="st0" d="M189.9,243.5v-1.4c1.4,0,1.4,0,2.8,0c0,0,0,0,0,1.4C191.3,243.5,191.3,243.5,189.9,243.5L189.9,243.5z"/>
	<path class="st0" d="M352.8,243.5c-1.4,0-1.4-1.4-1.4-1.4s0-1.4,0-2.8c2.8-2.8,2.8,0,1.4,2.8C352.8,242.1,352.8,242.1,352.8,243.5
		L352.8,243.5L352.8,243.5z"/>
	<path class="st0" d="M355.6,243.5c0-1.4,0-1.4-1.4-1.4c1.4,0,1.4,0,1.4,0c0-1.4,0-1.4,0-2.8l1.4-1.4
		C357,240.7,358.4,242.1,355.6,243.5L355.6,243.5z"/>
	<path class="st1" d="M239.1,242.1c-1.4,0-1.4,0-1.4,0c1.4-2.8,2.8-5.6,5.6-7C244.7,236.5,239.1,240.7,239.1,242.1L239.1,242.1z"/>
	<path class="st1" d="M258.7,242.1c0-1.4,0-1.4,1.4-1.4C258.7,240.7,258.7,242.1,258.7,242.1L258.7,242.1z"/>
	<path class="st0" d="M345.8,242.1c0-1.4,0-1.4,0-1.4c1.4,0,1.4,0,1.4,0C347.2,242.1,347.2,242.1,345.8,242.1L345.8,242.1z"/>
	<path class="st0" d="M93,240.7c0,0,1.4,0,2.8-1.4l0,0c1.4,0,2.8-1.4,4.2-1.4l0,0c0,0,0,0,1.4,1.4C101.5,239.3,94.4,240.7,93,240.7
		L93,240.7z"/>
	<path class="st1" d="M129.5,240.7c-1.4,0-1.4,0-1.4,0c1.4-2.8,1.4-7,4.2-7c1.4,0,1.4,0,1.4,0c1.4,0,1.4,0,2.8-1.4
		c0,1.4,1.4,2.8,1.4,2.8l0,0c1.4,1.4,1.4,1.4,1.4,2.8c-2.8,1.4-5.6,1.4-8.4,1.4v1.4C129.5,240.7,129.5,240.7,129.5,240.7
		L129.5,240.7z"/>
	<path class="st1" d="M218,240.7c-1.4-1.4,1.4-5.6,2.8-7c0,0,0,0,2.8,0c1.4,0,1.4,0,2.8,0c0,1.4,0,1.4,1.4,1.4v-1.4v1.4
		c1.4,0,1.4-1.4,1.4-1.4c0,1.4,0,1.4,0,2.8c0-1.4,0-1.4,1.4-1.4c0,1.4,0,1.4,0,1.4c-1.4,0-1.4,0-2.8,0c0,1.4-1.4,1.4-2.8,1.4
		c0,1.4,0,1.4,0,1.4C222.2,240.7,219.4,240.7,218,240.7L218,240.7z"/>
	<path class="st1" d="M147.8,240.7c0-1.4,0-1.4,1.4-1.4C149.2,239.3,149.2,239.3,147.8,240.7L147.8,240.7z"/>
	<path class="st1" d="M152,240.7c0-1.4,0-1.4,0-1.4l0,0C152,239.3,152,239.3,152,240.7L152,240.7z"/>
	<path class="st0" d="M79,239.3c1.4-1.4,1.4-1.4,2.8-1.4c0,0,0,0,0-1.4c1.4,1.4,1.4,1.4,4.2,1.4c0-1.4-1.4-1.4-1.4-2.8
		c1.4,1.4,1.4,1.4,1.4,1.4c1.4,0,1.4-1.4,1.4-1.4c1.4,0,2.8,1.4,2.8,0l0,0h1.4l1.4-1.4c0,0,0,0,0,1.4c1.4-1.4,4.2-2.8,7-2.8
		c0,2.8,0,2.8-1.4,4.2c-4.2,1.4-8.4,1.4-12.6,1.4C84.6,239.3,80.4,239.3,79,239.3L79,239.3z"/>
	<path class="st1" d="M123.9,239.3v-1.4c1.4-1.4,1.4-4.2,2.8-5.6h1.4c0,0,0,1.4,1.4,1.4C128.1,236.5,126.7,237.9,123.9,239.3
		L123.9,239.3z"/>
	<path class="st1" d="M213.8,239.3c1.4-2.8,2.8-7,5.6-7C218,235.1,216.6,237.9,213.8,239.3L213.8,239.3z"/>
	<path class="st1" d="M146.4,237.9c0,0,0,0,1.4-1.4C146.4,237.9,146.4,237.9,146.4,237.9L146.4,237.9z"/>
	<path class="st0" d="M314.9,237.9c0-1.4-1.4-1.4-1.4-2.8c0,1.4,0,1.4,0,2.8c-1.4-1.4-1.4-1.4-2.8-1.4c0-1.4,0-1.4,0-1.4l0,0
		c1.4,0,1.4,1.4,1.4,1.4c0-1.4,0-2.8,0-2.8h1.4c0,0,0,0,4.2-2.8c1.4,0,4.2,1.4,7,1.4c-2.8,4.2-2.8,4.2-2.8,4.2s0,0-1.4,0h-1.4
		c0,0,0,0-1.4,0c0,1.4,0,1.4,0,1.4c-1.4,0-1.4-1.4-1.4-1.4S316.3,237.9,314.9,237.9L314.9,237.9z"/>
	<path class="st0" d="M309.3,237.9c-1.4,0-1.4-1.4-2.8-1.4c1.4,0,1.4,0,2.8-1.4c0,0,1.4,1.4,1.4,2.8
		C309.3,237.9,309.3,237.9,309.3,237.9L309.3,237.9z"/>
	<path class="st1" d="M348.6,237.9c0-1.4,0-2.8,0-2.8s1.4,0,1.4-1.4c0,1.4,0,2.8,0,2.8S350,236.5,348.6,237.9L348.6,237.9z"/>
	<path class="st0" d="M324.7,236.5c0,0,0,0-1.4-1.4c1.4,0,1.4-1.4,2.8-2.8l0,0c0,1.4,0,2.8,0,4.2
		C326.1,236.5,326.1,236.5,324.7,236.5L324.7,236.5z"/>
	<path class="st0" d="M286.8,236.5c0-1.4,0-1.4,0-1.4c1.4,0,1.4,0,4.2-1.4c0,0,0,0,0,1.4l0,0c1.4-1.4,1.4-2.8,2.8-2.8c0,0,0,0,0,1.4
		c1.4-1.4,0-1.4,0-4.2c1.4-1.4,1.4-2.8,2.8-4.2c1.4,0,2.8,0,4.2,0c0,1.4,0,1.4,0,1.4c1.4,0,1.4,0,8.4,0c1.4-1.4,1.4-1.4,2.8-1.4
		c0,1.4,0,5.6,0,7c-4.2,0-4.2,0-5.6,1.4v-1.4c-1.4,1.4-1.4,1.4-1.4,1.4c-1.4,0-1.4-1.4-1.4-1.4v1.4c-2.8,0-4.2,1.4-7,0
		c0,0,0,1.4-1.4,1.4c0,0,0,0-1.4,0c-1.4,1.4-2.8,0-4.2,1.4c0-1.4,0-1.4-1.4-1.4C288.2,236.5,288.2,236.5,286.8,236.5L286.8,236.5z"
		/>
	<path class="st2" d="M329,236.5c0-1.4,0-1.4,0-1.4v-1.4C329,235.1,329,235.1,329,236.5L329,236.5L329,236.5z"/>
	<path class="st1" d="M107.1,235.1c1.4-2.8,1.4-4.2,2.8-7l0,0l0,0c4.2,0,7,0,9.8,0c0,1.4-1.4,7-4.2,4.2
		C112.7,233.7,111.3,235.1,107.1,235.1L107.1,235.1z"/>
	<path class="st1" d="M250.3,235.1c0-2.8-2.8-1.4-4.2-1.4s-1.4-1.4-4.2,0c0-1.4,0-1.4,0-1.4s0,0-1.4,0c0-1.4,1.4-1.4,1.4-2.8
		c8.4-7,5.6-11.2,5.6-21c-4.2-4.2-4.2-8.4-2.8-12.6c-4.2-16.8-4.2-16.8-5.6-18.2c-2.8,0,1.4,7,1.4,8.4c-7-1.4-8.4-2.8-14-8.4
		c0,2.8,2.8,4.2,2.8,7c-4.2,0-7-4.2-9.8-5.6c-1.4,0-1.4,0-1.4,0c0,4.2,7,7,11.2,8.4c-1.4,0-1.4,0,0,0l1.4-1.4l0,0
		c0,1.4-1.4,2.8-1.4,2.8s0,0,1.4,0c-1.4,1.4-1.4,2.8-1.4,4.2c0,0,0,0,1.4,0c0-1.4,1.4-2.8,1.4-4.2c0,4.2,1.4,7,1.4,11.2
		c-1.4,7-1.4,11.2,0,18.2c2.8,4.2,2.8,4.2,4.2,5.6c-1.4,2.8-4.2,5.6-7,7c-1.4,0-1.4-1.4-1.4-1.4c0,1.4,0,1.4-1.4,2.8
		c-1.4-1.4-1.4,0-2.8,0s-2.8-1.4-2.8-1.4c-1.4,0-1.4,1.4-1.4,1.4c0-2.8,0-2.8-1.4-2.8H218c0-2.8,2.8-4.2,5.6-5.6
		c4.2-8.4,0-15.4-2.8-23.8c0-5.6-1.4-11.2-4.2-18.2c-2.8-4.2-5.6-8.4-5.6-14c0,1.4,1.4,2.8,1.4,4.2c1.4-4.2,1.4-4.2,1.4-9.8
		c1.4,0,2.8,0,4.2,0l0,0c-4.2-1.4-7-4.2-11.2-5.6c0-1.4,1.4-2.8,1.4-4.2h-1.4c0,1.4,0,1.4-1.4,2.8l0,0c0,0,0,0-1.4-1.4
		c1.4-1.4,2.8-1.4,2.8-2.8c-1.4-1.4-1.4-1.4-2.8-1.4c0,1.4-1.4,2.8-2.8,2.8c2.8-1.4,2.8-1.4,2.8-4.2c-1.4,0-1.4-1.4-2.8-1.4l0,0l0,0
		l-1.4-1.4c0,0,0,0,0-8.4c-1.4-2.8-5.6-7-5.6-9.8c2.8-1.4,5.6-4.2,8.4,0c0,2.8,0,5.6,4.2,5.6c0,2.8-2.8,7,0,8.4
		c0,2.8,1.4,2.8,2.8,5.6c1.4,0,2.8,0,4.2,0c1.4-1.4,1.4-2.8,2.8-5.6c1.4,0,1.4,1.4,2.8,1.4c0,1.4-1.4,1.4-1.4,2.8
		c2.8,4.2,0,8.4,5.6,9.8c0,1.4,1.4,1.4,1.4,2.8c1.4,0,1.4,0,1.4,0c1.4-1.4,2.8-1.4,2.8-2.8c1.4,0,1.4,0,1.4,0
		c5.6-4.2,8.4-5.6,4.2-9.8c0-1.4,0-2.8,0-2.8c4.2-4.2,2.8-7-2.8-8.4c0,0,0,0,0-1.4c1.4-1.4,1.4-1.4,4.2-4.2v-1.4
		c-4.2-4.2-12.6,1.4-18.3,0c4.2,0,4.2,0,4.2-1.4l0,0l0,0c4.2-4.2,7-4.2,12.6-5.6c5.6,0,18.3,0,19.7,8.4c-1.4,0-1.4,0-1.4,0
		c0,5.6,4.2,4.2,0,8.4c-1.4,0-2.8,0-4.2,0c-1.4,1.4-2.8,5.6-5.6,5.6c0,4.2,1.4,8.4,5.6,8.4c2.8-1.4,1.4,0,4.2,0
		c4.2-4.2,7-7,11.2-2.8c1.4,0,1.4,0,2.8,0c0,2.8,0,4.2,1.4,5.6l0,0c0,4.2,0,7,2.8,9.8c1.4,0,2.8-1.4,4.2-2.8
		c4.2,2.8,4.2,5.6,8.4,2.8c1.4,0,1.4,0,2.8,0c4.2-2.8,1.4-4.2,2.8-8.4c2.8-1.4,4.2-2.8,4.2-5.6c-1.4-1.4-1.4-1.4-1.4-1.4
		c7-2.8,9.8-8.4,2.8-11.2c-1.4-2.8-1.4-2.8-2.8-5.6c0,0-1.4,0-2.8,0c0,0-1.4,0-2.8,0c0-2.8,2.8-4.2,5.6-4.2c1.4-4.2-1.4-5.6-4.2-8.4
		c-2.8,0-4.2,0-7,1.4c0-1.4-1.4-1.4-1.4-2.8c-2.8,1.4-8.4,4.2-11.2,2.8c0-1.4,0-1.4,0-1.4c2.8-1.4,5.6-2.8,8.4-4.2v-1.4
		c-1.4,0-2.8,1.4-2.8,1.4c-1.4-7,5.6-7,9.8-7c2.8,0,2.8,0,4.2,2.8c0,0,0,0,0,1.4c-1.4,0-1.4,0-1.4,0c0,1.4,4.2,1.4,4.2,1.4
		s0,0,0,1.4l0,0c7-2.8,11.2-8.4,18.3-9.8c5.6,4.2,5.6,4.2,7,11.2c-1.4,0-4.2,2.8-5.6,2.8c0-2.8,0-4.2,0-7c-2.8-1.4-2.8,8.4-2.8,9.8
		h-1.4c0,1.4-1.4,1.4-1.4,1.4c0,2.8,2.8,8.4,5.6,9.8c1.4-1.4,1.4-1.4,4.2-1.4c0,5.6-1.4,7,5.6,8.4c0,1.4,0,2.8,0,4.2
		c-4.2,2.8-5.6,1.4-4.2,7c-4.2,7,1.4,8.4,0,15.4c1.4,0,1.4,1.4,2.8,2.8c1.4,0,2.8,0,4.2,0v1.4c4.2,1.4,2.8,5.6,4.2,9.8
		c0,0,1.4,0,1.4-1.4c4.2,2.8,4.2,2.8,5.6,7c0,4.2,0,4.2,0,11.2c0,9.8,7,22.4-7,22.4c-1.4,0-1.4,0-1.4,0c-1.4,0-1.4,0-1.4,0h-1.4
		c0,0,0,0,0-1.4c-1.4,1.4-1.4,1.4-2.8,1.4v-1.4c-1.4,0-1.4,0-1.4,0c0-4.2,4.2-4.2,5.6-7c1.4-4.2,1.4-8.4,2.8-14
		c-1.4-4.2-1.4-4.2-1.4-7c-1.4-1.4-1.4-1.4-8.4-2.8c-2.8,0-5.6-4.2-8.4-5.6c-1.4-4.2-2.8-7-2.8-9.8c5.6-12.6,7-21,2.8-35
		c-1.4-1.4-1.4-2.8-2.8-4.2h-1.4c1.4,4.2,2.8,7,4.2,14c0,11.2-1.4,19.6-8.4,28c0,1.4,0,1.4-1.4,1.4c-2.8,5.6-7,7-12.6,9.8
		c-1.4,1.4-4.2,2.8-7,2.8l0,0l0,0c-2.8,0-4.2,1.4-7,1.4c-4.2,0-4.2,0-9.8,0c0-1.4,1.4-2.8,2.8-2.8c0,0,0,0,0-1.4v1.4
		c0-1.4,0-1.4,0-1.4c-2.8,0-4.2,0-5.6,0c0-1.4,0-1.4,0-1.4h-1.4c0-2.8,0-4.2,0-7c0,0,0,1.4,1.4,2.8c0-1.4,0-1.4,0-4.2h-1.4l0,0h-1.4
		c-1.4,5.6-1.4,11.2-1.4,16.8c1.4,7,2.8,9.8,0,15.4c0,4.2,0,8.4,0,11.2c2.8,2.8,4.2,5.6,4.2,9.8c0,0,0,0-1.4,1.4h-1.4c0,0,0,0,0,1.4
		h-1.4l0,0c-1.4,1.4-1.4,1.4-2.8,0C253.1,233.7,253.1,233.7,250.3,235.1L250.3,235.1z"/>
	<path class="st1" d="M104.3,233.7c-1.4,0-1.4,0-1.4,0c1.4-1.4,2.8-4.2,4.2-5.6c0,0,0,0,1.4,0C107.1,230.9,105.7,232.3,104.3,233.7
		L104.3,233.7z"/>
	<path class="st0" d="M264.4,233.7v-1.4c1.4,0,1.4,0,2.8,0c0-1.4,0-2.8,0-4.2c1.4,0,1.4,0,2.8,0c0,0,0,0,0-1.4c1.4,0,2.8,0,2.8,0
		c0,1.4,0,1.4,0,2.8c0,1.4,0,1.4,0,2.8C265.8,233.7,265.8,233.7,264.4,233.7L264.4,233.7z"/>
	<path class="st0" d="M147.8,233.7c1.4-2.8,2.8-2.8,4.2-2.8l0,0c1.4,0,9.8-1.4,11.2-4.2c1.4,0,2.8-2.8,4.2-2.8l0,0
		c1.4,0,1.4,0,2.8-1.4c0,1.4,0,1.4,0,1.4s0,0,1.4,0c0,0,0,0,0,1.4v-1.4c2.8,0,2.8,0,4.2,0l0,0c0,0,0,0,1.4,0c0,0,0,0,0,1.4
		c0,0,1.4,0,1.4-1.4c0,1.4,0,1.4,0,2.8c1.4-1.4,1.4-1.4,2.8-1.4c0,2.8,0,2.8,2.8,5.6l0,0c-2.8,1.4-2.8,1.4-4.2,0
		c-1.4,1.4-4.2,0-4.2,0v1.4c-1.4,0-4.2-1.4-4.2-1.4s0,0,1.4,1.4l0,0c-1.4,0-4.2,0-5.6,0s-2.8,0-4.2,0c2.8,0,2.8,0,2.8,0
		c-1.4-1.4-2.8-1.4-2.8-1.4c-1.4,0-1.4,0-2.8,0l0,0C159,232.3,150.6,232.3,147.8,233.7L147.8,233.7z"/>
	<path class="st1" d="M133.8,232.3v-1.4c0,0,0,1.4-1.4,1.4c0-1.4,0-1.4,0-2.8c-1.4,0-1.4,1.4-2.8,1.4l0,0c-1.4-1.4-1.4-1.4-2.8-1.4
		c1.4-4.2,1.4-4.2,4.2-7c4.2-5.6,1.4-12.6-1.4-18.2c-1.4-4.2-1.4-7-1.4-11.2c-1.4-2.8-4.2-11.2-8.4-12.6c0,1.4,1.4,2.8,1.4,4.2
		c-4.2,0-7-2.8-11.2-2.8c1.4,0,1.4,0,1.4,1.4c-2.8,1.4-5.6-4.2-8.4-2.8c0,4.2,7,4.2,11.2,4.2c0,1.4,0,1.4,0,1.4c2.8,0,2.8,7,2.8,8.4
		c1.4,0,1.4,0,2.8-1.4c0,1.4,0,1.4,0,2.8l0,0c1.4,4.2,1.4,4.2,1.4,5.6c-1.4,7-1.4,11.2,2.8,16.8c0,1.4,0,2.8,0,4.2
		c-1.4,0-4.2,2.8-4.2,4.2c-1.4-1.4-2.8,0-2.8,0s0,0-1.4,0l0,0c-1.4,0-1.4,0-1.4,1.4l0,0c-1.4-1.4-1.4-1.4-1.4-1.4s0,0-1.4,0v-1.4
		c-1.4,1.4-1.4,1.4-1.4,1.4h-1.4c0,0,0,0-1.4,0c-2.8-2.8,4.2-8.4,5.6-9.8c1.4-4.2,1.4-7,0-11.2c-2.8,0-4.2-5.6-4.2-7
		c0-5.6-1.4-9.8-4.2-14c-4.2-2.8-4.2-11.2-5.6-16.8c1.4,0,4.2,0,5.6,0c-1.4-1.4-7-4.2-9.8-5.6l0,0c2.8,0,2.8,0,4.2,0
		c0-1.4,1.4-1.4,2.8-2.8c-1.4,0-1.4,0-2.8,1.4c0-1.4,0-1.4,1.4-1.4c-1.4,0-1.4,0-1.4,0c0-2.8,4.2-5.6,5.6-8.4c0-7-4.2-14-12.6-14
		c-1.4,1.4-2.8,2.8-4.2,2.8c-5.6,0-5.6,0-9.8-1.4c1.4-2.8,1.4-2.8,2.8-5.6l0,0v-1.4c1.4,0,2.8,0,4.2,1.4c0,0,0,0,0-1.4
		c1.4,1.4,1.4,1.4,1.4,1.4c0-1.4,0-1.4,0-2.8c0,0,0,0,1.4,0c0,1.4,0,1.4,0,2.8l0,0c0-1.4,0-1.4,0-1.4c7,0,12.6,0,19.7,0
		c1.4-1.4,2.8-1.4,2.8-2.8c-1.4,0-1.4,0-2.8,0l0,0c1.4-2.8,2.8-1.4,5.6-1.4c0,5.6,1.4,4.2-5.6,7c-1.4,2.8,1.4,8.4,4.2,7
		c2.8-2.8,2.8-2.8,5.6-2.8c0,4.2,0,4.2,1.4,5.6h1.4c0,1.4,1.4,1.4,1.4,2.8c-4.2,4.2-4.2,5.6-5.6,9.8c0,1.4,0,1.4,0,2.8
		c1.4,0,1.4,0,2.8,0c0,1.4,0,1.4,0,1.4c4.2-1.4,4.2,0,7-1.4c0-1.4,0-2.8,1.4-5.6c0-1.4,1.4-1.4,1.4-4.2c-1.4,0-1.4,0-1.4,0
		c0-1.4,0-2.8-1.4-5.6c-1.4,0-2.8,2.8-4.2,2.8c1.4-1.4,1.4-1.4,2.8-2.8c2.8-5.6,7,1.4,11.2-4.2c5.6,0,11.2,4.2,15.4-1.4
		c5.6,2.8-4.2,7-7,8.4c0,0,0,0-4.2,0c-8.4,2.8-9.8,14-1.4,19.6l0,0c5.6,1.4,5.6,2.8,11.2,1.4c2.8-1.4,4.2-4.2,8.4-4.2
		c2.8,0,2.8,0,5.6,0c2.8,2.8-1.4,11.2-1.4,14c1.4,0,1.4,0,1.4,0c2.8,2.8,5.6,4.2,9.8,4.2c2.8,1.4,2.8,1.4,2.8,1.4
		c-5.6,2.8-11.2,4.2-16.9,5.6v-1.4l0,0v1.4c-1.4,0-1.4,0-2.8,0l0,0c0,0,0,0-2.8,1.4c0-1.4,0-1.4,0-1.4s0,0-1.4,0c0,0,0-1.4,1.4-1.4
		c-1.4,0-1.4,0-1.4,0c0-1.4,1.4-1.4,1.4-1.4c-1.4,0-2.8,0-4.2,0c0,0,0,0,0-1.4c-1.4,0-1.4,0-2.8,1.4c0-1.4,0-1.4,0-1.4
		c-1.4-1.4-4.2-1.4-7-1.4c0-1.4,0-2.8,0-2.8s0,0,1.4,0V179c0,0,0,1.4,1.4,1.4c0,0,0,0,1.4,0c-2.8-2.8-2.8-2.8-5.6-4.2v-1.4
		c-1.4,0-1.4,0-1.4,0h-1.4c4.2,5.6,2.8,14,4.2,19.6c1.4,4.2,2.8,8.4,1.4,12.6c0-1.4,0-1.4,0-2.8c-1.4,0-1.4,0-1.4,0
		c0,1.4,0,2.8-1.4,4.2h1.4c-1.4,2.8-1.4,2.8,0,7l0,0c0-4.2,0-4.2,0-4.2c1.4,4.2,1.4,8.4,4.2,12.6c0,1.4-1.4,7-4.2,7
		c0,1.4,0,1.4-1.4,1.4c0-1.4,0-1.4,0-1.4s0,0-1.4,0c0-1.4,0-1.4,0-1.4c-1.4,1.4-1.4,1.4-1.4,2.8
		C135.2,232.3,135.2,232.3,133.8,232.3L133.8,232.3z"/>
	<path class="st1" d="M268.6,232.3v-1.4c1.4,0,1.4,1.4,1.4,1.4S270,232.3,268.6,232.3L268.6,232.3z"/>
	<path class="st0" d="M333.2,230.9c1.4-1.4,2.8-8.4,5.6-7c0,0,0,0,0,1.4c1.4,0,4.2,0,5.6,1.4c1.4-1.4,1.4-1.4,1.4-1.4v1.4
		c1.4,0,1.4,0,2.8-1.4l0,0c0,2.8-1.4,2.8-2.8,4.2c-1.4,0-1.4,0-1.4-1.4c-1.4,2.8-5.6,2.8-7,1.4c0,0-1.4,0-1.4-1.4
		C334.6,230.9,334.6,230.9,333.2,230.9L333.2,230.9z"/>
	<path class="st0" d="M202.6,230.9c0-2.8,0-2.8,0-4.2c0-1.4,1.4-1.4,2.8-1.4v1.4c1.4-1.4,1.4-1.4,2.8-1.4v1.4c1.4,0,1.4,0,1.4,0l0,0
		c1.4,1.4,1.4,1.4,1.4,1.4h-2.8c-1.4,0-1.4,1.4-2.8,1.4c0,0,0,0,0-1.4C204,229.5,204,229.5,202.6,230.9L202.6,230.9z"/>
	<path class="st1" d="M187.1,229.5c1.4-4.2,1.4-4.2,2.8-7c4.2-1.4,4.2-1.4,8.4,0v1.4l0,0C198.4,228.1,191.3,229.5,187.1,229.5
		L187.1,229.5z"/>
	<path class="st0" d="M45.3,229.5c-1.4-1.4,2.8-1.4,2.8-1.4c1.4,0,1.4,0,1.4,0c1.4,0,1.4,0,2.8,0c0-1.4,0-1.4,0-1.4
		c1.4,0,2.8,0,4.2,0c0,0,0,0,0-1.4c1.4,0,2.8,1.4,4.2,1.4l0,0C55.1,226.7,49.5,228.1,45.3,229.5L45.3,229.5z"/>
	<path class="st1" d="M321.9,229.5h-1.4c2.8-8.4,2.8-8.4,2.8-8.4h1.4c1.4,0,1.4,0,2.8,0c0,2.8,1.4,5.6,1.4,7
		C326.1,228.1,323.3,228.1,321.9,229.5L321.9,229.5z"/>
	<path class="st1" d="M282.6,229.5c1.4-4.2,1.4-5.6,4.2-8.4c1.4,1.4,2.8,4.2,2.8,7C288.2,228.1,288.2,228.1,282.6,229.5L282.6,229.5
		z"/>
	<path class="st0" d="M350,228.1c0,0-1.4-1.4,0-1.4c0,0,1.4,1.4,1.4,0C351.4,228.1,351.4,228.1,350,228.1L350,228.1z"/>
	<path class="st0" d="M357,228.1c0,0,0,0,0-1.4c0,0,1.4,0,1.4,1.4H357L357,228.1z"/>
	<path class="st1" d="M184.3,228.1c0-2.8,1.4-5.6,2.8-7c0,2.8,0,4.2-1.4,7C185.7,228.1,185.7,228.1,184.3,228.1L184.3,228.1z"/>
	<path class="st0" d="M352.8,228.1c0-1.4,0-1.4,0-1.4s0,0,1.4,0c0,0,0,0,0,1.4C352.8,228.1,352.8,228.1,352.8,228.1L352.8,228.1z"/>
	<path class="st1" d="M152,228.1c0-1.4,0-1.4,0-1.4c2.8-4.2,2.8-4.2,4.2-7c1.4,0,1.4,0,2.8,0c0,1.4,0,2.8,1.4,4.2c0,0,0,0,0-1.4
		c1.4,0,1.4,1.4,1.4,2.8C157.6,226.7,156.2,226.7,152,228.1L152,228.1z"/>
	<path class="st1" d="M316.3,228.1c0-2.8,0-2.8,1.4-5.6c1.4,0,2.8-1.4,2.8-1.4C320.5,225.3,319.1,226.7,316.3,228.1L316.3,228.1z"/>
	<path class="st1" d="M277,226.7c2.8-4.2,2.8-4.2,4.2-5.6c0,1.4,0,1.4,1.4,1.4C282.6,225.3,279.8,226.7,277,226.7L277,226.7z"/>
	<path class="st0" d="M62.1,226.7c-2.8-1.4-2.8-1.4-4.2-2.8c1.4-1.4,4.2,1.4,4.2,1.4c0-1.4,0-1.4,0-2.8c1.4,0,2.8,2.8,2.8,4.2
		C63.5,226.7,63.5,226.7,62.1,226.7L62.1,226.7z"/>
	<path class="st0" d="M67.8,226.7c-2.8-1.4-2.8-2.8-2.8-5.6l0,0c1.4,0,1.4,1.4,1.4,2.8c1.4-1.4,1.4-2.8,1.4-4.2c0,0,0,0,1.4,0
		c0,1.4-1.4,4.2,0,7H67.8L67.8,226.7z"/>
	<path class="st1" d="M175.9,226.7c1.4-1.4,1.4-1.4,1.4-1.4C175.9,225.3,175.9,225.3,175.9,226.7L175.9,226.7z"/>
	<path class="st0" d="M79,225.3c-1.4,0-1.4,0-1.4,0h-1.4v-1.4c-1.4,0-1.4,1.4-2.8,1.4c0-2.8,1.4-7,4.2-7l-1.4,2.8
		c1.4,0,1.4-1.4,2.8-1.4c0,1.4-1.4,2.8-1.4,4.2c5.6-4.2,5.6-4.2,5.6-4.2l0,0c-1.4,1.4-2.8,2.8-2.8,4.2l0,0c2.8-2.8,5.6-4.2,5.6-4.2
		v1.4c-1.4,1.4-1.4,1.4-2.8,2.8c5.6-4.2,5.6-4.2,7-4.2c-1.4,2.8-2.8,2.8-1.4,4.2c1.4-1.4,1.4-1.4,1.4-1.4c-1.4,1.4-2.8,2.8-4.2,2.8
		c0-1.4,0-1.4,0-2.8c-1.4,1.4-2.8,2.8-4.2,2.8c0,0-1.4,0-1.4-1.4C80.4,225.3,79,225.3,79,225.3L79,225.3z"/>
	<path class="st1" d="M149.2,225.3c1.4-1.4,1.4-1.4,2.8-4.2h1.4C152,223.9,152,225.3,149.2,225.3L149.2,225.3z"/>
	<path class="st0" d="M69.2,225.3v-1.4l0,0c0-1.4,0-2.8,1.4-5.6c0,0,0,0,1.4,0C70.6,221.1,70.6,222.5,69.2,225.3L69.2,225.3z"/>
	<path class="st0" d="M72,223.9c0-2.8,0-4.2,2.8-5.6c0,1.4-1.4,4.2-1.4,5.6C72,223.9,72,223.9,72,223.9L72,223.9z"/>
	<path class="st0" d="M91.6,223.9c0,0,0-1.4-1.4-1.4l1.4-1.4c0,0,0,0,1.4,0c0,1.4,0,1.4,0,2.8H91.6L91.6,223.9z"/>
	<path class="st0" d="M364.1,221.1c0,0,0-1.4,0-2.8c-1.4,2.8-1.4,2.8-2.8,2.8c0-1.4,0-2.8,1.4-4.2c-2.8,2.8-2.8,2.8-4.2,2.8
		c0-2.8,2.8-5.6,4.2-8.4c0,0,1.4,0,1.4,1.4c-1.4,1.4-2.8,2.8-4.2,4.2c1.4,0,1.4-1.4,2.8,0c0-1.4,1.4-2.8,2.8-4.2
		c0,2.8,0,2.8-1.4,4.2v1.4c1.4-2.8,4.2-4.2,5.6-5.6c0,2.8-1.4,4.2-2.8,5.6l0,0c1.4,0,1.4,0,1.4,0
		C366.9,219.7,365.5,221.1,364.1,221.1L364.1,221.1z"/>
	<path class="st1" d="M189.9,221.1v-1.4c-1.4,0-1.4,0-1.4,0h-1.4c0-2.8,1.4-4.2,1.4-5.6c1.4-1.4,2.8-2.8,4.2-2.8
		c1.4-1.4,1.4-2.8,2.8-5.6c0,0,0-11.2,0-12.6c-5.6-2.8-8.4-5.6-12.6-9.8l0,0c0,5.6,0,5.6,0,5.6s0,0,1.4,0l0,0
		c-1.4,4.2-1.4,4.2-2.8,4.2c0,2.8,2.8,4.2,2.8,7c-2.8,0-2.8-1.4-4.2-4.2c-1.4,0-1.4,0-4.2,1.4c0,1.4,0,4.2,0,7c-1.4,0-1.4,0-1.4,0
		c-2.8-1.4-2.8-5.6-2.8-7c-1.4,0-2.8,0-4.2-1.4c0,2.8-1.4,4.2-2.8,7c0,0,0,0-1.4-1.4c1.4-2.8,1.4-2.8,0-5.6c0,0-1.4,0-2.8-1.4
		c-1.4,2.8-1.4,5.6-4.2,5.6c-1.4-4.2,2.8-4.2-1.4-8.4c2.8,0,2.8,0,9.8-1.4c4.2-1.4,8.4-4.2,12.6-7c5.6,0,5.6-2.8,8.4-8.4
		c4.2-1.4,4.2-1.4,4.2-1.4c-7,0-9.8-1.4-14-7c1.4,0,2.8,0,4.2,1.4c0-1.4,0-1.4-1.4-2.8c0-1.4,0-2.8,0-4.2c2.8,4.2,5.6,2.8,11.2,4.2
		c1.4,2.8,0,5.6,0,7c2.8-2.8,1.4-7-1.4-9.8c0,0,0,0-1.4,0c0-4.2,1.4-5.6,2.8-8.4c0,0,0,0,1.4,0c0-1.4,0-1.4,0-1.4
		c5.6,0,8.4,4.2,9.8,9.8c-1.4,7-1.4,14-1.4,21c0,2.8,1.4,2.8,4.2,5.6c0,1.4-1.4,2.8-1.4,4.2c0,2.8-1.4,2.8,0,5.6c0,0,0,0,0-2.8h1.4
		c-1.4,4.2-1.4,7-1.4,11.2c0,2.8,0,5.6,0,9.8c-1.4,0-1.4,0-1.4,0c0,1.4-1.4,1.4-1.4,1.4s0,0-1.4,0c0,1.4,0,1.4,0,2.8
		c-1.4-1.4-2.8-1.4-4.2-1.4c-1.4,1.4-1.4,1.4-1.4,1.4c0-1.4,0-1.4,0-1.4c-1.4,0-1.4,0-1.4,0S189.9,219.7,189.9,221.1L189.9,221.1z"
		/>
	<path class="st1" d="M285.4,221.1c0-1.4,0-1.4-1.4-1.4l0,0c-1.4-1.4-1.4-2.8-1.4-4.2c4.2-2.8,5.6-5.6,7-9.8c1.4,0,2.8-1.4,4.2-1.4
		c0,4.2-1.4,4.2,1.4,8.4c0-1.4,0-1.4,1.4-1.4c0,2.8,0,4.2,0,7c-4.2,0-5.6,1.4-8.4,1.4C286.8,219.7,286.8,219.7,285.4,221.1
		L285.4,221.1z"/>
	<path class="st0" d="M369.7,221.1c0-1.4,0-2.8,0-4.2c1.4-1.4,1.4-1.4,2.8-1.4c0,1.4-1.4,2.8-1.4,4.2c1.4-1.4,1.4-1.4,2.8-1.4
		c0,0,0,0,1.4,1.4c1.4,0,1.4,0,4.2,0c-2.8,0-4.2,1.4-5.6,1.4c0-1.4,0-1.4-1.4-1.4S371.1,219.7,369.7,221.1L369.7,221.1z"/>
	<path class="st0" d="M351.4,221.1c-1.4-1.4-1.4-4.2-1.4-5.6c1.4,0,1.4-1.4,1.4-1.4C351.4,216.9,351.4,218.3,351.4,221.1
		L351.4,221.1z"/>
	<path class="st0" d="M352.8,219.7c0-1.4,0-2.8,0-5.6h1.4C352.8,219.7,352.8,219.7,352.8,219.7L352.8,219.7z"/>
	<path class="st0" d="M354.2,219.7c0-2.8,0-7,4.2-7c-1.4,1.4-2.8,4.2-2.8,7H354.2L354.2,219.7z"/>
	<path class="st0" d="M357,219.7c0-2.8,2.8-5.6,4.2-8.4c0,0,0,0,1.4,0C361.3,212.7,361.3,212.7,357,219.7L357,219.7L357,219.7z"/>
	<path class="st0" d="M348.6,219.7c0,0-2.8-2.8-1.4-4.2c2.8,2.8,2.8,2.8,2.8,4.2H348.6L348.6,219.7z"/>
	<path class="st0" d="M213.8,218.3c-1.4,0-2.8,0-4.2,0c0,0,0,0,0-1.4c1.4,0,2.8,0,4.2,0c0,0,0,0,0-1.4c1.4,0,1.4,0,1.4,1.4
		c1.4-1.4,1.4-1.4,1.4-1.4h1.4v-1.4c1.4,0,1.4,0,2.8,1.4c-1.4-1.4-1.4-1.4-1.4-2.8c1.4,0,2.8,1.4,4.2,1.4c-1.4,1.4-1.4,1.4-1.4,4.2
		c-2.8,0-2.8,0-2.8,0l0,0C216.6,218.3,215.2,218.3,213.8,218.3L213.8,218.3z"/>
	<path class="st0" d="M241.9,218.3c-1.4-1.4-2.8-4.2-2.8-7c1.4,1.4,1.4,1.4,2.8,2.8c0-1.4,0-2.8,0-2.8s0,0,1.4,0
		C243.3,214.1,244.7,216.9,241.9,218.3L241.9,218.3z"/>
	<path class="st1" d="M154.8,218.3v-1.4h-1.4c0-1.4,0-2.8,0-4.2c0,0,0,0,1.4,0l0,0l0,0c0-1.4,4.2-4.2,5.6-4.2c0-1.4,1.4-2.8,2.8-4.2
		c1.4,0,1.4,0,2.8,0c0,0,0,1.4,0,2.8l1.4,1.4c0,2.8,0,2.8,0,7c-2.8,0-2.8,0-4.2,2.8c-1.4,0-1.4,0-2.8-1.4v1.4c-1.4-1.4-2.8,0-4.2,0
		v-1.4L154.8,218.3L154.8,218.3z"/>
	<path class="st0" d="M237.7,218.3c0-1.4-1.4-1.4-2.8-1.4c0-2.8,0-2.8,0-4.2c0,0,0,0,1.4,0c0,1.4,1.4,2.8,1.4,4.2c0-1.4,0-4.2,0-5.6
		c2.8,1.4,1.4,4.2,2.8,7c-1.4,0-1.4,0-1.4-1.4c0,1.4,0,1.4,0,1.4H237.7L237.7,218.3z"/>
	<path class="st0" d="M261.6,218.3c0,0,0-1.4-1.4-1.4l0,0l0,0c-1.4,0-1.4,0-1.4,0c0-1.4,0-2.8,0-4.2c1.4-1.4,1.4-1.4,1.4-1.4
		s0,0,1.4,0c0-1.4,0,0,1.4,0c0,1.4,0,2.8,0,4.2c0-1.4,1.4-4.2,1.4-5.6c0,0,0,0,1.4,0c-1.4,1.4-1.4,2.8-1.4,4.2
		c1.4-1.4,1.4-2.8,2.8-2.8l0,0c0,1.4-1.4,4.2-1.4,7C264.4,218.3,263,218.3,261.6,218.3L261.6,218.3z"/>
	<path class="st1" d="M241.9,218.3c0-1.4,0-1.4,0-2.8C241.9,216.9,241.9,216.9,241.9,218.3L241.9,218.3z"/>
	<path class="st0" d="M244.7,218.3c0-2.8-1.4-4.2-1.4-7c1.4,0,1.4,0,1.4,0c0,1.4,1.4,4.2,1.4,7C246.1,218.3,246.1,218.3,244.7,218.3
		L244.7,218.3z"/>
	<path class="st0" d="M267.2,218.3c0-4.2,0-4.2,1.4-7c1.4,0,1.4,0,1.4,0v1.4c0,0,0-1.4,2.8-1.4c0,1.4-1.4,2.8-2.8,4.2
		c1.4,0,1.4-1.4,2.8-1.4c-1.4,1.4-1.4,1.4-2.8,2.8l0,0c-1.4-1.4-1.4-1.4-1.4-1.4C267.2,216.9,267.2,216.9,267.2,218.3L267.2,218.3z"
		/>
	<path class="st0" d="M275.6,215.5c-1.4-1.4-1.4-2.8,0-2.8v1.4h1.4c0,0,0,0,0,1.4C275.6,215.5,275.6,215.5,275.6,215.5L275.6,215.5z
		"/>
	<path class="st0" d="M57.9,209.9c0-2.8,0-2.8,0-2.8c-1.4,1.4-1.4,1.4-2.8,1.4c0-2.8,1.4-5.6,4.2-5.6c0,1.4-1.4,2.8-1.4,2.8
		s0,0,4.2-1.4C62.1,205.7,59.3,208.5,57.9,209.9L57.9,209.9z"/>
	<path class="st0" d="M27,209.9c-1.4,0-1.4-1.4-1.4-1.4l0,0c1.4,0,1.4,0,1.4,0C27,209.9,27,209.9,27,209.9L27,209.9z"/>
	<path class="st0" d="M46.7,209.9c0-2.8,0-2.8,0-2.8s-1.4,0-1.4,1.4c-2.8,0-2.8,0-5.6-1.4c1.4-1.4,1.4-4.2,2.8-5.6c0,0,0,0,1.4,0
		c-1.4,2.8-1.4,2.8-1.4,2.8c1.4-1.4,1.4-1.4,1.4-1.4l0,0c0,0,0,1.4,0,2.8c1.4-1.4,1.4-2.8,2.8-2.8c0,1.4-1.4,2.8,0,4.2
		c2.8-4.2,2.8-4.2,4.2-5.6c0,0,0,0,1.4,0C50.9,202.9,49.5,208.5,46.7,209.9L46.7,209.9z"/>
	<path class="st0" d="M28.4,208.5c-1.4-1.4-1.4-1.4-1.4-2.8c0,0,1.4,0,1.4,1.4c0-1.4,0-1.4,0-2.8c1.4,0,2.8,2.8,4.2,4.2
		c-1.4,0-1.4,0-4.2-1.4c1.4,0,1.4,1.4,1.4,1.4S29.8,208.5,28.4,208.5L28.4,208.5z"/>
	<path class="st0" d="M32.7,208.5c-1.4-1.4-1.4-2.8-1.4-5.6c1.4,0,1.4,1.4,2.8,1.4v1.4c1.4,0,1.4,0,1.4,0l0,0c0-1.4,1.4-1.4,1.4-2.8
		l0,0c0,1.4,1.4,2.8,1.4,4.2c0-1.4,0-5.6,1.4-5.6c0,4.2,0,4.2,0,7c-1.4,0-2.8,0-4.2-1.4c0,0-1.4,0-1.4,1.4c0,0,0,0,0-1.4
		c0,1.4,0,1.4,0,1.4S34.1,208.5,32.7,208.5L32.7,208.5z"/>
	<path class="st0" d="M50.9,208.5c0-2.8,0-2.8,2.8-5.6c0,1.4,0,2.8-1.4,4.2c1.4-1.4,1.4-1.4,1.4,0C50.9,208.5,50.9,208.5,50.9,208.5
		L50.9,208.5z"/>
	<path class="st0" d="M62.1,208.5c0-1.4,0-1.4,0-1.4c0-1.4,0-1.4,1.4-2.8c0,1.4,1.4,1.4,1.4,2.8c1.4-1.4,2.8,0,4.2,0
		c-1.4,0-1.4,0-1.4,1.4C66.4,208.5,65,208.5,62.1,208.5L62.1,208.5z"/>
	<path class="st0" d="M73.4,208.5c-1.4-1.4-2.8-1.4-4.2-1.4v-1.4c1.4,1.4,4.2,1.4,7,0v1.4C74.8,207.1,74.8,207.1,73.4,208.5
		L73.4,208.5z"/>
	<path class="st1" d="M291,204.3c0-2.8,0-5.6,0-9.8c-1.4,0-2.8,0-4.2-1.4c0,1.4,0,1.4-2.8,5.6c-1.4,0-1.4,0-2.8,0
		c0-2.8,2.8-2.8,2.8-5.6c0-1.4,0-1.4-1.4-2.8c1.4-1.4,12.6-5.6,14-8.4c1.4,0,2.8-1.4,4.2-2.8c0,1.4,0,1.4,0,1.4h1.4
		c0,1.4,0,1.4,1.4,1.4c0,0,0,1.4,0,2.8c1.4,0,1.4-1.4,1.4-1.4c1.4,1.4,1.4,0,2.8,0c0,0,0,1.4,0,2.8c0,0,1.4,0,1.4-1.4
		c1.4,2.8,2.8,4.2,4.2,4.2c0,1.4-1.4,2.8-1.4,2.8c0,2.8,1.4,4.2,1.4,7c0,0-1.4,1.4-2.8,1.4c-1.4-4.2-2.8-7-7-4.2c0,2.8,0,5.6,0,7
		c-2.8,0-2.8-2.8-4.2-5.6c-1.4,0-2.8,0-4.2,0C293.8,198.7,293.8,201.5,291,204.3L291,204.3z"/>
	<path class="st2" d="M118.3,197.3c0,0,0,0,0-1.4h-1.4C118.3,194.5,118.3,195.9,118.3,197.3L118.3,197.3L118.3,197.3z"/>
	<path class="st1" d="M364.1,195.9c0-2.8,0-5.6-1.4-8.4c0-1.4,0-11.2-2.8-9.8c0,0,0,0-1.4,1.4c0-1.4,0-1.4-1.4-1.4
		c1.4,2.8,2.8,4.2,4.2,7c-4.2-2.8-8.4-5.6-12.6-7c0,1.4,1.4,1.4,2.8,2.8c-4.2-1.4-4.2-5.6-5.6-9.8c-9.8-11.2-5.6-25.2-5.6-39.3
		c0-1.4-2.8-9.8-5.6-9.8c0-1.4-1.4-2.8-2.8-4.2c0,1.4,0,1.4-1.4,1.4v-1.4c0,0,0,0-1.4,0c0,0,0,0,0-1.4c0,0,0,0-1.4,0c0,0,0,0,0-1.4
		c-1.4,1.4-1.4,1.4-1.4,2.8c0-1.4,0-2.8,0-2.8c-1.4,0-1.4,0-1.4,1.4c0-1.4,0-1.4-1.4-1.4l0,0c-1.4-1.4-2.8-1.4-4.2-1.4
		c0,1.4,0,1.4,0,2.8c-1.4-1.4-1.4-1.4-1.4-4.2c15.4,0,22.5,8.4,26.7,22.4c0,8.4-2.8,16.8-1.4,26.6c1.4,4.2,2.8,5.6,7,8.4
		c8.4-1.4,15.4,1.4,16.9,9.8h-1.4h-1.4c0,2.8,2.8,4.2,2.8,7l0,0c-1.4-1.4-1.4-2.8-2.8-4.2c0,1.4,0,2.8,1.4,5.6
		C365.5,188.9,366.9,194.5,364.1,195.9L364.1,195.9z"/>
	<path class="st0" d="M21.4,194.5c-1.4,0-1.4,0-2.8,0c-1.4-1.4-1.4-1.4-1.4-2.8c0,0,0,0,1.4,0c1.4,2.8,0,0,0-1.4
		C20,190.3,21.4,193.1,21.4,194.5c0-1.4,0-4.2,0-5.6c1.4,1.4,1.4,1.4,1.4,2.8c1.4-1.4,1.4-1.4,1.4-1.4c1.4,1.4,1.4,1.4,1.4,2.8
		c1.4-2.8,1.4-2.8,2.8-4.2c-1.4,2.8-1.4,2.8-1.4,4.2c0,0,2.8-2.8,4.2-2.8c0,1.4,0,1.4,0,1.4l0,0c0,1.4-1.4,2.8-1.4,2.8
		c-1.4,0-1.4-1.4-1.4-1.4c-1.4,1.4-1.4,1.4-1.4,1.4c-2.8,0-2.8,0-2.8,0s0,0,0-1.4c-1.4,1.4-1.4,1.4-1.4,1.4S22.8,194.5,21.4,194.5
		L21.4,194.5z"/>
	<path class="st0" d="M17.2,194.5c-1.4-1.4-2.8-1.4-4.2-1.4h1.4v-1.4C15.8,191.7,17.2,193.1,17.2,194.5L17.2,194.5L17.2,194.5z"/>
	<path class="st0" d="M38.3,193.1h1.4c0,0,0,0,1.4,0C39.7,193.1,39.7,193.1,38.3,193.1L38.3,193.1z"/>
	<path class="st0" d="M32.7,193.1c0,0,0-1.4,0-2.8c1.4,0,1.4,0,1.4,0v1.4c0,0,0,0,0,1.4c1.4-1.4,1.4-1.4,1.4-1.4
		c1.4,1.4,1.4,1.4,1.4,1.4C35.5,193.1,34.1,193.1,32.7,193.1L32.7,193.1z"/>
	<path class="st1" d="M361.3,188.9c-1.4-1.4-1.4-2.8-2.8-4.2c0,0,0,0,1.4,0C359.8,186.1,359.8,186.1,361.3,188.9L361.3,188.9z"/>
	<path class="st0" d="M306.5,186.1c0-1.4,0-1.4,1.4-2.8C306.5,186.1,306.5,186.1,306.5,186.1L306.5,186.1z"/>
	<path class="st1" d="M357,186.1c-1.4-1.4-2.8-2.8-2.8-2.8c0-1.4,0-1.4,2.8,1.4C357,184.7,357,184.7,357,186.1L357,186.1z"/>
	<path class="st0" d="M258.7,183.3c1.4-1.4,1.4-2.8,4.2-2.8C261.6,181.9,260.1,183.3,258.7,183.3L258.7,183.3z"/>
	<path class="st0" d="M261.6,183.3c1.4-1.4,2.8-2.8,4.2-2.8c0,0,0,0,0,1.4c1.4-1.4,1.4-1.4,2.8-2.8c0,1.4,0,1.4,0,1.4
		c-1.4,1.4-2.8,1.4-2.8,2.8c0-1.4,0-1.4,0-1.4C264.4,181.9,263,183.3,261.6,183.3L261.6,183.3z"/>
	<path class="st0" d="M267.2,183.3v-1.4c2.8-1.4,2.8-1.4,2.8-1.4C270,181.9,268.6,181.9,267.2,183.3L267.2,183.3z"/>
	<path class="st0" d="M270,183.3c0-1.4,2.8-2.8,4.2-4.2C274.2,181.9,271.4,181.9,270,183.3L270,183.3z"/>
	<path class="st0" d="M274.2,183.3c0-2.8,1.4-2.8,2.8-2.8C275.6,181.9,275.6,183.3,274.2,183.3L274.2,183.3z"/>
	<path class="st0" d="M277,183.3c0-1.4,1.4-4.2,2.8-4.2C279.8,181.9,278.4,181.9,277,183.3L277,183.3z"/>
	<path class="st1" d="M65,183.3c-2.8-4.2-4.2-8.4-4.2-12.6l0,0c0,1.4,1.4,2.8,1.4,4.2c0-1.4,0-4.2,0-5.6c-1.4,0-1.4-1.4-2.8-1.4
		c0-4.2-2.8-7-5.6-9.8l0,0c0-2.8-1.4-1.4-4.2-4.2c0,1.4,0,1.4-1.4,1.4c-1.4-1.4-1.4-1.4-2.8,0c0-1.4,0-1.4,0-1.4c-1.4,0-1.4,0-1.4,0
		c-1.4-2.8-2.8-4.2-2.8-5.6c-2.8-1.4-1.4-5.6-1.4-7c1.4,0,1.4,0,2.8,0c0,0,0,1.4,0,2.8c1.4-2.8,2.8-4.2,1.4-8.4h-1.4
		c-5.6,9.8-16.9,7-21.1-2.8c-1.4-1.4-1.4-4.2-1.4-7c8.4,1.4,14,7,22.5,2.8v-1.4h-1.4c5.6-4.2,7-7,0-11.2l0,0c0,0,0,0,1.4,0
		c0-1.4,0-2.8,0-4.2c1.4,0,1.4,0,1.4,0c1.4-1.4,1.4-2.8,2.8-4.2c0,1.4,0,1.4,1.4,1.4c2.8-2.8,9.8-4.2,12.6-4.2v1.4
		c2.8,0,4.2,0,5.6,0c0,1.4,0,1.4,0,2.8h1.4c0,1.4,0,1.4,0,1.4l1.4,1.4c0,1.4-1.4,0-2.8,0c0,0,0,0,0,1.4c0,0,0,0,1.4,2.8
		c-1.4-1.4-4.2-2.8-7-2.8l0,0c4.2,1.4,4.2,1.4,2.8,5.6c0-1.4-1.4-2.8-2.8-2.8c-1.4,0-1.4,1.4-1.4,1.4c-1.4,0-1.4-1.4-4.2-1.4
		c0,1.4,1.4,2.8,2.8,4.2c-1.4,0-1.4,0-1.4,0c-1.4-1.4-1.4-1.4-4.2-1.4c0,0,1.4,1.4,1.4,2.8c-1.4-1.4-1.4-1.4-4.2-1.4
		c0,0,0,1.4,0,2.8c0-1.4-1.4-2.8-2.8-1.4l0,0c1.4,1.4,2.8,1.4,1.4,2.8c1.4,0,1.4,0,1.4,0c1.4,0,1.4-1.4,1.4-2.8c0,0,1.4,0,1.4,1.4
		c0,0,0,0,0,1.4c-1.4,0-1.4,1.4-1.4,1.4s0,0,0,1.4c2.8-2.8,2.8-2.8,5.6-2.8c0,0-1.4-1.4-1.4-2.8l0,0c1.4,0,1.4,0,1.4,0s0,0,1.4,0
		c0,0,0-1.4,0-2.8c1.4,1.4,1.4,1.4,1.4,2.8c1.4-1.4,1.4-1.4,2.8-2.8l0,0c1.4,1.4,1.4,2.8,1.4,4.2c1.4-1.4,2.8-2.8,4.2-2.8v-1.4
		c4.2,1.4,8.4,8.4,9.8,12.6c0,2.8,0,4.2,0,7c-1.4-1.4-2.8-1.4-4.2-1.4c0-1.4,1.4-1.4,1.4-1.4c0-5.6,0-14-7-14
		c-1.4,1.4-1.4,1.4-2.8,2.8c0,5.6,2.8,9.8,7,12.6c2.8,4.2,11.2,4.2,14,5.6c0,0,0,0,0,1.4c5.6-4.2,8.4-7,14-2.8
		c4.2,9.8,1.4,16.8-9.8,16.8c-5.6,1.4-8.4,7-14,9.8c-8.4,2.8-14-1.4-18.3-8.4c0-4.2,0-7,4.2-9.8c0,1.4,0,1.4,0,1.4v-1.4
		c0-1.4-1.4-1.4-2.8-1.4c0,1.4-1.4,2.8-2.8,4.2c-2.8,8.4,4.2,12.6,11.2,18.2c1.4,5.6,2.8,8.4,8.4,9.8c9.8-2.8,0-8.4,4.2-12.6
		c0,4.2,2.8,7,2.8,11.2c-5.6,4.2-9.8,4.2-14,0c0,1.4,0,1.4,0,2.8C69.2,181.9,69.2,181.9,65,183.3L65,183.3z"/>
	<path class="st0" d="M279.8,181.9c1.4,0,1.4,0,2.8-2.8l0,0C282.6,180.5,281.2,181.9,279.8,181.9L279.8,181.9z"/>
	<path class="st0" d="M282.6,181.9c1.4-1.4,2.8-2.8,4.2-4.2v1.4C285.4,180.5,284,180.5,282.6,181.9L282.6,181.9z"/>
	<path class="st0" d="M147.8,181.9c0-1.4,0-2.8,0-2.8h1.4C149.2,179,147.8,180.5,147.8,181.9L147.8,181.9L147.8,181.9z"/>
	<path class="st0" d="M149.2,181.9c1.4-1.4,1.4-1.4,1.4-2.8c0,0,0,0,1.4,0C152,180.5,150.6,181.9,149.2,181.9L149.2,181.9z"/>
	<path class="st0" d="M152,181.9c1.4-1.4,1.4-2.8,1.4-2.8s0,0,1.4-1.4c-1.4,1.4-1.4,2.8-1.4,4.2C153.4,181.9,153.4,181.9,152,181.9
		L152,181.9z"/>
	<path class="st0" d="M145,181.9c0-1.4,0-1.4,1.4-2.8l0,0C146.4,180.5,146.4,180.5,145,181.9L145,181.9z"/>
	<path class="st0" d="M154.8,181.9c0-1.4,0-2.8,0-4.2c1.4,0,1.4,0,1.4,0c0,1.4,0,2.8,0,4.2C154.8,181.9,154.8,181.9,154.8,181.9
		L154.8,181.9z"/>
	<path class="st0" d="M143.6,180.5V179h1.4c0,0,0,0,0,1.4H143.6L143.6,180.5z"/>
	<path class="st0" d="M157.6,180.5c0,0,0-1.4,0-2.8h1.4C159,179,157.6,180.5,157.6,180.5L157.6,180.5L157.6,180.5z"/>
	<path class="st1" d="M177.3,180.5c0-1.4,0-4.2,0-4.2c-4.2,4.2-8.4,4.2-12.6,0c0-4.2,1.4-7,1.4-11.2c0,4.2,0,5.6,0,8.4
		c1.4,2.8,2.8,2.8,7,2.8c1.4-1.4,2.8-4.2,4.2-4.2c1.4,1.4,2.8,1.4,5.6,2.8c0,4.2-2.8,2.8-4.2,5.6H177.3L177.3,180.5z"/>
	<path class="st0" d="M286.8,180.5c1.4-1.4,2.8-4.2,4.2-4.2C291,177.6,289.6,180.5,286.8,180.5L286.8,180.5z"/>
	<path class="st0" d="M159,179v-1.4c1.4,0,1.4,0,1.4,0v1.4C160.4,179,160.4,179,159,179L159,179z"/>
	<path class="st1" d="M76.2,179c0,0-1.4,0-1.4-1.4c1.4,0,4.2,0,5.6-1.4C79,179,77.6,179,76.2,179L76.2,179z"/>
	<path class="st0" d="M291,179c0-2.8,1.4-4.2,2.8-5.6C293.8,176.2,292.4,177.6,291,179L291,179z"/>
	<path class="st0" d="M293.8,176.2c1.4-1.4,1.4-2.8,2.8-4.2C296.7,173.4,295.3,174.8,293.8,176.2L293.8,176.2z"/>
	<path class="st1" d="M74.8,176.2c-2.8,0-5.6-2.8-4.2-4.2c0,0,0,0,1.4,0c0,1.4,0,1.4,0,2.8c1.4,0,1.4,0,1.4,0c0-1.4,0-1.4,0-2.8
		C74.8,172,74.8,174.8,74.8,176.2L74.8,176.2L74.8,176.2z"/>
	<path class="st1" d="M173.1,173.4c0,0,0,0,0-1.4c0,0,1.4,0,2.8-1.4C175.9,172,174.5,173.4,173.1,173.4L173.1,173.4z"/>
	<path class="st0" d="M296.7,173.4c1.4-1.4,1.4-2.8,1.4-5.6c1.4,0,1.4,0,1.4,0C299.5,170.6,298.1,172,296.7,173.4L296.7,173.4z"/>
	<path class="st0" d="M299.5,170.6c1.4-2.8,1.4-4.2,2.8-7l0,0C302.3,166.4,302.3,169.2,299.5,170.6L299.5,170.6z"/>
	<path class="st1" d="M145,166.4c-7-1.4-9.8-2.8-11.2-9.8c1.4-11.2,5.6-5.6,12.6-8.4c8.4-5.6,7-5.6,16.9-2.8c1.4,0,1.4,1.4,2.8,1.4
		l0,0c-1.4-2.8-2.8-4.2-4.2-4.2c0-2.8,2.8-5.6,2.8-7c-1.4,0-1.4,0-1.4,1.4c0-7-1.4-8.4-4.2-12.6c0-1.4,0-1.4,0-2.8
		c2.8,1.4,2.8,1.4,2.8,1.4c0-1.4,0-1.4,0-2.8c1.4,0,2.8,1.4,4.2,1.4c0-1.4,0-1.4,0-2.8c1.4,0,2.8,0,2.8,0s0,0,1.4-1.4
		c1.4,0,5.6,5.6,7,7c0,1.4,0,1.4,0,2.8c0-1.4,0-2.8,0-5.6c-1.4-1.4-2.8-2.8-2.8-5.6c2.8,1.4,5.6,0,8.4,0c0,1.4-1.4,1.4-1.4,2.8
		c1.4,0,1.4,0,1.4,1.4c5.6-4.2,8.4-7,11.2-12.6c1.4,0,1.4,0,1.4-1.4c1.4,0,1.4,0,2.8,0c1.4,7,4.2,14-4.2,19.6c-2.8,0-8.4,0-9.8-1.4
		c-1.4,0-1.4,0-1.4,0c0,1.4,0,1.4,0,2.8c0,0,1.4,0,2.8,0v1.4h-1.4v1.4c1.4,1.4,1.4,1.4,4.2,1.4c-1.4,1.4-1.4,1.4-1.4,1.4
		c1.4,0,1.4,0,1.4,0c0,2.8,4.2,7,5.6,8.4c0-5.6,0-5.6-1.4-7c0,0-1.4,0-1.4-1.4c2.8,0,7,2.8,5.6,7c0,0,0,0,0,4.2
		c-1.4,1.4-1.4,1.4-1.4,2.8c-2.8,1.4-7,4.2-9.8,7c0,2.8,0,8.4-2.8,8.4c-2.8-2.8-1.4-4.2,0-5.6c4.2-7,2.8-8.4-2.8-14
		c0-2.8,0-2.8,0-2.8c-2.8,0-2.8,2.8-2.8,4.2l0,0c0,0,0,0,0-1.4c5.6,0,5.6,9.8,5.6,12.6c-2.8,2.8-4.2,4.2-7,5.6
		c-9.8,0-18.3-2.8-25.3,4.2C147.8,166.4,147.8,166.4,145,166.4L145,166.4z"/>
	<path class="st0" d="M302.3,166.4c1.4-1.4,1.4-2.8,1.4-4.2c0,0,0,0,1.4,0C303.7,163.6,303.7,165,302.3,166.4L302.3,166.4z"/>
	<path class="st0" d="M257.3,165c-1.4,0-2.8-2.8-2.8-4.2c-7,0-2.8-4.2-1.4-7c0-1.4,0-1.4,1.4-2.8c5.6,1.4,5.6-1.4,9.8,4.2
		c0,1.4,1.4,2.8,1.4,5.6C260.1,163.6,260.1,163.6,257.3,165L257.3,165z"/>
	<path class="st0" d="M102.9,163.6c0-1.4,0-1.4,0-1.4c0-1.4,1.4-1.4,1.4-1.4s0,0,0,1.4C104.3,162.2,102.9,162.2,102.9,163.6
		L102.9,163.6z"/>
	<path class="st0" d="M100.1,162.2c0-1.4,1.4-1.4,2.8-2.8C102.9,160.8,101.5,162.2,100.1,162.2L100.1,162.2z"/>
	<path class="st2" d="M305.1,162.2c0-1.4,0-1.4,0-2.8C305.1,159.4,305.1,160.8,305.1,162.2L305.1,162.2L305.1,162.2z"/>
	<path class="st2" d="M216.6,159.4c0-1.4,0-1.4,0-1.4S216.6,158,216.6,159.4L216.6,159.4z"/>
	<path class="st0" d="M142.2,159.4c-1.4-1.4-2.8-2.8-2.8-4.2c-1.4,0-1.4,0-1.4,0c1.4-4.2,7,0,4.2,2.8
		C142.2,158,142.2,158,142.2,159.4L142.2,159.4z"/>
	<polygon class="st2" points="215.2,158 215.2,156.6 215.2,158 	"/>
	<path class="st0" d="M212.4,158c0-2.8,0-2.8,1.4-2.8c0,1.4,0,1.4,0,2.8C212.4,158,212.4,158,212.4,158L212.4,158z"/>
	<path class="st0" d="M209.6,156.6c0,0,0,0,1.4-1.4l0,0v1.4C211,156.6,211,156.6,209.6,156.6L209.6,156.6z"/>
	<path class="st0" d="M77.6,156.6c-1.4-1.4-1.4-2.8-2.8-2.8s-1.4,0-1.4,1.4c0-2.8,0-2.8,1.4-4.2c0,0,1.4,0,2.8,1.4
		c0,1.4,0,1.4,1.4,4.2C79,156.6,79,156.6,77.6,156.6L77.6,156.6z"/>
	<path class="st0" d="M208.2,156.6c0-1.4,0-2.8,1.4-2.8l0,0C209.6,155.2,209.6,155.2,208.2,156.6L208.2,156.6z"/>
	<path class="st0" d="M154.8,155.2c-1.4-2.8,0-5.6,1.4-7c0-1.4,1.4-1.4,1.4-1.4c1.4,1.4,1.4,2.8,1.4,4.2c-1.4,0-1.4,0-1.4,0
		c-1.4,1.4-1.4,2.8-1.4,4.2C156.2,155.2,156.2,155.2,154.8,155.2L154.8,155.2z"/>
	<path class="st1" d="M204,153.8c0-1.4,0-1.4,0-1.4C204,153.8,204,153.8,204,153.8L204,153.8z"/>
	<path class="st0" d="M46.7,151c0,0-1.4-5.6,0-5.6c0,1.4,1.4,4.2,1.4,5.6C46.7,151,46.7,151,46.7,151L46.7,151z"/>
	<path class="st0" d="M49.5,151c0,0-1.4-1.4,0-2.8l0,0C49.5,149.6,49.5,149.6,49.5,151L49.5,151z"/>
	<path class="st0" d="M67.8,151c1.4-7,5.6-8.4,11.2-4.2l0,0c-2.8,0-5.6-1.4-8.4,0C69.2,149.6,69.2,149.6,67.8,151L67.8,151z"/>
	<path class="st0" d="M115.5,149.6c-7-5.6,4.2-9.8,2.8-1.4C116.9,149.6,116.9,149.6,115.5,149.6L115.5,149.6z"/>
	<path class="st0" d="M93,149.6c-1.4-1.4-1.4-2.8-1.4-4.2C93,144,93,144,94.4,144v1.4c0,1.4,0,2.8,0,4.2H93L93,149.6z"/>
	<path class="st0" d="M45.3,148.2c-1.4-1.4-1.4-2.8,0-4.2l0,0C45.3,145.4,45.3,146.8,45.3,148.2L45.3,148.2z"/>
	<path class="st0" d="M369.7,148.2c-1.4,0-1.4,0-1.4-1.4c0,0,0,0,1.4,0V148.2L369.7,148.2L369.7,148.2z"/>
	<path class="st0" d="M372.5,148.2c0,0,0-1.4,0-2.8h1.4c0,1.4,0,2.8,0,2.8S373.9,148.2,372.5,148.2L372.5,148.2z"/>
	<path class="st0" d="M373.9,148.2c1.4,0,1.4-1.4,1.4-2.8C375.3,146.8,375.3,146.8,373.9,148.2L373.9,148.2z"/>
	<path class="st0" d="M376.7,148.2c0,0,0-1.4,0-2.8l0,0C376.7,146.8,376.7,146.8,376.7,148.2L376.7,148.2z"/>
	<path class="st0" d="M378.1,148.2c0-1.4,0-2.8,1.4-4.2c0,2.8,0,2.8,0,4.2C378.1,148.2,378.1,148.2,378.1,148.2L378.1,148.2z"/>
	<path class="st0" d="M379.5,148.2c0-1.4,0-1.4,1.4-2.8c0,1.4,0,1.4,0,1.4c1.4,1.4,1.4,1.4,2.8,1.4l0,0
		C382.3,148.2,380.9,148.2,379.5,148.2L379.5,148.2z"/>
	<path class="st0" d="M371.1,148.2c-1.4-1.4-1.4-1.4,0-2.8l0,0C371.1,146.8,371.1,148.2,371.1,148.2L371.1,148.2L371.1,148.2z"/>
	<path class="st0" d="M42.5,146.8c0-2.8,1.4-4.2,2.8-5.6C45.3,142.6,43.9,146.8,42.5,146.8L42.5,146.8z"/>
	<path class="st0" d="M191.3,145.4c-1.4-1.4-1.4-1.4-1.4-2.8C191.3,142.6,191.3,144,191.3,145.4L191.3,145.4z"/>
	<path class="st0" d="M57.9,144c0-1.4,0-1.4,0-2.8c-5.6-1.4-9.8-8.4-5.6-14c1.4,0,1.4-1.4,2.8-1.4c0,0,0,0,2.8,1.4
		c1.4,0,2.8,1.4,4.2,2.8c0,4.2,1.4,7,1.4,11.2C62.1,141.2,60.7,141.2,57.9,144L57.9,144z"/>
	<path class="st0" d="M191.3,144c0-1.4,0-2.8-1.4-2.8c1.4,0,1.4,0,2.8,0c0,0,0,1.4,0,2.8C192.7,144,192.7,144,191.3,144L191.3,144z"
		/>
	<path class="st1" d="M59.3,141.2c-1.4-1.4-2.8-1.4-2.8-1.4v-1.4c2.8-1.4,2.8-4.2,0-7c0,0,0,0,0-1.4c1.4,0,1.4,0,2.8,0
		c1.4,2.8,2.8,5.6,2.8,9.8C60.7,139.8,59.3,139.8,59.3,141.2L59.3,141.2z"/>
	<path class="st1" d="M154.8,141.2c-1.4,0-1.4,0-1.4,0c0-7,0-7,0-15.4c0,0,0,0,1.4,0c-1.4,5.6,0,9.8,1.4,14
		C156.2,139.8,156.2,139.8,154.8,141.2L154.8,141.2z"/>
	<path class="st0" d="M66.4,139.8v-1.4h1.4C66.4,139.8,66.4,139.8,66.4,139.8L66.4,139.8z"/>
	<path class="st1" d="M142.2,138.4c-7-2.8-8.4-5.6-9.8-14c2.8,0,4.2,2.8,8.4,2.8c1.4,1.4,7,1.4,8.4,1.4v1.4c-4.2,1.4-7,0-11.2-1.4
		c-1.4,0-1.4,0-1.4,0v1.4c0,0,0,0,1.4,0c2.8,5.6,5.6,5.6,11.2,5.6v1.4C146.4,138.4,145,138.4,142.2,138.4L142.2,138.4z"/>
	<path class="st1" d="M157.6,138.4c-1.4-1.4-1.4-1.4-2.8-4.2c2.8,0,2.8,1.4,5.6,1.4C160.4,138.4,159,138.4,157.6,138.4L157.6,138.4z
		"/>
	<path class="st0" d="M34.1,137c0,0-2.8,0-4.2-1.4v-1.4c-1.4,0-1.4,0-1.4,0c-1.4-1.4-1.4-1.4-1.4-2.8c0,0-1.4,0-2.8,0V130
		c1.4,0,2.8,0,4.2,0c4.2,4.2,7,4.2,12.6,2.8v1.4C39.7,135.6,36.9,137,34.1,137L34.1,137z"/>
	<path class="st0" d="M168.9,137c0-1.4,0-1.4,0-1.4c-5.6-4.2-7-11.2,0-15.4c7,2.8,7,7,7,14c0,0,0,0,0,1.4
		C174.5,135.6,171.7,135.6,168.9,137L168.9,137z"/>
	<path class="st1" d="M70.6,134.2L70.6,134.2L70.6,134.2v-1.4c0,0,0-1.4,1.4-1.4c0-1.4-1.4-2.8-1.4-5.6l1.4,1.4
		c1.4,1.4,1.4,4.2,1.4,7C72,134.2,72,134.2,70.6,134.2L70.6,134.2z"/>
	<path class="st1" d="M56.5,134.2c-1.4,0-1.4-1.4-1.4-1.4C56.5,132.8,56.5,132.8,56.5,134.2L56.5,134.2L56.5,134.2z"/>
	<path class="st1" d="M170.3,134.2c-2.8-1.4-4.2-4.2-4.2-8.4h1.4c0,2.8,2.8,7,7,5.6l-1.4,1.4C173.1,132.8,171.7,134.2,170.3,134.2
		L170.3,134.2z"/>
	<path class="st2" d="M90.2,132.8c0,0,0,0,0-1.4C90.2,132.8,90.2,132.8,90.2,132.8L90.2,132.8L90.2,132.8z"/>
	<path class="st0" d="M93,132.8h-1.4l1.4-1.4C93,132.8,93,132.8,93,132.8L93,132.8L93,132.8z"/>
	<path class="st0" d="M94.4,132.8c0,0,0,0,0-1.4c1.4,1.4,1.4,1.4,1.4,1.4S95.8,132.8,94.4,132.8L94.4,132.8z"/>
	<path class="st1" d="M52.3,132.8c0-2.8,0-2.8,1.4-4.2c1.4,0,1.4,0,2.8,0C56.5,128.6,56.5,128.6,52.3,132.8L52.3,132.8z"/>
	<path class="st1" d="M154.8,128.6c0,0,1.4-1.4,1.4-2.8c0,0,0,0,1.4,0c0,0,0,0,0,1.4C156.2,127.2,156.2,128.6,154.8,128.6
		L154.8,128.6z"/>
	<polygon class="st1" points="69.2,128.6 69.2,127.2 69.2,127.2 69.2,128.6 69.2,128.6 	"/>
	<path class="st1" d="M36.9,125.8c0,0,0,0,0-1.4c2.8,0,2.8,0,2.8,0V123c-1.4,1.4-7,0-9.8-1.4c-5.6-4.2-4.2-11.2,0-16.8
		c0,7-1.4,9.8,5.6,14c4.2,0,8.4-1.4,8.4,4.2C42.5,124.4,41.1,125.8,36.9,125.8L36.9,125.8z"/>
	<path class="st1" d="M66.4,125.8v-1.4l1.4-1.4c1.4,0,2.8,1.4,2.8,2.8C69.2,125.8,69.2,125.8,66.4,125.8L66.4,125.8z"/>
	<path class="st1" d="M142.2,125.8c-1.4,0-1.4-1.4-1.4-1.4c1.4,0,1.4,1.4,2.8,1.4H142.2L142.2,125.8z"/>
	<path class="st1" d="M77.6,125.8v-1.4c0,0,0,0,0-1.4c2.8,0,4.2-7,4.2-9.8l0,0c-2.8,4.2-5.6,5.6-9.8,7c-1.4-1.4-1.4-1.4-1.4-2.8
		c4.2,0,4.2,0,5.6-1.4c1.4-2.8,4.2-5.6,7-8.4c0,0,0,0,1.4,0c0,0,0,1.4,0,2.8l0,0c1.4,4.2,1.4,8.4,0,11.2c-1.4,1.4-1.4,1.4-2.8,2.8
		C79,124.4,79,124.4,77.6,125.8L77.6,125.8z"/>
	<path class="st1" d="M209.6,124.4V123c4.2-2.8,5.6-8.4,5.6-14c-1.4-4.2-4.2-8.4-2.8-12.6c7-8.4,12.6-7,21.1-2.8
		c4.2,1.4,11.2-2.8,14,1.4c-2.8,0-2.8,0-4.2,0c2.8,1.4,5.6,2.8,5.6,7c-1.4-1.4-2.8-1.4-4.2-1.4c0,1.4,1.4,1.4,2.8,2.8l0,0
		c-1.4,0-2.8,0-4.2-1.4c0,1.4,1.4,2.8,1.4,2.8c-2.8,0-4.2-2.8-5.6-2.8c0,1.4,0,1.4,0,1.4c0,1.4,0,1.4,1.4,1.4c-1.4,0-1.4,0-1.4,0
		c-4.2,0-5.6-4.2-7-8.4c-5.6-7-16.9-2.8-16.9,5.6c1.4,2.8,2.8,4.2,4.2,7c0,2.8,0,9.8-2.8,9.8c-1.4,1.4-2.8,1.4-4.2,4.2
		c0,0,0,0,0,1.4C212.4,124.4,211,124.4,209.6,124.4L209.6,124.4z"/>
	<path class="st1" d="M167.5,124.4c0-1.4,0-1.4,0-2.8c1.4,0,1.4,0,2.8,1.4C168.9,123,167.5,123,167.5,124.4L167.5,124.4z"/>
	<path class="st0" d="M188.5,124.4c-1.4-1.4-2.8-1.4-4.2-1.4c0-2.8,4.2-5.6,7-7c0-1.4,1.4-2.8,2.8-4.2l0,0c0,1.4,0,1.4-1.4,4.2l0,0
		C191.3,118.8,191.3,123,188.5,124.4L188.5,124.4z"/>
	<path class="st0" d="M362.7,123c-1.4,0-4.2,0-5.6-1.4c1.4,0,1.4,0,2.8,0s1.4,0,1.4-1.4c0,0,0,0,1.4,0v1.4c0-1.4,0-2.8,1.4-2.8
		c0,1.4,0,2.8,0,4.2C362.7,123,362.7,123,362.7,123L362.7,123z"/>
	<path class="st1" d="M153.4,123c-1.4-1.4-1.4-2.8-1.4-2.8c-1.4,0-1.4,0-1.4,0c-1.4-1.4-1.4-2.8-1.4-4.2c2.8-7,5.6-8.4,11.2-9.8
		c0,0,0,0,0-1.4c2.8,0,7,1.4,9.8,1.4c1.4,1.4,2.8,1.4,4.2,1.4c1.4,0,1.4,0,1.4,1.4c-1.4,1.4-2.8,5.6-5.6,5.6v-1.4h-1.4
		c0,1.4-1.4,1.4-1.4,2.8c-1.4-1.4-2.8,0-2.8,1.4c-1.4,0-1.4,0-1.4,0c0-1.4,0-1.4-1.4-1.4c-1.4,1.4-1.4,1.4-1.4,2.8
		c-1.4,0-1.4,0-2.8,0c-1.4,1.4-1.4,1.4-1.4,2.8c-1.4,0-1.4,0-1.4,0C153.4,121.6,153.4,121.6,153.4,123L153.4,123z"/>
	<path class="st0" d="M365.5,123c0-2.8-1.4-4.2,1.4-5.6C366.9,120.2,365.5,121.6,365.5,123L365.5,123L365.5,123z"/>
	<path class="st0" d="M366.9,123c0-2.8,1.4-5.6,4.2-7c0,1.4-1.4,2.8-2.8,2.8c0,1.4,0,2.8,0,4.2H366.9L366.9,123z"/>
	<path class="st0" d="M369.7,123c0-2.8,0-5.6,2.8-5.6C372.5,118.8,371.1,120.2,369.7,123L369.7,123L369.7,123z"/>
	<path class="st1" d="M65,120.2c0-1.4,0-2.8,1.4-4.2c0,1.4,1.4,1.4,1.4,2.8C66.4,118.8,66.4,120.2,65,120.2L65,120.2z"/>
	<path class="st1" d="M145,118.8c0-2.8-4.2-1.4-4.2-4.2c-5.6-4.2-1.4-9.8,2.8-12.6v1.4c-2.8,4.2-1.4,8.4,2.8,11.2c0,1.4,0,1.4,0,2.8
		L145,118.8L145,118.8z"/>
	<path class="st1" d="M177.3,114.6c0-1.4,0-1.4-1.4-1.4c0-1.4,0-1.4,0-2.8c7-4.2,7-11.2,1.4-16.8c8.4,0,12.6,9.8,8.4,16.8
		c0-1.4,0-1.4,0-2.8l0,0c-1.4,1.4-2.8,2.8-2.8,4.2c-1.4,0-1.4,0-1.4,0s0,0,0,1.4C178.7,113.2,178.7,113.2,177.3,114.6L177.3,114.6z"
		/>
	<path class="st1" d="M72,109c0,0-1.4-1.4-1.4-2.8c2.8-4.2-2.8-8.4-5.6-11.2c-1.4,0-1.4,0-1.4,0c5.6,0,9.8,1.4,12.6,5.6
		c-1.4,1.4-1.4,2.8-2.8,8.4H72L72,109z"/>
	<path class="st0" d="M185.7,107.6c0-2.8,0-2.8,0-4.2c0,0,0,0,1.4,0c-1.4,1.4-1.4,1.4,0,2.8C187.1,106.1,185.7,106.1,185.7,107.6
		L185.7,107.6z"/>
	<path class="st0" d="M206.8,103.3c-1.4-1.4-2.8-7,1.4-8.4c-1.4,2.8-1.4,4.2-1.4,7C208.2,103.3,208.2,103.3,206.8,103.3L206.8,103.3
		z"/>
	<path class="st0" d="M140.8,96.3c-1.4-1.4-7-1.4-9.8-1.4c-1.4,0-1.4,0-2.8,0c0-1.4,0-1.4,0-1.4c1.4,0,1.4,0,2.8,0
		c7-7-5.6-4.2-9.8-7c-8.4-1.4-8.4-1.4-19.7-2.8c-19.7-4.2-39.3-7-59-8.4c-5.6,0-12.6-1.4-18.3-1.4c-5.6-2.8-15.4,0-22.5-1.4
		c0-5.6,2.8-9.8,5.6-15.4c0,0,1.4,0,2.8,0c0-2.8,1.4-4.2,2.8-4.2c0-2.8,4.2-5.6,5.6-2.8c2.8,0,2.8,0,4.2,1.4c1.4,0,4.2-5.6,5.6-7
		c0,0,1.4,0,2.8,0c2.8-4.2,4.2-4.2,8.4-4.2c1.4,1.4,1.4,2.8,1.4,2.8c1.4,1.4,1.4,2.8,2.8,4.2c4.2-2.8,7-1.4,7,2.8
		c1.4,0,1.4,0,1.4,1.4c0-1.4,0-1.4,1.4-2.8c0,0,0,0,1.4,0v-1.4c1.4,0,1.4,0,1.4,0c2.8-7,5.6-5.6,9.8-5.6c1.4,2.8,1.4,5.6,1.4,7
		c1.4,0,1.4,0,2.8,0l0,0c1.4-1.4,1.4-1.4,4.2-1.4c0-2.8,2.8-2.8,5.6-2.8c0,0,1.4,2.8,1.4,4.2c1.4,0,1.4,0,1.4,0
		c1.4,0,2.8,1.4,2.8,1.4c0,4.2-1.4,8.4,0,11.2c2.8,0,7-1.4,9.8-1.4c1.4,2.8,0,5.6,1.4,8.4c1.4,0,1.4,0,2.8,0v1.4
		c1.4,0,1.4,0,5.6-2.8c1.4,0,2.8,0,2.8,0c1.4,1.4,1.4,1.4,2.8,2.8c0,1.4,0,4.2,1.4,5.6c2.8-1.4,4.2-1.4,7-2.8c1.4,1.4,2.8,0,2.8,4.2
		c1.4,1.4,1.4,1.4,2.8,2.8c2.8,0,4.2-2.8,5.6-1.4c1.4,0,1.4,0,1.4,0c1.4,1.4,1.4,2.8,4.2,4.2c0-2.8,2.8-7,2.8-8.4
		c-2.8,0-5.6-1.4-7,0c-2.8-1.4-4.2-4.2-7-5.6c-1.4,0-2.8,0-4.2,0c-1.4-1.4-1.4-1.4-2.8-1.4c0-2.8-1.4-4.2-1.4-5.6
		c-4.2-1.4-4.2-7,0-8.4c0-2.8,0-2.8,0-4.2c-7,1.4-1.4-5.6-1.4-8.4c2.8-1.4,2.8-1.4,2.8-2.8c2.8-2.8,5.6-4.2,8.4-1.4
		c1.4-1.4,1.4-1.4,1.4-2.8c1.4-1.4,2.8-1.4,4.2-2.8c5.6,0,9.8,1.4,15.4,0c0,1.4,0,2.8,1.4,4.2h1.4c1.4-1.4,2.8-2.8,4.2-2.8
		c1.4,0,1.4,0,2.8,1.4c1.4-1.4,4.2-2.8,5.6-2.8c1.4,2.8,2.8,1.4,2.8,5.6c4.2,1.4,7,1.4,9.8,2.8c0,2.8,0,4.2,1.4,5.6
		c1.4,0,2.8,0,4.2,1.4c1.4,4.2-1.4,11.2-4.2,15.4c2.8,1.4,2.8,2.8,1.4,5.6c-1.4,0-2.8,1.4-2.8,2.8c-2.8,1.4-2.8,1.4-2.8,1.4
		c-1.4,7-12.6,5.6-18.3,5.6c-2.8,0-2.8,0-4.2,0c0,0-1.4,0-1.4-1.4c-1.4,0-1.4,0-2.8,0c0,1.4-1.4,4.2-1.4,5.6c2.8-1.4,2.8-1.4,7,0
		v1.4c1.4,0,2.8,1.4,4.2,2.8c8.4,0,18.3-2.8,26.7-5.6c4.2,0,5.6-1.4,8.4-4.2c1.4-2.8,2.8-4.2,5.6-1.4c4.2-1.4,4.2-2.8,5.6-5.6h1.4
		c1.4-2.8,1.4-4.2,2.8-5.6c1.4,0,2.8-1.4,4.2-1.4c0,0,1.4,1.4,2.8,1.4c0,0,2.8-2.8,2.8-4.2c1.4-1.4,2.8-1.4,2.8-2.8
		c2.8,0,5.6-2.8,8.4-4.2c1.4,1.4,1.4,1.4,2.8,4.2c1.4,1.4,2.8-1.4,4.2-2.8c1.4,0,2.8-1.4,4.2-1.4c0,1.4,0,1.4,1.4,2.8
		c1.4,0,2.8,7,4.2,9.8c0-2.8,0-5.6,0-8.4c-1.4-1.4-1.4-1.4-1.4-2.8c4.2-1.4,7-1.4,11.2,0c0,1.4,0,2.8,0,4.2c0,0,1.4,0,1.4,1.4
		c2.8-1.4,5.6-4.2,7-5.6c0,0,0,0,1.4,0c1.4,4.2,5.6,2.8,9.8-1.4c1.4,1.4,2.8,0,4.2,1.4c0,0,0,0,1.4,0c0,1.4,0,2.8,0,4.2
		c1.4-2.8,1.4-2.8,5.6-8.4c12.6,0,26.7,2.8,39.3,5.6c1.4-1.4,2.8-2.8,5.6-2.8c1.4-1.4,4.2-4.2,7-2.8c1.4,1.4,1.4,1.4,2.8,2.8
		c1.4-1.4,4.2-1.4,5.6-2.8h1.4c1.4,2.8,1.4,2.8,1.4,4.2c0,0,0,0,4.2,0c2.8,9.8,5.6,0,11.2,0c0,0,0,1.4,1.4,1.4c0,0,0,0,1.4,0
		c0,1.4,0,4.2,1.4,5.6c1.4,0,2.8-1.4,2.8-2.8c2.8,0,2.8,0,5.6-1.4c0,1.4,0,1.4,0,2.8h1.4c0,1.4,1.4,2.8,1.4,4.2c1.4,0,1.4,0,2.8,1.4
		c0,1.4,1.4,2.8,1.4,5.6c-11.2,1.4-23.9-1.4-35.1,1.4c7,2.8,7,2.8,14,5.6c2.8,1.4,8.4,1.4,11.2,4.2c-1.4,1.4-1.4,1.4-2.8,1.4
		c0,1.4,0,1.4,0,2.8c8.4,0,8.4,0,11.2,0c0,0,0,0,0,1.4c-4.2,0-7-1.4-11.2,0c0,2.8,0,5.6,0,8.4c-4.2-1.4-8.4,0-12.6,0v-1.4
		c-1.4,0-4.2,0-5.6,0c0-2.8,5.6-1.4,7,0c0-1.4,1.4-1.4,1.4-1.4c2.8,1.4,2.8,0,4.2,0c0,1.4,2.8,1.4,4.2,0c-1.4-1.4-1.4-1.4,0-2.8
		c-1.4,0-1.4,0-1.4,0c1.4-1.4,1.4-1.4,1.4-2.8c-1.4,0-1.4,0-1.4-1.4l0,0c1.4,0,1.4,0,1.4,0l-1.4-1.4c1.4,0,1.4,0,1.4,0
		c-5.6-1.4-11.2-1.4-15.4-1.4c0,0,0,0,0,1.4h-1.4c0-1.4,0-1.4,0-1.4c-4.2,0-8.4-1.4-12.6-1.4c-1.4,1.4-1.4,2.8-1.4,5.6
		c1.4,0,1.4,0,1.4,0h-1.4c0,1.4,0,1.4,0,2.8l0,0c0,1.4,0,2.8,0,4.2c1.4,0,1.4-1.4,4.2-1.4c0,0,0,0,1.4,1.4c0-1.4,0-1.4,1.4-1.4
		c0,1.4,0,1.4-1.4,2.8c-1.4,0-4.2-1.4-5.6,0c-7,0-12.6,0-18.3,0c-1.4,0-1.4,0-1.4,0c2.8-1.4,5.6,0,7-1.4c-2.8,0-5.6-2.8-8.4-1.4
		c-4.2,0-5.6,0-9.8,0c-8.4-1.4-19.7-1.4-28.1-1.4c-2.8-1.4-8.4,1.4-9.8,0c-1.4,0-4.2,1.4-5.6,0c1.4,0,1.4,0,2.8,0c0,0,0,0,0-1.4
		c1.4,0,4.2,0,5.6,0v-1.4c-8.4-1.4-18.3-1.4-26.7-1.4c-7,0-7,0-7,0c0-4.2,0-8.4,0-12.6c-11.2-1.4-25.3,2.8-36.5,4.2
		c-5.6,1.4-11.2,2.8-16.9,2.8c-7,1.4-12.6,2.8-14,2.8c4.2,1.4,15.4,1.4,19.7,0c8.4,0,16.9-1.4,25.3-1.4c7,0,14,0,21.1,0
		c0,0,0,0,0,1.4c-16.9-1.4-32.3,0-49.1,1.4c-15.4,0-32.3,1.4-47.7,2.8c0,1.4,0,2.8,0,5.6c1.4,0,1.4,0,2.8,0c1.4,2.8,5.6,1.4,8.4,2.8
		c-2.8,0-8.4,0-9.8,0S140.8,96.3,140.8,96.3L140.8,96.3z"/>
	<path class="st0" d="M380.9,94.9c0,0-2.8,0-1.4-1.4c1.4,0,2.8,1.4,4.2,1.4l0,0C382.3,94.9,382.3,94.9,380.9,94.9L380.9,94.9z"/>
	<path class="st2" d="M126.7,94.9c0,0,0,0-1.4-1.4c1.4,0,2.8,1.4,2.8,1.4C126.7,94.9,126.7,94.9,126.7,94.9L126.7,94.9z"/>
	<path class="st0" d="M376.7,94.9c0-1.4-2.8,0-4.2,0c0-1.4,0-2.8,0-2.8h1.4h1.4c0,0,0,0,1.4,0v1.4h1.4
		C378.1,94.9,378.1,94.9,376.7,94.9L376.7,94.9z"/>
	<path class="st0" d="M347.2,94.9c-1.4-1.4-1.4-1.4-1.4-1.4l1.4-1.4c1.4,0,2.8,0,4.2,0c0,1.4,0,1.4,0,2.8
		C348.6,93.5,348.6,94.9,347.2,94.9L347.2,94.9z"/>
	<path class="st1" d="M133.8,93.5c1.4-5.6,4.2-12.6,7-18.2c0-2.8,0-4.2,0-8.4c1.4,4.2,1.4,4.2,2.8,4.2c1.4-1.4,1.4-2.8,1.4-5.6
		c1.4,1.4,1.4,1.4,2.8,1.4c0,1.4,0,1.4,0,2.8l0,0c0,0,1.4,0,1.4-1.4c0,1.4-4.2,7-5.6,8.4v1.4v-1.4c-2.8,2.8-7,12.6-7,15.4
		C135.2,93.5,135.2,93.5,133.8,93.5L133.8,93.5z"/>
	<path class="st0" d="M156.2,93.5c-4.2-1.4-9.8-1.4-14-2.8v-1.4c2.8,0,5.6,1.4,8.4,1.4l0,0c5.6,1.4,5.6,1.4,9.8,2.8
		C159,93.5,157.6,93.5,156.2,93.5L156.2,93.5z"/>
	<path class="st1" d="M336,93.5c-1.4-1.4-7-1.4-9.8-2.8v1.4c-1.4-1.4-1.4-1.4-2.8-1.4c-1.4-5.6-1.4-14,0-19.6c4.2,1.4,8.4,7,14,8.4
		c-1.4,1.4-1.4,1.4-1.4,1.4l1.4,1.4l-1.4,1.4c1.4,1.4,1.4,7,1.4,8.4C336,92.1,336,93.5,336,93.5L336,93.5z"/>
	<path class="st1" d="M306.5,92.1c0-1.4,0-1.4,0-1.4c-4.2-1.4-2.8-7-2.8-11.2c0-2.8,1.4-5.6,0-8.4c2.8,0,5.6,0,7,0c0,0,0,0,0,1.4
		c0,0,0,0-1.4,1.4c2.8,1.4,5.6,1.4,8.4,1.4c0,0,0,0,1.4,0c-1.4-1.4-1.4-2.8-2.8-4.2c1.4,0,2.8,0,4.2,0c1.4,1.4,1.4,5.6,1.4,8.4
		c-1.4,0-2.8,0-4.2,0c1.4,0,1.4,0,1.4,1.4c1.4,0,1.4,0,2.8,0v1.4c-1.4,0-1.4,0-1.4,0l0,0c0,0,0,0,1.4,1.4c-2.8,0-1.4,1.4,0,2.8
		c0,1.4,0,2.8,0,4.2c-1.4,0-1.4,0-2.8,0l0,0c-1.4-1.4-4.2,0-5.6,0c0,0,0,0,0-1.4C310.7,92.1,307.9,90.7,306.5,92.1L306.5,92.1z"/>
	<path class="st1" d="M300.9,90.7c-2.8,0-9.8,0-11.2,0c0-1.4,0-1.4-1.4-1.4c-1.4,0-4.2,0-7,0l0,0c-1.4,0-1.4-1.4-1.4-1.4
		c-1.4,0-1.4,0-1.4,1.4c-1.4,0-1.4-1.4-1.4-1.4s0,0-1.4,0v1.4c0,0,0,0-1.4,0c0-1.4,0-1.4,0-2.8h1.4v-1.4c0-1.4-1.4-1.4-1.4-1.4v-1.4
		c1.4,0,1.4,0,1.4-1.4h-1.4c0-2.8,0-5.6,1.4-9.8c2.8-5.6,7-12.6,11.2-18.2c0,0,0,0,1.4,0v1.4c2.8,1.4,4.2,4.2,5.6,7
		c1.4,0,7,8.4,8.4,9.8c0,1.4,0,1.4,0,2.8c1.4,1.4,0,4.2,0,5.6h-1.4c0,0,0,0,0,1.4h1.4c0,1.4,0,2.8,0,5.6h-1.4c1.4,0,1.4,0,1.4,1.4
		l0,0c0,1.4,0,2.8,0,2.8H300.9L300.9,90.7z"/>
	<path class="st1" d="M129.5,86.5c-23.9-4.2-46.3-8.4-68.8-11.2c-5.6,0-11.2-1.4-16.9-1.4c-14,0-26.7-2.8-40.7-1.4
		c0-1.4,0-2.8,0-4.2c1.4-1.4,4.2-7,4.2-9.8h1.4c0,0,0,0,0-1.4c2.8,0,5.6-4.2,7-7c0,0,0,0,1.4,0c0,1.4,1.4,1.4,2.8,1.4
		c0,0,1.4,0,1.4,1.4c2.8-1.4,2.8-1.4,4.2-1.4c0,0,0,0,0-1.4c0,0,0,0,1.4,0c1.4-1.4,1.4-1.4,1.4-4.2c1.4,0,2.8,0,4.2,0
		c0-1.4,1.4-2.8,1.4-4.2c0,0,1.4,0,1.4,1.4c1.4-1.4,1.4-1.4,1.4-1.4c1.4,0,1.4,0,1.4,1.4c0,0,0-1.4,1.4-1.4c0,1.4,0,2.8,0,2.8h1.4
		c0,1.4,0,1.4,0,1.4s0,0,1.4,0c0,1.4,0,1.4,0,2.8c1.4,0,2.8-1.4,4.2-1.4l0,0l0,0l0,0c1.4,0,1.4,0,2.8,0c-1.4,0-1.4,1.4-1.4,2.8
		c1.4-1.4,1.4-1.4,1.4-1.4c0,1.4,0,1.4,0,2.8c2.8,0,2.8,1.4,5.6,0c-1.4-1.4-1.4-1.4,0-1.4c0,0,0,0,1.4,0c0-1.4,0-1.4,0-1.4
		c0-1.4,1.4-1.4,1.4-1.4c0-1.4,0-1.4,1.4-4.2c1.4,0,4.2,1.4,5.6,0c0,2.8,1.4,5.6,2.8,7c4.2,0,4.2,0,4.2,0c1.4,0,1.4-1.4,1.4-1.4h1.4
		v-1.4c1.4-1.4,1.4-1.4,2.8,0c0-1.4,0-1.4,1.4-1.4l0,0c0,0,0,1.4,0,2.8c1.4,0,1.4,0,1.4-1.4c0,1.4,1.4,1.4,1.4,2.8l0,0
		c1.4,0,1.4,0,1.4,1.4c0-1.4,0-1.4,1.4-1.4c0,1.4-1.4,2.8-1.4,4.2c1.4,0,1.4,0,1.4,0c0,1.4-1.4,2.8-1.4,4.2c0,0,0,0,1.4-1.4
		c-1.4,1.4-1.4,2.8-1.4,4.2h1.4v1.4c2.8,0,4.2,0,7,0c0-1.4,0-1.4,0-1.4s0,0,1.4,1.4c0-1.4,0-1.4,1.4-1.4l0,0c0,0,0,1.4,0,2.8l0,0
		c0,2.8,0,2.8,0,2.8c0,1.4,1.4,1.4,1.4,1.4v1.4c2.8,0,4.2,2.8,5.6,2.8c0-1.4,0-1.4,0-1.4c2.8-1.4,2.8-1.4,4.2-1.4l0,0c0,0,0,0,1.4,0
		v-1.4h1.4c0,1.4,0,2.8,1.4,2.8c0,1.4,0,1.4,0,2.8c0,0,0,0,1.4,0c-1.4,0-1.4,1.4-1.4,2.8c0,0,1.4,0,1.4-1.4c1.4,1.4,1.4,1.4,2.8,2.8
		c0-1.4,0-1.4,1.4-2.8v1.4c0,0,0,0,1.4,0c0-1.4,0-1.4,0-1.4s0,0,1.4,0c0-1.4,0-1.4,1.4-1.4c-1.4,0-1.4,1.4-1.4,1.4
		c1.4,0,1.4,0,2.8,0c0,1.4,0,2.8,0,2.8s0,0,1.4,0c0,1.4,0,2.8,0,4.2c0-1.4,1.4-1.4,1.4-1.4c0,1.4,0,1.4,1.4,1.4
		c0-1.4,1.4-1.4,1.4-1.4c1.4,0,1.4-1.4,1.4-1.4c1.4,0,1.4,0,1.4,0s0,0,1.4,1.4v-1.4c0,0,0,0,1.4,0c-1.4,1.4-1.4,1.4-1.4,2.8
		c2.8,0,2.8,0,5.6,1.4c-1.4,1.4-1.4,2.8-1.4,2.8C132.4,86.5,131,86.5,129.5,86.5L129.5,86.5z"/>
	<path class="st0" d="M362.7,86.5c-1.4,0-1.4-1.4-1.4-2.8h1.4C362.7,83.7,362.7,83.7,362.7,86.5L362.7,86.5L362.7,86.5z"/>
	<path class="st1" d="M139.4,86.5v-1.4C139.4,85.1,139.4,85.1,139.4,86.5L139.4,86.5L139.4,86.5z"/>
	<path class="st0" d="M313.5,86.5L313.5,86.5c1.4,0,1.4-1.4,1.4-1.4c0,1.4,1.4,1.4,1.4,1.4C314.9,86.5,314.9,86.5,313.5,86.5
		L313.5,86.5z"/>
	<path class="st0" d="M347.2,86.5c0-1.4,0-2.8,0-4.2C348.6,82.3,347.2,85.1,347.2,86.5L347.2,86.5L347.2,86.5z"/>
	<path class="st0" d="M233.5,86.5c0,0,0,0,1.4-1.4c1.4,0,1.4,0,2.8,0v1.4C236.3,86.5,234.9,86.5,233.5,86.5L233.5,86.5z"/>
	<path class="st1" d="M142.2,86.5c0-1.4,0-2.8,0-2.8c2.8-1.4,5.6-1.4,8.4-1.4c0,0,0,1.4,1.4,2.8C149.2,85.1,145,85.1,142.2,86.5
		L142.2,86.5z"/>
	<path class="st1" d="M253.1,86.5c-2.8-1.4-9.8-1.4-11.2-1.4l0,0c-1.4-1.4-1.4-2.8-1.4-4.2c0-1.4,0-1.4,0-1.4v-1.4
		c1.4-1.4,0-2.8,0-4.2c2.8-4.2,7-8.4,9.8-12.6c0,0,0,0,1.4,0c1.4,4.2,8.4,9.8,11.2,12.6c-1.4,1.4-1.4,5.6-1.4,7c1.4,1.4,0,1.4,0,4.2
		c0,0,0,0-1.4,0c-1.4,0-2.8,0-2.8,1.4C255.9,85.1,254.5,85.1,253.1,86.5L253.1,86.5z"/>
	<path class="st1" d="M264.4,85.1c0-2.8-1.4-7,0-9.8c0,0,0,0,5.6,0l0,0c-1.4,2.8-1.4,7-1.4,8.4S268.6,85.1,264.4,85.1L264.4,85.1z"
		/>
	<path class="st1" d="M271.4,85.1l-1.4-1.4v-1.4c1.4,0,1.4,0,2.8,0v1.4L271.4,85.1L271.4,85.1z"/>
	<path class="st0" d="M289.6,85.1v-1.4c0,0,0,0,1.4,0c0,0,0,0,0,1.4C289.6,85.1,289.6,85.1,289.6,85.1L289.6,85.1z"/>
	<path class="st0" d="M329,85.1c0-2.8-1.4-5.6,1.4-5.6c0,1.4,0,2.8,0,4.2C330.4,83.7,329,83.7,329,85.1L329,85.1z"/>
	<path class="st0" d="M289.6,83.7c-1.4-1.4-1.4-1.4-1.4-1.4c1.4,0,1.4,0,1.4,0S289.6,82.3,289.6,83.7L289.6,83.7L289.6,83.7z"/>
	<path class="st0" d="M253.1,82.3c-1.4,0-2.8,0-4.2,0c-1.4-8.4-1.4-8.4,0-8.4c1.4-1.4,2.8-1.4,5.6-1.4c0,2.8,0,7,0,9.8
		C253.1,82.3,253.1,82.3,253.1,82.3L253.1,82.3z"/>
	<path class="st0" d="M292.4,82.3c0-1.4,0-1.4,0-1.4s0,0,1.4,1.4C292.4,82.3,292.4,82.3,292.4,82.3L292.4,82.3z"/>
	<path class="st1" d="M142.2,80.9v-1.4c0,0,0,0,1.4,0C142.2,80.9,142.2,80.9,142.2,80.9L142.2,80.9z"/>
	<path class="st1" d="M344.4,72.5v1.4c5.6-1.4,9.8,1.4,14,2.8c8.4,2.8,9.8,2.8,12.6,4.2l0,0c-2.8,0-4.2,0-5.6,0l0,0
		c-4.2,0-4.2,0-14-1.4c-5.6,0-19.7,0-22.5-7c2.8,0,4.2,1.4,5.6,1.4l0,0c1.4,0,1.4,0,1.4,1.4c0-1.4,0-1.4,0-1.4c1.4,0,1.4,0,5.6,0
		c0,0,0,0-4.2-1.4c1.4,0,2.8,0,4.2,0c0,0,0,1.4,1.4,1.4c0,0,0,0,1.4,0"/>
	<path class="st1" d="M248.9,80.9c0-5.6,0-5.6,0-7c0,2.8,0,4.2,0,5.6V80.9L248.9,80.9z"/>
	<path class="st1" d="M189.9,79.5v-1.4c1.4,0,1.4-1.4,2.8-2.8c0,0,0,0,1.4,0c0,0,0,0,0-1.4c2.8,1.4,4.2,1.4,5.6,1.4
		c0-1.4,0-1.4,0-1.4c2.8,0,4.2-7,7-8.4l1.4-1.4c0-1.4,0-1.4,1.4,0c0-1.4,0-1.4,0-1.4s0,0,1.4,0c0,0,0,0,0,1.4h1.4c0,0,0,0,1.4,0
		c0,0,0,0,1.4,0c1.4-1.4,1.4-4.2,2.8-5.6c1.4,0,1.4,1.4,2.8,1.4c0-1.4,2.8-5.6,4.2-5.6s1.4-1.4,1.4-1.4l0,0c0,1.4,0,1.4,1.4,2.8
		c0-1.4,0-1.4,0-1.4c1.4,1.4,1.4,1.4,1.4,2.8c0,0,0,0,1.4,0c0,0,0,0,0,1.4c1.4-1.4,1.4-1.4,2.8-1.4c1.4-2.8,1.4-2.8,1.4-2.8l0,0
		c1.4,0,1.4,0,1.4,0h1.4l0,0v1.4c1.4,0,1.4,0,1.4,0c1.4,1.4,1.4,2.8,1.4,4.2h1.4c0,0,0,1.4,0,2.8c0,0,0,0,1.4,0c0,1.4,0,1.4,0,4.2
		c-1.4,1.4-2.8,2.8-5.6,4.2c-11.2,2.8-22.5,4.2-35.1,5.6C195.5,78.1,195.5,78.1,189.9,79.5L189.9,79.5z"/>
	<path class="st0" d="M344.4,76.7c0-1.4-1.4-1.4-2.8-1.4l0,0c2.8,0,4.2,0,5.6,1.4C345.8,76.7,345.8,76.7,344.4,76.7L344.4,76.7z"/>
	<path class="st1" d="M153.4,76.7c0-1.4,0-1.4,0-1.4H152c0,0,0,0,0-1.4c1.4,0,1.4,0,2.8,0C154.8,73.9,154.8,75.3,153.4,76.7
		L153.4,76.7z"/>
	<path class="st0" d="M278.4,76.7c0-4.2,1.4-2.8,1.4-5.6c2.8,1.4,4.2,1.4,4.2,4.2C282.6,75.3,282.6,75.3,278.4,76.7L278.4,76.7z"/>
	<path class="st0" d="M292.4,75.3c-1.4,0-1.4,0-2.8,0c1.4-4.2,2.8-4.2,7-5.6c0,1.4,0,1.4,0,1.4c1.4,0,1.4,1.4,1.4,2.8
		C295.3,75.3,293.8,75.3,292.4,75.3L292.4,75.3z"/>
	<path class="st0" d="M348.6,75.3c-1.4,0-2.8,0-2.8-1.4l0,0c0,0,1.4,0,2.8,0V75.3L348.6,75.3z"/>
	<path class="st1" d="M147.8,73.9c0,0,0,0,0-1.4c1.4,0,2.8,0,4.2,0l-1.4,1.4C150.6,73.9,150.6,73.9,147.8,73.9L147.8,73.9z"/>
	<path class="st1" d="M316.3,73.9c-1.4,0-1.4,0-1.4-1.4h1.4C316.3,73.9,316.3,73.9,316.3,73.9L316.3,73.9z"/>
	<path class="st1" d="M159,73.9c-1.4-1.4-1.4-1.4-1.4-1.4c1.4,0,1.4,0,1.4,0V73.9L159,73.9z"/>
	<path class="st1" d="M265.8,73.9c-5.6-2.8-14-11.2-14-15.4c2.8,0,7,1.4,11.2,1.4c1.4,0,11.2,1.4,12.6,2.8c-1.4,1.4-1.4,0-2.8,0
		c0,1.4,0,1.4,0,2.8c-1.4-1.4-2.8-1.4-4.2-2.8c0,1.4,0,1.4,0,1.4c0,1.4,0,1.4,1.4,1.4c0,1.4,0,1.4,0,2.8c1.4,0,1.4,0,1.4,0
		c0,1.4-1.4,2.8-1.4,4.2c0,0,0,1.4,1.4,1.4C268.6,73.9,267.2,73.9,265.8,73.9L265.8,73.9z"/>
	<path class="st1" d="M291,73.9c0-1.4,0-1.4,1.4-1.4c0,0,0,0,0,1.4H291L291,73.9z"/>
	<path class="st1" d="M156.2,73.9v-1.4l0,0C156.2,72.5,156.2,72.5,156.2,73.9L156.2,73.9z"/>
	<path class="st1" d="M161.8,73.9c0-2.8,1.4-2.8,4.2-4.2l0,0h1.4c2.8-2.8,1.4-5.6,1.4-8.4c0-1.4,0-1.4-1.4,0c0,1.4,0,2.8,0,4.2
		c0,0,0,0-1.4,0c1.4,1.4,1.4,1.4,1.4,1.4c-1.4,1.4-1.4,1.4-2.8,1.4c-1.4,1.4-2.8,1.4-2.8,2.8c-1.4-1.4-2.8-1.4-4.2-2.8
		c-1.4,1.4-1.4,1.4-1.4,1.4c0-1.4,0-1.4,0-2.8c-2.8,0-4.2,0-7,0c0-1.4,0-1.4,0-1.4c-1.4,0-1.4,0-1.4,0c0-1.4,0-1.4,0-1.4
		c-1.4,0-4.2,0-5.6,0c0,1.4-2.8,2.8-5.6,2.8c0,0,0-1.4,1.4-1.4c-1.4,0-2.8,0-2.8,0s0,0,0-1.4c-1.4,0-1.4,0-2.8,0c0,0,0-1.4,0-2.8
		c-1.4,0-1.4,0-4.2,1.4c0-1.4,0-1.4,0-1.4c0-1.4,0-1.4-1.4-1.4c1.4,0,2.8-2.8,1.4-4.2c-1.4,2.8-1.4,5.6-1.4,8.4c0,0,0,0,1.4,0
		c-1.4,1.4-1.4,1.4-1.4,1.4h-1.4c-1.4,1.4-2.8,1.4-4.2,1.4v-1.4h-1.4c0-1.4,0-2.8,1.4-4.2c-1.4-1.4-1.4-1.4-1.4-2.8
		c-1.4,0-1.4,0-1.4,0c-2.8,0-2.8-1.4-1.4-4.2c1.4,0,2.8-1.4,1.4-2.8c0-1.4,0-1.4,0-2.8c0-1.4,0-1.4,0-1.4c-1.4,1.4-1.4,1.4-2.8,1.4
		c0-1.4,0-1.4,1.4-2.8c-1.4,0-1.4,0-2.8,0c0,0,0,0,1.4,0v-1.4c0,0,0,0,0-1.4c1.4,0,1.4,0,1.4,0c0-4.2,4.2-5.6,7-7h1.4l0,0
		c1.4,0,1.4,0,1.4,1.4l1.4-1.4c0,0,0,0,1.4,0c1.4-2.8,1.4-2.8,4.2-4.2c1.4,0,7,0,7,0c0,1.4,1.4,1.4,2.8,1.4c0-1.4,2.8,0,4.2,0
		c0,2.8,1.4,2.8,4.2,2.8c0-1.4,0-1.4,1.4-2.8c0,0,1.4,0,2.8,0c1.4,1.4,4.2,0,5.6,0l0,0c1.4,0,1.4,0,2.8,0c-1.4,0-1.4,0-1.4,1.4
		c1.4,0,1.4,0,1.4,0c0,1.4,0,1.4,0,2.8l0,0c0,0,0,0,1.4,1.4c0,0,0,0,1.4-1.4v1.4c2.8,0,4.2,0,7,2.8c0,1.4,0,4.2,0,5.6
		c1.4,0,1.4,0,1.4-1.4c1.4,0,1.4,0,1.4,1.4c1.4,0,1.4,0,2.8,0c0,0,0,0,0,1.4l0,0c0,1.4,0,1.4,0,2.8c-1.4,1.4-1.4,1.4-1.4,2.8
		c-1.4,1.4-1.4,1.4-1.4,4.2l0,0l-1.4,1.4c-1.4,1.4-1.4,1.4,0,2.8c0,0,0,0,1.4,0c1.4,4.2-2.8,5.6-5.6,5.6c-1.4,2.8-1.4,4.2-2.8,5.6
		c-1.4,0-1.4,0-1.4-1.4c0,1.4,0,1.4,0,1.4c-1.4-2.8-1.4-2.8-1.4-2.8c-1.4,0-1.4,1.4-1.4,2.8c0-1.4-1.4-1.4-1.4-1.4s0,0,0,1.4H161.8
		L161.8,73.9z"/>
	<path class="st1" d="M132.4,72.5v-1.4c-1.4,0-1.4-1.4-1.4-1.4l0,0c0-1.4,0-1.4,0-1.4l0,0l0,0c1.4,0,1.4,0,1.4,0
		c0,1.4,1.4,1.4,2.8,1.4v1.4C133.8,71.1,133.8,71.1,132.4,72.5L132.4,72.5z"/>
	<path class="st1" d="M271.4,72.5c0,0,0,0,0-1.4c0,0,0-1.4,1.4-1.4C272.8,71.1,271.4,71.1,271.4,72.5L271.4,72.5z"/>
	<path class="st1" d="M136.6,72.5c0-1.4,0-1.4,1.4-2.8c0,1.4,1.4,1.4,1.4,1.4l0,0C139.4,71.1,138,72.5,136.6,72.5L136.6,72.5z"/>
	<path class="st1" d="M326.1,72.5L326.1,72.5c0-1.4,0-1.4,0-1.4h1.4C327.6,72.5,327.6,72.5,326.1,72.5L326.1,72.5z"/>
	<path class="st1" d="M346.2,72.5c-1.4-1.4-1.4-1.4-1.4-1.4c-16.9-1.4-16.9-1.4-16.9-1.4c-8.4-1.4-16.9,0-25.3-1.4
		c0,0-15.4-16.8-14-18.2c5.6,0,36.5,4.2,39.3,7c2.8,0,4.2,0,7,0c2.8,4.2,11.2,9.8,12.6,14C346.2,71.1,346.2,71.1,346.2,72.5
		L346.2,72.5z"/>
	<path class="st1" d="M129.5,71.1c-1.4-1.4-1.4-2.8-1.4-4.2c0,0,0,0,1.4,0C129.5,68.3,129.5,69.7,129.5,71.1L129.5,71.1L129.5,71.1z
		"/>
	<path class="st0" d="M336,69.7c0,0,0-1.4-1.4-1.4h-1.4c0-1.4-1.4-1.4-1.4-1.4l0,0c0-1.4,0-1.4,0-1.4h1.4v1.4c1.4,0,2.8,0,2.8,0v1.4
		c1.4,0,1.4,0,2.8,0v1.4C337.4,69.7,337.4,69.7,336,69.7L336,69.7z"/>
	<path class="st1" d="M347.2,69.7c-7-8.4-9.8-9.8-11.2-12.6c-1.4,0-8.4-1.4-8.4-2.8l0,0c0-1.4,1.4-1.4,1.4,0
		c1.4-1.4,1.4-1.4,2.8-1.4c0-1.4,2.8-4.2,4.2-2.8c0,0,0,0,1.4,0v1.4c0,0,0,1.4,1.4,1.4c0,0,0,0,0,1.4c1.4-1.4,1.4-1.4,1.4-2.8
		c0,1.4,0,1.4,0,1.4c2.8,0,4.2-1.4,5.6-2.8v1.4h1.4c0,1.4,0,2.8,0,2.8c1.4,0,1.4,0,1.4,0c1.4,0,1.4,0,1.4,0s0,0,0,1.4
		c1.4-1.4,1.4-1.4,1.4-1.4c1.4,1.4,1.4,1.4,1.4,2.8l0,0v1.4c1.4,0,1.4,0,1.4,0l0,0h1.4c0,0,0,0,1.4,0l0,0c2.8-1.4,4.2-2.8,7-4.2
		c0,1.4-1.4,1.4-1.4,1.4c1.4,0,1.4,0,2.8,0c0,1.4,0,2.8,0,5.6c2.8,0,5.6-1.4,8.4-1.4c0-1.4,0-2.8,1.4-2.8c0,1.4,0,1.4,1.4,1.4l0,0
		c0,1.4,0,2.8,1.4,2.8l0,0c0,1.4,0,1.4,0,2.8c1.4,0,2.8,1.4,2.8,0c1.4,1.4,1.4,2.8,1.4,4.2C371.1,68.3,358.4,69.7,347.2,69.7
		L347.2,69.7z"/>
	<path class="st0" d="M263,68.3c-1.4,0-1.4-1.4-2.8-1.4h1.4C261.6,66.9,263,66.9,263,68.3L263,68.3z"/>
	<path class="st0" d="M329,68.3c-1.4-1.4-1.4-1.4-4.2-2.8v-1.4h1.4v1.4c1.4,0,2.8,0,4.2,0l0,0c0,0-1.4,0-1.4,1.4c0,0,0,0,1.4,0
		C330.4,66.9,330.4,66.9,329,68.3L329,68.3z"/>
	<path class="st0" d="M338.8,68.3v-1.4h1.4C340.2,66.9,340.2,68.3,338.8,68.3L338.8,68.3z"/>
	<path class="st0" d="M250.3,66.9c0-1.4,0-1.4,0-2.8c1.4,0,1.4,0,1.4,1.4c0,0,0,0,0,1.4H250.3L250.3,66.9z"/>
	<path class="st0" d="M267.2,66.9c-1.4,0-1.4,0-1.4,0s0,0-1.4,0c0-1.4,0-1.4,0-1.4c1.4,0,1.4,0,2.8,0c0,0,0,1.4,1.4,1.4
		C267.2,66.9,267.2,66.9,267.2,66.9L267.2,66.9z"/>
	<path class="st0" d="M314.9,66.9c0-1.4-1.4-1.4-2.8-1.4c1.4,0,1.4,0,2.8,0c0,1.4,0,1.4,1.4,1.4C314.9,66.9,314.9,66.9,314.9,66.9
		L314.9,66.9z"/>
	<path class="st0" d="M319.1,65.5c-1.4,0-1.4,0-1.4-1.4c1.4,0,1.4,0,2.8,0c0,1.4,0,1.4,0,1.4C319.1,65.5,319.1,65.5,319.1,65.5
		L319.1,65.5z"/>
	<path class="st0" d="M337.4,65.5v-1.4c1.4,0,1.4,0,2.8,0c0,1.4,0,1.4,0,1.4C338.8,65.5,338.8,65.5,337.4,65.5L337.4,65.5z"/>
	<path class="st0" d="M331.8,64.1c0,0,0,0,0-1.4c-1.4,0-1.4,0-1.4,0l0,0c-1.4-1.4-1.4-1.4-2.8-1.4c1.4-2.8,5.6,2.8,7,2.8
		C333.2,64.1,333.2,64.1,331.8,64.1L331.8,64.1z"/>
	<path class="st0" d="M265.8,64.1c0,0-1.4,0,0-1.4l0,0V64.1L265.8,64.1L265.8,64.1z"/>
	<path class="st0" d="M313.5,64.1c0,0,0,0,0-1.4c1.4,1.4,2.8,1.4,4.2,1.4C316.3,64.1,316.3,64.1,313.5,64.1L313.5,64.1z"/>
	<path class="st0" d="M258.7,64.1c0-1.4-1.4-1.4-1.4-1.4v-1.4h1.4c1.4,1.4,1.4,1.4,1.4,1.4s0,0,1.4,0l0,0
		C260.1,62.7,260.1,64.1,258.7,64.1L258.7,64.1z"/>
	<path class="st0" d="M300.9,64.1c0-1.4,0-1.4,0-2.8c0,0,0,0-1.4,0v-1.4h-1.4c1.4,0,2.8-1.4,2.8,0c1.4,0,1.4,0,1.4,0
		c0,1.4,0,1.4,0,2.8C302.3,62.7,302.3,62.7,300.9,64.1L300.9,64.1z"/>
	<path class="st0" d="M285.4,62.7c0,0,0,0,0-2.8c0-1.4,0-1.4,1.4-1.4s1.4,0,1.4,0c0,1.4,0,2.8,0,2.8
		C288.2,62.7,286.8,62.7,285.4,62.7L285.4,62.7z"/>
	<path class="st0" d="M309.3,62.7c0,0,0,0,0-1.4c1.4,0,1.4,0,2.8,0c0,1.4,0,1.4,0,1.4C310.7,62.7,310.7,62.7,309.3,62.7L309.3,62.7z
		"/>
	<path class="st0" d="M323.3,62.7l-1.4-1.4c1.4,0,1.4,0,2.8,0C323.3,62.7,323.3,62.7,323.3,62.7L323.3,62.7z"/>
	<path class="st1" d="M246.1,62.7c0-2.8,0-5.6,0-8.4c1.4,0,1.4,0,2.8,0C248.9,57.1,247.5,58.5,246.1,62.7L246.1,62.7z"/>
	<path class="st1" d="M272.8,59.9c-8.4-1.4-8.4-1.4-14-1.4c0,0,0-1.4,1.4-1.4c0-1.4,0-1.4,1.4-1.4l1.4-1.4v1.4h1.4c0,0,0,1.4,0,2.8
		c1.4-1.4,1.4-1.4,2.8-1.4c0,0,0,0,0,1.4c0,0,0,0,1.4,0c0-1.4,0-1.4,0-1.4s0,0,1.4,0v-1.4c1.4,0,1.4,0,1.4,0c0-1.4,1.4-1.4,1.4-2.8
		l1.4,1.4c1.4-1.4,1.4-1.4,1.4-1.4s0,0,1.4,0v1.4c0,0,0,0,1.4,0c0,0,0,4.2,0,5.6C275.6,59.9,274.2,59.9,272.8,59.9L272.8,59.9z"/>
	<path class="st0" d="M319.1,59.9L319.1,59.9v-1.4c1.4,0,1.4,1.4,1.4,1.4H319.1L319.1,59.9z"/>
	<path class="st0" d="M307.9,57.1c-1.4,0-1.4,0-2.8,0c0-1.4,0-1.4,0-1.4C306.5,55.7,306.5,55.7,307.9,57.1L307.9,57.1L307.9,57.1z"
		/>
	<path class="st1" d="M251.7,57.1c-1.4,0-1.4,0-1.4,0c0-1.4,0-2.8,0-2.8c1.4,0,2.8,1.4,2.8,2.8C251.7,57.1,251.7,57.1,251.7,57.1
		L251.7,57.1z"/>
	<path class="st0" d="M300.9,57.1c-1.4,0-1.4,0-1.4-1.4c1.4,0,2.8,0,2.8,0c0,1.4,1.4,1.4,1.4,1.4C302.3,57.1,300.9,57.1,300.9,57.1
		L300.9,57.1z"/>
	<path class="st0" d="M250.3,50.1c-1.4-1.4-1.4-1.4-1.4-2.8c1.4,0,1.4,0,1.4,0c0-1.4,0-1.4,0-1.4c0-1.4,0-1.4-1.4-1.4
		c0-8.4,14-4.2,11.2-14c1.4,0,1.4,0,1.4,0v1.4c1.4,0,1.4,0,1.4,0c0,7-8.4,8.4-12.6,11.2h1.4h1.4c0,1.4,0,1.4,0,2.8
		C251.7,47.3,251.7,48.7,250.3,50.1L250.3,50.1L250.3,50.1z"/>
</g>
</svg>
