<?xml version="1.0" encoding="utf-8"?>
<!-- Generator: Adobe Illustrator 19.2.1, SVG Export Plug-In . SVG Version: 6.00 Build 0)  -->
<svg version="1.1" id="Layer_1" xmlns="http://www.w3.org/2000/svg" xmlns:xlink="http://www.w3.org/1999/xlink" x="0px" y="0px"
	 viewBox="0 0 400 262.7" style="enable-background:new 0 0 400 262.7;" xml:space="preserve">
<style type="text/css">
	.st0{fill:#F1F9FC;}
	.st1{fill:#C26B11;}
	.st2{fill:#FFFFFF;}
	.st3{fill:#C4A56D;}
</style>
<path class="st0" d="M35.9,161.3c-1,0.4-2.2,0.5-3.1,1.2c-3.2,2.5-7.1,4.3-10.2,6.7c-4.5,3.6-9.7,7.1-12.4,12.7
	c-3.3,6.7-4.8,13.8-3.9,21.2c0.4,3.1,3,5.1,4.8,7.5c6.1,8.3,14.1,14.3,23.8,18.2c2.1,0.8,3.9,2.3,5.9,3.2c7.9,3.4,16,4.5,24.6,3.5
	c7.2-0.8,14.6-0.7,21.8-1.5c8-0.9,15.9-2.6,23.7-4.4c10.7-2.5,21.5-4.8,32.3-7.2c1.6-0.4,3.2-1,4.8-1.4c4.5-1.3,9-1.9,13.8-1
	c8.8,1.6,17.7,3,26.7,3.8c7.1,0.6,14.2-0.2,21.3-0.1c10.8,0.1,21.7-0.1,32.5-0.5c4.5-0.2,8.9-1,13.3-1.7c2.4-0.4,4.7-1.1,7.2-0.7
	c1.8,0.2,3.9-0.1,5.3-1.4c3-2.7,6.7-2.9,10.4-3.2c3.4-0.3,6.5-2.5,10.3-1.4c6.8,1.9,13.8,3.4,20.8,4.8c13.6,2.7,26.4,8.2,40.1,10.7
	c1.7,0.3,3.3,0.9,4.7,1.8c10,6,20.7,8.9,32.4,8.5c4.8-0.2,7.8-5.2,5.5-9.1c-1.3-2.3-2.8-4.5-5.4-5.5c-7-2.7-13.6-6.2-20.9-8.2
	c-4.7-1.3-9-3.4-13.8-4.4c-12.9-2.9-25.6-6.9-38.7-9c-2.9-0.5-5.8-1.3-8.8-1.9c-1.1-0.2-2.4-0.5-2.5-1.8c-0.2-1.5,0.1-3.1,1.8-3.8
	c1.7-0.7,3.6-1.3,5.4-1.5c7.8-1.2,14.3-5.5,21.3-8.5c9.1-3.9,17.6-9.1,25.7-14.8c11.2-7.9,19.9-17.7,26-30.1
	c6.7-13.5,8.1-27.8,5.8-42.1c-1.7-11.1-8.3-20.3-17.2-27.5c-4.7-3.8-9.2-7.9-13.1-12.7c-1.9-2.3-4.4-4.3-7.6-5.5
	c-4.3-1.7-8.2-4.4-12.1-7c-9.7-6.8-21-9.9-32-13.3c-8.2-2.5-16.2-5.8-24.8-7.2c-13-2.1-26-3.5-39-4.6c-16.3-1.3-32.6-1-48.9-1.3
	c-25.2-0.5-50,2.5-74.5,8.8c-8.9,2.3-17.4,5.8-26,8.6c-6.5,2.1-12,5.9-18.2,8.5c-5.1,2.1-9.1,6.2-12.2,10.6
	c-4.1,5.7-9.4,9.5-15.1,13.1c-10,6.3-14.6,16.3-18.8,26.6c-0.9,2.2-0.2,5.2-0.2,7.8c0.1,3,0.3,6,0.3,9c0.1,9.7,4.1,18.1,8.5,26.3
	c2.2,4.1,4.5,8.2,7.1,12.1c1.8,2.6,4.7,4.4,6,8.1C45.4,160.4,40.5,159.5,35.9,161.3"/>
<path class="st1" d="M44.7,151.6c-2.6-3.9-4.9-8-7.1-12.1c-4.4-8.2-8.4-16.7-8.5-26.3c0-3-0.3-6-0.3-9c-0.1-2.6-0.8-5.6,0.2-7.8
	c4.2-10.2,8.8-20.3,18.8-26.6c5.6-3.6,11-7.4,15.1-13.1c3.1-4.3,7.2-8.5,12.2-10.6c6.2-2.6,11.7-6.4,18.2-8.5
	c8.7-2.8,17.1-6.3,26-8.6c24.5-6.3,49.2-9.3,74.5-8.8c16.3,0.4,32.6,0,48.9,1.3c13.1,1.1,26.1,2.5,39,4.6c8.6,1.4,16.6,4.7,24.8,7.2
	c11,3.4,22.3,6.5,32,13.3c3.8,2.7,7.8,5.4,12.1,7c3.2,1.2,5.7,3.2,7.6,5.5c3.9,4.8,8.4,8.8,13.1,12.7c8.9,7.2,15.5,16.4,17.2,27.5
	c2.2,14.3,0.8,28.6-5.8,42.1c-6.1,12.4-14.8,22.3-26,30.1c-8.1,5.7-16.6,10.9-25.7,14.8c-7,3-13.6,7.3-21.3,8.5
	c-1.8,0.3-3.7,0.9-5.4,1.5c-1.7,0.6-1.9,2.3-1.8,3.8c0.1,1.3,1.4,1.6,2.5,1.8c2.9,0.6,5.8,1.5,8.8,1.9c13.1,2.1,25.8,6.1,38.7,9
	c4.8,1.1,9.2,3.2,13.8,4.4c7.3,2,13.9,5.5,20.9,8.2c2.6,1,4.1,3.2,5.4,5.5c2.2,3.9-0.8,8.9-5.5,9.1c-11.8,0.5-22.4-2.5-32.4-8.5
	c-1.4-0.9-3-1.5-4.7-1.8c-13.6-2.5-26.5-8-40.1-10.7c-7-1.4-14-2.9-20.8-4.8c-3.8-1.1-6.9,1.1-10.3,1.4c-3.7,0.3-7.4,0.5-10.4,3.2
	c-1.4,1.3-3.5,1.6-5.3,1.4c-2.5-0.3-4.8,0.4-7.2,0.7c-4.4,0.7-8.9,1.6-13.3,1.7c-10.8,0.4-21.7,0.6-32.5,0.5
	c-7.1-0.1-14.2,0.7-21.3,0.1c-8.9-0.8-17.9-2.1-26.7-3.8c-4.8-0.9-9.3-0.2-13.8,1c-1.6,0.5-3.2,1.1-4.8,1.4
	c-10.8,2.4-21.6,4.7-32.3,7.2c-7.8,1.8-15.7,3.5-23.7,4.4c-7.2,0.8-14.6,0.7-21.8,1.5c-8.6,1-16.7,0-24.6-3.5
	c-2-0.9-3.9-2.3-5.9-3.2c-9.6-3.8-17.6-9.9-23.8-18.2c-1.7-2.3-4.4-4.3-4.8-7.5c-0.9-7.4,0.6-14.5,3.9-21.2
	c2.7-5.6,7.8-9.1,12.4-12.7c3-2.4,7-4.2,10.2-6.7c0.9-0.7,2.1-0.8,3.1-1.2c4.6-1.9,9.6-0.9,14.8-1.6C49.4,156,46.5,154.3,44.7,151.6
	 M180.9,102.3c0.3,1.1,4.8,1,0.9,3.3c-0.5,0.3-0.7,1.1-0.1,1.2c5.8,0.7-0.1,2.8,0.6,4.2c1,1.1,2.5,1,4,0.6c1.9-0.6,3.8-0.8,5.5,0.1
	c4,2.2,7,1,9.7-2.4c-0.4-1.4-3.2-1.2-2.7-3.7c2.5,1.1,4.8-0.4,7.3-0.6c7-0.6,14.1-0.5,21.1-0.5c1.1,0,2.3,0.1,2.9-1.1
	c0.3,0.1,0.7,0.3,1,0.4c0.6,0.1,1.6,0.6,1.6-0.6c0-0.3-0.7-0.7-1.2-0.8c-0.5-0.1-1,0.1-1.6,0.2c-2.5-1.5-5.5,0.4-8-1.1
	c0.3-1.5,1.2-1.5,2.2-1.5c4.1-0.3,8.2,0.7,12.3-0.2c0.6-0.1,2,0.4,2,0.6c0.3,4.1,3.8,3.5,6.1,3.7c5.6,0.4,11.3,1.1,16.4-2.3
	c-0.4-1.9-2.9-0.7-3.5-3c2.2,0,4.6-2.5,5.5,1.8c0.5,2.2,2.5,1.3,3.7,1c1.5-0.3,0.4-1.4,0-2.1c-0.7-1.2,0.1-1.9,1.1-2
	c1.4-0.1,3-0.6,4.2,0.8c0.2,0.2,0,0.7-0.1,1c-1.1,2.3-1,2.9,1,2.5c6.1-1.4,12.4-1.9,18.5-2.5c8.2-0.8,15.5-4.9,23.6-5.7
	c2.6-0.3,5.4-1.2,7.8-2.9c2.7-1.9,5.9-1.8,9.4-0.5c-1.4,5.2-7.7,1.3-10,5.9c-0.1,0.5,1.7,0.6,1.9,1.7c0.4,2.5,2.1,2.5,3.8,1.7
	c7.2-3.1,14.6-6,20.9-10.7c1.9-1.4,4-2.9,4.7-5.4c0.3-0.8,0.9-1.6,1.6-2.3c4.7-4.7,5.1-9,1.5-14.6c-4.9-7.6-11.7-12.8-20-16.4
	c-4.4-1.9-7.9-5.2-12.6-6.7c-8.1-2.5-15.5-6.9-24.3-7.3c-0.7,0-1.5-0.2-2.2-0.6c-6.6-3.1-13-6.6-20.7-4.8c-0.3,0.1-0.8-0.1-1-0.3
	c-1.8-2.4-4-1.2-6.3-1.4c-2.7-0.3-5.6-0.3-8.2-0.9c-8.9-2.1-18.1-2-27.1-3.4c-13.9-2.1-28-2.4-41.9-1.5c-7.4,0.5-14.8,0.9-22.2,1.3
	c-14.4,0.8-28.6,3.4-42.5,6.6c-7.7,1.8-15.7,3.1-22.9,6.9c-1.3,0.7-2.9,0.8-4.3,1.2c-0.9,0.2-2.2,0.3-2.5,0.9
	c-2,3.8-5.9,4.1-9.4,4.8c-3.9,0.8-5.9,3.7-8.3,6.1c-1.8,1.7-3.5,3.8-5.2,5.8c-0.8,0.9-1.3,1.5-1.2,2.8c0.3,3,0.2,6,0,8.9
	c-0.1,1.9,0.6,3.3,1.8,4.5c6,6.1,11.5,12.8,20.9,13.6c0.4,0,0.9,0.1,1,0.4c3.2,4.5,9,3,12.9,5.7c0.2,0.1,0.3,0.2,0.5,0.2
	c7.3,1,14,4.4,21.3,5.5c9,1.3,18.1,2,26.9,4c4.6,1,9.1,1.3,13.7,1.4c2.7,0,5.5,0.3,8-1.3L180.9,102.3z M313.6,185.5
	c3.1-0.6,6.1-2.1,9.3-0.1c1.2,0.7,2.9-0.5,4.2-1.2c7.5-4.2,15.2-7.7,22.5-12.4c10.4-6.8,18.3-15.9,25.9-25.4c2-2.5,1.5-6.6,5-8.3
	c0.4-0.2,0.5-1.8,0.2-2.6c-1.5-4-0.9-7.2,1.3-11.1c1.9-3.3,1.5-7.9,2.1-11.9c0.2-1.1-0.2-2.4,0.2-3.3c2.7-6.5,0.3-12.3-1.9-18.3
	c-1-2.7-4.5-3.5-4.6-6.7c-3.9-2.1-5.8-6.3-9.2-8.9c-1.3-1-2.7-2.5-4.4-2c-2,0.6-1.6,2.7-1.6,4.3c0,3.1-1.5,5.5-3.5,7.4
	c-7.3,7.1-15.7,13-25.3,16.2c-18.8,6.3-37.7,12-57.8,13.4c-11.7,0.8-23.4,2.2-35.2,2.2c-10.1,0-20.2-0.5-30.3-0.7
	c-11.8-0.2-23.6-0.4-35.4-0.5c-6.6,0-13.1-1.1-19.6-1.9c-8.7-1-17.5-1.4-26.1-3.2c-16.2-3.2-32.2-7.1-47.2-14.1
	c-3.5-1.6-6.8-3.8-10-5.9c-3.3-2.2-4.6-2.3-8.2,0.1c-1.7,1.1-3.5,2-5.2,3c0.3,0.6,0.3,1,0.5,1.2c11.3,9.2,22.7,18.3,37.2,21.9
	c0.2,0,0.4,0.1,0.5,0.2c10.6,3.4,12.1,5.2,12.5,16.2c0.2,5.1,0.3,10.1,0.2,15.2c0,4.3-1.2,5.8-5.4,6.4c-3.7,0.5-7.4,0.5-11.1-0.5
	c-3.5-1-4.6,0.1-4.2,3.8c0.4,3.2,0.5,6.6,5.2,6.7c1.9-1.6,0.3-5.4,3.8-6.5c1.1,1-0.4,2.4,0.2,3.4c0.9,1.4,2.5,0.4,3.6,0.9
	c2.5,1.2,5.1,2.3,6.8,4.6c0.7,0.9,1.9,0.8,2.5,0.3c1-0.8-0.4-1.1-0.7-1.6c-0.8-1.5-0.1-2.4,1.1-3.3c1-0.7,2.4-1.2,3-0.1
	c1.4,2.5,4.2,2.2,6,3.6c1.3,1,3.4,0.8,4,2.8c0.5,1.9,2.1,1.6,3.1,0.8c2.3-1.7,4-0.5,6.1,0.4c2.8,1.1,5.1,2.9,7.6,4.5
	c1.5,1,2.7,2.5,1.3,4.2c-1.3,1.6-2.8,0.3-3.9-0.6c-1.4-1-2.5-2.3-4.3-2.6c-0.8-0.1-1.6,0-2.1,0.6c-0.5,0.7-0.3,1.4,0.2,2
	c1.8,1.9,3.5,3.8,5.3,5.7c0.6,0.6,1.5,0.7,2.1,0.3c2.1-1.8,2.9-1.2,3.6,1.3c0.3,1.2,1.7,0.7,2.1-0.2c1-1.7-0.4-5.2,3.1-5
	c3,0.2,1.4,3.5,2.6,4.9c1.4,1.6,3.6,1.7,5.1,1.7c4.4,0,8,2.6,12,3.5c2.7,0.6,5.3,1.6,8.1,1.7c0.9,0,2.3,0.1,2.6,0.7
	c1.8,3.3,5.1,2,7.6,2.3c12.4,1.7,24.8,2.1,37.3,1.1c6.3-0.5,12.7,0,19.1,0c5.4,0.1,10.3-1.4,14.4-5.2c2.6-2.4,6-2.7,9.3-3.2
	c2.5-0.4,2.4,1.7,3.1,3.1l0.1,0.4l-0.1-0.3c1.8-0.6,3.8-0.5,5.2-2.4c1-1.4,2.5-2.3,4.3-0.8c0.5,0.4,1,0.6,1.4,0.1
	c3.8-5,9.7-4.2,14.8-5.4c2-0.5,4.4,0,5.9-2.5c0.7-1.2,2.8-1,3.6-0.4c0.8,0.6-0.5,3.2,2,2.8c1.6-0.2,3.2-0.9,4.9-0.1l0-0.1
	C311.5,183.9,309.6,186.3,313.6,185.5 M9.1,197c-0.5,3.5,0.7,6.7,2.9,9.4c7.3,9,16.3,16.4,26.7,21.1c8.9,4,18.8,5.9,28.9,5.2
	c13.6-0.9,26.9-3.1,40.2-5.8c18.1-3.6,35.7-9.5,54-12.1c5.6-0.8,11.1-1.7,16.3-3.8c2.5-1,5.1,0.4,7.8,0c10.4-1.7,20.8-2.5,31.3-2.9
	c9.2-0.4,18.3-0.7,27.5-0.1c10.8,0.8,21.7,1.5,32.5,2.1c7.5,0.4,14.8,1.6,22.1,3c6.5,1.3,12.6,3.5,18.9,5.1c6.7,1.7,13.3,3.9,20,5.4
	c6.2,1.4,12.4,3.1,18.1,5.9c6.7,3.4,14.1,5,21,7.9c3.2,1.3,7.3,0.7,10.8-0.7c2.5-1,2.7-3.9,0.2-6c-2.7-2.3-5.8-4.2-9.3-5
	c-1.9-0.4-3.7-0.9-5.2-1.9c-6.6-3.9-14-5.4-21.1-7.3c-13.9-3.8-27.9-7.2-42-10.3c-10.4-2.3-21-3.4-31.5-4.9
	c-15.9-2.3-31.7-1.8-47.6-2.1c-9.9-0.1-19.7,0.9-29.6,1.4c-8.4,0.4-16.6,2.4-25,2.5c-2,0-3.6,0.9-5.4,1.3c-9.1,2-18.4,2.5-27.6,4.1
	c-3.5,0.6-6.9,1.6-10.3,2.4c-6.5,1.6-13.1,3.4-19.8,4.2c-2.2,0.3-3.9,0.8-5.2,2.7c-2.9,4.2-7.3,5.5-12.1,6.2
	c-8.3,1.1-16.2,0.1-24.1-3.3c-14.5-6.1-27.7-14-38.1-26.1c-2.9-3.4-5.6-7-6.5-11.6c-0.6-3.7-2.8-6.9-2.5-11.9
	C15.1,177.9,10.7,186.6,9.1,197 M91.1,221.6c5.6,1,10.9-1,15.2-5.4c2.2-2.2,2.8-4.8,1.6-7.1c-2.8-5.5-4.2-11.6-7.8-16.6
	c-3.9-5.4-9.7-8.6-14.9-12.4c-4.8-3.6-10.1-6.3-14.9-9.9c-3.8-2.8-8.6-3.7-13.2-4.6c-6.7-1.4-13.3-3.6-20.3-0.8
	c-6.3,2.6-7.7,4.7-6.7,11.5c1.3,9.1,6.2,16,12.9,21.7c9.3,7.9,20.2,13.5,30.7,19.6C79.2,220.3,85.3,220.6,91.1,221.6 M75.6,128.4
	c1.8,0.7,3.6,1.1,5.4,0.3c3.8-1.7,7,0.4,9.9,2.2c2.3,1.5,4,3.7,3,7.1c-1.1,3.6,0,7.4-0.3,11.2c-0.1,1.9,0.8,2.7,2.7,2.7
	c1.9,0,3.7,0.1,5.6,0c4.9-0.3,4.9-0.5,4.5-5.7c-0.3-3.2,0.2-6.4-0.3-9.5c-0.5-3.2-1.9-6-0.6-9.6c0.8-2.3-1.7-4.3-4.1-5.4
	c-2-0.9-4.1-2-6.3-2.4c-7.7-1.4-14-6-21-9.1c-4.7-2.1-8.4-5.6-12.5-8.5c-2.3-1.6-3.9-2.2-6.9-1.8c-4.2,0.7-8.4,1.5-12.6,1.8
	c-1.7,0.1-3.2,0.6-3.1,2.5c0.3,3.9,0.8,8.1,4.5,10.2c4.5,2.6,8.6,6,13.5,7.3C63.4,124.8,69.7,126.1,75.6,128.4 M115.1,195.4
	c-0.3-0.9-0.9-1.9-1.8-1.9c-3.1,0.2-5.6-2-8.5-2.1c-0.8,1.6,0,2.7,0.6,3.8c2.6,4.9,6.1,9.5,5.7,15.5c-0.1,1.6,1.3,2.1,2.8,1.9
	c4.8-0.6,9.6-0.9,15.2-3.6C121.7,206.1,117.4,201.8,115.1,195.4 M304.2,183.1c-1.8,2.7-1.7,4.3-1.3,5.9c0.4-0.1,0.8-0.1,1.2-0.2
	C304.1,187.4,304.1,185.9,304.2,183.1 M288.1,188.4c-0.2,0-0.7,0.4-0.7,0.7c-0.1,0.9,0.6,1.2,1.3,1.4c0.5,0.1,0.7-0.2,0.7-0.6
	C289.3,189.1,288.9,188.5,288.1,188.4 M293.6,191.4c-0.4-0.1-1,0.2-1.4,0.5c-0.4,0.4-0.3,1,0.2,1.3c0.6,0.3,1,0.1,1.3-0.5
	C294,192.2,294.2,191.6,293.6,191.4 M288.6,192.9c0.3,0.1,0.7,0,1-0.1c-0.2-0.2-0.4-0.6-0.7-0.7c-0.3-0.1-0.7,0-1,0
	C288.1,192.5,288.3,192.8,288.6,192.9 M309.3,186.8l0.3,0.1l-0.1-0.3L309.3,186.8z"/>
<path class="st2" d="M270.1,191.2c-0.7-1.4-0.6-3.5-3.1-3.1c-3.3,0.5-6.6,0.8-9.3,3.2c-4.1,3.7-8.9,5.2-14.4,5.2
	c-6.4-0.1-12.8-0.5-19.1,0c-12.5,1-24.9,0.6-37.3-1.1c-2.5-0.4-5.8,1-7.6-2.3c-0.3-0.5-1.7-0.6-2.6-0.7c-2.8-0.1-5.4-1.1-8.1-1.7
	c-4.1-0.9-7.6-3.5-12-3.5c-1.5,0-3.8-0.1-5.1-1.7c-1.3-1.5,0.3-4.8-2.6-4.9c-3.5-0.2-2.1,3.2-3.1,5c-0.5,0.9-1.8,1.4-2.1,0.2
	c-0.7-2.5-1.5-3.1-3.6-1.3c-0.5,0.5-1.5,0.3-2.1-0.3c-1.8-1.9-3.6-3.8-5.3-5.7c-0.5-0.6-0.8-1.4-0.2-2c0.5-0.6,1.3-0.7,2.1-0.6
	c1.8,0.3,2.9,1.6,4.3,2.6c1.2,0.8,2.6,2.2,3.9,0.6c1.4-1.7,0.2-3.2-1.3-4.2c-2.5-1.6-4.8-3.4-7.6-4.5c-2.1-0.9-3.8-2.1-6.1-0.4
	c-1.1,0.8-2.6,1.1-3.1-0.8c-0.6-2-2.7-1.8-4-2.8c-1.8-1.4-4.7-1.1-6-3.6c-0.6-1.1-2-0.6-3,0.1c-1.2,0.8-1.9,1.7-1.1,3.3
	c0.3,0.5,1.7,0.8,0.7,1.6c-0.6,0.5-1.8,0.6-2.5-0.3c-1.7-2.4-4.3-3.5-6.8-4.6c-1.2-0.5-2.7,0.5-3.6-0.9c-0.6-1,0.9-2.4-0.2-3.4
	c-3.5,1.1-1.8,4.8-3.8,6.5c-4.7-0.2-4.8-3.5-5.2-6.7c-0.4-3.6,0.7-4.8,4.2-3.8c3.7,1.1,7.4,1.1,11.1,0.5c4.2-0.6,5.4-2.1,5.4-6.4
	c0-5.1-0.1-10.1-0.2-15.2c-0.4-11-1.9-12.8-12.5-16.2c-0.2-0.1-0.4-0.1-0.5-0.2C82,113.1,70.6,104,59.3,94.8
	c-0.2-0.2-0.3-0.6-0.5-1.2c1.7-1,3.5-1.9,5.2-3c3.6-2.4,4.9-2.3,8.2-0.1c3.2,2.2,6.5,4.3,10,5.9c15,7,31,10.8,47.2,14.1
	c8.7,1.7,17.4,2.1,26.1,3.2c6.5,0.8,13,1.8,19.6,1.9c11.8,0.1,23.6,0.3,35.4,0.5c10.1,0.2,20.2,0.6,30.3,0.7
	c11.8,0,23.5-1.4,35.2-2.2c20.1-1.4,39-7.1,57.8-13.4c9.6-3.2,17.9-9.2,25.3-16.2c2-1.9,3.5-4.3,3.5-7.4c0-1.6-0.3-3.7,1.6-4.3
	c1.8-0.5,3.1,0.9,4.4,2c3.4,2.6,5.3,6.8,9.2,8.9c0.1,3.2,3.6,4,4.6,6.7c2.2,6,4.6,11.8,1.9,18.3c-0.4,1,0,2.2-0.2,3.3
	c-0.6,4-0.2,8.6-2.1,11.9c-2.2,3.9-2.8,7.1-1.3,11.1c0.3,0.8,0.2,2.4-0.2,2.6c-3.5,1.8-3,5.8-5,8.3c-7.6,9.5-15.5,18.6-25.9,25.4
	c-7.2,4.7-15,8.3-22.5,12.4c-1.3,0.7-3,1.9-4.2,1.2c-3.3-2-6.3-0.4-9.3,0.1c-4,0.7-2.1-1.6-1.7-3.2c1.5,0.8,2.4,0.3,3-1.2
	c0.2,0,0.4-0.1,0.6-0.1c-0.1,0-0.2-0.1-0.3-0.1c-0.1,0.1-0.2,0.2-0.4,0.2c-1.3-0.4-2.4-0.3-2.9,1.2c-1.6-0.8-3.2-0.1-4.9,0.1
	c-2.6,0.4-1.2-2.2-2-2.8c-0.8-0.6-2.9-0.8-3.6,0.4c-1.4,2.4-3.8,2-5.9,2.5c-5.1,1.3-11,0.4-14.8,5.4c-0.4,0.5-0.9,0.3-1.4-0.1
	c-1.8-1.4-3.3-0.6-4.3,0.8C273.9,190.7,271.9,190.6,270.1,191.2L270.1,191.2z M318.6,174.4c-0.1,0-0.2,0.3-0.2,0.3
	c0.3,0.3,0.6,0.1,0.7-0.3c0.4,0.4,0.9,0.6,1.4,0.4c0.1,0,0.1-0.6-0.1-0.7c-0.5-0.3-1-0.1-1.3,0.4
	C318.9,174.5,318.8,174.4,318.6,174.4 M338,163.7c0.3-0.8,0.6-1.9-0.2-2.5c-0.6-0.5-1.3,0.2-1.7,0.8c-0.6,0.8-0.6,1.7-0.1,2.3
	C337,164.7,337.8,164.5,338,163.7 M316.2,178.4c0.2,0.4,0.9,0.7,1.3,0.6c0.9-0.2,0.7-1.1,0.6-1.8c-0.3-1.3-1.2-2-2.5-2.3
	C314.4,176.5,315.7,177.4,316.2,178.4 M362.5,100.5c-0.2-0.2-0.6-0.1-0.9-0.1c0,0.3,0,0.7,0.1,1c0.2,0.4,0.6,0.4,0.9,0.1
	C362.6,101.1,362.7,100.7,362.5,100.5 M311.3,178.9c-0.3-0.2-0.5-0.5-0.8-0.6c-0.5-0.2-1.1-0.2-1.3,0.4c-0.2,0.4,0.2,0.6,0.7,0.6
	C310.3,179.1,310.8,179,311.3,178.9 M348.2,150.8c0.1,0.1,0.6-0.1,0.7-0.3c0.4-0.7,0.1-1.4-0.4-1.9c-0.1-0.1-0.5,0.2-0.8,0.3
	C347.5,149.6,347.6,150.2,348.2,150.8 M340.2,158.9c-0.2-0.3-0.4-0.2-0.6,0.3c0,0.1,0.1,0.3,0.1,0.4c0.1-0.1,0.3-0.2,0.4-0.2
	C340.2,159.2,340.3,159,340.2,158.9"/>
<path class="st2" d="M230.1,103.3c-0.7,1.2-1.8,1.1-2.9,1.1c-7,0-14.1,0-21.1,0.5c-2.5,0.2-4.8,1.7-7.3,0.6
	c-0.6,2.5,2.3,2.3,2.7,3.7c-2.7,3.4-5.7,4.6-9.7,2.4c-1.6-0.9-3.6-0.7-5.5-0.1c-1.5,0.4-2.9,0.5-4-0.6c-0.8-1.5,5.2-3.5-0.6-4.2
	c-0.6-0.1-0.4-0.9,0.1-1.2c3.9-2.3-0.6-2.2-0.9-3.3c3-1.1,6.2-0.4,9.3-0.6c2-0.1,4,0.3,5.8-0.8c-0.3-1.9-1.7-1.5-2.7-1.5
	c-4.1,0-8.2-0.2-12.2,0.2c-2.8,0.3-1.6,1.7-0.1,2.7c-2.5,1.6-5.3,1.3-8,1.3c-4.6-0.1-9.1-0.3-13.7-1.4c-8.8-2-17.9-2.6-26.9-4
	c-7.3-1.1-14-4.5-21.3-5.5c-0.2,0-0.4-0.1-0.5-0.2c-3.9-2.7-9.8-1.1-12.9-5.7c-0.2-0.2-0.7-0.3-1-0.4c-9.4-0.8-14.9-7.6-20.9-13.6
	c-1.2-1.2-1.9-2.6-1.8-4.5c0.1-3,0.2-6,0-8.9c-0.1-1.4,0.4-2,1.2-2.8c1.7-1.9,3.4-4,5.2-5.8c2.4-2.3,4.5-5.3,8.3-6.1
	c3.4-0.7,7.3-1,9.4-4.8c0.3-0.6,1.7-0.7,2.5-0.9c1.4-0.4,3-0.5,4.3-1.2c7.2-3.8,15.2-5.1,22.9-6.9c13.9-3.2,28-5.8,42.5-6.6
	c7.4-0.4,14.8-0.8,22.2-1.3c13.9-1,28-0.6,41.9,1.5c9,1.3,18.2,1.2,27.1,3.4c2.7,0.6,5.5,0.7,8.2,0.9c2.3,0.2,4.6-1,6.3,1.4
	c0.2,0.2,0.7,0.4,1,0.3c7.7-1.8,14.2,1.6,20.7,4.8c0.7,0.3,1.4,0.5,2.2,0.6c8.7,0.4,16.2,4.8,24.3,7.3c4.7,1.5,8.3,4.8,12.6,6.7
	c8.2,3.6,15,8.8,20,16.4c3.6,5.5,3.2,9.9-1.5,14.6c-0.7,0.6-1.3,1.4-1.6,2.3c-0.8,2.6-2.9,4-4.7,5.4c-6.4,4.7-13.7,7.6-20.9,10.7
	c-1.7,0.7-3.4,0.7-3.8-1.7c-0.2-1.1-2-1.3-1.9-1.7c2.3-4.6,8.6-0.7,10-5.9c-3.5-1.2-6.7-1.3-9.4,0.5c-2.4,1.7-5.2,2.6-7.8,2.9
	c-8.1,0.8-15.4,4.9-23.6,5.7c-6.1,0.6-12.4,1.1-18.5,2.5c-2,0.5-2.2-0.1-1-2.5c0.1-0.3,0.3-0.8,0.1-1c-1.1-1.4-2.7-0.9-4.2-0.8
	c-0.9,0.1-1.7,0.8-1.1,2c0.4,0.7,1.5,1.8,0,2.1c-1.2,0.3-3.2,1.2-3.7-1c-1-4.2-3.3-1.8-5.5-1.8c0.5,2.3,3.1,1.1,3.5,3
	c-5.1,3.3-10.8,2.7-16.4,2.3c-2.2-0.2-5.8,0.4-6.1-3.7c0-0.3-1.4-0.8-2-0.6c-4.1,0.9-8.2,0-12.3,0.2c-0.9,0.1-1.9,0-2.2,1.5
	c2.5,1.5,5.5-0.4,8,1.1C230,102.8,230.1,103.1,230.1,103.3 M314.1,89c1.4-0.4,1.6-1.6,1-2.6c-0.6-1.1-1.8-0.7-2.4-0.1
	c-2.1,2.5-6.4,1.1-7.7,4.8c-1.8-0.6-3.5-0.9-5.4-0.4c-5.5,1.5-10.7,4-16.6,4.1c-0.4,0-1,0.5-1.2,1c-0.3,0.9,0.4,1.4,1.1,1.5
	c1.3,0.1,2.8,0.5,3.8,0.1c5.4-2.4,11.2-3.6,16.8-5.4c0.5-0.2,0.9-0.6,1.3-0.9C308.2,91.2,311.1,89.8,314.1,89 M89.8,68.5
	c-1.5-2-1.5-3.6,0.5-4.6c5.1-2.6,9.9-5.5,15.4-7.4c7-2.3,14.4-3.2,21-6.5c2.5-1.2,5.1-0.7,7.7-1.1c4.7-0.8,9.3-2.6,14.2-2.2
	c3,0.3,5.7-1.4,8.8-1.4c2.9,0,5.8-1.2,8.4-2.6c2.5,2.4,5.7,2,8.5,1.5c8.7-1.5,17.6-0.3,26.2-1.4c5.8-0.7,11.6-1.7,17.1-0.7
	c6.3,1.2,12.6,1.1,18.9,1.5c7.8,0.4,15.5,2.3,23.4,2c3.5-0.2,6.9,1.2,10.4,1.9c7.1,1.4,14.1,2.9,21.2,3.9c2.2,0.3,3.4,1.9,5.5,2.5
	c7.2,2,14.3,4.3,21.2,7c2.7,1,5.4,2.4,7.9,3.9c2.5,1.5,5.1,3.3,4.6,7c-0.1,0.7,0.6,1.4,1.4,1.4c0.9,0,1.2-0.8,1.2-1.6
	c0.8-6.5-0.3-12.4-5.7-16.6c-4.7-3.7-9.4-7.4-15.3-9.2c-0.9-0.3-1.8-0.6-2.6-1.1c-6.9-5.4-15.6-6-23.6-8.3
	c-6.7-1.9-13.5-3.9-20.4-5.4c-6.1-1.3-12.1-2.5-18.3-2.8c-7.5-0.4-14.9-1-22.2-2.5c-8.5-1.8-17.1-1.2-25.7-0.1c-8,1-16,1.2-23.9,0.5
	c-2.2-0.2-4.1,0.6-5.9,1.2c-6.1,2.1-12.5,2.2-18.7,3c-3.2,0.4-6.3,0.7-9.4,1.7c-6.6,2.2-13.5,2.9-20.1,5.2
	c-4.6,1.6-8.8,3.8-13.2,5.8c-5.9,2.7-11.5,6-16.6,10.1c-4.2,3.4-4.1,8.5-6.3,12.6c1.6,3.3,2.9,6.7,5,9.6c1,1.4,2.6,2.5,3.9,3.9
	c1,1.1,2.3,1.1,3.7-0.6C94.3,76.1,92.4,72,89.8,68.5 M133.2,94.9c0.9,0.3,1.8,0.4,2.7,0c0.9-0.4,0.8-1.6,0.2-1.7
	c-6.6-2.2-13.2-3.8-20.1-4.4C121.6,91.7,127.4,93.3,133.2,94.9 M350.4,76.5c1.5-0.1,1.7-1.1,1.6-2.3c-0.1-1.1-0.4-1.8-1.6-1.7
	c-1.1,0.1-2.9-1.6-3.3,0.3c-0.4,2.2-1.9,2.9-4,3.8C346.3,78.6,348.2,76.5,350.4,76.5 M105.5,82.9c-0.4-0.2-1.2,0-1.5,0.3
	c-0.6,0.7-0.2,1.3,0.5,1.8c2.7,1.6,5.3,3.2,9.5,3.3C111.4,84.8,108.4,84,105.5,82.9 M245,99.9c2.1,2.2,3.9,1.6,6.5,0.8
	C249.2,98.4,247.4,98.5,245,99.9 M327.7,78.3c1.5,0.4,2.4-0.7,3.1-1.7c0.5-0.8-0.1-1.5-0.8-1.7c-1.4-0.3-2.5,0.4-3.1,1.6
	C326.7,77.3,326.9,78.1,327.7,78.3 M167.3,99.9c2.4,0.6,4.2,0.9,7-0.6C171.4,97.8,169.6,97.5,167.3,99.9 M146.7,96.7
	c2,1.7,3.8,1.2,5.4-0.2C150.2,95.4,148.6,95.3,146.7,96.7 M161.7,98.4c0.3-0.5,0-1-0.6-1.2c-1-0.4-2.1-0.6-2.8,0.5
	c-0.3,0.5,0,1,0.6,1.2C159.9,99.1,161,99.5,161.7,98.4 M319.7,84.9c0.6,0.1,1.1-0.2,1.1-0.9c0-0.3-0.3-0.7-0.6-0.9
	c-0.6-0.2-1,0-1.3,0.6C318.8,84.4,319.1,84.8,319.7,84.9 M324.3,82.1c0.2-0.6-0.2-1-0.8-0.9c-0.3,0-0.6,0.4-0.7,0.7
	c0,0.2,0.4,0.5,0.6,0.7C323.7,82.4,324.2,82.3,324.3,82.1"/>
<path class="st2" d="M27.9,183.3c0.8,4.6,3.5,8.2,6.5,11.6c10.4,12.1,23.6,20,38.1,26.1c7.9,3.3,15.8,4.4,24.1,3.3
	c4.8-0.6,9.2-2,12.1-6.2c1.3-1.9,3-2.5,5.2-2.7c6.7-0.8,13.2-2.6,19.8-4.2c3.4-0.8,6.8-1.8,10.3-2.4c9.2-1.6,18.5-2.1,27.6-4.1
	c1.8-0.4,3.5-1.3,5.4-1.3c8.4-0.2,16.6-2.1,25-2.5c9.9-0.5,19.7-1.6,29.6-1.4c15.9,0.2,31.7-0.2,47.6,2.1
	c10.5,1.5,21.1,2.6,31.5,4.9c14.1,3.1,28.1,6.4,42,10.3c7.2,2,14.6,3.5,21.1,7.3c1.6,0.9,3.4,1.5,5.2,1.9c3.5,0.7,6.6,2.7,9.3,5
	c2.4,2.1,2.3,4.9-0.2,6c-3.5,1.4-7.6,2.1-10.8,0.7c-6.9-2.9-14.3-4.5-21-7.9c-5.7-2.8-11.9-4.5-18.1-5.9c-6.7-1.5-13.3-3.7-20-5.4
	c-6.3-1.6-12.5-3.8-18.9-5.1c-7.4-1.4-14.7-2.6-22.1-3c-10.8-0.6-21.7-1.4-32.5-2.1c-9.2-0.6-18.3-0.3-27.5,0.1
	c-10.5,0.4-20.9,1.2-31.3,2.9c-2.6,0.4-5.2-1-7.8,0c-5.2,2.1-10.7,3-16.3,3.8c-18.3,2.6-35.9,8.4-54,12.1
	c-13.3,2.7-26.6,4.9-40.2,5.8c-10.1,0.7-20-1.2-28.9-5.2c-10.4-4.7-19.4-12-26.7-21.1c-2.1-2.7-3.4-5.8-2.9-9.4
	c1.6-10.4,6-19.1,16.3-25.6C25.2,176.4,27.3,179.6,27.9,183.3 M372.2,228.4c-1.1,0-2.3-0.2-2.8,1.2c-0.3,1,0,1.8,0.5,2.6
	c1.3,2.2,5.7,3.5,8,2.5c1.2-0.6,1.4-1.6,1.5-2.8c0.1-1.9-1.3-2.5-3.4-3.1C375.2,228.7,373.7,228.4,372.2,228.4"/>
<path class="st2" d="M43,197.9c-6.7-5.7-11.6-12.6-12.9-21.7c-1-6.8,0.4-8.9,6.7-11.5c7-2.9,13.6-0.6,20.3,0.8
	c4.5,0.9,9.4,1.8,13.2,4.6c4.8,3.6,10.1,6.3,14.9,9.9c5.2,3.9,11,7,14.9,12.4c3.6,5,5,11.1,7.8,16.6c1.2,2.4,0.5,4.9-1.6,7.1
	c-4.2,4.4-9.5,6.4-15.2,5.4c-5.8-1-11.9-1.3-17.3-4.1C63.2,211.4,52.3,205.8,43,197.9 M80.4,214.4c1.9,0.6,3.9,1.4,3.8-1.9
	c-0.1-1.2,0.7-0.8,1.3-1c3.8-1.2,7.8-2,9.1-6.6c0.2-0.7,0.8-1.3,1.4-1.7c3.5-2.9,3.4-2.9,2.1-6.5c-1.3-3.5-3.4-6-6.2-8.6
	c-5.4-5-11.3-9.3-17.4-13.2c-9.5-6.1-19.9-9.3-31.4-6.5c-5.8,1.4-7.3,3.5-7.5,9.3c-0.2,5.8,2.8,9.6,6.4,13.6
	c7,7.8,14.6,14.7,25.6,18.8C70.9,212.2,75.8,213,80.4,214.4"/>
<path class="st2" d="M43.8,114.6c-3.7-2.1-4.2-6.3-4.5-10.2c-0.1-1.9,1.4-2.4,3.1-2.5c4.3-0.3,8.5-1.2,12.6-1.8
	c3-0.5,4.7,0.1,6.9,1.8c4.1,2.9,7.8,6.4,12.5,8.5c6.9,3.1,13.2,7.7,21,9.1c2.2,0.4,4.2,1.5,6.3,2.4c2.3,1.1,4.9,3.1,4.1,5.4
	c-1.3,3.6,0.1,6.4,0.6,9.6c0.5,3.1,0,6.4,0.3,9.5c0.4,5.2,0.3,5.4-4.5,5.7c-1.9,0.1-3.7-0.1-5.6,0c-1.9,0-2.8-0.8-2.7-2.7
	c0.3-3.7-0.8-7.5,0.3-11.2c1-3.4-0.7-5.6-3-7.1c-2.9-1.8-6.1-3.9-9.9-2.2c-1.9,0.8-3.7,0.4-5.4-0.3c-5.9-2.3-12.2-3.6-18.3-6.5
	C52.4,120.6,48.3,117.2,43.8,114.6 M70.3,125.3c1.8,1,4,1,6,0.8c3.7-0.4,7.3-1.2,11-1.5c2.4-0.2,3.1-2.2,1.4-4
	c-0.9-0.9-2.1-1.6-3.2-2.2c-8.1-4.6-16.4-8.8-23.8-14.6c-1.1-0.8-2.2-1.4-3.5-1.5c-4.5-0.5-9-0.1-13.3,1.4c-3,1.1-3.4,2.3-1.5,5
	c0.1,0.2,0.2,0.3,0.3,0.4c4.1,4.2,8.9,7.4,13.5,10.7C62.3,120.5,66.3,122.9,70.3,125.3"/>
<path class="st0" d="M129.1,209c-7.3-2.9-11.7-7.3-13.9-13.6c-0.3-0.9-0.9-1.9-1.8-1.9c-3.1,0.2-5.6-2-8.5-2.1
	c-0.8,1.6,0,2.7,0.6,3.8c2.6,4.9,6.1,9.5,5.7,15.5c-0.1,1.6,1.3,2.1,2.8,1.9C118.6,212,123.5,211.7,129.1,209"/>
<path class="st0" d="M304,188.9c0-1.5,0.1-3,0.1-5.8c-1.8,2.7-1.7,4.3-1.3,5.9C303.2,189,303.6,189,304,188.9"/>
<path class="st0" d="M289.3,189.9c-0.1-0.8-0.4-1.4-1.3-1.5c-0.2,0-0.7,0.4-0.7,0.7c-0.1,0.9,0.6,1.2,1.3,1.4
	C289.1,190.6,289.3,190.3,289.3,189.9"/>
<path class="st0" d="M293.8,192.7c0.2-0.5,0.4-1.1-0.2-1.3c-0.4-0.1-1,0.2-1.4,0.5c-0.4,0.4-0.3,1,0.2,1.3
	C293.1,193.5,293.5,193.3,293.8,192.7"/>
<path class="st0" d="M287.8,192.2c0.2,0.3,0.4,0.6,0.7,0.7c0.3,0.1,0.7,0,1-0.1c-0.2-0.2-0.4-0.6-0.7-0.7
	C288.5,192.1,288.2,192.2,287.8,192.2"/>
<path class="st0" d="M230.1,103.3c0.3,0.1,0.7,0.3,1,0.4c0.6,0.1,1.6,0.6,1.6-0.6c0-0.3-0.7-0.7-1.2-0.8c-0.5-0.1-1,0.1-1.6,0.2
	C230,102.8,230.1,103.1,230.1,103.3"/>
<polyline class="st0" points="270.1,191.2 270.2,191.6 270.1,191.2 270.1,191.2 "/>
<polygon class="st0" points="309.5,186.6 309.3,186.8 309.6,186.9 "/>
<path class="st1" d="M336,164.3c1.1,0.4,1.8,0.1,2.1-0.6c0.3-0.8,0.6-1.9-0.2-2.5c-0.6-0.5-1.3,0.2-1.7,0.8
	C335.5,162.8,335.6,163.6,336,164.3"/>
<path class="st1" d="M362.6,101.4c0-0.3,0.1-0.8-0.1-1c-0.2-0.2-0.6-0.1-0.9-0.1c0,0.3,0,0.7,0.1,1
	C361.9,101.8,362.3,101.8,362.6,101.4"/>
<path class="st1" d="M347.7,148.8c-0.3,0.7-0.1,1.4,0.4,1.9c0.1,0.1,0.6-0.1,0.7-0.3c0.4-0.7,0.1-1.4-0.4-1.9
	C348.4,148.5,348,148.7,347.7,148.8"/>
<path class="st1" d="M319.1,174.4c0.4,0.4,0.9,0.6,1.4,0.4c0.1,0,0.1-0.6-0.1-0.7C319.9,173.8,319.5,174,319.1,174.4L319.1,174.4z"
	/>
<path class="st1" d="M340.2,159.3c0-0.1,0.1-0.3,0-0.4c-0.2-0.3-0.4-0.2-0.6,0.3c0,0.1,0.1,0.3,0.1,0.4
	C339.9,159.5,340,159.4,340.2,159.3"/>
<path class="st1" d="M319.1,174.5c-0.2,0-0.4-0.1-0.5,0c-0.1,0-0.2,0.3-0.2,0.3C318.7,175,319,174.9,319.1,174.5L319.1,174.5z"/>
<path class="st3" d="M314.9,181.2c0.2,0,0.4-0.1,0.6-0.1c-0.1,0-0.2-0.1-0.3-0.1C315.2,181.1,315.1,181.2,314.9,181.2L314.9,181.2z"
	/>
<path class="st1" d="M97.9,78.7c-3.7-2.6-5.5-6.7-8.1-10.2c-1.5-2-1.5-3.6,0.5-4.6c5.1-2.6,9.9-5.5,15.5-7.4c7-2.3,14.4-3.2,21-6.5
	c2.5-1.2,5.1-0.7,7.7-1.1c4.7-0.8,9.3-2.6,14.2-2.2c3,0.3,5.7-1.4,8.8-1.4c2.9,0,5.8-1.2,8.4-2.6c2.5,2.4,5.7,2,8.5,1.5
	c8.7-1.5,17.6-0.3,26.2-1.4c5.8-0.7,11.6-1.7,17.1-0.7c6.3,1.2,12.6,1.1,18.9,1.5c7.8,0.4,15.5,2.3,23.4,2c3.5-0.2,6.9,1.2,10.4,1.9
	c7.1,1.4,14.1,2.9,21.2,3.9c2.2,0.3,3.4,1.9,5.5,2.5c7.2,2,14.3,4.3,21.2,7c2.7,1,5.4,2.4,7.9,3.9c2.5,1.5,5.1,3.3,4.6,7
	c-0.1,0.7,0.6,1.4,1.4,1.4c0.9,0,1.2-0.8,1.2-1.6c0.8-6.5-0.3-12.4-5.7-16.6c-4.7-3.7-9.4-7.4-15.3-9.2c-0.9-0.3-1.8-0.6-2.6-1.1
	c-6.9-5.4-15.6-6-23.6-8.3c-6.7-1.9-13.5-3.9-20.4-5.4c-6.1-1.3-12.1-2.5-18.3-2.8c-7.5-0.4-14.9-1-22.2-2.5
	c-8.5-1.8-17.1-1.2-25.7-0.1c-8,1-16,1.2-23.9,0.5c-2.2-0.2-4.1,0.6-5.9,1.2c-6.1,2.1-12.5,2.2-18.7,3c-3.2,0.4-6.3,0.7-9.4,1.7
	c-6.6,2.2-13.5,2.9-20.1,5.2c-4.6,1.6-8.8,3.8-13.2,5.8c-5.9,2.7-11.5,6-16.6,10.1c-4.2,3.4-4.1,8.5-6.3,12.6c1.6,3.3,2.9,6.7,5,9.6
	c1,1.4,2.6,2.5,3.9,3.9C95.2,80.3,96.5,80.3,97.9,78.7"/>
<path class="st1" d="M305,91.1c-1.8-0.6-3.5-0.9-5.4-0.4c-5.5,1.5-10.7,4-16.6,4.1c-0.4,0-1,0.5-1.2,1c-0.3,0.9,0.4,1.4,1.1,1.5
	c1.3,0.1,2.8,0.5,3.8,0.1c5.4-2.4,11.2-3.6,16.8-5.4C304.1,91.7,304.5,91.3,305,91.1L305,91.1z"/>
<path class="st1" d="M116,88.8c5.5,2.9,11.3,4.5,17.1,6.2c0.9,0.3,1.8,0.4,2.7,0c0.9-0.4,0.8-1.6,0.2-1.7
	C129.6,91,122.9,89.4,116,88.8"/>
<path class="st1" d="M180.9,102.3c3-1.1,6.2-0.4,9.3-0.6c2-0.1,4,0.3,5.8-0.8c-0.4-1.9-1.7-1.5-2.7-1.5c-4.1,0-8.2-0.2-12.2,0.2
	c-2.8,0.3-1.6,1.7-0.1,2.7C181,102.2,180.9,102.3,180.9,102.3"/>
<path class="st1" d="M305,91c3.2,0.2,6.1-1.2,9.1-2c1.4-0.4,1.6-1.6,1-2.6c-0.6-1.1-1.8-0.7-2.4-0.1C310.7,88.8,306.3,87.4,305,91
	L305,91z"/>
<path class="st1" d="M343,76.5c3.3,2.1,5.2,0,7.3-0.1c1.5-0.1,1.7-1.1,1.6-2.3c-0.1-1.1-0.4-1.8-1.6-1.7c-1.1,0.1-2.9-1.6-3.3,0.3
	C346.7,74.9,345.2,75.6,343,76.5"/>
<path class="st1" d="M114.1,88.3c-2.6-3.5-5.7-4.3-8.6-5.4c-0.4-0.2-1.2,0-1.5,0.3c-0.6,0.7-0.2,1.3,0.5,1.8
	C107.2,86.6,109.9,88.3,114.1,88.3"/>
<path class="st1" d="M251.5,100.7c-2.3-2.3-4.1-2.2-6.5-0.8C247.1,102.1,248.9,101.5,251.5,100.7"/>
<path class="st1" d="M326.9,76.4c-0.2,0.9,0.1,1.6,0.8,1.8c1.5,0.4,2.4-0.7,3.1-1.7c0.5-0.8-0.1-1.5-0.8-1.7
	C328.6,74.5,327.5,75.2,326.9,76.4"/>
<path class="st1" d="M174.3,99.3c-2.9-1.5-4.7-1.8-7,0.6C169.7,100.4,171.4,100.8,174.3,99.3"/>
<path class="st1" d="M152.1,96.5c-1.9-1.2-3.5-1.3-5.4,0.2C148.7,98.4,150.5,98,152.1,96.5"/>
<path class="st1" d="M158.9,98.8c1,0.3,2.1,0.7,2.8-0.4c0.3-0.5,0-1-0.6-1.2c-1-0.4-2.1-0.6-2.8,0.5C158,98.1,158.3,98.6,158.9,98.8
	"/>
<path class="st1" d="M318.9,83.8c-0.1,0.6,0.2,1,0.8,1.1c0.6,0.1,1.1-0.2,1.1-0.9c0-0.3-0.3-0.7-0.6-0.8
	C319.7,83,319.2,83.2,318.9,83.8"/>
<path class="st1" d="M323.4,82.6c0.3-0.2,0.8-0.3,0.9-0.5c0.2-0.6-0.2-1-0.8-0.9c-0.3,0-0.6,0.4-0.7,0.7
	C322.7,82.1,323.2,82.3,323.4,82.6"/>
<path class="st1" d="M376,228.8c-0.9-0.1-2.3-0.4-3.8-0.4c-1.1,0-2.3-0.2-2.8,1.2c-0.3,1,0,1.8,0.5,2.6c1.3,2.2,5.7,3.5,8,2.5
	c1.2-0.6,1.4-1.6,1.5-2.8C379.5,230,378.1,229.5,376,228.8"/>
<path class="st1" d="M67.5,210.1c3.4,2,8.3,2.8,12.9,4.3c1.9,0.6,3.9,1.4,3.8-1.9c-0.1-1.2,0.7-0.8,1.3-1c3.8-1.2,7.8-2,9.1-6.6
	c0.2-0.7,0.8-1.3,1.4-1.7c3.5-2.8,3.4-2.9,2.1-6.5c-1.3-3.5-3.4-6-6.2-8.6c-5.4-5-11.3-9.3-17.4-13.2c-9.5-6.1-19.9-9.3-31.4-6.5
	c-5.8,1.4-7.3,3.5-7.5,9.3c-0.2,5.8,2.8,9.6,6.4,13.6C48.9,199.2,56.6,206.1,67.5,210.1"/>
<path class="st1" d="M43.9,109.2c-0.1-0.1-0.2-0.3-0.3-0.5c-1.8-2.7-1.5-3.9,1.5-5c4.3-1.5,8.7-1.9,13.3-1.4
	c1.4,0.2,2.5,0.7,3.5,1.5c7.3,5.8,15.7,10,23.8,14.6c1.1,0.6,2.3,1.3,3.2,2.2c1.6,1.8,0.9,3.9-1.4,4c-3.7,0.2-7.3,1.1-11,1.5
	c-2,0.2-4.3,0.3-6-0.8c-4-2.4-8-4.8-12.9-5.4C52.7,116.6,47.9,113.4,43.9,109.2 M54.7,114.3c6.1,3.6,12.8,6.1,19.7,8
	c2.7,0.7,5.5-0.2,8.8-1.4c-2.1-1.4-3.8-2.7-5.7-3.6c-5.6-2.6-10.6-6.2-15.4-10c-3.3-2.6-7-2.5-10.6-1.6c-1.4,0.4-2.8,0.4-4.7,1
	C48.9,110.3,51.8,112.6,54.7,114.3"/>
<path class="st2" d="M46.8,106.7c2.1,3.6,5.1,5.9,8,7.6c6.1,3.6,12.8,6.1,19.7,8c2.7,0.7,5.5-0.2,8.8-1.4c-2.1-1.4-3.8-2.7-5.7-3.6
	c-5.6-2.6-10.6-6.2-15.4-10c-3.3-2.6-7-2.5-10.6-1.6C50.1,106.1,48.6,106.1,46.8,106.7"/>
</svg>
