<?xml version="1.0" encoding="utf-8"?>
<!-- Generator: Adobe Illustrator 19.2.1, SVG Export Plug-In . SVG Version: 6.00 Build 0)  -->
<svg version="1.1" id="Layer_1" xmlns="http://www.w3.org/2000/svg" xmlns:xlink="http://www.w3.org/1999/xlink" x="0px" y="0px"
	 viewBox="0 0 400 262.7" style="enable-background:new 0 0 400 262.7;" xml:space="preserve">
<style type="text/css">
	.st0{fill-rule:evenodd;clip-rule:evenodd;fill:#0075C9;}
	.st1{fill-rule:evenodd;clip-rule:evenodd;fill:#FFFFFF;}
	.st2{fill-rule:evenodd;clip-rule:evenodd;}
	.st3{fill-rule:evenodd;clip-rule:evenodd;fill:#C26B11;}
</style>
<g>
	<path class="st0" d="M351.8,254.9c-1.4-1.4-1.4-1.4-1.4-4.2c1.4-1.4,1.4-2.8,2.8-2.8c2.8,1.4,2.8,4.2,1.4,5.6l0,0
		c0-1.4,0-1.4,0-2.8c0,0,0,0-1.4-1.4c0,1.4,0,1.4,0,1.4c0,1.4,0,1.4,0,2.8l0,0l0,0c0,0,0,0,0,1.4
		C353.2,254.9,353.2,254.9,351.8,254.9L351.8,254.9z"/>
	<path class="st1" d="M351.8,253.5c-1.4-1.4-1.4-1.4-1.4-2.8c1.4-1.4,1.4-1.4,2.8-1.4c0,0,0,0,0,1.4c-1.4,0-1.4,0-1.4,0
		C351.8,252.1,350.4,252.1,351.8,253.5L351.8,253.5z"/>
	<path class="st0" d="M367.3,252.1c0-1.4-1.4-1.4-1.4-1.4c-1.4,0-1.4,0-2.8,0c-2.8-2.8,0-7,0-9.8c-1.4,0-1.4,1.4-2.8,2.8
		c0,0,0,0,0-1.4h-1.4c0-1.4,0-1.4,0-2.8c1.4,0,1.4,0,2.8-1.4c-1.4,1.4-1.4,1.4-1.4,2.8l0,0c1.4-1.4,2.8-4.2,4.2-4.2
		c0,1.4,0,1.4-1.4,1.4c1.4,1.4,1.4,1.4,1.4,1.4c0,2.8-1.4,5.6-1.4,7c2.8-1.4,2.8-1.4,2.8-1.4c1.4,1.4,1.4,1.4,2.8,2.8v-1.4
		c1.4,0,1.4,0,1.4,0v1.4c0,0,0,0-1.4,0c0,0,0,1.4-1.4,1.4c0,0,0,0,1.4,1.4c0-1.4,0-1.4,0-1.4C368.7,250.7,368.7,250.7,367.3,252.1
		L367.3,252.1z"/>
	<path class="st1" d="M363,250.7c0-1.4,0-1.4,0-1.4c0-1.4,0-1.4,0-2.8c1.4,0,2.8,0,2.8,0c0,1.4,0,1.4,0,2.8c0,0,0,0-1.4,1.4
		c0-1.4,0-1.4,0-2.8c0,0,0,0-1.4,0c0,1.4,0,1.4,1.4,1.4C364.4,249.3,363,249.3,363,250.7L363,250.7z"/>
	<path class="st0" d="M340.5,247.9c-1.4,0-1.4,0-1.4,0c0-1.4,0-1.4,0-1.4S340.5,246.5,340.5,247.9c1.4-4.2-1.4-5.6-1.4-8.4
		C341.9,239.5,344.7,247.9,340.5,247.9L340.5,247.9z"/>
	<path class="st0" d="M132.2,247.9c0-2.8,2.8-2.8,4.2-2.8c1.4-1.4,1.4-1.4,1.4-2.8c1.4-2.8,4.2-7,7-7c0,1.4,0,1.4,0,2.8
		c1.4-1.4,4.2-1.4,7-2.8c0,1.4,0,1.4,0,1.4h1.4c0,1.4,0,1.4,0,2.8c0-1.4,1.4-1.4,2.8-1.4c0,0,0,0,0,1.4c0-1.4,1.4-1.4,2.8-2.8
		c1.4,2.8,1.4,2.8,0,4.2c0,0,0-1.4-1.4-1.4c0,1.4,0,1.4-1.4,1.4v-1.4c-1.4,1.4-1.4,1.4-2.8,2.8c-1.4-1.4-1.4-1.4-1.4-1.4
		c-1.4,1.4-2.8,4.2-2.8,5.6c-2.8-1.4-5.6,0-7-1.4c-2.8,1.4-5.6,0-7,2.8l-1.4-1.4L132.2,247.9L132.2,247.9z"/>
	<path class="st0" d="M281.4,247.9c0-1.4,0-1.4,0-2.8c1.4-1.4,1.4-1.4,1.4-1.4c-1.4,1.4-2.8,2.8-5.6,2.8c0-1.4,0-1.4,1.4-2.8
		c-2.8,1.4-2.8,1.4-4.2,2.8c0-1.4-1.4-1.4-1.4-1.4s-1.4,1.4-2.8,1.4c0,0,0-1.4-1.4-1.4c-1.4,1.4-1.4,1.4-4.2,1.4c0-1.4,0-1.4,0-1.4
		c-1.4,1.4-4.2-1.4-5.6,0v-1.4c-1.4,1.4-1.4,1.4-2.8,2.8c0-1.4-1.4-1.4-1.4-1.4c1.4-2.8,2.8-5.6,5.6-7c0,1.4,0,1.4,0,1.4
		c1.4-1.4,1.4-1.4,2.8-2.8c0,1.4,0,1.4,0,1.4c1.4,0,2.8-1.4,2.8-1.4l0,0c-1.4,4.2-1.4,4.2-4.2,7c2.8,0,4.2-2.8,5.6-4.2
		c1.4,0,1.4,0,1.4,1.4c0,0,1.4,0,2.8,0c-1.4,0-1.4,1.4-1.4,1.4c1.4-1.4,2.8-1.4,4.2-1.4c0,0-1.4,1.4-2.8,2.8
		c2.8,1.4,4.2-4.2,5.6-2.8v1.4c1.4-1.4,4.2-2.8,5.6-2.8c0,1.4-2.8,4.2-2.8,4.2c1.4-1.4,2.8-1.4,5.6-2.8c0,2.8-2.8,2.8-2.8,5.6
		c2.8-1.4,4.2-2.8,4.2-2.8c0,1.4,0,1.4,0,1.4c1.4,0,2.8,0,4.2,0c0,0,0,0,0,1.4c-1.4-1.4-2.8,0-4.2,0c0,0,0,0-1.4-1.4
		C282.8,247.9,282.8,247.9,281.4,247.9L281.4,247.9z"/>
	<path class="st0" d="M218.1,246.5L218.1,246.5c0-1.4,0-1.4,1.4-1.4c0,0,0,0,0-1.4c1.4,1.4,2.8,1.4,4.2,1.4v1.4
		C222.3,246.5,219.5,246.5,218.1,246.5L218.1,246.5z"/>
	<path class="st0" d="M346.1,246.5c-1.4-1.4-1.4-2.8-2.8-4.2c0,0,0,0,0,1.4c0,0,0,0-1.4,0c1.4-2.8,1.4-4.2,0-7
		c4.2,1.4,1.4,9.8,5.6,7C347.5,245.1,347.5,246.5,346.1,246.5L346.1,246.5z"/>
	<path class="st0" d="M116.7,246.5c0,0,0,0,0-1.4h1.4h1.4c0,0,1.4,0,2.8,0l0,0C119.6,245.1,118.2,246.5,116.7,246.5L116.7,246.5z"/>
	<path class="st0" d="M232.1,246.5c0-1.4,0-1.4,0-1.4l0,0l0,0c-1.4,0-2.8,0-2.8,0l0,0c-2.8,0-7,0-7-1.4c5.6-2.8,5.6-2.8,5.6-2.8
		c-1.4,1.4-1.4,1.4-1.4,2.8c2.8-1.4,2.8-4.2,5.6-5.6c0,0,0,0,1.4,0c-1.4,0-1.4,1.4-1.4,1.4s0,0-1.4,0c0,1.4,0,1.4,0,1.4
		c1.4,0,1.4,0,1.4,0c0-1.4,5.6-4.2,5.6-4.2C236.4,240.9,236.4,243.7,232.1,246.5L232.1,246.5z"/>
	<path class="st0" d="M244.8,246.5c-2.8-1.4-5.6-1.4-9.9-1.4c2.8-2.8,4.2-7,5.6-11.2c-2.8-2.8,2.8-8.4,5.6-9.8
		c2.8-8.4-2.8-15.5-4.2-23.9c1.4-4.2,1.4-9.8-1.4-12.6c-1.4,0-4.2,0-5.6,0c-1.4,4.2,0,8.4,0,12.6c0,1.4-1.4,4.2-1.4,5.6
		c0,4.2,0,7,1.4,11.2c5.6,7,2.8,9.8-1.4,15.5c-2.8,7-8.4,9.8-15.5,9.8c-1.4,0-2.8,0-4.2,0c-4.2-4.2,0-7,2.8-9.8c0-5.6,1.4-7,5.6-9.8
		c2.8-7,0-14.1-2.8-21.1c0-2.8,0-5.6,0-8.4c-2.8-8.4-7-14.1-11.3-21.1c0-11.2,0-11.2-1.4-12.6c-1.4,0-4.2-2.8-5.6-1.4
		c2.8,8.4,0,16.9,0,25.3c0,1.4,2.8,2.8,4.2,4.2c1.4,7-4.2,16.9,0,23.9c0,2.8-1.4,7-2.8,8.4c0,2.8-1.4,5.6-1.4,9.8
		c-1.4,0-1.4,0-2.8,1.4c-1.4-1.4-4.2,1.4-5.6,0c0,0,0,0-1.4,1.4c-1.4-1.4-5.6,0-7-2.8l-1.4-1.4c0-2.8,0-2.8,1.4-5.6
		c0-2.8,1.4-7,2.8-9.8c7-5.6,7-9.8,7-18.3c-2.8-1.4-5.6-2.8-8.4-4.2c-2.8,4.2,0,5.6,0,9.8c0,1.4-4.2,1.4-5.6,1.4
		c0-1.4-1.4-2.8-1.4-4.2l0,0c-1.4,2.8-1.4,4.2-1.4,7c-1.4,1.4-2.8,1.4-4.2,1.4c-1.4,1.4-2.8,2.8-2.8,4.2c-1.4,5.6-4.2,11.2-7,15.5
		c-2.8,1.4-2.8,1.4-5.6,2.8c-2.8,1.4-9.9,2.8-12.7,1.4c2.8-2.8,4.2-7,7-9.8c-2.8-5.6,1.4-9.8,5.6-11.2c1.4-1.4,8.4-11.2,2.8-11.2
		c0,1.4-4.2,7-5.6,1.4c0-1.4,0-1.4,1.4-4.2c-1.4-1.4-2.8-1.4-2.8-2.8c-2.8-1.4-7-1.4-9.9-1.4c-1.4-1.4-1.4-1.4-4.2-1.4
		c0,7,7,11.2,2.8,18.3c0,4.2,0,8.4,1.4,12.6c2.8,2.8,2.8,4.2,2.8,8.4c-1.4,0-1.4,0-1.4,0v1.4c-1.4,0-1.4,1.4-2.8,1.4
		c0,4.2-4.2,12.6-8.4,11.2c-1.4,1.4-9.9,2.8-11.3,0c-1.4,0-1.4,0-1.4,0c0-1.4,0-2.8,1.4-2.8c0-2.8,0-4.2,2.8-5.6c0-2.8,0-5.6,0-8.4
		c5.6-4.2,5.6-4.2,5.6-4.2c0-5.6,1.4-9.8-1.4-14.1c-5.6-7-1.4-15.5-7-21.1c-1.4,0-1.4,0-1.4,0c0,2.8,0,4.2,0,7
		c1.4,4.2,2.8,7,1.4,12.6c0,4.2,0,4.2,0,7c1.4,4.2,2.8,5.6,2.8,9.8c-1.4,0,0,1.4-1.4,1.4l0,0c-1.4,1.4-1.4,1.4-1.4,1.4
		c0,2.8-1.4,4.2-2.8,7c1.4,0,1.4,1.4,2.8,0c0,1.4,0,1.4,0,2.8c-1.4,1.4-4.2,9.8-7,7c0,1.4-7,2.8-8.4,1.4c0-1.4,0-1.4,0-1.4h1.4
		c0,0,0,0,1.4,0c2.8,0,2.8,0,2.8,0c-1.4,0-1.4,0-1.4-1.4c1.4,0,2.8-1.4,4.2,0c0-1.4,0-1.4,1.4-1.4v-1.4c-1.4,0-2.8,0-4.2,0
		c0,0,0,0,0-1.4c4.2-1.4,4.2-1.4,5.6-1.4c0-1.4,0-1.4,0-1.4c-4.2,1.4-16.9,9.8-18.3,1.4c1.4-2.8,4.2-4.2,4.2-7l0,0
		c0-1.4,1.4-4.2,1.4-7c2.8-1.4,4.2-2.8,5.6-4.2c2.8-7,0-11.2-4.2-15.5c0-1.4,0-1.4,0-8.4c-1.4-5.6-4.2-7-7-11.2
		c-2.8-5.6-1.4-11.2-4.2-16.9c-2.8-1.4-5.6-2.8-8.4-4.2c-7,4.2-5.6,8.4-2.8,14.1c-1.4,7-5.6,11.2-11.3,8.4c-7,4.2-11.3,0-14.1-5.6
		c0-4.2-1.4-7-1.4-11.2c-2.8-4.2-7-9.8-12.7-9.8c-5.6-4.2-8.4-7-7-14.1c-1.4-1.4-7,1.4-9.9,0c-7-1.4-11.3-12.6-11.3-16.9
		c2.8-4.2,14.1,2.8,18.3,2.8v-1.4c-7-2.8-12.7-7-11.3-16.9c1.4-1.4,4.2-7,7-7c0,5.6-1.4,9.8,2.8,14.1c1.4,0,2.8,0,4.2,0
		c1.4-4.2,4.2-5.6,5.6-8.4c0,0,0,0,1.4,0c0,0,0,0,2.8-2.8h1.4c0-2.8,1.4-1.4,4.2-1.4c1.4-2.8,1.4-1.4,2.8-1.4
		c2.8-1.4,2.8-1.4,4.2-1.4c1.4,2.8,5.6,2.8,8.4,2.8c4.2-4.2-8.4-9.8-11.3-9.8c0,0,0,0,0-1.4c7-1.4,14.1,0,19.7,4.2c0,4.2,0,7,0,9.8
		c-4.2,7-4.2,7-4.2,7c4.2-2.8,7-8.4,12.7-9.8c0,2.8,0,4.2,1.4,5.6c0,5.6,0,11.2-4.2,15.5c-4.2,1.4-4.2,1.4-4.2,1.4
		c7,1.4,15.5,1.4,22.5,1.4c2.8-1.4,15.5-11.2,19.7-7c4.2,0,8.4-1.4,12.7-1.4c1.4,0,12.7,4.2,14.1,2.8c0,0,0,0,0-1.4
		c-7,0-9.9-4.2-11.3-9.8c0-5.6,2.8-11.2,9.9-11.2c-1.4,5.6-4.2,7,0,12.6c1.4-1.4,1.4-1.4,2.8-1.4c0-7,14.1-9.8,19.7-9.8
		c2.8,2.8,2.8,1.4,5.6,1.4c1.4,1.4,2.8,1.4,4.2,2.8c2.8-7-1.4-9.8-7-12.6v-1.4c1.4,0,1.4,0,4.2,0c11.3,1.4,15.5,7,12.7,18.3
		c-1.4,1.4-2.8,2.8-2.8,4.2c0,0,0,0,1.4,0c0-1.4,2.8-4.2,4.2-5.6c1.4-4.2,4.2-5.6,7-7c2.8,7,4.2,11.2,2.8,18.3
		c-1.4,1.4-1.4,1.4-1.4,2.8c2.8,0,2.8,0,7,1.4c1.4-1.4,1.4-1.4,4.2-2.8c2.8-4.2,2.8-8.4,2.8-12.6c-4.2-9.8-2.8-12.6,4.2-19.7
		c5.6-2.8,11.3,0,16.9,2.8c2.8,0,7-1.4,9.9-1.4c4.2,4.2,4.2,4.2,5.6,9.8c2.8,1.4,4.2,1.4,4.2,4.2c-1.4,0-1.4,0-2.8-1.4
		c0,1.4,0,1.4-1.4,1.4l0,0c-1.4,2.8-8.4,1.4-12.7,1.4c-4.2-1.4-5.6-5.6-8.4-9.8c-5.6-4.2-12.7-1.4-12.7,5.6c5.6,8.4,4.2,12.6,0,21.1
		c-1.4,0-1.4,1.4-1.4,1.4c2.8,1.4,8.4-1.4,9.9-4.2c1.4,0,4.2-1.4,5.6-1.4c2.8,0,5.6,0,8.4-1.4c9.9,2.8,16.9,1.4,26.7,0
		c4.2-2.8,8.4-7,9.9-11.2h1.4c5.6-2.8,8.4-1.4,14.1,2.8c0,0,0,0,1.4,0l0,0c2.8,1.4,2.8,1.4,4.2,1.4c5.6-5.6,11.3-9.8,18.3-5.6
		c4.2,7,5.6,5.6,14.1,7c7,2.8,11.3,8.4,15.5,16.9c0,2.8,0,5.6,1.4,8.4c0,8.4-5.6,25.3,4.2,29.5c9.9,0,14.1,2.8,18.3,12.6
		c1.4,4.2,1.4,5.6,1.4,7l0,0c0,1.4,0,4.2,0,7c-1.4,0-1.4,0-1.4,0c-1.4,2.8-2.8,5.6-5.6,7c0-2.8,0-4.2,0-7c0,1.4-1.4,1.4-1.4,2.8l0,0
		c0-1.4-1.4-4.2-1.4-5.6c-1.4,0-1.4,1.4-1.4,1.4l0,0c-2.8-7-7-8.4-12.7-12.6c0-1.4,0-1.4-1.4-7c-4.2-7-7-9.8-7-16.9
		c0-9.8,2.8-16.9,0-25.3c-4.2-8.4-9.9-11.2-18.3-11.2c0,1.4,4.2,8.4,7,15.5c1.4,5.6,2.8,11.2,4.2,16.9c-1.4,15.5-2.8,22.5-1.4,25.3
		c0,0,0,1.4,1.4,2.8c9.9,4.2,5.6,14.1,5.6,23.9c2.8,5.6,4.2,11.2-1.4,16.9c0,2.8,0,2.8,0,4.2c-1.4,2.8-4.2,8.4-8.4,5.6
		c-4.2,4.2-7-1.4-9.9,1.4c-1.4,0-2.8,0-2.8,0c0-1.4,0-2.8,0-4.2c1.4-1.4,1.4-1.4,4.2-5.6c-1.4-7,0-7,5.6-9.8
		c2.8-4.2,2.8-16.9-1.4-21.1c-1.4,0-4.2,0-5.6-1.4c-1.4,1.4-1.4,2.8-2.8,4.2c1.4,4.2,2.8,8.4-2.8,8.4c-2.8-2.8-2.8-2.8-4.2-5.6
		c0,0,0,1.4-1.4,1.4c0,2.8,1.4,11.2-4.2,7c-2.8,0-1.4,12.6-5.6,15.5c0,5.6-1.4,7-2.8,11.2h-1.4l0,0c-1.4,0-1.4,0-1.4,0l-1.4,1.4V231
		l-1.4,1.4c-4.2,0-8.4,0-12.7,0L273,231c1.4-1.4,1.4-2.8,1.4-4.2c2.8-2.8,4.2-4.2,4.2-8.4c1.4-2.8,4.2-5.6,7-8.4
		c1.4-1.4,2.8-4.2,2.8-5.6c0-2.8,0-5.6,1.4-8.4c-1.4,0-1.4,0-2.8,0c-1.4,2.8-2.8,5.6-7,5.6c0-1.4,0-1.4,0-4.2c0-1.4,1.4-2.8,1.4-5.6
		c-1.4-1.4-4.2,0-5.6,1.4c-5.6-1.4-14.1,1.4-18.3-2.8c-1.4,2.8,1.4,7,2.8,9.8c0,5.6-2.8,11.2-2.8,18.3c2.8,4.2,8.4,11.2,1.4,15.5
		c0,4.2-2.8,8.4-5.6,11.2C249,245.1,249,245.1,244.8,246.5L244.8,246.5z"/>
	<path class="st0" d="M104.1,245.1L104.1,245.1c1.4-1.4,1.4-1.4,2.8-1.4C105.5,245.1,105.5,245.1,104.1,245.1L104.1,245.1z"/>
	<path class="st0" d="M150.5,245.1c0-1.4,0-1.4,1.4-1.4v1.4H150.5L150.5,245.1z"/>
	<path class="st1" d="M146.3,245.1c0-1.4,0-2.8,1.4-4.2C149.1,243.7,147.7,243.7,146.3,245.1L146.3,245.1z"/>
	<path class="st1" d="M244.8,243.7h-1.4c1.4-2.8,2.8-5.6,2.8-7c1.4,0,1.4,0,5.6-1.4c2.8,4.2,2.8,5.6-2.8,8.4
		C247.6,243.7,247.6,243.7,244.8,243.7L244.8,243.7z"/>
	<path class="st0" d="M349,243.7c0-2.8-1.4-5.6-1.4-8.4c1.4-1.4,1.4-1.4,4.2-1.4c1.4,1.4,0,4.2-1.4,5.6c0,1.4,0,2.8,0,4.2
		C350.4,243.7,350.4,243.7,349,243.7L349,243.7z"/>
	<path class="st1" d="M144.9,243.7c0-1.4,0-1.4,1.4-1.4C144.9,242.3,144.9,243.7,144.9,243.7L144.9,243.7z"/>
	<path class="st0" d="M202.6,243.7c-1.4-1.4-7-1.4-9.9-1.4c0-1.4,0-1.4,1.4-1.4c1.4,0,1.4,0,2.8,0l0,0c1.4,0,4.2,0,5.6,1.4l0,0
		c-1.4-1.4-1.4-1.4-2.8-2.8c0,0,0,0,0-1.4c1.4,1.4,2.8,0,2.8-1.4h1.4l1.4,1.4c0-1.4,0-1.4,0-2.8l0,0c1.4,0,1.4,1.4,1.4,1.4
		c1.4,0,1.4,0,1.4-1.4c0,1.4,1.4,1.4,1.4,1.4s0,0,1.4,0c0,1.4,0,2.8,1.4,5.6c-2.8,0-7-1.4-9.9-1.4
		C202.6,242.3,202.6,243.7,202.6,243.7L202.6,243.7z"/>
	<path class="st0" d="M189.9,243.7v-1.4c1.4,0,1.4,0,2.8,0c0,0,0,0,0,1.4C191.3,243.7,191.3,243.7,189.9,243.7L189.9,243.7z"/>
	<path class="st0" d="M353.2,243.7c-1.4,0-1.4-1.4-1.4-1.4s0-1.4,0-2.8c2.8-2.8,2.8,0,1.4,2.8C353.2,242.3,353.2,242.3,353.2,243.7
		L353.2,243.7L353.2,243.7z"/>
	<path class="st0" d="M356,243.7c0-1.4,0-1.4-1.4-1.4c1.4,0,1.4,0,1.4,0c0-1.4,0-1.4,0-2.8l1.4-1.4
		C357.4,240.9,358.8,242.3,356,243.7L356,243.7z"/>
	<path class="st1" d="M239.2,242.3c-1.4,0-1.4,0-1.4,0c1.4-2.8,2.8-5.6,5.6-7C244.8,236.6,239.2,240.9,239.2,242.3L239.2,242.3z"/>
	<path class="st1" d="M258.9,242.3c0-1.4,0-1.4,1.4-1.4C258.9,240.9,258.9,242.3,258.9,242.3L258.9,242.3z"/>
	<path class="st0" d="M346.1,242.3c0-1.4,0-1.4,0-1.4c1.4,0,1.4,0,1.4,0C347.5,242.3,347.5,242.3,346.1,242.3L346.1,242.3z"/>
	<path class="st0" d="M92.8,240.9c0,0,1.4,0,2.8-1.4l0,0c1.4,0,2.8-1.4,4.2-1.4l0,0c0,0,0,0,1.4,1.4
		C101.3,239.5,94.2,240.9,92.8,240.9L92.8,240.9z"/>
	<path class="st1" d="M129.4,240.9c-1.4,0-1.4,0-1.4,0c1.4-2.8,1.4-7,4.2-7c1.4,0,1.4,0,1.4,0c1.4,0,1.4,0,2.8-1.4
		c0,1.4,1.4,2.8,1.4,2.8l0,0c1.4,1.4,1.4,1.4,1.4,2.8c-2.8,1.4-5.6,1.4-8.4,1.4v1.4C129.4,240.9,129.4,240.9,129.4,240.9
		L129.4,240.9z"/>
	<path class="st1" d="M218.1,240.9c-1.4-1.4,1.4-5.6,2.8-7c0,0,0,0,2.8,0c1.4,0,1.4,0,2.8,0c0,1.4,0,1.4,1.4,1.4v-1.4v1.4
		c1.4,0,1.4-1.4,1.4-1.4c0,1.4,0,1.4,0,2.8c0-1.4,0-1.4,1.4-1.4c0,1.4,0,1.4,0,1.4c-1.4,0-1.4,0-2.8,0c0,1.4-1.4,1.4-2.8,1.4
		c0,1.4,0,1.4,0,1.4C222.3,240.9,219.5,240.9,218.1,240.9L218.1,240.9z"/>
	<path class="st1" d="M147.7,240.9c0-1.4,0-1.4,1.4-1.4C149.1,239.5,149.1,239.5,147.7,240.9L147.7,240.9z"/>
	<path class="st1" d="M151.9,240.9c0-1.4,0-1.4,0-1.4l0,0C151.9,239.5,151.9,239.5,151.9,240.9L151.9,240.9z"/>
	<path class="st0" d="M78.7,239.5c1.4-1.4,1.4-1.4,2.8-1.4c0,0,0,0,0-1.4c1.4,1.4,1.4,1.4,4.2,1.4c0-1.4-1.4-1.4-1.4-2.8
		c1.4,1.4,1.4,1.4,1.4,1.4c1.4,0,1.4-1.4,1.4-1.4c1.4,0,2.8,1.4,2.8,0l0,0h1.4l1.4-1.4c0,0,0,0,0,1.4c1.4-1.4,4.2-2.8,7-2.8
		c0,2.8,0,2.8-1.4,4.2c-4.2,1.4-8.4,1.4-12.7,1.4C84.4,239.5,80.2,239.5,78.7,239.5L78.7,239.5z"/>
	<path class="st1" d="M123.8,239.5v-1.4c1.4-1.4,1.4-4.2,2.8-5.6h1.4c0,0,0,1.4,1.4,1.4C128,236.6,126.6,238.1,123.8,239.5
		L123.8,239.5z"/>
	<path class="st1" d="M213.9,239.5c1.4-2.8,2.8-7,5.6-7C218.1,235.2,216.7,238.1,213.9,239.5L213.9,239.5z"/>
	<path class="st1" d="M146.3,238.1c0,0,0,0,1.4-1.4C146.3,238.1,146.3,238.1,146.3,238.1L146.3,238.1z"/>
	<path class="st0" d="M315.2,238.1c0-1.4-1.4-1.4-1.4-2.8c0,1.4,0,1.4,0,2.8c-1.4-1.4-1.4-1.4-2.8-1.4c0-1.4,0-1.4,0-1.4l0,0
		c1.4,0,1.4,1.4,1.4,1.4c0-1.4,0-2.8,0-2.8h1.4c0,0,0,0,4.2-2.8c1.4,0,4.2,1.4,7,1.4c-2.8,4.2-2.8,4.2-2.8,4.2s0,0-1.4,0h-1.4
		c0,0,0,0-1.4,0c0,1.4,0,1.4,0,1.4c-1.4,0-1.4-1.4-1.4-1.4S316.6,238.1,315.2,238.1L315.2,238.1z"/>
	<path class="st0" d="M309.6,238.1c-1.4,0-1.4-1.4-2.8-1.4c1.4,0,1.4,0,2.8-1.4c0,0,1.4,1.4,1.4,2.8
		C309.6,238.1,309.6,238.1,309.6,238.1L309.6,238.1z"/>
	<path class="st1" d="M349,238.1c0-1.4,0-2.8,0-2.8s1.4,0,1.4-1.4c0,1.4,0,2.8,0,2.8S350.4,236.6,349,238.1L349,238.1z"/>
	<path class="st0" d="M325,236.6c0,0,0,0-1.4-1.4c1.4,0,1.4-1.4,2.8-2.8l0,0c0,1.4,0,2.8,0,4.2C326.4,236.6,326.4,236.6,325,236.6
		L325,236.6z"/>
	<path class="st0" d="M287,236.6c0-1.4,0-1.4,0-1.4c1.4,0,1.4,0,4.2-1.4c0,0,0,0,0,1.4l0,0c1.4-1.4,1.4-2.8,2.8-2.8c0,0,0,0,0,1.4
		c1.4-1.4,0-1.4,0-4.2c1.4-1.4,1.4-2.8,2.8-4.2c1.4,0,2.8,0,4.2,0c0,1.4,0,1.4,0,1.4c1.4,0,1.4,0,8.4,0c1.4-1.4,1.4-1.4,2.8-1.4
		c0,1.4,0,5.6,0,7c-4.2,0-4.2,0-5.6,1.4v-1.4c-1.4,1.4-1.4,1.4-1.4,1.4c-1.4,0-1.4-1.4-1.4-1.4v1.4c-2.8,0-4.2,1.4-7,0
		c0,0,0,1.4-1.4,1.4c0,0,0,0-1.4,0c-1.4,1.4-2.8,0-4.2,1.4c0-1.4,0-1.4-1.4-1.4C288.4,236.6,288.4,236.6,287,236.6L287,236.6z"/>
	<path class="st2" d="M329.3,236.6c0-1.4,0-1.4,0-1.4v-1.4C329.3,235.2,329.3,235.2,329.3,236.6L329.3,236.6L329.3,236.6z"/>
	<path class="st1" d="M106.9,235.2c1.4-2.8,1.4-4.2,2.8-7l0,0l0,0c4.2,0,7,0,9.9,0c0,1.4-1.4,7-4.2,4.2
		C112.5,233.8,111.1,235.2,106.9,235.2L106.9,235.2z"/>
	<path class="st1" d="M250.4,235.2c0-2.8-2.8-1.4-4.2-1.4c-1.4,0-1.4-1.4-4.2,0c0-1.4,0-1.4,0-1.4s0,0-1.4,0c0-1.4,1.4-1.4,1.4-2.8
		c8.4-7,5.6-11.2,5.6-21.1c-4.2-4.2-4.2-8.4-2.8-12.6c-4.2-16.9-4.2-16.9-5.6-18.3c-2.8,0,1.4,7,1.4,8.4c-7-1.4-8.4-2.8-14.1-8.4
		c0,2.8,2.8,4.2,2.8,7c-4.2,0-7-4.2-9.9-5.6c-1.4,0-1.4,0-1.4,0c0,4.2,7,7,11.3,8.4c-1.4,0-1.4,0,0,0l1.4-1.4l0,0
		c0,1.4-1.4,2.8-1.4,2.8s0,0,1.4,0c-1.4,1.4-1.4,2.8-1.4,4.2c0,0,0,0,1.4,0c0-1.4,1.4-2.8,1.4-4.2c0,4.2,1.4,7,1.4,11.2
		c-1.4,7-1.4,11.2,0,18.3c2.8,4.2,2.8,4.2,4.2,5.6c-1.4,2.8-4.2,5.6-7,7c-1.4,0-1.4-1.4-1.4-1.4c0,1.4,0,1.4-1.4,2.8
		c-1.4-1.4-1.4,0-2.8,0c-1.4,0-2.8-1.4-2.8-1.4c-1.4,0-1.4,1.4-1.4,1.4c0-2.8,0-2.8-1.4-2.8h-1.4c0-2.8,2.8-4.2,5.6-5.6
		c4.2-8.4,0-15.5-2.8-23.9c0-5.6-1.4-11.2-4.2-18.3c-2.8-4.2-5.6-8.4-5.6-14.1c0,1.4,1.4,2.8,1.4,4.2c1.4-4.2,1.4-4.2,1.4-9.8
		c1.4,0,2.8,0,4.2,0l0,0c-4.2-1.4-7-4.2-11.3-5.6c0-1.4,1.4-2.8,1.4-4.2h-1.4c0,1.4,0,1.4-1.4,2.8l0,0c0,0,0,0-1.4-1.4
		c1.4-1.4,2.8-1.4,2.8-2.8c-1.4-1.4-1.4-1.4-2.8-1.4c0,1.4-1.4,2.8-2.8,2.8c2.8-1.4,2.8-1.4,2.8-4.2c-1.4,0-1.4-1.4-2.8-1.4l0,0l0,0
		l-1.4-1.4c0,0,0,0,0-8.4c-1.4-2.8-5.6-7-5.6-9.8c2.8-1.4,5.6-4.2,8.4,0c0,2.8,0,5.6,4.2,5.6c0,2.8-2.8,7,0,8.4
		c0,2.8,1.4,2.8,2.8,5.6c1.4,0,2.8,0,4.2,0c1.4-1.4,1.4-2.8,2.8-5.6c1.4,0,1.4,1.4,2.8,1.4c0,1.4-1.4,1.4-1.4,2.8
		c2.8,4.2,0,8.4,5.6,9.8c0,1.4,1.4,1.4,1.4,2.8c1.4,0,1.4,0,1.4,0c1.4-1.4,2.8-1.4,2.8-2.8c1.4,0,1.4,0,1.4,0
		c5.6-4.2,8.4-5.6,4.2-9.8c0-1.4,0-2.8,0-2.8c4.2-4.2,2.8-7-2.8-8.4c0,0,0,0,0-1.4c1.4-1.4,1.4-1.4,4.2-4.2v-1.4
		c-4.2-4.2-12.7,1.4-18.3,0c4.2,0,4.2,0,4.2-1.4l0,0l0,0c4.2-4.2,7-4.2,12.7-5.6c5.6,0,18.3,0,19.7,8.4c-1.4,0-1.4,0-1.4,0
		c0,5.6,4.2,4.2,0,8.4c-1.4,0-2.8,0-4.2,0c-1.4,1.4-2.8,5.6-5.6,5.6c0,4.2,1.4,8.4,5.6,8.4c2.8-1.4,1.4,0,4.2,0
		c4.2-4.2,7-7,11.3-2.8c1.4,0,1.4,0,2.8,0c0,2.8,0,4.2,1.4,5.6l0,0c0,4.2,0,7,2.8,9.8c1.4,0,2.8-1.4,4.2-2.8
		c4.2,2.8,4.2,5.6,8.4,2.8c1.4,0,1.4,0,2.8,0c4.2-2.8,1.4-4.2,2.8-8.4c2.8-1.4,4.2-2.8,4.2-5.6c-1.4-1.4-1.4-1.4-1.4-1.4
		c7-2.8,9.9-8.4,2.8-11.2c-1.4-2.8-1.4-2.8-2.8-5.6c0,0-1.4,0-2.8,0c0,0-1.4,0-2.8,0c0-2.8,2.8-4.2,5.6-4.2c1.4-4.2-1.4-5.6-4.2-8.4
		c-2.8,0-4.2,0-7,1.4c0-1.4-1.4-1.4-1.4-2.8c-2.8,1.4-8.4,4.2-11.3,2.8c0-1.4,0-1.4,0-1.4c2.8-1.4,5.6-2.8,8.4-4.2V113
		c-1.4,0-2.8,1.4-2.8,1.4c-1.4-7,5.6-7,9.9-7c2.8,0,2.8,0,4.2,2.8c0,0,0,0,0,1.4c-1.4,0-1.4,0-1.4,0c0,1.4,4.2,1.4,4.2,1.4
		s0,0,0,1.4l0,0c7-2.8,11.3-8.4,18.3-9.8c5.6,4.2,5.6,4.2,7,11.2c-1.4,0-4.2,2.8-5.6,2.8c0-2.8,0-4.2,0-7c-2.8-1.4-2.8,8.4-2.8,9.8
		h-1.4c0,1.4-1.4,1.4-1.4,1.4c0,2.8,2.8,8.4,5.6,9.8c1.4-1.4,1.4-1.4,4.2-1.4c0,5.6-1.4,7,5.6,8.4c0,1.4,0,2.8,0,4.2
		c-4.2,2.8-5.6,1.4-4.2,7c-4.2,7,1.4,8.4,0,15.5c1.4,0,1.4,1.4,2.8,2.8c1.4,0,2.8,0,4.2,0v1.4c4.2,1.4,2.8,5.6,4.2,9.8
		c0,0,1.4,0,1.4-1.4c4.2,2.8,4.2,2.8,5.6,7c0,4.2,0,4.2,0,11.2c0,9.8,7,22.5-7,22.5c-1.4,0-1.4,0-1.4,0c-1.4,0-1.4,0-1.4,0h-1.4
		c0,0,0,0,0-1.4c-1.4,1.4-1.4,1.4-2.8,1.4v-1.4c-1.4,0-1.4,0-1.4,0c0-4.2,4.2-4.2,5.6-7c1.4-4.2,1.4-8.4,2.8-14.1
		c-1.4-4.2-1.4-4.2-1.4-7c-1.4-1.4-1.4-1.4-8.4-2.8c-2.8,0-5.6-4.2-8.4-5.6c-1.4-4.2-2.8-7-2.8-9.8c5.6-12.6,7-21.1,2.8-35.1
		c-1.4-1.4-1.4-2.8-2.8-4.2h-1.4c1.4,4.2,2.8,7,4.2,14.1c0,11.2-1.4,19.7-8.4,28.1c0,1.4,0,1.4-1.4,1.4c-2.8,5.6-7,7-12.7,9.8
		c-1.4,1.4-4.2,2.8-7,2.8l0,0l0,0c-2.8,0-4.2,1.4-7,1.4c-4.2,0-4.2,0-9.9,0c0-1.4,1.4-2.8,2.8-2.8c0,0,0,0,0-1.4v1.4
		c0-1.4,0-1.4,0-1.4c-2.8,0-4.2,0-5.6,0c0-1.4,0-1.4,0-1.4h-1.4c0-2.8,0-4.2,0-7c0,0,0,1.4,1.4,2.8c0-1.4,0-1.4,0-4.2h-1.4l0,0h-1.4
		c-1.4,5.6-1.4,11.2-1.4,16.9c1.4,7,2.8,9.8,0,15.5c0,4.2,0,8.4,0,11.2c2.8,2.8,4.2,5.6,4.2,9.8c0,0,0,0-1.4,1.4h-1.4c0,0,0,0,0,1.4
		h-1.4l0,0c-1.4,1.4-1.4,1.4-2.8,0C253.3,233.8,253.3,233.8,250.4,235.2L250.4,235.2z"/>
	<path class="st1" d="M104.1,233.8c-1.4,0-1.4,0-1.4,0c1.4-1.4,2.8-4.2,4.2-5.6c0,0,0,0,1.4,0C106.9,231,105.5,232.4,104.1,233.8
		L104.1,233.8z"/>
	<path class="st0" d="M264.5,233.8v-1.4c1.4,0,1.4,0,2.8,0c0-1.4,0-2.8,0-4.2c1.4,0,1.4,0,2.8,0c0,0,0,0,0-1.4c1.4,0,2.8,0,2.8,0
		c0,1.4,0,1.4,0,2.8c0,1.4,0,1.4,0,2.8C265.9,233.8,265.9,233.8,264.5,233.8L264.5,233.8z"/>
	<path class="st0" d="M147.7,233.8c1.4-2.8,2.8-2.8,4.2-2.8l0,0c1.4,0,9.9-1.4,11.3-4.2c1.4,0,2.8-2.8,4.2-2.8l0,0
		c1.4,0,1.4,0,2.8-1.4c0,1.4,0,1.4,0,1.4s0,0,1.4,0c0,0,0,0,0,1.4V224c2.8,0,2.8,0,4.2,0l0,0c0,0,0,0,1.4,0c0,0,0,0,0,1.4
		c0,0,1.4,0,1.4-1.4c0,1.4,0,1.4,0,2.8c1.4-1.4,1.4-1.4,2.8-1.4c0,2.8,0,2.8,2.8,5.6l0,0c-2.8,1.4-2.8,1.4-4.2,0
		c-1.4,1.4-4.2,0-4.2,0v1.4c-1.4,0-4.2-1.4-4.2-1.4s0,0,1.4,1.4l0,0c-1.4,0-4.2,0-5.6,0s-2.8,0-4.2,0c2.8,0,2.8,0,2.8,0
		c-1.4-1.4-2.8-1.4-2.8-1.4c-1.4,0-1.4,0-2.8,0l0,0C159,232.4,150.5,232.4,147.7,233.8L147.7,233.8z"/>
	<path class="st1" d="M133.6,232.4V231c0,0,0,1.4-1.4,1.4c0-1.4,0-1.4,0-2.8c-1.4,0-1.4,1.4-2.8,1.4l0,0c-1.4-1.4-1.4-1.4-2.8-1.4
		c1.4-4.2,1.4-4.2,4.2-7c4.2-5.6,1.4-12.6-1.4-18.3c-1.4-4.2-1.4-7-1.4-11.2c-1.4-2.8-4.2-11.2-8.4-12.6c0,1.4,1.4,2.8,1.4,4.2
		c-4.2,0-7-2.8-11.3-2.8c1.4,0,1.4,0,1.4,1.4c-2.8,1.4-5.6-4.2-8.4-2.8c0,4.2,7,4.2,11.3,4.2c0,1.4,0,1.4,0,1.4c2.8,0,2.8,7,2.8,8.4
		c1.4,0,1.4,0,2.8-1.4c0,1.4,0,1.4,0,2.8l0,0c1.4,4.2,1.4,4.2,1.4,5.6c-1.4,7-1.4,11.2,2.8,16.9c0,1.4,0,2.8,0,4.2
		c-1.4,0-4.2,2.8-4.2,4.2c-1.4-1.4-2.8,0-2.8,0s0,0-1.4,0l0,0c-1.4,0-1.4,0-1.4,1.4l0,0c-1.4-1.4-1.4-1.4-1.4-1.4s0,0-1.4,0v-1.4
		c-1.4,1.4-1.4,1.4-1.4,1.4h-1.4c0,0,0,0-1.4,0c-2.8-2.8,4.2-8.4,5.6-9.8c1.4-4.2,1.4-7,0-11.2c-2.8,0-4.2-5.6-4.2-7
		c0-5.6-1.4-9.8-4.2-14.1c-4.2-2.8-4.2-11.2-5.6-16.9c1.4,0,4.2,0,5.6,0c-1.4-1.4-7-4.2-9.9-5.6l0,0c2.8,0,2.8,0,4.2,0
		c0-1.4,1.4-1.4,2.8-2.8c-1.4,0-1.4,0-2.8,1.4c0-1.4,0-1.4,1.4-1.4c-1.4,0-1.4,0-1.4,0c0-2.8,4.2-5.6,5.6-8.4
		c0-7-4.2-14.1-12.7-14.1c-1.4,1.4-2.8,2.8-4.2,2.8c-5.6,0-5.6,0-9.9-1.4c1.4-2.8,1.4-2.8,2.8-5.6l0,0v-1.4c1.4,0,2.8,0,4.2,1.4
		c0,0,0,0,0-1.4c1.4,1.4,1.4,1.4,1.4,1.4c0-1.4,0-1.4,0-2.8c0,0,0,0,1.4,0c0,1.4,0,1.4,0,2.8l0,0c0-1.4,0-1.4,0-1.4
		c7,0,12.7,0,19.7,0c1.4-1.4,2.8-1.4,2.8-2.8c-1.4,0-1.4,0-2.8,0l0,0c1.4-2.8,2.8-1.4,5.6-1.4c0,5.6,1.4,4.2-5.6,7
		c-1.4,2.8,1.4,8.4,4.2,7c2.8-2.8,2.8-2.8,5.6-2.8c0,4.2,0,4.2,1.4,5.6h1.4c0,1.4,1.4,1.4,1.4,2.8c-4.2,4.2-4.2,5.6-5.6,9.8
		c0,1.4,0,1.4,0,2.8c1.4,0,1.4,0,2.8,0c0,1.4,0,1.4,0,1.4c4.2-1.4,4.2,0,7-1.4c0-1.4,0-2.8,1.4-5.6c0-1.4,1.4-1.4,1.4-4.2
		c-1.4,0-1.4,0-1.4,0c0-1.4,0-2.8-1.4-5.6c-1.4,0-2.8,2.8-4.2,2.8c1.4-1.4,1.4-1.4,2.8-2.8c2.8-5.6,7,1.4,11.3-4.2
		c5.6,0,11.3,4.2,15.5-1.4c5.6,2.8-4.2,7-7,8.4c0,0,0,0-4.2,0c-8.4,2.8-9.9,14.1-1.4,19.7l0,0c5.6,1.4,5.6,2.8,11.3,1.4
		c2.8-1.4,4.2-4.2,8.4-4.2c2.8,0,2.8,0,5.6,0c2.8,2.8-1.4,11.2-1.4,14.1c1.4,0,1.4,0,1.4,0c2.8,2.8,5.6,4.2,9.9,4.2
		c2.8,1.4,2.8,1.4,2.8,1.4c-5.6,2.8-11.3,4.2-16.9,5.6v-1.4l0,0v1.4c-1.4,0-1.4,0-2.8,0l0,0c0,0,0,0-2.8,1.4c0-1.4,0-1.4,0-1.4
		s0,0-1.4,0c0,0,0-1.4,1.4-1.4c-1.4,0-1.4,0-1.4,0c0-1.4,1.4-1.4,1.4-1.4c-1.4,0-2.8,0-4.2,0c0,0,0,0,0-1.4c-1.4,0-1.4,0-2.8,1.4
		c0-1.4,0-1.4,0-1.4c-1.4-1.4-4.2-1.4-7-1.4c0-1.4,0-2.8,0-2.8s0,0,1.4,0V179c0,0,0,1.4,1.4,1.4c0,0,0,0,1.4,0
		c-2.8-2.8-2.8-2.8-5.6-4.2v-1.4c-1.4,0-1.4,0-1.4,0H135c4.2,5.6,2.8,14.1,4.2,19.7c1.4,4.2,2.8,8.4,1.4,12.6c0-1.4,0-1.4,0-2.8
		c-1.4,0-1.4,0-1.4,0c0,1.4,0,2.8-1.4,4.2h1.4c-1.4,2.8-1.4,2.8,0,7l0,0c0-4.2,0-4.2,0-4.2c1.4,4.2,1.4,8.4,4.2,12.6
		c0,1.4-1.4,7-4.2,7c0,1.4,0,1.4-1.4,1.4c0-1.4,0-1.4,0-1.4s0,0-1.4,0c0-1.4,0-1.4,0-1.4c-1.4,1.4-1.4,1.4-1.4,2.8
		C135,232.4,135,232.4,133.6,232.4L133.6,232.4z"/>
	<path class="st1" d="M268.7,232.4V231c1.4,0,1.4,1.4,1.4,1.4S270.1,232.4,268.7,232.4L268.7,232.4z"/>
	<path class="st0" d="M333.5,231c1.4-1.4,2.8-8.4,5.6-7c0,0,0,0,0,1.4c1.4,0,4.2,0,5.6,1.4c1.4-1.4,1.4-1.4,1.4-1.4v1.4
		c1.4,0,1.4,0,2.8-1.4l0,0c0,2.8-1.4,2.8-2.8,4.2c-1.4,0-1.4,0-1.4-1.4c-1.4,2.8-5.6,2.8-7,1.4c0,0-1.4,0-1.4-1.4
		C334.9,231,334.9,231,333.5,231L333.5,231z"/>
	<path class="st0" d="M202.6,231c0-2.8,0-2.8,0-4.2c0-1.4,1.4-1.4,2.8-1.4v1.4c1.4-1.4,1.4-1.4,2.8-1.4v1.4c1.4,0,1.4,0,1.4,0l0,0
		c1.4,1.4,1.4,1.4,1.4,1.4h-2.8c-1.4,0-1.4,1.4-2.8,1.4c0,0,0,0,0-1.4C204,229.6,204,229.6,202.6,231L202.6,231z"/>
	<path class="st1" d="M187.1,229.6c1.4-4.2,1.4-4.2,2.8-7c4.2-1.4,4.2-1.4,8.4,0v1.4l0,0C198.4,228.2,191.3,229.6,187.1,229.6
		L187.1,229.6z"/>
	<path class="st0" d="M45,229.6c-1.4-1.4,2.8-1.4,2.8-1.4c1.4,0,1.4,0,1.4,0c1.4,0,1.4,0,2.8,0c0-1.4,0-1.4,0-1.4c1.4,0,2.8,0,4.2,0
		c0,0,0,0,0-1.4c1.4,0,2.8,1.4,4.2,1.4l0,0C54.8,226.8,49.2,228.2,45,229.6L45,229.6z"/>
	<path class="st1" d="M322.2,229.6h-1.4c2.8-8.4,2.8-8.4,2.8-8.4h1.4c1.4,0,1.4,0,2.8,0c0,2.8,1.4,5.6,1.4,7
		C326.4,228.2,323.6,228.2,322.2,229.6L322.2,229.6z"/>
	<path class="st1" d="M282.8,229.6c1.4-4.2,1.4-5.6,4.2-8.4c1.4,1.4,2.8,4.2,2.8,7C288.4,228.2,288.4,228.2,282.8,229.6L282.8,229.6
		z"/>
	<path class="st0" d="M350.4,228.2c0,0-1.4-1.4,0-1.4c0,0,1.4,1.4,1.4,0C351.8,228.2,351.8,228.2,350.4,228.2L350.4,228.2z"/>
	<path class="st0" d="M357.4,228.2c0,0,0,0,0-1.4c0,0,1.4,0,1.4,1.4H357.4L357.4,228.2z"/>
	<path class="st1" d="M184.3,228.2c0-2.8,1.4-5.6,2.8-7c0,2.8,0,4.2-1.4,7C185.7,228.2,185.7,228.2,184.3,228.2L184.3,228.2z"/>
	<path class="st0" d="M353.2,228.2c0-1.4,0-1.4,0-1.4s0,0,1.4,0c0,0,0,0,0,1.4C353.2,228.2,353.2,228.2,353.2,228.2L353.2,228.2z"/>
	<path class="st1" d="M151.9,228.2c0-1.4,0-1.4,0-1.4c2.8-4.2,2.8-4.2,4.2-7c1.4,0,1.4,0,2.8,0c0,1.4,0,2.8,1.4,4.2c0,0,0,0,0-1.4
		c1.4,0,1.4,1.4,1.4,2.8C157.6,226.8,156.1,226.8,151.9,228.2L151.9,228.2z"/>
	<path class="st1" d="M316.6,228.2c0-2.8,0-2.8,1.4-5.6c1.4,0,2.8-1.4,2.8-1.4C320.8,225.4,319.4,226.8,316.6,228.2L316.6,228.2z"/>
	<path class="st1" d="M277.2,226.8c2.8-4.2,2.8-4.2,4.2-5.6c0,1.4,0,1.4,1.4,1.4C282.8,225.4,280,226.8,277.2,226.8L277.2,226.8z"/>
	<path class="st0" d="M61.9,226.8c-2.8-1.4-2.8-1.4-4.2-2.8c1.4-1.4,4.2,1.4,4.2,1.4c0-1.4,0-1.4,0-2.8c1.4,0,2.8,2.8,2.8,4.2
		C63.3,226.8,63.3,226.8,61.9,226.8L61.9,226.8z"/>
	<path class="st0" d="M67.5,226.8c-2.8-1.4-2.8-2.8-2.8-5.6l0,0c1.4,0,1.4,1.4,1.4,2.8c1.4-1.4,1.4-2.8,1.4-4.2c0,0,0,0,1.4,0
		c0,1.4-1.4,4.2,0,7H67.5L67.5,226.8z"/>
	<path class="st1" d="M175.9,226.8c1.4-1.4,1.4-1.4,1.4-1.4C175.9,225.4,175.9,225.4,175.9,226.8L175.9,226.8z"/>
	<path class="st0" d="M78.7,225.4c-1.4,0-1.4,0-1.4,0h-1.4V224c-1.4,0-1.4,1.4-2.8,1.4c0-2.8,1.4-7,4.2-7l-1.4,2.8
		c1.4,0,1.4-1.4,2.8-1.4c0,1.4-1.4,2.8-1.4,4.2c5.6-4.2,5.6-4.2,5.6-4.2l0,0c-1.4,1.4-2.8,2.8-2.8,4.2l0,0c2.8-2.8,5.6-4.2,5.6-4.2
		v1.4c-1.4,1.4-1.4,1.4-2.8,2.8c5.6-4.2,5.6-4.2,7-4.2c-1.4,2.8-2.8,2.8-1.4,4.2c1.4-1.4,1.4-1.4,1.4-1.4c-1.4,1.4-2.8,2.8-4.2,2.8
		c0-1.4,0-1.4,0-2.8c-1.4,1.4-2.8,2.8-4.2,2.8c0,0-1.4,0-1.4-1.4C80.2,225.4,78.7,225.4,78.7,225.4L78.7,225.4z"/>
	<path class="st1" d="M149.1,225.4c1.4-1.4,1.4-1.4,2.8-4.2h1.4C151.9,224,151.9,225.4,149.1,225.4L149.1,225.4z"/>
	<path class="st0" d="M68.9,225.4V224l0,0c0-1.4,0-2.8,1.4-5.6c0,0,0,0,1.4,0C70.3,221.2,70.3,222.6,68.9,225.4L68.9,225.4z"/>
	<path class="st0" d="M71.7,224c0-2.8,0-4.2,2.8-5.6c0,1.4-1.4,4.2-1.4,5.6C71.7,224,71.7,224,71.7,224L71.7,224z"/>
	<path class="st0" d="M91.4,224c0,0,0-1.4-1.4-1.4l1.4-1.4c0,0,0,0,1.4,0c0,1.4,0,1.4,0,2.8H91.4L91.4,224z"/>
	<path class="st0" d="M364.4,221.2c0,0,0-1.4,0-2.8c-1.4,2.8-1.4,2.8-2.8,2.8c0-1.4,0-2.8,1.4-4.2c-2.8,2.8-2.8,2.8-4.2,2.8
		c0-2.8,2.8-5.6,4.2-8.4c0,0,1.4,0,1.4,1.4c-1.4,1.4-2.8,2.8-4.2,4.2c1.4,0,1.4-1.4,2.8,0c0-1.4,1.4-2.8,2.8-4.2
		c0,2.8,0,2.8-1.4,4.2v1.4c1.4-2.8,4.2-4.2,5.6-5.6c0,2.8-1.4,4.2-2.8,5.6l0,0c1.4,0,1.4,0,1.4,0
		C367.3,219.8,365.8,221.2,364.4,221.2L364.4,221.2z"/>
	<path class="st1" d="M189.9,221.2v-1.4c-1.4,0-1.4,0-1.4,0h-1.4c0-2.8,1.4-4.2,1.4-5.6c1.4-1.4,2.8-2.8,4.2-2.8
		c1.4-1.4,1.4-2.8,2.8-5.6c0,0,0-11.2,0-12.6c-5.6-2.8-8.4-5.6-12.7-9.8l0,0c0,5.6,0,5.6,0,5.6s0,0,1.4,0l0,0
		c-1.4,4.2-1.4,4.2-2.8,4.2c0,2.8,2.8,4.2,2.8,7c-2.8,0-2.8-1.4-4.2-4.2c-1.4,0-1.4,0-4.2,1.4c0,1.4,0,4.2,0,7c-1.4,0-1.4,0-1.4,0
		c-2.8-1.4-2.8-5.6-2.8-7c-1.4,0-2.8,0-4.2-1.4c0,2.8-1.4,4.2-2.8,7c0,0,0,0-1.4-1.4c1.4-2.8,1.4-2.8,0-5.6c0,0-1.4,0-2.8-1.4
		c-1.4,2.8-1.4,5.6-4.2,5.6c-1.4-4.2,2.8-4.2-1.4-8.4c2.8,0,2.8,0,9.9-1.4c4.2-1.4,8.4-4.2,12.7-7c5.6,0,5.6-2.8,8.4-8.4
		c4.2-1.4,4.2-1.4,4.2-1.4c-7,0-9.9-1.4-14.1-7c1.4,0,2.8,0,4.2,1.4c0-1.4,0-1.4-1.4-2.8c0-1.4,0-2.8,0-4.2
		c2.8,4.2,5.6,2.8,11.3,4.2c1.4,2.8,0,5.6,0,7c2.8-2.8,1.4-7-1.4-9.8c0,0,0,0-1.4,0c0-4.2,1.4-5.6,2.8-8.4c0,0,0,0,1.4,0
		c0-1.4,0-1.4,0-1.4c5.6,0,8.4,4.2,9.9,9.8c-1.4,7-1.4,14.1-1.4,21.1c0,2.8,1.4,2.8,4.2,5.6c0,1.4-1.4,2.8-1.4,4.2
		c0,2.8-1.4,2.8,0,5.6c0,0,0,0,0-2.8h1.4c-1.4,4.2-1.4,7-1.4,11.2c0,2.8,0,5.6,0,9.8c-1.4,0-1.4,0-1.4,0c0,1.4-1.4,1.4-1.4,1.4
		s0,0-1.4,0c0,1.4,0,1.4,0,2.8c-1.4-1.4-2.8-1.4-4.2-1.4c-1.4,1.4-1.4,1.4-1.4,1.4c0-1.4,0-1.4,0-1.4c-1.4,0-1.4,0-1.4,0
		S189.9,219.8,189.9,221.2L189.9,221.2z"/>
	<path class="st1" d="M285.6,221.2c0-1.4,0-1.4-1.4-1.4l0,0c-1.4-1.4-1.4-2.8-1.4-4.2c4.2-2.8,5.6-5.6,7-9.8c1.4,0,2.8-1.4,4.2-1.4
		c0,4.2-1.4,4.2,1.4,8.4c0-1.4,0-1.4,1.4-1.4c0,2.8,0,4.2,0,7c-4.2,0-5.6,1.4-8.4,1.4C287,219.8,287,219.8,285.6,221.2L285.6,221.2z
		"/>
	<path class="st0" d="M370.1,221.2c0-1.4,0-2.8,0-4.2c1.4-1.4,1.4-1.4,2.8-1.4c0,1.4-1.4,2.8-1.4,4.2c1.4-1.4,1.4-1.4,2.8-1.4
		c0,0,0,0,1.4,1.4c1.4,0,1.4,0,4.2,0c-2.8,0-4.2,1.4-5.6,1.4c0-1.4,0-1.4-1.4-1.4S371.5,219.8,370.1,221.2L370.1,221.2z"/>
	<path class="st0" d="M351.8,221.2c-1.4-1.4-1.4-4.2-1.4-5.6c1.4,0,1.4-1.4,1.4-1.4C351.8,217,351.8,218.4,351.8,221.2L351.8,221.2z
		"/>
	<path class="st0" d="M353.2,219.8c0-1.4,0-2.8,0-5.6h1.4C353.2,219.8,353.2,219.8,353.2,219.8L353.2,219.8z"/>
	<path class="st0" d="M354.6,219.8c0-2.8,0-7,4.2-7c-1.4,1.4-2.8,4.2-2.8,7H354.6L354.6,219.8z"/>
	<path class="st0" d="M357.4,219.8c0-2.8,2.8-5.6,4.2-8.4c0,0,0,0,1.4,0C361.6,212.8,361.6,212.8,357.4,219.8L357.4,219.8
		L357.4,219.8z"/>
	<path class="st0" d="M349,219.8c0,0-2.8-2.8-1.4-4.2c2.8,2.8,2.8,2.8,2.8,4.2H349L349,219.8z"/>
	<path class="st0" d="M213.9,218.4c-1.4,0-2.8,0-4.2,0c0,0,0,0,0-1.4c1.4,0,2.8,0,4.2,0c0,0,0,0,0-1.4c1.4,0,1.4,0,1.4,1.4
		c1.4-1.4,1.4-1.4,1.4-1.4h1.4v-1.4c1.4,0,1.4,0,2.8,1.4c-1.4-1.4-1.4-1.4-1.4-2.8c1.4,0,2.8,1.4,4.2,1.4c-1.4,1.4-1.4,1.4-1.4,4.2
		c-2.8,0-2.8,0-2.8,0l0,0C216.7,218.4,215.3,218.4,213.9,218.4L213.9,218.4z"/>
	<path class="st0" d="M242,218.4c-1.4-1.4-2.8-4.2-2.8-7c1.4,1.4,1.4,1.4,2.8,2.8c0-1.4,0-2.8,0-2.8s0,0,1.4,0
		C243.4,214.2,244.8,217,242,218.4L242,218.4z"/>
	<path class="st1" d="M154.7,218.4V217h-1.4c0-1.4,0-2.8,0-4.2c0,0,0,0,1.4,0l0,0l0,0c0-1.4,4.2-4.2,5.6-4.2c0-1.4,1.4-2.8,2.8-4.2
		c1.4,0,1.4,0,2.8,0c0,0,0,1.4,0,2.8l1.4,1.4c0,2.8,0,2.8,0,7c-2.8,0-2.8,0-4.2,2.8c-1.4,0-1.4,0-2.8-1.4v1.4c-1.4-1.4-2.8,0-4.2,0
		V217L154.7,218.4L154.7,218.4z"/>
	<path class="st0" d="M237.8,218.4c0-1.4-1.4-1.4-2.8-1.4c0-2.8,0-2.8,0-4.2c0,0,0,0,1.4,0c0,1.4,1.4,2.8,1.4,4.2c0-1.4,0-4.2,0-5.6
		c2.8,1.4,1.4,4.2,2.8,7c-1.4,0-1.4,0-1.4-1.4c0,1.4,0,1.4,0,1.4H237.8L237.8,218.4z"/>
	<path class="st0" d="M261.7,218.4c0,0,0-1.4-1.4-1.4l0,0l0,0c-1.4,0-1.4,0-1.4,0c0-1.4,0-2.8,0-4.2c1.4-1.4,1.4-1.4,1.4-1.4
		s0,0,1.4,0c0-1.4,0,0,1.4,0c0,1.4,0,2.8,0,4.2c0-1.4,1.4-4.2,1.4-5.6c0,0,0,0,1.4,0c-1.4,1.4-1.4,2.8-1.4,4.2
		c1.4-1.4,1.4-2.8,2.8-2.8l0,0c0,1.4-1.4,4.2-1.4,7C264.5,218.4,263.1,218.4,261.7,218.4L261.7,218.4z"/>
	<path class="st1" d="M242,218.4c0-1.4,0-1.4,0-2.8C242,217,242,217,242,218.4L242,218.4z"/>
	<path class="st0" d="M244.8,218.4c0-2.8-1.4-4.2-1.4-7c1.4,0,1.4,0,1.4,0c0,1.4,1.4,4.2,1.4,7C246.2,218.4,246.2,218.4,244.8,218.4
		L244.8,218.4z"/>
	<path class="st0" d="M267.3,218.4c0-4.2,0-4.2,1.4-7c1.4,0,1.4,0,1.4,0v1.4c0,0,0-1.4,2.8-1.4c0,1.4-1.4,2.8-2.8,4.2
		c1.4,0,1.4-1.4,2.8-1.4c-1.4,1.4-1.4,1.4-2.8,2.8l0,0c-1.4-1.4-1.4-1.4-1.4-1.4C267.3,217,267.3,217,267.3,218.4L267.3,218.4z"/>
	<path class="st0" d="M275.8,215.6c-1.4-1.4-1.4-2.8,0-2.8v1.4h1.4c0,0,0,0,0,1.4C275.8,215.6,275.8,215.6,275.8,215.6L275.8,215.6z
		"/>
	<path class="st0" d="M57.6,210c0-2.8,0-2.8,0-2.8c-1.4,1.4-1.4,1.4-2.8,1.4c0-2.8,1.4-5.6,4.2-5.6c0,1.4-1.4,2.8-1.4,2.8
		s0,0,4.2-1.4C61.9,205.7,59,208.5,57.6,210L57.6,210z"/>
	<path class="st0" d="M26.7,210c-1.4,0-1.4-1.4-1.4-1.4l0,0c1.4,0,1.4,0,1.4,0C26.7,210,26.7,210,26.7,210L26.7,210z"/>
	<path class="st0" d="M46.4,210c0-2.8,0-2.8,0-2.8s-1.4,0-1.4,1.4c-2.8,0-2.8,0-5.6-1.4c1.4-1.4,1.4-4.2,2.8-5.6c0,0,0,0,1.4,0
		c-1.4,2.8-1.4,2.8-1.4,2.8c1.4-1.4,1.4-1.4,1.4-1.4l0,0c0,0,0,1.4,0,2.8c1.4-1.4,1.4-2.8,2.8-2.8c0,1.4-1.4,2.8,0,4.2
		c2.8-4.2,2.8-4.2,4.2-5.6c0,0,0,0,1.4,0C50.6,202.9,49.2,208.5,46.4,210L46.4,210z"/>
	<path class="st0" d="M28.1,208.5c-1.4-1.4-1.4-1.4-1.4-2.8c0,0,1.4,0,1.4,1.4c0-1.4,0-1.4,0-2.8c1.4,0,2.8,2.8,4.2,4.2
		c-1.4,0-1.4,0-4.2-1.4c1.4,0,1.4,1.4,1.4,1.4S29.5,208.5,28.1,208.5L28.1,208.5z"/>
	<path class="st0" d="M32.3,208.5c-1.4-1.4-1.4-2.8-1.4-5.6c1.4,0,1.4,1.4,2.8,1.4v1.4c1.4,0,1.4,0,1.4,0l0,0c0-1.4,1.4-1.4,1.4-2.8
		l0,0c0,1.4,1.4,2.8,1.4,4.2c0-1.4,0-5.6,1.4-5.6c0,4.2,0,4.2,0,7c-1.4,0-2.8,0-4.2-1.4c0,0-1.4,0-1.4,1.4c0,0,0,0,0-1.4
		c0,1.4,0,1.4,0,1.4S33.7,208.5,32.3,208.5L32.3,208.5z"/>
	<path class="st0" d="M50.6,208.5c0-2.8,0-2.8,2.8-5.6c0,1.4,0,2.8-1.4,4.2c1.4-1.4,1.4-1.4,1.4,0C50.6,208.5,50.6,208.5,50.6,208.5
		L50.6,208.5z"/>
	<path class="st0" d="M61.9,208.5c0-1.4,0-1.4,0-1.4c0-1.4,0-1.4,1.4-2.8c0,1.4,1.4,1.4,1.4,2.8c1.4-1.4,2.8,0,4.2,0
		c-1.4,0-1.4,0-1.4,1.4C66.1,208.5,64.7,208.5,61.9,208.5L61.9,208.5z"/>
	<path class="st0" d="M73.1,208.5c-1.4-1.4-2.8-1.4-4.2-1.4v-1.4c1.4,1.4,4.2,1.4,7,0v1.4C74.5,207.1,74.5,207.1,73.1,208.5
		L73.1,208.5z"/>
	<path class="st1" d="M291.3,204.3c0-2.8,0-5.6,0-9.8c-1.4,0-2.8,0-4.2-1.4c0,1.4,0,1.4-2.8,5.6c-1.4,0-1.4,0-2.8,0
		c0-2.8,2.8-2.8,2.8-5.6c0-1.4,0-1.4-1.4-2.8c1.4-1.4,12.7-5.6,14.1-8.4c1.4,0,2.8-1.4,4.2-2.8c0,1.4,0,1.4,0,1.4h1.4
		c0,1.4,0,1.4,1.4,1.4c0,0,0,1.4,0,2.8c1.4,0,1.4-1.4,1.4-1.4c1.4,1.4,1.4,0,2.8,0c0,0,0,1.4,0,2.8c0,0,1.4,0,1.4-1.4
		c1.4,2.8,2.8,4.2,4.2,4.2c0,1.4-1.4,2.8-1.4,2.8c0,2.8,1.4,4.2,1.4,7c0,0-1.4,1.4-2.8,1.4c-1.4-4.2-2.8-7-7-4.2c0,2.8,0,5.6,0,7
		c-2.8,0-2.8-2.8-4.2-5.6c-1.4,0-2.8,0-4.2,0C294.1,198.7,294.1,201.5,291.3,204.3L291.3,204.3z"/>
	<path class="st2" d="M118.2,197.3c0,0,0,0,0-1.4h-1.4C118.2,194.5,118.2,195.9,118.2,197.3L118.2,197.3L118.2,197.3z"/>
	<path class="st1" d="M364.4,195.9c0-2.8,0-5.6-1.4-8.4c0-1.4,0-11.2-2.8-9.8c0,0,0,0-1.4,1.4c0-1.4,0-1.4-1.4-1.4
		c1.4,2.8,2.8,4.2,4.2,7c-4.2-2.8-8.4-5.6-12.7-7c0,1.4,1.4,1.4,2.8,2.8c-4.2-1.4-4.2-5.6-5.6-9.8c-9.9-11.2-5.6-25.3-5.6-39.3
		c0-1.4-2.8-9.8-5.6-9.8c0-1.4-1.4-2.8-2.8-4.2c0,1.4,0,1.4-1.4,1.4v-1.4c0,0,0,0-1.4,0c0,0,0,0,0-1.4c0,0,0,0-1.4,0c0,0,0,0,0-1.4
		c-1.4,1.4-1.4,1.4-1.4,2.8c0-1.4,0-2.8,0-2.8c-1.4,0-1.4,0-1.4,1.4c0-1.4,0-1.4-1.4-1.4l0,0c-1.4-1.4-2.8-1.4-4.2-1.4
		c0,1.4,0,1.4,0,2.8c-1.4-1.4-1.4-1.4-1.4-4.2c15.5,0,22.5,8.4,26.7,22.5c0,8.4-2.8,16.9-1.4,26.7c1.4,4.2,2.8,5.6,7,8.4
		c8.4-1.4,15.5,1.4,16.9,9.8h-1.4h-1.4c0,2.8,2.8,4.2,2.8,7l0,0c-1.4-1.4-1.4-2.8-2.8-4.2c0,1.4,0,2.8,1.4,5.6
		C365.8,188.9,367.3,194.5,364.4,195.9L364.4,195.9z"/>
	<path class="st0" d="M21,194.5c-1.4,0-1.4,0-2.8,0c-1.4-1.4-1.4-1.4-1.4-2.8c0,0,0,0,1.4,0c1.4,2.8,0,0,0-1.4
		C19.6,190.3,21,193.1,21,194.5c0-1.4,0-4.2,0-5.6c1.4,1.4,1.4,1.4,1.4,2.8c1.4-1.4,1.4-1.4,1.4-1.4c1.4,1.4,1.4,1.4,1.4,2.8
		c1.4-2.8,1.4-2.8,2.8-4.2c-1.4,2.8-1.4,2.8-1.4,4.2c0,0,2.8-2.8,4.2-2.8c0,1.4,0,1.4,0,1.4l0,0c0,1.4-1.4,2.8-1.4,2.8
		c-1.4,0-1.4-1.4-1.4-1.4c-1.4,1.4-1.4,1.4-1.4,1.4c-2.8,0-2.8,0-2.8,0s0,0,0-1.4c-1.4,1.4-1.4,1.4-1.4,1.4S22.5,194.5,21,194.5
		L21,194.5z"/>
	<path class="st0" d="M16.8,194.5c-1.4-1.4-2.8-1.4-4.2-1.4H14v-1.4C15.4,191.7,16.8,193.1,16.8,194.5L16.8,194.5L16.8,194.5z"/>
	<path class="st0" d="M37.9,193.1h1.4c0,0,0,0,1.4,0C39.3,193.1,39.3,193.1,37.9,193.1L37.9,193.1z"/>
	<path class="st0" d="M32.3,193.1c0,0,0-1.4,0-2.8c1.4,0,1.4,0,1.4,0v1.4c0,0,0,0,0,1.4c1.4-1.4,1.4-1.4,1.4-1.4
		c1.4,1.4,1.4,1.4,1.4,1.4C35.1,193.1,33.7,193.1,32.3,193.1L32.3,193.1z"/>
	<path class="st1" d="M361.6,188.9c-1.4-1.4-1.4-2.8-2.8-4.2c0,0,0,0,1.4,0C360.2,186.1,360.2,186.1,361.6,188.9L361.6,188.9z"/>
	<path class="st0" d="M306.7,186.1c0-1.4,0-1.4,1.4-2.8C306.7,186.1,306.7,186.1,306.7,186.1L306.7,186.1z"/>
	<path class="st1" d="M357.4,186.1c-1.4-1.4-2.8-2.8-2.8-2.8c0-1.4,0-1.4,2.8,1.4C357.4,184.7,357.4,184.7,357.4,186.1L357.4,186.1z
		"/>
	<path class="st0" d="M258.9,183.3c1.4-1.4,1.4-2.8,4.2-2.8C261.7,181.9,260.3,183.3,258.9,183.3L258.9,183.3z"/>
	<path class="st0" d="M261.7,183.3c1.4-1.4,2.8-2.8,4.2-2.8c0,0,0,0,0,1.4c1.4-1.4,1.4-1.4,2.8-2.8c0,1.4,0,1.4,0,1.4
		c-1.4,1.4-2.8,1.4-2.8,2.8c0-1.4,0-1.4,0-1.4C264.5,181.9,263.1,183.3,261.7,183.3L261.7,183.3z"/>
	<path class="st0" d="M267.3,183.3v-1.4c2.8-1.4,2.8-1.4,2.8-1.4C270.1,181.9,268.7,181.9,267.3,183.3L267.3,183.3z"/>
	<path class="st0" d="M270.1,183.3c0-1.4,2.8-2.8,4.2-4.2C274.4,181.9,271.6,181.9,270.1,183.3L270.1,183.3z"/>
	<path class="st0" d="M274.4,183.3c0-2.8,1.4-2.8,2.8-2.8C275.8,181.9,275.8,183.3,274.4,183.3L274.4,183.3z"/>
	<path class="st0" d="M277.2,183.3c0-1.4,1.4-4.2,2.8-4.2C280,181.9,278.6,181.9,277.2,183.3L277.2,183.3z"/>
	<path class="st1" d="M64.7,183.3c-2.8-4.2-4.2-8.4-4.2-12.6l0,0c0,1.4,1.4,2.8,1.4,4.2c0-1.4,0-4.2,0-5.6c-1.4,0-1.4-1.4-2.8-1.4
		c0-4.2-2.8-7-5.6-9.8l0,0c0-2.8-1.4-1.4-4.2-4.2c0,1.4,0,1.4-1.4,1.4c-1.4-1.4-1.4-1.4-2.8,0c0-1.4,0-1.4,0-1.4c-1.4,0-1.4,0-1.4,0
		c-1.4-2.8-2.8-4.2-2.8-5.6c-2.8-1.4-1.4-5.6-1.4-7c1.4,0,1.4,0,2.8,0c0,0,0,1.4,0,2.8c1.4-2.8,2.8-4.2,1.4-8.4h-1.4
		c-5.6,9.8-16.9,7-21.1-2.8c-1.4-1.4-1.4-4.2-1.4-7c8.4,1.4,14.1,7,22.5,2.8v-1.4h-1.4c5.6-4.2,7-7,0-11.2l0,0c0,0,0,0,1.4,0
		c0-1.4,0-2.8,0-4.2c1.4,0,1.4,0,1.4,0c1.4-1.4,1.4-2.8,2.8-4.2c0,1.4,0,1.4,1.4,1.4c2.8-2.8,9.9-4.2,12.7-4.2v1.4
		c2.8,0,4.2,0,5.6,0c0,1.4,0,1.4,0,2.8h1.4c0,1.4,0,1.4,0,1.4l1.4,1.4c0,1.4-1.4,0-2.8,0c0,0,0,0,0,1.4c0,0,0,0,1.4,2.8
		c-1.4-1.4-4.2-2.8-7-2.8l0,0c4.2,1.4,4.2,1.4,2.8,5.6c0-1.4-1.4-2.8-2.8-2.8c-1.4,0-1.4,1.4-1.4,1.4c-1.4,0-1.4-1.4-4.2-1.4
		c0,1.4,1.4,2.8,2.8,4.2c-1.4,0-1.4,0-1.4,0c-1.4-1.4-1.4-1.4-4.2-1.4c0,0,1.4,1.4,1.4,2.8C52,120,52,120,49.2,120c0,0,0,1.4,0,2.8
		c0-1.4-1.4-2.8-2.8-1.4l0,0c1.4,1.4,2.8,1.4,1.4,2.8c1.4,0,1.4,0,1.4,0c1.4,0,1.4-1.4,1.4-2.8c0,0,1.4,0,1.4,1.4c0,0,0,0,0,1.4
		c-1.4,0-1.4,1.4-1.4,1.4s0,0,0,1.4c2.8-2.8,2.8-2.8,5.6-2.8c0,0-1.4-1.4-1.4-2.8l0,0c1.4,0,1.4,0,1.4,0s0,0,1.4,0c0,0,0-1.4,0-2.8
		C59,120,59,120,59,121.4c1.4-1.4,1.4-1.4,2.8-2.8l0,0c1.4,1.4,1.4,2.8,1.4,4.2c1.4-1.4,2.8-2.8,4.2-2.8v-1.4
		c4.2,1.4,8.4,8.4,9.9,12.6c0,2.8,0,4.2,0,7c-1.4-1.4-2.8-1.4-4.2-1.4c0-1.4,1.4-1.4,1.4-1.4c0-5.6,0-14.1-7-14.1
		c-1.4,1.4-1.4,1.4-2.8,2.8c0,5.6,2.8,9.8,7,12.6c2.8,4.2,11.3,4.2,14.1,5.6c0,0,0,0,0,1.4c5.6-4.2,8.4-7,14.1-2.8
		c4.2,9.8,1.4,16.9-9.9,16.9c-5.6,1.4-8.4,7-14.1,9.8c-8.4,2.8-14.1-1.4-18.3-8.4c0-4.2,0-7,4.2-9.8c0,1.4,0,1.4,0,1.4v-1.4
		c0-1.4-1.4-1.4-2.8-1.4c0,1.4-1.4,2.8-2.8,4.2c-2.8,8.4,4.2,12.6,11.3,18.3c1.4,5.6,2.8,8.4,8.4,9.8c9.9-2.8,0-8.4,4.2-12.6
		c0,4.2,2.8,7,2.8,11.2c-5.6,4.2-9.9,4.2-14.1,0c0,1.4,0,1.4,0,2.8C68.9,181.9,68.9,181.9,64.7,183.3L64.7,183.3z"/>
	<path class="st0" d="M280,181.9c1.4,0,1.4,0,2.8-2.8l0,0C282.8,180.4,281.4,181.9,280,181.9L280,181.9z"/>
	<path class="st0" d="M282.8,181.9c1.4-1.4,2.8-2.8,4.2-4.2v1.4C285.6,180.4,284.2,180.4,282.8,181.9L282.8,181.9z"/>
	<path class="st0" d="M147.7,181.9c0-1.4,0-2.8,0-2.8h1.4C149.1,179,147.7,180.4,147.7,181.9L147.7,181.9L147.7,181.9z"/>
	<path class="st0" d="M149.1,181.9c1.4-1.4,1.4-1.4,1.4-2.8c0,0,0,0,1.4,0C151.9,180.4,150.5,181.9,149.1,181.9L149.1,181.9z"/>
	<path class="st0" d="M151.9,181.9c1.4-1.4,1.4-2.8,1.4-2.8s0,0,1.4-1.4c-1.4,1.4-1.4,2.8-1.4,4.2
		C153.3,181.9,153.3,181.9,151.9,181.9L151.9,181.9z"/>
	<path class="st0" d="M144.9,181.9c0-1.4,0-1.4,1.4-2.8l0,0C146.3,180.4,146.3,180.4,144.9,181.9L144.9,181.9z"/>
	<path class="st0" d="M154.7,181.9c0-1.4,0-2.8,0-4.2c1.4,0,1.4,0,1.4,0c0,1.4,0,2.8,0,4.2C154.7,181.9,154.7,181.9,154.7,181.9
		L154.7,181.9z"/>
	<path class="st0" d="M143.5,180.4V179h1.4c0,0,0,0,0,1.4H143.5L143.5,180.4z"/>
	<path class="st0" d="M157.6,180.4c0,0,0-1.4,0-2.8h1.4C159,179,157.6,180.4,157.6,180.4L157.6,180.4L157.6,180.4z"/>
	<path class="st1" d="M177.3,180.4c0-1.4,0-4.2,0-4.2c-4.2,4.2-8.4,4.2-12.7,0c0-4.2,1.4-7,1.4-11.2c0,4.2,0,5.6,0,8.4
		c1.4,2.8,2.8,2.8,7,2.8c1.4-1.4,2.8-4.2,4.2-4.2c1.4,1.4,2.8,1.4,5.6,2.8c0,4.2-2.8,2.8-4.2,5.6H177.3L177.3,180.4z"/>
	<path class="st0" d="M287,180.4c1.4-1.4,2.8-4.2,4.2-4.2C291.3,177.6,289.8,180.4,287,180.4L287,180.4z"/>
	<path class="st0" d="M159,179v-1.4c1.4,0,1.4,0,1.4,0v1.4C160.4,179,160.4,179,159,179L159,179z"/>
	<path class="st1" d="M75.9,179c0,0-1.4,0-1.4-1.4c1.4,0,4.2,0,5.6-1.4C78.7,179,77.3,179,75.9,179L75.9,179z"/>
	<path class="st0" d="M291.3,179c0-2.8,1.4-4.2,2.8-5.6C294.1,176.2,292.7,177.6,291.3,179L291.3,179z"/>
	<path class="st0" d="M294.1,176.2c1.4-1.4,1.4-2.8,2.8-4.2C296.9,173.4,295.5,174.8,294.1,176.2L294.1,176.2z"/>
	<path class="st1" d="M74.5,176.2c-2.8,0-5.6-2.8-4.2-4.2c0,0,0,0,1.4,0c0,1.4,0,1.4,0,2.8c1.4,0,1.4,0,1.4,0c0-1.4,0-1.4,0-2.8
		C74.5,172,74.5,174.8,74.5,176.2L74.5,176.2L74.5,176.2z"/>
	<path class="st1" d="M173,173.4c0,0,0,0,0-1.4c0,0,1.4,0,2.8-1.4C175.9,172,174.4,173.4,173,173.4L173,173.4z"/>
	<path class="st0" d="M296.9,173.4c1.4-1.4,1.4-2.8,1.4-5.6c1.4,0,1.4,0,1.4,0C299.7,170.6,298.3,172,296.9,173.4L296.9,173.4z"/>
	<path class="st0" d="M299.7,170.6c1.4-2.8,1.4-4.2,2.8-7l0,0C302.5,166.4,302.5,169.2,299.7,170.6L299.7,170.6z"/>
	<path class="st1" d="M144.9,166.4c-7-1.4-9.9-2.8-11.3-9.8c1.4-11.2,5.6-5.6,12.7-8.4c8.4-5.6,7-5.6,16.9-2.8
		c1.4,0,1.4,1.4,2.8,1.4l0,0c-1.4-2.8-2.8-4.2-4.2-4.2c0-2.8,2.8-5.6,2.8-7c-1.4,0-1.4,0-1.4,1.4c0-7-1.4-8.4-4.2-12.6
		c0-1.4,0-1.4,0-2.8c2.8,1.4,2.8,1.4,2.8,1.4c0-1.4,0-1.4,0-2.8c1.4,0,2.8,1.4,4.2,1.4c0-1.4,0-1.4,0-2.8c1.4,0,2.8,0,2.8,0
		s0,0,1.4-1.4c1.4,0,5.6,5.6,7,7c0,1.4,0,1.4,0,2.8c0-1.4,0-2.8,0-5.6c-1.4-1.4-2.8-2.8-2.8-5.6c2.8,1.4,5.6,0,8.4,0
		c0,1.4-1.4,1.4-1.4,2.8c1.4,0,1.4,0,1.4,1.4c5.6-4.2,8.4-7,11.3-12.6c1.4,0,1.4,0,1.4-1.4c1.4,0,1.4,0,2.8,0
		c1.4,7,4.2,14.1-4.2,19.7c-2.8,0-8.4,0-9.9-1.4c-1.4,0-1.4,0-1.4,0c0,1.4,0,1.4,0,2.8c0,0,1.4,0,2.8,0v1.4h-1.4v1.4
		c1.4,1.4,1.4,1.4,4.2,1.4c-1.4,1.4-1.4,1.4-1.4,1.4c1.4,0,1.4,0,1.4,0c0,2.8,4.2,7,5.6,8.4c0-5.6,0-5.6-1.4-7c0,0-1.4,0-1.4-1.4
		c2.8,0,7,2.8,5.6,7c0,0,0,0,0,4.2c-1.4,1.4-1.4,1.4-1.4,2.8c-2.8,1.4-7,4.2-9.9,7c0,2.8,0,8.4-2.8,8.4c-2.8-2.8-1.4-4.2,0-5.6
		c4.2-7,2.8-8.4-2.8-14.1c0-2.8,0-2.8,0-2.8c-2.8,0-2.8,2.8-2.8,4.2l0,0c0,0,0,0,0-1.4c5.6,0,5.6,9.8,5.6,12.6
		c-2.8,2.8-4.2,4.2-7,5.6c-9.9,0-18.3-2.8-25.3,4.2C147.7,166.4,147.7,166.4,144.9,166.4L144.9,166.4z"/>
	<path class="st0" d="M302.5,166.4c1.4-1.4,1.4-2.8,1.4-4.2c0,0,0,0,1.4,0C303.9,163.6,303.9,165,302.5,166.4L302.5,166.4z"/>
	<path class="st0" d="M257.5,165c-1.4,0-2.8-2.8-2.8-4.2c-7,0-2.8-4.2-1.4-7c0-1.4,0-1.4,1.4-2.8c5.6,1.4,5.6-1.4,9.9,4.2
		c0,1.4,1.4,2.8,1.4,5.6C260.3,163.6,260.3,163.6,257.5,165L257.5,165z"/>
	<path class="st0" d="M102.7,163.6c0-1.4,0-1.4,0-1.4c0-1.4,1.4-1.4,1.4-1.4s0,0,0,1.4C104.1,162.2,102.7,162.2,102.7,163.6
		L102.7,163.6z"/>
	<path class="st0" d="M99.9,162.2c0-1.4,1.4-1.4,2.8-2.8C102.7,160.8,101.3,162.2,99.9,162.2L99.9,162.2z"/>
	<path class="st2" d="M305.3,162.2c0-1.4,0-1.4,0-2.8C305.3,159.4,305.3,160.8,305.3,162.2L305.3,162.2L305.3,162.2z"/>
	<path class="st2" d="M216.7,159.4c0-1.4,0-1.4,0-1.4S216.7,158,216.7,159.4L216.7,159.4z"/>
	<path class="st0" d="M142.1,159.4c-1.4-1.4-2.8-2.8-2.8-4.2c-1.4,0-1.4,0-1.4,0c1.4-4.2,7,0,4.2,2.8
		C142.1,158,142.1,158,142.1,159.4L142.1,159.4z"/>
	<polygon class="st2" points="215.3,158 215.3,156.6 215.3,158 	"/>
	<path class="st0" d="M212.4,158c0-2.8,0-2.8,1.4-2.8c0,1.4,0,1.4,0,2.8C212.4,158,212.4,158,212.4,158L212.4,158z"/>
	<path class="st0" d="M209.6,156.6c0,0,0,0,1.4-1.4l0,0v1.4C211,156.6,211,156.6,209.6,156.6L209.6,156.6z"/>
	<path class="st0" d="M77.3,156.6c-1.4-1.4-1.4-2.8-2.8-2.8c-1.4,0-1.4,0-1.4,1.4c0-2.8,0-2.8,1.4-4.2c0,0,1.4,0,2.8,1.4
		c0,1.4,0,1.4,1.4,4.2C78.7,156.6,78.7,156.6,77.3,156.6L77.3,156.6z"/>
	<path class="st0" d="M208.2,156.6c0-1.4,0-2.8,1.4-2.8l0,0C209.6,155.2,209.6,155.2,208.2,156.6L208.2,156.6z"/>
	<path class="st0" d="M154.7,155.2c-1.4-2.8,0-5.6,1.4-7c0-1.4,1.4-1.4,1.4-1.4c1.4,1.4,1.4,2.8,1.4,4.2c-1.4,0-1.4,0-1.4,0
		c-1.4,1.4-1.4,2.8-1.4,4.2C156.1,155.2,156.1,155.2,154.7,155.2L154.7,155.2z"/>
	<path class="st1" d="M204,153.8c0-1.4,0-1.4,0-1.4C204,153.8,204,153.8,204,153.8L204,153.8z"/>
	<path class="st0" d="M46.4,150.9c0,0-1.4-5.6,0-5.6c0,1.4,1.4,4.2,1.4,5.6C46.4,150.9,46.4,150.9,46.4,150.9L46.4,150.9z"/>
	<path class="st0" d="M49.2,150.9c0,0-1.4-1.4,0-2.8l0,0C49.2,149.5,49.2,149.5,49.2,150.9L49.2,150.9z"/>
	<path class="st0" d="M67.5,150.9c1.4-7,5.6-8.4,11.3-4.2l0,0c-2.8,0-5.6-1.4-8.4,0C68.9,149.5,68.9,149.5,67.5,150.9L67.5,150.9z"
		/>
	<path class="st0" d="M115.3,149.5c-7-5.6,4.2-9.8,2.8-1.4C116.7,149.5,116.7,149.5,115.3,149.5L115.3,149.5z"/>
	<path class="st0" d="M92.8,149.5c-1.4-1.4-1.4-2.8-1.4-4.2c1.4-1.4,1.4-1.4,2.8-1.4v1.4c0,1.4,0,2.8,0,4.2H92.8L92.8,149.5z"/>
	<path class="st0" d="M45,148.1c-1.4-1.4-1.4-2.8,0-4.2l0,0C45,145.3,45,146.7,45,148.1L45,148.1z"/>
	<path class="st0" d="M370.1,148.1c-1.4,0-1.4,0-1.4-1.4c0,0,0,0,1.4,0V148.1L370.1,148.1L370.1,148.1z"/>
	<path class="st0" d="M372.9,148.1c0,0,0-1.4,0-2.8h1.4c0,1.4,0,2.8,0,2.8S374.3,148.1,372.9,148.1L372.9,148.1z"/>
	<path class="st0" d="M374.3,148.1c1.4,0,1.4-1.4,1.4-2.8C375.7,146.7,375.7,146.7,374.3,148.1L374.3,148.1z"/>
	<path class="st0" d="M377.1,148.1c0,0,0-1.4,0-2.8l0,0C377.1,146.7,377.1,146.7,377.1,148.1L377.1,148.1z"/>
	<path class="st0" d="M378.5,148.1c0-1.4,0-2.8,1.4-4.2c0,2.8,0,2.8,0,4.2C378.5,148.1,378.5,148.1,378.5,148.1L378.5,148.1z"/>
	<path class="st0" d="M379.9,148.1c0-1.4,0-1.4,1.4-2.8c0,1.4,0,1.4,0,1.4c1.4,1.4,1.4,1.4,2.8,1.4l0,0
		C382.7,148.1,381.3,148.1,379.9,148.1L379.9,148.1z"/>
	<path class="st0" d="M371.5,148.1c-1.4-1.4-1.4-1.4,0-2.8l0,0C371.5,146.7,371.5,148.1,371.5,148.1L371.5,148.1L371.5,148.1z"/>
	<path class="st0" d="M42.2,146.7c0-2.8,1.4-4.2,2.8-5.6C45,142.5,43.6,146.7,42.2,146.7L42.2,146.7z"/>
	<path class="st0" d="M191.3,145.3c-1.4-1.4-1.4-1.4-1.4-2.8C191.3,142.5,191.3,143.9,191.3,145.3L191.3,145.3z"/>
	<path class="st0" d="M57.6,143.9c0-1.4,0-1.4,0-2.8c-5.6-1.4-9.9-8.4-5.6-14.1c1.4,0,1.4-1.4,2.8-1.4c0,0,0,0,2.8,1.4
		c1.4,0,2.8,1.4,4.2,2.8c0,4.2,1.4,7,1.4,11.2C61.9,141.1,60.4,141.1,57.6,143.9L57.6,143.9z"/>
	<path class="st0" d="M191.3,143.9c0-1.4,0-2.8-1.4-2.8c1.4,0,1.4,0,2.8,0c0,0,0,1.4,0,2.8C192.7,143.9,192.7,143.9,191.3,143.9
		L191.3,143.9z"/>
	<path class="st1" d="M59,141.1c-1.4-1.4-2.8-1.4-2.8-1.4v-1.4c2.8-1.4,2.8-4.2,0-7c0,0,0,0,0-1.4c1.4,0,1.4,0,2.8,0
		c1.4,2.8,2.8,5.6,2.8,9.8C60.4,139.7,59,139.7,59,141.1L59,141.1z"/>
	<path class="st1" d="M154.7,141.1c-1.4,0-1.4,0-1.4,0c0-7,0-7,0-15.5c0,0,0,0,1.4,0c-1.4,5.6,0,9.8,1.4,14.1
		C156.1,139.7,156.1,139.7,154.7,141.1L154.7,141.1z"/>
	<path class="st0" d="M66.1,139.7v-1.4h1.4C66.1,139.7,66.1,139.7,66.1,139.7L66.1,139.7z"/>
	<path class="st1" d="M142.1,138.3c-7-2.8-8.4-5.6-9.9-14.1c2.8,0,4.2,2.8,8.4,2.8c1.4,1.4,7,1.4,8.4,1.4v1.4c-4.2,1.4-7,0-11.3-1.4
		c-1.4,0-1.4,0-1.4,0v1.4c0,0,0,0,1.4,0c2.8,5.6,5.6,5.6,11.3,5.6v1.4C146.3,138.3,144.9,138.3,142.1,138.3L142.1,138.3z"/>
	<path class="st1" d="M157.6,138.3c-1.4-1.4-1.4-1.4-2.8-4.2c2.8,0,2.8,1.4,5.6,1.4C160.4,138.3,159,138.3,157.6,138.3L157.6,138.3z
		"/>
	<path class="st0" d="M33.7,136.9c0,0-2.8,0-4.2-1.4v-1.4c-1.4,0-1.4,0-1.4,0c-1.4-1.4-1.4-1.4-1.4-2.8c0,0-1.4,0-2.8,0v-1.4
		c1.4,0,2.8,0,4.2,0c4.2,4.2,7,4.2,12.7,2.8v1.4C39.3,135.5,36.5,136.9,33.7,136.9L33.7,136.9z"/>
	<path class="st0" d="M168.8,136.9c0-1.4,0-1.4,0-1.4c-5.6-4.2-7-11.2,0-15.5c7,2.8,7,7,7,14.1c0,0,0,0,0,1.4
		C174.4,135.5,171.6,135.5,168.8,136.9L168.8,136.9z"/>
	<path class="st1" d="M70.3,134.1L70.3,134.1L70.3,134.1v-1.4c0,0,0-1.4,1.4-1.4c0-1.4-1.4-2.8-1.4-5.6l1.4,1.4
		c1.4,1.4,1.4,4.2,1.4,7C71.7,134.1,71.7,134.1,70.3,134.1L70.3,134.1z"/>
	<path class="st1" d="M56.2,134.1c-1.4,0-1.4-1.4-1.4-1.4C56.2,132.7,56.2,132.7,56.2,134.1L56.2,134.1L56.2,134.1z"/>
	<path class="st1" d="M170.2,134.1c-2.8-1.4-4.2-4.2-4.2-8.4h1.4c0,2.8,2.8,7,7,5.6l-1.4,1.4C173,132.7,171.6,134.1,170.2,134.1
		L170.2,134.1z"/>
	<path class="st2" d="M90,132.7c0,0,0,0,0-1.4C90,132.7,90,132.7,90,132.7L90,132.7L90,132.7z"/>
	<path class="st0" d="M92.8,132.7h-1.4l1.4-1.4C92.8,132.7,92.8,132.7,92.8,132.7L92.8,132.7L92.8,132.7z"/>
	<path class="st0" d="M94.2,132.7c0,0,0,0,0-1.4c1.4,1.4,1.4,1.4,1.4,1.4S95.6,132.7,94.2,132.7L94.2,132.7z"/>
	<path class="st1" d="M52,132.7c0-2.8,0-2.8,1.4-4.2c1.4,0,1.4,0,2.8,0C56.2,128.5,56.2,128.5,52,132.7L52,132.7z"/>
	<path class="st1" d="M154.7,128.5c0,0,1.4-1.4,1.4-2.8c0,0,0,0,1.4,0c0,0,0,0,0,1.4C156.1,127.1,156.1,128.5,154.7,128.5
		L154.7,128.5z"/>
	<polygon class="st1" points="68.9,128.5 68.9,127.1 68.9,127.1 68.9,128.5 68.9,128.5 	"/>
	<path class="st1" d="M36.5,125.7c0,0,0,0,0-1.4c2.8,0,2.8,0,2.8,0v-1.4c-1.4,1.4-7,0-9.9-1.4c-5.6-4.2-4.2-11.2,0-16.9
		c0,7-1.4,9.8,5.6,14.1c4.2,0,8.4-1.4,8.4,4.2C42.2,124.2,40.7,125.7,36.5,125.7L36.5,125.7z"/>
	<path class="st1" d="M66.1,125.7v-1.4l1.4-1.4c1.4,0,2.8,1.4,2.8,2.8C68.9,125.7,68.9,125.7,66.1,125.7L66.1,125.7z"/>
	<path class="st1" d="M142.1,125.7c-1.4,0-1.4-1.4-1.4-1.4c1.4,0,1.4,1.4,2.8,1.4H142.1L142.1,125.7z"/>
	<path class="st1" d="M77.3,125.7v-1.4c0,0,0,0,0-1.4c2.8,0,4.2-7,4.2-9.8l0,0c-2.8,4.2-5.6,5.6-9.9,7c-1.4-1.4-1.4-1.4-1.4-2.8
		c4.2,0,4.2,0,5.6-1.4c1.4-2.8,4.2-5.6,7-8.4c0,0,0,0,1.4,0c0,0,0,1.4,0,2.8l0,0c1.4,4.2,1.4,8.4,0,11.2c-1.4,1.4-1.4,1.4-2.8,2.8
		C78.7,124.2,78.7,124.2,77.3,125.7L77.3,125.7z"/>
	<path class="st1" d="M209.6,124.2v-1.4c4.2-2.8,5.6-8.4,5.6-14.1c-1.4-4.2-4.2-8.4-2.8-12.6c7-8.4,12.7-7,21.1-2.8
		c4.2,1.4,11.3-2.8,14.1,1.4c-2.8,0-2.8,0-4.2,0c2.8,1.4,5.6,2.8,5.6,7c-1.4-1.4-2.8-1.4-4.2-1.4c0,1.4,1.4,1.4,2.8,2.8l0,0
		c-1.4,0-2.8,0-4.2-1.4c0,1.4,1.4,2.8,1.4,2.8c-2.8,0-4.2-2.8-5.6-2.8c0,1.4,0,1.4,0,1.4c0,1.4,0,1.4,1.4,1.4c-1.4,0-1.4,0-1.4,0
		c-4.2,0-5.6-4.2-7-8.4c-5.6-7-16.9-2.8-16.9,5.6c1.4,2.8,2.8,4.2,4.2,7c0,2.8,0,9.8-2.8,9.8c-1.4,1.4-2.8,1.4-4.2,4.2
		c0,0,0,0,0,1.4C212.4,124.2,211,124.2,209.6,124.2L209.6,124.2z"/>
	<path class="st1" d="M167.4,124.2c0-1.4,0-1.4,0-2.8c1.4,0,1.4,0,2.8,1.4C168.8,122.8,167.4,122.8,167.4,124.2L167.4,124.2z"/>
	<path class="st0" d="M188.5,124.2c-1.4-1.4-2.8-1.4-4.2-1.4c0-2.8,4.2-5.6,7-7c0-1.4,1.4-2.8,2.8-4.2l0,0c0,1.4,0,1.4-1.4,4.2l0,0
		C191.3,118.6,191.3,122.8,188.5,124.2L188.5,124.2z"/>
	<path class="st0" d="M363,122.8c-1.4,0-4.2,0-5.6-1.4c1.4,0,1.4,0,2.8,0c1.4,0,1.4,0,1.4-1.4c0,0,0,0,1.4,0v1.4
		c0-1.4,0-2.8,1.4-2.8c0,1.4,0,2.8,0,4.2C363,122.8,363,122.8,363,122.8L363,122.8z"/>
	<path class="st1" d="M153.3,122.8c-1.4-1.4-1.4-2.8-1.4-2.8c-1.4,0-1.4,0-1.4,0c-1.4-1.4-1.4-2.8-1.4-4.2c2.8-7,5.6-8.4,11.3-9.8
		c0,0,0,0,0-1.4c2.8,0,7,1.4,9.9,1.4c1.4,1.4,2.8,1.4,4.2,1.4c1.4,0,1.4,0,1.4,1.4c-1.4,1.4-2.8,5.6-5.6,5.6V113h-1.4
		c0,1.4-1.4,1.4-1.4,2.8c-1.4-1.4-2.8,0-2.8,1.4c-1.4,0-1.4,0-1.4,0c0-1.4,0-1.4-1.4-1.4c-1.4,1.4-1.4,1.4-1.4,2.8
		c-1.4,0-1.4,0-2.8,0c-1.4,1.4-1.4,1.4-1.4,2.8c-1.4,0-1.4,0-1.4,0C153.3,121.4,153.3,121.4,153.3,122.8L153.3,122.8z"/>
	<path class="st0" d="M365.8,122.8c0-2.8-1.4-4.2,1.4-5.6C367.3,120,365.8,121.4,365.8,122.8L365.8,122.8L365.8,122.8z"/>
	<path class="st0" d="M367.3,122.8c0-2.8,1.4-5.6,4.2-7c0,1.4-1.4,2.8-2.8,2.8c0,1.4,0,2.8,0,4.2H367.3L367.3,122.8z"/>
	<path class="st0" d="M370.1,122.8c0-2.8,0-5.6,2.8-5.6C372.9,118.6,371.5,120,370.1,122.8L370.1,122.8L370.1,122.8z"/>
	<path class="st1" d="M64.7,120c0-1.4,0-2.8,1.4-4.2c0,1.4,1.4,1.4,1.4,2.8C66.1,118.6,66.1,120,64.7,120L64.7,120z"/>
	<path class="st1" d="M144.9,118.6c0-2.8-4.2-1.4-4.2-4.2c-5.6-4.2-1.4-9.8,2.8-12.6v1.4c-2.8,4.2-1.4,8.4,2.8,11.2
		c0,1.4,0,1.4,0,2.8L144.9,118.6L144.9,118.6z"/>
	<path class="st1" d="M177.3,114.4c0-1.4,0-1.4-1.4-1.4c0-1.4,0-1.4,0-2.8c7-4.2,7-11.2,1.4-16.9c8.4,0,12.7,9.8,8.4,16.9
		c0-1.4,0-1.4,0-2.8l0,0c-1.4,1.4-2.8,2.8-2.8,4.2c-1.4,0-1.4,0-1.4,0s0,0,0,1.4C178.7,113,178.7,113,177.3,114.4L177.3,114.4z"/>
	<path class="st1" d="M71.7,108.8c0,0-1.4-1.4-1.4-2.8c2.8-4.2-2.8-8.4-5.6-11.2c-1.4,0-1.4,0-1.4,0c5.6,0,9.9,1.4,12.7,5.6
		c-1.4,1.4-1.4,2.8-2.8,8.4H71.7L71.7,108.8z"/>
	<path class="st0" d="M185.7,107.4c0-2.8,0-2.8,0-4.2c0,0,0,0,1.4,0c-1.4,1.4-1.4,1.4,0,2.8C187.1,106,185.7,106,185.7,107.4
		L185.7,107.4z"/>
	<path class="st0" d="M206.8,103.2c-1.4-1.4-2.8-7,1.4-8.4c-1.4,2.8-1.4,4.2-1.4,7C208.2,103.2,208.2,103.2,206.8,103.2L206.8,103.2
		z"/>
	<path class="st0" d="M140.7,96.1c-1.4-1.4-7-1.4-9.9-1.4c-1.4,0-1.4,0-2.8,0c0-1.4,0-1.4,0-1.4c1.4,0,1.4,0,2.8,0
		c7-7-5.6-4.2-9.9-7c-8.4-1.4-8.4-1.4-19.7-2.8c-19.7-4.2-39.4-7-59.1-8.4c-5.6,0-12.7-1.4-18.3-1.4c-5.6-2.8-15.5,0-22.5-1.4
		c0-5.6,2.8-9.8,5.6-15.5c0,0,1.4,0,2.8,0c0-2.8,1.4-4.2,2.8-4.2c0-2.8,4.2-5.6,5.6-2.8c2.8,0,2.8,0,4.2,1.4c1.4,0,4.2-5.6,5.6-7
		c0,0,1.4,0,2.8,0c2.8-4.2,4.2-4.2,8.4-4.2c1.4,1.4,1.4,2.8,1.4,2.8c1.4,1.4,1.4,2.8,2.8,4.2c4.2-2.8,7-1.4,7,2.8
		c1.4,0,1.4,0,1.4,1.4c0-1.4,0-1.4,1.4-2.8c0,0,0,0,1.4,0V47c1.4,0,1.4,0,1.4,0c2.8-7,5.6-5.6,9.9-5.6c1.4,2.8,1.4,5.6,1.4,7
		c1.4,0,1.4,0,2.8,0l0,0c1.4-1.4,1.4-1.4,4.2-1.4c0-2.8,2.8-2.8,5.6-2.8c0,0,1.4,2.8,1.4,4.2c1.4,0,1.4,0,1.4,0
		c1.4,0,2.8,1.4,2.8,1.4c0,4.2-1.4,8.4,0,11.2c2.8,0,7-1.4,9.9-1.4c1.4,2.8,0,5.6,1.4,8.4c1.4,0,1.4,0,2.8,0v1.4
		c1.4,0,1.4,0,5.6-2.8c1.4,0,2.8,0,2.8,0c1.4,1.4,1.4,1.4,2.8,2.8c0,1.4,0,4.2,1.4,5.6c2.8-1.4,4.2-1.4,7-2.8c1.4,1.4,2.8,0,2.8,4.2
		c1.4,1.4,1.4,1.4,2.8,2.8c2.8,0,4.2-2.8,5.6-1.4c1.4,0,1.4,0,1.4,0c1.4,1.4,1.4,2.8,4.2,4.2c0-2.8,2.8-7,2.8-8.4
		c-2.8,0-5.6-1.4-7,0c-2.8-1.4-4.2-4.2-7-5.6c-1.4,0-2.8,0-4.2,0c-1.4-1.4-1.4-1.4-2.8-1.4c0-2.8-1.4-4.2-1.4-5.6
		c-4.2-1.4-4.2-7,0-8.4c0-2.8,0-2.8,0-4.2c-7,1.4-1.4-5.6-1.4-8.4c2.8-1.4,2.8-1.4,2.8-2.8c2.8-2.8,5.6-4.2,8.4-1.4
		c1.4-1.4,1.4-1.4,1.4-2.8c1.4-1.4,2.8-1.4,4.2-2.8c5.6,0,9.9,1.4,15.5,0c0,1.4,0,2.8,1.4,4.2h1.4c1.4-1.4,2.8-2.8,4.2-2.8
		c1.4,0,1.4,0,2.8,1.4c1.4-1.4,4.2-2.8,5.6-2.8c1.4,2.8,2.8,1.4,2.8,5.6c4.2,1.4,7,1.4,9.9,2.8c0,2.8,0,4.2,1.4,5.6
		c1.4,0,2.8,0,4.2,1.4c1.4,4.2-1.4,11.2-4.2,15.5c2.8,1.4,2.8,2.8,1.4,5.6c-1.4,0-2.8,1.4-2.8,2.8c-2.8,1.4-2.8,1.4-2.8,1.4
		c-1.4,7-12.7,5.6-18.3,5.6c-2.8,0-2.8,0-4.2,0c0,0-1.4,0-1.4-1.4c-1.4,0-1.4,0-2.8,0c0,1.4-1.4,4.2-1.4,5.6c2.8-1.4,2.8-1.4,7,0
		v1.4c1.4,0,2.8,1.4,4.2,2.8c8.4,0,18.3-2.8,26.7-5.6c4.2,0,5.6-1.4,8.4-4.2c1.4-2.8,2.8-4.2,5.6-1.4c4.2-1.4,4.2-2.8,5.6-5.6h1.4
		c1.4-2.8,1.4-4.2,2.8-5.6c1.4,0,2.8-1.4,4.2-1.4c0,0,1.4,1.4,2.8,1.4c0,0,2.8-2.8,2.8-4.2c1.4-1.4,2.8-1.4,2.8-2.8
		c2.8,0,5.6-2.8,8.4-4.2c1.4,1.4,1.4,1.4,2.8,4.2c1.4,1.4,2.8-1.4,4.2-2.8c1.4,0,2.8-1.4,4.2-1.4c0,1.4,0,1.4,1.4,2.8
		c1.4,0,2.8,7,4.2,9.8c0-2.8,0-5.6,0-8.4c-1.4-1.4-1.4-1.4-1.4-2.8c4.2-1.4,7-1.4,11.3,0c0,1.4,0,2.8,0,4.2c0,0,1.4,0,1.4,1.4
		c2.8-1.4,5.6-4.2,7-5.6c0,0,0,0,1.4,0c1.4,4.2,5.6,2.8,9.9-1.4c1.4,1.4,2.8,0,4.2,1.4c0,0,0,0,1.4,0c0,1.4,0,2.8,0,4.2
		c1.4-2.8,1.4-2.8,5.6-8.4c12.7,0,26.7,2.8,39.4,5.6c1.4-1.4,2.8-2.8,5.6-2.8c1.4-1.4,4.2-4.2,7-2.8c1.4,1.4,1.4,1.4,2.8,2.8
		c1.4-1.4,4.2-1.4,5.6-2.8h1.4c1.4,2.8,1.4,2.8,1.4,4.2c0,0,0,0,4.2,0c2.8,9.8,5.6,0,11.3,0c0,0,0,1.4,1.4,1.4c0,0,0,0,1.4,0
		c0,1.4,0,4.2,1.4,5.6c1.4,0,2.8-1.4,2.8-2.8c2.8,0,2.8,0,5.6-1.4c0,1.4,0,1.4,0,2.8h1.4c0,1.4,1.4,2.8,1.4,4.2c1.4,0,1.4,0,2.8,1.4
		c0,1.4,1.4,2.8,1.4,5.6c-11.3,1.4-23.9-1.4-35.2,1.4c7,2.8,7,2.8,14.1,5.6c2.8,1.4,8.4,1.4,11.3,4.2c-1.4,1.4-1.4,1.4-2.8,1.4
		c0,1.4,0,1.4,0,2.8c8.4,0,8.4,0,11.3,0c0,0,0,0,0,1.4c-4.2,0-7-1.4-11.3,0c0,2.8,0,5.6,0,8.4c-4.2-1.4-8.4,0-12.7,0v-1.4
		c-1.4,0-4.2,0-5.6,0c0-2.8,5.6-1.4,7,0c0-1.4,1.4-1.4,1.4-1.4c2.8,1.4,2.8,0,4.2,0c0,1.4,2.8,1.4,4.2,0c-1.4-1.4-1.4-1.4,0-2.8
		c-1.4,0-1.4,0-1.4,0c1.4-1.4,1.4-1.4,1.4-2.8c-1.4,0-1.4,0-1.4-1.4l0,0c1.4,0,1.4,0,1.4,0l-1.4-1.4c1.4,0,1.4,0,1.4,0
		c-5.6-1.4-11.3-1.4-15.5-1.4c0,0,0,0,0,1.4h-1.4c0-1.4,0-1.4,0-1.4c-4.2,0-8.4-1.4-12.7-1.4c-1.4,1.4-1.4,2.8-1.4,5.6
		c1.4,0,1.4,0,1.4,0h-1.4c0,1.4,0,1.4,0,2.8l0,0c0,1.4,0,2.8,0,4.2c1.4,0,1.4-1.4,4.2-1.4c0,0,0,0,1.4,1.4c0-1.4,0-1.4,1.4-1.4
		c0,1.4,0,1.4-1.4,2.8c-1.4,0-4.2-1.4-5.6,0c-7,0-12.7,0-18.3,0c-1.4,0-1.4,0-1.4,0c2.8-1.4,5.6,0,7-1.4c-2.8,0-5.6-2.8-8.4-1.4
		c-4.2,0-5.6,0-9.9,0c-8.4-1.4-19.7-1.4-28.1-1.4c-2.8-1.4-8.4,1.4-9.9,0c-1.4,0-4.2,1.4-5.6,0c1.4,0,1.4,0,2.8,0c0,0,0,0,0-1.4
		c1.4,0,4.2,0,5.6,0v-1.4c-8.4-1.4-18.3-1.4-26.7-1.4c-7,0-7,0-7,0c0-4.2,0-8.4,0-12.6c-11.3-1.4-25.3,2.8-36.6,4.2
		c-5.6,1.4-11.3,2.8-16.9,2.8c-7,1.4-12.7,2.8-14.1,2.8c4.2,1.4,15.5,1.4,19.7,0c8.4,0,16.9-1.4,25.3-1.4c7,0,14.1,0,21.1,0
		c0,0,0,0,0,1.4c-16.9-1.4-32.4,0-49.3,1.4c-15.5,0-32.4,1.4-47.8,2.8c0,1.4,0,2.8,0,5.6c1.4,0,1.4,0,2.8,0c1.4,2.8,5.6,1.4,8.4,2.8
		c-2.8,0-8.4,0-9.9,0C140.7,96.1,140.7,96.1,140.7,96.1L140.7,96.1z"/>
	<path class="st0" d="M381.3,94.7c0,0-2.8,0-1.4-1.4c1.4,0,2.8,1.4,4.2,1.4l0,0C382.7,94.7,382.7,94.7,381.3,94.7L381.3,94.7z"/>
	<path class="st0" d="M126.6,94.7c0,0,0,0-1.4-1.4c1.4,0,2.8,1.4,2.8,1.4C126.6,94.7,126.6,94.7,126.6,94.7L126.6,94.7z"/>
	<path class="st0" d="M377.1,94.7c0-1.4-2.8,0-4.2,0c0-1.4,0-2.8,0-2.8h1.4h1.4c0,0,0,0,1.4,0v1.4h1.4
		C378.5,94.7,378.5,94.7,377.1,94.7L377.1,94.7z"/>
	<path class="st0" d="M347.5,94.7c-1.4-1.4-1.4-1.4-1.4-1.4l1.4-1.4c1.4,0,2.8,0,4.2,0c0,1.4,0,1.4,0,2.8
		C349,93.3,349,94.7,347.5,94.7L347.5,94.7z"/>
	<path class="st1" d="M133.6,93.3c1.4-5.6,4.2-12.6,7-18.3c0-2.8,0-4.2,0-8.4c1.4,4.2,1.4,4.2,2.8,4.2c1.4-1.4,1.4-2.8,1.4-5.6
		c1.4,1.4,1.4,1.4,2.8,1.4c0,1.4,0,1.4,0,2.8l0,0c0,0,1.4,0,1.4-1.4c0,1.4-4.2,7-5.6,8.4v1.4v-1.4c-2.8,2.8-7,12.6-7,15.5
		C135,93.3,135,93.3,133.6,93.3L133.6,93.3z"/>
	<path class="st0" d="M156.1,93.3c-4.2-1.4-9.9-1.4-14.1-2.8v-1.4c2.8,0,5.6,1.4,8.4,1.4l0,0c5.6,1.4,5.6,1.4,9.9,2.8
		C159,93.3,157.6,93.3,156.1,93.3L156.1,93.3z"/>
	<path class="st1" d="M336.3,93.3c-1.4-1.4-7-1.4-9.9-2.8v1.4c-1.4-1.4-1.4-1.4-2.8-1.4c-1.4-5.6-1.4-14.1,0-19.7
		c4.2,1.4,8.4,7,14.1,8.4c-1.4,1.4-1.4,1.4-1.4,1.4l1.4,1.4l-1.4,1.4c1.4,1.4,1.4,7,1.4,8.4C336.3,91.9,336.3,93.3,336.3,93.3
		L336.3,93.3z"/>
	<path class="st1" d="M306.7,91.9c0-1.4,0-1.4,0-1.4c-4.2-1.4-2.8-7-2.8-11.2c0-2.8,1.4-5.6,0-8.4c2.8,0,5.6,0,7,0c0,0,0,0,0,1.4
		c0,0,0,0-1.4,1.4c2.8,1.4,5.6,1.4,8.4,1.4c0,0,0,0,1.4,0c-1.4-1.4-1.4-2.8-2.8-4.2c1.4,0,2.8,0,4.2,0c1.4,1.4,1.4,5.6,1.4,8.4
		c-1.4,0-2.8,0-4.2,0c1.4,0,1.4,0,1.4,1.4c1.4,0,1.4,0,2.8,0v1.4c-1.4,0-1.4,0-1.4,0l0,0c0,0,0,0,1.4,1.4c-2.8,0-1.4,1.4,0,2.8
		c0,1.4,0,2.8,0,4.2c-1.4,0-1.4,0-2.8,0l0,0c-1.4-1.4-4.2,0-5.6,0c0,0,0,0,0-1.4C311,91.9,308.1,90.5,306.7,91.9L306.7,91.9z"/>
	<path class="st1" d="M301.1,90.5c-2.8,0-9.9,0-11.3,0c0-1.4,0-1.4-1.4-1.4c-1.4,0-4.2,0-7,0l0,0c-1.4,0-1.4-1.4-1.4-1.4
		c-1.4,0-1.4,0-1.4,1.4c-1.4,0-1.4-1.4-1.4-1.4s0,0-1.4,0v1.4c0,0,0,0-1.4,0c0-1.4,0-1.4,0-2.8h1.4v-1.4c0-1.4-1.4-1.4-1.4-1.4v-1.4
		c1.4,0,1.4,0,1.4-1.4h-1.4c0-2.8,0-5.6,1.4-9.8c2.8-5.6,7-12.6,11.3-18.3c0,0,0,0,1.4,0V54c2.8,1.4,4.2,4.2,5.6,7
		c1.4,0,7,8.4,8.4,9.8c0,1.4,0,1.4,0,2.8c1.4,1.4,0,4.2,0,5.6h-1.4c0,0,0,0,0,1.4h1.4c0,1.4,0,2.8,0,5.6h-1.4c1.4,0,1.4,0,1.4,1.4
		l0,0c0,1.4,0,2.8,0,2.8H301.1L301.1,90.5z"/>
	<path class="st1" d="M129.4,86.3c-23.9-4.2-46.4-8.4-69-11.2c-5.6,0-11.3-1.4-16.9-1.4c-14.1,0-26.7-2.8-40.8-1.4
		c0-1.4,0-2.8,0-4.2C4.2,66.6,7,61,7,58.2h1.4c0,0,0,0,0-1.4c2.8,0,5.6-4.2,7-7c0,0,0,0,1.4,0c0,1.4,1.4,1.4,2.8,1.4
		c0,0,1.4,0,1.4,1.4c2.8-1.4,2.8-1.4,4.2-1.4c0,0,0,0,0-1.4c0,0,0,0,1.4,0c1.4-1.4,1.4-1.4,1.4-4.2c1.4,0,2.8,0,4.2,0
		c0-1.4,1.4-2.8,1.4-4.2c0,0,1.4,0,1.4,1.4c1.4-1.4,1.4-1.4,1.4-1.4c1.4,0,1.4,0,1.4,1.4c0,0,0-1.4,1.4-1.4c0,1.4,0,2.8,0,2.8h1.4
		c0,1.4,0,1.4,0,1.4s0,0,1.4,0c0,1.4,0,1.4,0,2.8c1.4,0,2.8-1.4,4.2-1.4l0,0l0,0l0,0c1.4,0,1.4,0,2.8,0c-1.4,0-1.4,1.4-1.4,2.8
		c1.4-1.4,1.4-1.4,1.4-1.4c0,1.4,0,1.4,0,2.8c2.8,0,2.8,1.4,5.6,0c-1.4-1.4-1.4-1.4,0-1.4c0,0,0,0,1.4,0c0-1.4,0-1.4,0-1.4
		c0-1.4,1.4-1.4,1.4-1.4c0-1.4,0-1.4,1.4-4.2c1.4,0,4.2,1.4,5.6,0c0,2.8,1.4,5.6,2.8,7c4.2,0,4.2,0,4.2,0c1.4,0,1.4-1.4,1.4-1.4h1.4
		V47c1.4-1.4,1.4-1.4,2.8,0c0-1.4,0-1.4,1.4-1.4l0,0c0,0,0,1.4,0,2.8c1.4,0,1.4,0,1.4-1.4c0,1.4,1.4,1.4,1.4,2.8l0,0
		c1.4,0,1.4,0,1.4,1.4c0-1.4,0-1.4,1.4-1.4c0,1.4-1.4,2.8-1.4,4.2c1.4,0,1.4,0,1.4,0c0,1.4-1.4,2.8-1.4,4.2c0,0,0,0,1.4-1.4
		C83,58.2,83,59.6,83,61h1.4v1.4c2.8,0,4.2,0,7,0c0-1.4,0-1.4,0-1.4s0,0,1.4,1.4c0-1.4,0-1.4,1.4-1.4l0,0c0,0,0,1.4,0,2.8l0,0
		c0,2.8,0,2.8,0,2.8c0,1.4,1.4,1.4,1.4,1.4v1.4c2.8,0,4.2,2.8,5.6,2.8c0-1.4,0-1.4,0-1.4c2.8-1.4,2.8-1.4,4.2-1.4l0,0c0,0,0,0,1.4,0
		V68h1.4c0,1.4,0,2.8,1.4,2.8c0,1.4,0,1.4,0,2.8c0,0,0,0,1.4,0c-1.4,0-1.4,1.4-1.4,2.8c0,0,1.4,0,1.4-1.4c1.4,1.4,1.4,1.4,2.8,2.8
		c0-1.4,0-1.4,1.4-2.8v1.4c0,0,0,0,1.4,0c0-1.4,0-1.4,0-1.4s0,0,1.4,0c0-1.4,0-1.4,1.4-1.4c-1.4,0-1.4,1.4-1.4,1.4
		c1.4,0,1.4,0,2.8,0c0,1.4,0,2.8,0,2.8s0,0,1.4,0c0,1.4,0,2.8,0,4.2c0-1.4,1.4-1.4,1.4-1.4c0,1.4,0,1.4,1.4,1.4
		c0-1.4,1.4-1.4,1.4-1.4c1.4,0,1.4-1.4,1.4-1.4c1.4,0,1.4,0,1.4,0s0,0,1.4,1.4v-1.4c0,0,0,0,1.4,0c-1.4,1.4-1.4,1.4-1.4,2.8
		c2.8,0,2.8,0,5.6,1.4c-1.4,1.4-1.4,2.8-1.4,2.8C132.2,86.3,130.8,86.3,129.4,86.3L129.4,86.3z"/>
	<path class="st0" d="M363,86.3c-1.4,0-1.4-1.4-1.4-2.8h1.4C363,83.5,363,83.5,363,86.3L363,86.3L363,86.3z"/>
	<path class="st1" d="M139.3,86.3v-1.4C139.3,84.9,139.3,84.9,139.3,86.3L139.3,86.3L139.3,86.3z"/>
	<path class="st3" d="M313.8,86.3L313.8,86.3c1.4,0,1.4-1.4,1.4-1.4c0,1.4,1.4,1.4,1.4,1.4C315.2,86.3,315.2,86.3,313.8,86.3
		L313.8,86.3z"/>
	<path class="st0" d="M347.5,86.3c0-1.4,0-2.8,0-4.2C349,82.1,347.5,84.9,347.5,86.3L347.5,86.3L347.5,86.3z"/>
	<path class="st0" d="M233.6,86.3c0,0,0,0,1.4-1.4c1.4,0,1.4,0,2.8,0v1.4C236.4,86.3,235,86.3,233.6,86.3L233.6,86.3z"/>
	<path class="st1" d="M142.1,86.3c0-1.4,0-2.8,0-2.8c2.8-1.4,5.6-1.4,8.4-1.4c0,0,0,1.4,1.4,2.8C149.1,84.9,144.9,84.9,142.1,86.3
		L142.1,86.3z"/>
	<path class="st1" d="M253.3,86.3c-2.8-1.4-9.9-1.4-11.3-1.4l0,0c-1.4-1.4-1.4-2.8-1.4-4.2c0-1.4,0-1.4,0-1.4v-1.4
		c1.4-1.4,0-2.8,0-4.2c2.8-4.2,7-8.4,9.9-12.6c0,0,0,0,1.4,0c1.4,4.2,8.4,9.8,11.3,12.6c-1.4,1.4-1.4,5.6-1.4,7c1.4,1.4,0,1.4,0,4.2
		c0,0,0,0-1.4,0s-2.8,0-2.8,1.4C256.1,84.9,254.7,84.9,253.3,86.3L253.3,86.3z"/>
	<path class="st1" d="M264.5,84.9c0-2.8-1.4-7,0-9.8c0,0,0,0,5.6,0l0,0c-1.4,2.8-1.4,7-1.4,8.4C268.7,84.9,268.7,84.9,264.5,84.9
		L264.5,84.9z"/>
	<path class="st1" d="M271.6,84.9l-1.4-1.4v-1.4c1.4,0,1.4,0,2.8,0v1.4L271.6,84.9L271.6,84.9z"/>
	<path class="st0" d="M289.8,84.9v-1.4c0,0,0,0,1.4,0c0,0,0,0,0,1.4C289.8,84.9,289.8,84.9,289.8,84.9L289.8,84.9z"/>
	<path class="st0" d="M329.3,84.9c0-2.8-1.4-5.6,1.4-5.6c0,1.4,0,2.8,0,4.2C330.7,83.5,329.3,83.5,329.3,84.9L329.3,84.9z"/>
	<path class="st0" d="M289.8,83.5c-1.4-1.4-1.4-1.4-1.4-1.4c1.4,0,1.4,0,1.4,0S289.8,82.1,289.8,83.5L289.8,83.5L289.8,83.5z"/>
	<path class="st0" d="M253.3,82.1c-1.4,0-2.8,0-4.2,0c-1.4-8.4-1.4-8.4,0-8.4c1.4-1.4,2.8-1.4,5.6-1.4c0,2.8,0,7,0,9.8
		C253.3,82.1,253.3,82.1,253.3,82.1L253.3,82.1z"/>
	<path class="st0" d="M292.7,82.1c0-1.4,0-1.4,0-1.4s0,0,1.4,1.4C292.7,82.1,292.7,82.1,292.7,82.1L292.7,82.1z"/>
	<path class="st1" d="M142.1,80.7v-1.4c0,0,0,0,1.4,0C142.1,80.7,142.1,80.7,142.1,80.7L142.1,80.7z"/>
	<path class="st1" d="M344.7,72.3v1.4c5.6-1.4,9.9,1.4,14.1,2.8c8.4,2.8,9.9,2.8,12.7,4.2l0,0c-2.8,0-4.2,0-5.6,0l0,0
		c-4.2,0-4.2,0-14.1-1.4c-5.6,0-19.7,0-22.5-7c2.8,0,4.2,1.4,5.6,1.4l0,0c1.4,0,1.4,0,1.4,1.4c0-1.4,0-1.4,0-1.4c1.4,0,1.4,0,5.6,0
		c0,0,0,0-4.2-1.4c1.4,0,2.8,0,4.2,0c0,0,0,1.4,1.4,1.4c0,0,0,0,1.4,0"/>
	<path class="st1" d="M249,80.7c0-5.6,0-5.6,0-7c0,2.8,0,4.2,0,5.6V80.7L249,80.7z"/>
	<path class="st1" d="M189.9,79.3v-1.4c1.4,0,1.4-1.4,2.8-2.8c0,0,0,0,1.4,0c0,0,0,0,0-1.4c2.8,1.4,4.2,1.4,5.6,1.4
		c0-1.4,0-1.4,0-1.4c2.8,0,4.2-7,7-8.4l1.4-1.4c0-1.4,0-1.4,1.4,0c0-1.4,0-1.4,0-1.4s0,0,1.4,0c0,0,0,0,0,1.4h1.4c0,0,0,0,1.4,0
		c0,0,0,0,1.4,0c1.4-1.4,1.4-4.2,2.8-5.6c1.4,0,1.4,1.4,2.8,1.4c0-1.4,2.8-5.6,4.2-5.6c1.4,0,1.4-1.4,1.4-1.4l0,0
		c0,1.4,0,1.4,1.4,2.8c0-1.4,0-1.4,0-1.4c1.4,1.4,1.4,1.4,1.4,2.8c0,0,0,0,1.4,0c0,0,0,0,0,1.4c1.4-1.4,1.4-1.4,2.8-1.4
		C235,54,235,54,235,54l0,0c1.4,0,1.4,0,1.4,0h1.4l0,0v1.4c1.4,0,1.4,0,1.4,0c1.4,1.4,1.4,2.8,1.4,4.2h1.4c0,0,0,1.4,0,2.8
		c0,0,0,0,1.4,0c0,1.4,0,1.4,0,4.2c-1.4,1.4-2.8,2.8-5.6,4.2c-11.3,2.8-22.5,4.2-35.2,5.6C195.6,77.9,195.6,77.9,189.9,79.3
		L189.9,79.3z"/>
	<path class="st0" d="M344.7,76.5c0-1.4-1.4-1.4-2.8-1.4l0,0c2.8,0,4.2,0,5.6,1.4C346.1,76.5,346.1,76.5,344.7,76.5L344.7,76.5z"/>
	<path class="st1" d="M153.3,76.5c0-1.4,0-1.4,0-1.4h-1.4c0,0,0,0,0-1.4c1.4,0,1.4,0,2.8,0C154.7,73.7,154.7,75.1,153.3,76.5
		L153.3,76.5z"/>
	<path class="st0" d="M278.6,76.5c0-4.2,1.4-2.8,1.4-5.6c2.8,1.4,4.2,1.4,4.2,4.2C282.8,75.1,282.8,75.1,278.6,76.5L278.6,76.5z"/>
	<path class="st0" d="M292.7,75.1c-1.4,0-1.4,0-2.8,0c1.4-4.2,2.8-4.2,7-5.6c0,1.4,0,1.4,0,1.4c1.4,0,1.4,1.4,1.4,2.8
		C295.5,75.1,294.1,75.1,292.7,75.1L292.7,75.1z"/>
	<path class="st0" d="M349,75.1c-1.4,0-2.8,0-2.8-1.4l0,0c0,0,1.4,0,2.8,0V75.1L349,75.1z"/>
	<path class="st1" d="M147.7,73.7c0,0,0,0,0-1.4c1.4,0,2.8,0,4.2,0l-1.4,1.4C150.5,73.7,150.5,73.7,147.7,73.7L147.7,73.7z"/>
	<path class="st1" d="M316.6,73.7c-1.4,0-1.4,0-1.4-1.4h1.4C316.6,73.7,316.6,73.7,316.6,73.7L316.6,73.7z"/>
	<path class="st1" d="M159,73.7c-1.4-1.4-1.4-1.4-1.4-1.4c1.4,0,1.4,0,1.4,0V73.7L159,73.7z"/>
	<path class="st1" d="M265.9,73.7c-5.6-2.8-14.1-11.2-14.1-15.5c2.8,0,7,1.4,11.3,1.4c1.4,0,11.3,1.4,12.7,2.8c-1.4,1.4-1.4,0-2.8,0
		c0,1.4,0,1.4,0,2.8c-1.4-1.4-2.8-1.4-4.2-2.8c0,1.4,0,1.4,0,1.4c0,1.4,0,1.4,1.4,1.4c0,1.4,0,1.4,0,2.8c1.4,0,1.4,0,1.4,0
		c0,1.4-1.4,2.8-1.4,4.2c0,0,0,1.4,1.4,1.4C268.7,73.7,267.3,73.7,265.9,73.7L265.9,73.7z"/>
	<path class="st1" d="M291.3,73.7c0-1.4,0-1.4,1.4-1.4c0,0,0,0,0,1.4H291.3L291.3,73.7z"/>
	<path class="st1" d="M156.1,73.7v-1.4l0,0C156.1,72.3,156.1,72.3,156.1,73.7L156.1,73.7z"/>
	<path class="st1" d="M161.8,73.7c0-2.8,1.4-2.8,4.2-4.2l0,0h1.4c2.8-2.8,1.4-5.6,1.4-8.4c0-1.4,0-1.4-1.4,0c0,1.4,0,2.8,0,4.2
		c0,0,0,0-1.4,0c1.4,1.4,1.4,1.4,1.4,1.4C166,68,166,68,164.6,68c-1.4,1.4-2.8,1.4-2.8,2.8c-1.4-1.4-2.8-1.4-4.2-2.8
		c-1.4,1.4-1.4,1.4-1.4,1.4c0-1.4,0-1.4,0-2.8c-2.8,0-4.2,0-7,0c0-1.4,0-1.4,0-1.4c-1.4,0-1.4,0-1.4,0c0-1.4,0-1.4,0-1.4
		c-1.4,0-4.2,0-5.6,0c0,1.4-2.8,2.8-5.6,2.8c0,0,0-1.4,1.4-1.4c-1.4,0-2.8,0-2.8,0s0,0,0-1.4c-1.4,0-1.4,0-2.8,0c0,0,0-1.4,0-2.8
		c-1.4,0-1.4,0-4.2,1.4c0-1.4,0-1.4,0-1.4c0-1.4,0-1.4-1.4-1.4c1.4,0,2.8-2.8,1.4-4.2c-1.4,2.8-1.4,5.6-1.4,8.4c0,0,0,0,1.4,0
		c-1.4,1.4-1.4,1.4-1.4,1.4h-1.4c-1.4,1.4-2.8,1.4-4.2,1.4v-1.4h-1.4c0-1.4,0-2.8,1.4-4.2c-1.4-1.4-1.4-1.4-1.4-2.8
		c-1.4,0-1.4,0-1.4,0c-2.8,0-2.8-1.4-1.4-4.2c1.4,0,2.8-1.4,1.4-2.8c0-1.4,0-1.4,0-2.8c0-1.4,0-1.4,0-1.4c-1.4,1.4-1.4,1.4-2.8,1.4
		c0-1.4,0-1.4,1.4-2.8c-1.4,0-1.4,0-2.8,0c0,0,0,0,1.4,0v-1.4c0,0,0,0,0-1.4c1.4,0,1.4,0,1.4,0c0-4.2,4.2-5.6,7-7h1.4l0,0
		c1.4,0,1.4,0,1.4,1.4l1.4-1.4c0,0,0,0,1.4,0c1.4-2.8,1.4-2.8,4.2-4.2c1.4,0,7,0,7,0c0,1.4,1.4,1.4,2.8,1.4c0-1.4,2.8,0,4.2,0
		c0,2.8,1.4,2.8,4.2,2.8c0-1.4,0-1.4,1.4-2.8c0,0,1.4,0,2.8,0c1.4,1.4,4.2,0,5.6,0l0,0c1.4,0,1.4,0,2.8,0c-1.4,0-1.4,0-1.4,1.4
		c1.4,0,1.4,0,1.4,0c0,1.4,0,1.4,0,2.8l0,0c0,0,0,0,1.4,1.4c0,0,0,0,1.4-1.4v1.4c2.8,0,4.2,0,7,2.8c0,1.4,0,4.2,0,5.6
		c1.4,0,1.4,0,1.4-1.4c1.4,0,1.4,0,1.4,1.4c1.4,0,1.4,0,2.8,0c0,0,0,0,0,1.4l0,0c0,1.4,0,1.4,0,2.8c-1.4,1.4-1.4,1.4-1.4,2.8
		c-1.4,1.4-1.4,1.4-1.4,4.2l0,0l-1.4,1.4c-1.4,1.4-1.4,1.4,0,2.8c0,0,0,0,1.4,0c1.4,4.2-2.8,5.6-5.6,5.6c-1.4,2.8-1.4,4.2-2.8,5.6
		c-1.4,0-1.4,0-1.4-1.4c0,1.4,0,1.4,0,1.4c-1.4-2.8-1.4-2.8-1.4-2.8c-1.4,0-1.4,1.4-1.4,2.8c0-1.4-1.4-1.4-1.4-1.4s0,0,0,1.4H161.8
		L161.8,73.7z"/>
	<path class="st1" d="M132.2,72.3v-1.4c-1.4,0-1.4-1.4-1.4-1.4l0,0c0-1.4,0-1.4,0-1.4l0,0l0,0c1.4,0,1.4,0,1.4,0
		c0,1.4,1.4,1.4,2.8,1.4v1.4C133.6,70.9,133.6,70.9,132.2,72.3L132.2,72.3z"/>
	<path class="st1" d="M271.6,72.3c0,0,0,0,0-1.4c0,0,0-1.4,1.4-1.4C273,70.9,271.6,70.9,271.6,72.3L271.6,72.3z"/>
	<path class="st1" d="M136.4,72.3c0-1.4,0-1.4,1.4-2.8c0,1.4,1.4,1.4,1.4,1.4l0,0C139.3,70.9,137.9,72.3,136.4,72.3L136.4,72.3z"/>
	<path class="st1" d="M326.4,72.3L326.4,72.3c0-1.4,0-1.4,0-1.4h1.4C327.8,72.3,327.8,72.3,326.4,72.3L326.4,72.3z"/>
	<path class="st1" d="M346.5,72.3c-1.4-1.4-1.4-1.4-1.4-1.4c-16.9-1.4-16.9-1.4-16.9-1.4c-8.4-1.4-16.9,0-25.3-1.4
		c0,0-15.5-16.9-14.1-18.3c5.6,0,36.6,4.2,39.4,7c2.8,0,4.2,0,7,0c2.8,4.2,11.3,9.8,12.7,14.1C346.5,70.9,346.5,70.9,346.5,72.3
		L346.5,72.3z"/>
	<path class="st1" d="M129.4,70.9c-1.4-1.4-1.4-2.8-1.4-4.2c0,0,0,0,1.4,0C129.4,68,129.4,69.5,129.4,70.9L129.4,70.9L129.4,70.9z"
		/>
	<path class="st0" d="M336.3,69.5c0,0,0-1.4-1.4-1.4h-1.4c0-1.4-1.4-1.4-1.4-1.4l0,0c0-1.4,0-1.4,0-1.4h1.4v1.4c1.4,0,2.8,0,2.8,0
		V68c1.4,0,1.4,0,2.8,0v1.4C337.7,69.5,337.7,69.5,336.3,69.5L336.3,69.5z"/>
	<path class="st1" d="M347.5,69.5c-7-8.4-9.9-9.8-11.3-12.6c-1.4,0-8.4-1.4-8.4-2.8l0,0c0-1.4,1.4-1.4,1.4,0
		c1.4-1.4,1.4-1.4,2.8-1.4c0-1.4,2.8-4.2,4.2-2.8c0,0,0,0,1.4,0v1.4c0,0,0,1.4,1.4,1.4c0,0,0,0,0,1.4c1.4-1.4,1.4-1.4,1.4-2.8
		c0,1.4,0,1.4,0,1.4c2.8,0,4.2-1.4,5.6-2.8v1.4h1.4c0,1.4,0,2.8,0,2.8c1.4,0,1.4,0,1.4,0c1.4,0,1.4,0,1.4,0s0,0,0,1.4
		c1.4-1.4,1.4-1.4,1.4-1.4c1.4,1.4,1.4,1.4,1.4,2.8l0,0v1.4c1.4,0,1.4,0,1.4,0l0,0h1.4c0,0,0,0,1.4,0l0,0c2.8-1.4,4.2-2.8,7-4.2
		c0,1.4-1.4,1.4-1.4,1.4c1.4,0,1.4,0,2.8,0c0,1.4,0,2.8,0,5.6c2.8,0,5.6-1.4,8.4-1.4c0-1.4,0-2.8,1.4-2.8c0,1.4,0,1.4,1.4,1.4l0,0
		c0,1.4,0,2.8,1.4,2.8l0,0c0,1.4,0,1.4,0,2.8c1.4,0,2.8,1.4,2.8,0c1.4,1.4,1.4,2.8,1.4,4.2C371.5,68,358.8,69.5,347.5,69.5
		L347.5,69.5z"/>
	<path class="st0" d="M263.1,68c-1.4,0-1.4-1.4-2.8-1.4h1.4C261.7,66.6,263.1,66.6,263.1,68L263.1,68z"/>
	<path class="st0" d="M329.3,68c-1.4-1.4-1.4-1.4-4.2-2.8v-1.4h1.4v1.4c1.4,0,2.8,0,4.2,0l0,0c0,0-1.4,0-1.4,1.4c0,0,0,0,1.4,0
		C330.7,66.6,330.7,66.6,329.3,68L329.3,68z"/>
	<path class="st0" d="M339.1,68v-1.4h1.4C340.5,66.6,340.5,68,339.1,68L339.1,68z"/>
	<path class="st0" d="M250.4,66.6c0-1.4,0-1.4,0-2.8c1.4,0,1.4,0,1.4,1.4c0,0,0,0,0,1.4H250.4L250.4,66.6z"/>
	<path class="st0" d="M267.3,66.6c-1.4,0-1.4,0-1.4,0s0,0-1.4,0c0-1.4,0-1.4,0-1.4c1.4,0,1.4,0,2.8,0c0,0,0,1.4,1.4,1.4
		C267.3,66.6,267.3,66.6,267.3,66.6L267.3,66.6z"/>
	<path class="st0" d="M315.2,66.6c0-1.4-1.4-1.4-2.8-1.4c1.4,0,1.4,0,2.8,0c0,1.4,0,1.4,1.4,1.4C315.2,66.6,315.2,66.6,315.2,66.6
		L315.2,66.6z"/>
	<path class="st0" d="M319.4,65.2c-1.4,0-1.4,0-1.4-1.4c1.4,0,1.4,0,2.8,0c0,1.4,0,1.4,0,1.4C319.4,65.2,319.4,65.2,319.4,65.2
		L319.4,65.2z"/>
	<path class="st0" d="M337.7,65.2v-1.4c1.4,0,1.4,0,2.8,0c0,1.4,0,1.4,0,1.4C339.1,65.2,339.1,65.2,337.7,65.2L337.7,65.2z"/>
	<path class="st0" d="M332.1,63.8c0,0,0,0,0-1.4c-1.4,0-1.4,0-1.4,0l0,0c-1.4-1.4-1.4-1.4-2.8-1.4c1.4-2.8,5.6,2.8,7,2.8
		C333.5,63.8,333.5,63.8,332.1,63.8L332.1,63.8z"/>
	<path class="st0" d="M265.9,63.8c0,0-1.4,0,0-1.4l0,0V63.8L265.9,63.8L265.9,63.8z"/>
	<path class="st0" d="M313.8,63.8c0,0,0,0,0-1.4c1.4,1.4,2.8,1.4,4.2,1.4C316.6,63.8,316.6,63.8,313.8,63.8L313.8,63.8z"/>
	<path class="st0" d="M258.9,63.8c0-1.4-1.4-1.4-1.4-1.4V61h1.4c1.4,1.4,1.4,1.4,1.4,1.4s0,0,1.4,0l0,0
		C260.3,62.4,260.3,63.8,258.9,63.8L258.9,63.8z"/>
	<path class="st0" d="M301.1,63.8c0-1.4,0-1.4,0-2.8c0,0,0,0-1.4,0v-1.4h-1.4c1.4,0,2.8-1.4,2.8,0c1.4,0,1.4,0,1.4,0
		c0,1.4,0,1.4,0,2.8C302.5,62.4,302.5,62.4,301.1,63.8L301.1,63.8z"/>
	<path class="st0" d="M285.6,62.4c0,0,0,0,0-2.8c0-1.4,0-1.4,1.4-1.4c1.4,0,1.4,0,1.4,0c0,1.4,0,2.8,0,2.8
		C288.4,62.4,287,62.4,285.6,62.4L285.6,62.4z"/>
	<path class="st0" d="M309.6,62.4c0,0,0,0,0-1.4c1.4,0,1.4,0,2.8,0c0,1.4,0,1.4,0,1.4C311,62.4,311,62.4,309.6,62.4L309.6,62.4z"/>
	<path class="st0" d="M323.6,62.4l-1.4-1.4c1.4,0,1.4,0,2.8,0C323.6,62.4,323.6,62.4,323.6,62.4L323.6,62.4z"/>
	<path class="st1" d="M246.2,62.4c0-2.8,0-5.6,0-8.4c1.4,0,1.4,0,2.8,0C249,56.8,247.6,58.2,246.2,62.4L246.2,62.4z"/>
	<path class="st1" d="M273,59.6c-8.4-1.4-8.4-1.4-14.1-1.4c0,0,0-1.4,1.4-1.4c0-1.4,0-1.4,1.4-1.4l1.4-1.4v1.4h1.4c0,0,0,1.4,0,2.8
		c1.4-1.4,1.4-1.4,2.8-1.4c0,0,0,0,0,1.4c0,0,0,0,1.4,0c0-1.4,0-1.4,0-1.4s0,0,1.4,0v-1.4c1.4,0,1.4,0,1.4,0c0-1.4,1.4-1.4,1.4-2.8
		l1.4,1.4c1.4-1.4,1.4-1.4,1.4-1.4s0,0,1.4,0V54c0,0,0,0,1.4,0c0,0,0,4.2,0,5.6C275.8,59.6,274.4,59.6,273,59.6L273,59.6z"/>
	<path class="st0" d="M319.4,59.6L319.4,59.6v-1.4c1.4,0,1.4,1.4,1.4,1.4H319.4L319.4,59.6z"/>
	<path class="st0" d="M308.1,56.8c-1.4,0-1.4,0-2.8,0c0-1.4,0-1.4,0-1.4C306.7,55.4,306.7,55.4,308.1,56.8L308.1,56.8L308.1,56.8z"
		/>
	<path class="st1" d="M251.8,56.8c-1.4,0-1.4,0-1.4,0c0-1.4,0-2.8,0-2.8c1.4,0,2.8,1.4,2.8,2.8C251.8,56.8,251.8,56.8,251.8,56.8
		L251.8,56.8z"/>
	<path class="st0" d="M301.1,56.8c-1.4,0-1.4,0-1.4-1.4c1.4,0,2.8,0,2.8,0c0,1.4,1.4,1.4,1.4,1.4C302.5,56.8,301.1,56.8,301.1,56.8
		L301.1,56.8z"/>
	<path class="st0" d="M250.4,49.8c-1.4-1.4-1.4-1.4-1.4-2.8c1.4,0,1.4,0,1.4,0c0-1.4,0-1.4,0-1.4c0-1.4,0-1.4-1.4-1.4
		c0-8.4,14.1-4.2,11.3-14.1c1.4,0,1.4,0,1.4,0v1.4c1.4,0,1.4,0,1.4,0c0,7-8.4,8.4-12.7,11.2h1.4h1.4c0,1.4,0,1.4,0,2.8
		C251.8,47,251.8,48.4,250.4,49.8L250.4,49.8L250.4,49.8z"/>
</g>
</svg>
