<?xml version="1.0" encoding="utf-8"?>
<!-- Generator: Adobe Illustrator 19.2.1, SVG Export Plug-In . SVG Version: 6.00 Build 0)  -->
<svg version="1.1" id="Layer_1" xmlns="http://www.w3.org/2000/svg" xmlns:xlink="http://www.w3.org/1999/xlink" x="0px" y="0px"
	 viewBox="0 0 400 262.7" style="enable-background:new 0 0 400 262.7;" xml:space="preserve">
<style type="text/css">
	.st0{fill-rule:evenodd;clip-rule:evenodd;fill:#231F20;}
	.st1{fill:none;stroke:#231F20;stroke-width:0.5;}
	.st2{fill:#231F20;}
	.st3{fill-rule:evenodd;clip-rule:evenodd;fill:#FFF100;}
	.st4{fill-rule:evenodd;clip-rule:evenodd;fill:#EDE835;}
	.st5{fill-rule:evenodd;clip-rule:evenodd;fill:#FFFFFF;}
	.st6{fill:none;stroke:#231F20;}
</style>
<path class="st0" d="M186.5,33.4c0,0,11.6-8.5,15.9,2c0.8,2,3.2,6.8-2,12.4c0,0-12.9,3.4-14.6-1.9c0,0-1.4,12.7,5.4,19
	c0,0,4.6,6.4,8.7,4.6"/>
<path class="st0" d="M198.4,73.3c0,0-9.2-3.9-13.4-14.1c0,0-4.8-15.8,1.5-25.8"/>
<path class="st1" d="M186.5,33.4c0,0,11.6-8.5,15.9,2c0.8,2,3.2,6.8-2,12.4c0,0-12.9,3.4-14.6-1.9c0,0-1.4,12.7,5.4,19
	c0,0,4.6,6.4,8.7,4.6"/>
<path class="st1" d="M198.4,73.3c0,0-9.2-3.9-13.4-14.1c0,0-4.8-15.8,1.5-25.8"/>
<path class="st0" d="M229.8,34.2c0.7,1.7,2.8,5.8-1.7,10.6c0,0-11,2.9-12.5-1.6c0,0-1.2,10.9,4.6,16.3c0,0,3.9,5.5,7.4,3.9"/>
<path class="st0" d="M226.3,66.6c0,0-7.8-3.3-11.5-12.1c0,0-4.1-13.5,1.3-22.1"/>
<path class="st1" d="M229.8,34.2c0.7,1.7,2.8,5.8-1.7,10.6c0,0-11,2.9-12.5-1.6c0,0-1.2,10.9,4.6,16.3c0,0,3.9,5.5,7.4,3.9"/>
<path class="st1" d="M226.3,66.6c0,0-7.8-3.3-11.5-12.1c0,0-4.1-13.5,1.3-22.1"/>
<path class="st0" d="M222.5,59.7h1.5c9,0,16.6,4.5,24.1,7.5c1.5,1.5,3,3,4.5,3c0,1.5,1.5,3,3,3c0,3,7.5,6,9,9"/>
<path class="st2" d="M219.2,229.7c2.9-0.6,3.3-15.1,3.3-15.1v-21h-1.5c0-3-7.5-3-10.5-4.5v-1.5l-0.1-0.1c0,0-0.6,0-1.4-1.4
	c0,0-1.5,0-1.5-1.5V180c-1.5-1.5-1.5-3-3-4.5h-1.5V174c-1.5-1.5-3-4.5-4.5-6c-1.5-1.5-1.5-1.5-3-3v-6c3,1.5,6,3,7.5,4.5h1.5
	c1.5,1.5,3,1.5,4.5,3c3-1.5,6,1.5,9,1.5l-48.2-64.6c-1.5-3-1.5-3-1.5-4.5c0-1.5-7.5-16.5-7.5-16.5c-3-6-6-13.5-13.6-13.5
	c-6-3-4.5,19.5-4.5,22.5c0,6,0,6,1.5,10.5c-1.5-1.5-3-1.5-3-3c-3-1.5-4.5-3-6-4.5c-1.5-1.5-7.5-3-7.5-4.5c-4.5-3-4.5-3-7.5-4.5
	c-4.5,0-4.5,0-6,3c-1.5,1.5-1.5,7.5-1.5,10.5c3,7.5,6,12,13.6,18v1.1c4.5,3.4,4.7,3.5,6,4.9c12,4.5,12,4.5,18.1,7.5v1.5
	c-3,3-6,6-7.5,10.5h-1.5c0,1.5,0,1.5-4.5,9l-1.5,1.5c0,6-1.5,12-1.5,18c0,1.5,1.5,4.5,1.5,6c1.5,3,1.5,3,1.5,4.5
	c1.5,3,4.5,4.5,6,7.5c1.5,1.5,7.5,3,10.5,4.5c3,1.5,1.5,3,1.5,6c-1.5,0-0.7,0.9-2.2,0.9c0,1.2-0.5,0.9-0.7,0.7
	c0.1,0.2,0.6,0.9-0.5,0.9c0,3-2.5,11.9,0.5,13.4c0.1,1.4,0.2-5.1-1.2-1.2c1.5,0,3.6,3.5,3.6,5c0.1,0,0.4,0,0.8,0l0.2,0.5
	c1.5,0,1,0.7,2.4,0.3c2.7-0.8,3.1-0.5,5.2-3.8c0-6-0.2-6-0.2-7.5c0,0,1.2-0.1-0.3-0.1c0-3-1.5-4.5-1.5-6c-3-1.5-3-4.5-3-7.5
	c4.5-1.5,12-1.5,18.1-4.5v4.6c0,0,0,0.1,0,0.1v1.3c-0.1-0.1-0.3-0.3-0.4-0.4c-0.2,0.2-0.5,0.3-0.9,0.3c-0.1,0-0.2,0-0.3,0v0.1
	c-1.5,1.5-3,1.5-4.5,3c-1.4,4.3-1.5,7.2-1.5,11.3c0,0.1,0,0.2,0.1,0.2c0,0,0,0,0,0c0.1,0.2,0.1,0.3,0.2,0.5h1.3v1.5
	c1.4,1.4,1.5,1.5,1.5,2.7c0,0,0,0,0,0c0.2,0.1,0.4,0.2,0.5,0.4c1.6,0.5,4.1,2.6,5.5-0.1h1.5l1.5-1.5c1.5-1.5,1.5-3,1.5-4.5
	c1.5-4.5,0-6-1.5-10.5c-3-1.5-3-1.5-1.5-4.5v-4.5c1.5-1.5,1.5-1.5,1.5-3h1.5c0-1.5,1.5-3,3-4.5h1.5c0-1.5,0-1.5,3-4.5
	c1.5-4.5,1.5-4.5,4.5-10.5c1.5,0,1.5,0,1.5,1.5h1.5c0,1.5,3,4.5,3,6l-3,1.5v16.5c-3,0-9,3-7.5,7.5c3,7.5,1.5,0.2,3,7.7
	c0,1.5,4,19.4,5.5,20.9"/>
<path class="st0" d="M260.2,152.8"/>
<path class="st3" d="M174.4,214.5c-1.5,0-1.5,0-1.5-1.5c-3-3-3-4.5-3-7.5c1.5-3,3-7.5,6-6c1.5,0,1.5,0,1.5,1.5c0-1.5,0-1.5,1.5-1.5
	c-1.5,0-1.5,1.5-1.5,1.5c3,3,3,6,3,10.5C178.9,213,177.4,214.5,174.4,214.5"/>
<path class="st3" d="M198.4,203.9L198.4,203.9c-1.5,0-3-1.5-4.5-1.5c-3-1.5-1.5-6,1.5-7.5c4.5-1.5,10.5-4.5,13.6-4.5v1.5h1.5
	c1.5,4.5,1.5,4.5,1.5,9c-1.5,0-3,1.5-4.5,1.5C204.5,203.9,201.5,203.9,198.4,203.9"/>
<path class="st4" d="M215,200.9c0-1.5,0-1.5-1.5-6v-3c1.5-1.5,4.5,1.5,6,3v3C219.5,199.4,216.5,199.4,215,200.9"/>
<path class="st3" d="M156.3,191.9v-1.5h-1.5c0-1.5-1.5-1.5-3-3v3c-1.5-1.5-6-4.5-7.5-4.5c-6-6-7.5-13.5-7.5-21
	c1.5,4.5,1.5,4.5,3,7.5l1.5,3c1.5,3,7.5,10.5,9,10.5c1.5,0,1.5,0,1.5,1.5h1.5c1.5,1.5,7.5,3,10.5,3
	C162.3,191.9,162.3,191.9,156.3,191.9"/>
<path class="st5" d="M200,190.4v-4.5c1.5,0,3-1.5,4.5-1.5c0,1.5,0,1.5,1.5,1.5v-1.5c1.5,1.5,1.5,3,3,4.5h-4.5
	C203,190.4,203,190.4,200,190.4"/>
<path class="st3" d="M178.9,185.9L178.9,185.9h-6c-4.5,0-4.5,0-10.5-1.5c-4.5-1.5-4.5-1.5-9-3v-1.5c-7.5-4.5-10.5-12-13.5-19.5
	c-1.5-4.5-1.5-6,1.5-10.5c1.5,6,3,10.5,6,15c1.5,4.5,6,7.5,7.5,10.5h1.5c0,0,1.5,0,1.5,1.5c4.5,1.5,4.5,1.5,6,3
	c4.5,0,10.5,3,13.6,1.5h6C183.4,182.9,180.4,185.9,178.9,185.9"/>
<path class="st5" d="M200,182.9v-6c4.5-1.5,4.5,3,6,6h-3H200z"/>
<path class="st3" d="M174.4,176.9L174.4,176.9c-1.5,0-6-3-7.5-1.5c0-1.5-4.5-3-4.5-3c-1.5,0-3-1.5-3-1.5c-6-7.5-10.5-12-10.5-21
	c-1.5-4.5-4.5-7.5-1.5-10.5c0,0,1.5,0,1.5-1.5c1.5,6,3,10.5,6,15c4.5,9,15.1,16.5,25.6,18h9v3h-1.5
	C186.4,175.4,177.4,175.4,174.4,176.9"/>
<path class="st3" d="M225.5,167.9c-7.5-1.5-13.6-4.5-21.1-6c-1.5-1.5-6-3-6-4.5c0-1.5-1.5-1.5-1.5-1.5s0-1.5-1.5-1.5
	c-4.5-1.5-7.5-7.5-12-10.5c0-1.5-3-7.5-6-9c-1.5-7.5-4.5-15-4.5-22.5c-1.5-3,0-12,1.5-16.5c1.5-4.5,3-9,7.5-13.5c0-1.5,0-3,3-3
	c3-7.5,18.1-15,25.6-16.5c1.5-3,16.6,0,19.6,0c10.5,3,22.6,7.5,28.6,16.5c1.5,1.5,3,3,4.5,4.5c1.5,3,3,4.5,6,7.5
	c1.5,4.5,3,7.5,4.5,12h-1.5c1.5,6,4.5,18,0,22.5v6c-4.5,4.5-6,10.5-10.5,16.5c-1.5,1.5-3,1.5-3,3c-4.5,1.5-15.1,13.5-19.6,12
	C237.6,166.4,228.6,166.4,225.5,167.9"/>
<path class="st3" d="M183.4,166.4c-1.5-1.5-6-3-7.5-1.5c-1.5-1.5-3-3-4.5-3c-4.5-3-10.5-6-12-12c-1.5-1.5-1.5-3-3-4.5
	c0-1.5,0-1.5-1.5-3c1.5,0,0-3,0-4.5c-1.5-1.5,0-3,0-4.5h3c0,3,1.5,6,3,7.5c1.5,4.5,3,6,6,9c1.5,1.5,3,1.5,3,4.5c1.5,0,1.5,0,6,4.5
	c4.5,1.5,10.5,3,15.1,4.5C189.4,164.9,184.9,164.9,183.4,166.4"/>
<path class="st0" d="M203,154.3L203,154.3c1.5-3,1.5-6,3-9h1.5c0,1.5-1.5,3-1.5,4.5c6,0,10.5,1.5,15.1,1.5c1.5,0,1.5,0,6-1.5
	c1.5,0,9,0,10.5-1.5c4.5-1.5,6-3,9-4.5c3-1.5,21.1-16.5,18.1-19.5v-1.5h1.5c1.5,1.5,1.5,3,1.5,4.5h-1.5c-1.5,1.5-1.5,3-1.5,4.5h-1.5
	c-1.5,3-6,6-7.5,9h-1.5c-1.5,4.5-10.5,7.5-13.6,7.5c-3,1.5-6,3-9,3c-6,3-12,1.5-18.1,1.5c-3,0-4.5-1.5-7.5-1.5
	C206,152.8,206,154.3,203,154.3"/>
<path class="st3" d="M184.9,148.3c-4.5-3-9-7.5-12-12c-1.5-1.5-3-4.5-3-6c0-1.5,1.5,0,3,0c3,4.5,4.5,9,7.5,13.5
	C181.9,143.8,184.9,148.3,184.9,148.3"/>
<path class="st0" d="M196.9,134.8c-4.5-3-9-4.5-12-7.5c-3-7.5-3-7.5-4.5-9c0-10.5,0-19.5,9-27.1c6,0,9,0,15.1,3
	c3,4.5,7.5,10.5,9,16.5c0,0,0,1.5,1.5,3c0,6-3,10.5-6,15C207.5,133.3,200,133.3,196.9,134.8"/>
<path class="st5" d="M200,130.3c-1.5,0-1.5,0-6-1.5c0,0-4.5-1.5-6-1.5c0-3-1.5-4.5-3-6v-1.5c-1.5-4.5-1.5-10.5-1.5-15h1.5
	c0-1.5,0-3,1.5-4.5c3-6,4.5-7.5,12-6c3,1.5,3,1.5,4.5,3c3,0,6,9,7.5,10.5c1.5,6,1.5,16.5-4.5,21C203,130.3,201.5,130.3,200,130.3"/>
<path class="st5" d="M159.3,128.8h-1.5c-3,0-4.5-1.5-7.5-1.5c-6-1.5-10.5-4.5-16.6-7.5c-10.5-7.5-19.6-15-19.6-28.6
	c1.5-1.5,3-1.5,3-3c9,0,16.6,7.5,22.6,13.5c3,1.5,7.5,4.5,10.5,9h1.5v-1.5c-3-3-3-3-4.5-6c-3-9-6-22.5,0-31.6c0,0,1.5,0,3-1.5
	c0,1.5,1.5,1.5,4.5,6c1.5,4.5,4.5,7.5,6,12c4.5,4.5,6,12,7.5,18h1.5c0,7.5,3,15,3,21C168.3,127.3,163.8,127.3,159.3,128.8"/>
<path class="st0" d="M234.6,125.8c-1.5-1.5-9-3-10.5-6c-9-1.5-9-18-9-25.6c1.5-1.5,1.5-3,1.5-4.5v1.5c1.5-1.5,1.5-3,1.5-3
	c1.5-1.5,1.5-3,4.5-4.5c1.5,0,3-1.5,6-1.5c3-1.5,13.6-3,15.1,0c3,0,4.5,3,7.5,3c1.5,3,1.5,3,1.5,4.5l1.5-1.5c3,4.5,3,9,3,15
	c3,1.5-1.5,10.5-1.5,13.5c-1.5,1.5-3,3-4.5,6C246.6,125.8,240.6,124.3,234.6,125.8"/>
<path class="st5" d="M239.1,124.3c-1.5-1.5-1.5-1.5-7.5-3c-1.5-1.5-9-1.5-9-6c-6-4.5-4.5-16.5-4.5-22.5c3-3,4.5-4.5,6-7.5
	c4.5-1.5,9-3,13.6-3c3,1.5,6,1.5,9,4.5c3,3,6,7.5,7.5,12c1.5,4.5,1.5,9,1.5,13.5h-1.5C252.6,119.8,245.1,122.8,239.1,124.3"/>
<path class="st0" d="M203,113.8c-4.5-1.5-4.5-3-3-7.5h3C207.5,107.8,207.5,112.3,203,113.8"/>
<path class="st5" d="M201.5,112.3L201.5,112.3H200v-3h3v1.5C203,112.3,203,112.3,201.5,112.3"/>
<path class="st0" d="M225.5,107.8c-3-1.5-4.5-3-3-6c1.5-3,3-1.5,4.5-1.5C230.1,103.2,228.6,106.2,225.5,107.8"/>
<path class="st5" d="M224,104.7h-1.5v-3h1.5c1.5,0,1.5,0,3,1.5C225.5,104.7,225.5,104.7,224,104.7"/>
<path class="st3" d="M274.1,114.1c0,29.5-22.9,53.4-51.2,53.4s-51.2-23.9-51.2-53.4s22.9-53.4,51.2-53.4S274.1,84.5,274.1,114.1"/>
<ellipse class="st6" cx="222.8" cy="114.1" rx="51.2" ry="53.4"/>
<path class="st5" d="M255.4,103.1c0,11.4-9.3,20.7-20.7,20.7c-11.4,0-20.7-9.3-20.7-20.7s9.3-20.7,20.7-20.7
	C246.1,82.4,255.4,91.7,255.4,103.1"/>
<circle class="st6" cx="234.7" cy="103.1" r="20.7"/>
<path class="st5" d="M210.6,113.3c0,10.1-6.8,18.3-15.3,18.3c-8.4,0-15.3-8.2-15.3-18.3S186.9,95,195.3,95
	C203.8,95,210.6,103.2,210.6,113.3"/>
<ellipse class="st6" cx="195.3" cy="113.3" rx="15.3" ry="18.3"/>
<path class="st0" d="M227.9,104.7c0,1.7-1.4,3.2-3.1,3.2c-1.7,0-3.1-1.4-3.1-3.2c0-1.7,1.4-3.2,3.1-3.2
	C226.6,101.6,227.9,103,227.9,104.7"/>
<path class="st0" d="M204.3,111.4c0,1.6-1.2,2.9-2.8,2.9c-1.5,0-2.8-1.3-2.8-2.9c0-1.6,1.2-2.9,2.8-2.9
	C203,108.5,204.3,109.8,204.3,111.4"/>
<path class="st0" d="M262.5,122l-0.8,0.2c-3.9,18.1-13.6,23.4-30.4,29.3c-7.1,2.5-15.6,2.7-23.4,1c-3.1-0.7-6.7-1.6-9.9-3.6
	c0.7,0.6,0.5,1.6-0.2,2.1c7.7,4.9,21.3,5.8,35.3,1.5C252.7,146.6,265.8,132.9,262.5,122"/>
<path class="st5" d="M202.7,111.4c0,0.6-0.5,1.1-1.1,1.1c-0.6,0-1.1-0.5-1.1-1.1c0-0.6,0.5-1.1,1.1-1.1
	C202.2,110.2,202.7,110.7,202.7,111.4"/>
<path class="st5" d="M225.9,104.8c0,0.6-0.5,1.1-1.1,1.1c-0.6,0-1.1-0.5-1.1-1.1c0-0.6,0.5-1.1,1.1-1.1
	C225.4,103.7,225.9,104.2,225.9,104.8"/>
<ellipse transform="matrix(0.9825 -0.1862 0.1862 0.9825 -36.3461 32.8401)" class="st6" cx="156.7" cy="209.9" rx="6.7" ry="10"/>
<path class="st3" d="M163,207.8c1.8,4.7,0.5,9.6-2.9,10.9c-3.4,1.3-7.6-1.5-9.4-6.2c-1.8-4.7-0.5-9.6,2.9-10.9
	C157,200.3,161.2,203.1,163,207.8"/>
<ellipse transform="matrix(0.9339 -0.3575 0.3575 0.9339 -64.7555 69.9473)" class="st6" cx="156.8" cy="210.1" rx="6.6" ry="9.1"/>
<path class="st3" d="M183,206.6c0.2,5.6-3,10.1-7.1,10.3c-4,0.1-7.5-4.3-7.6-9.8c-0.2-5.6,3-10.1,7.1-10.3
	C179.4,196.7,182.8,201.1,183,206.6"/>
<ellipse transform="matrix(0.9996 -2.779580e-02 2.779580e-02 0.9996 -5.6816 4.9625)" class="st6" cx="175.7" cy="206.8" rx="7.3" ry="10.1"/>
</svg>
