<?xml version="1.0" encoding="UTF-8"?>
<svg width="297px" height="204px" viewBox="0 0 297 204" version="1.1" xmlns="http://www.w3.org/2000/svg" xmlns:xlink="http://www.w3.org/1999/xlink">
    <!-- Generator: Sketch 47 (45396) - http://www.bohemiancoding.com/sketch -->
    <title>Potz Illustration/Normal</title>
    <desc>Created with Sketch.</desc>
    <defs>
        <rect id="path-1" x="0" y="0" width="283" height="190"></rect>
        <mask id="mask-2" maskContentUnits="userSpaceOnUse" maskUnits="objectBoundingBox" x="0" y="0" width="283" height="190" fill="white">
            <use xlink:href="#path-1"></use>
        </mask>
    </defs>
    <g id="Web" stroke="none" stroke-width="1" fill="none" fill-rule="evenodd">
        <g id="Pots" transform="translate(-692.000000, -2142.000000)">
            <g id="Create" transform="translate(0.000000, 1759.000000)">
                <g id="Tool" transform="translate(250.000000, 18.000000)">
                    <g id="Product" transform="translate(274.000000, 134.000000)">
                        <g id="Potz-Illustration/Upload" transform="translate(175.000000, 238.000000)">
                            <rect id="Rectangle" fill="#FFFFFF" fill-rule="evenodd" opacity="0.200000003" x="-6.36977492" y="-6.36363636" width="295.73955" height="202.727273"></rect>
                            <use id="Rectangle" stroke="#14486E" mask="url(#mask-2)" stroke-width="6" opacity="0.200000003" stroke-dasharray="2" xlink:href="#path-1"></use>
                            <text id="Enoyez-nous-votre-vi" font-family="Nunito-Bold, Nunito" font-size="14" font-weight="bold" fill="#2C6FA6">
                                <tspan x="60.797" y="102.5">Enoyez-nous votre visuel</tspan>
                                <tspan x="77.464" y="121.5">(logo, illustration ...)</tspan>
                                <tspan x="28.464" y="140.5">et nous l'imprimerons sur votre pot</tspan>
                                <tspan x="141.5" y="159.5"></tspan>
                            </text>
                            <g id="mail-send" stroke-width="1" fill-rule="evenodd" transform="translate(109.196141, 36.363636)">
                                <path d="M21.7132433,20.9090909 L6.76054112,20.9090909 C6.04253593,20.9090909 5.45980707,20.2990909 5.45980707,19.5454545 C5.45980707,18.7925 6.04253593,18.1818182 6.76054112,18.1818182 L21.7133753,18.1818182 C21.7137438,10.5677405 21.713928,6.75888833 21.713928,6.75526171 C21.713928,6.73035813 21.7156715,6.70523416 21.7224274,6.62258953 C21.7250426,6.60033058 21.7291834,6.5769697 21.7437849,6.49344353 C21.7479256,6.47294766 21.7538098,6.45134986 21.7769108,6.36870523 C21.7836667,6.34887052 21.7912944,6.32903581 21.822023,6.24815427 C21.8305224,6.2292011 21.8398936,6.21112948 21.8791216,6.13201102 C21.8884927,6.11482094 21.8993894,6.09829201 21.9479886,6.02093664 C21.9591032,6.0061708 21.9702178,5.9907438 22.0288419,5.91669421 C22.0332006,5.91162534 22.0364696,5.90545455 22.1166691,5.82280992 C22.1319244,5.80826446 22.1471798,5.79460055 22.2110343,5.73950413 C22.2289048,5.72473829 22.2476471,5.71107438 22.3141168,5.66545455 C22.3337308,5.65245179 22.3531269,5.64033058 22.4851946,5.57157025 C22.5039369,5.56297521 22.5226791,5.55526171 22.6630283,5.5061157 C22.6835141,5.50016529 22.7039998,5.49487603 22.8528484,5.46644628 C22.8724624,5.46402204 22.8920764,5.46137741 23.0206571,5.45454545 L64.210084,5.45454545 C64.9318797,5.45454545 65.5176849,6.04672176 65.5176849,6.7768595 L65.5176849,35.0404408 C65.5176849,35.0842975 65.5150697,35.1281543 65.5109289,35.172011 C65.5091855,35.1900826 65.5056985,35.2072727 65.4921867,35.3002755 C65.487828,35.3209917 65.4819438,35.341708 65.4614581,35.4252342 C65.4547021,35.4459504 65.4470744,35.4655647 65.4180893,35.5473278 C65.4104616,35.566281 65.4010905,35.5843526 65.3627342,35.664573 C65.353363,35.6826446 65.3431202,35.6989532 65.2971362,35.7756474 C65.2853678,35.793719 65.271638,35.8109091 65.2206416,35.8796694 C65.1975406,35.9080992 65.1737859,35.9347658 65.1345578,35.9761983 C65.1304171,35.9812672 65.1251867,35.9847934 65.0393209,36.0639118 C65.0238476,36.0760331 65.0077206,36.0872727 64.9362384,36.1406061 C64.9174961,36.1533884 64.8987538,36.1637466 64.7684296,36.2353719 C64.7490335,36.2448485 64.7302912,36.2549862 64.5888524,36.3067769 C64.5701101,36.3127273 64.5513679,36.317135 64.3981606,36.347989 C64.3778928,36.3515152 64.3591505,36.3550413 64.210084,36.3636364 L23.0206571,36.3636364 C22.2979897,36.3636364 21.7130563,35.7721212 21.7130563,35.0413223 L21.7130563,27.4190634 L14.9571185,27.4190634 C14.2344511,27.4190634 13.6495177,26.8275482 13.6495177,26.0967493 C13.6495177,25.3666116 14.2344511,24.7744353 14.9571185,24.7744353 L21.7130563,24.7744353 C21.7131224,23.4083071 21.7131848,22.119859 21.7132433,20.9090909 Z M8.6090871,12.7272727 C7.87528903,12.7272727 7.27974277,12.1165909 7.27974277,11.3636364 C7.27974277,10.61 7.87528903,10 8.6090871,10 L18.6899483,10 C19.4237463,10 20.0192926,10.61 20.0192926,11.3636364 C20.0192926,12.1165909 19.4237463,12.7272727 18.6899483,12.7272727 L8.6090871,12.7272727 Z M16.0219339,30 C16.7215691,30 17.2893891,30.6106818 17.2893891,31.3636364 C17.2893891,32.1163636 16.7215691,32.7272727 16.0219339,32.7272727 L6.72726229,32.7272727 C6.02762701,32.7272727 5.45980707,32.1163636 5.45980707,31.3636364 C5.45980707,30.6106818 6.02762701,30 6.72726229,30 L16.0219339,30 Z" id="Fill-1-Copy" fill="#D3E2ED"></path>
                                <path d="M59.005695,30.8839669 C59.0277063,30.8788981 59.0499355,30.8729477 59.0721647,30.8667769 C59.0915608,30.8625895 59.1103031,30.8581818 59.1290453,30.8522314 C59.1512746,30.8453994 59.1724141,30.8374656 59.1937716,30.8297521 C59.2125139,30.8229201 59.2312561,30.8169697 59.2499984,30.8083747 C59.2704842,30.8004408 59.2892264,30.790303 59.3086225,30.7808264 C59.3282365,30.772011 59.3469788,30.763416 59.3657211,30.7532782 C59.3844634,30.7429201 59.4023339,30.7316804 59.4202045,30.7204408 C59.4389467,30.7092011 59.457689,30.698843 59.4764313,30.6860606 C59.4951736,30.6730579 59.5130441,30.6585124 59.5317864,30.6446281 C59.5479135,30.6327273 59.5640406,30.6214876 59.5795138,30.6093664 C59.6076273,30.5862259 59.6339972,30.5604408 59.6603672,30.5353168 C59.6653796,30.5302479 59.67061,30.5267218 59.6747508,30.5216529 C59.6799812,30.5163636 59.6841219,30.5112948 59.6884806,30.5060055 C59.7139788,30.4802204 59.7377335,30.4535537 59.7608345,30.425124 C59.7743464,30.4088154 59.7863327,30.3916253 59.7989728,30.3744353 C59.8118309,30.3563636 59.8255607,30.3391736 59.8373291,30.3211019 C59.8501872,30.3012672 59.8613018,30.2814325 59.8730702,30.2607163 C59.8833131,30.2444077 59.893556,30.2280992 59.9029271,30.2100275 C59.9140417,30.1901928 59.9234129,30.168595 59.932784,30.1478788 C59.9412834,30.1298072 59.9506545,30.1117355 59.9582822,30.0927824 C59.9667816,30.073168 59.9726658,30.0524518 59.9802935,30.0317355 C59.9872674,30.0110193 59.994895,29.991405 60.001651,29.9706887 C60.0077531,29.9499725 60.0118939,29.9292562 60.0169063,29.9078788 C60.0221367,29.8871625 60.0280209,29.8664463 60.0323796,29.84573 C60.0373921,29.8208264 60.0400073,29.7959229 60.0434942,29.7710193 C60.0458915,29.7527273 60.0493784,29.7355372 60.0511219,29.7174656 C60.0552626,29.6736088 60.0578778,29.6297521 60.0578778,29.5858953 L60.0578778,1.32231405 C60.0578778,0.592176309 59.4720726,0 58.750277,0 L17.5608501,0 C17.5488637,0 17.5377491,0.00154269972 17.5268524,0.00154269972 C17.502008,0.00242424242 17.4773815,0.00330578512 17.4518833,0.00595041322 C17.4322693,0.00683195592 17.4126553,0.00947658402 17.3930413,0.0119008264 C17.37103,0.0145454545 17.3488008,0.0180716253 17.3267895,0.0222589532 C17.3063038,0.025785124 17.285818,0.0299724518 17.2653323,0.035261708 C17.2441927,0.0403305785 17.223707,0.0456198347 17.2032212,0.0515702479 C17.1829534,0.0575206612 17.1624677,0.0636914601 17.1428537,0.070523416 C17.1223679,0.0773553719 17.1018822,0.0850688705 17.0816144,0.0927823691 C17.0628721,0.100716253 17.0441298,0.108429752 17.0253875,0.117024793 C17.0049018,0.125619835 16.984416,0.135977961 16.9650199,0.146336088 C16.9471494,0.155812672 16.9299327,0.164407713 16.9138056,0.17476584 C16.8933198,0.185785124 16.8739237,0.197906336 16.8543097,0.210909091 C16.8373109,0.221046832 16.8218376,0.232286501 16.8057106,0.243526171 C16.78784,0.256528926 16.7690977,0.270192837 16.7512272,0.284958678 C16.7351001,0.29862259 16.718973,0.311625344 16.702628,0.325289256 C16.6873727,0.340055096 16.6721173,0.353719008 16.656862,0.368264463 C16.6396453,0.384793388 16.6226465,0.402865014 16.6065194,0.420055096 C16.59802,0.428650138 16.5895206,0.436363636 16.5818929,0.44584022 C16.5766625,0.450909091 16.5733935,0.45707989 16.5690348,0.46214876 C16.552036,0.481101928 16.5367807,0.501818182 16.5213074,0.521652893 C16.5104107,0.536198347 16.4992961,0.551625344 16.4881815,0.566391185 C16.4755414,0.586225895 16.4626833,0.606721763 16.4498252,0.626556474 C16.4395823,0.643746556 16.4286857,0.660275482 16.4193145,0.677465565 C16.4081999,0.697300275 16.3988288,0.717796143 16.3894576,0.737630854 C16.3800865,0.756584022 16.3707154,0.774655647 16.3622159,0.793608815 C16.3537165,0.813443526 16.3460889,0.83415978 16.339115,0.854655647 C16.3314873,0.874490358 16.3238597,0.894325069 16.3171037,0.91415978 C16.3112195,0.934876033 16.3051174,0.955592287 16.3001049,0.976088154 C16.2940028,0.996804408 16.2881186,1.0184022 16.2839778,1.03889807 C16.2796192,1.05873278 16.2761322,1.07944904 16.2728632,1.09928375 C16.2693763,1.12242424 16.2652356,1.14578512 16.2626203,1.16804408 C16.2600051,1.18699725 16.2591334,1.20683196 16.2576079,1.22578512 C16.2558644,1.25068871 16.2541209,1.27581267 16.2541209,1.30071625 C16.2541209,1.30754821 16.2532492,1.31438017 16.2532492,1.32231405 L16.2532492,9.47658402 C16.2532492,10.2065014 16.8381827,10.7988981 17.5608501,10.7988981 C18.2826457,10.7988981 18.8684509,10.2065014 18.8684509,9.47658402 L18.8684509,4.25873278 L30.4938942,14.6675482 C30.4333087,14.7107438 30.3746846,14.7579063 30.3202013,14.8130028 L18.8684509,26.3944904 L18.8684509,17.7049036 C18.8684509,16.9738843 18.2826457,16.3825895 17.5608501,16.3825895 C16.8381827,16.3825895 16.2532492,16.9738843 16.2532492,17.7049036 L16.2532492,19.3198898 L9.49731146,19.3198898 C8.77464406,19.3198898 8.18971061,19.9120661 8.18971061,20.6422039 C8.18971061,21.3730028 8.77464406,21.9645179 9.49731146,21.9645179 L16.2532492,21.9645179 L16.2532492,29.5867769 C16.2532492,30.3175758 16.8381827,30.9090909 17.5608501,30.9090909 L58.750277,30.9090909 C58.792774,30.9090909 58.8361427,30.9064463 58.8788577,30.9029201 C58.8993435,30.9004959 58.9180857,30.8969697 58.9383535,30.8934435 C58.9605828,30.8910193 58.982594,30.8883747 59.005695,30.8839669 Z M57.4426761,26.3944904 L45.990054,14.8130028 C45.9824264,14.8061708 45.9747987,14.8002204 45.967171,14.7925069 L54.5772868,7.40606061 C55.1280047,6.93355372 55.1951282,6.09917355 54.7278788,5.54225895 C54.2612832,4.98534435 53.436405,4.91636364 52.8848154,5.38997245 L38.1734341,18.0112397 L21.0103011,2.6446281 L57.4426761,2.6446281 L57.4426761,26.3944904 Z M32.1700206,16.6838567 C32.2628603,16.5890909 32.3387011,16.4839669 32.398197,16.3722314 L37.2888421,20.7515152 C37.5357607,20.9727824 37.8456621,21.0838567 38.1555635,21.0838567 C38.4560938,21.0838567 38.7574958,20.9787328 39.0017992,20.7695868 L43.985284,16.4934435 C44.0312679,16.5597796 44.0822644,16.6243526 44.1411064,16.6838567 L55.5928568,28.265124 L20.7173985,28.265124 L32.1700206,16.6838567 Z M1.30073405,15.4545455 C0.582728853,15.4545455 0,14.8445455 0,14.0909091 C0,13.3379545 0.582728853,12.7272727 1.30073405,12.7272727 L23.2683978,12.7272727 C23.9872701,12.7272727 24.5691318,13.3379545 24.5691318,14.0909091 C24.5691318,14.8445455 23.9872701,15.4545455 23.2683978,15.4545455 L1.30073405,15.4545455 Z M3.14928002,7.27272727 C2.41548195,7.27272727 1.81993569,6.66204545 1.81993569,5.90909091 C1.81993569,5.15545455 2.41548195,4.54545455 3.14928002,4.54545455 L13.2301412,4.54545455 C13.9639393,4.54545455 14.5594855,5.15545455 14.5594855,5.90909091 C14.5594855,6.66204545 13.9639393,7.27272727 13.2301412,7.27272727 L3.14928002,7.27272727 Z M10.5621268,24.5454545 C11.2617621,24.5454545 11.829582,25.1561364 11.829582,25.9090909 C11.829582,26.6618182 11.2617621,27.2727273 10.5621268,27.2727273 L1.26745521,27.2727273 C0.567819936,27.2727273 0,26.6618182 0,25.9090909 C0,25.1561364 0.567819936,24.5454545 1.26745521,24.5454545 L10.5621268,24.5454545 Z" id="Fill-1" fill="#14486E"></path>
                            </g>
                        </g>
                    </g>
                </g>
            </g>
        </g>
    </g>
</svg>