<svg xmlns="http://www.w3.org/2000/svg" width="115" height="115" viewBox="0 0 115 115">
    <g fill="none" fill-rule="evenodd">
        <path d="M0 0h115v115H0z"/>
        <path fill="#D1E2ED" fill-rule="nonzero" d="M30.576 52.676l2.1 24.63a5 5 0 0 0 4.981 4.575H82.36a5 5 0 0 0 4.976-4.505l2.46-24.7h3.975V45.53c0-2.015-1.494-3.669-3.4-3.846v.335c0-2.52-1.98-4.564-4.42-4.564H33.583c-2.442 0-4.42 2.043-4.42 4.564v-.335c-1.907.177-3.401 1.831-3.401 3.846v7.146h4.813zm67.244-3.993c3.252 2.74 4.918 6.756 5.015 11.94.098 5.215-1.582 9.266-5.046 12.015a1.358 1.358 0 0 1-1.91-.223A1.366 1.366 0 0 1 96.1 70.5c2.757-2.189 4.097-5.419 4.014-9.826-.083-4.44-1.437-7.705-4.045-9.903a1.366 1.366 0 0 1-.166-1.921 1.358 1.358 0 0 1 1.916-.167zm-77.013 1.819a1.358 1.358 0 0 1 1.916.166 1.366 1.366 0 0 1-.166 1.921c-2.608 2.198-3.962 5.463-4.045 9.903-.083 4.407 1.257 7.637 4.014 9.826.59.467.689 1.325.223 1.915-.467.59-1.322.69-1.911.223-3.463-2.749-5.144-6.8-5.046-12.015.097-5.184 1.763-9.2 5.015-11.94zm-4.524-3.645a1.358 1.358 0 0 1 1.914.184c.478.581.396 1.44-.183 1.92-3.775 3.123-5.729 7.748-5.848 13.986-.118 6.204 1.82 10.794 5.817 13.909.593.462.7 1.319.24 1.913a1.358 1.358 0 0 1-1.91.24c-4.712-3.673-7-9.09-6.867-16.114.134-6.99 2.408-12.374 6.837-16.038zm87.875-1.818c4.429 3.664 6.703 9.047 6.836 16.037.134 7.024-2.154 12.442-6.867 16.115a1.358 1.358 0 0 1-1.908-.24 1.366 1.366 0 0 1 .239-1.913c3.996-3.115 5.935-7.705 5.817-13.91-.12-6.237-2.073-10.862-5.848-13.985a1.366 1.366 0 0 1-.184-1.92 1.358 1.358 0 0 1 1.915-.184z"/>
        <path fill="#14486E" fill-rule="nonzero" d="M23.042 45.727h24.474l4.358 1.66a7.77 7.77 0 0 0 5.207.115l5.363-1.775h24.073l-2.897 28.26a7 7 0 0 1-6.964 6.286h-44.17a7 7 0 0 1-6.973-6.388l-2.47-28.158zm10.873 31.7h41.337a5 5 0 0 0 4.973-4.49l2.498-24.363H62.354l-4.79 1.585a9.288 9.288 0 0 1-6.224-.138l-3.801-1.447H26.803l2.132 24.29a5 5 0 0 0 4.98 4.562zM92.38 44.228c3.252 2.74 4.918 6.756 5.015 11.939.098 5.216-1.582 9.266-5.045 12.015a1.358 1.358 0 0 1-1.911-.222 1.366 1.366 0 0 1 .222-1.916c2.757-2.188 4.097-5.419 4.014-9.826-.083-4.44-1.437-7.705-4.045-9.902a1.366 1.366 0 0 1-.166-1.922 1.358 1.358 0 0 1 1.916-.166zm-77.013 1.818a1.358 1.358 0 0 1 1.917.167 1.366 1.366 0 0 1-.166 1.92c-2.608 2.198-3.962 5.463-4.046 9.903-.082 4.408 1.258 7.638 4.015 9.826.589.468.688 1.325.222 1.916-.466.59-1.322.69-1.91.222-3.464-2.749-5.144-6.799-5.047-12.015.098-5.183 1.763-9.199 5.015-11.939zm-4.524-3.644a1.358 1.358 0 0 1 1.915.184c.478.58.396 1.44-.184 1.92-3.775 3.122-5.729 7.747-5.848 13.985-.118 6.205 1.821 10.795 5.817 13.91.593.461.7 1.318.24 1.913a1.358 1.358 0 0 1-1.91.24c-4.711-3.673-7-9.091-6.866-16.115.133-6.99 2.407-12.373 6.836-16.037zm87.875-1.818c4.43 3.664 6.703 9.047 6.837 16.037.134 7.024-2.155 12.442-6.867 16.114a1.358 1.358 0 0 1-1.91-.24 1.366 1.366 0 0 1 .24-1.913c3.996-3.114 5.935-7.704 5.817-13.909-.119-6.238-2.073-10.863-5.848-13.986a1.366 1.366 0 0 1-.183-1.92 1.358 1.358 0 0 1 1.914-.183zm-74.836 4.6h23.37l.569.206c2.898 1.05 5.023 1.556 6.506 1.556 1.483 0 3.608-.505 6.507-1.556l.569-.207h23.37v-4.329c0-.833-.726-1.508-1.62-1.508h-1.62v-1.508c0-1.166-1.015-2.112-2.267-2.112H29.387c-1.252 0-2.267.946-2.267 2.112v1.508H25.5c-.894 0-1.619.675-1.619 1.508v4.33zm38.017 3.133c-3.26 1.31-5.706 1.955-7.572 1.955-1.865 0-4.312-.645-7.571-1.955l-.24-.097H20.322v-7.146c0-2.014 1.494-3.669 3.4-3.846v.335c0-2.52 1.98-4.564 4.421-4.564H80.51c2.44 0 4.42 2.044 4.42 4.564v-.335c1.907.177 3.4 1.832 3.4 3.846v7.146H62.139l-.24.097z"/>
    </g>
</svg>
