<svg xmlns="http://www.w3.org/2000/svg" width="115" height="115" viewBox="0 0 115 115">
    <g fill="none" fill-rule="evenodd">
        <path d="M0 0h115v115H0z"/>
        <path fill="#CFE2ED" d="M69.735 92.545h27.094a7 7 0 0 0 6.985-6.533L106 53.272H59L59.27 58H18l2.47 28.157a7 7 0 0 0 6.974 6.388h42.291zm-.16-49.227c-3.259 1.31-5.705 1.955-7.57 1.955-1.867 0-4.313-.645-7.572-1.955l-.24-.097H28v-7.146c0-2.014 1.494-3.669 3.4-3.846v.335c0-2.52 1.98-4.564 4.421-4.564h52.367c2.44 0 4.42 2.044 4.42 4.564v-.335c1.906.177 3.4 1.832 3.4 3.846v7.146H69.816l-.24.097z"/>
        <path fill="#14486E" d="M51.27 52L51 47.273h47l-2.186 32.739a7 7 0 0 1-6.985 6.533H19.445a7 7 0 0 1-6.974-6.388L10 52h41.27zm18.247 31.31h18.265a5 5 0 0 0 4.99-4.677l1.823-28.124H54.38L54.463 52h19.012l-2.898 28.26a6.976 6.976 0 0 1-1.06 3.05zm-48.644.39h41.336a5 5 0 0 0 4.974-4.491l2.498-24.363H13.76l2.131 24.29a5 5 0 0 0 4.981 4.563zm2.686-49.516h23.37l.569.207c2.898 1.05 5.023 1.556 6.506 1.556 1.483 0 3.608-.505 6.507-1.556l.569-.207h23.37v-4.329c0-.833-.726-1.508-1.62-1.508h-1.62v-1.508c0-1.166-1.015-2.112-2.267-2.112H29.065c-1.252 0-2.267.946-2.267 2.112v1.508h-1.62c-.894 0-1.619.675-1.619 1.508v4.33zm38.017 3.134c-3.26 1.31-5.706 1.955-7.572 1.955-1.866 0-4.312-.645-7.571-1.955l-.24-.097H20v-7.146c0-2.014 1.494-3.669 3.4-3.846v.335c0-2.52 1.98-4.564 4.421-4.564h52.367c2.44 0 4.42 2.044 4.42 4.564v-.335c1.906.177 3.4 1.832 3.4 3.846v7.146H61.816l-.24.097z"/>
    </g>
</svg>
