<svg xmlns="http://www.w3.org/2000/svg" width="115" height="115" viewBox="0 0 115 115">
    <g fill="none" fill-rule="evenodd">
        <path d="M0 0h115v115H0z"/>
        <g fill-rule="nonzero">
            <path fill="#CDE2ED" d="M21.068 50L20 38h1.068L20 26h31.616l5.63 2.113c2.16.81 4.534.863 6.727.147L70.901 26H102l-1.248 12H102l-1.248 12H102l-3.923 37.724A7 7 0 0 1 91.115 94H30.32a7 7 0 0 1-6.973-6.38L20 50h1.068z"/>
            <path fill="#14486E" d="M94.752 33L96 21H64.9l-6.927 2.26a10.172 10.172 0 0 1-6.727-.147L45.616 21H14l1.068 12h2.647l-.835-9.38h28.255l5.179 1.943a12.825 12.825 0 0 0 8.482.186l6.527-2.13h27.754L92.1 33h2.651zm0 12L96 33H64.9l-6.927 2.26a10.172 10.172 0 0 1-6.727-.147L45.616 33H14l1.068 12h2.647l-.835-9.38h28.255l5.179 1.943a12.825 12.825 0 0 0 8.482.186l6.527-2.13h27.754L92.1 45h2.651zM14 45h31.616l5.63 2.113c2.16.81 4.534.863 6.727.147L64.901 45H96l-3.923 37.724A7 7 0 0 1 85.115 89H24.32a7 7 0 0 1-6.973-6.38L14 45zm10.905 41.38h59.634a5 5 0 0 0 4.973-4.482l3.565-34.279H65.323l-6.527 2.13c-2.766.902-5.759.837-8.482-.186l-5.18-1.944H16.88l3.045 34.205a5 5 0 0 0 4.98 4.557z"/>
        </g>
    </g>
</svg>
