<svg xmlns="http://www.w3.org/2000/svg" width="115" height="115" viewBox="0 0 115 115">
    <g fill="none" fill-rule="evenodd">
        <path d="M0 0h115v115H0z"/>
        <g fill-rule="nonzero">
            <path fill="#D3E2ED" d="M18.958 46.38h31.655l5.636 2.142c2.163.823 4.54.875 6.736.15l6.935-2.293h31.137l-3.843 37.438A8 8 0 0 1 89.256 91H30.207a8 8 0 0 1-7.97-7.3l-3.279-37.32zm50.839 2.933c-4.217 1.652-7.383 2.465-9.797 2.465-2.414 0-5.58-.813-9.797-2.465l-.311-.122H16v-9.01c0-2.54 1.933-4.625 4.4-4.849v.423c0-3.178 2.56-5.755 5.72-5.755h67.76c3.16 0 5.72 2.577 5.72 5.755v-.423c2.467.224 4.4 2.31 4.4 4.85v9.01H70.108l-.311.121z"/>
            <path fill="#14486E" d="M13.64 41.704h31.748l.773.306c3.938 1.558 6.825 2.307 8.839 2.307 2.014 0 4.901-.749 8.839-2.307l.773-.306H96.36v-6.418c0-1.235-.985-2.236-2.2-2.236h-2.2v-2.236c0-1.73-1.379-3.13-3.08-3.13H21.12c-1.701 0-3.08 1.4-3.08 3.13v2.236h-2.2c-1.215 0-2.2 1-2.2 2.236v6.418zm51.157 2.806C60.58 46.18 57.414 47 55 47c-2.414 0-5.58-.82-9.797-2.49l-.311-.123H11v-9.101c0-2.566 1.933-4.674 4.4-4.9v.428c0-3.211 2.56-5.814 5.72-5.814h67.76c3.16 0 5.72 2.603 5.72 5.814v-.428c2.467.226 4.4 2.334 4.4 4.9v9.101H65.108l-.311.123z"/>
            <path fill="#14486E" d="M14 42h31.616l5.63 2.113c2.16.81 4.534.863 6.727.147L64.901 42H96l-3.923 37.724A7 7 0 0 1 85.115 86H24.32a7 7 0 0 1-6.973-6.38L14 42zm10.905 41.38h59.634a5 5 0 0 0 4.973-4.482l3.565-34.279H65.323l-6.527 2.13c-2.766.902-5.759.837-8.482-.186l-5.18-1.944H16.88l3.045 34.205a5 5 0 0 0 4.98 4.557z"/>
        </g>
    </g>
</svg>
