<?xml version="1.0" encoding="UTF-8"?>
<svg width="19px" height="25px" viewBox="0 0 19 25" version="1.1" xmlns="http://www.w3.org/2000/svg" xmlns:xlink="http://www.w3.org/1999/xlink">
    <!-- Generator: Sketch 47 (45396) - http://www.bohemiancoding.com/sketch -->
    <title>Icon-Devis</title>
    <desc>Created with Sketch.</desc>
    <defs></defs>
    <g id="Symbols" stroke="none" stroke-width="1" fill="none" fill-rule="evenodd" opacity="0.300000012">
        <g id="Devis-menu/Normal" transform="translate(-36.000000, -27.000000)" fill="#FFFFFF">
            <g id="Devis-menu">
                <g id="Icon-Devis" transform="translate(36.000000, 27.000000)">
                    <path d="M17.2727318,23.295459 L1.72726823,23.295459 L1.72726823,5.68183594 L3.45453646,5.68183594 L3.45453646,7.38637695 L15.5454635,7.38637695 L15.5454635,5.68183594 L17.2727318,5.68183594 L17.2727318,23.295459 Z M5.18180469,3.97724609 L8.06060156,3.97724609 L8.06060156,3.125 C8.06060156,2.34174805 8.70630469,1.70454102 9.5,1.70454102 C10.2936953,1.70454102 10.9393984,2.34174805 10.9393984,3.125 L10.9393984,3.97724609 L13.8181953,3.97724609 L13.8181953,5.68183594 L5.18180469,5.68183594 L5.18180469,3.97724609 Z M15.5454635,3.97724609 L19,3.97724609 L19,25 L0,25 L0,3.97724609 L3.45453646,3.97724609 L3.45453646,2.27270508 L6.45302344,2.27270508 C6.82985677,0.9625 8.05317969,0 9.5,0 C10.9468698,0 12.1701432,0.9625 12.5469766,2.27270508 L15.5454635,2.27270508 L15.5454635,3.97724609 Z M10.7038761,21.203125 C11.7346261,21.203125 12.6181261,20.8479167 13.4689039,20.1536458 L12.8635428,18.8135417 C12.2745428,19.265625 11.6200983,19.5239583 10.9165705,19.5239583 C9.57495944,19.5239583 8.67509833,18.6197917 8.26607055,17.23125 L10.3439317,17.23125 L10.7856817,16.2302083 L8.10245944,16.2302083 C8.08609833,16.0526042 8.08609833,15.9234375 8.08609833,15.7942708 C8.08609833,15.6973958 8.08609833,15.6005208 8.10245944,15.4552083 L11.1129039,15.4552083 L11.5382928,14.4541667 L8.23334833,14.4541667 C8.57693166,13.0817708 9.41134833,12.1776042 10.7365983,12.1776042 C11.4892094,12.1776042 12.0618483,12.4197917 12.6672094,12.871875 L13.3870983,11.4510417 C12.5363205,10.8213542 11.7346261,10.546875 10.7202372,10.546875 C8.60965388,10.546875 6.8753761,12.1291667 6.31909833,14.4541667 L5.37015388,14.4541667 L4.94476499,15.4552083 L6.18820944,15.4552083 C6.17184833,15.6489583 6.17184833,15.778125 6.17184833,15.9234375 L6.17184833,16.2302083 L5.30470944,16.2302083 L4.87932055,17.23125 L6.30273722,17.23125 C6.80993166,19.6046875 8.56057055,21.203125 10.7038761,21.203125 Z" id="Fill-1"></path>
                </g>
            </g>
        </g>
    </g>
</svg>