<?xml version="1.0" encoding="UTF-8"?>
<svg width="24px" height="22px" viewBox="0 0 24 22" version="1.1" xmlns="http://www.w3.org/2000/svg" xmlns:xlink="http://www.w3.org/1999/xlink">
    <!-- Generator: Sketch 47 (45396) - http://www.bohemiancoding.com/sketch -->
    <title>Icon_alert</title>
    <desc>Created with Sketch.</desc>
    <defs></defs>
    <g id="Web" stroke="none" stroke-width="1" fill="none" fill-rule="evenodd">
        <g id="Cartybox" transform="translate(-828.000000, -1581.000000)" fill-rule="nonzero" fill="#205175">
            <g id="Create" transform="translate(0.000000, 937.000000)">
                <g id="Size" transform="translate(535.000000, 644.000000)">
                    <g id="Selection">
                        <path d="M316.535994,16.53125 L308.177368,1.84375 C307.522401,0.6875 306.337223,0 304.9961,0 C303.654977,0 302.469799,0.6875 301.814832,1.84375 L293.487395,16.53125 C292.832428,17.6875 292.832428,19.03125 293.518584,20.1875 C294.17355,21.34375 295.358729,22 296.668663,22 L313.354726,22 C314.66466,22 315.849838,21.3125 316.504805,20.1875 C317.159772,19.0625 317.159772,17.6875 316.535994,16.53125 Z M305.651067,17.5625 C305.651067,18 305.307989,18.34375 304.871344,18.34375 C304.434699,18.34375 304.091622,18 304.091622,17.5625 L304.091622,16.3125 C304.091622,15.875 304.434699,15.53125 304.871344,15.53125 C305.307989,15.53125 305.651067,15.875 305.651067,16.3125 L305.651067,17.5625 Z M305.651067,13.8125 C305.651067,14.25 305.307989,14.59375 304.871344,14.59375 C304.434699,14.59375 304.091622,14.25 304.091622,13.8125 L304.091622,7.25 C304.091622,6.8125 304.434699,6.46875 304.871344,6.46875 C305.307989,6.46875 305.651067,6.8125 305.651067,7.25 L305.651067,13.8125 Z" id="Icon_alert"></path>
                    </g>
                </g>
            </g>
        </g>
    </g>
</svg>