<?xml version="1.0" encoding="UTF-8"?>
<svg width="115px" height="115px" viewBox="0 0 115 115" version="1.1" xmlns="http://www.w3.org/2000/svg" xmlns:xlink="http://www.w3.org/1999/xlink">
    <!-- Generator: Sketch 55.2 (78181) - https://sketchapp.com -->
    <title>Artboard</title>
    <desc>Created with Sketch.</desc>
    <g id="Artboard" stroke="none" stroke-width="1" fill="none" fill-rule="evenodd">
        <g id="Icon/Congelateur" transform="translate(3.000000, 1.000000)">
            <rect id="Rectangle" x="0" y="0" width="84" height="84"></rect>
            <g id="Icon-Congelateur" stroke-width="1" fill-rule="evenodd" transform="translate(11.686957, 5.113043)">
                <polygon id="Path-5" fill="#D5E2ED" points="7.30434783 7.56917068 7.30434783 64.969098 8.92286005 64.969098 8.92286005 73.4746548 58.2557745 73.4746548 58.2557745 65.3059843 60.1310462 64.969098 60.1310462 7.30434783"></polygon>
                <path d="M2.19124534,57.7043649 L2.19124534,2.19124728 L21.9129898,2.19124728 L21.9129898,57.7043649 L2.19124534,57.7043649 Z M24.1043693,57.7043649 L24.1043693,2.19124728 L52.5912293,2.19124728 L52.5912293,57.7043649 L24.1043693,57.7043649 Z M1.46091963,60.2189594 L1.45852739,60.2189594 L1.45852739,59.8956122 L1.09562267,59.8956122 C0.490549294,59.8956122 2.62900812e-13,59.4050625 2.62900812e-13,58.7999886 L2.62900812e-13,1.09562364 C2.62900812e-13,0.490549728 0.490549294,2.84217094e-14 1.09562267,2.84217094e-14 L53.6868519,2.84217094e-14 C54.2921935,2.84217094e-14 54.7826087,0.490549728 54.7826087,1.09562364 L54.7826087,58.7999886 C54.7826087,59.4050625 54.2921935,59.8956122 53.6868519,59.8956122 L53.3216891,59.8956122 L53.3216891,67.5652459 C53.3216891,68.1703198 52.8312739,68.6608696 52.2260664,68.6608696 L2.5565423,68.6608696 C1.95146892,68.6608696 1.46091963,68.1703198 1.46091963,67.5652459 L1.46091963,60.2189594 Z M3.65216497,60.2189594 L3.65216497,66.4696223 L51.1304437,66.4696223 L51.1304437,59.8956122 L3.6534884,59.8956122 L3.6534884,60.2189594 L3.65216497,60.2189594 Z M27.3584884,40.9043107 C27.9631062,40.9043107 28.452935,40.413761 28.452935,39.8086871 L28.452935,9.86088098 C28.452935,9.25580707 27.9631062,8.76525734 27.3584884,8.76525734 C26.7541384,8.76525734 26.2641756,9.25580707 26.2641756,9.86088098 L26.2641756,39.8086871 C26.2641756,40.413761 26.7541384,40.9043107 27.3584884,40.9043107 Z M47.78624,64.2782409 L6.93087063,64.2782409 C6.32638673,64.2782409 5.83655788,63.7876912 5.83655788,63.1826173 C5.83655788,62.5775433 6.32638673,62.0869936 6.93087063,62.0869936 L47.78624,62.0869936 C48.3907239,62.0869936 48.8805528,62.5775433 48.8805528,63.1826173 C48.8805528,63.7876912 48.3907239,64.2782409 47.78624,64.2782409 Z M6.56601042,30.6782666 L6.56601042,23.3739302 L8.75476985,23.3739302 L8.75476985,24.4695538 C8.75476985,25.0746277 9.24473265,25.5651774 9.8490826,25.5651774 C10.4534326,25.5651774 10.9433953,25.0746277 10.9433953,24.4695538 L10.9433953,23.3739302 L13.1321548,23.3739302 L13.1321548,30.6782666 L6.56601042,30.6782666 Z M6.56601042,21.1825488 L13.1320208,21.1825488 L13.1320208,18.9913015 L6.56601042,18.9913015 L6.56601042,21.1825488 Z M14.2264675,16.8000542 C14.8308175,16.8000542 15.3207803,17.2906039 15.3207803,17.8956779 L15.3207803,31.7738902 C15.3207803,32.3789641 14.8308175,32.8695139 14.2264675,32.8695139 L5.47169767,32.8695139 C4.86734772,32.8695139 4.37738493,32.3789641 4.37738493,31.7738902 L4.37738493,17.8956779 C4.37738493,17.2906039 4.86734772,16.8000542 5.47169767,16.8000542 L14.2264675,16.8000542 Z M18.6038525,8.76525734 C19.2082024,8.76525734 19.6981652,9.25580707 19.6981652,9.86088098 L19.6981652,39.8086871 C19.6981652,40.413761 19.2082024,40.9043107 18.6038525,40.9043107 C17.9993686,40.9043107 17.5094058,40.413761 17.5094058,39.8086871 L17.5094058,9.86088098 C17.5094058,9.25580707 17.9993686,8.76525734 18.6038525,8.76525734 Z M44.8680281,6.57387595 C44.2634102,6.57387595 43.7737153,6.08332622 43.7737153,5.47825231 C43.7737153,4.8731784 44.2634102,4.38262867 44.8680281,4.38262867 L49.245413,4.38262867 C49.8498969,4.38262867 50.3397257,4.8731784 50.3397257,5.47825231 C50.3397257,6.08332622 49.8498969,6.57387595 49.245413,6.57387595 L44.8680281,6.57387595 Z" id="Fill-6" stroke="#14486E" fill="#14486E"></path>
            </g>
        </g>
        <g id="Group" transform="translate(31.000000, 32.000000)">
            <rect id="Rectangle" fill="#FFFFFF" x="8" y="6" width="62" height="66" rx="3"></rect>
            <g id="Icon/Lave-vaiselle">
                <rect id="Rectangle" x="0" y="0" width="84" height="84"></rect>
                <g id="Icon-LaveVaiselle" stroke-width="1" fill-rule="evenodd" transform="translate(5.843478, 5.113043)">
                    <polygon id="Path-4" fill="#D5E2ED" points="8.63254076 9.06766304 8.63254076 73.9000371 71.3348408 73.9000371 71.3348408 8.77534983"></polygon>
                    <path d="M60.0998168,3.46667391 L32.3569948,3.46667391 C31.7199096,3.46667391 31.2070632,3.9871087 31.2070632,4.6246413 L31.2070632,9.24928261 C31.2070632,9.89404348 31.7199096,10.40725 32.3569948,10.40725 L60.0998168,10.40725 C60.736902,10.40725 61.2497484,9.89404348 61.2497484,9.24928261 L61.2497484,4.6246413 C61.2497484,3.9871087 60.736902,3.46667391 60.0998168,3.46667391 Z M33.5141496,8.09854348 L58.942662,8.09854348 L58.942662,5.7826087 L33.5141496,5.7826087 L33.5141496,8.09854348 Z M57.7855072,19.6637609 L6.93570551,19.6637609 C6.29717565,19.6637609 5.77855072,20.1769674 5.77855072,20.8145 L5.77855072,61.2927609 C5.77855072,61.9375217 6.29717565,62.4507283 6.93570551,62.4507283 L57.7855072,62.4507283 C58.4225925,62.4507283 58.942662,61.9375217 58.942662,61.2927609 L58.942662,20.8145 C58.942662,20.1769674 58.4225925,19.6637609 57.7855072,19.6637609 Z M56.6283525,21.9724674 L56.6283525,37.011587 L54.3212661,37.011587 L54.3212661,32.3797174 C54.3212661,30.2343696 52.8419571,28.4388696 50.8498017,27.9184348 L50.8498017,25.4463696 L52.0069565,25.4463696 C52.6440417,25.4463696 53.1641113,24.9259348 53.1641113,24.2884022 C53.1641113,23.6494239 52.6440417,23.1304348 52.0069565,23.1304348 L47.3855606,23.1304348 C46.7470307,23.1304348 46.2284058,23.6494239 46.2284058,24.2884022 C46.2284058,24.9259348 46.7470307,25.4463696 47.3855606,25.4463696 L48.5427154,25.4463696 L48.5427154,27.9184348 C46.55056,28.4388696 45.071251,30.2343696 45.071251,32.3797174 L45.071251,37.011587 L42.7641646,37.011587 L42.7641646,32.3797174 C42.7641646,30.2343696 41.2848557,28.4388696 39.2927003,27.9184348 L39.2927003,25.4463696 L40.4498551,25.4463696 C41.0869403,25.4463696 41.6070099,24.9259348 41.6070099,24.2884022 C41.6070099,23.6494239 41.0869403,23.1304348 40.4498551,23.1304348 L35.8284591,23.1304348 C35.1899293,23.1304348 34.6713043,23.6494239 34.6713043,24.2884022 C34.6713043,24.9259348 35.1899293,25.4463696 35.8284591,25.4463696 L36.9856139,25.4463696 L36.9856139,27.9184348 C34.9934586,28.4388696 33.5141496,30.2343696 33.5141496,32.3797174 L33.5141496,37.011587 L31.2070632,37.011587 L31.2070632,32.3797174 C31.2070632,30.2343696 29.7277542,28.4388696 27.7355988,27.9184348 L27.7355988,25.4463696 L28.8927536,25.4463696 C29.5298388,25.4463696 30.0499084,24.9259348 30.0499084,24.2884022 C30.0499084,23.6494239 29.5298388,23.1304348 28.8927536,23.1304348 L24.2713577,23.1304348 C23.6328278,23.1304348 23.1142029,23.6494239 23.1142029,24.2884022 C23.1142029,24.9259348 23.6328278,25.4463696 24.2713577,25.4463696 L25.4285125,25.4463696 L25.4285125,27.9184348 C23.4363571,28.4388696 21.9570481,30.2343696 21.9570481,32.3797174 L21.9570481,37.011587 L19.6499617,37.011587 L19.6499617,32.3797174 C19.6499617,30.2343696 18.1706528,28.4388696 16.1784974,27.9184348 L16.1784974,25.4463696 L17.3356522,25.4463696 C17.9727374,25.4463696 18.492807,24.9259348 18.492807,24.2884022 C18.492807,23.6494239 17.9727374,23.1304348 17.3356522,23.1304348 L12.7142562,23.1304348 C12.0757264,23.1304348 11.5571014,23.6494239 11.5571014,24.2884022 C11.5571014,24.9259348 12.0757264,25.4463696 12.7142562,25.4463696 L13.871411,25.4463696 L13.871411,27.9184348 C11.8792557,28.4388696 10.3999467,30.2343696 10.3999467,32.3797174 L10.3999467,37.011587 L8.09286029,37.011587 L8.09286029,21.9724674 L56.6283525,21.9724674 Z M49.692647,30.0710109 C50.968262,30.0710109 52.0069565,31.1104348 52.0069565,32.3797174 L52.0069565,37.011587 L47.3855606,37.011587 L47.3855606,32.3797174 C47.3855606,31.1104348 48.4242551,30.0710109 49.692647,30.0710109 Z M38.1355455,30.0710109 C39.4111606,30.0710109 40.4498551,31.1104348 40.4498551,32.3797174 L40.4498551,37.011587 L35.8284591,37.011587 L35.8284591,32.3797174 C35.8284591,31.1104348 36.8671536,30.0710109 38.1355455,30.0710109 Z M26.5784441,30.0710109 C27.8540591,30.0710109 28.8927536,31.1104348 28.8927536,32.3797174 L28.8927536,37.011587 L24.2713577,37.011587 L24.2713577,32.3797174 C24.2713577,31.1104348 25.3100522,30.0710109 26.5784441,30.0710109 Z M15.0213426,30.0710109 C16.2969577,30.0710109 17.3356522,31.1104348 17.3356522,32.3797174 L17.3356522,37.011587 L12.7142562,37.011587 L12.7142562,32.3797174 C12.7142562,31.1104348 13.7529507,30.0710109 15.0213426,30.0710109 Z M17.5451246,44.9106304 C17.691033,44.9670109 17.826829,45.0349565 17.9684035,45.0971196 C18.1764313,45.1939783 18.3902377,45.2951739 18.5939316,45.4021522 C18.7123919,45.4643152 18.8250736,45.5264783 18.9435339,45.5944239 C19.2035687,45.7418804 19.4578249,45.8936739 19.7063026,46.0570326 C19.7568649,46.0917283 19.8074272,46.1191957 19.8579896,46.1538913 C20.73344,46.7523913 21.5222122,47.4636522 22.2228614,48.2544239 C22.4424464,48.5030761 22.6461403,48.7575109 22.842611,49.0162826 C22.8830609,49.072663 22.9278446,49.1232609 22.9668499,49.181087 C23.1532081,49.4398587 23.3337878,49.7000761 23.4984765,49.970413 L23.6270493,50.17425 C23.7801809,50.44025 23.9260893,50.7048043 24.0676638,50.976587 C24.1081136,51.0604348 24.1528974,51.1515109 24.1919026,51.2353587 C24.3161414,51.5013587 24.4288232,51.7615761 24.5357264,52.031913 C24.5819548,52.1388913 24.62096,52.2530978 24.6599652,52.3658587 C24.7509774,52.6188478 24.8405449,52.8675 24.9142214,53.1277174 C24.9532267,53.2751739 24.987898,53.4211848 25.0269032,53.5686413 C25.0832441,53.7999457 25.1453635,54.0254674 25.1915919,54.2625543 C25.1915919,54.2625543 25.1915919,54.268337 25.1915919,54.2741196 C25.2305971,54.4779565 25.2522667,54.6803478 25.286938,54.8899674 C25.3100522,55.0359783 25.3317217,55.1834348 25.3490574,55.3294457 C25.3548359,55.3858261 25.3606145,55.4378696 25.366393,55.49425 C25.3996197,55.8831304 25.4285125,56.2734565 25.4285125,56.6681196 C25.4285125,57.1827717 25.3765055,57.7017609 25.3100522,58.216413 C25.2984951,58.3233913 25.286938,58.424587 25.2696023,58.5257826 C25.1915919,59.0288696 25.0832441,59.5319565 24.9373357,60.0335978 C24.9257786,60.0682935 24.9142214,60.1015435 24.9026643,60.1420217 L22.4930087,60.1420217 C22.8888394,59.0288696 23.1142029,57.855 23.1142029,56.6681196 C23.1142029,50.9303261 18.4480232,46.2608696 12.7142562,46.2608696 C11.0774817,46.2608696 9.51438377,46.6396304 8.09286029,47.3566739 L8.09286029,44.8267826 C9.57650319,44.2441848 11.1280441,43.9449348 12.7142562,43.9449348 C14.4232626,43.9449348 16.0542586,44.2904457 17.5451246,44.9106304 Z M21.0945994,44.193587 C21.0599281,44.1776848 21.0368139,44.1545543 21.0093658,44.1314239 C21.7085704,44.0070978 22.4092197,43.9449348 23.1142029,43.9449348 C24.8246539,43.9449348 26.4542052,44.2904457 27.9450713,44.9106304 C28.0909797,44.9670109 28.2267757,45.0349565 28.3683501,45.0971196 C28.576378,45.1939783 28.791629,45.2951739 28.9938783,45.4021522 C29.1123386,45.4643152 29.2250203,45.5264783 29.3434806,45.5944239 C29.6035154,45.7418804 29.8577716,45.8936739 30.1062493,46.0570326 C30.1568116,46.0917283 30.2073739,46.1191957 30.2579362,46.1538913 C31.1333867,46.7523913 31.9236035,47.4636522 32.6228081,48.2544239 C32.842393,48.5030761 33.046087,48.7575109 33.2440023,49.0162826 C33.2887861,49.072663 33.3277913,49.1232609 33.3682412,49.181087 C33.5545994,49.4398587 33.7351791,49.7000761 33.9042017,49.970413 L34.0284406,50.17425 C34.1801275,50.44025 34.3332591,50.7048043 34.4676104,50.976587 C34.5080603,51.0604348 34.5528441,51.1515109 34.5918493,51.2353587 C34.7160881,51.5013587 34.8345484,51.7615761 34.9428962,52.031913 C34.9819014,52.1388913 35.0209067,52.2530978 35.0613565,52.3658587 C35.1509241,52.6188478 35.2419362,52.8675 35.3141681,53.1277174 C35.3603965,53.2751739 35.3936232,53.4211848 35.4268499,53.5686413 C35.4831907,53.7999457 35.5453101,54.0254674 35.5915386,54.2625543 C35.5915386,54.2625543 35.5915386,54.268337 35.5915386,54.2741196 C35.6305438,54.4779565 35.6594365,54.6803478 35.6868846,54.8899674 C35.7099988,55.0359783 35.7316684,55.1834348 35.7490041,55.3294457 C35.7547826,55.3858261 35.7605612,55.4378696 35.7663397,55.49425 C35.7995664,55.8831304 35.8284591,56.2734565 35.8284591,56.6681196 C35.8284591,57.1827717 35.7836754,57.7017609 35.7157774,58.216413 C35.6984417,58.3233913 35.6868846,58.424587 35.669549,58.5257826 C35.5915386,59.0288696 35.4831907,59.5319565 35.3372823,60.0335978 C35.3315038,60.0682935 35.3141681,60.1015435 35.3040557,60.1420217 L32.8944,60.1420217 C33.2887861,59.0288696 33.5141496,57.855 33.5141496,56.6681196 C33.5141496,51.0777826 29.090669,46.521087 23.5605959,46.284 C23.5317032,46.255087 23.4984765,46.2276196 23.4695838,46.1987065 C23.3178968,46.0411304 23.1589867,45.8936739 23.0015212,45.747663 C22.7761577,45.5322609 22.5493496,45.3125217 22.3066504,45.1086848 C21.9180429,44.7863043 21.5120997,44.4827174 21.0945994,44.193587 Z M31.4945461,44.193587 C31.4656533,44.1776848 31.4382052,44.1545543 31.4093125,44.1314239 C32.1099617,44.0070978 32.8091664,43.9449348 33.5141496,43.9449348 C35.2303791,43.9449348 36.8555965,44.2904457 38.3507965,44.9106304 C38.492371,44.9670109 38.6325009,45.0349565 38.7682968,45.0971196 C38.9821032,45.1939783 39.1915757,45.2951739 39.3952696,45.4021522 C39.5137299,45.4643152 39.6321901,45.5264783 39.7448719,45.5944239 C40.003462,45.7418804 40.2577183,45.8936739 40.5061959,46.0570326 C40.5567583,46.0917283 40.6073206,46.1191957 40.6593275,46.1538913 C41.5333333,46.7523913 42.3235501,47.4636522 43.0227548,48.2544239 C43.2437843,48.5030761 43.4518122,48.7575109 43.643949,49.0162826 C43.6887328,49.072663 43.7291826,49.1232609 43.7681878,49.181087 C43.9603246,49.4398587 44.1351258,49.7000761 44.3041484,49.970413 L44.4283872,50.17425 C44.5858528,50.44025 44.7332058,50.7048043 44.8690017,50.976587 C44.9137855,51.0604348 44.9527907,51.1515109 44.9932406,51.2353587 C45.1160348,51.5013587 45.2344951,51.7615761 45.3428429,52.031913 C45.3818481,52.1388913 45.4208533,52.2530978 45.4613032,52.3658587 C45.5566493,52.6188478 45.6418829,52.8675 45.7155594,53.1277174 C45.7603432,53.2751739 45.7935699,53.4211848 45.8282412,53.5686413 C45.8903606,53.7999457 45.9467014,54.0254674 45.9914852,54.2625543 C45.9914852,54.2625543 45.9914852,54.268337 45.9914852,54.2741196 C46.0304904,54.4779565 46.0593832,54.6803478 46.0868313,54.8899674 C46.1099455,55.0359783 46.1330597,55.1834348 46.1489507,55.3294457 C46.1547293,55.3858261 46.1662864,55.4378696 46.1662864,55.49425 C46.2052916,55.8831304 46.2284058,56.2734565 46.2284058,56.6681196 C46.2284058,57.1827717 46.183622,57.7017609 46.1157241,58.216413 C46.0983884,58.3233913 46.0868313,58.424587 46.0709403,58.5257826 C45.9914852,59.0288696 45.884582,59.5319565 45.7430075,60.0335978 C45.7314504,60.0682935 45.7155594,60.1015435 45.7097809,60.1420217 L43.2943467,60.1420217 C43.6887328,59.0288696 43.9140962,57.855 43.9140962,56.6681196 C43.9140962,51.0777826 39.4906157,46.521087 33.9605426,46.284 C33.9316499,46.255087 33.9042017,46.2276196 33.8695304,46.1987065 C33.723622,46.0411304 33.5647119,45.8936739 33.4072464,45.747663 C33.1761043,45.5322609 32.9507409,45.3125217 32.7080417,45.1086848 C32.3179896,44.7863043 31.9120464,44.4827174 31.4945461,44.193587 Z M8.09286029,60.1420217 L8.09286029,50.0325761 C9.45226435,49.072663 11.0384765,48.5768043 12.7142562,48.5768043 C17.1724081,48.5768043 20.7998933,52.206837 20.7998933,56.6681196 C20.7998933,57.8709022 20.5297461,59.0577826 20.0154551,60.1420217 L8.09286029,60.1420217 Z M27.3065414,60.1420217 C27.3296557,60.0567283 27.3354342,59.9656522 27.3527699,59.8818043 C27.4481159,59.4755761 27.527571,59.0621196 27.5839119,58.6558913 C27.5998029,58.5098804 27.6229171,58.3624239 27.6402528,58.22075 C27.6965936,57.7017609 27.7355988,57.1885543 27.7355988,56.6681196 C27.7355988,56.2170761 27.7081507,55.7703696 27.6677009,55.3251087 C27.6575884,55.195 27.6460313,55.0706739 27.6286957,54.9405652 L27.6286957,54.929 C27.6171386,54.8552717 27.61136,54.7772065 27.6055814,54.6976957 C27.5665762,54.4100109 27.5160139,54.1208804 27.459673,53.8331957 C27.4307803,53.6929674 27.4033322,53.5512935 27.3686609,53.4096196 C27.3585484,53.3474565 27.3412128,53.2852935 27.3238771,53.2173478 C27.2906504,53.0597717 27.2502006,52.896413 27.2111954,52.7373913 C27.1823026,52.6477609 27.1548545,52.5566848 27.1259617,52.4612717 C27.0753994,52.2805652 27.01328,52.0998587 26.9569391,51.9191522 C26.9121554,51.7832609 26.8673716,51.6531522 26.8153646,51.5187065 C26.7489113,51.3264348 26.6752348,51.134163 26.5957797,50.9418913 C26.5221032,50.7554022 26.4325357,50.5746957 26.347302,50.3939891 C26.263513,50.2132826 26.184058,50.0267935 26.0930458,49.846087 C25.9529159,49.57575 25.7997843,49.30975 25.6480974,49.0509783 C25.6307617,49.0220652 25.6192046,48.9945978 25.6033136,48.9656848 C28.8479699,50.0166739 31.2070632,53.071337 31.2070632,56.6681196 C31.2070632,57.8709022 30.9354713,59.0577826 30.4168464,60.1420217 L27.3065414,60.1420217 Z M37.7079328,60.1420217 C37.7296023,60.0567283 37.7353809,59.9656522 37.7584951,59.8818043 C37.8480626,59.4755761 37.9275177,59.0621196 37.9838586,58.6558913 C38.0069728,58.5098804 38.0228638,58.3624239 38.0401994,58.22075 C38.0965403,57.7017609 38.1355455,57.1885543 38.1355455,56.6681196 C38.1355455,56.2170761 38.1080974,55.7703696 38.0690922,55.3251087 C38.0575351,55.195 38.045978,55.0706739 38.0286423,54.9405652 L38.0286423,54.929 C38.0228638,54.8552717 38.0170852,54.7772065 38.0069728,54.6976957 C37.9665229,54.4100109 37.9159606,54.1208804 37.8596197,53.8331957 C37.8321716,53.6929674 37.8032788,53.5512935 37.7700522,53.4096196 C37.7584951,53.3474565 37.7411594,53.2852935 37.7238238,53.2173478 C37.6905971,53.0597717 37.6501472,52.896413 37.611142,52.7373913 C37.5836939,52.6477609 37.5548012,52.5566848 37.527353,52.4612717 C37.4753461,52.2805652 37.4190052,52.0998587 37.3568858,51.9191522 C37.312102,51.7832609 37.2673183,51.6531522 37.2167559,51.5187065 C37.148858,51.3264348 37.0751814,51.134163 36.9957264,50.9418913 C36.9234945,50.7554022 36.8324823,50.5746957 36.7486933,50.3939891 C36.6634597,50.2132826 36.5840046,50.0267935 36.4944371,49.846087 C36.3528626,49.57575 36.2055096,49.30975 36.0480441,49.0509783 C36.0307084,49.0220652 36.0205959,48.9945978 36.0032603,48.9656848 C39.2479165,50.0166739 41.6070099,53.071337 41.6070099,56.6681196 C41.6070099,57.8709022 41.335418,59.0577826 40.816793,60.1420217 L37.7079328,60.1420217 Z M48.1078794,60.1420217 C48.129549,60.0567283 48.1353275,59.9656522 48.1584417,59.8818043 C48.2480093,59.4755761 48.3274643,59.0621196 48.3838052,58.6558913 C48.4069194,58.5098804 48.428589,58.3624239 48.4401461,58.22075 C48.5022655,57.7017609 48.5427154,57.1885543 48.5427154,56.6681196 C48.5427154,56.2170761 48.5138226,55.7703696 48.4748174,55.3251087 C48.4574817,55.195 48.4459246,55.0706739 48.4343675,54.9405652 L48.428589,54.929 C48.4242551,54.8552717 48.4184765,54.7772065 48.4069194,54.6976957 C48.3664696,54.4100109 48.3159072,54.1208804 48.2595664,53.8331957 C48.2378968,53.6929674 48.2032255,53.5512935 48.1757774,53.4096196 C48.1584417,53.3474565 48.1411061,53.2852935 48.129549,53.2173478 C48.0905438,53.0597717 48.0573171,52.896413 48.0110887,52.7373913 C47.9894191,52.6477609 47.9547478,52.5566848 47.9272997,52.4612717 C47.8767374,52.2805652 47.8203965,52.0998587 47.7582771,51.9191522 C47.7120487,51.7832609 47.6672649,51.6531522 47.6224812,51.5187065 C47.5488046,51.3264348 47.4809067,51.134163 47.4014516,50.9418913 C47.3234412,50.7554022 47.232429,50.5746957 47.14864,50.3939891 C47.0634064,50.2132826 46.9839513,50.0267935 46.8943838,49.846087 C46.7528093,49.57575 46.6069009,49.30975 46.4479907,49.0509783 C46.4320997,49.0220652 46.4205426,48.9945978 46.403207,48.9656848 C49.6536417,50.0166739 52.0069565,53.071337 52.0069565,56.6681196 C52.0069565,57.8709022 51.7353646,59.0577826 51.2167397,60.1420217 L48.1078794,60.1420217 Z M56.1212846,60.1420217 L53.6942933,60.1420217 C54.094458,59.0288696 54.3212661,57.855 54.3212661,56.6681196 C54.3212661,51.0777826 49.8905623,46.521087 44.3604893,46.284 C44.3330412,46.255087 44.3041484,46.2276196 44.2752557,46.1987065 C44.1235687,46.0411304 43.9661032,45.8936739 43.807193,45.747663 C43.576051,45.5322609 43.3506875,45.3125217 43.1079884,45.1086848 C42.7179362,44.7863043 42.3177716,44.4827174 41.8944928,44.193587 C41.8656,44.1776848 41.8381519,44.1545543 41.8092591,44.1314239 C42.5099084,44.0070978 43.2148916,43.9449348 43.9140962,43.9449348 C50.9292568,43.9449348 56.6283525,49.6552609 56.6283525,56.6681196 C56.6283525,57.8145217 56.4593299,58.9782717 56.1212846,60.1420217 Z M43.9140962,41.6362283 C42.1761971,41.6362283 40.438298,41.9687283 38.7509612,42.5961413 C37.1199652,41.9860761 35.3603965,41.6362283 33.5141496,41.6362283 C31.7762504,41.6362283 30.0383513,41.9687283 28.3510145,42.5961413 C26.71424,41.9860761 24.9590052,41.6362283 23.1142029,41.6362283 C21.3705252,41.6362283 19.6384046,41.9687283 17.9510678,42.5961413 C16.3142933,41.9860761 14.55328,41.6362283 12.7142562,41.6362283 C11.1338226,41.6362283 9.58806029,41.890663 8.09286029,42.3749565 L8.09286029,39.3202935 L56.6283525,39.3202935 L56.6283525,48.6953478 C53.9702191,44.4653696 49.2693681,41.6362283 43.9140962,41.6362283 Z M10.3999467,3.46667391 L5.77855072,3.46667391 C5.14146551,3.46667391 4.62139594,3.9871087 4.62139594,4.6246413 L4.62139594,9.24928261 C4.62139594,9.89404348 5.14146551,10.40725 5.77855072,10.40725 L10.3999467,10.40725 C11.0384765,10.40725 11.5571014,9.89404348 11.5571014,9.24928261 L11.5571014,4.6246413 C11.5571014,3.9871087 11.0384765,3.46667391 10.3999467,3.46667391 Z M6.93570551,8.09854348 L9.24279188,8.09854348 L9.24279188,5.7826087 L6.93570551,5.7826087 L6.93570551,8.09854348 Z M18.492807,3.46667391 L13.871411,3.46667391 C13.2271026,3.46667391 12.7142562,3.9871087 12.7142562,4.6246413 L12.7142562,9.24928261 C12.7142562,9.89404348 13.2271026,10.40725 13.871411,10.40725 L18.492807,10.40725 C19.1298922,10.40725 19.6499617,9.89404348 19.6499617,9.24928261 L19.6499617,4.6246413 C19.6499617,3.9871087 19.1298922,3.46667391 18.492807,3.46667391 Z M15.0213426,8.09854348 L17.3356522,8.09854348 L17.3356522,5.7826087 L15.0213426,5.7826087 L15.0213426,8.09854348 Z M63.564058,0 L1.15715478,0 C0.518624928,0 0,0.51898913 0,1.15796739 L0,67.0753696 C0,67.7201304 0.518624928,68.233337 1.15715478,68.233337 L63.564058,68.233337 C64.2011432,68.233337 64.7212128,67.7201304 64.7212128,67.0753696 L64.7212128,1.15796739 C64.7212128,0.51898913 64.2011432,0 63.564058,0 Z M2.31430957,11.5652174 L62.4069032,11.5652174 L62.4069032,2.31593478 L2.31430957,2.31593478 L2.31430957,11.5652174 Z M2.31430957,65.9246304 L62.4069032,65.9246304 L62.4069032,13.8811522 L2.31430957,13.8811522 L2.31430957,65.9246304 Z" id="Fill-6" stroke="#14486E" stroke-width="0.3" fill="#14486E"></path>
                </g>
            </g>
        </g>
    </g>
</svg>