<?xml version="1.0" encoding="UTF-8"?>
<svg width="115px" height="115px" viewBox="0 0 115 115" version="1.1" xmlns="http://www.w3.org/2000/svg" xmlns:xlink="http://www.w3.org/1999/xlink">
    <!-- Generator: Sketch 56.1 (81669) - https://sketch.com -->
    <title>Icon/recyclable</title>
    <desc>Created with Sketch.</desc>
    <g id="Icon/recyclable" stroke="none" stroke-width="1" fill="none" fill-rule="evenodd">
        <rect id="Rectangle" x="0" y="0" width="115" height="115"></rect>
        <g id="recyclable" transform="translate(10.000000, 6.000000)" fill-rule="nonzero">
            <path d="M74.4,14.3 L65.5,14.3 L65.5,6 C65.5,4.7 64.5,3.7 63.2,3.7 L40.9,3.7 C39.6,3.7 38.6,4.7 38.6,6 L38.6,14.3 L30,14.3 C18,16.4 9.4,20 9.4,25.3 C9.4,28.3 12.2,30.7 16.6,32.7 L21.4,93.2 C21.4,99.8 37.3,102.7 52,102.7 C66.8,102.7 82.6,99.7 82.6,93.3 L87.5,32.7 C92,30.7 94.7,28.3 94.7,25.3 C94.8,20 86.2,16.3 74.4,14.3 Z M42,14.3 L42,7.3 L62.1,7.3 L62.1,14.3 L42,14.3 Z" id="Shape" fill="#D5E2ED"></path>
            <g id="Group" fill="#14486E">
                <path d="M35.5,45.8 C35.1,45.4 34.2,45.6 34.1,46.2 L32.9,55 C32.8,55.6 33.2,56 33.9,56 L42.6,54.9 C43.3,54.8 43.6,53.9 43,53.5 L41.4,51.9 C44.8,49 50,49.2 53.2,52.5 C53.9,53.2 55,52.4 54.6,51.5 C54,50.2 53.3,48.9 52.1,47.8 C47.9,43.6 41.1,43.4 36.8,47.2 L35.5,45.8 Z" id="Path"></path>
                <path d="M37.1,64.2 C36.7,63.6 35.8,63.9 35.5,64.5 L34.9,66.5 C30.7,64.9 28.3,60.4 29.5,55.9 C29.5,55.9 29.5,55.9 29.5,55.8 C29.8,54.8 28.5,54.2 27.9,55 C27,56.1 26.3,57.5 26,58.9 C24.4,64.6 27.7,70.6 33.1,72.6 L32.5,74.6 C32.3,75.3 32.9,75.9 33.6,75.6 L41.7,72.3 C42.3,72.1 42.4,71.4 42,71 L37.1,64.2 Z" id="Path"></path>
                <path d="M51.4,55.8 L48,63.9 C47.7,64.6 48.3,65.2 49,65 L51.1,64.4 C51.9,68.8 49.1,73.2 44.7,74.4 C44.7,74.4 44.7,74.4 44.6,74.4 C43.6,74.7 43.7,76 44.7,76.1 C46.1,76.3 47.6,76.2 49.1,75.8 C54.8,74.2 58.3,68.6 57.3,62.7 L59.3,62.1 C60,61.9 60.2,61.1 59.6,60.5 L52.6,55.2 C52.3,55.1 51.6,55.3 51.4,55.8 Z" id="Path"></path>
                <path d="M65.2,10.7 C64.2,10.5 63.2,11.3 63.2,12.4 C63.2,13.2 63.8,14 64.7,14.1 C75.8,16 82.3,19.2 82.3,21.8 C82.3,25.7 67.4,31.2 43,31.2 C18.6,31.2 3.7,25.8 3.7,21.8 C3.7,19.3 10.1,16.1 21.3,14.1 C22.1,14 22.8,13.3 22.8,12.4 C22.8,11.4 21.9,10.5 20.8,10.7 C8.8,12.8 0.2,16.4 0.2,21.7 C0.2,24.7 3,27.1 7.4,29.1 L12.2,89.6 C12.2,96.2 28.1,99.1 42.8,99.1 C57.6,99.1 73.4,96.1 73.4,89.7 L78.3,29.1 C82.8,27.1 85.5,24.7 85.5,21.7 C85.6,16.4 76.9,12.8 65.2,10.7 Z M70.2,89.8 C70.2,91.9 60.6,95.9 42.9,95.9 C25.3,95.9 15.6,91.8 15.6,89.6 L10.9,30.6 C19.1,33.2 31,34.7 42.8,34.7 C54.6,34.7 66.6,33.3 74.7,30.6 L70.2,89.8 Z" id="Shape"></path>
                <path d="M31.1,17.9 C32,17.9 32.8,17.2 32.8,16.2 L32.8,3.7 L52.9,3.7 L52.9,16.2 C52.9,17.1 53.6,17.9 54.6,17.9 C55.6,17.9 56.3,17.2 56.3,16.2 L56.3,2.5 C56.3,1.2 55.3,0.2 54,0.2 L31.7,0.2 C30.4,0.2 29.4,1.2 29.4,2.5 L29.4,16.2 C29.4,17 30.1,17.9 31.1,17.9 Z" id="Path"></path>
            </g>
        </g>
    </g>
</svg>