<?xml version="1.0" encoding="utf-8"?>
<!-- Generator: Adobe Illustrator 22.0.0, SVG Export Plug-In . SVG Version: 6.00 Build 0)  -->
<svg version="1.1" id="Layer_1" xmlns="http://www.w3.org/2000/svg" xmlns:xlink="http://www.w3.org/1999/xlink" x="0px" y="0px"
	 viewBox="0 0 115 150" style="enable-background:new 0 0 115 150;" xml:space="preserve">
<style type="text/css">
	.st0{fill:#D5E2ED;}
	.st1{fill:#14486E;}
</style>
<g>
	<path class="st0" d="M82.5,42 M40.1,40.4c-12,2.1-20.6,5.7-20.6,11c0,3,2.8,5.4,7.2,7.4l4.8,60.5c0,6.6,15.9,9.5,30.6,9.5
		c14.8,0,30.6-3,30.6-9.4l4.9-60.6c4.5-2,7.2-4.4,7.2-7.4c0.1-5.3-8.5-9-20.3-11"/>
	<path class="st0" d="M50.4,47.6c0.9,0,1.7-0.7,1.7-1.7V33.4h20.1v12.5c0,0.9,0.7,1.7,1.7,1.7s1.7-0.7,1.7-1.7V32.1
		c0-1.3-1-2.3-2.3-2.3H51c-1.3,0-2.3,1-2.3,2.3v13.7C48.7,46.7,49.4,47.6,50.4,47.6z"/>
</g>
<g>
	<g>
		<path class="st1" d="M45.6,71.8c-0.4-0.4-1.3-0.2-1.4,0.4L43,81c-0.1,0.6,0.3,1,1,1l8.7-1.1c0.7-0.1,1-1,0.4-1.4l-1.6-1.6
			c3.4-2.9,8.6-2.7,11.8,0.6l0,0c0.7,0.7,1.8-0.1,1.4-1c-0.6-1.3-1.3-2.6-2.5-3.7c-4.2-4.2-11-4.4-15.3-0.6L45.6,71.8z"/>
		<path class="st1" d="M47.2,90.3c-0.4-0.6-1.3-0.3-1.6,0.3L45,92.6c-4.2-1.6-6.6-6.1-5.4-10.6c0,0,0,0,0-0.1c0.3-1-1-1.6-1.6-0.8
			c-0.9,1.1-1.6,2.5-1.9,3.9c-1.6,5.7,1.7,11.7,7.1,13.7l-0.6,2c-0.2,0.7,0.4,1.3,1.1,1l8.1-3.3c0.6-0.2,0.7-0.9,0.3-1.3L47.2,90.3z
			"/>
		<path class="st1" d="M61.5,81.9L58.1,90c-0.3,0.7,0.3,1.3,1,1.1l2.1-0.6c0.8,4.4-2,8.8-6.4,10c0,0,0,0-0.1,0
			c-1,0.3-0.9,1.6,0.1,1.7c1.4,0.2,2.9,0.1,4.4-0.3c5.7-1.6,9.2-7.2,8.2-13.1l2-0.6c0.7-0.2,0.9-1,0.3-1.6l-7-5.3
			C62.4,81.2,61.7,81.4,61.5,81.9z"/>
	</g>
	<g>
		<path class="st1" d="M75.3,36.8c-1-0.2-2,0.6-2,1.7l0,0c0,0.8,0.6,1.6,1.5,1.7c11.1,1.9,17.6,5.1,17.6,7.7
			c0,3.9-14.9,9.4-39.3,9.4s-39.3-5.4-39.3-9.4c0-2.5,6.4-5.7,17.6-7.7c0.8-0.1,1.5-0.8,1.5-1.7c0-1-0.9-1.9-2-1.7
			c-12,2.1-20.6,5.7-20.6,11c0,3,2.8,5.4,7.2,7.4l4.8,60.5c0,6.6,15.9,9.5,30.6,9.5c14.8,0,30.6-3,30.6-9.4l4.9-60.6
			c4.5-2,7.2-4.4,7.2-7.4C95.7,42.5,87,38.9,75.3,36.8z M80.3,115.8c0,2.1-9.6,6.1-27.3,6.1c-17.6,0-27.3-4.1-27.3-6.3l-4.7-59
			c8.2,2.6,20.1,4.1,31.9,4.1s23.8-1.4,31.9-4.1L80.3,115.8z"/>
		<path class="st1" d="M41.2,44c0.9,0,1.7-0.7,1.7-1.7V29.8H63v12.5c0,0.9,0.7,1.7,1.7,1.7s1.7-0.7,1.7-1.7V28.6
			c0-1.3-1-2.3-2.3-2.3H41.8c-1.3,0-2.3,1-2.3,2.3v13.7C39.5,43.1,40.2,44,41.2,44z"/>
	</g>
</g>
</svg>
