<?xml version="1.0" encoding="UTF-8"?>
<svg width="115px" height="115px" viewBox="0 0 115 115" version="1.1" xmlns="http://www.w3.org/2000/svg" xmlns:xlink="http://www.w3.org/1999/xlink">
    <!-- Generator: Sketch 56.1 (81669) - https://sketch.com -->
    <title>Icon/reutilisable</title>
    <desc>Created with Sketch.</desc>
    <g id="Icon/reutilisable" stroke="none" stroke-width="1" fill="none" fill-rule="evenodd">
        <rect id="Rectangle" x="0" y="0" width="115" height="115"></rect>
        <g id="reutilisable" transform="translate(3.000000, 7.000000)" fill-rule="nonzero">
            <path d="M36.1,49.4 C36.4,49.6 36.8,49.6 37.1,49.6 C37.8,49.6 38.5,49.3 38.9,48.6 L61.3,9.7 C62.1,8.2 63.7,7.4 65.3,7.4 C67,7.4 68.5,8.3 69.3,9.7 L78.2,24.9 L67.9,22.1 C66.8,21.8 65.6,22.4 65.4,23.6 C65.1,24.7 65.7,25.9 66.9,26.1 L81.8,30.1 C82,30.2 82.4,30.2 82.6,30.2 L82.6,30.2 C82.6,30.2 82.6,30.2 82.7,30.2 C82.8,30.2 82.9,30.2 83,30.1 C83.8,30 84.4,29.4 84.6,28.6 L88.7,13.5 C89,12.4 88.4,11.2 87.2,11 C86.1,10.7 84.9,11.3 84.7,12.5 L81.9,22.9 L73.1,7.7 C71.5,5 68.5,3.3 65.5,3.3 C62.3,3.3 59.5,5 57.9,7.7 L35.3,46.6 C34.7,47.6 35.1,48.9 36.1,49.4 Z" id="Path" fill="#D5E2ED"></path>
            <path d="M108.7,71.8 L87.4,35 C86.8,34 85.4,33.6 84.5,34.2 C83.5,34.8 83.1,36 83.7,37 L105,74.1 C106.1,73.1 107.3,72.4 108.7,71.8 Z" id="Path" fill="#D5E2ED"></path>
            <path d="M25.7,46.7 C26,46.9 26.4,46.9 26.7,46.9 C27.4,46.9 28.1,46.6 28.5,45.9 L50.9,7 C51.7,5.5 53.3,4.7 54.9,4.7 C56.6,4.7 58.1,5.6 58.9,7 L67.8,22.2 L57.5,19.4 C56.4,19.1 55.2,19.7 55,20.9 C54.7,22 55.3,23.2 56.5,23.4 L71.4,27.4 C71.6,27.5 72,27.5 72.2,27.5 L72.2,27.5 C72.2,27.5 72.2,27.5 72.3,27.5 C72.4,27.5 72.5,27.5 72.6,27.4 C73.4,27.3 74,26.7 74.2,25.9 L78.3,10.8 C78.6,9.7 78,8.5 76.8,8.3 C75.7,8 74.5,8.6 74.3,9.8 L71.5,20.2 L62.7,5 C61.1,2.3 58.1,0.6 55.1,0.6 C51.9,0.6 49.1,2.3 47.5,5 L24.9,43.9 C24.3,44.9 24.7,46.2 25.7,46.7 Z" id="Path" fill="#004971"></path>
            <path d="M76.1,32.3 C75.1,32.9 74.7,34.1 75.3,35.1 L97,72.8 L97.1,72.9 C97.7,73.7 97.9,74.6 97.9,75.6 C97.9,78.2 95.9,80.3 93.2,80.3 L93.2,80.3 L75.7,80.3 L83.3,72.7 C84.1,71.9 84.1,70.5 83.3,69.7 C82.5,68.9 81.1,68.9 80.3,69.7 L69.3,80.8 C68.5,81.6 68.5,83 69.3,83.8 L69.3,83.8 L69.3,83.8 L80.4,94.9 C80.9,95.4 81.3,95.5 81.9,95.5 C82.5,95.5 82.9,95.3 83.4,94.9 C84.2,94.1 84.2,92.7 83.4,91.9 L75.8,84.3 L93.3,84.3 L93.3,84.3 C98.2,84.3 102.2,80.3 102.2,75.4 C102.2,73.6 101.6,71.9 100.6,70.4 L79,33.1 C78.4,32.1 77,31.7 76.1,32.3 Z" id="Path" fill="#004971"></path>
            <path d="M61.5,93.7 C61.1,97.8 57.7,100.9 53.6,100.9 L19.6,100.9 C15.5,100.9 12.1,97.8 11.7,93.7 L9.4,69.3 C7.3,68.2 6.6,65.6 7.8,63.5 C8.6,62.2 10,61.3 11.5,61.3 L61.4,61.3 C63.8,61.3 65.7,63.2 65.7,65.6 C65.7,67 65,68.3 63.9,69.1 L61.5,93.7 L61.5,93.7 Z" id="Path" fill="#D5E2ED"></path>
            <path d="M58.7,60.8 C58.7,59.7 57.8,58.9 56.8,58.9 L4.7,58.9 C3.6,58.9 2.8,59.8 2.8,60.8 C2.8,61.9 3.7,62.7 4.7,62.7 L4.9,62.7 L7.5,89.9 C7.8,92.8 10.2,95.1 13.2,95.1 L48.7,95.1 C51.6,95.1 54.1,92.9 54.4,89.9 L57,62.7 C57.9,62.6 58.7,61.8 58.7,60.8 Z M56.8,90.2 C56.4,94.4 52.8,97.7 48.6,97.7 L13.1,97.7 C8.8,97.7 5.3,94.5 4.9,90.2 L2.5,64.7 C0.4,63.5 -0.4,60.8 0.8,58.6 C1.6,57.2 3.1,56.3 4.7,56.3 L56.8,56.3 C59.3,56.3 61.2,58.3 61.2,60.7 C61.2,62.2 60.5,63.5 59.3,64.4 L56.8,90.2 L56.8,90.2 Z" id="Shape" fill="#14486E"></path>
        </g>
    </g>
</svg>