<?xml version="1.0" encoding="utf-8"?>
<!-- Generator: Adobe Illustrator 22.0.0, SVG Export Plug-In . SVG Version: 6.00 Build 0)  -->
<svg version="1.1" id="Layer_1" xmlns="http://www.w3.org/2000/svg" xmlns:xlink="http://www.w3.org/1999/xlink" x="0px" y="0px"
	 viewBox="0 0 115 150" style="enable-background:new 0 0 115 150;" xml:space="preserve">
<style type="text/css">
	.st0{fill:#D5E2ED;}
	.st1{fill:#004971;}
	.st2{fill:#14486E;}
</style>
<path class="st0" d="M38.6,75.2c0.3,0.2,0.7,0.2,1,0.2c0.7,0,1.4-0.3,1.8-1l22.4-38.9c0.8-1.5,2.4-2.3,4-2.3c1.7,0,3.2,0.9,4,2.3
	l8.9,15.2l-10.3-2.8c-1.1-0.3-2.3,0.3-2.5,1.5c-0.3,1.1,0.3,2.3,1.5,2.5l14.9,4c0.2,0.1,0.6,0.1,0.8,0.1l0,0c0,0,0,0,0.1,0
	s0.2,0,0.3-0.1c0.8-0.1,1.4-0.7,1.6-1.5l4.1-15.1c0.3-1.1-0.3-2.3-1.5-2.5c-1.1-0.3-2.3,0.3-2.5,1.5l-2.8,10.4l-8.8-15.2
	C74,30.8,71,29.1,68,29.1c-3.2,0-6,1.7-7.6,4.4L37.8,72.4C37.2,73.4,37.6,74.7,38.6,75.2z"/>
<path class="st0" d="M111.2,97.6L89.9,60.8c-0.6-1-2-1.4-2.9-0.8c-1,0.6-1.4,1.8-0.8,2.8l21.3,37.1
	C108.6,98.9,109.8,98.2,111.2,97.6z"/>
<path class="st1" d="M28.2,72.5c0.3,0.2,0.7,0.2,1,0.2c0.7,0,1.4-0.3,1.8-1l22.4-38.9c0.8-1.5,2.4-2.3,4-2.3c1.7,0,3.2,0.9,4,2.3
	L70.3,48L60,45.2c-1.1-0.3-2.3,0.3-2.5,1.5c-0.3,1.1,0.3,2.3,1.5,2.5l14.9,4c0.2,0.1,0.6,0.1,0.8,0.1l0,0c0,0,0,0,0.1,0
	s0.2,0,0.3-0.1c0.8-0.1,1.4-0.7,1.6-1.5l4.1-15.1c0.3-1.1-0.3-2.3-1.5-2.5c-1.1-0.3-2.3,0.3-2.5,1.5L74,46l-8.8-15.2
	c-1.6-2.7-4.6-4.4-7.6-4.4c-3.2,0-6,1.7-7.6,4.4L27.4,69.7C26.8,70.7,27.2,72,28.2,72.5z"/>
<path class="st1" d="M78.6,58.1c-1,0.6-1.4,1.8-0.8,2.8l21.7,37.7l0.1,0.1c0.6,0.8,0.8,1.7,0.8,2.7c0,2.6-2,4.7-4.7,4.7l0,0H78.2
	l7.6-7.6c0.8-0.8,0.8-2.2,0-3s-2.2-0.8-3,0l-11,11.1c-0.8,0.8-0.8,2.2,0,3l0,0l0,0l11.1,11.1c0.5,0.5,0.9,0.6,1.5,0.6s1-0.2,1.5-0.6
	c0.8-0.8,0.8-2.2,0-3l-7.6-7.6h17.5l0,0c4.9,0,8.9-4,8.9-8.9c0-1.8-0.6-3.5-1.6-5L81.5,58.9C80.9,57.9,79.5,57.5,78.6,58.1z"/>
<path class="st0" d="M64,119.5c-0.4,4.1-3.8,7.2-7.9,7.2h-34c-4.1,0-7.5-3.1-7.9-7.2l-2.3-24.4c-2.1-1.1-2.8-3.7-1.6-5.8
	c0.8-1.3,2.2-2.2,3.7-2.2h49.9c2.4,0,4.3,1.9,4.3,4.3c0,1.4-0.7,2.7-1.8,3.5L64,119.5L64,119.5z"/>
<path class="st2" d="M61.2,86.6c0-1.1-0.9-1.9-1.9-1.9H7.2c-1.1,0-1.9,0.9-1.9,1.9c0,1.1,0.9,1.9,1.9,1.9h0.2l2.6,27.2
	c0.3,2.9,2.7,5.2,5.7,5.2h35.5c2.9,0,5.4-2.2,5.7-5.2l2.6-27.2C60.4,88.4,61.2,87.6,61.2,86.6z M59.3,116c-0.4,4.2-4,7.5-8.2,7.5
	H15.6c-4.3,0-7.8-3.2-8.2-7.5L5,90.5c-2.1-1.2-2.9-3.9-1.7-6.1c0.8-1.4,2.3-2.3,3.9-2.3h52.1c2.5,0,4.4,2,4.4,4.4
	c0,1.5-0.7,2.8-1.9,3.7L59.3,116L59.3,116z"/>
</svg>
