<?xml version="1.0" encoding="utf-8"?>
<!-- Generator: Adobe Illustrator 22.0.0, SVG Export Plug-In . SVG Version: 6.00 Build 0)  -->
<svg version="1.1" id="Layer_1" xmlns="http://www.w3.org/2000/svg" xmlns:xlink="http://www.w3.org/1999/xlink" x="0px" y="0px"
	 viewBox="0 0 115 150" style="enable-background:new 0 0 115 150;" xml:space="preserve">
<style type="text/css">
	.st0{fill:#D2E2EE;}
	.st1{fill:#004971;}
</style>
<g>
	<path class="st0" d="M108.8,125.7H20.8c-3.6,0-5.9-3.9-4.1-7.1l44-77.7c1.8-3.2,6.4-3.2,8.2,0l43.9,77.7
		C114.7,121.9,112.4,125.7,108.8,125.7z"/>
	<g>
		<path class="st1" d="M47.9,96.8c-1.1,0-2,1-2,2.2s0.9,2,2,2c0,0,0,0,0.1,0c6.4-0.2,11.1-2.5,14.2-6.7c7.4-10.1,2.3-27.9,2.2-28.6
			c-0.2-0.7-0.8-1.3-1.5-1.5c-0.7-0.2-1.5,0-1.9,0.6c-3,2.8-6.5,3.5-10.4,4.2c-4.7,0.8-10,1.7-13.4,7.4c-5,8.5-2.3,16.3,0.5,19.8
			c-1.8,3.5-3.3,7.3-3.8,11.4c-0.1,1.1,0.7,2.2,1.8,2.3c0.1,0,0.2,0,0.2,0c1,0,1.9-0.8,2-1.8c1.7-14.3,17.5-26.6,17.6-26.7
			c0.9-0.7,1-2,0.3-3c-0.7-0.9-2-1-3-0.3C52.6,78.4,45.4,84,40,92.2c-1.4-2.6-2.8-7.6,0.8-13.7c2.4-4.1,5.9-4.7,10.5-5.5
			c3.2-0.6,6.6-1.1,9.8-3.2c1,5.1,2.4,15.6-2.2,21.8C56.6,95,53,96.6,47.9,96.8z"/>
		<path class="st1" d="M22.2,79.5c0.3,0.2,0.7,0.2,1,0.2c0.7,0,1.4-0.3,1.8-1l22.4-38.9c0.8-1.5,2.4-2.3,4-2.3c1.7,0,3.2,0.9,4,2.3
			L64.3,55L54,52.2c-1.1-0.3-2.3,0.3-2.5,1.5c-0.3,1.1,0.3,2.3,1.5,2.5l14.9,4c0.2,0.1,0.6,0.1,0.8,0.1l0,0c0,0,0,0,0.1,0
			s0.2,0,0.3-0.1c0.8-0.1,1.4-0.7,1.6-1.5l4.1-15.1c0.3-1.1-0.3-2.3-1.5-2.5c-1.1-0.3-2.3,0.3-2.5,1.5L68,53l-8.8-15.2
			c-1.6-2.7-4.6-4.4-7.6-4.4c-3.2,0-6,1.7-7.6,4.4L21.4,76.7C20.8,77.7,21.2,79,22.2,79.5z"/>
		<path class="st1" d="M72.6,65.1c-1,0.6-1.4,1.8-0.8,2.8l21.7,37.7l0.1,0.1c0.6,0.8,0.8,1.7,0.8,2.7c0,2.6-2,4.7-4.7,4.7l0,0H72.2
			l7.6-7.6c0.8-0.8,0.8-2.2,0-3c-0.8-0.8-2.2-0.8-3,0l-11,11.1c-0.8,0.8-0.8,2.2,0,3l0,0l0,0l11.1,11.1c0.5,0.5,0.9,0.6,1.5,0.6
			s1-0.2,1.5-0.6c0.8-0.8,0.8-2.2,0-3l-7.6-7.6h17.5l0,0c4.9,0,8.9-4,8.9-8.9c0-1.8-0.6-3.5-1.6-5L75.5,65.9
			C74.9,64.9,73.5,64.5,72.6,65.1z"/>
		<path class="st1" d="M5.6,112.9c1.6,2.7,4.6,4.4,7.6,4.4h44c1.1,0,2-0.9,2-2s-0.9-2-2-2h-44c-1.7,0-3.2-0.9-4-2.3
			c-0.8-1.5-0.8-3.2,0-4.7l8.3-14.4l3,10.4c0.2,0.9,1.1,1.5,2,1.5c0.2,0,0.3,0,0.6-0.1c1.1-0.3,1.7-1.5,1.5-2.6l-4.3-15.1
			c-0.1-0.6-0.5-1-1-1.3c-0.5-0.2-1-0.3-1.6-0.2L2.4,88.5c-1.1,0.3-1.7,1.5-1.5,2.6c0.3,1.1,1.5,1.7,2.6,1.5l10.4-2.8l-8.3,14.3
			C4,106.8,4,110.1,5.6,112.9z"/>
	</g>
</g>
</svg>
